<?xml version="1.0" encoding="UTF-8" standalone="no"?>
<svg
   xmlns:dc="http://purl.org/dc/elements/1.1/"
   xmlns:cc="http://creativecommons.org/ns#"
   xmlns:rdf="http://www.w3.org/1999/02/22-rdf-syntax-ns#"
   xmlns:svg="http://www.w3.org/2000/svg"
   xmlns="http://www.w3.org/2000/svg"
   xmlns:sodipodi="http://sodipodi.sourceforge.net/DTD/sodipodi-0.dtd"
   xmlns:inkscape="http://www.inkscape.org/namespaces/inkscape"
   inkscape:version="1.0 (4035a4f, 2020-05-01)"
   sodipodi:docname="cutecard__BACK_RINGS.svg"
   id="svg118"
   version="1.1"
   height="192"
   width="336"
   style="fill-opacity:1; color-rendering:auto; color-interpolation:auto; text-rendering:auto; stroke:black; stroke-linecap:square; stroke-miterlimit:10; shape-rendering:auto; stroke-opacity:1; fill:black; stroke-dasharray:none; font-weight:normal; stroke-width:1; font-family:'Dialog'; font-style:normal; stroke-linejoin:miter; font-size:12px; stroke-dashoffset:0; image-rendering:auto;">
  <metadata
     id="metadata122">
    <rdf:RDF>
      <cc:Work
         rdf:about="">
        <dc:format>image/svg+xml</dc:format>
        <dc:type
           rdf:resource="http://purl.org/dc/dcmitype/StillImage" />
        <dc:title />
      </cc:Work>
    </rdf:RDF>
  </metadata>
  <sodipodi:namedview
     inkscape:snap-bbox="true"
     inkscape:snap-page="true"
     inkscape:object-nodes="false"
     inkscape:document-rotation="0"
     inkscape:snap-object-midpoints="true"
     inkscape:current-layer="layer7"
     inkscape:window-maximized="0"
     inkscape:window-y="25"
     inkscape:window-x="0"
     inkscape:cy="81.282899"
     inkscape:cx="153.61125"
     inkscape:zoom="1.661268"
     showgrid="false"
     id="namedview120"
     inkscape:window-height="847"
     inkscape:window-width="1440"
     inkscape:pageshadow="2"
     inkscape:pageopacity="0"
     guidetolerance="10"
     gridtolerance="10"
     objecttolerance="10"
     borderopacity="1"
     bordercolor="#666666"
     pagecolor="#ffffff"
     showguides="false" />
  <!--Generated by the Batik Graphics2D SVG Generator-->
  <defs
     id="genericDefs">
    <inkscape:path-effect
       effect="offset"
       id="path-effect389"
       is_visible="true"
       lpeversion="1"
       linejoin_type="round"
       unit="mm"
       offset="1.9"
       miter_limit="7.1"
       attempt_force_join="true"
       update_on_knot_move="true" />
    <inkscape:path-effect
       update_on_knot_move="false"
       attempt_force_join="false"
       miter_limit="4"
       offset="0.8"
       unit="mm"
       linejoin_type="bevel"
       lpeversion="1"
       is_visible="true"
       id="path-effect596"
       effect="offset" />
    <inkscape:path-effect
       effect="offset"
       id="path-effect23737"
       is_visible="true"
       lpeversion="1"
       linejoin_type="bevel"
       unit="mm"
       offset="1.1"
       miter_limit="2"
       attempt_force_join="true"
       update_on_knot_move="true" />
    <inkscape:path-effect
       update_on_knot_move="true"
       attempt_force_join="true"
       miter_limit="7.1"
       offset="0"
       unit="mm"
       linejoin_type="round"
       lpeversion="1"
       is_visible="true"
       id="path-effect23709"
       effect="offset" />
  </defs>
  <g
     inkscape:groupmode="layer"
     id="layer3"
     inkscape:label="border"
     style="display:inline">
    <path
       id="rect1745-1"
       style="font-style:normal;font-weight:normal;font-size:12px;font-family:Dialog;display:inline;opacity:1;color-interpolation:auto;fill:none;fill-opacity:1;stroke:#000000;stroke-width:1;stroke-linecap:square;stroke-linejoin:miter;stroke-miterlimit:10;stroke-dasharray:none;stroke-dashoffset:0;stroke-opacity:1;color-rendering:auto;image-rendering:auto;shape-rendering:auto;text-rendering:auto"
       d="M 4.2620602,4.2620602 H 331.73697 V 187.73699 H 4.2620602 Z" />
  </g>
  <g
     inkscape:groupmode="layer"
     id="layer5"
     inkscape:label="number"
     style="display:inline">
    <g
       id="g3199"
       style="font-style:normal;font-weight:normal;font-size:12px;font-family:Dialog;display:inline;color-interpolation:auto;fill:none;fill-opacity:1;stroke:#000000;stroke-width:1;stroke-linecap:round;stroke-linejoin:round;stroke-miterlimit:10;stroke-dasharray:none;stroke-dashoffset:0;stroke-opacity:1;color-rendering:auto;image-rendering:auto;shape-rendering:auto;text-rendering:auto"
       inkscape:label="Hershey Text"
       transform="matrix(1.0894071,0,0,1,-18.146259,67.845)">
      <g
         id="g3197"
         transform="translate(28.2916,103.535)">
        <path
           id="path3177"
           transform="scale(0.04,-0.04)"
           style="stroke-width:0.0625in"
           d="M 567,662 H 252 l -32,-284 32,32 94,31 h 95 l 95,-31 62,-64 32,-94 V 189 L 598,94.5 536,31.5 441,0 H 346 L 252,31.5 220,63 189,126" />
        <path
           id="path3179"
           transform="matrix(0.04,0,0,-0.04,25.2,0)"
           style="stroke-width:0.0625in"
           d="M 378,662 284,630 220,536 189,378 V 284 L 220,126 284,31.5 378,0 h 63 l 95,31.5 62,94.5 32,158 v 94 l -32,158 -62,94 -95,32 h -63" />
        <path
           id="path3181"
           transform="matrix(0.04,0,0,-0.04,50.4,0)"
           style="stroke-width:0.0625in"
           d="m 346,662 -94,-32 -32,-63 v -63 l 32,-63 63,-31 126,-32 95,-32 62,-62 32,-64 V 126 L 598,63 567,31.5 472,0 H 346 L 252,31.5 220,63 189,126 v 94 l 31,64 64,62 94,32 126,32 63,31 31,63 v 63 l -31,63 -95,32 H 346" />
        <path
           id="path3183"
           transform="matrix(0.04,0,0,-0.04,90.72,0)"
           style="stroke-width:0.0625in"
           d="M 504,662 189,220 H 662 M 504,662 V 0" />
        <path
           id="path3185"
           transform="matrix(0.04,0,0,-0.04,115.92,0)"
           style="stroke-width:0.0625in"
           d="m 598,441 -31,-95 -63,-62 -94,-32 h -32 l -94,32 -64,62 -31,95 v 31 l 31,95 64,63 94,32 h 32 l 94,-32 63,-63 31,-126 V 284 L 567,126 504,31.5 410,0 h -64 l -94,31.5 -32,63" />
        <path
           id="path3187"
           transform="matrix(0.04,0,0,-0.04,141.12,0)"
           style="stroke-width:0.0625in"
           d="M 252,662 H 598 L 410,410 h 94 l 63,-32 31,-32 32,-94 V 189 L 598,94.5 536,31.5 441,0 H 346 L 252,31.5 220,63 189,126" />
        <path
           id="path3189"
           transform="matrix(0.04,0,0,-0.04,181.44,0)"
           style="stroke-width:0.0625in"
           d="m 284,536 62,31 95,95 V 0" />
        <path
           id="path3191"
           transform="matrix(0.04,0,0,-0.04,206.64,0)"
           style="stroke-width:0.0625in"
           d="m 598,567 -31,63 -95,32 H 410 L 315,630 252,536 220,378 V 220 L 252,94.5 315,31.5 410,0 h 31 l 95,31.5 62,63 32,94.5 v 31 l -32,95 -62,63 -95,32 h -31 l -95,-32 -63,-63 -32,-95" />
        <path
           id="path3193"
           transform="matrix(0.04,0,0,-0.04,231.84,0)"
           style="stroke-width:0.0625in"
           d="M 378,662 284,630 220,536 189,378 V 284 L 220,126 284,31.5 378,0 h 63 l 95,31.5 62,94.5 32,158 v 94 l -32,158 -62,94 -95,32 h -63" />
        <path
           id="path3195"
           transform="matrix(0.04,0,0,-0.04,257.04,0)"
           style="stroke-width:0.0625in"
           d="m 284,536 62,31 95,95 V 0" />
      </g>
    </g>
  </g>
  <g
     inkscape:groupmode="layer"
     id="layer7"
     inkscape:label="rings"
     style="display:inline">
    <g
       id="g4461"
       transform="translate(168,96)"
       style="font-style:normal;font-weight:normal;font-size:12px;font-family:Dialog;color-interpolation:auto;fill:none;fill-opacity:1;stroke:#000000;stroke-width:1;stroke-linecap:square;stroke-linejoin:miter;stroke-miterlimit:10;stroke-dasharray:none;stroke-dashoffset:0;stroke-opacity:1;color-rendering:auto;image-rendering:auto;shape-rendering:auto;text-rendering:auto">
      <path
         id="circle4425"
         clip-path="url(#clipPath1)"
         style="fill:none;stroke-width:1;stroke-miterlimit:10;stroke-dasharray:none"
         d="M 98.815101,-55.22 A 5.5599999,5.5599999 0 0 1 91.22,-53.184899 5.5599999,5.5599999 0 0 1 89.184899,-60.78 5.5599999,5.5599999 0 0 1 96.78,-62.815101 5.5599999,5.5599999 0 0 1 98.815101,-55.22" />
      <path
         id="circle4427"
         clip-path="url(#clipPath1)"
         style="fill:none;stroke-width:1;stroke-miterlimit:10;stroke-dasharray:none"
         d="M 99.56,-48.369798 A 11.12,11.12 0 0 1 84.369798,-52.44 11.12,11.12 0 0 1 88.44,-67.630202 11.12,11.12 0 0 1 103.6302,-63.56 11.12,11.12 0 0 1 99.56,-48.369798" />
      <path
         id="circle4429"
         clip-path="url(#clipPath1)"
         style="fill:none;stroke-width:1;stroke-miterlimit:10;stroke-dasharray:none"
         d="M 79.554696,-66.34 A 16.68,16.68 0 0 1 102.34,-72.445304 16.68,16.68 0 0 1 108.4453,-49.66 16.68,16.68 0 0 1 85.66,-43.554696 16.68,16.68 0 0 1 79.554696,-66.34" />
      <path
         id="circle4431"
         clip-path="url(#clipPath1)"
         style="fill:none;stroke-width:1;stroke-miterlimit:10;stroke-dasharray:none"
         d="M 74.739595,-46.88 A 22.24,22.24 0 0 1 82.88,-77.260405 22.24,22.24 0 0 1 113.2604,-69.12 22.24,22.24 0 0 1 105.12,-38.739595 22.24,22.24 0 0 1 74.739595,-46.88" />
      <path
         id="circle4433"
         clip-path="url(#clipPath1)"
         style="fill:none;stroke-width:1;stroke-miterlimit:10;stroke-dasharray:none"
         d="m 66.200001,-58 a -27.799999,-27.799999 0 0 1 27.8,-27.799999 A -27.799999,-27.799999 0 0 1 121.8,-58 -27.799999,-27.799999 0 0 1 94.000001,-30.200001 -27.799999,-27.799999 0 0 1 66.200001,-58" />
      <path
         id="circle4435"
         clip-path="url(#clipPath1)"
         style="fill:none;stroke-width:1;stroke-miterlimit:10;stroke-dasharray:none"
         d="M 65.109392,-74.68 A 33.360001,33.360001 0 0 1 110.68,-86.890609 33.360001,33.360001 0 0 1 122.89061,-41.32 33.360001,33.360001 0 0 1 77.319999,-29.109392 33.360001,33.360001 0 0 1 65.109392,-74.68" />
      <path
         sodipodi:nodetypes="csssc"
         transform="translate(-168,-96)"
         d="M 281.40344,4.2616985 C 293.47719,11.205508 300.92,24.071898 300.92,38 300.92,59.494922 283.49492,76.919999 262,76.919998 240.50508,76.919999 223.08,59.494922 223.08,38 c 0,-13.927902 7.4426,-26.794139 19.51608,-33.7380211"
         style="fill:none;stroke-width:1;stroke-miterlimit:10;stroke-dasharray:none"
         clip-path="url(#clipPath1)"
         id="circle4437" />
      <path
         sodipodi:nodetypes="csssc"
         transform="translate(-168,-96)"
         d="M 290.9849,4.2606194 C 300.8211,12.710725 306.48,25.032534 306.48,38 c 0,24.565626 -19.91437,44.48 -44.48,44.48 -24.56563,0 -44.48,-19.914374 -44.48,-44.48 0,-12.967355 5.6588,-25.289069 15.49486,-33.739173"
         style="fill:none;stroke-width:1;stroke-miterlimit:10;stroke-dasharray:none"
         clip-path="url(#clipPath1)"
         id="circle4439" />
      <path
         transform="translate(-168,-96)"
         d="M 298.95641 4.2624028 A 50.040001 50.040001 0 0 1 312.04 38 A 50.040001 50.040001 0 0 1 262 88.040001 A 50.040001 50.040001 0 0 1 211.96 38 A 50.040001 50.040001 0 0 1 225.04513 4.2607191 "
         style="fill:none;stroke-width:1;stroke-miterlimit:10;stroke-dasharray:none"
         clip-path="url(#clipPath1)"
         id="circle4441" />
      <path
         transform="translate(-168,-96)"
         d="M 306.19294 4.2606386 A 55.599998 55.599998 0 0 1 317.6 38 A 55.599998 55.599998 0 0 1 262 93.599998 A 55.599998 55.599998 0 0 1 206.4 38 A 55.599998 55.599998 0 0 1 217.80695 4.2607924 "
         style="fill:none;stroke-width:1;stroke-miterlimit:10;stroke-dasharray:none"
         clip-path="url(#clipPath1)"
         id="circle4443" />
      <path
         transform="translate(-168,-96)"
         d="M 313.01225 4.2613593 A 61.16 61.16 0 0 1 323.16 38 A 61.16 61.16 0 0 1 262 99.16 A 61.16 61.16 0 0 1 200.84 38 A 61.16 61.16 0 0 1 210.98796 4.261037 "
         style="fill:none;stroke-width:1;stroke-miterlimit:10;stroke-dasharray:none"
         clip-path="url(#clipPath1)"
         id="circle4445" />
      <path
         transform="translate(-168,-96)"
         d="M 319.56138 4.2621065 A 66.720001 66.720001 0 0 1 328.72 38 A 66.720001 66.720001 0 0 1 262 104.72 A 66.720001 66.720001 0 0 1 195.28 38 A 66.720001 66.720001 0 0 1 204.43884 4.2617227 "
         style="fill:none;stroke-width:1;stroke-miterlimit:10;stroke-dasharray:none"
         clip-path="url(#clipPath1)"
         id="circle4447" />
      <path
         transform="translate(-168,-96)"
         d="M 325.92268 4.2614629 A 72.279999 72.279999 0 0 1 331.73598 18.992329 "
         style="fill:none;stroke-width:1;stroke-miterlimit:10;stroke-dasharray:none"
         clip-path="url(#clipPath1)"
         id="path1114" />
      <path
         transform="translate(-168,-96)"
         d="M 331.73596 57.007737 A 72.279999 72.279999 0 0 1 262 110.28 A 72.279999 72.279999 0 0 1 189.72 38 A 72.279999 72.279999 0 0 1 198.07697 4.2621269 "
         style="fill:none;stroke-width:1;stroke-miterlimit:10;stroke-dasharray:none"
         clip-path="url(#clipPath1)"
         id="path1110" />
      <path
         transform="translate(-168,-96)"
         d="M 331.73662 72.581335 A 77.839996 77.839996 0 0 1 262 115.84 A 77.839996 77.839996 0 0 1 184.16 38 A 77.839996 77.839996 0 0 1 191.85164 4.2617073 "
         style="fill:none;stroke-width:1;stroke-miterlimit:10;stroke-dasharray:none"
         clip-path="url(#clipPath1)"
         id="path1105" />
      <path
         transform="translate(-168,-96)"
         d="M 331.73729 83.741347 A 83.400002 83.400002 0 0 1 262 121.4 A 83.400002 83.400002 0 0 1 178.6 38 A 83.400002 83.400002 0 0 1 185.72926 4.2607849 "
         style="fill:none;stroke-width:1;stroke-miterlimit:10;stroke-dasharray:none"
         clip-path="url(#clipPath1)"
         id="path1100" />
      <path
         transform="translate(-168,-96)"
         d="M 331.73615 93.23361 A 88.959999 88.959999 0 0 1 262 126.96 A 88.959999 88.959999 0 0 1 173.04 38 A 88.959999 88.959999 0 0 1 179.6857 4.262223 "
         style="fill:none;stroke-width:1;stroke-miterlimit:10;stroke-dasharray:none"
         clip-path="url(#clipPath1)"
         id="path1095" />
      <path
         transform="translate(-168,-96)"
         d="M 331.73689 101.80279 A 94.519997 94.519997 0 0 1 262 132.52 A 94.519997 94.519997 0 0 1 167.48 38 A 94.519997 94.519997 0 0 1 173.7065 4.261477 "
         style="fill:none;stroke:#000000;stroke-width:1;stroke-miterlimit:10;stroke-dasharray:none;stroke-opacity:1"
         clip-path="url(#clipPath1)"
         id="path1090" />
      <path
         transform="translate(-168,-96)"
         d="M 331.73665,109.78305 A 100.08,100.08 0 0 1 262,138.08 100.08,100.08 0 0 1 161.92,38 100.08,100.08 0 0 1 167.77817,4.2619771"
         style="fill:none;stroke:#000000;stroke-opacity:1"
         clip-path="url(#clipPath1)"
         id="path1030" />
    </g>
  </g>
  <g
     style="display:inline"
     inkscape:label="emma"
     id="g677"
     inkscape:groupmode="layer">
    <g
       id="g2101"
       style="fill:none;stroke:#000000;stroke-linecap:round;stroke-linejoin:round"
       inkscape:label="Hershey Text"
       transform="translate(3.4103,0.3381)">
      <g
         id="g2099"
         transform="translate(13.7097,38.2019)">
        <path
           id="path2091"
           transform="scale(0.04,-0.04)"
           style="stroke-width:0.0625in"
           d="m 126,158 126,31 94,31 95,64 31,62 -31,64 -63,31 H 284 L 189,410 126,315 94.5,220 V 158 L 126,63 158,31.5 220,0 h 64 l 94,31.5 63,63 M 189,378 158,315 126,220 V 126 L 158,63 M 284,441 220,378 189,315 158,220 V 126 L 189,31.5 220,0" />
        <path
           id="path2093"
           transform="matrix(0.04,0,0,-0.04,22.68,0)"
           style="stroke-width:0.0625in"
           d="m 31.5,315 31.5,63 63,63 h 63 l 31,-31 32,-64 V 252 L 189,0 m 31,410 V 252 L 158,0 M 220,346 189,220 126,0 h 63 m 63,252 63,94 63,64 63,31 h 63 l 63,-31 31,-64 V 252 L 536,0 m 31,410 V 252 L 504,0 M 567,346 536,220 472,0 h 64 m 62,252 64,94 62,64 64,31 h 62 l 64,-31 31,-64 V 252 L 882,94.5 M 914,410 V 284 L 882,158 V 31.5 M 914,346 850,189 V 94.5 L 882,31.5 914,0 h 62 l 63.5,63 31.5,63" />
        <path
           id="path2095"
           transform="matrix(0.04,0,0,-0.04,66.78,0)"
           style="stroke-width:0.0625in"
           d="m 31.5,315 31.5,63 63,63 h 63 l 31,-31 32,-64 V 252 L 189,0 m 31,410 V 252 L 158,0 M 220,346 189,220 126,0 h 63 m 63,252 63,94 63,64 63,31 h 63 l 63,-31 31,-64 V 252 L 536,0 m 31,410 V 252 L 504,0 M 567,346 536,220 472,0 h 64 m 62,252 64,94 62,64 64,31 h 62 l 64,-31 31,-64 V 252 L 882,94.5 M 914,410 V 284 L 882,158 V 31.5 M 914,346 850,189 V 94.5 L 882,31.5 914,0 h 62 l 63.5,63 31.5,63" />
        <path
           id="path2097"
           transform="matrix(0.04,0,0,-0.04,110.88,0)"
           style="stroke-width:0.0625in"
           d="M 504,441 441,220 V 94.5 L 472,31.5 504,0 h 63 l 63,63 32,63 M 536,441 472,220 V 31.5 M 504,441 h 63 L 504,220 472,94.5 M 441,220 v 95 l -31,95 -64,31 H 284 L 189,410 126,315 94.5,220 V 158 L 126,63 158,31.5 220,0 h 64 l 62,31.5 32,31.5 32,63 31,94 M 220,410 158,315 126,220 V 126 L 158,63 M 284,441 220,378 189,315 158,220 V 126 L 189,31.5 220,0" />
      </g>
    </g>
  </g>
</svg>
