<?xml version="1.0" encoding="UTF-8" standalone="no"?>
<svg
   xmlns:dc="http://purl.org/dc/elements/1.1/"
   xmlns:cc="http://creativecommons.org/ns#"
   xmlns:rdf="http://www.w3.org/1999/02/22-rdf-syntax-ns#"
   xmlns:svg="http://www.w3.org/2000/svg"
   xmlns="http://www.w3.org/2000/svg"
   xmlns:sodipodi="http://sodipodi.sourceforge.net/DTD/sodipodi-0.dtd"
   xmlns:inkscape="http://www.inkscape.org/namespaces/inkscape"
   style="fill-opacity:1; color-rendering:auto; color-interpolation:auto; text-rendering:auto; stroke:black; stroke-linecap:square; stroke-miterlimit:10; shape-rendering:auto; stroke-opacity:1; fill:black; stroke-dasharray:none; font-weight:normal; stroke-width:1; font-family:'Dialog'; font-style:normal; stroke-linejoin:miter; font-size:12px; stroke-dashoffset:0; image-rendering:auto;"
   width="336"
   height="192"
   version="1.1"
   id="svg118"
   sodipodi:docname="cutecard__BACK_TWISTY.svg"
   inkscape:version="1.0 (4035a4f, 2020-05-01)">
  <metadata
     id="metadata122">
    <rdf:RDF>
      <cc:Work
         rdf:about="">
        <dc:format>image/svg+xml</dc:format>
        <dc:type
           rdf:resource="http://purl.org/dc/dcmitype/StillImage" />
        <dc:title></dc:title>
      </cc:Work>
    </rdf:RDF>
  </metadata>
  <sodipodi:namedview
     showguides="false"
     pagecolor="#ffffff"
     bordercolor="#666666"
     borderopacity="1"
     objecttolerance="10"
     gridtolerance="10"
     guidetolerance="10"
     inkscape:pageopacity="0"
     inkscape:pageshadow="2"
     inkscape:window-width="1440"
     inkscape:window-height="847"
     id="namedview120"
     showgrid="false"
     inkscape:zoom="1.661268"
     inkscape:cx="148.79565"
     inkscape:cy="187.82802"
     inkscape:window-x="-1"
     inkscape:window-y="25"
     inkscape:window-maximized="0"
     inkscape:current-layer="layer7"
     inkscape:snap-object-midpoints="true"
     inkscape:document-rotation="0"
     inkscape:object-nodes="false"
     inkscape:snap-page="true"
     inkscape:snap-bbox="true" />
  <!--Generated by the Batik Graphics2D SVG Generator-->
  <defs
     id="genericDefs">
    <rect
       id="rect2234"
       height="146.9666"
       width="118.56957"
       y="17.047946"
       x="91.58159" />
    <inkscape:path-effect
       update_on_knot_move="true"
       attempt_force_join="true"
       miter_limit="7.1"
       offset="1.9"
       unit="mm"
       linejoin_type="round"
       lpeversion="1"
       is_visible="true"
       id="path-effect389"
       effect="offset" />
    <inkscape:path-effect
       effect="offset"
       id="path-effect596"
       is_visible="true"
       lpeversion="1"
       linejoin_type="bevel"
       unit="mm"
       offset="0.8"
       miter_limit="4"
       attempt_force_join="false"
       update_on_knot_move="false" />
    <inkscape:path-effect
       update_on_knot_move="true"
       attempt_force_join="true"
       miter_limit="2"
       offset="1.1"
       unit="mm"
       linejoin_type="bevel"
       lpeversion="1"
       is_visible="true"
       id="path-effect23737"
       effect="offset" />
    <inkscape:path-effect
       effect="offset"
       id="path-effect23709"
       is_visible="true"
       lpeversion="1"
       linejoin_type="round"
       unit="mm"
       offset="0"
       miter_limit="7.1"
       attempt_force_join="true"
       update_on_knot_move="true" />
    <clipPath
       clipPathUnits="userSpaceOnUse"
       id="clipPath170">
      <rect
         style="fill:#ffffff;stroke-width:0.938869"
         id="rect172"
         width="335.06113"
         height="191.06113"
         x="0.93888283"
         y="0" />
    </clipPath>
  </defs>
  <g
     style="display:inline"
     inkscape:label="border"
     id="layer3"
     inkscape:groupmode="layer">
    <rect
       style="font-style:normal;font-weight:normal;font-size:12px;font-family:Dialog;display:inline;opacity:1;color-interpolation:auto;fill:none;fill-opacity:1;stroke:#000000;stroke-width:0.965065;stroke-linecap:square;stroke-linejoin:miter;stroke-miterlimit:10;stroke-dasharray:none;stroke-dashoffset:0;stroke-opacity:1;color-rendering:auto;image-rendering:auto;shape-rendering:auto;text-rendering:auto"
       id="rect1745-1"
       width="327.47491"
       height="183.47493"
       x="4.2620602"
       y="4.2620602" />
  </g>
  <g
     style="display:inline"
     inkscape:label="number"
     id="layer5"
     inkscape:groupmode="layer">
    <g
       transform="matrix(1.0894071,0,0,1,-18.146259,67.845)"
       inkscape:label="Hershey Text"
       style="font-style:normal;font-weight:normal;font-size:12px;font-family:Dialog;display:inline;color-interpolation:auto;fill:none;fill-opacity:1;stroke:#000000;stroke-width:1;stroke-linecap:round;stroke-linejoin:round;stroke-miterlimit:10;stroke-dasharray:none;stroke-dashoffset:0;stroke-opacity:1;color-rendering:auto;image-rendering:auto;shape-rendering:auto;text-rendering:auto"
       id="g3199">
      <g
         transform="translate(28.2916,103.535)"
         id="g3197">
        <path
           d="M 567,662 H 252 l -32,-284 32,32 94,31 h 95 l 95,-31 62,-64 32,-94 V 189 L 598,94.5 536,31.5 441,0 H 346 L 252,31.5 220,63 189,126"
           style="stroke-width:0.0625in"
           transform="scale(0.04,-0.04)"
           id="path3177" />
        <path
           d="M 378,662 284,630 220,536 189,378 V 284 L 220,126 284,31.5 378,0 h 63 l 95,31.5 62,94.5 32,158 v 94 l -32,158 -62,94 -95,32 h -63"
           style="stroke-width:0.0625in"
           transform="matrix(0.04,0,0,-0.04,25.2,0)"
           id="path3179" />
        <path
           d="m 346,662 -94,-32 -32,-63 v -63 l 32,-63 63,-31 126,-32 95,-32 62,-62 32,-64 V 126 L 598,63 567,31.5 472,0 H 346 L 252,31.5 220,63 189,126 v 94 l 31,64 64,62 94,32 126,32 63,31 31,63 v 63 l -31,63 -95,32 H 346"
           style="stroke-width:0.0625in"
           transform="matrix(0.04,0,0,-0.04,50.4,0)"
           id="path3181" />
        <path
           d="M 504,662 189,220 H 662 M 504,662 V 0"
           style="stroke-width:0.0625in"
           transform="matrix(0.04,0,0,-0.04,90.72,0)"
           id="path3183" />
        <path
           d="m 598,441 -31,-95 -63,-62 -94,-32 h -32 l -94,32 -64,62 -31,95 v 31 l 31,95 64,63 94,32 h 32 l 94,-32 63,-63 31,-126 V 284 L 567,126 504,31.5 410,0 h -64 l -94,31.5 -32,63"
           style="stroke-width:0.0625in"
           transform="matrix(0.04,0,0,-0.04,115.92,0)"
           id="path3185" />
        <path
           d="M 252,662 H 598 L 410,410 h 94 l 63,-32 31,-32 32,-94 V 189 L 598,94.5 536,31.5 441,0 H 346 L 252,31.5 220,63 189,126"
           style="stroke-width:0.0625in"
           transform="matrix(0.04,0,0,-0.04,141.12,0)"
           id="path3187" />
        <path
           d="m 284,536 62,31 95,95 V 0"
           style="stroke-width:0.0625in"
           transform="matrix(0.04,0,0,-0.04,181.44,0)"
           id="path3189" />
        <path
           d="m 598,567 -31,63 -95,32 H 410 L 315,630 252,536 220,378 V 220 L 252,94.5 315,31.5 410,0 h 31 l 95,31.5 62,63 32,94.5 v 31 l -32,95 -62,63 -95,32 h -31 l -95,-32 -63,-63 -32,-95"
           style="stroke-width:0.0625in"
           transform="matrix(0.04,0,0,-0.04,206.64,0)"
           id="path3191" />
        <path
           d="M 378,662 284,630 220,536 189,378 V 284 L 220,126 284,31.5 378,0 h 63 l 95,31.5 62,94.5 32,158 v 94 l -32,158 -62,94 -95,32 h -63"
           style="stroke-width:0.0625in"
           transform="matrix(0.04,0,0,-0.04,231.84,0)"
           id="path3193" />
        <path
           d="m 284,536 62,31 95,95 V 0"
           style="stroke-width:0.0625in"
           transform="matrix(0.04,0,0,-0.04,257.04,0)"
           id="path3195" />
      </g>
    </g>
  </g>
  <g
     style="display:inline"
     inkscape:label="squiggle"
     id="layer7"
     inkscape:groupmode="layer">
    <g
       transform="translate(-4.8542023e-4,-4.7779083e-4)"
       id="g3469"
       style="font-style:normal;font-weight:normal;font-size:12px;font-family:Dialog;display:inline;color-interpolation:auto;fill:none;fill-opacity:1;stroke:#000000;stroke-width:1;stroke-linecap:square;stroke-linejoin:miter;stroke-miterlimit:10;stroke-dasharray:none;stroke-dashoffset:0;stroke-opacity:1;color-rendering:auto;image-rendering:auto;shape-rendering:auto;text-rendering:auto">
      <g
         style="fill:none;stroke-width:1;stroke-miterlimit:10;stroke-dasharray:none;stroke-linejoin:miter"
         id="g3454">
        <g
           style="fill:none;stroke:#ffffff;stroke-width:1;stroke-miterlimit:10;stroke-dasharray:none;stroke-linejoin:miter"
           id="g3444">
          <rect
             x="0"
             width="336"
             height="192"
             y="0"
             style="stroke:none;fill:none;stroke-width:1;stroke-miterlimit:10;stroke-dasharray:none;stroke-linejoin:miter"
             id="rect3442" />
        </g>
        <g
           style="fill:none;stroke-width:1;stroke-miterlimit:10;stroke-dasharray:none;stroke-linejoin:miter"
           transform="translate(168,96)"
           id="g3452">
          <path
             style="fill:none;stroke-width:1;stroke-miterlimit:10;stroke-dasharray:none;stroke-linejoin:miter"
             d="m -11,-64 c 40.8852,-19.1696 -10.3696,-18.8852 22,0 v 0 c 32.3696,18.6288 -18.6288,19.1696 22,0 v 0 c 40.6288,-19.6653 -10.8653,-18.6288 22,0 v 0 c 32.8653,20.1901 -20.1901,19.6653 22,0 v 0 c 42.1901,-17.3657 -8.5657,-20.1901 22,0 v 0 c 30.5658,18.4966 -18.4966,17.3657 22,0 v 0 c 40.4966,-16.1985 -7.3985,-18.4966 22,0 v 0 c 29.3985,15.8843 -15.8843,16.1985 22,0"
             id="path3446" />
          <path
             style="fill:none;stroke-width:1;stroke-miterlimit:10;stroke-dasharray:none;stroke-linejoin:miter"
             d="m -165,-24.1667 c 29.2329,16.5689 -16.5688,16.033 22,0 38.5688,-18.7175 -9.9175,-16.5688 22,0 31.9175,16.6037 -16.6036,18.7175 22,0 38.6036,-16.3401 -7.5402,-16.6036 22,0 29.5402,22.4567 -22.4567,16.3402 22,0 44.4567,-14.152 -5.352,-22.4567 22,0 27.352,22.1622 -22.1622,14.1521 22,0 44.1622,-19.9335 -11.1336,-22.1621 22,0 33.1336,15.9933 -15.9932,19.9336 22,0 37.9932,-23.8053 -15.0053,-15.9932 22,0 37.0053,15.5058 -15.5058,23.8054 22,0 37.5058,-15.4045 -6.6046,-15.5057 22,0 28.6046,16.1476 -16.1476,15.4046 22,0 38.1476,-20.8272 -12.0273,-16.1476 22,0 34.0273,18.2336 -18.2336,20.8273 22,0"
             id="path3448" />
          <path
             style="fill:none;stroke-width:1;stroke-miterlimit:10;stroke-dasharray:none;stroke-linejoin:miter"
             d="m -165,15.6667 c 29.6984,20.552 -20.552,16.4983 22,0 42.552,-18.5661 -9.766,-20.5521 22,0 31.766,18.0519 -18.0519,18.566 22,0 40.0519,-16.6198 -7.8198,-18.052 22,0 29.8198,19.4842 -19.4843,16.6197 22,0 41.4843,-12.3893 -3.5893,-19.4843 22,0 25.5893,20.1972 -20.1973,12.3892 22,0 42.1973,-19.4912 -10.6912,-20.1973 22,0 32.6912,14.7349 -14.7349,19.4912 22,0 36.7349,-21.0398 -12.2397,-14.735 22,0 34.2397,21.0834 -21.0834,21.0397 22,0 43.0834,-12.129 -3.329,-21.0835 22,0 25.329,17.0895 -17.0895,12.1289 22,0 39.0895,-21.5871 -12.787,-17.0896 22,0 34.787,22.2506 -22.2507,21.587 22,0"
             id="path3450" />
        </g>
      </g>
    </g>
  </g>
  <g
     inkscape:groupmode="layer"
     id="g677"
     inkscape:label="emma"
     style="display:inline">
    <g
       transform="translate(3.4103,0.3381)"
       inkscape:label="Hershey Text"
       style="fill:none;stroke:#000000;stroke-linecap:round;stroke-linejoin:round"
       id="g2101">
      <g
         transform="translate(13.7097,38.2019)"
         id="g2099">
        <path
           d="m 126,158 126,31 94,31 95,64 31,62 -31,64 -63,31 H 284 L 189,410 126,315 94.5,220 V 158 L 126,63 158,31.5 220,0 h 64 l 94,31.5 63,63 M 189,378 158,315 126,220 V 126 L 158,63 M 284,441 220,378 189,315 158,220 V 126 L 189,31.5 220,0"
           style="stroke-width:0.0625in"
           transform="scale(0.04,-0.04)"
           id="path2091" />
        <path
           d="m 31.5,315 31.5,63 63,63 h 63 l 31,-31 32,-64 V 252 L 189,0 m 31,410 V 252 L 158,0 M 220,346 189,220 126,0 h 63 m 63,252 63,94 63,64 63,31 h 63 l 63,-31 31,-64 V 252 L 536,0 m 31,410 V 252 L 504,0 M 567,346 536,220 472,0 h 64 m 62,252 64,94 62,64 64,31 h 62 l 64,-31 31,-64 V 252 L 882,94.5 M 914,410 V 284 L 882,158 V 31.5 M 914,346 850,189 V 94.5 L 882,31.5 914,0 h 62 l 63.5,63 31.5,63"
           style="stroke-width:0.0625in"
           transform="matrix(0.04,0,0,-0.04,22.68,0)"
           id="path2093" />
        <path
           d="m 31.5,315 31.5,63 63,63 h 63 l 31,-31 32,-64 V 252 L 189,0 m 31,410 V 252 L 158,0 M 220,346 189,220 126,0 h 63 m 63,252 63,94 63,64 63,31 h 63 l 63,-31 31,-64 V 252 L 536,0 m 31,410 V 252 L 504,0 M 567,346 536,220 472,0 h 64 m 62,252 64,94 62,64 64,31 h 62 l 64,-31 31,-64 V 252 L 882,94.5 M 914,410 V 284 L 882,158 V 31.5 M 914,346 850,189 V 94.5 L 882,31.5 914,0 h 62 l 63.5,63 31.5,63"
           style="stroke-width:0.0625in"
           transform="matrix(0.04,0,0,-0.04,66.78,0)"
           id="path2095" />
        <path
           d="M 504,441 441,220 V 94.5 L 472,31.5 504,0 h 63 l 63,63 32,63 M 536,441 472,220 V 31.5 M 504,441 h 63 L 504,220 472,94.5 M 441,220 v 95 l -31,95 -64,31 H 284 L 189,410 126,315 94.5,220 V 158 L 126,63 158,31.5 220,0 h 64 l 62,31.5 32,31.5 32,63 31,94 M 220,410 158,315 126,220 V 126 L 158,63 M 284,441 220,378 189,315 158,220 V 126 L 189,31.5 220,0"
           style="stroke-width:0.0625in"
           transform="matrix(0.04,0,0,-0.04,110.88,0)"
           id="path2097" />
      </g>
    </g>
  </g>
</svg>
