<?xml version="1.0" encoding="UTF-8" standalone="no"?>
<svg
   xmlns:dc="http://purl.org/dc/elements/1.1/"
   xmlns:cc="http://creativecommons.org/ns#"
   xmlns:rdf="http://www.w3.org/1999/02/22-rdf-syntax-ns#"
   xmlns:svg="http://www.w3.org/2000/svg"
   xmlns="http://www.w3.org/2000/svg"
   xmlns:sodipodi="http://sodipodi.sourceforge.net/DTD/sodipodi-0.dtd"
   xmlns:inkscape="http://www.inkscape.org/namespaces/inkscape"
   inkscape:version="1.0 (4035a4f, 2020-05-01)"
   sodipodi:docname="cutecard__BACK_RINGS.svg"
   id="svg118"
   version="1.1"
   height="192"
   width="336"
   style="fill-opacity:1; color-rendering:auto; color-interpolation:auto; text-rendering:auto; stroke:black; stroke-linecap:square; stroke-miterlimit:10; shape-rendering:auto; stroke-opacity:1; fill:black; stroke-dasharray:none; font-weight:normal; stroke-width:1; font-family:'Dialog'; font-style:normal; stroke-linejoin:miter; font-size:12px; stroke-dashoffset:0; image-rendering:auto;">
  <metadata
     id="metadata122">
    <rdf:RDF>
      <cc:Work
         rdf:about="">
        <dc:format>image/svg+xml</dc:format>
        <dc:type
           rdf:resource="http://purl.org/dc/dcmitype/StillImage" />
        <dc:title></dc:title>
      </cc:Work>
    </rdf:RDF>
  </metadata>
  <sodipodi:namedview
     inkscape:snap-bbox="true"
     inkscape:snap-page="true"
     inkscape:object-nodes="false"
     inkscape:document-rotation="0"
     inkscape:snap-object-midpoints="true"
     inkscape:current-layer="layer7"
     inkscape:window-maximized="0"
     inkscape:window-y="25"
     inkscape:window-x="-1"
     inkscape:cy="81.282899"
     inkscape:cx="153.61125"
     inkscape:zoom="1.661268"
     showgrid="false"
     id="namedview120"
     inkscape:window-height="847"
     inkscape:window-width="1440"
     inkscape:pageshadow="2"
     inkscape:pageopacity="0"
     guidetolerance="10"
     gridtolerance="10"
     objecttolerance="10"
     borderopacity="1"
     bordercolor="#666666"
     pagecolor="#ffffff"
     showguides="false" />
  <!--Generated by the Batik Graphics2D SVG Generator-->
  <defs
     id="genericDefs">
    <rect
       x="91.58159"
       y="17.047946"
       width="118.56957"
       height="146.9666"
       id="rect2234" />
    <inkscape:path-effect
       effect="offset"
       id="path-effect389"
       is_visible="true"
       lpeversion="1"
       linejoin_type="round"
       unit="mm"
       offset="1.9"
       miter_limit="7.1"
       attempt_force_join="true"
       update_on_knot_move="true" />
    <inkscape:path-effect
       update_on_knot_move="false"
       attempt_force_join="false"
       miter_limit="4"
       offset="0.8"
       unit="mm"
       linejoin_type="bevel"
       lpeversion="1"
       is_visible="true"
       id="path-effect596"
       effect="offset" />
    <inkscape:path-effect
       effect="offset"
       id="path-effect23737"
       is_visible="true"
       lpeversion="1"
       linejoin_type="bevel"
       unit="mm"
       offset="1.1"
       miter_limit="2"
       attempt_force_join="true"
       update_on_knot_move="true" />
    <inkscape:path-effect
       update_on_knot_move="true"
       attempt_force_join="true"
       miter_limit="7.1"
       offset="0"
       unit="mm"
       linejoin_type="round"
       lpeversion="1"
       is_visible="true"
       id="path-effect23709"
       effect="offset" />
    <clipPath
       id="clipPath170"
       clipPathUnits="userSpaceOnUse">
      <rect
         y="0"
         x="0.93888283"
         height="191.06113"
         width="335.06113"
         id="rect172"
         style="fill:#ffffff;stroke-width:0.938869" />
    </clipPath>
    <clipPath
       id="clipPath1"
       clipPathUnits="userSpaceOnUse">
      <path
         id="path4415"
         d="M-164 -92 L164 -92 L164 92 L-164 92 L-164 -92 Z" />
    </clipPath>
  </defs>
  <g
     inkscape:groupmode="layer"
     id="layer3"
     inkscape:label="border"
     style="display:inline">
    <path
       id="rect1745-1"
       style="font-style:normal;font-weight:normal;font-size:12px;font-family:Dialog;display:inline;opacity:1;color-interpolation:auto;fill:none;fill-opacity:1;stroke:#000000;stroke-width:1;stroke-linecap:square;stroke-linejoin:miter;stroke-miterlimit:10;stroke-dasharray:none;stroke-dashoffset:0;stroke-opacity:1;color-rendering:auto;image-rendering:auto;shape-rendering:auto;text-rendering:auto"
       d="M 4.2620602,4.2620602 H 331.73697 V 187.73699 H 4.2620602 Z" />
  </g>
  <g
     inkscape:groupmode="layer"
     id="layer5"
     inkscape:label="number"
     style="display:inline">
    <g
       id="g3199"
       style="font-style:normal;font-weight:normal;font-size:12px;font-family:Dialog;display:inline;color-interpolation:auto;fill:none;fill-opacity:1;stroke:#000000;stroke-width:1;stroke-linecap:round;stroke-linejoin:round;stroke-miterlimit:10;stroke-dasharray:none;stroke-dashoffset:0;stroke-opacity:1;color-rendering:auto;image-rendering:auto;shape-rendering:auto;text-rendering:auto"
       inkscape:label="Hershey Text"
       transform="matrix(1.0894071,0,0,1,-18.146259,67.845)">
      <g
         id="g3197"
         transform="translate(28.2916,103.535)">
        <path
           id="path3177"
           transform="scale(0.04,-0.04)"
           style="stroke-width:0.0625in"
           d="M 567,662 H 252 l -32,-284 32,32 94,31 h 95 l 95,-31 62,-64 32,-94 V 189 L 598,94.5 536,31.5 441,0 H 346 L 252,31.5 220,63 189,126" />
        <path
           id="path3179"
           transform="matrix(0.04,0,0,-0.04,25.2,0)"
           style="stroke-width:0.0625in"
           d="M 378,662 284,630 220,536 189,378 V 284 L 220,126 284,31.5 378,0 h 63 l 95,31.5 62,94.5 32,158 v 94 l -32,158 -62,94 -95,32 h -63" />
        <path
           id="path3181"
           transform="matrix(0.04,0,0,-0.04,50.4,0)"
           style="stroke-width:0.0625in"
           d="m 346,662 -94,-32 -32,-63 v -63 l 32,-63 63,-31 126,-32 95,-32 62,-62 32,-64 V 126 L 598,63 567,31.5 472,0 H 346 L 252,31.5 220,63 189,126 v 94 l 31,64 64,62 94,32 126,32 63,31 31,63 v 63 l -31,63 -95,32 H 346" />
        <path
           id="path3183"
           transform="matrix(0.04,0,0,-0.04,90.72,0)"
           style="stroke-width:0.0625in"
           d="M 504,662 189,220 H 662 M 504,662 V 0" />
        <path
           id="path3185"
           transform="matrix(0.04,0,0,-0.04,115.92,0)"
           style="stroke-width:0.0625in"
           d="m 598,441 -31,-95 -63,-62 -94,-32 h -32 l -94,32 -64,62 -31,95 v 31 l 31,95 64,63 94,32 h 32 l 94,-32 63,-63 31,-126 V 284 L 567,126 504,31.5 410,0 h -64 l -94,31.5 -32,63" />
        <path
           id="path3187"
           transform="matrix(0.04,0,0,-0.04,141.12,0)"
           style="stroke-width:0.0625in"
           d="M 252,662 H 598 L 410,410 h 94 l 63,-32 31,-32 32,-94 V 189 L 598,94.5 536,31.5 441,0 H 346 L 252,31.5 220,63 189,126" />
        <path
           id="path3189"
           transform="matrix(0.04,0,0,-0.04,181.44,0)"
           style="stroke-width:0.0625in"
           d="m 284,536 62,31 95,95 V 0" />
        <path
           id="path3191"
           transform="matrix(0.04,0,0,-0.04,206.64,0)"
           style="stroke-width:0.0625in"
           d="m 598,567 -31,63 -95,32 H 410 L 315,630 252,536 220,378 V 220 L 252,94.5 315,31.5 410,0 h 31 l 95,31.5 62,63 32,94.5 v 31 l -32,95 -62,63 -95,32 h -31 l -95,-32 -63,-63 -32,-95" />
        <path
           id="path3193"
           transform="matrix(0.04,0,0,-0.04,231.84,0)"
           style="stroke-width:0.0625in"
           d="M 378,662 284,630 220,536 189,378 V 284 L 220,126 284,31.5 378,0 h 63 l 95,31.5 62,94.5 32,158 v 94 l -32,158 -62,94 -95,32 h -63" />
        <path
           id="path3195"
           transform="matrix(0.04,0,0,-0.04,257.04,0)"
           style="stroke-width:0.0625in"
           d="m 284,536 62,31 95,95 V 0" />
      </g>
    </g>
  </g>
  <g
     inkscape:groupmode="layer"
     id="layer7"
     inkscape:label="rings"
     style="display:inline">
    <path
       style="font-style:normal;font-weight:normal;font-size:12px;font-family:Dialog;display:inline;opacity:1;color-interpolation:auto;fill:none;fill-opacity:1;stroke:#000000;stroke-width:1;stroke-linecap:square;stroke-linejoin:miter;stroke-miterlimit:10;stroke-dasharray:none;stroke-dashoffset:0;stroke-opacity:1;color-rendering:auto;image-rendering:auto;shape-rendering:auto;text-rendering:auto"
       d="M 4.8640094,4.8640095 H 332.33892 V 188.33893 H 4.8640094 Z"
       id="rect1745-1-1">
      <g
         id="g4798"
         transform="translate(168,96)"
         style="fill:none;fill-opacity:1;stroke:#000000;stroke-opacity:1">
        <path
           id="path5008"
           style="color:#000000;font-style:normal;font-variant:normal;font-weight:normal;font-stretch:normal;font-size:medium;line-height:normal;font-family:Dialog;font-variant-ligatures:normal;font-variant-position:normal;font-variant-caps:normal;font-variant-numeric:normal;font-variant-alternates:normal;font-variant-east-asian:normal;font-feature-settings:normal;font-variation-settings:normal;text-indent:0;text-align:start;text-decoration:none;text-decoration-line:none;text-decoration-style:solid;text-decoration-color:#000000;letter-spacing:normal;word-spacing:normal;text-transform:none;writing-mode:lr-tb;direction:ltr;text-orientation:mixed;dominant-baseline:auto;baseline-shift:baseline;text-anchor:start;white-space:normal;shape-padding:0;shape-margin:0;inline-size:0;clip-rule:nonzero;display:inline;overflow:visible;visibility:visible;isolation:auto;mix-blend-mode:normal;color-interpolation:sRGB;color-interpolation-filters:linearRGB;solid-color:#000000;solid-opacity:1;vector-effect:none;fill:none;fill-opacity:1;fill-rule:nonzero;stroke:#000000;stroke-width:1;stroke-linecap:butt;stroke-linejoin:miter;stroke-miterlimit:10;stroke-dasharray:none;stroke-dashoffset:0;stroke-opacity:1;color-rendering:auto;image-rendering:auto;shape-rendering:auto;text-rendering:auto;enable-background:accumulate;stop-color:#000000;stop-opacity:1;opacity:1"
           d="M 94,-158.58008 C 38.457121,-158.58008 -6.5800781,-113.54288 -6.5800781,-58 -6.5800792,-2.4571207 38.457121,42.580079 94,42.580078 c 55.37409,0 100.2821,-44.7699703 100.55469,-100.080078 h 0.0254 v -0.5 -0.5 h -0.0254 C 194.2821,-113.81011 149.37408,-158.58008 94,-158.58008 Z m 0,1 c 55.00244,0 99.58008,44.57764 99.58008,99.58008 0,55.0024385 -44.57764,99.580078 -99.58008,99.580078 C 38.997561,41.580079 -5.5800792,-2.9975608 -5.5800781,-58 c 0,-55.00244 44.5776401,-99.58008 99.5800781,-99.58008 z m 0,4.56055 c -52.472174,0 -95.0195329,42.54736 -95.0195312,95.01953 0,52.4721728 42.5473582,95.019531 95.0195312,95.019531 52.30338,2e-6 94.72162,-42.2801282 94.99414,-94.519531 h 0.0254 v -0.5 -0.5 h -0.0254 C 188.72163,-110.7394 146.30338,-153.01953 94,-153.01953 Z m 0,1 c 51.93174,0 94.01953,42.08779 94.01953,94.01953 0,51.931734 -42.0878,94.019533 -94.01953,94.019531 C 42.068267,36.019531 -0.01953125,-6.0682673 -0.01953125,-58 -0.0195329,-109.93173 42.068266,-152.01953 94,-152.01953 Z m 0,4.55859 c -49.401471,0 -89.4609381,40.05947 -89.4609375,89.46094 0,49.4014709 40.0594665,89.460938 89.4609375,89.460938 49.23268,0 89.16311,-39.7922362 89.43555,-88.960938 h 0.0254 v -0.5 -0.5 h -0.0254 C 183.16311,-107.6687 143.23268,-147.46094 94,-147.46094 Z m 0,1 c 48.86103,0 88.46094,39.59991 88.46094,88.46094 0,48.8610311 -39.59991,88.460938 -88.46094,88.460938 C 45.138969,30.460938 5.5390625,-9.1389692 5.5390625,-58 5.539062,-106.86103 45.138969,-146.46094 94,-146.46094 Z m 0,4.56055 c -46.330768,0 -83.90039,37.56962 -83.900391,83.90039 0,46.330769 37.569622,83.900391 83.900391,83.900391 46.16198,-10e-7 83.60265,-37.302392 83.875,-83.400391 h 0.0254 V -58 -58.5 H 177.875 C 177.60265,-104.598 140.16198,-141.90039 94,-141.90039 Z m 0,1 c 45.79033,0 82.90039,37.11006 82.90039,82.90039 0,45.790328 -37.11006,82.90039 -82.90039,82.900391 -45.790329,0 -82.900391,-37.110062 -82.900391,-82.900391 1e-6,-45.79033 37.110063,-82.90039 82.900391,-82.90039 z m 0,4.56055 c -43.260064,0 -78.339846,35.07978 -78.339844,78.33984 0,43.260063 35.079781,78.339844 78.339844,78.339844 43.09128,2e-6 78.0422,-34.81255 78.31445,-77.839844 h 0.0254 v -0.5 -0.5 h -0.0254 C 172.0422,-101.5273 137.09128,-136.33985 94,-136.33984 Z m 0,1 c 42.71963,-1e-5 77.33985,34.62021 77.33984,77.33984 0,42.719624 -34.62022,77.339846 -77.33984,77.339844 -42.719623,0 -77.339844,-34.620221 -77.339844,-77.339844 -2e-6,-42.71962 34.62022,-77.33984 77.339844,-77.33984 z m 0,4.56054 c -40.189362,0 -72.779297,32.589938 -72.779297,72.7793 0,40.189361 32.589936,72.779297 72.779297,72.779297 40.02054,0 72.48169,-32.322767 72.75391,-72.279297 h 0.0254 v -0.5 -0.5 h -0.0254 C 166.48169,-98.45653 134.02054,-130.7793 94,-130.7793 Z m 0,1 c 39.64892,0 71.7793,32.130378 71.7793,71.7793 0,39.648921 -32.13038,71.779297 -71.7793,71.779297 -39.648921,0 -71.779297,-32.130376 -71.779297,-71.779297 0,-39.648921 32.130376,-71.7793 71.779297,-71.7793 z m 0,4.5586 c -37.118659,0 -67.220703,30.102041 -67.220703,67.2207 0,37.118659 30.102044,67.2207031 67.220703,67.2207031 36.94984,-5e-7 66.92323,-29.8348791 67.19531,-66.7207031 h 0.0254 v -0.5 -0.5 h -0.0254 C 160.92323,-95.385824 130.94984,-125.2207 94,-125.2207 Z m 0,1 c 36.57822,0 66.2207,29.642482 66.2207,66.2207 0,36.578219 -29.64248,66.2207026 -66.2207,66.2207031 -36.578219,0 -66.220703,-29.6424841 -66.220703,-66.2207031 0,-36.578219 29.642484,-66.2207 66.220703,-66.2207 z m 0,4.56054 c -34.047955,0 -61.660156,27.612205 -61.660156,61.66016 0,34.047955 27.612201,61.6601563 61.660156,61.6601562 33.87914,0 61.36283,-27.3450412 61.63477,-61.1601562 h 0.0254 v -0.5 -0.5 h -0.0254 C 155.36283,-92.315115 127.87914,-119.66016 94,-119.66016 Z m 0,1 c 33.50752,0 60.66016,27.152645 60.66016,60.66016 C 154.66016,-24.492485 127.50752,2.6601562 94,2.6601562 60.492485,2.6601563 33.339844,-24.492485 33.339844,-58 c 0,-33.507515 27.152641,-60.66016 60.660156,-60.66016 z m 0,4.56055 C 63.022748,-114.09961 37.90039,-88.977252 37.900391,-58 37.90039,-27.022749 63.022749,-1.9003906 94,-1.9003906 124.80844,-1.9003895 149.80246,-26.755596 150.07422,-57.5 h 0.0254 v -0.5 -0.5 h -0.0254 C 149.80246,-89.244404 124.80844,-114.09961 94,-114.09961 Z m 0,1 c 30.43681,0 55.09961,24.662798 55.09961,55.09961 0,30.436812 -24.6628,55.0996105 -55.09961,55.0996094 C 63.563189,-2.9003906 38.90039,-27.563189 38.900391,-58 38.90039,-88.436812 63.563188,-113.09961 94,-113.09961 Z m 0,4.56055 c -27.906549,0 -50.539062,22.632511 -50.539062,50.53906 0,27.906549 22.632513,50.5390625 50.539062,50.5390625 27.73773,-6e-7 50.24213,-22.3653715 50.51367,-50.0390625 h 0.0254 v -0.5 -0.5 h -0.0254 C 144.24213,-86.173691 121.73773,-108.53906 94,-108.53906 Z m 0,1 c 27.36611,0 49.53906,22.172951 49.53906,49.53906 0,27.366109 -22.17295,49.539062 -49.53906,49.5390625 -27.366109,0 -49.539062,-22.1729535 -49.539062,-49.5390625 0,-27.366109 22.172953,-49.53906 49.539062,-49.53906 z m 0,4.55859 c -24.835846,0 -44.980469,20.144624 -44.980469,44.98047 0,24.835846 20.144623,44.980469 44.980469,44.980469 24.66455,0 44.65446,-19.880918 44.92969,-44.480469 h 0.0508 v -0.5 -0.5 h -0.0508 C 138.65446,-83.099551 118.66455,-102.98047 94,-102.98047 Z m 0,1 c 24.29541,0 43.98047,19.685064 43.98047,43.98047 0,24.295406 -19.68506,43.980469 -43.98047,43.980469 -24.295406,0 -43.980469,-19.685063 -43.980469,-43.980469 0,-24.295406 19.685063,-43.98047 43.980469,-43.98047 z m 0,4.560548 c -21.765141,0 -39.419922,17.654781 -39.419922,39.419922 0,21.765141 17.654781,39.419922 39.419922,39.419922 21.59388,1e-6 39.09431,-17.391054 39.36914,-38.919922 h 0.0508 v -0.5 -0.5 h -0.0508 C 133.09431,-80.028868 115.59388,-97.419923 94,-97.419922 Z m 0,1 c 21.2247,-10e-7 38.41992,17.19522 38.41992,38.419922 0,21.224702 -17.19522,38.419923 -38.41992,38.419922 -21.224701,0 -38.419922,-17.195221 -38.419922,-38.419922 0,-21.224701 17.195221,-38.419922 38.419922,-38.419922 z m 0,4.560547 c -18.69444,0 -33.859375,15.164935 -33.859375,33.859375 0,18.69444 15.164935,33.859375 33.859375,33.859375 18.52316,-1e-6 33.53422,-14.90125 33.80859,-33.359375 h 0.0508 v -0.5 -0.5 h -0.0508 C 127.53422,-76.958125 112.52316,-91.859374 94,-91.859375 Z m 0,1 c 18.154,10e-7 32.85938,14.705376 32.85938,32.859375 0,18.153999 -14.70538,32.859374 -32.85938,32.859375 C 75.846,-25.140625 61.140625,-39.846 61.140625,-58 61.140625,-76.154 75.846,-90.859375 94,-90.859375 Z m 0,4.558594 c -15.623736,0 -28.300781,12.677045 -28.300781,28.300781 0,15.623736 12.677045,28.300781 28.300781,28.300781 15.45245,1e-6 27.97626,-12.413407 28.25,-27.800781 h 0.0508 V -58 -58.5 H 122.25 C 121.97626,-73.887374 109.45245,-86.300782 94,-86.300781 Z m 0,1 c 15.0833,-10e-7 27.30078,12.217485 27.30078,27.300781 0,15.083296 -12.21748,27.300782 -27.30078,27.300781 -15.083295,0 -27.300781,-12.217486 -27.300781,-27.300781 0,-15.083295 12.217486,-27.300781 27.300781,-27.300781 z m 0,4.560547 c -12.553033,0 -22.740234,10.187201 -22.740234,22.740234 0,12.553033 10.187201,22.740234 22.740234,22.740234 12.3818,0 22.41676,-9.923542 22.68945,-22.240234 h 0.0508 v -0.5 -0.5 h -0.0508 C 116.41676,-70.816692 106.3818,-80.740234 94,-80.740234 Z m 0,1 c 12.01259,0 21.74023,9.727641 21.74023,21.740234 0,12.012593 -9.72764,21.740234 -21.74023,21.740234 -12.012593,0 -21.740234,-9.727641 -21.740234,-21.740234 0,-12.012593 9.727641,-21.740234 21.740234,-21.740234 z m 0,4.560546 c -9.48233,0 -17.179688,7.697358 -17.179688,17.179688 0,9.48233 7.697358,17.179688 17.179688,17.179688 9.31108,0 16.85779,-7.433796 17.12891,-16.679688 h 0.0508 v -0.5 -0.5 h -0.0508 C 110.85779,-67.745892 103.31108,-75.179688 94,-75.179688 Z m 0,1 c 8.94189,0 16.17969,7.237798 16.17969,16.179688 0,8.94189 -7.2378,16.179688 -16.17969,16.179688 -8.94189,0 -16.179687,-7.237798 -16.179688,-16.179688 0,-8.94189 7.237798,-16.179688 16.179688,-16.179688 z m 0,4.560547 c -6.411626,0 -11.619141,5.207515 -11.619141,11.619141 0,6.411626 5.207515,11.619141 11.619141,11.619141 6.23434,0 11.24049,-4.952482 11.51758,-11.119141 h 0.10156 v -0.5 -0.5 h -0.10156 C 105.24049,-64.666659 100.23434,-69.619141 94,-69.619141 Z m 0,1 c 5.871186,0 10.61914,4.747955 10.61914,10.619141 0,5.871186 -4.747954,10.619141 -10.61914,10.619141 -5.871186,0 -10.619141,-4.747955 -10.619141,-10.619141 0,-5.871186 4.747955,-10.619141 10.619141,-10.619141 z m 0,4.558594 c -3.340923,0 -6.060547,2.719624 -6.060547,6.060547 0,3.340923 2.719624,6.060547 6.060547,6.060547 3.163628,0 5.691302,-2.465009 5.958984,-5.560547 h 0.101566 V -58 -58.5 H 99.958984 C 99.691302,-61.595538 97.163628,-64.060547 94,-64.060547 Z m 0,1 c 2.800483,0 5.060547,2.260064 5.060547,5.060547 0,2.800483 -2.260064,5.060547 -5.060547,5.060547 -2.800483,0 -5.060547,-2.260064 -5.060547,-5.060547 0,-2.800483 2.260064,-5.060547 5.060547,-5.060547 z" />
      </g>
    </path>
  </g>
  <g
     style="display:inline"
     inkscape:label="emma"
     id="g677"
     inkscape:groupmode="layer">
    <g
       id="g2101"
       style="fill:none;stroke:#000000;stroke-linecap:round;stroke-linejoin:round"
       inkscape:label="Hershey Text"
       transform="translate(3.4103,0.3381)">
      <g
         id="g2099"
         transform="translate(13.7097,38.2019)">
        <path
           id="path2091"
           transform="scale(0.04,-0.04)"
           style="stroke-width:0.0625in"
           d="m 126,158 126,31 94,31 95,64 31,62 -31,64 -63,31 H 284 L 189,410 126,315 94.5,220 V 158 L 126,63 158,31.5 220,0 h 64 l 94,31.5 63,63 M 189,378 158,315 126,220 V 126 L 158,63 M 284,441 220,378 189,315 158,220 V 126 L 189,31.5 220,0" />
        <path
           id="path2093"
           transform="matrix(0.04,0,0,-0.04,22.68,0)"
           style="stroke-width:0.0625in"
           d="m 31.5,315 31.5,63 63,63 h 63 l 31,-31 32,-64 V 252 L 189,0 m 31,410 V 252 L 158,0 M 220,346 189,220 126,0 h 63 m 63,252 63,94 63,64 63,31 h 63 l 63,-31 31,-64 V 252 L 536,0 m 31,410 V 252 L 504,0 M 567,346 536,220 472,0 h 64 m 62,252 64,94 62,64 64,31 h 62 l 64,-31 31,-64 V 252 L 882,94.5 M 914,410 V 284 L 882,158 V 31.5 M 914,346 850,189 V 94.5 L 882,31.5 914,0 h 62 l 63.5,63 31.5,63" />
        <path
           id="path2095"
           transform="matrix(0.04,0,0,-0.04,66.78,0)"
           style="stroke-width:0.0625in"
           d="m 31.5,315 31.5,63 63,63 h 63 l 31,-31 32,-64 V 252 L 189,0 m 31,410 V 252 L 158,0 M 220,346 189,220 126,0 h 63 m 63,252 63,94 63,64 63,31 h 63 l 63,-31 31,-64 V 252 L 536,0 m 31,410 V 252 L 504,0 M 567,346 536,220 472,0 h 64 m 62,252 64,94 62,64 64,31 h 62 l 64,-31 31,-64 V 252 L 882,94.5 M 914,410 V 284 L 882,158 V 31.5 M 914,346 850,189 V 94.5 L 882,31.5 914,0 h 62 l 63.5,63 31.5,63" />
        <path
           id="path2097"
           transform="matrix(0.04,0,0,-0.04,110.88,0)"
           style="stroke-width:0.0625in"
           d="M 504,441 441,220 V 94.5 L 472,31.5 504,0 h 63 l 63,63 32,63 M 536,441 472,220 V 31.5 M 504,441 h 63 L 504,220 472,94.5 M 441,220 v 95 l -31,95 -64,31 H 284 L 189,410 126,315 94.5,220 V 158 L 126,63 158,31.5 220,0 h 64 l 62,31.5 32,31.5 32,63 31,94 M 220,410 158,315 126,220 V 126 L 158,63 M 284,441 220,378 189,315 158,220 V 126 L 189,31.5 220,0" />
      </g>
    </g>
  </g>
</svg>
