<?xml version="1.0" encoding="UTF-8" standalone="no"?>
<svg
   xmlns:dc="http://purl.org/dc/elements/1.1/"
   xmlns:cc="http://creativecommons.org/ns#"
   xmlns:rdf="http://www.w3.org/1999/02/22-rdf-syntax-ns#"
   xmlns:svg="http://www.w3.org/2000/svg"
   xmlns="http://www.w3.org/2000/svg"
   xmlns:sodipodi="http://sodipodi.sourceforge.net/DTD/sodipodi-0.dtd"
   xmlns:inkscape="http://www.inkscape.org/namespaces/inkscape"
   version="1.1"
   id="svg89377"
   inkscape:version="1.0beta2 (2b71d25, 2019-12-03)"
   sodipodi:docname="Generative Benchy v1.14.svg"
   x="0px"
   y="0px"
   viewBox="0 0 1587.4017 1122.5196"
   xml:space="preserve"
   width="420mm"
   height="297mm"
   inkscape:label="Benchy"><metadata
   id="metadata96437"><rdf:RDF><cc:Work
       rdf:about=""><dc:format>image/svg+xml</dc:format><dc:type
         rdf:resource="http://purl.org/dc/dcmitype/StillImage" /><dc:title></dc:title></cc:Work></rdf:RDF></metadata><defs
   id="defs96435" />
<style
   id="style95909"
   type="text/css">
	.st0{fill:none;stroke:#000000;stroke-width:0.5;stroke-linecap:round;stroke-linejoin:round;}
	.st1{fill:none;stroke:#000000;stroke-width:0.5;stroke-linecap:round;stroke-linejoin:round;stroke-miterlimit:10;}
</style>
<sodipodi:namedview
   units="mm"
   showgrid="false"
   pagecolor="#ffffff"
   objecttolerance="10"
   inkscape:zoom="0.55699592"
   inkscape:window-y="23"
   inkscape:window-x="25"
   inkscape:window-width="1206"
   inkscape:window-maximized="0"
   inkscape:window-height="662"
   inkscape:pageshadow="2"
   inkscape:pageopacity="0"
   inkscape:document-rotation="0"
   inkscape:cy="232.43876"
   inkscape:cx="416.05551"
   inkscape:current-layer="g98034"
   id="namedview93123"
   guidetolerance="10"
   gridtolerance="10"
   borderopacity="1"
   bordercolor="#666666">
	</sodipodi:namedview>






<g
   transform="matrix(1.2678724,0,0,1.2674465,-1.5078806,-5.0126132)"
   inkscape:label="Benchy"
   id="g98034"><g
     id="g90415"
     transform="translate(303.3443,525.1149)"
     inkscape:label="box">
	<path
   id="path90417"
   inkscape:connector-curvature="0"
   class="st0"
   d="m 0,-208.3 h -276.4 c -5.9,0 -10.6,-4.7 -10.6,-10.6 v -276.5 c 0,-5.9 4.7,-10.6 10.6,-10.6 H 0 c 5.9,0 10.6,4.7 10.6,10.6 v 276.5 c 0,5.8 -4.8,10.6 -10.6,10.6 z" />
</g><g
     id="g92011"
     inkscape:label="pen model">
	<g
   id="g90347"
   transform="translate(35.843,806.9487)">
		<path
   id="path90349"
   inkscape:connector-curvature="0"
   class="st1"
   d="m 0,-772 c -0.4,5.6 -0.7,2 -0.7,11.2 0,1.8 0,3.6 0,5.4 0,1.1 -0.2,2.3 0.1,3.4 0.2,0.5 0.3,-1.1 0.5,-1.6" />
	</g>
	<g
   id="g90351"
   transform="translate(34.5039,806.2062)">
		<path
   id="path90353"
   inkscape:connector-curvature="0"
   class="st1"
   d="m 0,-770.5 c 0,-0.3 -0.2,-0.8 0,-1 1.7,-1.3 3.7,0.2 4.7,1.3 1.7,1.8 4.4,6.1 2.8,8.8 -0.8,1.4 -3.5,2.6 -5,2.8 -1.6,0.4 -2.6,0.2 -4.1,0" />
	</g>
	<g
   id="g90355"
   transform="translate(41.0367,792.7094)">
		<path
   id="path90357"
   inkscape:connector-curvature="0"
   class="st1"
   d="m 0,-743.5 c 2.4,1.8 6,-2 4.9,-4.4 -0.2,-0.4 -1.3,-1.6 -2.1,-1 -2.3,1.6 -2.6,6.3 -1.6,8.5 0.6,1.3 2.2,2.4 3.8,2.1 0.8,-0.1 1.5,-0.8 2.2,-1.2" />
	</g>
	<g
   id="g90359"
   transform="translate(50.0833,796.9318)">
		<path
   id="path90361"
   inkscape:connector-curvature="0"
   class="st1"
   d="m 0,-752 c -0.1,0.9 -0.2,1.9 -0.3,2.8 -0.1,1 -0.2,2.1 -0.3,3.1 -0.1,0.8 -0.1,1.6 -0.1,2.4 0,0.4 -0.1,1.6 0,1.2 0.8,-2.6 0.2,-5.5 1.1,-8.1 0.3,-0.9 0.7,-1.8 1.3,-2.4 0.3,-0.3 1,-0.5 1.3,-0.2 0.6,0.7 0.6,1.7 0.8,2.6 0.2,1 0.2,2.2 0.3,3.3 0.2,2.4 0.2,2.5 0.2,4.5" />
	</g>
	<g
   id="g90363"
   transform="translate(63.1043,797.8874)">
		<path
   id="path90365"
   inkscape:connector-curvature="0"
   class="st1"
   d="m 0,-753.9 c -1.6,2.6 -0.2,5.2 0.2,8 0.1,0.5 0,0.2 0,0.7 0,0.3 0.1,1.3 0,1 -0.4,-2.5 0.2,-4.3 0.5,-6.8 0.2,-0.9 0.2,-1.9 0.5,-2.7 0.2,-0.4 0.4,-1 0.8,-1.1 0.4,-0.1 0.8,0.4 1,0.8 0.2,0.6 1,5.5 1.1,6.2 0.1,0.7 0.2,1.5 0.2,2.2 0,0.4 -0.1,1.7 0,1.3 0.4,-2.4 -0.3,-5 0.7,-7.4 0.2,-0.6 0.6,-1.2 1.1,-1.4 1.5,-0.7 2,1.9 2.1,2.4 0.5,1.7 0.7,4.7 1,6.4" />
	</g>
	<g
   id="g90367"
   transform="translate(72.8291,793.3437)">
		<path
   id="path90369"
   inkscape:connector-curvature="0"
   class="st1"
   d="m 0,-744.8 c -0.4,1.3 -0.6,2.2 0,3.6 0.5,1 2.1,2 3.2,1.3 1,-0.7 1.7,-2.6 2,-3.7 0.2,-1.2 0.4,-5.8 -2.4,-4.8 -1.8,0.7 -2.3,2.1 -2.8,3.6 z" />
	</g>
	<g
   id="g90371"
   transform="translate(84.4148,794.2206)">
		<path
   id="path90373"
   inkscape:connector-curvature="0"
   class="st1"
   d="m 0,-746.6 c 0.2,-0.6 0.3,-1.4 0.1,-2 -0.6,-1.4 -1.8,-1.3 -2.7,-0.7 -1.7,1.2 -3.1,4.5 -3.2,6.7 -0.2,2.3 1.3,3.3 3.1,2.4 1.8,-0.8 2.4,-4.6 2.7,-6.4 z" />
	</g>
	<g
   id="g90375"
   transform="translate(84.4265,805.8583)">
		<path
   id="path90377"
   inkscape:connector-curvature="0"
   class="st1"
   d="m 0,-769.8 c -0.5,5.8 -0.8,12.4 0.3,18.2" />
	</g>
	<g
   id="g90379"
   transform="translate(87.1773,793.5829)">
		<path
   id="path90381"
   inkscape:connector-curvature="0"
   class="st1"
   d="m 0,-745.3 c 0.1,0.4 0.1,0.9 0.3,1.3 0.9,1.7 3.2,0.8 3.5,-0.8 0.2,-0.9 -0.2,-2.7 -0.4,-3.5 -0.2,-0.4 -0.4,-0.9 -0.8,-1 -1.6,-0.4 -2.1,2.2 -2.2,2.8 -0.5,2.2 0.2,7.1 3.2,7.2 0.5,0 1,-0.3 1.4,-0.5" />
	</g>
	<g
   id="g90383"
   transform="translate(94.3513,809.5117)">
		<path
   id="path90385"
   inkscape:connector-curvature="0"
   class="st1"
   d="m 0,-777.1 c -0.9,2.8 -0.2,6.7 0,9.4 0.2,3.1 0.1,7.2 1,12.6" />
	</g>
	<g
   id="g90387"
   transform="translate(102.1631,795.3366)">
		<path
   id="path90389"
   inkscape:connector-curvature="0"
   class="st1"
   d="m 0,-748.8 c -0.3,0 -0.8,-0.4 -1,-0.2 -0.4,0.5 1,1.3 1.4,1 0.3,-0.2 0.5,-0.8 0.3,-1.1 -0.1,-0.2 -0.4,0.3 -0.7,0.3 z" />
	</g>
	<g
   id="g90391"
   transform="translate(101.843,788.6801)">
		<path
   id="path90393"
   inkscape:connector-curvature="0"
   class="st1"
   d="m 0,-735.4 c -0.3,0.2 -0.8,0.8 -0.5,1.1 0.4,0.5 1.9,-0.8 1.4,-1.3 -0.2,-0.4 -0.7,-0.1 -0.9,0.2 z" />
	</g>
</g><g
     id="g97030"
     inkscape:label="circles"><path
       inkscape:connector-curvature="0"
       id="path96430"
       d="m 62.6,171.8 c 0.2,-6.2 -4.2,-10.9 -9.8,-12.9 -5.4,-1.9 -11.6,-0.1 -15.2,4.3 -3.6,4.5 -4,10.9 -1,15.8 3,4.9 9,7.4 14.6,6.2 3.1,-0.7 5.4,-2.6 7.4,-5 2.1,-2.6 3.8,-5.1 4,-8.4 z"
       class="st0" /><path
       inkscape:connector-curvature="0"
       id="path96374"
       d="m 63.2,171.7 c 0.3,-6.2 -4.3,-11 -9.9,-13 -5.4,-1.9 -11.7,-0.2 -15.3,4.4 -3.6,4.5 -4,11 -1,15.9 3,4.9 9,7.4 14.6,6.2 3.1,-0.7 5.4,-2.7 7.4,-5.1 2.2,-2.5 4,-5.1 4.2,-8.4 z"
       class="st0" /><path
       inkscape:connector-curvature="0"
       id="path96376"
       d="m 63.8,171.6 c 0.3,-6.3 -4.3,-11.1 -10,-13.1 -5.5,-1.9 -11.7,-0.2 -15.4,4.4 -3.6,4.5 -4,11 -1,16 3.1,4.9 9.1,7.5 14.7,6.2 3.1,-0.7 5.4,-2.8 7.5,-5.1 2.2,-2.4 4,-5 4.2,-8.4 z"
       class="st0" /><path
       inkscape:connector-curvature="0"
       id="path96378"
       d="m 64.6,171.6 c 0.3,-6.4 -4.4,-11.2 -10.2,-13.2 -5.6,-1.9 -11.8,-0.2 -15.5,4.4 -3.7,4.6 -4.1,11.1 -1,16.1 3.1,5 9.1,7.5 14.9,6.3 3.1,-0.7 5.4,-2.9 7.5,-5.2 2.2,-2.5 4.1,-5 4.3,-8.4 z"
       class="st0" /><path
       inkscape:connector-curvature="0"
       id="path96380"
       d="m 65.5,171.5 c 0.4,-6.5 -4.4,-11.4 -10.3,-13.3 -5.6,-1.8 -11.9,-0.2 -15.7,4.5 -3.7,4.6 -4.1,11.2 -1,16.3 3.1,5 9.2,7.7 15,6.3 3.1,-0.7 5.4,-3 7.5,-5.3 2.3,-2.6 4.2,-5 4.5,-8.5 z"
       class="st0" /><path
       inkscape:connector-curvature="0"
       id="path96382"
       d="M 66.5,171.4 C 66.9,164.8 62,159.9 56,157.9 c -5.7,-1.8 -12,-0.2 -15.8,4.5 -3.7,4.6 -4.2,11.4 -1,16.4 3.1,4.9 9.4,7.9 15.1,6.4 3.1,-0.8 5.4,-3.1 7.5,-5.4 2.4,-2.4 4.4,-4.9 4.7,-8.4 z"
       class="st0" /><path
       inkscape:connector-curvature="0"
       id="path96384"
       d="m 67.7,171.3 c 0.5,-6.8 -4.6,-11.7 -10.7,-13.6 -5.8,-1.8 -12.2,-0.1 -16,4.6 -3.8,4.7 -4.2,11.5 -1,16.6 3.1,4.9 9.6,8.1 15.3,6.4 3.1,-0.9 5.4,-3.2 7.6,-5.5 2.3,-2.5 4.4,-4.9 4.8,-8.5 z"
       class="st0" /><path
       inkscape:connector-curvature="0"
       id="path96386"
       d="m 68.9,171.1 c 0.6,-6.9 -4.7,-11.8 -10.9,-13.8 -5.8,-1.9 -12.4,-0.1 -16.2,4.7 -3.8,4.7 -4.3,11.6 -1,16.8 3.1,5 9.7,8.3 15.5,6.5 3.1,-1 5.4,-3.3 7.6,-5.5 2.4,-2.6 4.7,-4.9 5,-8.7 z"
       class="st0" /><path
       inkscape:connector-curvature="0"
       id="path96388"
       d="m 70.4,171 c 0.6,-7.1 -4.8,-12 -11.2,-14 -5.9,-1.9 -12.5,-0.1 -16.5,4.8 -3.9,4.8 -4.3,11.8 -1.1,17.1 3.1,5 9.9,8.5 15.7,6.5 3.1,-1.1 5.3,-3.4 7.6,-5.6 2.7,-2.7 5.1,-5 5.5,-8.8 z"
       class="st0" /><path
       inkscape:connector-curvature="0"
       id="path96390"
       d="m 71.9,170.9 c 0.7,-7.3 -5,-12.2 -11.5,-14.3 -6,-1.9 -12.7,-0.1 -16.7,4.9 -3.9,4.9 -4.4,12 -1.1,17.3 3.1,5 10.1,8.7 15.9,6.5 3.1,-1.1 5.3,-3.5 7.7,-5.7 2.8,-2.6 5.3,-4.8 5.7,-8.7 z"
       class="st0" /><path
       inkscape:connector-curvature="0"
       id="path96392"
       d="m 73.7,170.7 c 0.8,-7.6 -5.1,-12.5 -11.8,-14.5 -6.2,-1.9 -13.1,0 -17.1,5.2 -3.9,5 -4.3,12.2 -0.8,17.6 3.3,5.1 10.6,8.8 16.5,6.2 3,-1.4 5.1,-3.8 7.6,-6 2.7,-2.4 5.1,-4.6 5.6,-8.5 z"
       class="st0" /><path
       inkscape:connector-curvature="0"
       id="path96394"
       d="m 75.6,170.5 c 0.4,-3.7 -0.7,-7.3 -3.3,-9.9 -2.4,-2.4 -5.7,-4 -8.9,-4.9 -6.3,-1.9 -13.3,0 -17.5,5.3 -4,5.1 -4.3,12.4 -0.8,17.9 3.3,5.2 10.8,9.1 16.8,6.2 3,-1.5 5.1,-4 7.6,-6.1 3,-2.3 5.6,-4.5 6.1,-8.5 z"
       class="st0" /><path
       inkscape:connector-curvature="0"
       id="path96396"
       d="m 77.7,170.3 c 0.3,-2.4 0,-4.9 -1,-7.1 -1.3,-2.7 -3.7,-4.5 -6.3,-5.9 -6.4,-3.5 -14,-4.1 -20,0.4 -5.7,4.3 -7.8,12.2 -5,18.8 1.3,3.2 3.7,5.8 6.7,7.5 3.1,1.8 6.5,3 10.1,1.8 3.6,-1.3 5.9,-4.1 8.7,-6.4 1.6,-1.3 3.3,-2.3 4.7,-3.8 1.1,-1.6 1.8,-3.3 2.1,-5.3 z"
       class="st0" /><path
       inkscape:connector-curvature="0"
       id="path96398"
       d="m 80,170.1 c 0.7,-4.8 -1.3,-9.3 -5.3,-11.9 -6.5,-4.3 -14.7,-6 -21.7,-1.7 -6.8,4.2 -9.5,13.2 -6.2,20.5 1.7,3.8 4.8,6.3 8.3,8.3 3.7,2.1 7.5,1.6 11,-0.6 1.7,-1.1 3,-2.4 4.5,-3.8 1.5,-1.4 3.2,-2.5 4.9,-3.6 2.5,-1.9 4.1,-4.3 4.5,-7.2 z"
       class="st0" /><path
       inkscape:connector-curvature="0"
       id="path96400"
       d="m 82.5,169.9 c 0.9,-5.2 -1.5,-9.9 -6,-12.6 -6.4,-3.9 -14.6,-5.8 -21.4,-1.6 -7.3,4.5 -10.4,13.8 -6.5,21.6 1.8,3.5 5.1,6.7 8.6,8.5 4.1,2 8.1,0.8 11.6,-1.8 1.7,-1.3 3,-2.9 4.6,-4.2 1.4,-1.2 3.1,-1.9 4.6,-3 2.5,-1.8 4,-4.1 4.5,-6.9 z"
       class="st0" /><path
       inkscape:connector-curvature="0"
       id="path96402"
       d="m 85.2,169.6 c 1,-5.5 -1.6,-10.5 -6.5,-13.2 -6.4,-3.6 -14.5,-5.6 -21.3,-1.7 -7.6,4.4 -11,13.9 -7.3,22 0.9,1.9 2.1,3.5 3.6,5.1 1.6,1.7 3.2,3.3 5.4,4.3 4.3,2.1 8.4,0.5 11.9,-2.2 1.7,-1.3 2.9,-3 4.6,-4.3 1.5,-1.2 3.3,-1.9 4.9,-2.9 2.5,-1.8 4.2,-4.1 4.7,-7.1 z"
       class="st0" /><path
       inkscape:connector-curvature="0"
       id="path96404"
       d="m 88.1,169.3 c 0.6,-2.9 0.2,-6.2 -1.3,-8.7 -1.5,-2.6 -3.9,-4.2 -6.5,-5.5 -3.2,-1.5 -6.7,-2.7 -10.2,-3.2 -4.8,-0.7 -9.9,0.9 -13.5,4.1 -3.6,3.2 -5.9,7.7 -6.2,12.5 -0.2,5 1.8,9.3 4.9,13.1 2.1,2.6 4.9,4.9 8.3,5.6 2.7,0.5 5.4,-0.5 7.6,-2 2.1,-1.4 3.7,-3.1 5.4,-4.9 1.6,-1.6 3.6,-2.5 5.7,-3.5 3,-1.4 5.2,-4 5.8,-7.5 z"
       class="st0" /><path
       inkscape:connector-curvature="0"
       id="path96406"
       d="m 91.3,169 c 0.7,-3.2 0.1,-6.9 -1.7,-9.6 -1.9,-2.9 -5,-4.5 -8.1,-5.7 -3,-1.1 -6,-2 -9.1,-2.6 -4.7,-0.8 -9.8,0.9 -13.4,3.9 -4.2,3.5 -6.8,8.8 -6.7,14.4 0.1,4.9 2.3,9.8 5.5,13.5 2,2.2 4.3,4 7.2,4.7 3,0.7 5.9,-0.4 8.3,-2.1 2,-1.5 3.6,-3.2 5.3,-5 1.6,-1.7 3.6,-2.5 5.7,-3.4 3.5,-1.6 6.3,-4.1 7,-8.1 z"
       class="st0" /><path
       inkscape:connector-curvature="0"
       id="path96408"
       d="m 94.8,168.7 c 1,-4.3 -0.2,-9.2 -3.5,-12.2 -2.9,-2.6 -7.3,-4.1 -11,-5.1 -3.7,-0.9 -7.1,-1.7 -10.9,-1 -3.6,0.7 -6.7,2.4 -9.3,5 -5.3,5.4 -6.9,13.2 -4.5,20.3 2.1,6.3 8.9,14.8 16.4,12 2,-0.7 3.7,-1.9 5.3,-3.3 2.4,-2.2 4.1,-5.1 7.1,-6.5 2.3,-1 4.7,-1.5 6.7,-3.1 2,-1.5 3.2,-3.6 3.7,-6.1 z"
       class="st0" /><path
       inkscape:connector-curvature="0"
       id="path96410"
       d="m 98.5,168.4 c 1.2,-4.5 -0.2,-9.7 -3.7,-12.8 -3.2,-2.8 -7.9,-4.2 -12,-5.1 -3.8,-0.9 -7.2,-1.7 -11.1,-0.9 -3.8,0.8 -7,2.6 -9.6,5.3 -5.2,5.4 -7,13.4 -4.8,20.5 2.1,6.5 9.4,16.3 17.3,12.7 2.2,-1 4,-2.4 5.7,-4.2 2.3,-2.3 3.9,-5.2 7,-6.4 2.3,-0.9 4.8,-1.2 6.9,-2.7 2.4,-1.6 3.8,-3.7 4.3,-6.4 z"
       class="st0" /><path
       inkscape:connector-curvature="0"
       id="path96412"
       d="m 102.6,168 c 1.4,-4.8 -0.2,-10.3 -4,-13.5 -3.4,-2.9 -8.5,-4.2 -12.8,-5.1 -1.9,-0.4 -3.8,-0.9 -5.7,-1.2 -1.9,-0.2 -3.9,0 -5.8,0.4 -3.9,0.9 -7.2,2.7 -9.9,5.7 -5.3,5.8 -7.2,14 -4.8,21.5 2.4,7.3 10.2,16.8 18.6,12.3 2.1,-1.1 3.8,-2.8 5.3,-4.6 1.1,-1.2 2,-2.5 3,-3.8 1.1,-1.4 2.5,-2.1 4.1,-2.6 2.6,-0.7 5.3,-1 7.5,-2.6 2.5,-1.7 4,-3.8 4.5,-6.5 z"
       class="st0" /><path
       inkscape:connector-curvature="0"
       id="path96414"
       d="m 107.1,167.6 c 0.7,-2.3 0.8,-5.4 0.1,-7.7 -0.7,-2.6 -2.3,-5 -4.4,-6.6 -3.7,-2.9 -8.9,-4.1 -13.4,-5 -2,-0.4 -3.9,-0.9 -5.9,-1.2 -2.1,-0.3 -4.2,0 -6.2,0.4 -4.1,0.9 -7.5,2.9 -10.3,6.1 -5.3,6.2 -7.6,14.9 -4.9,22.6 1.3,3.9 3.8,8 7.1,10.6 1.8,1.4 3.6,2.7 6,3 2.5,0.3 4.7,-0.4 6.8,-1.7 2.1,-1.4 3.7,-3.4 5.3,-5.3 0.9,-1.1 1.7,-2.4 2.5,-3.5 1,-1.4 2.4,-2.1 4.1,-2.4 2.9,-0.7 5.8,-0.8 8.4,-2.5 2.5,-1.7 4.2,-3.9 4.8,-6.8 z"
       class="st0" /><path
       inkscape:connector-curvature="0"
       id="path96416"
       d="m 112,167.1 c 0.4,-1.2 0.6,-2.5 0.6,-3.8 0,-1.5 0,-3.1 -0.4,-4.6 -0.7,-2.6 -2.5,-5.2 -4.7,-6.7 -4.3,-3 -9.6,-4 -14.6,-5 -2,-0.4 -4.1,-1 -6.2,-1.2 -2.1,-0.2 -4.2,0.1 -6.2,0.6 -4.3,1 -7.9,3.1 -10.7,6.6 -5.4,6.7 -8,15.6 -5.1,23.8 1.5,4.3 4.3,8.4 7.9,11.2 2,1.6 4.1,2.6 6.7,2.7 2.7,0.1 5,-1.1 7,-2.8 2,-1.6 3.5,-3.9 5,-6 0.8,-1.1 1.4,-2.5 2.2,-3.5 1,-1.2 2.3,-1.6 3.8,-1.9 3.2,-0.6 6.5,-0.5 9.3,-2.3 2.9,-1.7 4.7,-4 5.4,-7.1 z"
       class="st0" /><path
       inkscape:connector-curvature="0"
       id="path96418"
       d="m 116.9,166.6 c 0.4,-1.3 0.7,-2.6 0.6,-4 0,-1.6 0.1,-3.2 -0.3,-4.8 -0.7,-2.8 -2.4,-5.6 -4.6,-7.2 -2.4,-1.8 -5.3,-2.6 -8.2,-3.4 -2.5,-0.7 -4.9,-1 -7.4,-1.6 -2.1,-0.5 -4.3,-1 -6.4,-1.2 -2.3,-0.3 -4.6,0.1 -6.8,0.6 -4.4,1 -8.1,3.3 -10.9,6.9 -2.5,3.3 -4.7,7.4 -5.9,11.4 -1.4,4.5 -1.1,9.2 0.4,13.6 1.7,4.7 4.7,8.8 8.5,12 2.1,1.7 4.4,2.5 7,2.5 2.8,0 5.4,-1.7 7.3,-3.6 2,-1.9 3.5,-4.3 4.9,-6.7 0.7,-1.1 1.2,-2.5 2,-3.5 1,-1.2 2.4,-1.6 3.9,-1.8 3.5,-0.4 7,-0.1 10.1,-2 1.4,-0.8 3.1,-2 3.9,-3.4 1,-1.1 1.6,-2.4 1.9,-3.8 z"
       class="st0" /><path
       inkscape:connector-curvature="0"
       id="path96420"
       d="m 122.1,166.1 c 0.5,-1.4 0.7,-2.9 0.7,-4.4 -0.1,-1.6 0.1,-3.2 -0.3,-4.7 -0.7,-2.9 -2.5,-5.6 -4.8,-7.5 -2.4,-1.9 -5.5,-3.1 -8.5,-3.8 -1.3,-0.3 -2.6,-0.7 -3.8,-0.8 -1.3,-0.1 -2.7,-0.4 -4,-0.7 -1.1,-0.3 -2.2,-0.5 -3.4,-0.7 -1.2,-0.2 -2.3,-0.4 -3.5,-0.6 -2.2,-0.3 -4.7,0.3 -6.9,0.8 -4.7,1.1 -8.6,3.6 -11.4,7.6 -2.6,3.6 -4.8,7.9 -6.2,12.1 -1.6,4.6 -1.1,9.9 0.7,14.4 2,5 5.1,9.4 9.3,12.6 2.1,1.6 5.4,2.5 7.9,1.9 3,-0.7 5.6,-2.7 7.4,-5.1 1.8,-2.3 3.2,-4.8 4.6,-7.4 0.6,-1.1 0.9,-2.7 2.1,-3.4 1.2,-0.7 2.9,-0.7 4.2,-0.8 3.6,-0.2 7.4,-0.3 10.6,-2.3 1.4,-0.9 3,-2 3.8,-3.5 0.6,-1.1 1.2,-2.3 1.5,-3.7 z"
       class="st0" /><path
       inkscape:connector-curvature="0"
       id="path96422"
       d="m 127.8,165.6 c 0.5,-1.4 0.8,-3 0.7,-4.5 -0.1,-1.6 0.1,-3.3 -0.3,-4.9 -0.8,-3.1 -2.6,-6.1 -5.2,-7.9 -2.6,-1.9 -5.5,-3 -8.6,-3.9 -1.5,-0.4 -2.8,-0.7 -4.3,-1 -1.3,-0.3 -2.6,-0.4 -3.9,-0.7 -1.1,-0.3 -2.2,-0.5 -3.3,-0.7 -0.6,-0.1 -1.2,-0.1 -1.8,-0.3 -0.6,-0.2 -1.3,-0.3 -2,-0.4 -2.4,-0.2 -4.9,0.4 -7.3,0.9 -5,1 -9,3.9 -11.8,8.1 -1.3,1.9 -2.3,4.1 -3.5,6.1 -1.3,2.1 -2.4,4.4 -3.2,6.7 -1.7,4.9 -1.3,10.6 0.7,15.4 2.2,5.3 5.5,10.1 10.1,13.4 2.4,1.8 6,2.3 8.9,1.4 3,-1 5.6,-3.4 7.3,-6 1,-1.4 2,-2.9 2.7,-4.5 0.5,-1.2 1.1,-2.4 1.8,-3.5 0.9,-1.5 1.6,-2.9 3.4,-3.3 1.3,-0.3 2.6,-0.4 3.9,-0.4 3.4,0 7.2,-0.5 10.1,-2.3 1.5,-0.9 3.3,-2.2 4.1,-3.8 0.6,-1.3 1.2,-2.5 1.5,-3.9 z"
       class="st0" /><path
       inkscape:connector-curvature="0"
       id="path96424"
       d="m 134.1,164.9 c 0.5,-1.5 0.8,-3.1 0.7,-4.7 -0.1,-1.8 0.1,-3.6 -0.4,-5.3 -0.4,-1.6 -1.1,-3.1 -2,-4.4 -0.5,-0.8 -0.9,-1.4 -1.5,-2 -0.7,-0.7 -1.4,-1.2 -2.2,-1.8 -2.6,-2.1 -6.2,-3.2 -9.4,-3.9 -0.7,-0.2 -1.3,-0.4 -2,-0.6 -0.6,-0.2 -1.3,-0.2 -2,-0.3 -1.5,-0.4 -2.9,-0.6 -4.4,-0.9 -1.2,-0.3 -2.4,-0.5 -3.6,-0.7 -0.6,-0.1 -1.1,-0.4 -1.7,-0.5 -0.8,-0.2 -1.6,-0.2 -2.4,-0.2 -0.7,0 -1.3,0 -2,0 -0.7,0 -1.3,0.3 -1.9,0.4 -1.3,0.2 -2.6,0.4 -3.9,0.7 -5.2,1.1 -9.3,5 -11.9,9.5 -1.3,2.2 -2.5,4.5 -3.7,6.7 -1.3,2.4 -2.6,4.6 -3.4,7.3 -1.6,5.8 -0.5,11.7 2.1,17.1 2.6,5.4 6.8,11.5 12.8,13.5 3.3,1.1 6.6,0 9.4,-1.9 2.2,-1.4 3.9,-3.9 5.2,-6.1 1.6,-2.7 2.9,-5.5 4.7,-8 1,-1.4 1.5,-2.6 3.4,-2.9 1.4,-0.3 2.9,-0.3 4.3,-0.3 3.2,0 7,-0.5 9.8,-2.2 1.6,-1 3.4,-2.2 4.4,-3.8 0.7,-1.7 1.3,-3.2 1.6,-4.7 z"
       class="st0" /><path
       inkscape:connector-curvature="0"
       id="path96426"
       d="m 141.2,164.2 c 0.5,-1.5 0.8,-3.3 0.7,-4.9 -0.1,-2 0.1,-3.9 -0.5,-5.8 -0.5,-1.8 -1.3,-3.3 -2.3,-4.8 -0.9,-1.4 -2.1,-2.4 -3.4,-3.4 -2.9,-2.2 -6.5,-3.4 -10,-4.3 -0.8,-0.2 -1.5,-0.5 -2.3,-0.7 -0.7,-0.2 -1.5,-0.2 -2.3,-0.4 -0.7,-0.2 -1.4,-0.1 -2.2,-0.3 -0.8,-0.1 -1.6,-0.5 -2.4,-0.7 -0.4,-0.1 -0.8,0 -1.2,-0.1 -0.3,-0.1 -0.5,-0.2 -0.8,-0.3 -0.6,-0.2 -1.4,-0.1 -2,-0.3 -0.4,-0.1 -0.7,-0.4 -1.2,-0.5 -0.2,-0.1 -0.6,-0.1 -0.8,-0.1 -0.9,-0.2 -1.6,-0.1 -2.5,-0.2 -1.5,-0.1 -2.7,0.2 -4.1,0.4 -1.4,0.2 -3.1,0.5 -4.5,0.9 -5.7,1.9 -9.6,6.4 -12.2,11.6 -1.2,2.5 -2.8,4.8 -4.3,7.2 -1.6,2.7 -2.8,5.5 -3.4,8.5 -1.3,6.5 1,13.5 4.5,19 0.9,1.4 1.7,2.9 2.8,4.2 0.6,0.7 1.1,1.4 1.6,2 0.7,0.8 1.6,1.3 2.4,2 1.5,1.2 2.7,2.1 4.5,2.7 1.8,0.6 3.5,0.5 5.3,0.3 3,-0.3 5.4,-2.5 7.3,-4.7 1.9,-2.2 3.5,-4.6 4.9,-7.2 1.4,-2.5 2.7,-5.3 4.4,-7.5 1.1,-1.3 2.7,-1.5 4.2,-1.6 1.8,-0.2 3.5,-0.2 5.3,-0.4 3.3,-0.3 6.3,-1 9,-2.9 1.3,-0.9 2.6,-1.8 3.4,-3.2 1.1,-1.4 1.8,-2.9 2.1,-4.5 z"
       class="st0" /><path
       inkscape:connector-curvature="0"
       id="path96428"
       d="m 149.3,163.4 c 0.6,-1.6 0.9,-3.4 0.8,-5.2 -0.1,-1.8 0,-3.4 -0.3,-5.2 -0.5,-2.7 -2.1,-6.1 -4.2,-7.9 -1.3,-1.1 -2.4,-2.2 -3.9,-3 -1.3,-0.7 -2.7,-1.4 -4.1,-1.8 -1.7,-0.6 -3.4,-1.1 -5.1,-1.5 -1.8,-0.4 -3.7,-1.2 -5.6,-1.3 -0.8,-0.1 -1.6,-0.1 -2.4,-0.4 -0.8,-0.2 -1.5,-0.3 -2.3,-0.5 -0.7,-0.2 -1.3,-0.4 -2,-0.5 -0.6,-0.1 -0.7,-0.1 -1.3,-0.3 -0.6,-0.2 -1.1,-0.3 -1.7,-0.4 -3.2,-0.6 -6.3,0.1 -9.5,0.6 -6.9,1 -11.9,6.2 -14.8,12.3 -1.3,2.8 -3.1,5.3 -4.8,7.9 -2.1,3.1 -3.5,6.4 -4.2,10 -0.8,3.7 -0.1,7.9 1,11.5 1.1,3.6 3,6.8 4.8,10.1 0.8,1.5 2.2,2.7 3.1,4.2 0.9,1.3 2.1,2 3.3,3.1 1,0.9 2.1,2 3.5,2.4 0.6,0.2 1.2,0.4 1.8,0.6 1,0.3 1.8,0.1 2.8,0 0.8,0 1.3,-0.4 2.1,-0.5 0.8,-0.2 1.4,-0.2 2.1,-0.6 1.6,-0.8 2.9,-1.8 4.3,-2.9 1.3,-1 2.3,-2.5 3.4,-3.8 1.1,-1.3 1.9,-2.8 2.8,-4.3 1.7,-2.8 3.3,-5.7 5,-8.5 1,-1.6 2.1,-2.3 3.9,-2.6 2,-0.3 3.9,-0.2 5.9,-0.4 3.5,-0.4 6.9,-0.9 9.8,-2.9 1.4,-1 3,-2.1 3.9,-3.6 0.8,-1.3 1.5,-3 1.9,-4.6 z"
       class="st0" /><path
       inkscape:connector-curvature="0"
       id="path96372"
       d="m 158.6,162.5 c 0.5,-1.5 0.8,-3.1 0.9,-4.7 0,-1.6 0.1,-3.5 -0.2,-5.1 -0.6,-3.1 -1.7,-6.1 -3.7,-8.6 -2,-2.5 -5,-4.1 -7.9,-5.3 -1.5,-0.6 -3.1,-1.2 -4.6,-1.6 -1,-0.3 -2.1,-0.4 -3.2,-0.7 -0.6,-0.2 -0.9,-0.4 -1.5,-0.5 -0.7,-0.1 -1.3,-0.2 -2,-0.4 -1,-0.2 -1.9,-0.2 -2.8,-0.4 -0.9,-0.2 -1.8,-0.5 -2.7,-0.6 -0.7,-0.1 -1.4,-0.4 -2.2,-0.5 -0.4,-0.1 -0.9,-0.1 -1.3,-0.1 -0.6,-0.1 -1.1,-0.4 -1.7,-0.6 -0.9,-0.2 -1.8,-0.3 -2.7,-0.3 -0.9,0 -1.8,-0.2 -2.8,-0.1 -0.8,0.1 -1.4,0.4 -2.3,0.4 -1.1,0 -2.1,0.3 -3.2,0.5 -3.9,0.6 -7.1,2.1 -10,4.6 -2.8,2.3 -4.5,5.9 -6,9.1 -1.7,3.5 -4.4,6.2 -6.3,9.6 -1,1.7 -2,3.2 -2.7,5.1 -0.8,2.2 -1.5,4.5 -1.4,6.8 0,3.7 0.4,7.1 1.6,10.6 1,3 2.5,5.6 4,8.3 0.8,1.4 1.6,2.8 2.6,4.1 0.9,1.3 1.9,2.8 3.2,3.7 2.8,1.8 5.6,3.6 9.1,3.6 1.8,0 3.4,-0.5 5.1,-0.8 1.7,-0.3 3.6,-1.7 4.9,-2.8 0.8,-0.6 1.5,-1.1 2.2,-1.9 0.6,-0.7 1.3,-1.5 1.9,-2.2 1.2,-1.4 2.1,-2.8 3,-4.4 1.1,-1.8 2.1,-3.7 3.1,-5.6 0.8,-1.4 1.7,-2.6 2.5,-4 0.5,-1 0.9,-1.7 1.9,-2.3 0.7,-0.4 1.5,-0.6 2.3,-0.7 1.9,-0.3 3.8,-0.1 5.7,-0.3 4.1,-0.4 8,-1.1 11.4,-3.5 1.5,-1.1 3,-2.2 3.8,-3.9 1,-1.5 1.6,-2.9 2,-4.5 z"
       class="st0" /></g><g
     id="g92023"
     inkscape:label="straight lines"
     style="display:inline">
	<g
   id="g90395"
   transform="translate(31.3492,757.9472)">
		<path
   id="path90397"
   inkscape:connector-curvature="0"
   class="st0"
   d="M 0,-684.5 H 267.6" />
	</g>
	<g
   id="g90399"
   transform="translate(31.3499,751.1044)">
		<path
   id="path90401"
   inkscape:connector-curvature="0"
   class="st0"
   d="M 0,-670.9 H 267.6" />
	</g>
	<g
   id="g90407"
   transform="translate(31.3499,736.7656)">
		<g
   id="g93110">
			<g
   id="path90409_7_"
   inkscape:connector-curvature="0">
				<path
   id="path93107"
   inkscape:connector-curvature="0"
   class="st0"
   d="m 0,-636.1 c 4.8,0 4.8,6 9.5,6 4.8,0 4.8,-6 9.5,-6 4.8,0 4.8,6 9.5,6 4.8,0 4.8,-6 9.5,-6 4.8,0 4.8,6 9.5,6 4.8,0 4.8,-6 9.5,-6 4.8,0 4.8,6 9.5,6 4.8,0 4.8,-6 9.5,-6 4.8,0 4.8,6 9.5,6 4.8,0 4.8,-6 9.5,-6 4.8,0 4.8,6 9.5,6 4.8,0 4.8,-6 9.5,-6 4.8,0 4.8,6 9.5,6 4.8,0 4.8,-6 9.5,-6 4.8,0 4.8,6 9.5,6 4.8,0 4.8,-6 9.5,-6 4.8,0 4.8,6 9.5,6 4.8,0 4.8,-6 9.5,-6 4.8,0 4.8,6 9.5,6 4.8,0 4.8,-6 9.5,-6 4.8,0 4.8,6 9.5,6 4.8,0 4.8,-6 9.5,-6 4.8,0 4.8,6 9.5,6 4.8,0 4.8,-6 9.5,-6 4.8,0 4.8,6 9.5,6 4.8,0 4.8,-6 9.5,-6 4.8,0 4.8,6 9.6,6 4.8,0 4.8,-6 9.6,-6" />
			</g>
		</g>
	</g>
	<g
   id="g90411"
   transform="translate(31.3492,729.705)">
		<g
   id="g93116">
			<g
   id="path90413_7_"
   inkscape:connector-curvature="0">
				<path
   id="path93113"
   inkscape:connector-curvature="0"
   class="st0"
   d="m 0,-622 c 4.8,0 4.8,6 9.5,6 4.8,0 4.8,-6 9.5,-6 4.8,0 4.8,6 9.5,6 4.8,0 4.8,-6 9.5,-6 4.8,0 4.8,6 9.5,6 4.8,0 4.8,-6 9.5,-6 4.8,0 4.8,6 9.5,6 4.8,0 4.8,-6 9.5,-6 4.8,0 4.8,6 9.5,6 4.8,0 4.8,-6 9.5,-6 4.8,0 4.8,6 9.5,6 4.8,0 4.8,-6 9.5,-6 4.8,0 4.8,6 9.5,6 4.8,0 4.8,-6 9.5,-6 4.8,0 4.8,6 9.5,6 4.8,0 4.8,-6 9.5,-6 4.8,0 4.8,6 9.5,6 4.8,0 4.8,-6 9.5,-6 4.8,0 4.8,6 9.5,6 4.8,0 4.8,-6 9.5,-6 4.8,0 4.8,6 9.5,6 4.8,0 4.8,-6 9.5,-6 4.8,0 4.8,6 9.5,6 4.8,0 4.8,-6 9.5,-6 4.8,0 4.8,6 9.5,6 4.8,0 4.8,-6 9.5,-6 4.8,0 4.8,6 9.6,6 4.8,0 4.8,-6 9.6,-6" />
			</g>
		</g>
	</g>
</g><g
     id="g91923"
     inkscape:label="lines">
	<g
   id="g90223"
   transform="translate(170.6602,660.85)">
		<path
   id="path90225"
   inkscape:connector-curvature="0"
   class="st0"
   d="m 0,-479.8 33.2,-42.6" />
	</g>
	<g
   id="g90071"
   transform="translate(170.6805,660.8469)">
		<path
   id="path90073"
   inkscape:connector-curvature="0"
   class="st0"
   d="m 0,-479.8 33.3,-42.5" />
	</g>
	<g
   id="g90075"
   transform="translate(170.7144,660.8417)">
		<path
   id="path90077"
   inkscape:connector-curvature="0"
   class="st0"
   d="m 0,-479.8 33.3,-42.5" />
	</g>
	<g
   id="g90079"
   transform="translate(170.7781,660.8329)">
		<path
   id="path90081"
   inkscape:connector-curvature="0"
   class="st0"
   d="m 0,-479.8 33.5,-42.5" />
	</g>
	<g
   id="g90083"
   transform="translate(170.8401,660.8246)">
		<path
   id="path90085"
   inkscape:connector-curvature="0"
   class="st0"
   d="m 0,-479.8 33.5,-42.3" />
	</g>
	<g
   id="g90087"
   transform="translate(170.9558,660.809)">
		<path
   id="path90089"
   inkscape:connector-curvature="0"
   class="st0"
   d="M 0,-479.8 33.8,-522" />
	</g>
	<g
   id="g90091"
   transform="translate(171.0352,660.7993)">
		<path
   id="path90093"
   inkscape:connector-curvature="0"
   class="st0"
   d="m 0,-479.7 33.9,-42.1" />
	</g>
	<g
   id="g90095"
   transform="translate(171.2173,660.7766)">
		<path
   id="path90097"
   inkscape:connector-curvature="0"
   class="st0"
   d="m 0,-479.7 34.2,-41.8" />
	</g>
	<g
   id="g90099"
   transform="translate(171.2962,660.7673)">
		<path
   id="path90101"
   inkscape:connector-curvature="0"
   class="st0"
   d="m 0,-479.7 34.3,-41.7" />
	</g>
	<g
   id="g90103"
   transform="translate(171.5645,660.7377)">
		<path
   id="path90105"
   inkscape:connector-curvature="0"
   class="st0"
   d="m 0,-479.6 34.9,-41.2" />
	</g>
	<g
   id="g90107"
   transform="translate(172.0017,660.697)">
		<path
   id="path90109"
   inkscape:connector-curvature="0"
   class="st0"
   d="m 0,-479.5 35.6,-40.7" />
	</g>
	<g
   id="g90111"
   transform="translate(172.532,660.6586)">
		<path
   id="path90113"
   inkscape:connector-curvature="0"
   class="st0"
   d="m 0,-479.4 36.5,-39.8" />
	</g>
	<g
   id="g90115"
   transform="translate(173.159,660.6298)">
		<path
   id="path90117"
   inkscape:connector-curvature="0"
   class="st0"
   d="m 0,-479.3 37.6,-38.8" />
	</g>
	<g
   id="g90119"
   transform="translate(173.888,660.6196)">
		<path
   id="path90121"
   inkscape:connector-curvature="0"
   class="st0"
   d="M 0,-479.3 38.8,-517" />
	</g>
	<g
   id="g90123"
   transform="translate(174.7234,660.6379)">
		<path
   id="path90125"
   inkscape:connector-curvature="0"
   class="st0"
   d="m 0,-479.4 40.1,-36.2" />
	</g>
	<g
   id="g90127"
   transform="translate(175.6724,660.6962)">
		<path
   id="path90129"
   inkscape:connector-curvature="0"
   class="st0"
   d="m 0,-479.5 41.6,-34.6" />
	</g>
	<g
   id="g90131"
   transform="translate(176.7422,660.812)">
		<path
   id="path90133"
   inkscape:connector-curvature="0"
   class="st0"
   d="m 0,-479.8 43,-32.6" />
	</g>
	<g
   id="g90135"
   transform="translate(177.9427,661.0014)">
		<path
   id="path90137"
   inkscape:connector-curvature="0"
   class="st0"
   d="m 0,-480.1 44.6,-30.4" />
	</g>
	<g
   id="g90139"
   transform="translate(179.2862,661.2861)">
		<path
   id="path90141"
   inkscape:connector-curvature="0"
   class="st0"
   d="m 0,-480.7 46.3,-27.8" />
	</g>
	<g
   id="g90143"
   transform="translate(180.7884,661.6891)">
		<path
   id="path90145"
   inkscape:connector-curvature="0"
   class="st0"
   d="m 0,-481.5 48,-24.9" />
	</g>
	<g
   id="g90147"
   transform="translate(182.4693,662.2372)">
		<path
   id="path90149"
   inkscape:connector-curvature="0"
   class="st0"
   d="m 0,-482.6 49.5,-21.6" />
	</g>
	<g
   id="g90151"
   transform="translate(184.3528,662.9604)">
		<path
   id="path90153"
   inkscape:connector-curvature="0"
   class="st0"
   d="m 0,-484 51,-17.9" />
	</g>
	<g
   id="g90155"
   transform="translate(186.4717,663.8911)">
		<path
   id="path90157"
   inkscape:connector-curvature="0"
   class="st0"
   d="m 0,-485.9 52.3,-13.7" />
	</g>
	<g
   id="g90159"
   transform="translate(188.8636,665.0632)">
		<path
   id="path90161"
   inkscape:connector-curvature="0"
   class="st0"
   d="m 0,-488.2 53.2,-9" />
	</g>
	<g
   id="g90163"
   transform="translate(191.5764,666.5097)">
		<path
   id="path90165"
   inkscape:connector-curvature="0"
   class="st0"
   d="m 0,-491.2 53.9,-3.9" />
	</g>
	<g
   id="g90167"
   transform="translate(194.6685,668.2651)">
		<path
   id="path90169"
   inkscape:connector-curvature="0"
   class="st0"
   d="m 0,-494.7 54,1.6" />
	</g>
	<g
   id="g90171"
   transform="translate(198.2066,670.3578)">
		<path
   id="path90173"
   inkscape:connector-curvature="0"
   class="st0"
   d="m 0,-498.8 53.5,7.6" />
	</g>
	<g
   id="g90175"
   transform="translate(202.2693,672.8076)">
		<path
   id="path90177"
   inkscape:connector-curvature="0"
   class="st0"
   d="m 0,-503.8 52.2,13.9" />
	</g>
	<g
   id="g90179"
   transform="translate(206.9422,675.6227)">
		<path
   id="path90181"
   inkscape:connector-curvature="0"
   class="st0"
   d="M 0,-509.3 50,-489" />
	</g>
	<g
   id="g90183"
   transform="translate(212.3147,678.7905)">
		<path
   id="path90185"
   inkscape:connector-curvature="0"
   class="st0"
   d="m 0,-515.7 46.9,26.9" />
	</g>
	<g
   id="g90187"
   transform="translate(218.4727,682.2761)">
		<path
   id="path90189"
   inkscape:connector-curvature="0"
   class="st0"
   d="m 0,-522.7 42.5,33.3" />
	</g>
	<g
   id="g90191"
   transform="translate(225.4827,686.0095)">
		<path
   id="path90193"
   inkscape:connector-curvature="0"
   class="st0"
   d="M 0,-530.2 37.1,-491" />
	</g>
	<g
   id="g90195"
   transform="translate(233.3721,689.8847)">
		<path
   id="path90197"
   inkscape:connector-curvature="0"
   class="st0"
   d="m 0,-537.9 30.6,44.6" />
	</g>
	<g
   id="g90199"
   transform="translate(242.106,693.7617)">
		<path
   id="path90201"
   inkscape:connector-curvature="0"
   class="st0"
   d="m 0,-545.7 23.1,48.8" />
	</g>
	<g
   id="g90203"
   transform="translate(251.5498,697.4697)">
		<path
   id="path90205"
   inkscape:connector-curvature="0"
   class="st0"
   d="m 0,-553 14.9,51.9" />
	</g>
	<g
   id="g90207"
   transform="translate(261.4422,700.8276)">
		<path
   id="path90209"
   inkscape:connector-curvature="0"
   class="st0"
   d="m 0,-559.7 6.4,53.6" />
	</g>
	<g
   id="g90211"
   transform="translate(269.6057,649.6862)">
		<path
   id="path90213"
   inkscape:connector-curvature="0"
   class="st0"
   d="m 0,-457.5 1.8,-54" />
	</g>
	<g
   id="g90215"
   transform="translate(271.5347,652.6887)">
		<path
   id="path90217"
   inkscape:connector-curvature="0"
   class="st0"
   d="m 0,-463.5 9.2,-53.2" />
	</g>
	<g
   id="g90219"
   transform="translate(273.5423,655.7558)">
		<path
   id="path90221"
   inkscape:connector-curvature="0"
   class="st0"
   d="m 0,-469.6 15.5,-51.8" />
	</g>
	<g
   id="g90067"
   transform="translate(275.3394,658.3906)">
		<path
   id="path90069"
   inkscape:connector-curvature="0"
   class="st0"
   d="M 0,-474.9 20.1,-525" />
	</g>
</g><g
     id="g91841"
     inkscape:label="poly">
	<g
   id="g90063"
   transform="translate(65.8286,600.8569)">
		<path
   id="path90065"
   inkscape:connector-curvature="0"
   class="st0"
   d="m 0,-359.8 -7.3,8 -5.6,-12.5 -12,5.5 10,-8 1.9,2.6 z" />
	</g>
	<g
   id="g89971"
   transform="translate(40.9265,599.9968)">
		<path
   id="path89973"
   inkscape:connector-curvature="0"
   class="st0"
   d="m 0,-358.1 6.3,7.6 -7.9,-2.2 z" />
	</g>
	<g
   id="g89975"
   transform="translate(47.2256,592.455)">
		<path
   id="path89977"
   inkscape:connector-curvature="0"
   class="st0"
   d="m 0,-343 5.7,7.8" />
	</g>
	<g
   id="g89979"
   transform="translate(52.8985,584.631)">
		<path
   id="path89981"
   inkscape:connector-curvature="0"
   class="st0"
   d="m 0,-327.4 5.6,-8.2" />
	</g>
	<g
   id="g89983"
   transform="translate(51.0398,608.0266)">
		<path
   id="path89985"
   inkscape:connector-curvature="0"
   class="st0"
   d="m 0,-374.2 10,1.4" />
	</g>
	<g
   id="g89987"
   transform="translate(39.3614,594.6982)">
		<path
   id="path89989"
   inkscape:connector-curvature="0"
   class="st0"
   d="m 0,-347.5 13.5,10.1 12.9,-9.4 11.9,-2.6" />
	</g>
	<g
   id="g89991"
   transform="translate(80.5166,623.7009)">
		<path
   id="path89993"
   inkscape:connector-curvature="0"
   class="st0"
   d="m 0,-405.5 -7.2,8.8 -12.2,8.2 8.6,-13 z" />
	</g>
	<g
   id="g89995"
   transform="translate(65.8286,600.8569)">
		<path
   id="path89997"
   inkscape:connector-curvature="0"
   class="st0"
   d="m 0,-359.8 7.5,-14.1 9,8.5 -4.6,9.9 14.3,-0.1 -12.9,8 -1.5,-7.9 -11.8,-4.3 -4.7,-5.8 -8.2,1.3 -5.7,13 11.3,-0.5 7.3,-1.2 13.3,5.2 12.7,-0.6 v 0 l 3.9,6.5 0.9,1.5 3.3,5.6 -3.9,-7.4 -4.1,-13.5 13.3,3.6 -1,11.8 -8.2,-1.9 -4.3,-6.1 -12.7,0.6 -7.8,-2 -5.4,-3.2 z" />
	</g>
	<g
   id="g89999"
   transform="translate(82.2617,606.5163)">
		<path
   id="path90001"
   inkscape:connector-curvature="0"
   class="st0"
   d="m 0,-371.2 3.5,-11.2" />
	</g>
	<g
   id="g90003"
   transform="translate(82.2617,606.5163)">
		<path
   id="path90005"
   inkscape:connector-curvature="0"
   class="st0"
   d="m 0,-371.2 16.3,-0.7" />
	</g>
	<g
   id="g90007"
   transform="translate(91.7805,589.3517)">
		<path
   id="path90009"
   inkscape:connector-curvature="0"
   class="st0"
   d="m 0,-336.8 0.2,-7.4 6.5,-10.5" />
	</g>
	<g
   id="g90011"
   transform="translate(96.063,583.1799)">
		<path
   id="path90013"
   inkscape:connector-curvature="0"
   class="st0"
   d="m 0,-324.4 9.2,-9.9 15.8,8.2" />
	</g>
	<g
   id="g90015"
   transform="translate(99.9466,575.8063)">
		<path
   id="path90017"
   inkscape:connector-curvature="0"
   class="st0"
   d="m 0,-309.7 4.3,-5.5 16.8,-3.5" />
	</g>
	<g
   id="g90019"
   transform="translate(99.9466,575.8058)">
		<path
   id="path90021"
   inkscape:connector-curvature="0"
   class="st0"
   d="m 0,-309.7 8.3,2.5 5,3 -5.7,-2.4 z" />
	</g>
	<g
   id="g90023"
   transform="translate(108.2508,573.2546)">
		<path
   id="path90025"
   inkscape:connector-curvature="0"
   class="st0"
   d="m 0,-304.6 12.8,-11.5" />
	</g>
	<g
   id="g90027"
   transform="translate(69.6355,619.6599)">
		<path
   id="path90029"
   inkscape:connector-curvature="0"
   class="st0"
   d="m 0,-397.5 3.8,4.7 12.5,-2.8 12.8,10.6 1.1,-0.2 19.1,-3.7 4.8,1.9 8.2,-11.5 9.1,1.8 -6.8,20.8" />
	</g>
	<g
   id="g90031"
   transform="translate(104.3113,581.2824)">
		<path
   id="path90033"
   inkscape:connector-curvature="0"
   class="st0"
   d="m 0,-320.7 4,8 13.4,-0.8 10.6,-8.9" />
	</g>
	<g
   id="g90035"
   transform="translate(99.5706,607.3928)">
		<path
   id="path90037"
   inkscape:connector-curvature="0"
   class="st0"
   d="m 0,-372.9 -8.1,-11.4 -11,-5 5.3,5.9 5.6,-1 7.1,11.5 9.6,0.8 -2.8,13.4 15.6,-7.8 -12.7,-5.5 15.4,-2.7 1.8,-14.4 14.8,-8 11.9,8.4 -0.8,3.1 3.9,8.6 -7,6 -11.7,10 -2.2,-2.7 -13.2,-2.7 8.6,-2.5 4.6,5.2" />
	</g>
	<g
   id="g90039"
   transform="translate(136.3885,595.4443)">
		<path
   id="path90041"
   inkscape:connector-curvature="0"
   class="st0"
   d="m 0,-349 -4,12.5 -11.3,-2 -0.2,-16 2.5,-8.3 17.3,-9.7 7.3,13.4" />
	</g>
	<g
   id="g90043"
   transform="translate(121.6795,573.977)">
		<path
   id="path90045"
   inkscape:connector-curvature="0"
   class="st0"
   d="m 0,-306.1 2.2,-0.4" />
	</g>
	<g
   id="g90047"
   transform="translate(65.8286,600.8569)">
		<path
   id="path90049"
   inkscape:connector-curvature="0"
   class="st0"
   d="m 0,-359.8 16.4,-5.6 9.8,9.8 16.1,-9.8 10.6,-4.7 6.6,-12.4 6.4,2.8 8.3,-10.9 11.2,11.6 -3.1,14.6 -14,7.4" />
	</g>
	<g
   id="g90051"
   transform="translate(121.6795,573.977)">
		<path
   id="path90053"
   inkscape:connector-curvature="0"
   class="st0"
   d="m 0,-306.1 -8.4,3.8 7.3,-2.9 1.1,-0.4 1.3,-0.5 0.8,-0.3 8.5,-8.5 1.7,-15.2 -13,13.3 z" />
	</g>
	<g
   id="g90055"
   transform="translate(123.5432,609.1845)">
		<path
   id="path90057"
   inkscape:connector-curvature="0"
   class="st0"
   d="m 0,-376.5 5.9,5.8 11.3,-15.5 -0.8,-12.8" />
	</g>
	<g
   id="g90059"
   transform="translate(140.8513,618.8908)">
		<path
   id="path90061"
   inkscape:connector-curvature="0"
   class="st0"
   d="m 0,-395.9 10.3,-1.2" />
	</g>
	<g
   id="g89967"
   transform="translate(151.9414,623.2133)">
		<path
   id="path89969"
   inkscape:connector-curvature="0"
   class="st0"
   d="m 0,-404.5 3.2,11.8" />
	</g>
</g><g
     id="g91789"
     inkscape:label="boat">
	<g
   id="g89479"
   transform="translate(201.3467,582.9587)">
		<path
   id="path89481"
   inkscape:connector-curvature="0"
   class="st0"
   d="m 0,-324 0.1,0.1 0.1,0.1 0.3,0.1 0.2,0.1 7.6,2.3 9.2,2.8 3.2,0.9 2.6,0.8 2.7,0.8 2.3,0.7 0.8,0.2 0.8,0.2 0.9,0.2 0.7,0.1 1,0.1 0.7,0.1 0.4,0.1 0.8,0.1 1,0.1 1.1,0.1 h 0.9 0.7 0.9 0.6 l 0.9,-0.1 1.1,-0.1 0.8,-0.1 0.4,-0.1 0.7,-0.1 0.6,-0.1 0.5,-0.1 0.7,-0.1 0.5,-0.1 0.6,-0.1 0.6,-0.1 0.7,-0.2 0.7,-0.2 0.6,-0.2" />
	</g>
	<g
   id="g89483"
   transform="translate(198.502,586.1047)">
		<path
   id="path89485"
   inkscape:connector-curvature="0"
   class="st0"
   d="m 0,-330.4 v 0 l 0.1,0.1 v 0 l 0.1,0.1 0.1,0.1 v 0 l 0.1,0.1 0.1,0.1 v 0 h 0.1 l 0.1,0.1 h 0.1 l 0.5,0.1 1.9,0.6 2.2,0.7 0.6,0.2 2.2,0.7 6.1,1.9 2.3,0.8 4.3,1.4 0.4,0.1 0.4,0.1 1.4,0.5 2.2,0.8 1.2,0.4 1.3,0.4 1.3,0.4 0.2,0.1 0.8,0.2 0.3,0.1 0.5,0.1 0.1,0.1 0.7,0.2 0.3,-0.1 0.3,0.1 0.5,0.1 0.4,0.1 0.3,0.1 0.4,0.1 h 0.2 l 0.9,0.1 h 0.1 0.1 l 0.6,0.1 0.4,0.1 0.5,0.1 H 37 l 0.8,0.1 h 0.2 0.2 l 0.6,0.1 h 0.1 l 0.6,0.1 h 0.1 0.5 0.1 0.7 0.2 0.5 0.2 0.3 0.7 1 v 0 0 0 h 0.6 0.2 l 0.7,-0.1 h 0.5 0.1 l 0.6,-0.1 h 0.1 0.4 l 0.8,-0.1 0.9,-0.1 v 0 0 h 0.1 l 0.6,-0.1 v 0 h 0.1 l 0.5,-0.1 0.6,-0.1 h 0.1 l 0.4,-0.1 0.3,-0.1 h 0.1 l 0.5,-0.2 v 0 l 0.1,-0.1 0.6,-0.1 0.1,-0.1 0.5,-0.1 0.5,-0.1 0.1,-0.1 0.6,-0.2 v 0 l 0.2,-0.1 0.5,-0.1 v 0 l 0.6,-0.2 h 0.1 l 0.2,-0.1 0.5,-0.2" />
	</g>
	<g
   id="g89487"
   transform="translate(196.0337,589.2687)">
		<path
   id="path89489"
   inkscape:connector-curvature="0"
   class="st0"
   d="m 0,-336.6 v 0 0 l 0.1,0.2 0.1,0.1 0.1,0.1 0.1,0.1 0.1,0.1 0.1,0.1 0.1,0.1 h 0.1 v 0 l 6.8,2.2 0.1,0.1 0.3,0.1 4.1,1.4 1.4,0.4 2.2,0.8 4.4,1.4 3.4,1.1 4.4,1.4 1.9,0.6 0.3,0.1 0.4,0.1 0.3,0.1 0.2,0.1 0.6,0.1 0.3,0.1 0.4,0.1 0.4,0.1 0.2,0.1 0.4,0.1 0.5,0.1 0.5,0.1 0.3,0.1 0.4,0.1 0.3,0.1 0.3,0.1 0.6,0.1 0.4,0.1 0.5,0.1 0.3,0.1 0.5,0.1 0.3,0.1 0.3,0.1 0.5,0.1 0.4,0.1 0.5,0.1 h 0.2 l 0.5,0.1 0.5,0.1 h 0.1 v 0 l 0.8,0.1 h 0.3 0.5 0.4 0.3 0.4 0.3 0.2 0.7 0.6 0.3 0.6 0.5 0.5 0.8 0.3 0.3 l 0.6,-0.1 H 50 l 0.5,-0.1 0.5,-0.1 0.8,-0.1 H 52 v 0 h 0.3 l 0.4,-0.1 h 0.1 l 0.6,-0.1 0.8,-0.1 v 0 0 0 l 0.7,-0.1 0.8,-0.1 h 0.1 0.1 l 0.9,-0.1 h 0.1 l 0.8,-0.1 v 0 h 0.1 l 0.7,-0.1 0.5,-0.2 0.5,-0.1 0.9,-0.2 v 0 0 l 0.8,-0.2 0.3,-0.1 0.6,-0.1 0.5,-0.1 0.3,-0.1 0.5,-0.1 0.4,-0.1 0.2,-0.1 0.1,-0.1 0.2,-0.1" />
	</g>
	<g
   id="g89491"
   transform="translate(220.8064,583.1765)">
		<path
   id="path89493"
   inkscape:connector-curvature="0"
   class="st0"
   d="m 0,-324.4 1.4,0.5 3.1,1 0.4,0.1 0.1,0.1 h 0.1 l 0.6,0.2 0.2,0.1 0.4,0.1 0.1,0.1 1,0.3 h 0.1 l 1,0.2 0.4,0.1 0.7,0.1 v 0 l 0.7,0.1 h 0.1 l 0.6,0.1 0.4,0.1 v 0 h 0.1 l 0.9,0.1 h 0.2 l 1.1,0.1 h 0.1 0.1 l 1.2,0.2 h 0.1 l 1.1,0.1 h 0.1 0.2 l 0.9,0.1 0.7,0.1 h 0.1 0.1 l 1.1,0.1 h 0.5 0.5 0.8 0.1 0.1 0.5 0.4 1.1 0.1 0.4 0.6 0.4 0.9 0.1 0.1 l 1.1,-0.1 h 0.1 l 0.7,-0.1 1,-0.1 H 29.1 29 l 0.8,-0.1 0.8,-0.1 v 0 0 l 0.8,-0.1 0.4,-0.1 0.5,-0.1 0.4,-0.1 0.2,-0.1 H 33 l 0.6,-0.1 0.8,-0.1 h 0.1 l 0.7,-0.2 h 0.1 l 0.9,-0.2 h 0.1 l 0.6,-0.2 0.8,-0.2 0.1,-0.1 h 0.1 l 1,-0.3 0.4,-0.2 h 0.1 l 0.8,-0.3 h 0.1 l 0.8,-0.3 0.6,-0.2 0.2,-0.1 v 0 0 l 0.8,-0.3 0.1,-0.1 H 43 v 0 l 0.1,-0.1 h 0.1" />
	</g>
	<g
   id="g89495"
   transform="translate(234.261,628.6894)">
		<path
   id="path89497"
   inkscape:connector-curvature="0"
   class="st0"
   d="m 0,-415.5 v 0 l 0.1,-0.2 0.2,-0.3 0.1,-0.1 0.1,-0.4 0.1,-0.2 v -0.3 l 0.1,-2.6 v -0.2 -0.2 l -0.1,-0.4 -0.1,-0.2 -0.2,-0.3 -0.1,-0.1 -0.2,-0.2 -0.3,-0.2 -0.4,-0.2 -0.4,-0.2 -0.2,-0.1 -0.7,-0.2 -0.5,-0.1 -0.8,-0.1 h -0.5 -0.4 -0.3 l -0.8,0.1 -0.4,0.1 -0.6,0.2 -0.6,0.3 -0.5,0.4 -0.3,0.2 -0.1,0.2 -0.1,0.2 -0.1,0.3 -0.1,0.2 -0.1,0.3 -0.1,2.8 v 0.2 l 0.1,0.2 0.1,0.4 0.3,0.5 0.1,0.1 0.1,2.4 -6.1,7.7 -0.1,0.2 -0.1,0.2 v 0.1 l 0.2,2.5 v 0.2 l 0.1,0.1 0.2,0.2 0.1,0.1 0.2,0.1 0.2,0.2 0.2,0.1 0.4,0.1 v 0 l 0.2,10 -0.9,-0.1 -3.7,-1 -0.3,-0.1 h -0.3 -0.2 -0.2 -0.2 l -0.2,0.1 -0.2,0.1 -0.2,0.1 -1.6,-0.3 -1.7,-0.3 -1.6,-0.3 -2,-0.4 -1.5,-0.4 -0.2,-0.1 -0.5,-0.1 h -0.3 -0.4 l -0.5,0.1 -0.4,0.1 -0.4,0.2 -0.2,0.2 -0.1,0.1 -3.3,4.1 -0.3,0.2 -0.4,0.2 -0.3,0.2 -0.2,0.3 -0.1,0.3 v 0.2 0.1 l 0.1,0.2 -5.2,6.6 -0.1,0.1 -0.1,0.2 v 0.2 0.2 l -0.1,1.4 v 0.2 l 0.1,0.2 v 0.1 l 0.2,0.3 0.2,0.2 0.3,0.2 0.4,0.2 0.4,0.7 0.2,0.3 0.7,1 0.5,0.7 0.7,0.8 0.2,0.3 0.7,0.8 1.4,1.6 1.4,1.5 0.2,0.1 0.1,0.2 0.3,0.1 0.2,0.1 7.7,2.3 9.2,2.8 3.2,1 2.6,0.8 2.7,0.8 2.3,0.7 0.8,0.2 0.8,0.2 0.9,0.2 0.7,0.2 1,0.1 0.7,0.1 0.4,0.1 0.8,0.1 1,0.1 1.1,0.1 H 5.1 5 5.9 6.5 l 0.9,-0.1 1.1,-0.1 0.8,-0.1 0.4,-0.1 0.7,-0.1 0.6,-0.1 0.5,-0.1 0.7,-0.2 0.4,-0.1 0.6,-0.2 0.6,-0.1 0.7,-0.2 0.7,-0.2 0.6,-0.2 2.1,-1 H 18 l 1.9,-0.9 0.4,-0.2 1.3,-0.7 1.1,-0.6 0.8,-0.5 0.6,-0.3 1,-0.5 1,-0.6 1.1,-0.7 0.1,-0.1 0.8,-0.5 0.9,-0.7 0.6,-0.5 0.7,-0.5 0.6,-0.6 0.4,-0.4 0.6,-0.7 0.6,-0.7 0.5,-0.8 0.3,-0.5 0.2,-0.3 0.4,-0.6 0.3,-0.5 0.2,-0.5 0.1,-0.3 0.3,-0.7 0.1,-0.4 0.4,-1 0.3,-0.8 0.3,-1 0.1,-0.7 0.1,-0.5 0.2,-1 0.1,-0.8 0.1,-1 0.1,-0.9 v -0.3 l 0.1,-0.1 0.1,-0.1 0.3,-0.5 0.1,-0.4 v -0.2 l -0.5,-1.5 -0.1,-0.2 -0.1,-0.3 -0.3,-0.6 -0.4,-0.8 -0.3,-0.5 -0.4,-0.6 -0.3,-0.4 -0.2,-0.2 -0.4,-0.4 -0.2,-0.2 -0.6,-0.5 -0.5,-0.5 -1.1,-0.7 -0.4,-0.2 -0.5,-0.3 -0.8,-0.5 -1.1,-0.4 -0.7,-0.3 -0.9,-0.4 -0.9,-0.3 -1.1,-0.3 -1.3,-0.3 -0.8,-0.2 -0.9,-0.1 -1.2,-0.2 -1.3,-0.1 h -0.4 l -0.3,0.1 -0.1,0.1 v 0" />
	</g>
	<g
   id="g89499"
   transform="translate(234.2132,582.4531)">
		<path
   id="path89501"
   inkscape:connector-curvature="0"
   class="st0"
   d="m 0,-323 v 0 0 0 h 0.1 l 0.8,0.1 0.3,0.1 0.4,0.1 0.8,0.1 h 0.2 l 1,0.1 v 0 h 0.1 l 0.9,0.1 0.6,0.1 0.8,0.1 h 0.1 0.1 l 0.6,0.1 0.8,0.1 h 0.2 0.2 1 0.3 0.8 0.2 0.2 0.7 0.5 0.6 0.2 0.7 0.4 0.5 0.6 0.6 0.3 0.4 l 0.5,-0.1 0.4,-0.1 0.7,-0.1 0.4,-0.1 h 0.2 l 0.4,-0.1 0.5,-0.1 0.6,-0.1 0.5,-0.1 0.5,-0.1 0.6,-0.1 0.5,-0.1 0.4,-0.1 0.6,-0.1 0.3,-0.1 0.6,-0.1 0.2,-0.1 0.3,-0.1 0.4,-0.1 0.5,-0.1 0.3,-0.1 0.4,-0.1 0.6,-0.1 0.3,-0.1 0.9,-0.2 0.2,-0.1 0.1,-0.1 1,-0.3 0.4,-0.1 0.8,-0.3 h 0.1 l 0.8,-0.3 0.6,-0.2 0.1,-0.1 0.1,-0.1 h 0.1 v 0 l 0.1,-0.1 0.1,-0.1 0.1,-0.1 v -0.1 l 0.1,-0.1" />
	</g>
	<g
   id="g89503"
   transform="translate(195.1538,590.6249)">
		<path
   id="path89505"
   inkscape:connector-curvature="0"
   class="st0"
   d="m 0,-339.4 v 0 l 2.7,1 2.3,0.8 2.5,0.8 2.9,0.9 3.5,1.1 3.2,0.9 2.2,0.5 3.1,0.8 3,0.7 2.9,0.6 h 0.2 l 2.1,0.4 1.1,0.1 1.3,0.1 1.5,0.1 h 0.2 l 1.4,0.1 1.1,0.1 0.6,-0.1 0.4,-0.1 0.5,-0.2 0.3,-0.2 1.4,-1.4 2.9,-2.9 0.8,-0.8 0.2,-0.1 0.4,-0.1 0.3,-0.1 2,-0.3 2.1,-0.4 1.6,-0.3 1.5,-0.3 1.1,-0.2 1.9,-0.4 2.3,-0.6 1.4,-0.4 2.1,-0.7 1.4,-0.5 1.3,-0.5 2.7,-1 1.7,-0.7 1.7,-0.7 0.8,-0.4 1,-0.4 1.1,-0.5 1.3,-0.6 0.6,-0.3 1.1,-0.5 0.5,-0.3 0.3,-0.2" />
	</g>
	<g
   id="g89507"
   transform="translate(229.8142,584.9965)">
		<path
   id="path89509"
   inkscape:connector-curvature="0"
   class="st0"
   d="m 0,-328.1 v 0 h -0.2 l -0.8,1 -0.2,0.2 v 0.1 0 l 0.1,0.1 0.1,0.1 0.2,0.1 0.1,0.1 0.1,0.1 0.1,0.1 0.5,0.1 h 0.1 0.1 l 0.8,0.1 0.1,0.1 0.5,0.1 0.3,0.1 0.4,0.1 0.4,0.2 0.2,0.1 0.7,0.1 v 0 0 0 0 h 0.1 v 0 H 3.8 3.9 4" />
	</g>
	<g
   id="g89511"
   transform="translate(227.2762,583.9279)">
		<path
   id="path89513"
   inkscape:connector-curvature="0"
   class="st0"
   d="m 0,-326 2.9,0.3" />
	</g>
	<g
   id="g89515"
   transform="translate(227.2762,583.9279)">
		<path
   id="path89517"
   inkscape:connector-curvature="0"
   class="st0"
   d="m 0,-326 2.9,0.3" />
	</g>
	<g
   id="g89519"
   transform="translate(235.4471,587.0883)">
		<path
   id="path89521"
   inkscape:connector-curvature="0"
   class="st0"
   d="m 0,-332.3 -0.9,1.2 -0.1,0.1 v 0 0 0.1 0.1 0 0 l 0.1,0.1 v 0 h 0.1 v 0 0 l 1,0.2 0.3,0.1 0.7,0.1 h 0.1 v 0 0 h 0.1 0.1 0.1 v 0 l 0.1,-0.1 0.1,-0.1 h 0.1 v 0 H 2 2.1 l 0.4,0.1 0.4,0.1 0.4,0.1 0.6,0.1 H 4 l 0.8,0.1 0.4,0.1 H 5.6 6 l 0.6,0.1 h 0.3 l 0.7,0.1 h 0.6 0.4 0.6 0.5 0.4 0.7 1.1 0.1 v 0 h 1.1 0.4 0.4 0.6 0.5 l 0.6,-0.1 h 0.1 0.2 l 0.8,-0.1 H 17 l 0.8,-0.1 h 0.1 l 0.4,-0.1 0.4,-0.1 h 0.2 0.2 l 0.6,-0.1 0.4,-0.1 h 0.1 l 0.8,-0.2 h 0.2 0.1 l 0.8,-0.1 0.3,-0.1 0.4,-0.1 0.8,-0.1 0.4,-0.1 0.3,-0.1 0.8,-0.1 0.4,-0.1 0.4,-0.1 0.5,-0.2 0.2,-0.1 0.6,-0.1 0.3,-0.1 0.7,-0.1 0.4,-0.1 0.6,-0.2 0.4,-0.1 0.4,-0.2 0.6,-0.2 0.3,-0.2 0.4,-0.1 0.3,-0.1 0.4,-0.2 0.4,-0.1 0.4,-0.1 h 0.1 v 0 l 0.1,-0.1 0.1,-0.1 0.1,-0.1 0.2,-0.1 v 0 0 l 0.1,-0.1 0.1,-0.1 v 0 0" />
	</g>
	<g
   id="g89523"
   transform="translate(196.805,593.3537)">
		<path
   id="path89525"
   inkscape:connector-curvature="0"
   class="st0"
   d="m 0,-344.8 0.2,0.1 v 0 l 2.7,1 4.4,1.4 2.7,0.8 2.2,0.7 2,0.6 1.9,0.5 1.6,0.4 2.2,0.5 0.8,0.2 0.3,0.1 2.3,0.5 1.8,0.4 1.5,0.3 1.7,0.3 0.9,0.1 0.9,0.1 0.6,0.1 1.2,0.1 1.5,0.1 1.1,0.1 h 1.1 0.4 l 0.3,-0.1 0.4,-0.1 0.1,-0.1 0.9,-0.9 1.3,-1.3 1,-1 0.7,-0.7 1.2,-1.2 0.1,-0.2 0.2,-0.1 0.2,-0.1 0.3,-0.1 0.4,-0.1 1.8,-0.2 2,-0.3 2,-0.4 1.6,-0.3 2.5,-0.4 3,-0.8 2.5,-0.8 2,-0.7 1.8,-0.6 1.6,-0.6 1.5,-0.6 1.9,-0.8 1.5,-0.7 1.5,-0.7 v 0 l 0.5,-0.2 h 0.1 v 0 l 1.4,-0.7 0.1,-0.1 v -0.2" />
	</g>
	<g
   id="g89527"
   transform="translate(222.2759,586.4638)">
		<path
   id="path89529"
   inkscape:connector-curvature="0"
   class="st0"
   d="m 0,-331 v 0 0 0.1 0.1 l 0.1,0.1 h 0.1 0.1 0.1 0.1 l 0.8,0.2" />
	</g>
	<g
   id="g89531"
   transform="translate(226.0633,586.769)">
		<path
   id="path89533"
   inkscape:connector-curvature="0"
   class="st0"
   d="m 0,-331.6 1.6,0.5 0.1,0.1 1.3,-1.4 0.1,-0.1" />
	</g>
	<g
   id="g89535"
   transform="translate(216.7876,587.2927)">
		<path
   id="path89537"
   inkscape:connector-curvature="0"
   class="st0"
   d="m 0,-332.7 1.1,0.2" />
	</g>
	<g
   id="g89539"
   transform="translate(222.2408,588.3986)">
		<path
   id="path89541"
   inkscape:connector-curvature="0"
   class="st0"
   d="m 0,-334.9 v 0 0 0 0 0 0.1 0 0.1 0 l 0.1,0.1 v 0 h 0.1 v 0 h 0.1 0.1 v 0 h 0.1 v 0 l 3.4,1 H 4" />
	</g>
	<g
   id="g89543"
   transform="translate(259.1416,588.2033)">
		<path
   id="path89545"
   inkscape:connector-curvature="0"
   class="st0"
   d="m 0,-334.6 0.1,0.4 0.1,0.3 0.3,0.3 0.3,0.2 0.3,0.2 0.4,0.1 0.4,0.1 h 0.4 l 0.4,-0.1 0.4,-0.1 0.5,-0.2 0.5,-0.2 0.4,-0.3 0.5,-0.4 0.4,-0.5 0.3,-0.5 0.3,-0.5 0.2,-0.6 0.1,-0.4 v -0.4 l -0.1,-0.4 -0.1,-0.2 -0.1,-0.2 -0.2,-0.3" />
	</g>
	<g
   id="g89547"
   transform="translate(193.9961,593.1093)">
		<path
   id="path89549"
   inkscape:connector-curvature="0"
   class="st0"
   d="m 0,-344.3 v 0 l 0.1,0.2 v 0.1 l 0.1,0.2 v 0.1 l 0.1,0.2 v 0.1 l 0.1,0.1 h 0.1 l 0.1,0.2 0.1,0.1 0.1,0.1 0.2,0.1 h 0.1 l 0.2,0.1 h 0.1 l 0.4,0.1 1.7,0.5 0.2,0.1 1.7,0.6 0.2,0.1 1.3,0.4 0.3,0.1 1.5,0.5 1.3,0.4 0.3,0.1 1.5,0.5 0.4,0.1 1.6,0.5 0.5,0.2 0.4,0.1 1.5,0.5 0.9,0.3 1.1,0.4 1,0.4 0.9,0.4 0.5,0.2 0.4,0.1 2.2,0.8 0.1,0.1 0.6,0.2 H 24 l 0.1,0.1 0.4,0.1 v 0 h 0.1 l 0.2,0.1" />
	</g>
	<g
   id="g89551"
   transform="translate(244.2498,588.3173)">
		<path
   id="path89553"
   inkscape:connector-curvature="0"
   class="st0"
   d="M 0,-334.7 H 0.7 1 1.3 1.7 2.2 2.5 3.2 3.3 3.4 4 4.4 5.3 5.4 5.6 6.4 7.1 7.5 8 8.3 l 0.7,-0.1 h 0.1 v 0 0 l 1.1,-0.1 0.4,-0.1 0.7,-0.1 h 0.2 0.3 l 0.6,-0.1 0.5,-0.1 0.6,-0.1 0.4,-0.1 0.5,-0.1 0.3,-0.1 0.1,0.2 0.1,0.1 0.2,-0.1 0.2,-0.1 0.3,-0.1 h 0.1 0.1" />
	</g>
	<g
   id="g89555"
   transform="translate(238.5845,590.2302)">
		<path
   id="path89557"
   inkscape:connector-curvature="0"
   class="st0"
   d="m 0,-338.6 -0.1,0.2 -1,1.2 v 0 0.1 0 l 0.1,0.1 v 0 0 0 0 l 0.6,0.1 0.4,0.1 0.2,0.1 H 0.5 1 l 0.4,0.1 0.5,0.1 0.8,0.1 h 0.2 l 0.9,0.1 v 0 h 0.1 v 0 h 0.3 0.1 0.1 0.1" />
	</g>
	<g
   id="g89559"
   transform="translate(211.6284,590.1867)">
		<path
   id="path89561"
   inkscape:connector-curvature="0"
   class="st0"
   d="m 0,-338.5 10.6,2.8" />
	</g>
	<g
   id="g89563"
   transform="translate(260.1341,589.4846)">
		<path
   id="path89565"
   inkscape:connector-curvature="0"
   class="st0"
   d="m 0,-337 -0.1,0.1 v 0.2 0.3 l 0.1,0.3 0.1,0.2" />
	</g>
	<g
   id="g89567"
   transform="translate(265.8411,590.5378)">
		<path
   id="path89569"
   inkscape:connector-curvature="0"
   class="st0"
   d="m 0,-339.2 v -0.4 l -0.1,-0.4 -0.1,-0.2 -0.1,-0.2 -0.3,-0.3 -0.2,-0.2 -0.2,-0.1 -0.2,-0.1 -0.4,-0.2 -0.4,-0.1 h -0.4 l -0.4,0.1 -0.4,0.1 -0.4,0.2 -0.4,0.2 -0.3,0.2 -0.3,0.2 -0.4,0.4 -0.4,0.4 -0.3,0.4 -0.2,0.4 -0.1,0.4 -0.1,0.4 -0.1,0.4 v 0.5 l 0.1,0.5 0.1,0.3 0.1,0.2 0.1,0.3 0.3,0.3 0.3,0.2 0.3,0.2 0.4,0.1 0.4,0.1 h 0.4 l 0.4,-0.1 0.4,-0.1 0.5,-0.2 0.5,-0.2 -0.1,-0.5 0.5,-0.4 0.4,-0.5 0.3,-0.5 0.3,-0.5 0.2,-0.6 z" />
	</g>
	<g
   id="g89571"
   transform="translate(263.7132,591.6799)">
		<path
   id="path89573"
   inkscape:connector-curvature="0"
   class="st0"
   d="m 0,-341.5 h -0.2 -0.2 -0.2 -0.2 l -0.3,0.1 -0.3,0.1 -0.2,0.1 -0.2,0.1 -0.2,0.2 -0.2,0.1 -0.2,0.2 -0.3,0.3 -0.2,0.2 -0.1,0.1 -0.1,0.3 -0.1,0.2 v 0.1 0 h 0.3 0.2 0.2 l 0.3,-0.1 0.2,-0.1 0.2,-0.1 0.3,-0.1 0.2,-0.1 0.2,-0.2 0.2,-0.1 0.2,-0.2 0.1,-0.1 0.1,-0.2 0.1,-0.1 0.1,-0.2 0.1,-0.2 0.1,-0.2 0.1,-0.1 v 0 l 0.3,0.1 0.2,0.1 0.1,0.1 0.1,0.1 0.3,0.1 0.1,0.2" />
	</g>
	<g
   id="g89575"
   transform="translate(228.5833,585.091)">
		<path
   id="path89577"
   inkscape:connector-curvature="0"
   class="st0"
   d="m 0,-328.3 0.7,-0.7 -0.1,-5.7 0.2,-0.3 0.7,-0.8 0.2,-0.3 0.6,-0.8" />
	</g>
	<g
   id="g89579"
   transform="translate(206.804,590.0197)">
		<path
   id="path89581"
   inkscape:connector-curvature="0"
   class="st0"
   d="m 0,-338.2 0.9,0.3" />
	</g>
	<g
   id="g89583"
   transform="translate(225.9954,590.4853)">
		<path
   id="path89585"
   inkscape:connector-curvature="0"
   class="st0"
   d="m 0,-339.1 1.3,0.4 0.4,0.1 1.1,-1 0.4,-0.4" />
	</g>
	<g
   id="g89587"
   transform="translate(263.8384,591.6486)">
		<path
   id="path89589"
   inkscape:connector-curvature="0"
   class="st0"
   d="m 0,-341.4 0.6,0.8 0.4,0.7 h 0.1 l 0.2,-0.1 0.4,-0.1 0.1,-0.1" />
	</g>
	<g
   id="g89591"
   transform="translate(237.0249,590.8852)">
		<path
   id="path89593"
   inkscape:connector-curvature="0"
   class="st0"
   d="m 0,-339.9 0.3,0.1 h 0.1 0.1 0.1 0.1 0.1 l 0.8,0.2 0.1,0.1" />
	</g>
	<g
   id="g89595"
   transform="translate(210.4529,592.8315)">
		<path
   id="path89597"
   inkscape:connector-curvature="0"
   class="st0"
   d="m 0,-343.8 v 0 l 0.1,0.1 0.1,0.1 v 0.1 l 0.1,0.1 v 0 l 0.1,0.1 h 0.1 l 0.1,0.1 h 0.1 0.1 l 0.1,0.1 0.1,0.1 h 0.1 0.1 l 0.1,0.1 7.4,2 3.4,0.9" />
	</g>
	<g
   id="g89599"
   transform="translate(261.9366,587.592)">
		<path
   id="path89601"
   inkscape:connector-curvature="0"
   class="st0"
   d="m 0,-333.3 h -0.3 -0.3 l -0.2,-0.1 -0.2,-0.1 -0.2,-0.1 -0.2,-0.1 -0.1,-0.1 -0.1,-0.1 -0.1,-0.2 -0.1,-0.3 v -0.3 -0.2 l 0.1,-0.2 v -0.1 l 0.1,-0.2 0.1,-0.3 0.1,-0.2 0.2,-0.2 0.3,-0.3 0.2,-0.2 0.2,-0.1 0.2,-0.1 0.3,-0.2 0.2,-0.1 0.3,-0.1 0.3,-0.1 H 1 1.2 1.4 1.7 l 0.3,0.1 0.2,0.1 0.1,0.1 0.1,0.1 0.1,0.1 0.1,0.1 0.1,0.2 0.1,0.2 v 0.1 0.2" />
	</g>
	<g
   id="g89603"
   transform="translate(222.1719,592.1144)">
		<path
   id="path89605"
   inkscape:connector-curvature="0"
   class="st0"
   d="m 0,-342.4 v 0 0 0 0 0 0 0 0 0 0 0 0 0 0 l 0.1,0.1 h 0.1 v 0 h 0.1 v 0 l 2.9,0.9 0.5,0.2" />
	</g>
	<g
   id="g89607"
   transform="translate(265.8365,590.676)">
		<path
   id="path89609"
   inkscape:connector-curvature="0"
   class="st0"
   d="m 0,-339.4 v 0 l 0.4,-0.1 0.5,-0.1 0.3,-0.1 0.6,-0.2 0.3,-0.1 0.3,-0.1 0.8,-0.2 0.4,-0.1 0.4,-0.2 0.1,-0.1 0.1,-0.1 h 0.1 v 0 l 0.1,-0.1 0.1,-0.1 v 0 0 0 l 0.1,-0.1 0.1,-0.2 v 0 0 l 0.1,-0.1" />
	</g>
	<g
   id="g89611"
   transform="translate(259.1414,588.2038)">
		<path
   id="path89613"
   inkscape:connector-curvature="0"
   class="st0"
   d="m 0,-334.6 -0.1,-0.4 v -0.3 l 0.1,-0.4 0.1,-0.5 0.2,-0.5 0.3,-0.5 0.3,-0.4 0.4,-0.4 0.4,-0.3 0.3,-0.2 0.4,-0.1 0.4,-0.1 0.4,-0.1 0.4,-0.1 0.4,-0.1 h 0.4 0.3 l 0.4,0.1 0.4,0.1 0.3,0.1" />
	</g>
	<g
   id="g89615"
   transform="translate(252.7932,593.5136)">
		<path
   id="path89617"
   inkscape:connector-curvature="0"
   class="st0"
   d="m 0,-345.1 v 0 l -0.1,0.1 -0.1,0.2 -1.1,1.3 v 0 0 h 0.1 l 0.2,0.1 v 0 0 h 0.4 0.1 0.5 v 0 H 0.4 1 1.4 l 0.9,-0.1 h 0.4 l 0.5,-0.1 0.4,-0.1 h 0.2 l 0.6,-0.1 h 0.2 l 0.9,-0.1 h 0.1 l 0.6,-0.1 v 0 h 0.2 0.1 l 0.3,-0.1 h 0.1 v 0 l 0.1,-0.1 0.2,-0.1 h 0.1" />
	</g>
	<g
   id="g89619"
   transform="translate(225.9278,594.2006)">
		<path
   id="path89621"
   inkscape:connector-curvature="0"
   class="st0"
   d="m 0,-346.5 1,0.3 0.8,0.2 0.8,-0.8 0.6,-0.7" />
	</g>
	<g
   id="g89623"
   transform="translate(210.0113,596.5014)">
		<path
   id="path89625"
   inkscape:connector-curvature="0"
   class="st0"
   d="m 0,-351.1 v 0 l 0.1,0.1 v 0 l 0.1,0.2 v 0 l 0.1,0.1 v 0 l 0.1,0.1 v 0 l 0.1,0.1 0.1,0.1 v 0 l 0.1,0.1 0.1,0.1 v 0 H 1 l 11.1,2.9" />
	</g>
	<g
   id="g89627"
   transform="translate(261.958,593.2414)">
		<path
   id="path89629"
   inkscape:connector-curvature="0"
   class="st0"
   d="m 0,-344.6 0.5,-0.1 h 0.1 0.1 0.1 l 0.9,-0.2 0.3,-0.1 0.3,-0.1 0.5,-0.2 0.6,-0.1 h 0.1 0.1 l 0.4,-0.2 0.2,-0.1 0.5,-0.2 h 0.1 l 0.8,-0.2 0.7,-0.2 0.3,-0.1 0.9,-0.3 h 0.1 0.1 l 0.7,-0.2 0.1,-0.1 h 0.1 l 0.1,-0.1 v -0.1 0 l 0.1,-0.1 0.1,-0.1 0.1,-0.1 0.1,-0.1 v 0 l 0.1,-0.1 v 0 0 l 0.1,-0.2 v 0 0 l 0.1,-0.1 v -0.1 -0.1 0 -0.1" />
	</g>
	<g
   id="g89631"
   transform="translate(222.104,595.8288)">
		<path
   id="path89633"
   inkscape:connector-curvature="0"
   class="st0"
   d="m 0,-349.7 v 0 0 0 0 0 0 0 0 0 0 0 0 0 0 l 0.1,0.1 v 0 h 0.1 v 0 l 2.4,0.8 1.1,0.3" />
	</g>
	<g
   id="g89635"
   transform="translate(229.094,593.4396)">
		<path
   id="path89637"
   inkscape:connector-curvature="0"
   class="st0"
   d="m 0,-345 0.2,-0.3 v 0 0 0 l 0.6,-0.8 v 0 0 0 0 0 l 0.2,-0.3 v 0 l 0.5,-0.7 v 0 0 0 0 0 0 l 0.1,-0.1 3.7,0.8 0.3,0.1 1,-1.4 0.1,-0.2" />
	</g>
	<g
   id="g89639"
   transform="translate(246.5645,592.0073)">
		<path
   id="path89641"
   inkscape:connector-curvature="0"
   class="st0"
   d="m 0,-342.1 5.9,-7.4 0.1,-0.1 v 0 0 l 0.1,-0.2 v 0 0 -0.1 0 -0.1" />
	</g>
	<g
   id="g89643"
   transform="translate(221.0315,604.717)">
		<path
   id="path89645"
   inkscape:connector-curvature="0"
   class="st0"
   d="m 0,-367.6 0.9,0.1 v 0.1 l 0.1,7.1 0.2,10.9" />
	</g>
	<g
   id="g89647"
   transform="translate(260.7183,596.0983)">
		<path
   id="path89649"
   inkscape:connector-curvature="0"
   class="st0"
   d="m 0,-350.3 0.6,-0.2" />
	</g>
	<g
   id="g89651"
   transform="translate(235.9456,606.2079)">
		<path
   id="path89653"
   inkscape:connector-curvature="0"
   class="st0"
   d="m 0,-370.6 v 0 l -0.4,-0.4 -0.4,-0.3 -0.2,-0.1 -0.2,-0.2 -0.3,-0.2 -0.5,-0.2 -0.4,-0.2 -0.4,-0.2 -0.4,-0.1 -0.4,-0.1 -0.3,-0.1 -0.4,-0.1 h -0.3 -0.3 l -0.1,14.6 3.9,0.9 1.1,-1.6 v -11.7 l 0.2,0.2 0.2,0.2 0.3,0.4 0.2,0.3 0.1,0.3 0.2,0.4 0.1,0.4 0.1,0.3 0.1,0.4 0.1,0.5 0.1,0.5 0.1,0.5 v 0.3 0.3 l -1.3,13" />
	</g>
	<g
   id="g89655"
   transform="translate(254.6407,618.1599)">
		<path
   id="path89657"
   inkscape:connector-curvature="0"
   class="st0"
   d="m 0,-394.5 -0.4,3.1 -1.1,9.3 -0.1,0.2 -0.1,0.2 -0.1,0.2 -0.1,0.1 -5.3,6.8 -1.4,1.7 h -0.1 l -0.1,-0.1 v -0.1 l 0.4,-3.5 1,-8.8 0.1,-0.2 0.1,-0.3 0.1,-0.2 2.8,-3.5 3.9,-5 0.1,-0.1 0.1,0.1 z" />
	</g>
	<g
   id="g89659"
   transform="translate(226.0882,585.4186)">
		<path
   id="path89661"
   inkscape:connector-curvature="0"
   class="st0"
   d="m 0,-329 -0.4,-20 0.1,-0.6 0.1,-0.4 0.1,-0.5 0.1,-0.4 0.1,-0.4 0.3,-0.5 0.3,-0.5 0.1,-0.1" />
	</g>
	<g
   id="g89663"
   transform="translate(225.8592,597.9169)">
		<path
   id="path89665"
   inkscape:connector-curvature="0"
   class="st0"
   d="m 0,-353.9 0.7,0.2 1.1,0.3 0.5,-0.5 0.9,-1" />
	</g>
	<g
   id="g89667"
   transform="translate(197.0293,593.2734)">
		<path
   id="path89669"
   inkscape:connector-curvature="0"
   class="st0"
   d="m 0,-344.7 v 0 0 l 3.1,-4.1 0.4,-0.5 v 0 H 3.6 3.7 3.8 3.9 4 4.1 l 0.1,0.1 H 4.3 4.4 4.5 4.6 4.7 4.8 5 5.1 5.2 5.3 5.4 5.5 5.6 5.7 6 6.1 6.2 6.3 6.4 l 0.1,-0.1 h 0.1 0.1 l 0.1,-0.1 H 7 l 0.1,-0.1 h 0.1 l 0.1,-0.1 0.1,-0.1 0.1,-0.1 0.1,-0.1 0.1,-0.1 0.1,-0.1 v 0 -0.1 l 0.1,-0.1 v -0.1 -0.1 -0.1 -0.1 -0.1 -0.1 -0.1 -0.1" />
	</g>
	<g
   id="g89671"
   transform="translate(212.9788,598.7648)">
		<path
   id="path89673"
   inkscape:connector-curvature="0"
   class="st0"
   d="m 0,-355.6 8.5,2.2 0.7,-0.8" />
	</g>
	<g
   id="g89675"
   transform="translate(227.8477,585.1721)">
		<path
   id="path89677"
   inkscape:connector-curvature="0"
   class="st0"
   d="m 0,-328.5 -0.4,-19.6 v -0.4 l 0.1,-0.4 0.1,-0.4 0.1,-0.4 0.1,-0.3 0.1,-0.2 0.1,-0.2 0.1,-0.2 0.2,-0.2 0.5,-0.2 0.1,-0.1 v 0 l 0.1,-0.1 0.4,-0.2 0.3,-0.1 0.3,-0.1 0.4,-0.1 H 3 v 0" />
	</g>
	<g
   id="g89679"
   transform="translate(264.4632,597.5881)">
		<path
   id="path89681"
   inkscape:connector-curvature="0"
   class="st0"
   d="m 0,-353.3 1.1,-0.5" />
	</g>
	<g
   id="g89683"
   transform="translate(216.6075,597.8185)">
		<path
   id="path89685"
   inkscape:connector-curvature="0"
   class="st0"
   d="m 0,-353.8 0.4,-0.6 4.8,1.3" />
	</g>
	<g
   id="g89687"
   transform="translate(237.7354,598.0632)">
		<path
   id="path89689"
   inkscape:connector-curvature="0"
   class="st0"
   d="m 0,-354.3 v 0 0 0 0 0 0 l 1.6,0.5 h 0.1 l 0.1,-0.2 v 0 l 0.8,0.2 h 0.1 0.1 v 0 l 3.1,0.9 H 6 v 0 0 l 0.3,0.1 H 6.4 6.5 6.6 6.7 6.8 6.9 7 7.1 7 v 0 h 0.1 0.1 0.1 v 0 h 0.1 v 0 0 0 0 l 0.6,-0.8 v 0 0 l 0.4,0.1 0.2,-0.3 v 0 0 l 0.1,-0.1 0.1,-0.1 0.1,-0.1 0.1,-0.1 0.1,-0.1 0.1,-0.1 3,-3.8 2.7,-3.4 0.1,-0.1 0.1,-0.1 0.1,-0.1 0.1,-0.1 0.1,-0.1 0.1,-0.1 0.1,-0.1 0.1,-0.1 v -0.1 l 0.2,-0.2 v -0.1" />
	</g>
	<g
   id="g89691"
   transform="translate(217.2049,604.1037)">
		<path
   id="path89693"
   inkscape:connector-curvature="0"
   class="st0"
   d="m 0,-366.4 -0.1,6.4 4.4,1.2 0.7,-0.8" />
	</g>
	<g
   id="g89695"
   transform="translate(212.9788,598.7643)">
		<path
   id="path89697"
   inkscape:connector-curvature="0"
   class="st0"
   d="m 0,-355.6 4.1,1" />
	</g>
	<g
   id="g89699"
   transform="translate(222.0362,599.5446)">
		<path
   id="path89701"
   inkscape:connector-curvature="0"
   class="st0"
   d="m 0,-357.2 v 0 0 0 0 0 0 0 0 0 0 0 0 0 0 0 0 0 0 l 2,0.7 1.5,0.5" />
	</g>
	<g
   id="g89703"
   transform="translate(210.6829,590.9203)">
		<path
   id="path89705"
   inkscape:connector-curvature="0"
   class="st0"
   d="m 0,-340 -0.7,-5.6 v -0.1 l 0.1,-1.9 v -0.2 l 0.1,-0.1 4.4,-5.6 0.7,-0.8 0.1,-0.2 0.1,-0.1 v 0" />
	</g>
	<g
   id="g89707"
   transform="translate(235.8784,594.4308)">
		<path
   id="path89709"
   inkscape:connector-curvature="0"
   class="st0"
   d="m 0,-347 0.1,-9.4" />
	</g>
	<g
   id="g89711"
   transform="translate(229.0262,597.1564)">
		<path
   id="path89713"
   inkscape:connector-curvature="0"
   class="st0"
   d="m 0,-352.4 0.2,-0.3 0.1,-0.1 0.1,-0.1 0.1,-0.1 0.4,-0.5 0.1,-0.1 0.1,-0.1 0.1,-0.1 0.1,-0.1 v -0.1 l 0.1,-0.2 v 0 l 0.4,-0.5 v 0 0 0 0 0 l 0.1,-0.2 3.1,0.7 0.8,0.2 0.8,-1.1 0.3,-0.5" />
	</g>
	<g
   id="g89715"
   transform="translate(253.6678,615.6706)">
		<path
   id="path89717"
   inkscape:connector-curvature="0"
   class="st0"
   d="m 0,-389.4 v 0.2 l -1.1,9.1 v 0.2 l -0.1,0.2 h -0.1 l -0.1,0.2 -0.1,0.1 -5,6.4 -0.1,0.1 h -0.1 v -0.1 -0.1 -0.1 l 0.5,-4.4 1.9,-2.5 0.1,-0.1 0.1,-0.2 0.1,-0.2 v -0.2 -0.1 l 0.5,-4.7 3.1,-3.9 0.1,-0.1 H 0 l 0.1,0.1 z" />
	</g>
	<g
   id="g89719"
   transform="translate(267.5992,599.0117)">
		<path
   id="path89721"
   inkscape:connector-curvature="0"
   class="st0"
   d="m 0,-356.2 1.3,-0.6 0.1,-0.1 h 0.1" />
	</g>
	<g
   id="g89723"
   transform="translate(235.9085,599.7094)">
		<path
   id="path89725"
   inkscape:connector-curvature="0"
   class="st0"
   d="m 0,-357.5 1.9,0.4" />
	</g>
	<g
   id="g89727"
   transform="translate(221.9451,604.4797)">
		<path
   id="path89729"
   inkscape:connector-curvature="0"
   class="st0"
   d="m 0,-367 -4.6,-1.2 -0.3,-0.1 h -0.3 -0.2 -0.2 -0.2 l -0.2,0.1 -0.2,0.1 -0.1,0.1 -0.1,0.1 -0.1,0.2 -5,6.4 -0.1,0.1 v 0.2 0.1 l 0.1,0.2 0.1,0.1 0.1,0.1 0.2,0.2 0.2,0.1 0.1,0.1 0.3,0.1 11.1,2.9" />
	</g>
	<g
   id="g89731"
   transform="translate(229.1297,591.5046)">
		<path
   id="path89733"
   inkscape:connector-curvature="0"
   class="st0"
   d="M 0,-341.2 -0.3,-356 v -0.4 l 0.1,-0.4 0.1,-0.4 0.1,-0.2 v 0" />
	</g>
	<g
   id="g89735"
   transform="translate(266.0508,600.3339)">
		<path
   id="path89737"
   inkscape:connector-curvature="0"
   class="st0"
   d="m 0,-358.8 h 0.1 l 0.1,0.1 0.1,0.1 0.1,0.1 0.1,0.1 0.1,0.2 0.1,0.1 0.1,0.2 0.1,0.3 0.1,0.2 v 0.1" />
	</g>
	<g
   id="g89739"
   transform="translate(234.8199,592.8564)">
		<path
   id="path89741"
   inkscape:connector-curvature="0"
   class="st0"
   d="M 0,-343.8 0.1,-358" />
	</g>
	<g
   id="g89743"
   transform="translate(237.3804,594.4743)">
		<path
   id="path89745"
   inkscape:connector-curvature="0"
   class="st0"
   d="m 0,-347.1 0.2,0.1 h 0.1 0.1 0.1 0.1 0.1 l 1.1,0.4 0.1,0.1 0.1,-0.2 0.1,-0.1 1.8,0.5 H 4 v 0 0 l 1.9,0.6 H 6 6.1 6.2 l 0.4,0.1 v 0 H 6.7 6.8 6.9 7 v 0 h 0.1 0.1 v 0 0 h 0.1 0.1 v 0 0 h 0.1 v 0 h 0.1 v 0 0 l 0.4,-0.5 v 0 l 0.1,-0.1 0.1,-0.2 2.5,-3.1 2.2,-2.7 2.6,-3.2 0.1,-0.1 0.1,-0.1 v 0 l 0.4,-0.5 v 0 0 -0.1 0 l -0.1,0.2 0.4,0.2 0.1,0.1 0.2,0.1 0.4,0.1 h 0.1 l 0.3,0.2 0.4,0.2 0.3,0.2 0.5,0.3 0.1,0.1 0.3,0.2 0.1,0.1 0.7,0.4 H 20 l 0.3,0.2 0.4,0.2 v 0 l 0.2,0.1 0.4,0.3 0.2,0.1 0.4,0.3 0.4,0.3 0.2,0.2 0.1,0.1 0.2,0.1 0.1,0.1 0.1,0.1 0.3,0.3 0.1,0.1 v 0 l 0.2,0.3 0.1,0.2 0.1,0.2 0.1,0.2 v 0.1 0.2 0.1 0.1 0.2 0 0 l -0.1,0.1 -0.9,1.1" />
	</g>
	<g
   id="g89747"
   transform="translate(265.346,597.9924)">
		<path
   id="path89749"
   inkscape:connector-curvature="0"
   class="st0"
   d="m 0,-354.1 v 0 -0.4 -0.3 -0.4 l 0.1,-0.3 0.1,-0.2 0.1,-0.2 0.1,-0.1 0.1,-0.2 0.1,-0.1 0.1,-0.1 0.1,-0.1 H 0.9 1 l 0.1,0.1 0.1,0.1 0.1,0.1 0.1,0.2 0.1,0.2 0.1,0.2 0.1,0.2 0.1,0.3 0.1,0.2 v 0.1" />
	</g>
	<g
   id="g89751"
   transform="translate(199.4224,600.7543)">
		<path
   id="path89753"
   inkscape:connector-curvature="0"
   class="st0"
   d="m 0,-359.6 0.3,1.1" />
	</g>
	<g
   id="g89755"
   transform="translate(238.0747,601.6577)">
		<path
   id="path89757"
   inkscape:connector-curvature="0"
   class="st0"
   d="m 0,-361.4 0.1,0.1 0.8,0.2 0.8,0.2 0.3,-0.1 v 0 0 h 0.1 v 0 l 4.2,1.3 h 0.1 0.1 0.1 l 0.2,0.1 h 0.1 v 0 0 H 7 v 0 H 7.1 7 7.1 7.2 7.3 7.4 7.5 7.6 v 0 0 h 0.1 v 0 0 0 l 0.4,-0.5 0.2,-0.3 h 0.1 l 0.2,0.1 0.6,-0.8 0.1,-0.2" />
	</g>
	<g
   id="g89759"
   transform="translate(200.2932,601.3205)">
		<path
   id="path89761"
   inkscape:connector-curvature="0"
   class="st0"
   d="m 0,-360.8 v 0 l 0.1,0.2 0.1,0.1 0.1,0.1 0.1,0.1 H 0.5 0.6 0.7 1 1.2 l 0.2,-0.1 0.2,-0.1 0.2,-0.1 0.1,-0.1 0.1,-0.1 0.1,-0.1 0.1,-0.2 0.1,-0.1 v -0.1 -0.1" />
	</g>
	<g
   id="g89763"
   transform="translate(225.7913,601.6328)">
		<path
   id="path89765"
   inkscape:connector-curvature="0"
   class="st0"
   d="m 0,-361.4 0.3,0.1 1.4,0.5 0.2,-0.3 1.1,-1.2" />
	</g>
	<g
   id="g89767"
   transform="translate(202.8494,601.9565)">
		<path
   id="path89769"
   inkscape:connector-curvature="0"
   class="st0"
   d="m 0,-362 v 0 l -0.1,-0.1 -0.1,-0.1 -0.1,-0.1 -0.1,-0.1 h -0.1 -0.2 -0.2 l -0.2,0.1 -0.1,0.1 -0.1,0.1 -0.2,0.1 H -2 l -0.1,0.1 -0.1,0.1 -0.1,0.2 -0.1,0.1 v 0.2 0.1 0.1 l 0.1,0.1 0.1,0.1 0.1,0.1 0.1,0.1 v 0 h 0.1 0.1 0.1 0.2 l 0.2,-0.1 0.2,-0.1 0.2,-0.1 0.1,-0.1 0.1,-0.1 0.1,-0.2 0.1,-0.1 0.1,-0.2 v -0.1 z" />
	</g>
	<g
   id="g89771"
   transform="translate(200.7137,602.3837)">
		<path
   id="path89773"
   inkscape:connector-curvature="0"
   class="st0"
   d="m 0,-362.8 0.1,-0.1 0.4,-0.1 0.4,-0.1 0.4,-0.1 H 2 l 0.2,0.1 h 0.1 l 0.3,0.2 0.1,0.1 0.1,0.1 0.1,0.1 v 0.1 l 1.4,5" />
	</g>
	<g
   id="g89775"
   transform="translate(214.221,598.4404)">
		<path
   id="path89777"
   inkscape:connector-curvature="0"
   class="st0"
   d="m 0,-355 2.9,-3.8 1.6,0.5 3.1,0.8" />
	</g>
	<g
   id="g89779"
   transform="translate(221.9678,603.2595)">
		<path
   id="path89781"
   inkscape:connector-curvature="0"
   class="st0"
   d="m 0,-364.6 v 0 0 0 0 0 0 0 0 0 0 0 0 0 0 0 0 0 0 l 1.6,0.5 2,0.6" />
	</g>
	<g
   id="g89783"
   transform="translate(228.958,600.8723)">
		<path
   id="path89785"
   inkscape:connector-curvature="0"
   class="st0"
   d="m 0,-359.8 v 0 l 0.2,-0.2 0.1,-0.1 0.1,-0.2 0.1,-0.1 0.3,-0.4 0.1,-0.1 0.1,-0.1 v 0 l 0.1,-0.1 0.1,-0.1 0.1,-0.2 0.1,-0.1 0.3,-0.4 0.1,-0.1 v 0 0 0 0 l 0.3,-0.3 2.6,0.6 1.4,0.3 0.6,-0.8 0.4,-0.8" />
	</g>
	<g
   id="g89787"
   transform="translate(212.9788,598.7648)">
		<path
   id="path89789"
   inkscape:connector-curvature="0"
   class="st0"
   d="m 0,-355.6 4.2,-5.3 4.8,1.3" />
	</g>
	<g
   id="g89791"
   transform="translate(253.375,606.8898)">
		<path
   id="path89793"
   inkscape:connector-curvature="0"
   class="st0"
   d="m 0,-371.9 0.2,-0.3 v 0 0 0 0 -0.1 l 0.5,0.2 0.3,0.2 0.8,0.4 v 0 0 l 0.8,0.4 0.4,0.2 0.1,0.1 0.2,0.1 0.4,0.2 0.5,0.3 0.3,0.1 0.4,0.3 0.2,0.2 0.6,0.4 0.1,0.1 0.4,0.2 0.4,0.2 0.1,0.1 0.2,0.2 0.3,0.2 0.4,0.2 0.2,0.2 0.5,0.4 0.1,0.1 0.4,0.3 H 9 l 0.4,0.4 0.3,0.3 0.1,0.1 0.1,0.2 0.2,0.2 0.2,0.2 0.2,0.2 0.3,0.4 0.2,0.2 0.1,0.1 0.4,0.5 0.1,0.1 0.1,0.2 0.3,0.4 1.6,-0.3" />
	</g>
	<g
   id="g89795"
   transform="translate(252.3841,597.3332)">
		<path
   id="path89797"
   inkscape:connector-curvature="0"
   class="st0"
   d="m 0,-352.8 1.1,-8.2 v -0.2 l 0.1,-0.9 0.2,-1.5 0.1,-1.3 v -0.1 -0.1" />
	</g>
	<g
   id="g89799"
   transform="translate(263.8323,607.3828)">
		<path
   id="path89801"
   inkscape:connector-curvature="0"
   class="st0"
   d="m 0,-372.9 v 0 0 h -0.1 v 0 l -0.4,0.5 -0.3,0.4 -0.4,0.6 v 0.1 0.1 l 0.1,0.2 v 0 l 0.1,0.2 0.2,0.2 0.1,0.1 0.1,0.2 0.2,0.2 0.4,0.1 0.2,0.2 0.2,0.2 0.2,0.2 0.3,0.3 0.1,0.1 0.2,0.2 0.1,0.1 0.1,0.2 0.3,0.3 0.3,0.2 0.1,0.2 0.3,0.4 0.1,0.1 0.3,0.4 v 0.1 0.1 l 0.3,0.5 0.1,0.1 0.1,0.3 0.1,0.1 0.1,0.2 0.1,0.2 0.1,0.3 0.1,0.2 0.1,0.1" />
	</g>
	<g
   id="g89803"
   transform="translate(235.9456,606.2075)">
		<path
   id="path89805"
   inkscape:connector-curvature="0"
   class="st0"
   d="m 0,-370.6 v 2.4 h 0.3 1.4" />
	</g>
	<g
   id="g89807"
   transform="translate(236.2444,605.9003)">
		<path
   id="path89809"
   inkscape:connector-curvature="0"
   class="st0"
   d="m 0,-369.9 0.2,0.1 0.1,0.1 0.6,0.2 0.3,0.1 0.9,0.3 h 0.1 l 0.1,0.1 0.1,-0.1 0.1,-0.2 0.1,0.1 0.7,0.2 0.6,0.1 0.5,0.2 0.4,0.1 0.4,0.2 0.4,0.1 2.9,0.8 v 0 h 0.1 0.1 l 0.1,0.1 H 9 v 0 0 0 0 0 h 0.2 v 0 h 0.1 0.1 v 0 0 h 0.1 0.1 v 0 l 0.1,-0.1 v 0 l 0.1,-0.1 v 0 l 0.3,-0.4 0.4,-0.6 0.2,0.1 h 0.1 l 0.4,-0.4 0.4,-0.6" />
	</g>
	<g
   id="g89811"
   transform="translate(213.2271,604.643)">
		<path
   id="path89813"
   inkscape:connector-curvature="0"
   class="st0"
   d="m 0,-367.4 1.4,0.2" />
	</g>
	<g
   id="g89815"
   transform="translate(227.0205,608.675)">
		<path
   id="path89817"
   inkscape:connector-curvature="0"
   class="st0"
   d="m 0,-375.4 v 0 l 0.4,-0.4 0.3,-0.2 0.5,-0.2 0.5,-0.2 0.4,-0.1 0.6,-0.1 0.6,-0.1 H 4 l 0.6,0.1 0.7,0.1 0.7,0.2 0.5,0.1 0.7,0.3 0.6,0.3 0.4,0.3 0.4,0.3 0.4,0.4 0.4,0.4 0.4,0.4 0.5,0.5 0.5,0.7 0.5,0.8 0.4,0.6 0.2,0.4 0.2,0.6 0.2,0.6 0.1,0.6 0.1,0.8 v 0.8 l -1.1,10.4" />
	</g>
	<g
   id="g89819"
   transform="translate(225.7232,605.3486)">
		<path
   id="path89821"
   inkscape:connector-curvature="0"
   class="st0"
   d="m 0,-368.8 v 0 l 1.4,0.5 0.4,0.1 0.2,-0.2 1.2,-1.3" />
	</g>
	<g
   id="g89823"
   transform="translate(203.8675,601.9848)">
		<path
   id="path89825"
   inkscape:connector-curvature="0"
   class="st0"
   d="m 0,-362.1 2.4,-3 v 0 l 0.1,-0.1 v 0 h 0.1 l 0.1,-0.1 h 0.1 0.1 0.2 0.1 0.1 l 6.1,1.2 0.9,0.1" />
	</g>
	<g
   id="g89827"
   transform="translate(235.9456,606.2075)">
		<path
   id="path89829"
   inkscape:connector-curvature="0"
   class="st0"
   d="m 0,-370.6 0.2,0.2 0.2,0.2 0.3,0.4 0.2,0.3 0.1,0.3 0.2,0.4 0.1,0.4 0.1,0.2" />
	</g>
	<g
   id="g89831"
   transform="translate(235.9456,606.2075)">
		<path
   id="path89833"
   inkscape:connector-curvature="0"
   class="st0"
   d="m 0,-370.6 0.2,0.2 0.2,0.2 0.3,0.4 0.2,0.3 0.1,0.3 0.2,0.4 0.1,0.4 0.1,0.2" />
	</g>
	<g
   id="g89835"
   transform="translate(208.3426,605.6179)">
		<path
   id="path89837"
   inkscape:connector-curvature="0"
   class="st0"
   d="m 0,-369.4 2.6,0.5" />
	</g>
	<g
   id="g89839"
   transform="translate(212.9573,605.9582)">
		<path
   id="path89841"
   inkscape:connector-curvature="0"
   class="st0"
   d="m 0,-370 1,0.1" />
	</g>
	<g
   id="g89843"
   transform="translate(221.899,606.9748)">
		<path
   id="path89845"
   inkscape:connector-curvature="0"
   class="st0"
   d="m 0,-372.1 v 0 0 0 0 0 0 0.1 0 0 0 0 0 h 0.1 v 0 0 h 0.1 v 0 h 0.1 l 1,0.3 2.5,0.8" />
	</g>
	<g
   id="g89847"
   transform="translate(245.8184,596.6364)">
		<path
   id="path89849"
   inkscape:connector-curvature="0"
   class="st0"
   d="m 0,-351.4 0.4,0.1 h 0.1 l 1.4,-1.7 5.3,-6.8 0.1,-0.2 0.1,-0.2 0.1,-0.2 0.1,-0.2 0.4,-3.8 0.8,-7.4 0.1,-1.1 v -0.2 l -0.1,-0.1 -0.3,-0.1" />
	</g>
	<g
   id="g89851"
   transform="translate(247.9702,607.2363)">
		<path
   id="path89853"
   inkscape:connector-curvature="0"
   class="st0"
   d="m 0,-372.6 v 0 l 1.8,0.4" />
	</g>
	<g
   id="g89855"
   transform="translate(228.8904,604.5886)">
		<path
   id="path89857"
   inkscape:connector-curvature="0"
   class="st0"
   d="m 0,-367.3 v 0 l 0.1,-0.1 0.1,-0.1 0.1,-0.2 0.1,-0.1 0.1,-0.2 0.1,-0.1 0.1,-0.2 0.1,-0.1 0.1,-0.2 0.1,-0.1 0.1,-0.1 0.1,-0.1 0.1,-0.1 0.1,-0.2 0.1,-0.1 v -0.1 -0.1 -0.1 0 l 0.5,-0.4 2,0.5 1.9,0.5 0.3,-0.5" />
	</g>
	<g
   id="g89859"
   transform="translate(228.3931,607.236)">
		<path
   id="path89861"
   inkscape:connector-curvature="0"
   class="st0"
   d="m 0,-372.6 0.2,-0.2 0.3,-0.2 0.1,-0.1 v 0" />
	</g>
	<g
   id="g89863"
   transform="translate(247.1336,599.1296)">
		<path
   id="path89865"
   inkscape:connector-curvature="0"
   class="st0"
   d="m 0,-356.3 v 0 l -0.1,-0.2 v -0.1 l 0.5,-4.4 1.9,-2.5 0.1,-0.1 0.1,-0.2 0.1,-0.2 v -0.2 -0.1 l 0.5,-4.7 3.1,-3.9 0.1,-0.1 h 0.1" />
	</g>
	<g
   id="g89867"
   transform="translate(247.5877,603.8303)">
		<path
   id="path89869"
   inkscape:connector-curvature="0"
   class="st0"
   d="m 0,-365.8 0.5,-4.7 0.1,-0.2 0.1,-0.1 0.1,-0.2 0.1,-0.1 0.1,-0.2 1.9,-2.5" />
	</g>
	<g
   id="g89871"
   transform="translate(247.5877,603.8303)">
		<path
   id="path89873"
   inkscape:connector-curvature="0"
   class="st0"
   d="m 0,-365.8 0.5,-4.7 0.1,-0.2 0.1,-0.1 0.1,-0.2 0.1,-0.1 0.1,-0.2 1.9,-2.5" />
	</g>
	<g
   id="g89875"
   transform="translate(229.2334,585.799)">
		<path
   id="path89877"
   inkscape:connector-curvature="0"
   class="st0"
   d="m 0,-329.7 -0.4,-20.5 v -0.4 l 0.1,-0.4 0.1,-0.4 0.1,-0.2 v 0 l 0.1,-0.1 0.4,-0.1 0.3,-0.1 0.3,-0.1 0.4,-0.1 H 1.8 2 2.3 l 0.4,0.1 0.3,0.1 0.4,0.1 0.4,0.1 0.4,0.2 0.4,0.2 0.4,0.2 0.3,0.2 0.4,0.3 0.4,0.3 0.4,0.3 0.1,0.1 v 2.4 H 7 8.4 v 0.1 l 0.1,0.5 0.1,0.5 0.1,0.4 0.1,0.5 v 0.3 0.3 l -1.3,13" />
	</g>
	<g
   id="g89879"
   transform="translate(227.198,608.8513)">
		<path
   id="path89881"
   inkscape:connector-curvature="0"
   class="st0"
   d="m 0,-375.8 -0.1,0.1 0.3,0.2 0.1,0.1 0.5,0.1 0.4,0.1 0.2,0.1 0.4,0.1 h 0.1 l 0.2,0.1" />
	</g>
	<g
   id="g89883"
   transform="translate(221.7627,614.4062)">
		<path
   id="path89885"
   inkscape:connector-curvature="0"
   class="st0"
   d="m 0,-386.9 v 0 0 0.2 l 0.1,0.1 v 0 l 0.1,0.1 v 0 h 0.1 v 0 h 0.1 v 0 h 0.1 v 0 h 0.1 v 0 h 0.1 v 0 0 0 0 H 0.8 0.9 1 1.1 1.2 1 l 0.1,0.1 0.2,0.1 0.1,0.1 0.2,0.1 0.2,0.1 0.3,0.1 0.3,0.1 0.1,0.1 11.9,3.5 0.4,0.1 0.6,0.2 0.5,0.1 0.6,0.2 0.8,0.2 0.9,0.2 0.7,0.2 0.6,0.2 0.6,0.1 0.5,0.2 0.4,0.1 0.2,0.1 0.2,0.1 0.2,0.1 0.1,0.1 0.1,0.1 0.1,0.1 1.1,0.3 v 0 0 0 h 0.1 0.1 v 0 0 h 0.1 v 0 0 h 0.1 v 0 h 0.1 0.5 v 0 0 h 0.1 0.1 v 0 l 0.1,-0.1 v 0 l 0.1,-0.1 v 0 l 0.1,-0.2 0.7,-0.9 0.3,0.1 v 0 l 0.1,-0.1 0.4,-0.5 0.1,-0.1 0.1,-0.1 0.1,-0.1 0.1,-0.1 v -0.1 0 l 0.1,-0.2 0.1,-0.1 0.8,-1 0.3,-0.4 1.9,-2.3 2.3,-2.9 0.1,-0.1 0.1,-0.1 v 0 -0.1 l 0.1,-0.1 0.1,-0.1 0.1,-0.1 0.1,-0.1 0.4,-0.6" />
	</g>
	<g
   id="g89887"
   transform="translate(245.8184,596.6364)">
		<path
   id="path89889"
   inkscape:connector-curvature="0"
   class="st0"
   d="m 0,-351.4 v 0 l -0.1,-0.2 0.4,-4 1,-8.4 v -0.2 l 0.1,-0.3 0.1,-0.3 3.2,-4 3.4,-4.4 0.1,-0.1" />
	</g>
	<g
   id="g89891"
   transform="translate(250.1355,609.6298)">
		<path
   id="path89893"
   inkscape:connector-curvature="0"
   class="st0"
   d="m 0,-377.3 0.8,0.2 2,0.5 0.5,-0.6 0.3,-0.4" />
	</g>
	<g
   id="g89895"
   transform="translate(221.8316,610.6904)">
		<path
   id="path89897"
   inkscape:connector-curvature="0"
   class="st0"
   d="m 0,-379.5 v 0 0 0 0 0 0 0.2 0 0 0 0 0 h 0.1 v 0 0 h 0.1 v 0 h 0.1 l 0.5,0.1 1.4,0.4 0.1,0.1 0.2,0.1 0.3,0.1 0.4,0.1 0.7,0.2 0.9,0.3 0.4,0.1 -0.1,0.2" />
	</g>
	<g
   id="g89899"
   transform="translate(226.0884,585.4189)">
		<path
   id="path89901"
   inkscape:connector-curvature="0"
   class="st0"
   d="m 0,-329 -0.4,-20 0.1,-0.6 0.1,-0.5 0.1,-0.5 0.1,-0.4 0.1,-0.4 0.3,-0.4 0.3,-0.5 0.2,-0.2 0.3,-0.3 0.3,-0.2 0.3,-0.2 0.4,-0.2 0.5,-0.2 0.5,-0.1 0.4,-0.1 0.4,-0.1 h 0.5 l 0.7,0.1 0.6,0.1 0.5,0.1 0.7,0.2 0.6,0.2 0.5,0.2 0.5,0.3 0.6,0.4 0.7,0.5 0.5,0.4 0.5,0.5 0.5,0.6 0.5,0.7 0.4,0.6 0.2,0.5 0.2,0.5 0.2,0.5 0.1,0.5 0.1,0.6 0.1,0.8 v 0.6 0.4 l -0.1,1.7 -0.9,8.8" />
	</g>
	<g
   id="g89903"
   transform="translate(221.7593,614.6252)">
		<path
   id="path89905"
   inkscape:connector-curvature="0"
   class="st0"
   d="m 0,-387.4 23.6,5 h 0.4 0.3 l 0.4,-0.1 h 0.1 l 0.4,-0.1 0.2,-0.2 0.2,-0.1 0.1,-0.1 3.1,-4 3.4,-4.3 0.8,-0.9 0.5,-0.5" />
	</g>
	<g
   id="g89907"
   transform="translate(249.5169,610.7236)">
		<path
   id="path89909"
   inkscape:connector-curvature="0"
   class="st0"
   d="m 0,-379.6 0.8,0.2" />
	</g>
	<g
   id="g89911"
   transform="translate(253.7859,610.5495)">
		<path
   id="path89913"
   inkscape:connector-curvature="0"
   class="st0"
   d="m 0,-379.2 0.3,-0.3 v 0 0 0 0 0" />
	</g>
	<g
   id="g89915"
   transform="translate(220.1558,618.1464)">
		<path
   id="path89917"
   inkscape:connector-curvature="0"
   class="st0"
   d="m 0,-394.4 0.1,0.1 v 0 0 l 0.1,0.2 v 0 l 0.1,0.1 v 0 l 0.1,0.1 v 0 0 l 0.1,0.2 0.1,0.1 v 0 l 0.1,0.1 v 0 l 0.2,0.1 v 0 l 11.9,3.6 12.1,3.6 0.2,0.1 v 0 0 h 0.2 v 0 h 0.2 v 0 h 0.2 0.3 v 0 0 l 0.3,-0.1 v 0 l 0.2,-0.1 v 0 l 0.1,-0.1 v 0 l 0.1,-0.1 v 0 l 0.2,-0.2 v 0 0 l 0.1,-0.1 v 0 l 0.1,-0.1 0.4,-0.5 1.9,-2.4 5.1,-6.5 1.6,-2 0.1,-0.1 v 0 l 0.1,-0.2 v 0 -0.1 0" />
	</g>
	<g
   id="g89919"
   transform="translate(251.3758,613.072)">
		<path
   id="path89921"
   inkscape:connector-curvature="0"
   class="st0"
   d="m 0,-384.3 1.1,0.3 0.9,0.2 0.2,-0.3 0.6,-0.8" />
	</g>
	<g
   id="g89923"
   transform="translate(254.1971,614.2084)">
		<path
   id="path89925"
   inkscape:connector-curvature="0"
   class="st0"
   d="m 0,-386.5 v 0 l 0.3,-0.4 v 0 0 0 0 0" />
	</g>
	<g
   id="g89927"
   transform="translate(254.6082,617.8679)">
		<path
   id="path89929"
   inkscape:connector-curvature="0"
   class="st0"
   d="m 0,-393.9 0.2,-0.3 0.1,-0.2 v -0.1 0 0 -0.1 0" />
	</g>
	<g
   id="g89931"
   transform="translate(226.461,622.5812)">
		<path
   id="path89933"
   inkscape:connector-curvature="0"
   class="st0"
   d="m 0,-403.3 v 0.2 l 0.1,0.1 0.1,0.2 0.1,0.1 0.1,0.2 0.1,0.1 0.2,0.2 0.2,0.1 0.2,0.1 0.2,0.1 0.2,0.1 0.2,0.1 0.3,0.1 0.4,0.1 H 3 3.3 3.5 3.9 4.3" />
	</g>
	<g
   id="g89935"
   transform="translate(226.4019,625.6284)">
		<path
   id="path89937"
   inkscape:connector-curvature="0"
   class="st0"
   d="m 0,-409.4 v 0.2 0.1 0.1 0.1 0.1 l 0.1,0.1 v 0.1 0.1 l 0.1,0.1 0.1,0.1 0.1,0.1 0.1,0.1 0.1,0.1 0.1,0.1 0.1,0.1 0.1,0.1 0.1,0.1 0.1,0.1 0.1,0.1 0.1,0.1 0.1,0.1 0.1,0.1 0.1,0.1 0.1,0.1 0.1,0.1 0.1,0.1 0.1,0.1 0.1,0.1 h 0.1 l 0.2,0.1 H 2.5 2.6 2.8 2.9 3 3.1 3.2 3.3 3.5 3.6 3.7 4 4.1 4.2 4.4 4.5 4.7 4.8 l 0.2,-0.1 h 0.1 l 0.1,-0.1 h 0.1 l 0.1,-0.1 h 0.1 0.1 l 0.1,-0.1 0.1,-0.1 0.1,-0.1 0.1,-0.1 0.1,-0.1 0.1,-0.1 0.1,-0.1 0.1,-0.1 0.1,-0.1 0.1,-0.1 0.1,-0.1 0.1,-0.1 0.1,-0.1 0.1,-0.1 0.1,-0.1 0.1,-0.1 0.1,-0.1 0.1,-0.1 0.1,-0.1 v -0.1 -0.2 -0.1" />
	</g>
	<g
   id="g89939"
   transform="translate(226.386,626.4411)">
		<path
   id="path89941"
   inkscape:connector-curvature="0"
   class="st0"
   d="m 0,-411 0.1,3.8" />
	</g>
	<g
   id="g89943"
   transform="translate(234.261,628.6894)">
		<path
   id="path89945"
   inkscape:connector-curvature="0"
   class="st0"
   d="m 0,-415.5 21.1,2.9 0.4,0.1 0.4,0.2 0.1,0.2 0.1,0.2 v 0.1 l 0.1,0.2 0.2,2.6 v 0.1 l -0.1,0.1 -0.1,0.1 v 0.1 l -0.1,0.1 -1.3,1.6 -1.3,10.3 v 0.3 0.1" />
	</g>
	<g
   id="g89947"
   transform="translate(226.6829,628.5412)">
		<path
   id="path89949"
   inkscape:connector-curvature="0"
   class="st0"
   d="m 0,-415.2 v 0 l 0.1,0.2 v 0 0 l 0.1,0.1 v 0 l 0.1,0.2 0.2,0.1 v 0 0 l 0.1,0.1 0.2,0.1 v 0 l 0.2,0.1 v 0 l 0.2,0.1 v 0 l 0.3,0.1 v 0 l 0.2,0.1 v 0 l 0.2,0.1 0.2,0.1 v 0 l 0.3,0.1 v 0 0 H 3 3.2 v 0 h 0.2 0.3 v 0 H 4 4.2 v 0 h 0.3 v 0 l 0.4,-0.1 v 0 l 0.2,-0.1 v 0 l 0.2,-0.1 v 0 l 0.1,-0.1 0.2,-0.1 v 0 l 0.2,-0.1 v 0 0 l 0.2,-0.2 0.2,-0.1 v 0 l 0.1,-0.2 v 0 l 0.1,-0.1 0.1,-0.1 v 0 l 0.1,-0.2" />
	</g>
	<g
   id="g89951"
   transform="translate(228.409,633.1979)">
		<path
   id="path89953"
   inkscape:connector-curvature="0"
   class="st0"
   d="m 0,-424.5 v 0 0.2 0.1 0.1 l 0.1,0.1 0.1,0.1 0.1,0.1 0.1,0.1 0.1,0.1 0.1,0.1 0.1,0.1 0.1,0.1 0.1,0.1 0.1,0.1 0.1,0.1 0.1,0.1 H 1.3 1.4 1.5 1.7 1.8 1.9 2 2.1 2.2 2.3 2.4 3 l 0.1,-0.1 0.1,-0.1 0.1,-0.1 0.1,-0.1 0.1,-0.1 0.1,-0.1 0.1,-0.1 0.1,-0.1 0.1,-0.1 0.1,-0.1 0.1,-0.1 v -0.1 -0.1 -0.1 -0.1" />
	</g>
	<g
   id="g89955"
   transform="translate(232.3609,633.1415)">
		<path
   id="path89957"
   inkscape:connector-curvature="0"
   class="st0"
   d="m 0,-424.4 v 0 -0.1 -0.1 -0.1 l -0.1,-0.1 -0.1,-0.1 -0.1,-0.1 -0.1,-0.1 -0.1,-0.1 -0.1,-0.1 -0.1,-0.1 -0.2,-0.1 -0.1,-0.1 -0.1,-0.1 H -1.3 -1.5 -1.6 -1.8 -1.9 -2 -2.2 -2.3 -2.5 -2.6 -2.7 -2.9 -3 -3.2 l -0.1,0.1 -0.1,0.1 -0.1,0.1 -0.1,0.1 -0.1,0.1 -0.1,0.1 -0.1,0.1 -0.1,0.1 -0.1,0.1 -0.1,0.1 -0.1,0.1 v 0.1 0.1 0.1 0.1 0.1 0.1 0.1 l 0.1,0.1 0.1,0.1 0.1,0.1 0.1,0.1 0.1,0.1 0.1,0.1 0.1,0.1 0.1,0.1 0.1,0.1 0.1,0.1 0.1,0.1 0.1,0.1 h 0.1 0.1 0.1 0.2 0.1 0.1 0.1 0.1 0.1 0.1 0.1 0.1 l 0.1,-0.1 0.1,-0.1 0.1,-0.1 0.1,-0.1 0.1,-0.1 0.1,-0.1 0.1,-0.1 0.1,-0.1 0.1,-0.1 0.1,-0.1 0.1,-0.1 v -0.1 -0.1 -0.1 z" />
	</g>
	<g
   id="g89959"
   transform="translate(226.3399,628.8522)">
		<path
   id="path89961"
   inkscape:connector-curvature="0"
   class="st0"
   d="m 0,-415.8 0.2,0.2 0.4,0.2 0.5,0.3 0.6,0.2 0.4,0.1 0.4,0.1 0.8,0.2 h 0.8 0.1 l 0.5,-0.1 H 5 l 0.5,-0.1 0.7,-0.1 0.2,-0.1 0.1,-0.1 0.4,-0.2 0.4,-0.3 0.1,-0.1 0.1,-0.2 v 0 l 21.1,2.9 0.4,0.1 0.4,0.2 0.1,0.1 0.1,0.2 v 0.1 l 0.1,0.2 0.2,2.6 v 0.1 0.1 l -0.1,0.2 v 0.1 l -0.1,0.1 -1.3,1.6 -0.2,1.9 -0.2,1.6 -0.1,0.5 -0.8,6.6 h 0.2 l 0.3,-0.1 H 28 l 1.3,0.1 1.2,0.2 0.9,0.1 0.7,0.2 1.3,0.3 1.1,0.3 0.9,0.3 0.9,0.4 0.7,0.3 1,0.5 0.8,0.4 0.5,0.3 0.4,0.2 1,0.7 0.5,0.5 0.6,0.5 0.2,0.2 0.5,0.4 0.2,0.2 0.3,0.4 0.5,0.6 0.3,0.5 0.5,0.8 0.3,0.6 0.1,0.3 0.1,0.1 0.5,1.5 v 0.2 l -0.1,0.4 -0.3,0.4 -0.1,0.1 -0.1,0.1 v 0.3 l -0.1,0.9 -0.1,1 -0.1,0.8 -0.2,1 -0.1,0.5 -0.1,0.7 -0.3,1.1 -0.3,0.8 -0.3,0.8 -0.1,0.3 -0.1,0.4 -0.3,0.7 -0.1,0.3 -0.2,0.5 -0.3,0.5 -0.4,0.6 -0.2,0.3 -0.3,0.5 -0.5,0.8 -0.6,0.7 -0.6,0.7 -0.5,0.4 -0.6,0.6 -0.7,0.5 -0.6,0.5 -0.9,0.7 -0.8,0.5 -0.1,0.1 -1,0.7 -1,0.6 -1,0.5 -0.6,0.3 -0.8,0.5 -1.1,0.6 -1.3,0.7 -0.4,0.2 -1.9,0.9 H 26 l -2.1,1 -0.6,0.2 -0.7,0.2 -0.7,0.2 -0.6,0.1 -0.6,0.2 -0.4,0.1 -0.7,0.2 -0.5,0.1 -0.6,0.2 -0.7,0.1 -0.4,0.1 -0.8,0.1 -1.1,0.1 -0.9,0.1 H 14 13.1 12.4 11.5 l -1.1,-0.1 -1,-0.1 -0.8,-0.1 -0.2,-0.6 -0.7,-0.1 -1,-0.2 -0.7,-0.1 -0.9,-0.2 -0.8,-0.2 -0.8,-0.2 -2.3,-0.7 -2.7,-0.8 -2.6,-0.8 -3.1,-1 -9.2,-2.8 -7.6,-2.3 -0.2,-0.1 -0.3,-0.2 -0.1,-0.1 -0.2,-0.2 -1.4,-1.5 -1.4,-1.6 -0.7,-0.8 -0.2,-0.3 -0.7,-0.8 -0.5,-0.7 -0.7,-1.1 -0.1,-0.3 -0.4,-0.6 v 0 l -0.4,-0.2 -0.3,-0.2 -0.2,-0.2 -0.2,-0.3 v -0.1 l -0.1,-0.2 v -0.2 l 0.1,-1.4 v -0.2 -0.1 l 0.1,-0.2 0.1,-0.1 5.2,-6.6 -0.1,-0.1 v -0.2 -0.1 l 0.1,-0.3 0.2,-0.3 0.3,-0.2 0.4,-0.2 0.3,-0.1 v 0 l 0.5,-0.6 2.8,-3.5 0.1,-0.1 0.2,-0.2 0.4,-0.2 0.4,-0.2 0.5,-0.1 h 0.4 0.3 l 0.5,0.1 0.2,0.1 1.5,0.4 2,0.5 1.6,0.3 1.7,0.3 1.6,0.3 0.2,-0.1 0.2,-0.1 0.2,-0.1 h 0.2 0.2 0.2 0.5 l 0.3,0.1 3.7,1 0.9,0.1 -0.1,-10 v 0 l -0.4,-0.1 -0.2,-0.1 -0.2,-0.1 -0.1,-0.1 -0.1,-0.1 -0.1,-0.2 -0.1,-0.2 v -0.1 l -0.2,-2.5 v -0.2 l 0.1,-0.2 0.1,-0.2 6.1,-7.6 -0.7,-2.9 v 0 l -0.4,-0.5 -0.1,-0.4 -0.1,-0.2 v -0.2 l 0.1,-2.9 0.1,-0.3 0.1,-0.2 0.1,-0.3 0.1,-0.2 0.1,-0.2 0.3,-0.2 0.5,-0.4 0.6,-0.3 0.6,-0.2 0.4,-0.1 0.8,-0.1 h 0.3 0.4 0.5 l 0.8,0.1 0.5,0.2 0.7,0.2 0.2,0.1 0.4,0.2 0.4,0.2 0.3,0.2 0.2,0.3 0.1,0.1 0.2,0.3 0.1,0.2 0.1,0.4 v 0.2 0.2 l -0.1,2.6 v 0.3 l -0.1,0.2 0.1,0.5 H 8.2 l -0.2,0.3 -0.1,0.2 -0.4,5.6" />
	</g>
	<g
   id="g89963"
   transform="translate(232.3609,633.1415)">
		<path
   id="path89965"
   inkscape:connector-curvature="0"
   class="st0"
   d="m 0,-424.4 v 0 -0.1 -0.1 -0.1 l -0.1,-0.1 -0.1,-0.1 -0.1,-0.1 -0.1,-0.1 -0.1,-0.1 -0.1,-0.1 -0.1,-0.1 -0.2,-0.1 -0.1,-0.1 -0.1,-0.1 H -1.3 -1.5 -1.6 -1.8 -1.9 -2 -2.2 -2.3 -2.5 -2.6 -2.7 -2.9 -3 -3.2 l -0.1,0.1 -0.1,0.1 -0.1,0.1 -0.1,0.1 -0.1,0.1 -0.1,0.1 -0.1,0.1 -0.1,0.1 -0.1,0.1 -0.1,0.1 -0.1,0.1 v 0.1 0.1 0.1 0.1 0.1 0.1 0.1 l 0.1,0.1 0.1,0.1 0.1,0.1 0.1,0.1 0.1,0.1 0.1,0.1 0.1,0.1 0.1,0.1 0.1,0.1 0.1,0.1 0.1,0.1 0.1,0.1 h 0.1 0.1 0.1 0.2 0.1 0.1 0.1 0.1 0.1 0.1 0.1 0.1 l 0.1,-0.1 0.1,-0.1 0.1,-0.1 0.1,-0.1 0.1,-0.1 0.1,-0.1 0.1,-0.1 0.1,-0.1 0.1,-0.1 0.1,-0.1 0.1,-0.1 v -0.1 -0.1 -0.1 z" />
	</g>
</g><g
     id="g91543"
     inkscape:label="generativebenchy">
	
	<g
   id="g89399"
   transform="translate(211.4182,556.1767)">
		<path
   id="path89401"
   inkscape:connector-curvature="0"
   class="st1"
   d="m 0,-270.4 v -1.1 c 0,3.4 0.1,2.2 -0.6,6.5 -0.7,4.4 -1.4,8.9 -1.9,13.3" />
	</g>
	<g
   id="g89403"
   transform="translate(215.0418,560.1818)">
		<path
   id="path89405"
   inkscape:connector-curvature="0"
   class="st1"
   d="m 0,-278.5 c -0.5,3.9 -0.8,7.8 -1.4,11.6 -0.4,3.4 -1.1,6.7 -1.1,10.1" />
	</g>
	<g
   id="g89407"
   transform="translate(205.2698,548.5268)">
		<path
   id="path89409"
   inkscape:connector-curvature="0"
   class="st1"
   d="m 0,-255.2 c 3.1,-0.5 9.1,-1.5 11.5,-2.1" />
	</g><g
   id="g89395"
   transform="translate(221.9185,547.0532)">
		<path
   id="path89397"
   inkscape:connector-curvature="0"
   class="st1"
   d="m 0,-252.2 c -0.1,-0.8 0.3,-2.6 0,-3.2 -0.3,-0.6 -1.1,-1.2 -1.8,-0.8 -1.8,1 -3.6,3 -3.6,5.4 0,1 0.5,2 1.5,2.2 1.7,0.2 3.4,-2.4 3.9,-3.9 0.2,-0.5 0.4,-2 0.4,-2.6 0,-0.4 0,-1.3 0,-1.1 0,4.9 -1.1,10.1 -2.6,14.6 -0.2,0.7 -0.4,1.4 -0.8,1.9 -2,3 -2.9,-1.5 -3.1,-3.1" />
	</g>
	<g
   id="g89411"
   transform="translate(204.743,543.7802)">
		<path
   id="path89413"
   inkscape:connector-curvature="0"
   class="st1"
   d="m 0,-245.7 c 3.4,0 6.8,-1 10.3,-1" />
	</g>
	<g
   id="g89415"
   transform="translate(224.1189,546.4501)">
		<path
   id="path89417"
   inkscape:connector-curvature="0"
   class="st1"
   d="m 0,-251 c 0.3,0.2 0.5,0.8 1,0.8 1.4,0 3,-4 2.2,-5.2 -0.3,-0.4 -0.8,-1 -1.1,-0.8 -1.4,0.8 -1.6,5.9 -1.5,6.9 0.1,0.6 0.1,1.5 0.8,1.7 0.8,0.2 1.5,-0.5 2.3,-0.8" />
	</g>
	<g
   id="g89419"
   transform="translate(229.7735,548.6923)">
		<path
   id="path89421"
   inkscape:connector-curvature="0"
   class="st1"
   d="m 0,-255.5 c -0.1,1.1 -0.5,4.4 -0.3,5.4 0.1,0.4 0.2,-2.3 0.3,-2.8 0.1,-0.8 0.2,-2.9 0.8,-3.6 0.2,-0.3 0.9,-0.4 1.1,-0.2 0.4,0.5 0.2,1.1 0.4,1.7 0.4,1.5 0.5,3 0.8,4.6" />
	</g>
	<g
   id="g89423"
   transform="translate(234.732,546.0224)">
		<path
   id="path89425"
   inkscape:connector-curvature="0"
   class="st1"
   d="m 0,-250.1 c 1.4,2.7 3.1,-1.9 3.2,-2.9 0.1,-0.5 0.4,-2.7 0,-2.7 -2.4,0.3 -2.8,4.4 -2.7,6.1 0.1,2 1.4,2.6 3.1,1.5 0.5,-0.4 0.9,-0.9 1.4,-1.3" />
	</g>
	<g
   id="g89427"
   transform="translate(240.2627,546.5944)">
		<path
   id="path89429"
   inkscape:connector-curvature="0"
   class="st1"
   d="m 0,-251.3 v 1.5 c 0,0.4 -0.2,1.7 0,1.3 1.3,-1.7 -0.5,-5.1 1.7,-6.4 0.5,-0.3 1.1,0.7 1.7,0.6" />
	</g>
	<g
   id="g89431"
   transform="translate(247.8914,547.1667)">
		<path
   id="path89433"
   inkscape:connector-curvature="0"
   class="st1"
   d="m 0,-252.4 c -0.1,-0.7 0,-3.2 -0.4,-3.2 -2.1,0 -4.4,5 -2.9,6.5 1.9,1.9 5.2,-7.6 4.9,-7.4 -0.4,0.3 -0.4,1 -0.6,1.5 -0.4,2 -1,5.3 1.4,6.1" />
	</g>
	<g
   id="g89435"
   transform="translate(254.3758,557.6559)">
		<path
   id="path89437"
   inkscape:connector-curvature="0"
   class="st1"
   d="m 0,-273.4 c -1.1,3.5 -1.9,7.1 -1.9,10.7 0,0.5 0,1 0.2,1.5 1.2,2.6 2.9,0.8 4,-0.6" />
	</g>
	<g
   id="g89439"
   transform="translate(251.8965,549.2646)">
		<path
   id="path89441"
   inkscape:connector-curvature="0"
   class="st1"
   d="m 0,-256.6 c 1.9,-0.4 3.5,-1.1 5.3,-1.7" />
	</g>
	<g
   id="g89443"
   transform="translate(257.9995,549.4089)">
		<path
   id="path89445"
   inkscape:connector-curvature="0"
   class="st1"
   d="m 0,-256.9 c -0.3,1.9 -0.5,3.4 -0.2,5.3" />
	</g>
	<g
   id="g89447"
   transform="translate(260.0974,550.3625)">
		<path
   id="path89449"
   inkscape:connector-curvature="0"
   class="st1"
   d="m 0,-258.9 c -0.1,1.2 0.5,6.5 1,6.3 0.9,-0.4 3.1,-5.2 3.8,-6.7" />
	</g>
	<g
   id="g89451"
   transform="translate(264.2932,547.6923)">
		<path
   id="path89453"
   inkscape:connector-curvature="0"
   class="st1"
   d="m 0,-253.5 c 0.4,0.4 0.8,1.2 1.4,1.1 0.7,-0.1 1.7,-2.2 1.9,-2.9 0.1,-0.4 0.4,-1.1 0,-1.1 -2.2,-0.2 -3.8,3.7 -3.2,5.3 0.9,2.6 5.1,0.7 6.4,0" />
	</g>
	<g
   id="g89455"
   transform="translate(272.8753,558.7538)">
		<path
   id="path89457"
   inkscape:connector-curvature="0"
   class="st1"
   d="m 0,-275.6 c -0.4,3.6 -0.4,7.3 -1,10.9 -0.1,0.9 -0.2,1.8 -0.4,2.7 -0.1,0.5 0.2,1.4 -0.2,1.4 -0.4,0 0.8,-6.1 2.9,-6.3 1.6,-0.1 1.8,2.6 1.5,3.6 -0.6,2.2 -1.9,2.5 -3.8,2.1" />
	</g>
	<g
   id="g89459"
   transform="translate(277.0711,547.1667)">
		<path
   id="path89461"
   inkscape:connector-curvature="0"
   class="st1"
   d="m 0,-252.4 c -0.3,0.4 -0.6,0.8 -0.4,1.3 0.1,0.5 0.4,0.5 0.8,0.3 0.8,-0.5 1.5,-1.2 2.1,-1.9 0.6,-0.8 1.2,-4.1 0.8,-4.2 -0.5,-0.2 -1.3,0.1 -1.7,0.6 -1.3,1.4 -2.9,7.9 1,7.3 0.6,-0.1 0.9,-0.9 1.4,-1.4" />
	</g>
	<g
   id="g89463"
   transform="translate(282.2207,547.7387)">
		<path
   id="path89465"
   inkscape:connector-curvature="0"
   class="st1"
   d="m 0,-253.6 c -0.1,0.6 -0.1,1.3 -0.2,1.9 -0.1,1.6 -0.4,2.9 0.2,0.2 0.4,-1.7 0.3,-2.4 1.1,-4 0.2,-0.5 0.4,-1.4 1,-1.4 0.7,0.1 1.1,0.9 1.4,1.5 0.7,1.7 0.1,3.8 0.7,5.6" />
	</g>
	<g
   id="g89467"
   transform="translate(290.396,550.8115)">
		<path
   id="path89469"
   inkscape:connector-curvature="0"
   class="st1"
   d="m 0,-259.7 c -0.9,0 -1.4,0.7 -1.7,1.4 -0.4,1 -1.9,5.3 0.8,5.3 0.6,0 2.7,-1.2 2.9,-1.4" />
	</g>
	<g
   id="g89471"
   transform="translate(293.854,558.0839)">
		<path
   id="path89473"
   inkscape:connector-curvature="0"
   class="st1"
   d="m 0,-274.3 c 0,2.9 0,4.2 -0.2,7.4 -0.1,1.1 -0.2,2.3 -0.4,3.5 -0.1,0.6 -0.1,1.1 -0.2,1.7 0,0.4 -0.3,1.4 0,1.1 0.4,-0.4 0.1,-1 0.4,-1.5 0.6,-1.6 1.1,-3.5 2.3,-4.6 0.3,-0.3 1.1,-0.4 1.4,0 0.4,0.6 0,1.4 0,2.1 -0.1,2.7 -0.1,2 0.1,4" />
	</g>
	<g
   id="g89475"
   transform="translate(299.8413,549.6491)">
		<path
   id="path89477"
   inkscape:connector-curvature="0"
   class="st1"
   d="m 0,-257.4 c 0,0.4 0,0.8 0,1.1 0.1,0.8 -0.3,3.3 0,4 0.1,0.4 0.8,0.5 1.1,0.4 1.1,-0.3 2.4,-4.9 2.9,-5.7 0.2,-0.5 0.1,-1.1 0.6,-1.4 0.4,-0.1 -0.1,0.8 -0.2,1.1 -0.4,2.9 0.1,-0.2 -0.6,2.9 -0.8,3.8 -1.6,8.3 -4.2,11.5 -0.8,1 -4.2,3.3 -5.3,1.1 -0.4,-0.8 -0.2,-1.6 -0.4,-2.5" />
	</g>
</g></g>
<WCB
   layer="0"
   node="0"
   lastpath="0"
   lastpathnc="0"
   lastknownposx="0"
   lastknownposy="0"
   pausedposx="0"
   pausedposy="0"
   randseed="0"
   row="0"
   application="Axidraw" /></svg>
