<?xml version="1.0" standalone="no"?>
<svg class="Sketch" id="sketch" width="823.5382907247958" height="680" viewBox="0 0 823.5382907247958 680" xmlns="http://www.w3.org/2000/svg" fill="none" stroke="black"><g id="border"><path d="M 0 0 L 823.5382907247958 0 L 823.5382907247958 680 L 0 680 L 0 0"></path></g><g id="isocubelang"><g transform="translate(100 100)"><g transform="translate(0 0)"><path d="M 34.64101615137755 40 l -16.996754777554397 10.540888341676043
M 34.64101615137755 40 l -17.627054471123873 -9.449177248418614
M 34.64101615137755 40 l 16.996754777554397 -10.540888341676045
M 34.64101615137755 40 l 0.6302996935694932 19.990065590094652
M 34.64101615137755 40 m -16.996754777554397 10.540888341676043 l -0.6302996935694731 -19.990065590094655
M 34.64101615137755 40 m 16.996754777554397 -10.540888341676045 l 0.6302996935694756 19.990065590094655
"></path></g><g transform="translate(0 80)"><path d="M 34.64101615137755 40 l 14.229343564008028 14.054386565674912
M 34.64101615137755 40 l -5.056784018477193 19.35016628844501
M 34.64101615137755 40 l -14.229343564008037 -14.054386565674903
M 34.64101615137755 40 m 14.229343564008028 14.054386565674912 l -19.286127582485218 5.2957797227701064
M 34.64101615137755 40 m -14.229343564008037 -14.054386565674903 l 19.286127582485214 -5.295779722770116
"></path></g><g transform="translate(0 160)"><path d="M 34.64101615137755 40 l 0.16050213823873224 19.999355966221035
M 34.64101615137755 40 l -0.16050213823873466 -19.999355966221035
M 34.64101615137755 40 m 0.16050213823873224 19.999355966221035 l -17.400201395194664 -9.86067905403405
M 34.64101615137755 40 m -0.16050213823873466 -19.999355966221035 l 17.400201395194667 9.86067905403404
"></path></g><g transform="translate(0 240)"><path d="M 34.64101615137755 40 l 6.917024826842855 18.765787154948754
M 34.64101615137755 40 l -12.793135984775896 15.373212796127952
M 34.64101615137755 40 l -6.917024826842849 -18.765787154948757
M 34.64101615137755 40 l 19.710160811618756 3.392574358820801
M 34.64101615137755 40 m 6.917024826842855 18.765787154948754 l -19.710160811618756 -3.392574358820803
M 34.64101615137755 40 m -12.793135984775896 15.373212796127952 l -6.917024826842866 -18.76578715494875
M 34.64101615137755 40 m -6.917024826842849 -18.765787154948757 l 19.710160811618756 3.392574358820801
"></path></g><g transform="translate(0 320)"><path d="M 34.64101615137755 40 l -19.27475270706015 5.3370317669728715
M 34.64101615137755 40 l -14.259381444533135 -14.02390961249053
M 34.64101615137755 40 l 5.015371262527014 -19.360941379463405
M 34.64101615137755 40 l 14.259381444533144 14.02390961249052
M 34.64101615137755 40 m -14.259381444533135 -14.02390961249053 l 19.274752707060145 -5.337031766972881
M 34.64101615137755 40 m 14.259381444533144 14.02390961249052 l -19.274752707060145 5.337031766972885
"></path></g><g transform="translate(0 400)"><path d="M 34.64101615137755 40 l 18.981956852892353 6.299628087032848
M 34.64101615137755 40 l -18.981956852892356 -6.299628087032846
M 34.64101615137755 40 m 18.981956852892353 6.299628087032848 l -14.94661638421058 13.28904280462848
M 34.64101615137755 40 m -18.981956852892356 -6.299628087032846 l 14.946616384210579 -13.289042804628481
"></path></g><g transform="translate(69.2820323027551 0)"><path d="M 34.64101615137755 40 l -1.195954591959805 -19.96421029277067
M 34.64101615137755 40 l 17.887490576014073 8.94637808797548
M 34.64101615137755 40 l -17.887490576014084 -8.946378087975463
M 34.64101615137755 40 m 16.691535984054262 -11.017832204795186 l 1.1959545919598251 19.96421029277067
M 34.64101615137755 40 m 17.887490576014073 8.94637808797548 l -16.69153598405426 11.017832204795186
M 34.64101615137755 40 m -17.887490576014084 -8.946378087975463 l 16.691535984054237 -11.01783220479522
"></path></g><g transform="translate(69.2820323027551 80)"><path d="M 34.64101615137755 40 l -12.812041241888942 15.35746070208669
M 34.64101615137755 40 l 12.812041241888938 -15.357460702086692
M 34.64101615137755 40 m 6.893930484683807 18.774283540853094 l -19.705971726572745 -3.4168228387663993
M 34.64101615137755 40 m -12.812041241888942 15.35746070208669 l -6.8939304846838 -18.774283540853098
M 34.64101615137755 40 m 12.812041241888938 -15.357460702086692 l 6.8939304846838025 18.774283540853098
"></path></g><g transform="translate(69.2820323027551 160)"><path d="M 34.64101615137755 40 l -17.34332366417825 9.96037771771507
M 34.64101615137755 40 l 17.343323664178254 -9.960377717715065
M 34.64101615137755 40 m -17.34332366417825 9.96037771771507 l 0.045721697259400895 -19.999947738091713
M 34.64101615137755 40 m -17.297601966918847 -10.039570020376638 l 17.343323664178243 -9.96037771771508
M 34.64101615137755 40 m 17.343323664178254 -9.960377717715065 l -0.045721697259398446 19.999947738091713
M 34.64101615137755 40 m 17.297601966918844 10.039570020376644 l -17.343323664178254 9.960377717715067
"></path></g><g transform="translate(69.2820323027551 240)"><path d="M 34.64101615137755 40 l 0.1919584828765142 -19.999078777305016
M 34.64101615137755 40 l 17.415689514870632 -9.833298466009524
M 34.64101615137755 40 l -0.19195848287651174 19.999078777305016
M 34.64101615137755 40 l -17.41568951487063 9.833298466009534
M 34.64101615137755 40 m 17.415689514870632 -9.833298466009524 l -0.19195848287651174 19.999078777305016
M 34.64101615137755 40 m -17.41568951487063 9.833298466009534 l 0.19195848287650044 -19.999078777305016
"></path></g><g transform="translate(69.2820323027551 320)"><path d="M 34.64101615137755 40 l 9.56726832765091 -17.563239358009326
M 34.64101615137755 40 l 19.993845620608226 -0.4961222624367205
M 34.64101615137755 40 l -19.993845620608226 0.4961222624367406
M 34.64101615137755 40 m 19.993845620608226 -0.4961222624367205 l -9.567268327650908 17.56323935800933
M 34.64101615137755 40 m -19.993845620608226 0.4961222624367406 l 9.567268327650874 -17.563239358009348
"></path></g><g transform="translate(69.2820323027551 400)"><path d="M 34.64101615137755 40 l -16.896100913071646 -10.701484660331001
M 34.64101615137755 40 l 0.819707117520303 -19.98319494579099
M 34.64101615137755 40 l 17.71580803059195 -9.281710285459994
M 34.64101615137755 40 l 16.896100913071646 10.701484660331001
M 34.64101615137755 40 m -16.896100913071646 -10.701484660331001 l 17.71580803059195 -9.281710285459996
M 34.64101615137755 40 m 16.896100913071646 10.701484660331001 l -17.71580803059195 9.281710285459997
M 34.64101615137755 40 m -0.8197071175203006 19.98319494579099 l -16.89610091307165 -10.701484660330989
"></path></g><g transform="translate(138.5640646055102 0)"><path d="M 34.64101615137755 40 l 19.708433409358666 3.402594972792862
M 34.64101615137755 40 l 6.907483019451498 18.76930148769499
M 34.64101615137755 40 l -6.907483019451493 -18.769301487694992
M 34.64101615137755 40 m 6.907483019451498 18.76930148769499 l -19.70843340935867 -3.402594972792853
M 34.64101615137755 40 m -6.907483019451493 -18.769301487694992 l 19.708433409358666 3.4025949727928677
M 34.64101615137755 40 m 12.800950389907168 -15.366706514902134 l 6.9074830194515116 18.769301487694985
"></path></g><g transform="translate(138.5640646055102 80)"><path d="M 34.64101615137755 40 l 18.963829016193014 -6.353990009796684
M 34.64101615137755 40 l -18.963829016193014 6.353990009796685
M 34.64101615137755 40 l -14.984631271972972 -13.246162676149261
M 34.64101615137755 40 m 18.963829016193014 -6.353990009796684 l -3.9791977442200417 19.60015268594595
M 34.64101615137755 40 m -18.963829016193014 6.353990009796685 l 3.979197744220039 -19.60015268594595
M 34.64101615137755 40 m -14.984631271972972 -13.246162676149261 l 18.96382901619301 -6.3539900097966955
M 34.64101615137755 40 m 3.979197744220039 -19.60015268594595 l 14.98463127197297 13.246162676149265
"></path></g><g transform="translate(138.5640646055102 160)"><path d="M 34.64101615137755 40 l -13.702810391488256 -14.568218400851958
M 34.64101615137755 40 l 13.702810391488265 14.56821840085195
M 34.64101615137755 40 m -19.467852418761833 4.582872701844243 l 5.76504202727357 -19.151091102696203
M 34.64101615137755 40 m -13.702810391488256 -14.568218400851958 l 19.467852418761833 -4.582872701844245
M 34.64101615137755 40 m 13.702810391488265 14.56821840085195 l -19.467852418761833 4.5828727018442565
"></path></g><g transform="translate(138.5640646055102 240)"><path d="M 34.64101615137755 40 l -19.986554846139846 -0.7332294199253032
M 34.64101615137755 40 l -9.35828211861248 -17.67547894085074
M 34.64101615137755 40 l 19.986554846139846 0.7332294199253031
M 34.64101615137755 40 m -19.986554846139846 -0.7332294199253032 l 10.628272727527358 -16.94224952092544
M 34.64101615137755 40 m -9.35828211861248 -17.67547894085074 l 19.986554846139846 0.7332294199253009
M 34.64101615137755 40 m 19.986554846139846 0.7332294199253031 l -10.628272727527357 16.94224952092544
"></path></g><g transform="translate(138.5640646055102 320)"><path d="M 34.64101615137755 40 l -10.673191163972023 16.913988009257594
M 34.64101615137755 40 l 10.67319116397202 -16.913988009257594
M 34.64101615137755 40 l 19.984538877308474 0.7862606828185668
M 34.64101615137755 40 m -10.673191163972023 16.913988009257594 l -9.311347713336447 -17.700248692076173
M 34.64101615137755 40 m 10.67319116397202 -16.913988009257594 l 9.311347713336449 17.700248692076173
M 34.64101615137755 40 m 19.984538877308474 0.7862606828185668 l -10.673191163972005 16.913988009257608
"></path></g><g transform="translate(138.5640646055102 400)"><path d="M 34.64101615137755 40 l -1.292042572937997 -19.95822201474159
M 34.64101615137755 40 l 17.930348565605055 8.860169316435487
M 34.64101615137755 40 l 1.2920425729379992 19.95822201474159
M 34.64101615137755 40 l -17.930348565605065 -8.860169316435469
M 34.64101615137755 40 m -1.292042572937997 -19.95822201474159 l 17.930348565605065 8.86016931643547
M 34.64101615137755 40 m 17.930348565605055 8.860169316435487 l -16.638305992667064 11.098052698306102
M 34.64101615137755 40 m 1.2920425729379992 19.95822201474159 l -17.930348565605065 -8.860169316435469
M 34.64101615137755 40 m -17.930348565605065 -8.860169316435469 l 16.638305992667046 -11.098052698306134
"></path></g><g transform="translate(207.84609690826528 0)"><path d="M 34.64101615137755 40 l 19.486246158830237 4.504021607127789
M 34.64101615137755 40 l 5.842525948448439 19.127595001507817
M 34.64101615137755 40 l -19.486246158830237 -4.504021607127783
M 34.64101615137755 40 m 19.486246158830237 4.504021607127789 l -13.643720210381794 14.623573394380031
M 34.64101615137755 40 m -19.486246158830237 -4.504021607127783 l 13.643720210381792 -14.623573394380035
"></path></g><g transform="translate(207.84609690826528 80)"><path d="M 34.64101615137755 40 l 17.147431272394133 -10.293959430584517
M 34.64101615137755 40 l 17.488546008609646 9.703131376248791
M 34.64101615137755 40 l -17.147431272394122 10.293959430584534
M 34.64101615137755 40 m -17.488546008609653 -9.703131376248779 l 17.147431272394122 -10.29395943058453
M 34.64101615137755 40 m 17.147431272394133 -10.293959430584517 l 0.3411147362155141 19.997090806833295
M 34.64101615137755 40 m -17.147431272394122 10.293959430584534 l -0.34111473621555205 -19.997090806833295
"></path></g><g transform="translate(207.84609690826528 160)"><path d="M 34.64101615137755 40 l 18.53518898482739 -7.513106501090849
M 34.64101615137755 40 l 15.774135583696381 12.295391274260602
M 34.64101615137755 40 l -18.535188984827382 7.513106501090869
M 34.64101615137755 40 m 18.53518898482739 -7.513106501090849 l -2.7610534011310044 19.80849777535144
M 34.64101615137755 40 m 15.774135583696381 12.295391274260602 l -18.535188984827393 7.513106501090835
M 34.64101615137755 40 m -18.535188984827382 7.513106501090869 l 2.7610534011309666 -19.808497775351448
"></path></g><g transform="translate(207.84609690826528 240)"><path d="M 34.64101615137755 40 l -5.232995795865668 19.30325762664044
M 34.64101615137755 40 l 5.232995795865666 -19.303257626640445
M 34.64101615137755 40 l 19.333609378399164 -5.119721516203395
M 34.64101615137755 40 l 14.10061358253351 14.183536110437045
M 34.64101615137755 40 m -5.232995795865668 19.30325762664044 l -14.100613582533501 -14.183536110437052
M 34.64101615137755 40 m -14.100613582533501 -14.183536110437052 l 19.333609378399164 -5.119721516203395
M 34.64101615137755 40 m 5.232995795865666 -19.303257626640445 l 14.1006135825335 14.183536110437057
"></path></g><g transform="translate(207.84609690826528 320)"><path d="M 34.64101615137755 40 l -4.036849526561208 -19.588359959422398
M 34.64101615137755 40 l 18.982442106614318 6.298165738454007
M 34.64101615137755 40 l -18.98244210661432 -6.298165738453994
M 34.64101615137755 40 m 18.982442106614318 6.298165738454007 l -14.945592580053104 13.290194220968397
M 34.64101615137755 40 m -18.98244210661432 -6.298165738453994 l 14.945592580053095 -13.290194220968406
"></path></g><g transform="translate(207.84609690826528 400)"><path d="M 34.64101615137755 40 l 17.414423820561414 9.8355397918906
M 34.64101615137755 40 l -17.414423820561417 -9.835539791890596
M 34.64101615137755 40 m 17.414423820561414 9.8355397918906 l -17.225039229990674 10.163563524929751
M 34.64101615137755 40 m 0.18938459057073617 19.999103316820346 l -17.414423820561417 -9.835539791890596
M 34.64101615137755 40 m -17.225039229990678 10.163563524929744 l -0.18938459057073861 -19.999103316820346
M 34.64101615137755 40 m -17.414423820561417 -9.835539791890596 l 17.22503922999067 -10.163563524929753
"></path></g><g transform="translate(277.1281292110204 0)"><path d="M 34.64101615137755 40 l 19.158800999171895 5.73936793332943
M 34.64101615137755 40 l 4.608962067656858 19.461692337998265
M 34.64101615137755 40 l -14.549838931515005 13.722324404668855
M 34.64101615137755 40 l -19.1588009991719 -5.739367933329411
M 34.64101615137755 40 m -4.608962067656856 -19.461692337998265 l 19.15880099917189 5.739367933329448
M 34.64101615137755 40 m 19.158800999171895 5.73936793332943 l -14.54983893151503 13.722324404668829
M 34.64101615137755 40 m 4.608962067656858 19.461692337998265 l -19.15880099917189 -5.7393679333294445
M 34.64101615137755 40 m -19.1588009991719 -5.739367933329411 l 14.549838931515003 -13.722324404668855
"></path></g><g transform="translate(277.1281292110204 80)"><path d="M 34.64101615137755 40 l 9.619770184781393 -17.534537963459176
M 34.64101615137755 40 l 10.375470227587602 17.0982343403184
M 34.64101615137755 40 l -9.619770184781375 17.534537963459186
M 34.64101615137755 40 m 9.619770184781393 -17.534537963459176 l 10.375470227587602 17.0982343403184
M 34.64101615137755 40 m -9.619770184781375 17.534537963459186 l -10.375470227587636 -17.09823434031838
M 34.64101615137755 40 m -19.995240412369 0.4363036231407885 l 9.619770184781373 -17.534537963459186
"></path></g><g transform="translate(277.1281292110204 160)"><path d="M 34.64101615137755 40 l 19.815085109149333 -2.713374673200964
M 34.64101615137755 40 l 12.257393951552002 15.803679746073588
M 34.64101615137755 40 l -19.815085109149333 2.7133746732009643
M 34.64101615137755 40 m 19.815085109149333 -2.713374673200964 l -7.557691157597331 18.517054419274555
M 34.64101615137755 40 m -7.557691157597331 18.517054419274555 l -12.257393951552013 -15.803679746073579
M 34.64101615137755 40 m -19.815085109149333 2.7133746732009643 l 7.557691157597328 -18.517054419274555
M 34.64101615137755 40 m 7.557691157597328 -18.517054419274555 l 12.257393951552016 15.803679746073577
"></path></g><g transform="translate(277.1281292110204 240)"><path d="M 34.64101615137755 40 l -15.009394507754532 -13.218096553989467
M 34.64101615137755 40 l 3.9425101515531775 -19.607565216132784
M 34.64101615137755 40 l -3.9425101515531575 19.607565216132787
M 34.64101615137755 40 m 3.9425101515531775 -19.607565216132784 l 15.009394507754518 13.218096553989485
M 34.64101615137755 40 m -3.9425101515531575 19.607565216132787 l -15.009394507754545 -13.218096553989456
"></path></g><g transform="translate(277.1281292110204 320)"><path d="M 34.64101615137755 40 l -0.1529463605304666 19.99941517671956
M 34.64101615137755 40 l 0.15294636053047303 -19.99941517671956
M 34.64101615137755 40 m -0.1529463605304666 19.99941517671956 l -17.243528423605955 -10.132163021995533
M 34.64101615137755 40 m -17.24352842360595 -10.132163021995542 l 17.39647478413642 -9.86725215472402
M 34.64101615137755 40 m 0.15294636053047303 -19.99941517671956 l 17.243528423605948 10.132163021995545
"></path></g><g transform="translate(277.1281292110204 400)"><path d="M 34.64101615137755 40 l -13.077424192494474 -15.132117382889957
M 34.64101615137755 40 l 13.077424192494476 15.132117382889957
M 34.64101615137755 40 m -13.077424192494474 -15.132117382889957 l 19.643510162878034 -3.7593228753204397
M 34.64101615137755 40 m 13.077424192494476 15.132117382889957 l -19.643510162878034 3.7593228753204424
"></path></g><g transform="translate(346.4101615137755 0)"><path d="M 34.64101615137755 40 l -17.410706706113434 9.842118267613778
M 34.64101615137755 40 l 17.410706706113434 -9.842118267613781
M 34.64101615137755 40 l 17.22887779986114 10.157055171527423
M 34.64101615137755 40 m -0.1818289062523014 19.99917343914121 l -17.228877799861138 -10.157055171527434
M 34.64101615137755 40 m -17.410706706113434 9.842118267613778 l 0.18182890625228115 -19.99917343914121
M 34.64101615137755 40 m 17.410706706113434 -9.842118267613781 l -0.18182890625227868 19.99917343914121
M 34.64101615137755 40 m 17.22887779986114 10.157055171527423 l -17.41070670611343 9.842118267613783
"></path></g><g transform="translate(346.4101615137755 80)"><path d="M 34.64101615137755 40 l 18.46741710633874 7.678183731880048
M 34.64101615137755 40 l -18.46741710633874 -7.678183731880046
M 34.64101615137755 40 l 15.883210719901886 -12.154160490432647
M 34.64101615137755 40 m 18.46741710633874 7.678183731880048 l -15.883210719901895 12.154160490432638
M 34.64101615137755 40 m -18.46741710633874 -7.678183731880046 l 15.883210719901898 -12.15416049043263
"></path></g><g transform="translate(346.4101615137755 160)"><path d="M 34.64101615137755 40 l -4.702591532049832 -19.439280667830623
M 34.64101615137755 40 l 19.18620665566196 5.6470766035385775
M 34.64101615137755 40 l 4.7025915320498175 19.439280667830626
M 34.64101615137755 40 l -14.483615123612113 13.792204064292068
M 34.64101615137755 40 l -19.186206655661966 -5.647076603538558
M 34.64101615137755 40 m -4.702591532049832 -19.439280667830623 l 19.186206655661966 5.64707660353856
M 34.64101615137755 40 m 14.48361512361214 -13.79220406429204 l 4.702591532049835 19.439280667830623
M 34.64101615137755 40 m 19.18620665566196 5.6470766035385775 l -14.483615123612134 13.792204064292042
M 34.64101615137755 40 m 4.7025915320498175 19.439280667830626 l -19.186206655661955 -5.647076603538592
M 34.64101615137755 40 m -14.483615123612113 13.792204064292068 l -4.702591532049872 -19.439280667830612
M 34.64101615137755 40 m -19.186206655661966 -5.647076603538558 l 14.483615123612111 -13.79220406429207
"></path></g><g transform="translate(346.4101615137755 240)"><path d="M 34.64101615137755 40 l -17.254323327947407 10.113769153715644
M 34.64101615137755 40 l -0.1316193511554747 -19.999566903970734
M 34.64101615137755 40 l 17.2543233279474 -10.113769153715655
M 34.64101615137755 40 m 0.13161935115549003 19.999566903970734 l -17.385942679102897 -9.885797750255083
M 34.64101615137755 40 m -17.254323327947407 10.113769153715644 l -0.13161935115549248 -19.999566903970734
M 34.64101615137755 40 m -0.1316193511554747 -19.999566903970734 l 17.385942679102886 9.885797750255104
M 34.64101615137755 40 m 17.2543233279474 -10.113769153715655 l 0.13161935115549492 19.999566903970734
"></path></g><g transform="translate(346.4101615137755 320)"><path d="M 34.64101615137755 40 l 19.179553724073628 5.669631288309099
M 34.64101615137755 40 l -19.17955372407363 -5.669631288309093
M 34.64101615137755 40 l -4.6797321362700455 -19.44479640245075
M 34.64101615137755 40 m 19.179553724073628 5.669631288309099 l -14.499821587803583 13.775165114141657
M 34.64101615137755 40 m -19.17955372407363 -5.669631288309093 l 14.49982158780358 -13.77516511414166
M 34.64101615137755 40 m -4.6797321362700455 -19.44479640245075 l 19.179553724073628 5.669631288309098
"></path></g><g transform="translate(346.4101615137755 400)"><path d="M 34.64101615137755 40 l 1.3448228558113986 -19.954735064302092
M 34.64101615137755 40 l 17.953718919379416 -8.812716775428434
M 34.64101615137755 40 l -1.3448228558113873 19.954735064302092
M 34.64101615137755 40 m 1.3448228558113986 -19.954735064302092 l 16.608896063568018 11.142018288873652
M 34.64101615137755 40 m -1.3448228558113873 19.954735064302092 l -16.608896063568025 -11.14201828887364
"></path></g><g transform="translate(415.69219381653056 0)"><path d="M 34.64101615137755 40 l -7.901480369546967 18.372985820754995
M 34.64101615137755 40 l -11.96073227937163 -16.029375637909222
M 34.64101615137755 40 l 7.901480369546972 -18.37298582075499
M 34.64101615137755 40 m -7.901480369546967 18.372985820754995 l -11.96073227937163 -16.029375637909222
M 34.64101615137755 40 m 7.901480369546972 -18.37298582075499 l 11.960732279371634 16.029375637909222
M 34.64101615137755 40 m 11.960732279371634 16.029375637909222 l -19.86221264891859 2.343610182845791
"></path></g><g transform="translate(415.69219381653056 80)"><path d="M 34.64101615137755 40 l 19.227791289346367 5.5038206850637925
M 34.64101615137755 40 l -19.22779128934638 -5.503820685063739
M 34.64101615137755 40 m 19.227791289346367 5.5038206850637925 l -14.380344175812702 13.899845372707201
M 34.64101615137755 40 m 4.847447113533673 19.403666057770995 l -19.227791289346374 -5.503820685063774
M 34.64101615137755 40 m -14.380344175812679 13.899845372707224 l -4.84744711353371 -19.403666057770987
M 34.64101615137755 40 m -19.22779128934638 -5.503820685063739 l 14.380344175812652 -13.899845372707254
"></path></g><g transform="translate(415.69219381653056 160)"><path d="M 34.64101615137755 40 l -15.787524727856871 12.27819461351334
M 34.64101615137755 40 l -18.52699081184025 -7.53330017044238
M 34.64101615137755 40 l 18.52699081184025 7.53330017044238
M 34.64101615137755 40 m -18.52699081184025 -7.53330017044238 l 15.787524727856864 -12.27819461351335
M 34.64101615137755 40 m 18.52699081184025 7.53330017044238 l -15.787524727856862 12.278194613513351
"></path></g><g transform="translate(415.69219381653056 240)"><path d="M 34.64101615137755 40 l -12.086890804407853 15.93446173180384
M 34.64101615137755 40 l 12.086890804407856 -15.934461731803836
M 34.64101615137755 40 m -12.086890804407853 15.93446173180384 l -7.756203253169185 -18.434785355287648
M 34.64101615137755 40 m -7.756203253169185 -18.434785355287648 l 19.843094057577034 2.5003236234838084
M 34.64101615137755 40 m 12.086890804407856 -15.934461731803836 l 7.756203253169171 18.434785355287655
"></path></g><g transform="translate(415.69219381653056 320)"><path d="M 34.64101615137755 40 l -0.609998256557568 19.99069538878017
M 34.64101615137755 40 l 0.6099982565575655 -19.99069538878017
M 34.64101615137755 40 m -0.609998256557568 19.99069538878017 l -17.007450917721282 -10.523621680833156
M 34.64101615137755 40 m 0.6099982565575655 -19.99069538878017 l 17.00745091772129 10.523621680833143
"></path></g><g transform="translate(415.69219381653056 400)"><path d="M 34.64101615137755 40 l 14.728853939271483 -13.529998582247048
M 34.64101615137755 40 l -14.728853939271469 13.529998582247062
M 34.64101615137755 40 m -4.352895515757651 -19.520560971163125 l 19.081749455029122 5.990562388916075
M 34.64101615137755 40 m 14.728853939271483 -13.529998582247048 l 4.352895515757636 19.52056097116313
M 34.64101615137755 40 m -14.728853939271469 13.529998582247062 l -4.352895515757673 -19.52056097116312
"></path></g><g transform="translate(484.9742261192857 0)"><path d="M 34.64101615137755 40 l 5.107942970218807 -19.336724609224603
M 34.64101615137755 40 l 14.192123252462828 14.091970677903928
M 34.64101615137755 40 l -5.107942970218805 19.336724609224603
M 34.64101615137755 40 l -14.192123252462837 -14.091970677903918
M 34.64101615137755 40 m 14.192123252462828 14.091970677903928 l -19.30006622268163 5.244753931320684
M 34.64101615137755 40 m -14.192123252462837 -14.091970677903918 l 19.300066222681625 -5.2447539313207026
"></path></g><g transform="translate(484.9742261192857 80)"><path d="M 34.64101615137755 40 l -10.688450069889043 16.904349591258725
M 34.64101615137755 40 l -19.98382121542767 -0.8042944919760908
M 34.64101615137755 40 l 19.98382121542767 0.8042944919760906
M 34.64101615137755 40 m -19.98382121542767 -0.8042944919760908 l 10.688450069889026 -16.904349591258736
M 34.64101615137755 40 m 19.98382121542767 0.8042944919760906 l -10.688450069889024 16.90434959125874
M 34.64101615137755 40 m 9.295371145538649 17.70864408323482 l -19.98382121542767 -0.8042944919760769
"></path></g><g transform="translate(484.9742261192857 160)"><path d="M 34.64101615137755 40 l -7.675413760551826 18.468568531543852
M 34.64101615137755 40 l 7.675413760551833 -18.46856853154385
M 34.64101615137755 40 l 12.156542639574933 15.881387566966454
M 34.64101615137755 40 m -7.675413760551826 18.468568531543852 l -12.156542639574932 -15.881387566966454
M 34.64101615137755 40 m 7.675413760551833 -18.46856853154385 l 12.156542639574933 15.881387566966454
"></path></g><g transform="translate(484.9742261192857 240)"><path d="M 34.64101615137755 40 l 0.418100981421845 -19.99562931166044
M 34.64101615137755 40 l 17.107672457843776 10.359900727088734
M 34.64101615137755 40 l -0.4181009814218247 19.99562931166044
M 34.64101615137755 40 m 0.418100981421845 -19.99562931166044 l 17.107672457843766 10.359900727088748
M 34.64101615137755 40 m -0.4181009814218247 19.99562931166044 l -17.107672457843787 -10.359900727088716
"></path></g><g transform="translate(484.9742261192857 320)"><path d="M 34.64101615137755 40 l 19.989610743856325 -0.6445636579142989
M 34.64101615137755 40 l -19.989610743856325 0.6445636579143192
M 34.64101615137755 40 m 19.989610743856325 -0.6445636579142989 l -9.436596869818162 17.633792544899077
M 34.64101615137755 40 m -19.989610743856325 0.6445636579143192 l 9.436596869818128 -17.633792544899094
"></path></g><g transform="translate(484.9742261192857 400)"><path d="M 34.64101615137755 40 l 14.790208500089594 -13.462902084018797
M 34.64101615137755 40 l -14.790208500089593 13.4629020840188
M 34.64101615137755 40 m 14.790208500089594 -13.462902084018797 l 4.264110963377948 19.540147330355524
M 34.64101615137755 40 m 4.264110963377948 19.540147330355524 l -19.05431946346754 -6.077245246336719
M 34.64101615137755 40 m -14.790208500089593 13.4629020840188 l -4.264110963377959 -19.540147330355524
"></path></g><g transform="translate(554.2562584220408 0)"><path d="M 34.64101615137755 40 l 19.984423236362588 -0.78919446901971
M 34.64101615137755 40 l 10.675674076878538 16.912420968160166
M 34.64101615137755 40 l -19.984423236362588 0.7891944690197124
M 34.64101615137755 40 m 9.308749159484059 -17.70161543717988 l 10.675674076878522 16.912420968160177
M 34.64101615137755 40 m 19.984423236362588 -0.78919446901971 l -9.30874915948404 17.70161543717989
M 34.64101615137755 40 m 10.675674076878538 16.912420968160166 l -19.984423236362588 0.7891944690197124
M 34.64101615137755 40 m -19.984423236362588 0.7891944690197124 l 9.308749159484039 -17.70161543717989
"></path></g><g transform="translate(554.2562584220408 80)"><path d="M 34.64101615137755 40 l 13.461253214360918 14.791709228444764
M 34.64101615137755 40 l -13.46125321436092 -14.791709228444763
M 34.64101615137755 40 l 6.079369350045426 -19.053641864633867
M 34.64101615137755 40 l 19.54062256440634 -4.26193263618911
M 34.64101615137755 40 m 13.461253214360918 14.791709228444764 l -19.54062256440634 4.261932636189108
M 34.64101615137755 40 m -19.54062256440634 4.261932636189108 l 6.079369350045409 -19.053641864633875
M 34.64101615137755 40 m -13.46125321436092 -14.791709228444763 l 19.54062256440634 -4.26193263618911
M 34.64101615137755 40 m 6.079369350045426 -19.053641864633867 l 13.461253214360914 14.791709228444768
"></path></g><g transform="translate(554.2562584220408 160)"><path d="M 34.64101615137755 40 l 18.951904659307697 6.389468662143307
M 34.64101615137755 40 l -15.00939450775452 13.218096553989483
M 34.64101615137755 40 l -18.9519046593077 -6.389468662143294
M 34.64101615137755 40 m -3.942510151553171 -19.607565216132787 l 18.951904659307697 6.3894686621433054
M 34.64101615137755 40 m 18.951904659307697 6.389468662143307 l -15.00939450775452 13.218096553989483
M 34.64101615137755 40 m -18.9519046593077 -6.389468662143294 l 15.00939450775451 -13.218096553989492
"></path></g><g transform="translate(554.2562584220408 240)"><path d="M 34.64101615137755 40 l 17.265775203802082 10.094206586541272
M 34.64101615137755 40 l -17.26577520380209 -10.094206586541265
M 34.64101615137755 40 m 17.37472693689399 -9.905496649253411 l -0.10895173309189891 19.999703235794684
M 34.64101615137755 40 m 17.265775203802082 10.094206586541272 l -17.37472693689399 9.905496649253415
M 34.64101615137755 40 m -0.10895173309189891 19.999703235794684 l -17.26577520380209 -10.094206586541265
M 34.64101615137755 40 m -17.37472693689399 9.905496649253415 l 0.10895173309188759 -19.999703235794684
M 34.64101615137755 40 m -17.26577520380209 -10.094206586541265 l 17.374726936893985 -9.905496649253417
"></path></g><g transform="translate(554.2562584220408 320)"><path d="M 34.64101615137755 40 l -19.608794637015194 -3.9363908448430713
M 34.64101615137755 40 l -6.395382847649014 -18.94990971566875
M 34.64101615137755 40 l 19.608794637015194 3.9363908448430713
M 34.64101615137755 40 m -19.608794637015194 -3.9363908448430713 l 13.21341178936618 -15.013518870825685
M 34.64101615137755 40 m 19.608794637015194 3.9363908448430713 l -13.21341178936618 15.013518870825687
M 34.64101615137755 40 m -13.213411789366175 15.013518870825692 l -6.395382847649027 -18.949909715668745
"></path></g><g transform="translate(554.2562584220408 400)"><path d="M 34.64101615137755 40 l 17.245442084006065 10.128905534518164
M 34.64101615137755 40 l -17.39461054742856 9.870538176983427
M 34.64101615137755 40 l -17.24544208400607 -10.128905534518163
M 34.64101615137755 40 l 17.394610547428552 -9.870538176983436
M 34.64101615137755 40 m -17.39461054742856 9.870538176983427 l 0.14916846342248638 -19.999443711501584
M 34.64101615137755 40 m 17.394610547428552 -9.870538176983436 l -0.14916846342248394 19.999443711501584
"></path></g></g></g></svg>