<?xml version="1.0" standalone="no"?>
<svg class="Sketch" id="sketch" width="823.5382907247958" height="680" viewBox="0 0 823.5382907247958 680" xmlns="http://www.w3.org/2000/svg" fill="none" stroke="black"><g id="border"><path d="M 0 0 L 823.5382907247958 0 L 823.5382907247958 680 L 0 680 L 0 0"></path></g><g id="isocubelang"><g transform="translate(100 100)"><g transform="translate(0 0)"><path d="M 34.64101615137755 40 l 20.000000000000004 0
M 34.64101615137755 40 l 10.000000000000004 17.320508075688775
M 34.64101615137755 40 l -9.999999999999996 17.320508075688778
M 34.64101615137755 40 l -20.000000000000004 2.449293598294707e-15
M 34.64101615137755 40 m 20.000000000000004 0 l -9.999999999999996 17.320508075688778
M 34.64101615137755 40 m -20.000000000000004 2.449293598294707e-15 l 9.999999999999988 -17.320508075688785
"></path></g><g transform="translate(0 80)"><path d="M 34.64101615137755 40 l 20.000000000000004 0
M 34.64101615137755 40 l -9.999999999999996 17.320508075688778
M 34.64101615137755 40 l -20.000000000000004 2.449293598294707e-15
M 34.64101615137755 40 l 9.999999999999988 -17.320508075688785
M 34.64101615137755 40 m -9.999999999999996 17.320508075688778 l -10.00000000000001 -17.32050807568877
M 34.64101615137755 40 m 9.999999999999988 -17.320508075688785 l 10.000000000000028 17.32050807568876
"></path></g><g transform="translate(0 160)"><path d="M 34.64101615137755 40 l 20.000000000000004 0
M 34.64101615137755 40 l 10.000000000000004 17.320508075688775
M 34.64101615137755 40 l -9.999999999999996 17.320508075688778
M 34.64101615137755 40 l -10.00000000000001 -17.32050807568877
M 34.64101615137755 40 m 10.000000000000004 17.320508075688775 l -20.000000000000004 2.449293598294707e-15
M 34.64101615137755 40 m -9.999999999999996 17.320508075688778 l -10.00000000000001 -17.32050807568877
M 34.64101615137755 40 m -10.00000000000001 -17.32050807568877 l 20.000000000000004 -4.898587196589414e-15
"></path></g><g transform="translate(0 240)"><path d="M 34.64101615137755 40 l 20.000000000000004 0
M 34.64101615137755 40 l -20.000000000000004 2.449293598294707e-15
M 34.64101615137755 40 m 20.000000000000004 0 l -9.999999999999996 17.320508075688778
M 34.64101615137755 40 m -9.999999999999996 17.320508075688778 l -10.00000000000001 -17.32050807568877
M 34.64101615137755 40 m -20.000000000000004 2.449293598294707e-15 l 9.999999999999988 -17.320508075688785
M 34.64101615137755 40 m -10.00000000000001 -17.32050807568877 l 20.000000000000004 -4.898587196589414e-15
"></path></g><g transform="translate(0 320)"><path d="M 34.64101615137755 40 l 20.000000000000004 0
M 34.64101615137755 40 l -9.999999999999996 17.320508075688778
M 34.64101615137755 40 l -10.00000000000001 -17.32050807568877
M 34.64101615137755 40 l 9.999999999999988 -17.320508075688785
M 34.64101615137755 40 m 10.000000000000004 17.320508075688775 l -20.000000000000004 2.449293598294707e-15
M 34.64101615137755 40 m -9.999999999999996 17.320508075688778 l -10.00000000000001 -17.32050807568877
M 34.64101615137755 40 m 9.999999999999988 -17.320508075688785 l 10.000000000000028 17.32050807568876
"></path></g><g transform="translate(0 400)"><path d="M 34.64101615137755 40 l 10.000000000000004 17.320508075688775
M 34.64101615137755 40 l -10.00000000000001 -17.32050807568877
M 34.64101615137755 40 m 10.000000000000004 17.320508075688775 l -20.000000000000004 2.449293598294707e-15
M 34.64101615137755 40 m -10.00000000000001 -17.32050807568877 l 20.000000000000004 -4.898587196589414e-15
"></path></g><g transform="translate(69.2820323027551 0)"><path d="M 34.64101615137755 40 l -9.999999999999996 17.320508075688778
M 34.64101615137755 40 l 9.999999999999988 -17.320508075688785
M 34.64101615137755 40 m 20.000000000000004 0 l -9.999999999999996 17.320508075688778
M 34.64101615137755 40 m 10.000000000000004 17.320508075688775 l -20.000000000000004 2.449293598294707e-15
M 34.64101615137755 40 m -9.999999999999996 17.320508075688778 l -10.00000000000001 -17.32050807568877
M 34.64101615137755 40 m -20.000000000000004 2.449293598294707e-15 l 9.999999999999988 -17.320508075688785
M 34.64101615137755 40 m -10.00000000000001 -17.32050807568877 l 20.000000000000004 -4.898587196589414e-15
M 34.64101615137755 40 m 9.999999999999988 -17.320508075688785 l 10.000000000000028 17.32050807568876
"></path></g><g transform="translate(69.2820323027551 80)"><path d="M 34.64101615137755 40 l 20.000000000000004 0
M 34.64101615137755 40 l 10.000000000000004 17.320508075688775
M 34.64101615137755 40 l -20.000000000000004 2.449293598294707e-15
M 34.64101615137755 40 l -10.00000000000001 -17.32050807568877
M 34.64101615137755 40 m 20.000000000000004 0 l -9.999999999999996 17.320508075688778
M 34.64101615137755 40 m 10.000000000000004 17.320508075688775 l -20.000000000000004 2.449293598294707e-15
M 34.64101615137755 40 m -9.999999999999996 17.320508075688778 l -10.00000000000001 -17.32050807568877
M 34.64101615137755 40 m -10.00000000000001 -17.32050807568877 l 20.000000000000004 -4.898587196589414e-15
"></path></g><g transform="translate(69.2820323027551 160)"><path d="M 34.64101615137755 40 l 20.000000000000004 0
M 34.64101615137755 40 l -20.000000000000004 2.449293598294707e-15
M 34.64101615137755 40 m 20.000000000000004 0 l -9.999999999999996 17.320508075688778
M 34.64101615137755 40 m 10.000000000000004 17.320508075688775 l -20.000000000000004 2.449293598294707e-15
M 34.64101615137755 40 m -20.000000000000004 2.449293598294707e-15 l 9.999999999999988 -17.320508075688785
"></path></g><g transform="translate(69.2820323027551 240)"><path d="M 34.64101615137755 40 l 10.000000000000004 17.320508075688775
M 34.64101615137755 40 l -9.999999999999996 17.320508075688778
M 34.64101615137755 40 l -10.00000000000001 -17.32050807568877
M 34.64101615137755 40 l 9.999999999999988 -17.320508075688785
M 34.64101615137755 40 m -9.999999999999996 17.320508075688778 l -10.00000000000001 -17.32050807568877
M 34.64101615137755 40 m 9.999999999999988 -17.320508075688785 l 10.000000000000028 17.32050807568876
"></path></g><g transform="translate(69.2820323027551 320)"><path d="M 34.64101615137755 40 l 20.000000000000004 0
M 34.64101615137755 40 l 10.000000000000004 17.320508075688775
M 34.64101615137755 40 l -10.00000000000001 -17.32050807568877
M 34.64101615137755 40 m 10.000000000000004 17.320508075688775 l -20.000000000000004 2.449293598294707e-15
M 34.64101615137755 40 m -10.00000000000001 -17.32050807568877 l 20.000000000000004 -4.898587196589414e-15
"></path></g><g transform="translate(69.2820323027551 400)"><path d="M 34.64101615137755 40 l 20.000000000000004 0
M 34.64101615137755 40 l 10.000000000000004 17.320508075688775
M 34.64101615137755 40 l -9.999999999999996 17.320508075688778
M 34.64101615137755 40 l -20.000000000000004 2.449293598294707e-15
M 34.64101615137755 40 m 20.000000000000004 0 l -9.999999999999996 17.320508075688778
M 34.64101615137755 40 m -20.000000000000004 2.449293598294707e-15 l 9.999999999999988 -17.320508075688785
M 34.64101615137755 40 m -10.00000000000001 -17.32050807568877 l 20.000000000000004 -4.898587196589414e-15
"></path></g><g transform="translate(138.5640646055102 0)"><path d="M 34.64101615137755 40 l 10.000000000000004 17.320508075688775
M 34.64101615137755 40 l -9.999999999999996 17.320508075688778
M 34.64101615137755 40 l -10.00000000000001 -17.32050807568877
M 34.64101615137755 40 m 10.000000000000004 17.320508075688775 l -20.000000000000004 2.449293598294707e-15
M 34.64101615137755 40 m -10.00000000000001 -17.32050807568877 l 20.000000000000004 -4.898587196589414e-15
M 34.64101615137755 40 m 9.999999999999988 -17.320508075688785 l 10.000000000000028 17.32050807568876
"></path></g><g transform="translate(138.5640646055102 80)"><path d="M 34.64101615137755 40 l 20.000000000000004 0
M 34.64101615137755 40 l -20.000000000000004 2.449293598294707e-15
M 34.64101615137755 40 m 20.000000000000004 0 l -9.999999999999996 17.320508075688778
M 34.64101615137755 40 m -20.000000000000004 2.449293598294707e-15 l 9.999999999999988 -17.320508075688785
"></path></g><g transform="translate(138.5640646055102 160)"><path d="M 34.64101615137755 40 l 20.000000000000004 0
M 34.64101615137755 40 l -9.999999999999996 17.320508075688778
M 34.64101615137755 40 l 9.999999999999988 -17.320508075688785
M 34.64101615137755 40 m -9.999999999999996 17.320508075688778 l -10.00000000000001 -17.32050807568877
M 34.64101615137755 40 m 9.999999999999988 -17.320508075688785 l 10.000000000000028 17.32050807568876
"></path></g><g transform="translate(138.5640646055102 240)"><path d="M 34.64101615137755 40 l 10.000000000000004 17.320508075688775
M 34.64101615137755 40 l -9.999999999999996 17.320508075688778
M 34.64101615137755 40 l -10.00000000000001 -17.32050807568877
M 34.64101615137755 40 m 10.000000000000004 17.320508075688775 l -20.000000000000004 2.449293598294707e-15
M 34.64101615137755 40 m -10.00000000000001 -17.32050807568877 l 20.000000000000004 -4.898587196589414e-15
"></path></g><g transform="translate(138.5640646055102 320)"><path d="M 34.64101615137755 40 l 20.000000000000004 0
M 34.64101615137755 40 l -20.000000000000004 2.449293598294707e-15
M 34.64101615137755 40 l 9.999999999999988 -17.320508075688785
M 34.64101615137755 40 m 20.000000000000004 0 l -9.999999999999996 17.320508075688778
M 34.64101615137755 40 m 10.000000000000004 17.320508075688775 l -20.000000000000004 2.449293598294707e-15
M 34.64101615137755 40 m -9.999999999999996 17.320508075688778 l -10.00000000000001 -17.32050807568877
M 34.64101615137755 40 m -20.000000000000004 2.449293598294707e-15 l 9.999999999999988 -17.320508075688785
M 34.64101615137755 40 m -10.00000000000001 -17.32050807568877 l 20.000000000000004 -4.898587196589414e-15
"></path></g><g transform="translate(138.5640646055102 400)"><path d="M 34.64101615137755 40 l 10.000000000000004 17.320508075688775
M 34.64101615137755 40 l -9.999999999999996 17.320508075688778
M 34.64101615137755 40 l -20.000000000000004 2.449293598294707e-15
M 34.64101615137755 40 l -10.00000000000001 -17.32050807568877
M 34.64101615137755 40 l 9.999999999999988 -17.320508075688785
M 34.64101615137755 40 m -9.999999999999996 17.320508075688778 l -10.00000000000001 -17.32050807568877
M 34.64101615137755 40 m -20.000000000000004 2.449293598294707e-15 l 9.999999999999988 -17.320508075688785
M 34.64101615137755 40 m -10.00000000000001 -17.32050807568877 l 20.000000000000004 -4.898587196589414e-15
M 34.64101615137755 40 m 9.999999999999988 -17.320508075688785 l 10.000000000000028 17.32050807568876
"></path></g><g transform="translate(207.84609690826528 0)"><path d="M 34.64101615137755 40 l 20.000000000000004 0
M 34.64101615137755 40 l -20.000000000000004 2.449293598294707e-15
M 34.64101615137755 40 m 20.000000000000004 0 l -9.999999999999996 17.320508075688778
M 34.64101615137755 40 m 10.000000000000004 17.320508075688775 l -20.000000000000004 2.449293598294707e-15
M 34.64101615137755 40 m -9.999999999999996 17.320508075688778 l -10.00000000000001 -17.32050807568877
M 34.64101615137755 40 m -20.000000000000004 2.449293598294707e-15 l 9.999999999999988 -17.320508075688785
"></path></g><g transform="translate(207.84609690826528 80)"><path d="M 34.64101615137755 40 l 10.000000000000004 17.320508075688775
M 34.64101615137755 40 l -9.999999999999996 17.320508075688778
M 34.64101615137755 40 l -10.00000000000001 -17.32050807568877
M 34.64101615137755 40 l 9.999999999999988 -17.320508075688785
M 34.64101615137755 40 m -9.999999999999996 17.320508075688778 l -10.00000000000001 -17.32050807568877
M 34.64101615137755 40 m 9.999999999999988 -17.320508075688785 l 10.000000000000028 17.32050807568876
"></path></g><g transform="translate(207.84609690826528 160)"><path d="M 34.64101615137755 40 l 10.000000000000004 17.320508075688775
M 34.64101615137755 40 l -9.999999999999996 17.320508075688778
M 34.64101615137755 40 l -10.00000000000001 -17.32050807568877
M 34.64101615137755 40 m 10.000000000000004 17.320508075688775 l -20.000000000000004 2.449293598294707e-15
M 34.64101615137755 40 m -10.00000000000001 -17.32050807568877 l 20.000000000000004 -4.898587196589414e-15
M 34.64101615137755 40 m 9.999999999999988 -17.320508075688785 l 10.000000000000028 17.32050807568876
"></path></g><g transform="translate(207.84609690826528 240)"><path d="M 34.64101615137755 40 l 20.000000000000004 0
M 34.64101615137755 40 l -9.999999999999996 17.320508075688778
M 34.64101615137755 40 l -20.000000000000004 2.449293598294707e-15
M 34.64101615137755 40 m 20.000000000000004 0 l -9.999999999999996 17.320508075688778
M 34.64101615137755 40 m -20.000000000000004 2.449293598294707e-15 l 9.999999999999988 -17.320508075688785
M 34.64101615137755 40 m 9.999999999999988 -17.320508075688785 l 10.000000000000028 17.32050807568876
"></path></g><g transform="translate(207.84609690826528 320)"><path d="M 34.64101615137755 40 l 20.000000000000004 0
M 34.64101615137755 40 l -9.999999999999996 17.320508075688778
M 34.64101615137755 40 l -20.000000000000004 2.449293598294707e-15
M 34.64101615137755 40 l -10.00000000000001 -17.32050807568877
M 34.64101615137755 40 l 9.999999999999988 -17.320508075688785
M 34.64101615137755 40 m 10.000000000000004 17.320508075688775 l -20.000000000000004 2.449293598294707e-15
M 34.64101615137755 40 m -9.999999999999996 17.320508075688778 l -10.00000000000001 -17.32050807568877
M 34.64101615137755 40 m 9.999999999999988 -17.320508075688785 l 10.000000000000028 17.32050807568876
"></path></g><g transform="translate(207.84609690826528 400)"><path d="M 34.64101615137755 40 l 20.000000000000004 0
M 34.64101615137755 40 l 10.000000000000004 17.320508075688775
M 34.64101615137755 40 l -10.00000000000001 -17.32050807568877
M 34.64101615137755 40 l 9.999999999999988 -17.320508075688785
M 34.64101615137755 40 m 20.000000000000004 0 l -9.999999999999996 17.320508075688778
M 34.64101615137755 40 m 10.000000000000004 17.320508075688775 l -20.000000000000004 2.449293598294707e-15
M 34.64101615137755 40 m -9.999999999999996 17.320508075688778 l -10.00000000000001 -17.32050807568877
M 34.64101615137755 40 m -20.000000000000004 2.449293598294707e-15 l 9.999999999999988 -17.320508075688785
M 34.64101615137755 40 m -10.00000000000001 -17.32050807568877 l 20.000000000000004 -4.898587196589414e-15
"></path></g><g transform="translate(277.1281292110204 0)"><path d="M 34.64101615137755 40 l -9.999999999999996 17.320508075688778
M 34.64101615137755 40 l 9.999999999999988 -17.320508075688785
M 34.64101615137755 40 m 20.000000000000004 0 l -9.999999999999996 17.320508075688778
M 34.64101615137755 40 m -9.999999999999996 17.320508075688778 l -10.00000000000001 -17.32050807568877
M 34.64101615137755 40 m 9.999999999999988 -17.320508075688785 l 10.000000000000028 17.32050807568876
"></path></g><g transform="translate(277.1281292110204 80)"><path d="M 34.64101615137755 40 l 10.000000000000004 17.320508075688775
M 34.64101615137755 40 l -10.00000000000001 -17.32050807568877
M 34.64101615137755 40 m 20.000000000000004 0 l -9.999999999999996 17.320508075688778
M 34.64101615137755 40 m 10.000000000000004 17.320508075688775 l -20.000000000000004 2.449293598294707e-15
M 34.64101615137755 40 m -9.999999999999996 17.320508075688778 l -10.00000000000001 -17.32050807568877
M 34.64101615137755 40 m -10.00000000000001 -17.32050807568877 l 20.000000000000004 -4.898587196589414e-15
"></path></g><g transform="translate(277.1281292110204 160)"><path d="M 34.64101615137755 40 l 20.000000000000004 0
M 34.64101615137755 40 l -20.000000000000004 2.449293598294707e-15
M 34.64101615137755 40 m 20.000000000000004 0 l -9.999999999999996 17.320508075688778
M 34.64101615137755 40 m -20.000000000000004 2.449293598294707e-15 l 9.999999999999988 -17.320508075688785
"></path></g><g transform="translate(277.1281292110204 240)"><path d="M 34.64101615137755 40 l 20.000000000000004 0
M 34.64101615137755 40 l -9.999999999999996 17.320508075688778
M 34.64101615137755 40 l 9.999999999999988 -17.320508075688785
M 34.64101615137755 40 m -9.999999999999996 17.320508075688778 l -10.00000000000001 -17.32050807568877
M 34.64101615137755 40 m 9.999999999999988 -17.320508075688785 l 10.000000000000028 17.32050807568876
"></path></g><g transform="translate(277.1281292110204 320)"><path d="M 34.64101615137755 40 l 10.000000000000004 17.320508075688775
M 34.64101615137755 40 l -20.000000000000004 2.449293598294707e-15
M 34.64101615137755 40 l -10.00000000000001 -17.32050807568877
M 34.64101615137755 40 m 20.000000000000004 0 l -9.999999999999996 17.320508075688778
M 34.64101615137755 40 m 10.000000000000004 17.320508075688775 l -20.000000000000004 2.449293598294707e-15
M 34.64101615137755 40 m -10.00000000000001 -17.32050807568877 l 20.000000000000004 -4.898587196589414e-15
M 34.64101615137755 40 m 9.999999999999988 -17.320508075688785 l 10.000000000000028 17.32050807568876
"></path></g><g transform="translate(277.1281292110204 400)"><path d="M 34.64101615137755 40 l 20.000000000000004 0
M 34.64101615137755 40 l 10.000000000000004 17.320508075688775
M 34.64101615137755 40 l -20.000000000000004 2.449293598294707e-15
M 34.64101615137755 40 m 20.000000000000004 0 l -9.999999999999996 17.320508075688778
M 34.64101615137755 40 m -9.999999999999996 17.320508075688778 l -10.00000000000001 -17.32050807568877
M 34.64101615137755 40 m -20.000000000000004 2.449293598294707e-15 l 9.999999999999988 -17.320508075688785
M 34.64101615137755 40 m 9.999999999999988 -17.320508075688785 l 10.000000000000028 17.32050807568876
"></path></g><g transform="translate(346.4101615137755 0)"><path d="M 34.64101615137755 40 l 10.000000000000004 17.320508075688775
M 34.64101615137755 40 l -10.00000000000001 -17.32050807568877
M 34.64101615137755 40 m 10.000000000000004 17.320508075688775 l -20.000000000000004 2.449293598294707e-15
M 34.64101615137755 40 m -10.00000000000001 -17.32050807568877 l 20.000000000000004 -4.898587196589414e-15
"></path></g><g transform="translate(346.4101615137755 80)"><path d="M 34.64101615137755 40 l 20.000000000000004 0
M 34.64101615137755 40 l -20.000000000000004 2.449293598294707e-15
M 34.64101615137755 40 m 20.000000000000004 0 l -9.999999999999996 17.320508075688778
M 34.64101615137755 40 m -20.000000000000004 2.449293598294707e-15 l 9.999999999999988 -17.320508075688785
M 34.64101615137755 40 m 9.999999999999988 -17.320508075688785 l 10.000000000000028 17.32050807568876
"></path></g><g transform="translate(346.4101615137755 160)"><path d="M 34.64101615137755 40 l 20.000000000000004 0
M 34.64101615137755 40 l -9.999999999999996 17.320508075688778
M 34.64101615137755 40 l 9.999999999999988 -17.320508075688785
M 34.64101615137755 40 m -9.999999999999996 17.320508075688778 l -10.00000000000001 -17.32050807568877
M 34.64101615137755 40 m -20.000000000000004 2.449293598294707e-15 l 9.999999999999988 -17.320508075688785
M 34.64101615137755 40 m -10.00000000000001 -17.32050807568877 l 20.000000000000004 -4.898587196589414e-15
M 34.64101615137755 40 m 9.999999999999988 -17.320508075688785 l 10.000000000000028 17.32050807568876
"></path></g><g transform="translate(346.4101615137755 240)"><path d="M 34.64101615137755 40 l 10.000000000000004 17.320508075688775
M 34.64101615137755 40 l -10.00000000000001 -17.32050807568877
M 34.64101615137755 40 l 9.999999999999988 -17.320508075688785
M 34.64101615137755 40 m 10.000000000000004 17.320508075688775 l -20.000000000000004 2.449293598294707e-15
M 34.64101615137755 40 m -9.999999999999996 17.320508075688778 l -10.00000000000001 -17.32050807568877
M 34.64101615137755 40 m -20.000000000000004 2.449293598294707e-15 l 9.999999999999988 -17.320508075688785
M 34.64101615137755 40 m -10.00000000000001 -17.32050807568877 l 20.000000000000004 -4.898587196589414e-15
"></path></g><g transform="translate(346.4101615137755 320)"><path d="M 34.64101615137755 40 l 20.000000000000004 0
M 34.64101615137755 40 l -9.999999999999996 17.320508075688778
M 34.64101615137755 40 l -20.000000000000004 2.449293598294707e-15
M 34.64101615137755 40 l -10.00000000000001 -17.32050807568877
M 34.64101615137755 40 l 9.999999999999988 -17.320508075688785
M 34.64101615137755 40 m 20.000000000000004 0 l -9.999999999999996 17.320508075688778
M 34.64101615137755 40 m 10.000000000000004 17.320508075688775 l -20.000000000000004 2.449293598294707e-15
M 34.64101615137755 40 m -20.000000000000004 2.449293598294707e-15 l 9.999999999999988 -17.320508075688785
"></path></g><g transform="translate(346.4101615137755 400)"><path d="M 34.64101615137755 40 l -9.999999999999996 17.320508075688778
M 34.64101615137755 40 l 9.999999999999988 -17.320508075688785
M 34.64101615137755 40 m -9.999999999999996 17.320508075688778 l -10.00000000000001 -17.32050807568877
M 34.64101615137755 40 m 9.999999999999988 -17.320508075688785 l 10.000000000000028 17.32050807568876
"></path></g><g transform="translate(415.69219381653056 0)"><path d="M 34.64101615137755 40 l 20.000000000000004 0
M 34.64101615137755 40 l 10.000000000000004 17.320508075688775
M 34.64101615137755 40 l -20.000000000000004 2.449293598294707e-15
M 34.64101615137755 40 l -10.00000000000001 -17.32050807568877
M 34.64101615137755 40 m 20.000000000000004 0 l -9.999999999999996 17.320508075688778
M 34.64101615137755 40 m -9.999999999999996 17.320508075688778 l -10.00000000000001 -17.32050807568877
M 34.64101615137755 40 m -20.000000000000004 2.449293598294707e-15 l 9.999999999999988 -17.320508075688785
"></path></g><g transform="translate(415.69219381653056 80)"><path d="M 34.64101615137755 40 l 10.000000000000004 17.320508075688775
M 34.64101615137755 40 l -9.999999999999996 17.320508075688778
M 34.64101615137755 40 l -10.00000000000001 -17.32050807568877
M 34.64101615137755 40 l 9.999999999999988 -17.320508075688785
M 34.64101615137755 40 m 20.000000000000004 0 l -9.999999999999996 17.320508075688778
M 34.64101615137755 40 m -9.999999999999996 17.320508075688778 l -10.00000000000001 -17.32050807568877
M 34.64101615137755 40 m -20.000000000000004 2.449293598294707e-15 l 9.999999999999988 -17.320508075688785
M 34.64101615137755 40 m 9.999999999999988 -17.320508075688785 l 10.000000000000028 17.32050807568876
"></path></g><g transform="translate(415.69219381653056 160)"><path d="M 34.64101615137755 40 l 20.000000000000004 0
M 34.64101615137755 40 l 10.000000000000004 17.320508075688775
M 34.64101615137755 40 l -10.00000000000001 -17.32050807568877
M 34.64101615137755 40 m 10.000000000000004 17.320508075688775 l -20.000000000000004 2.449293598294707e-15
M 34.64101615137755 40 m -9.999999999999996 17.320508075688778 l -10.00000000000001 -17.32050807568877
M 34.64101615137755 40 m -10.00000000000001 -17.32050807568877 l 20.000000000000004 -4.898587196589414e-15
"></path></g><g transform="translate(415.69219381653056 240)"><path d="M 34.64101615137755 40 l 20.000000000000004 0
M 34.64101615137755 40 l 10.000000000000004 17.320508075688775
M 34.64101615137755 40 l -20.000000000000004 2.449293598294707e-15
M 34.64101615137755 40 m 20.000000000000004 0 l -9.999999999999996 17.320508075688778
M 34.64101615137755 40 m -20.000000000000004 2.449293598294707e-15 l 9.999999999999988 -17.320508075688785
M 34.64101615137755 40 m -10.00000000000001 -17.32050807568877 l 20.000000000000004 -4.898587196589414e-15
M 34.64101615137755 40 m 9.999999999999988 -17.320508075688785 l 10.000000000000028 17.32050807568876
"></path></g><g transform="translate(415.69219381653056 320)"><path d="M 34.64101615137755 40 l 20.000000000000004 0
M 34.64101615137755 40 l 10.000000000000004 17.320508075688775
M 34.64101615137755 40 l -9.999999999999996 17.320508075688778
M 34.64101615137755 40 l -20.000000000000004 2.449293598294707e-15
M 34.64101615137755 40 l 9.999999999999988 -17.320508075688785
M 34.64101615137755 40 m 10.000000000000004 17.320508075688775 l -20.000000000000004 2.449293598294707e-15
M 34.64101615137755 40 m -9.999999999999996 17.320508075688778 l -10.00000000000001 -17.32050807568877
M 34.64101615137755 40 m -10.00000000000001 -17.32050807568877 l 20.000000000000004 -4.898587196589414e-15
M 34.64101615137755 40 m 9.999999999999988 -17.320508075688785 l 10.000000000000028 17.32050807568876
"></path></g><g transform="translate(415.69219381653056 400)"><path d="M 34.64101615137755 40 l 10.000000000000004 17.320508075688775
M 34.64101615137755 40 l -10.00000000000001 -17.32050807568877
M 34.64101615137755 40 l 9.999999999999988 -17.320508075688785
M 34.64101615137755 40 m 10.000000000000004 17.320508075688775 l -20.000000000000004 2.449293598294707e-15
M 34.64101615137755 40 m -10.00000000000001 -17.32050807568877 l 20.000000000000004 -4.898587196589414e-15
"></path></g><g transform="translate(484.9742261192857 0)"><path d="M 34.64101615137755 40 l 10.000000000000004 17.320508075688775
M 34.64101615137755 40 l -9.999999999999996 17.320508075688778
M 34.64101615137755 40 l 9.999999999999988 -17.320508075688785
M 34.64101615137755 40 m -9.999999999999996 17.320508075688778 l -10.00000000000001 -17.32050807568877
M 34.64101615137755 40 m 9.999999999999988 -17.320508075688785 l 10.000000000000028 17.32050807568876
"></path></g><g transform="translate(484.9742261192857 80)"><path d="M 34.64101615137755 40 l 10.000000000000004 17.320508075688775
M 34.64101615137755 40 l -10.00000000000001 -17.32050807568877
M 34.64101615137755 40 m 10.000000000000004 17.320508075688775 l -20.000000000000004 2.449293598294707e-15
M 34.64101615137755 40 m -10.00000000000001 -17.32050807568877 l 20.000000000000004 -4.898587196589414e-15
"></path></g><g transform="translate(484.9742261192857 160)"><path d="M 34.64101615137755 40 l 20.000000000000004 0
M 34.64101615137755 40 l -20.000000000000004 2.449293598294707e-15
M 34.64101615137755 40 l -10.00000000000001 -17.32050807568877
M 34.64101615137755 40 m 20.000000000000004 0 l -9.999999999999996 17.320508075688778
M 34.64101615137755 40 m -9.999999999999996 17.320508075688778 l -10.00000000000001 -17.32050807568877
M 34.64101615137755 40 m -20.000000000000004 2.449293598294707e-15 l 9.999999999999988 -17.320508075688785
"></path></g><g transform="translate(484.9742261192857 240)"><path d="M 34.64101615137755 40 l 20.000000000000004 0
M 34.64101615137755 40 l -9.999999999999996 17.320508075688778
M 34.64101615137755 40 l 9.999999999999988 -17.320508075688785
M 34.64101615137755 40 m -9.999999999999996 17.320508075688778 l -10.00000000000001 -17.32050807568877
M 34.64101615137755 40 m -20.000000000000004 2.449293598294707e-15 l 9.999999999999988 -17.320508075688785
M 34.64101615137755 40 m 9.999999999999988 -17.320508075688785 l 10.000000000000028 17.32050807568876
"></path></g><g transform="translate(484.9742261192857 320)"><path d="M 34.64101615137755 40 l 20.000000000000004 0
M 34.64101615137755 40 l 10.000000000000004 17.320508075688775
M 34.64101615137755 40 l -10.00000000000001 -17.32050807568877
M 34.64101615137755 40 l 9.999999999999988 -17.320508075688785
M 34.64101615137755 40 m 10.000000000000004 17.320508075688775 l -20.000000000000004 2.449293598294707e-15
M 34.64101615137755 40 m -10.00000000000001 -17.32050807568877 l 20.000000000000004 -4.898587196589414e-15
"></path></g><g transform="translate(484.9742261192857 400)"><path d="M 34.64101615137755 40 l 20.000000000000004 0
M 34.64101615137755 40 l -20.000000000000004 2.449293598294707e-15
M 34.64101615137755 40 l -10.00000000000001 -17.32050807568877
M 34.64101615137755 40 m 20.000000000000004 0 l -9.999999999999996 17.320508075688778
M 34.64101615137755 40 m -9.999999999999996 17.320508075688778 l -10.00000000000001 -17.32050807568877
M 34.64101615137755 40 m -20.000000000000004 2.449293598294707e-15 l 9.999999999999988 -17.320508075688785
M 34.64101615137755 40 m 9.999999999999988 -17.320508075688785 l 10.000000000000028 17.32050807568876
"></path></g><g transform="translate(554.2562584220408 0)"><path d="M 34.64101615137755 40 l 10.000000000000004 17.320508075688775
M 34.64101615137755 40 l -20.000000000000004 2.449293598294707e-15
M 34.64101615137755 40 l -10.00000000000001 -17.32050807568877
M 34.64101615137755 40 m 10.000000000000004 17.320508075688775 l -20.000000000000004 2.449293598294707e-15
M 34.64101615137755 40 m -10.00000000000001 -17.32050807568877 l 20.000000000000004 -4.898587196589414e-15
"></path></g><g transform="translate(554.2562584220408 80)"><path d="M 34.64101615137755 40 l 20.000000000000004 0
M 34.64101615137755 40 l 10.000000000000004 17.320508075688775
M 34.64101615137755 40 l -20.000000000000004 2.449293598294707e-15
M 34.64101615137755 40 l 9.999999999999988 -17.320508075688785
M 34.64101615137755 40 m 20.000000000000004 0 l -9.999999999999996 17.320508075688778
M 34.64101615137755 40 m -20.000000000000004 2.449293598294707e-15 l 9.999999999999988 -17.320508075688785
"></path></g><g transform="translate(554.2562584220408 160)"><path d="M 34.64101615137755 40 l -9.999999999999996 17.320508075688778
M 34.64101615137755 40 l 9.999999999999988 -17.320508075688785
M 34.64101615137755 40 m -9.999999999999996 17.320508075688778 l -10.00000000000001 -17.32050807568877
M 34.64101615137755 40 m 9.999999999999988 -17.320508075688785 l 10.000000000000028 17.32050807568876
"></path></g><g transform="translate(554.2562584220408 240)"><path d="M 34.64101615137755 40 l 10.000000000000004 17.320508075688775
M 34.64101615137755 40 l -10.00000000000001 -17.32050807568877
M 34.64101615137755 40 m 10.000000000000004 17.320508075688775 l -20.000000000000004 2.449293598294707e-15
M 34.64101615137755 40 m -9.999999999999996 17.320508075688778 l -10.00000000000001 -17.32050807568877
M 34.64101615137755 40 m -20.000000000000004 2.449293598294707e-15 l 9.999999999999988 -17.320508075688785
M 34.64101615137755 40 m -10.00000000000001 -17.32050807568877 l 20.000000000000004 -4.898587196589414e-15
"></path></g><g transform="translate(554.2562584220408 320)"><path d="M 34.64101615137755 40 l 20.000000000000004 0
M 34.64101615137755 40 l -20.000000000000004 2.449293598294707e-15
M 34.64101615137755 40 m 20.000000000000004 0 l -9.999999999999996 17.320508075688778
M 34.64101615137755 40 m -20.000000000000004 2.449293598294707e-15 l 9.999999999999988 -17.320508075688785
"></path></g><g transform="translate(554.2562584220408 400)"><path d="M 34.64101615137755 40 l 10.000000000000004 17.320508075688775
M 34.64101615137755 40 l -9.999999999999996 17.320508075688778
M 34.64101615137755 40 l -20.000000000000004 2.449293598294707e-15
M 34.64101615137755 40 l 9.999999999999988 -17.320508075688785
M 34.64101615137755 40 m -9.999999999999996 17.320508075688778 l -10.00000000000001 -17.32050807568877
M 34.64101615137755 40 m 9.999999999999988 -17.320508075688785 l 10.000000000000028 17.32050807568876
"></path></g></g></g></svg>