<?xml version="1.0" standalone="no"?>
<svg class="Sketch" id="sketch" width="754.2562584220407" height="680" viewBox="0 0 754.2562584220407 680" xmlns="http://www.w3.org/2000/svg" fill="none" stroke="black"><g id="border"><path d="M 0 0 L 754.2562584220407 0 L 754.2562584220407 680 L 0 680 L 0 0"></path></g><g id="isocubelang"><g transform="translate(100 100)"><g transform="translate(0 0)"><path d="M 34.64101615137754 40 l 17.320508075688775 9.999999999999998
M 34.64101615137754 40 l -17.320508075688778 -9.999999999999995
M 34.64101615137754 40 m 17.320508075688775 9.999999999999998 l -17.32050807568877 10.000000000000007
M 34.64101615137754 40 m -17.32050807568877 10.000000000000007 l -3.673940397442059e-15 -20
M 34.64101615137754 40 m -17.320508075688778 -9.999999999999995 l 17.320508075688767 -10.000000000000009
"></path></g><g transform="translate(0 80)"><path d="M 34.64101615137754 40 l -17.32050807568877 10.000000000000007
M 34.64101615137754 40 l -17.320508075688778 -9.999999999999995
M 34.64101615137754 40 l 17.320508075688767 -10.000000000000009
M 34.64101615137754 40 m 17.320508075688775 9.999999999999998 l -17.32050807568877 10.000000000000007
M 34.64101615137754 40 m -17.32050807568877 10.000000000000007 l -3.673940397442059e-15 -20
M 34.64101615137754 40 m -3.673940397442059e-15 -20 l 17.32050807568878 9.999999999999986
M 34.64101615137754 40 m 17.320508075688767 -10.000000000000009 l 6.123233995736766e-15 20
"></path></g><g transform="translate(0 160)"><path d="M 34.64101615137754 40 l 17.320508075688775 9.999999999999998
M 34.64101615137754 40 l 1.2246467991473533e-15 20
M 34.64101615137754 40 l -3.673940397442059e-15 -20
M 34.64101615137754 40 l 17.320508075688767 -10.000000000000009
M 34.64101615137754 40 m 1.2246467991473533e-15 20 l -17.320508075688778 -9.999999999999995
M 34.64101615137754 40 m -17.32050807568877 10.000000000000007 l -3.673940397442059e-15 -20
M 34.64101615137754 40 m -17.320508075688778 -9.999999999999995 l 17.320508075688767 -10.000000000000009
M 34.64101615137754 40 m -3.673940397442059e-15 -20 l 17.32050807568878 9.999999999999986
M 34.64101615137754 40 m 17.320508075688767 -10.000000000000009 l 6.123233995736766e-15 20
"></path></g><g transform="translate(0 240)"><path d="M 34.64101615137754 40 l 17.320508075688775 9.999999999999998
M 34.64101615137754 40 l 1.2246467991473533e-15 20
M 34.64101615137754 40 l -17.320508075688778 -9.999999999999995
M 34.64101615137754 40 m 17.320508075688775 9.999999999999998 l -17.32050807568877 10.000000000000007
M 34.64101615137754 40 m 1.2246467991473533e-15 20 l -17.320508075688778 -9.999999999999995
M 34.64101615137754 40 m -17.320508075688778 -9.999999999999995 l 17.320508075688767 -10.000000000000009
M 34.64101615137754 40 m -3.673940397442059e-15 -20 l 17.32050807568878 9.999999999999986
"></path></g><g transform="translate(0 320)"><path d="M 34.64101615137754 40 l 17.320508075688775 9.999999999999998
M 34.64101615137754 40 l 1.2246467991473533e-15 20
M 34.64101615137754 40 l -17.32050807568877 10.000000000000007
M 34.64101615137754 40 l -17.320508075688778 -9.999999999999995
M 34.64101615137754 40 l 17.320508075688767 -10.000000000000009
M 34.64101615137754 40 m 1.2246467991473533e-15 20 l -17.320508075688778 -9.999999999999995
M 34.64101615137754 40 m -17.32050807568877 10.000000000000007 l -3.673940397442059e-15 -20
M 34.64101615137754 40 m 17.320508075688767 -10.000000000000009 l 6.123233995736766e-15 20
"></path></g><g transform="translate(0 400)"><path d="M 34.64101615137754 40 l 17.320508075688775 9.999999999999998
M 34.64101615137754 40 l 1.2246467991473533e-15 20
M 34.64101615137754 40 l -17.320508075688778 -9.999999999999995
M 34.64101615137754 40 l -3.673940397442059e-15 -20
M 34.64101615137754 40 m 1.2246467991473533e-15 20 l -17.320508075688778 -9.999999999999995
M 34.64101615137754 40 m -17.320508075688778 -9.999999999999995 l 17.320508075688767 -10.000000000000009
M 34.64101615137754 40 m -3.673940397442059e-15 -20 l 17.32050807568878 9.999999999999986
"></path></g><g transform="translate(69.28203230275508 0)"><path d="M 34.64101615137754 40 l 1.2246467991473533e-15 20
M 34.64101615137754 40 l -17.32050807568877 10.000000000000007
M 34.64101615137754 40 l 17.320508075688767 -10.000000000000009
M 34.64101615137754 40 m -17.32050807568877 10.000000000000007 l -3.673940397442059e-15 -20
M 34.64101615137754 40 m 17.320508075688767 -10.000000000000009 l 6.123233995736766e-15 20
"></path></g><g transform="translate(69.28203230275508 80)"><path d="M 34.64101615137754 40 l 17.320508075688775 9.999999999999998
M 34.64101615137754 40 l 1.2246467991473533e-15 20
M 34.64101615137754 40 l -3.673940397442059e-15 -20
M 34.64101615137754 40 l 17.320508075688767 -10.000000000000009
M 34.64101615137754 40 m 1.2246467991473533e-15 20 l -17.320508075688778 -9.999999999999995
M 34.64101615137754 40 m -17.320508075688778 -9.999999999999995 l 17.320508075688767 -10.000000000000009
M 34.64101615137754 40 m -3.673940397442059e-15 -20 l 17.32050807568878 9.999999999999986
"></path></g><g transform="translate(69.28203230275508 160)"><path d="M 34.64101615137754 40 l 17.320508075688775 9.999999999999998
M 34.64101615137754 40 l -17.32050807568877 10.000000000000007
M 34.64101615137754 40 l -17.320508075688778 -9.999999999999995
M 34.64101615137754 40 l 17.320508075688767 -10.000000000000009
M 34.64101615137754 40 m 17.320508075688775 9.999999999999998 l -17.32050807568877 10.000000000000007
M 34.64101615137754 40 m -17.32050807568877 10.000000000000007 l -3.673940397442059e-15 -20
M 34.64101615137754 40 m -17.320508075688778 -9.999999999999995 l 17.320508075688767 -10.000000000000009
"></path></g><g transform="translate(69.28203230275508 240)"><path d="M 34.64101615137754 40 l -17.32050807568877 10.000000000000007
M 34.64101615137754 40 l -17.320508075688778 -9.999999999999995
M 34.64101615137754 40 l 17.320508075688767 -10.000000000000009
M 34.64101615137754 40 m -17.32050807568877 10.000000000000007 l -3.673940397442059e-15 -20
M 34.64101615137754 40 m 17.320508075688767 -10.000000000000009 l 6.123233995736766e-15 20
"></path></g><g transform="translate(69.28203230275508 320)"><path d="M 34.64101615137754 40 l 17.320508075688775 9.999999999999998
M 34.64101615137754 40 l 1.2246467991473533e-15 20
M 34.64101615137754 40 l -3.673940397442059e-15 -20
M 34.64101615137754 40 m 1.2246467991473533e-15 20 l -17.320508075688778 -9.999999999999995
M 34.64101615137754 40 m -3.673940397442059e-15 -20 l 17.32050807568878 9.999999999999986
"></path></g><g transform="translate(69.28203230275508 400)"><path d="M 34.64101615137754 40 l 17.320508075688775 9.999999999999998
M 34.64101615137754 40 l -17.320508075688778 -9.999999999999995
M 34.64101615137754 40 l -3.673940397442059e-15 -20
M 34.64101615137754 40 m 17.320508075688775 9.999999999999998 l -17.32050807568877 10.000000000000007
M 34.64101615137754 40 m -17.320508075688778 -9.999999999999995 l 17.320508075688767 -10.000000000000009
"></path></g><g transform="translate(138.56406460551017 0)"><path d="M 34.64101615137754 40 l 1.2246467991473533e-15 20
M 34.64101615137754 40 l -17.32050807568877 10.000000000000007
M 34.64101615137754 40 l -3.673940397442059e-15 -20
M 34.64101615137754 40 m 1.2246467991473533e-15 20 l -17.320508075688778 -9.999999999999995
M 34.64101615137754 40 m -17.32050807568877 10.000000000000007 l -3.673940397442059e-15 -20
M 34.64101615137754 40 m -17.320508075688778 -9.999999999999995 l 17.320508075688767 -10.000000000000009
M 34.64101615137754 40 m -3.673940397442059e-15 -20 l 17.32050807568878 9.999999999999986
"></path></g><g transform="translate(138.56406460551017 80)"><path d="M 34.64101615137754 40 l 17.320508075688775 9.999999999999998
M 34.64101615137754 40 l -17.320508075688778 -9.999999999999995
M 34.64101615137754 40 m 17.320508075688775 9.999999999999998 l -17.32050807568877 10.000000000000007
M 34.64101615137754 40 m -17.32050807568877 10.000000000000007 l -3.673940397442059e-15 -20
M 34.64101615137754 40 m -17.320508075688778 -9.999999999999995 l 17.320508075688767 -10.000000000000009
"></path></g><g transform="translate(138.56406460551017 160)"><path d="M 34.64101615137754 40 l 1.2246467991473533e-15 20
M 34.64101615137754 40 l -17.32050807568877 10.000000000000007
M 34.64101615137754 40 l 17.320508075688767 -10.000000000000009
M 34.64101615137754 40 m -17.32050807568877 10.000000000000007 l -3.673940397442059e-15 -20
M 34.64101615137754 40 m 17.320508075688767 -10.000000000000009 l 6.123233995736766e-15 20
"></path></g><g transform="translate(138.56406460551017 240)"><path d="M 34.64101615137754 40 l 1.2246467991473533e-15 20
M 34.64101615137754 40 l -17.32050807568877 10.000000000000007
M 34.64101615137754 40 l -17.320508075688778 -9.999999999999995
M 34.64101615137754 40 l -3.673940397442059e-15 -20
M 34.64101615137754 40 l 17.320508075688767 -10.000000000000009
M 34.64101615137754 40 m 1.2246467991473533e-15 20 l -17.320508075688778 -9.999999999999995
M 34.64101615137754 40 m -17.32050807568877 10.000000000000007 l -3.673940397442059e-15 -20
M 34.64101615137754 40 m -3.673940397442059e-15 -20 l 17.32050807568878 9.999999999999986
"></path></g><g transform="translate(138.56406460551017 320)"><path d="M 34.64101615137754 40 l 17.320508075688775 9.999999999999998
M 34.64101615137754 40 l -17.320508075688778 -9.999999999999995
M 34.64101615137754 40 m 17.320508075688775 9.999999999999998 l -17.32050807568877 10.000000000000007
M 34.64101615137754 40 m -17.320508075688778 -9.999999999999995 l 17.320508075688767 -10.000000000000009
M 34.64101615137754 40 m -3.673940397442059e-15 -20 l 17.32050807568878 9.999999999999986
"></path></g><g transform="translate(138.56406460551017 400)"><path d="M 34.64101615137754 40 l -17.32050807568877 10.000000000000007
M 34.64101615137754 40 l 17.320508075688767 -10.000000000000009
M 34.64101615137754 40 m -17.32050807568877 10.000000000000007 l -3.673940397442059e-15 -20
M 34.64101615137754 40 m 17.320508075688767 -10.000000000000009 l 6.123233995736766e-15 20
"></path></g><g transform="translate(207.84609690826525 0)"><path d="M 34.64101615137754 40 l 17.320508075688775 9.999999999999998
M 34.64101615137754 40 l -17.32050807568877 10.000000000000007
M 34.64101615137754 40 l -17.320508075688778 -9.999999999999995
M 34.64101615137754 40 m 17.320508075688775 9.999999999999998 l -17.32050807568877 10.000000000000007
M 34.64101615137754 40 m -17.320508075688778 -9.999999999999995 l 17.320508075688767 -10.000000000000009
M 34.64101615137754 40 m 17.320508075688767 -10.000000000000009 l 6.123233995736766e-15 20
"></path></g><g transform="translate(207.84609690826525 80)"><path d="M 34.64101615137754 40 l -17.32050807568877 10.000000000000007
M 34.64101615137754 40 l 17.320508075688767 -10.000000000000009
M 34.64101615137754 40 m -17.32050807568877 10.000000000000007 l -3.673940397442059e-15 -20
M 34.64101615137754 40 m 17.320508075688767 -10.000000000000009 l 6.123233995736766e-15 20
"></path></g><g transform="translate(207.84609690826525 160)"><path d="M 34.64101615137754 40 l 1.2246467991473533e-15 20
M 34.64101615137754 40 l -17.32050807568877 10.000000000000007
M 34.64101615137754 40 l -3.673940397442059e-15 -20
M 34.64101615137754 40 m 1.2246467991473533e-15 20 l -17.320508075688778 -9.999999999999995
M 34.64101615137754 40 m -3.673940397442059e-15 -20 l 17.32050807568878 9.999999999999986
"></path></g><g transform="translate(207.84609690826525 240)"><path d="M 34.64101615137754 40 l 17.320508075688775 9.999999999999998
M 34.64101615137754 40 l -17.32050807568877 10.000000000000007
M 34.64101615137754 40 l -17.320508075688778 -9.999999999999995
M 34.64101615137754 40 l -3.673940397442059e-15 -20
M 34.64101615137754 40 m 17.320508075688775 9.999999999999998 l -17.32050807568877 10.000000000000007
M 34.64101615137754 40 m -17.32050807568877 10.000000000000007 l -3.673940397442059e-15 -20
M 34.64101615137754 40 m -17.320508075688778 -9.999999999999995 l 17.320508075688767 -10.000000000000009
M 34.64101615137754 40 m 17.320508075688767 -10.000000000000009 l 6.123233995736766e-15 20
"></path></g><g transform="translate(207.84609690826525 320)"><path d="M 34.64101615137754 40 l -17.32050807568877 10.000000000000007
M 34.64101615137754 40 l 17.320508075688767 -10.000000000000009
M 34.64101615137754 40 m -17.32050807568877 10.000000000000007 l -3.673940397442059e-15 -20
M 34.64101615137754 40 m 17.320508075688767 -10.000000000000009 l 6.123233995736766e-15 20
"></path></g><g transform="translate(207.84609690826525 400)"><path d="M 34.64101615137754 40 l 1.2246467991473533e-15 20
M 34.64101615137754 40 l -3.673940397442059e-15 -20
M 34.64101615137754 40 m 1.2246467991473533e-15 20 l -17.320508075688778 -9.999999999999995
M 34.64101615137754 40 m -3.673940397442059e-15 -20 l 17.32050807568878 9.999999999999986
M 34.64101615137754 40 m 17.320508075688767 -10.000000000000009 l 6.123233995736766e-15 20
"></path></g><g transform="translate(277.12812921102034 0)"><path d="M 34.64101615137754 40 l 17.320508075688775 9.999999999999998
M 34.64101615137754 40 l -17.32050807568877 10.000000000000007
M 34.64101615137754 40 l 17.320508075688767 -10.000000000000009
M 34.64101615137754 40 m -17.32050807568877 10.000000000000007 l -3.673940397442059e-15 -20
M 34.64101615137754 40 m -3.673940397442059e-15 -20 l 17.32050807568878 9.999999999999986
M 34.64101615137754 40 m 17.320508075688767 -10.000000000000009 l 6.123233995736766e-15 20
"></path></g><g transform="translate(277.12812921102034 80)"><path d="M 34.64101615137754 40 l 1.2246467991473533e-15 20
M 34.64101615137754 40 l -3.673940397442059e-15 -20
M 34.64101615137754 40 l 17.320508075688767 -10.000000000000009
M 34.64101615137754 40 m 17.320508075688775 9.999999999999998 l -17.32050807568877 10.000000000000007
M 34.64101615137754 40 m 1.2246467991473533e-15 20 l -17.320508075688778 -9.999999999999995
M 34.64101615137754 40 m -3.673940397442059e-15 -20 l 17.32050807568878 9.999999999999986
M 34.64101615137754 40 m 17.320508075688767 -10.000000000000009 l 6.123233995736766e-15 20
"></path></g><g transform="translate(277.12812921102034 160)"><path d="M 34.64101615137754 40 l 17.320508075688775 9.999999999999998
M 34.64101615137754 40 l -17.320508075688778 -9.999999999999995
M 34.64101615137754 40 l -3.673940397442059e-15 -20
M 34.64101615137754 40 m 17.320508075688775 9.999999999999998 l -17.32050807568877 10.000000000000007
M 34.64101615137754 40 m -17.32050807568877 10.000000000000007 l -3.673940397442059e-15 -20
M 34.64101615137754 40 m -17.320508075688778 -9.999999999999995 l 17.320508075688767 -10.000000000000009
"></path></g><g transform="translate(277.12812921102034 240)"><path d="M 34.64101615137754 40 l -17.32050807568877 10.000000000000007
M 34.64101615137754 40 l 17.320508075688767 -10.000000000000009
M 34.64101615137754 40 m -17.32050807568877 10.000000000000007 l -3.673940397442059e-15 -20
M 34.64101615137754 40 m 17.320508075688767 -10.000000000000009 l 6.123233995736766e-15 20
"></path></g><g transform="translate(277.12812921102034 320)"><path d="M 34.64101615137754 40 l 1.2246467991473533e-15 20
M 34.64101615137754 40 l -17.320508075688778 -9.999999999999995
M 34.64101615137754 40 l -3.673940397442059e-15 -20
M 34.64101615137754 40 m 1.2246467991473533e-15 20 l -17.320508075688778 -9.999999999999995
M 34.64101615137754 40 m -3.673940397442059e-15 -20 l 17.32050807568878 9.999999999999986
"></path></g><g transform="translate(277.12812921102034 400)"><path d="M 34.64101615137754 40 l 17.320508075688775 9.999999999999998
M 34.64101615137754 40 l -17.320508075688778 -9.999999999999995
M 34.64101615137754 40 l -3.673940397442059e-15 -20
M 34.64101615137754 40 l 17.320508075688767 -10.000000000000009
M 34.64101615137754 40 m 17.320508075688775 9.999999999999998 l -17.32050807568877 10.000000000000007
M 34.64101615137754 40 m 1.2246467991473533e-15 20 l -17.320508075688778 -9.999999999999995
M 34.64101615137754 40 m -17.320508075688778 -9.999999999999995 l 17.320508075688767 -10.000000000000009
"></path></g><g transform="translate(346.4101615137754 0)"><path d="M 34.64101615137754 40 l 1.2246467991473533e-15 20
M 34.64101615137754 40 l -3.673940397442059e-15 -20
M 34.64101615137754 40 m 17.320508075688775 9.999999999999998 l -17.32050807568877 10.000000000000007
M 34.64101615137754 40 m 1.2246467991473533e-15 20 l -17.320508075688778 -9.999999999999995
M 34.64101615137754 40 m -17.320508075688778 -9.999999999999995 l 17.320508075688767 -10.000000000000009
M 34.64101615137754 40 m -3.673940397442059e-15 -20 l 17.32050807568878 9.999999999999986
M 34.64101615137754 40 m 17.320508075688767 -10.000000000000009 l 6.123233995736766e-15 20
"></path></g><g transform="translate(346.4101615137754 80)"><path d="M 34.64101615137754 40 l 17.320508075688775 9.999999999999998
M 34.64101615137754 40 l -17.320508075688778 -9.999999999999995
M 34.64101615137754 40 l 17.320508075688767 -10.000000000000009
M 34.64101615137754 40 m 17.320508075688775 9.999999999999998 l -17.32050807568877 10.000000000000007
M 34.64101615137754 40 m -17.320508075688778 -9.999999999999995 l 17.320508075688767 -10.000000000000009
"></path></g><g transform="translate(346.4101615137754 160)"><path d="M 34.64101615137754 40 l 1.2246467991473533e-15 20
M 34.64101615137754 40 l -17.32050807568877 10.000000000000007
M 34.64101615137754 40 l -17.320508075688778 -9.999999999999995
M 34.64101615137754 40 l 17.320508075688767 -10.000000000000009
M 34.64101615137754 40 m -17.32050807568877 10.000000000000007 l -3.673940397442059e-15 -20
M 34.64101615137754 40 m 17.320508075688767 -10.000000000000009 l 6.123233995736766e-15 20
"></path></g><g transform="translate(346.4101615137754 240)"><path d="M 34.64101615137754 40 l 1.2246467991473533e-15 20
M 34.64101615137754 40 l -3.673940397442059e-15 -20
M 34.64101615137754 40 l 17.320508075688767 -10.000000000000009
M 34.64101615137754 40 m 1.2246467991473533e-15 20 l -17.320508075688778 -9.999999999999995
M 34.64101615137754 40 m -17.32050807568877 10.000000000000007 l -3.673940397442059e-15 -20
M 34.64101615137754 40 m -3.673940397442059e-15 -20 l 17.32050807568878 9.999999999999986
M 34.64101615137754 40 m 17.320508075688767 -10.000000000000009 l 6.123233995736766e-15 20
"></path></g><g transform="translate(346.4101615137754 320)"><path d="M 34.64101615137754 40 l 17.320508075688775 9.999999999999998
M 34.64101615137754 40 l -17.320508075688778 -9.999999999999995
M 34.64101615137754 40 m 17.320508075688775 9.999999999999998 l -17.32050807568877 10.000000000000007
M 34.64101615137754 40 m -17.32050807568877 10.000000000000007 l -3.673940397442059e-15 -20
M 34.64101615137754 40 m -17.320508075688778 -9.999999999999995 l 17.320508075688767 -10.000000000000009
"></path></g><g transform="translate(346.4101615137754 400)"><path d="M 34.64101615137754 40 l 17.320508075688775 9.999999999999998
M 34.64101615137754 40 l -17.32050807568877 10.000000000000007
M 34.64101615137754 40 l -3.673940397442059e-15 -20
M 34.64101615137754 40 l 17.320508075688767 -10.000000000000009
M 34.64101615137754 40 m 17.320508075688775 9.999999999999998 l -17.32050807568877 10.000000000000007
M 34.64101615137754 40 m -17.32050807568877 10.000000000000007 l -3.673940397442059e-15 -20
M 34.64101615137754 40 m 17.320508075688767 -10.000000000000009 l 6.123233995736766e-15 20
"></path></g><g transform="translate(415.6921938165305 0)"><path d="M 34.64101615137754 40 l 17.320508075688775 9.999999999999998
M 34.64101615137754 40 l -17.320508075688778 -9.999999999999995
M 34.64101615137754 40 m 17.320508075688775 9.999999999999998 l -17.32050807568877 10.000000000000007
M 34.64101615137754 40 m -17.320508075688778 -9.999999999999995 l 17.320508075688767 -10.000000000000009
"></path></g><g transform="translate(415.6921938165305 80)"><path d="M 34.64101615137754 40 l -17.32050807568877 10.000000000000007
M 34.64101615137754 40 l 17.320508075688767 -10.000000000000009
M 34.64101615137754 40 m -17.32050807568877 10.000000000000007 l -3.673940397442059e-15 -20
M 34.64101615137754 40 m -17.320508075688778 -9.999999999999995 l 17.320508075688767 -10.000000000000009
M 34.64101615137754 40 m -3.673940397442059e-15 -20 l 17.32050807568878 9.999999999999986
M 34.64101615137754 40 m 17.320508075688767 -10.000000000000009 l 6.123233995736766e-15 20
"></path></g><g transform="translate(415.6921938165305 160)"><path d="M 34.64101615137754 40 l 17.320508075688775 9.999999999999998
M 34.64101615137754 40 l 1.2246467991473533e-15 20
M 34.64101615137754 40 l -3.673940397442059e-15 -20
M 34.64101615137754 40 m 1.2246467991473533e-15 20 l -17.320508075688778 -9.999999999999995
M 34.64101615137754 40 m -3.673940397442059e-15 -20 l 17.32050807568878 9.999999999999986
"></path></g><g transform="translate(415.6921938165305 240)"><path d="M 34.64101615137754 40 l 17.320508075688775 9.999999999999998
M 34.64101615137754 40 l -17.320508075688778 -9.999999999999995
M 34.64101615137754 40 l -3.673940397442059e-15 -20
M 34.64101615137754 40 m 17.320508075688775 9.999999999999998 l -17.32050807568877 10.000000000000007
M 34.64101615137754 40 m 1.2246467991473533e-15 20 l -17.320508075688778 -9.999999999999995
M 34.64101615137754 40 m -17.320508075688778 -9.999999999999995 l 17.320508075688767 -10.000000000000009
"></path></g><g transform="translate(415.6921938165305 320)"><path d="M 34.64101615137754 40 l -17.32050807568877 10.000000000000007
M 34.64101615137754 40 l -17.320508075688778 -9.999999999999995
M 34.64101615137754 40 l -3.673940397442059e-15 -20
M 34.64101615137754 40 l 17.320508075688767 -10.000000000000009
M 34.64101615137754 40 m -17.32050807568877 10.000000000000007 l -3.673940397442059e-15 -20
M 34.64101615137754 40 m 17.320508075688767 -10.000000000000009 l 6.123233995736766e-15 20
"></path></g><g transform="translate(415.6921938165305 400)"><path d="M 34.64101615137754 40 l 1.2246467991473533e-15 20
M 34.64101615137754 40 l -17.32050807568877 10.000000000000007
M 34.64101615137754 40 l -3.673940397442059e-15 -20
M 34.64101615137754 40 m 1.2246467991473533e-15 20 l -17.320508075688778 -9.999999999999995
M 34.64101615137754 40 m -17.32050807568877 10.000000000000007 l -3.673940397442059e-15 -20
M 34.64101615137754 40 m -3.673940397442059e-15 -20 l 17.32050807568878 9.999999999999986
"></path></g><g transform="translate(484.9742261192856 0)"><path d="M 34.64101615137754 40 l -17.32050807568877 10.000000000000007
M 34.64101615137754 40 l 17.320508075688767 -10.000000000000009
M 34.64101615137754 40 m -17.32050807568877 10.000000000000007 l -3.673940397442059e-15 -20
M 34.64101615137754 40 m -3.673940397442059e-15 -20 l 17.32050807568878 9.999999999999986
M 34.64101615137754 40 m 17.320508075688767 -10.000000000000009 l 6.123233995736766e-15 20
"></path></g><g transform="translate(484.9742261192856 80)"><path d="M 34.64101615137754 40 l 1.2246467991473533e-15 20
M 34.64101615137754 40 l -17.320508075688778 -9.999999999999995
M 34.64101615137754 40 l -3.673940397442059e-15 -20
M 34.64101615137754 40 m 1.2246467991473533e-15 20 l -17.320508075688778 -9.999999999999995
M 34.64101615137754 40 m -3.673940397442059e-15 -20 l 17.32050807568878 9.999999999999986
"></path></g><g transform="translate(484.9742261192856 160)"><path d="M 34.64101615137754 40 l 17.320508075688775 9.999999999999998
M 34.64101615137754 40 l -17.320508075688778 -9.999999999999995
M 34.64101615137754 40 l -3.673940397442059e-15 -20
M 34.64101615137754 40 m 17.320508075688775 9.999999999999998 l -17.32050807568877 10.000000000000007
M 34.64101615137754 40 m -17.320508075688778 -9.999999999999995 l 17.320508075688767 -10.000000000000009
"></path></g><g transform="translate(484.9742261192856 240)"><path d="M 34.64101615137754 40 l -17.32050807568877 10.000000000000007
M 34.64101615137754 40 l 17.320508075688767 -10.000000000000009
M 34.64101615137754 40 m -17.32050807568877 10.000000000000007 l -3.673940397442059e-15 -20
M 34.64101615137754 40 m -3.673940397442059e-15 -20 l 17.32050807568878 9.999999999999986
M 34.64101615137754 40 m 17.320508075688767 -10.000000000000009 l 6.123233995736766e-15 20
"></path></g><g transform="translate(484.9742261192856 320)"><path d="M 34.64101615137754 40 l 17.320508075688775 9.999999999999998
M 34.64101615137754 40 l 1.2246467991473533e-15 20
M 34.64101615137754 40 l -17.32050807568877 10.000000000000007
M 34.64101615137754 40 l -17.320508075688778 -9.999999999999995
M 34.64101615137754 40 l -3.673940397442059e-15 -20
M 34.64101615137754 40 m 1.2246467991473533e-15 20 l -17.320508075688778 -9.999999999999995
M 34.64101615137754 40 m -3.673940397442059e-15 -20 l 17.32050807568878 9.999999999999986
"></path></g><g transform="translate(484.9742261192856 400)"><path d="M 34.64101615137754 40 l 17.320508075688775 9.999999999999998
M 34.64101615137754 40 l -17.320508075688778 -9.999999999999995
M 34.64101615137754 40 m 17.320508075688775 9.999999999999998 l -17.32050807568877 10.000000000000007
M 34.64101615137754 40 m -17.320508075688778 -9.999999999999995 l 17.320508075688767 -10.000000000000009
"></path></g></g></g></svg>