<?xml version="1.0" standalone="no"?>
<svg class="Sketch" id="sketch" width="346.41016151377545" height="400" viewBox="0 0 346.41016151377545 400" xmlns="http://www.w3.org/2000/svg" fill="none" stroke="black"><g id="isocubelang"><g transform="translate(0 0)"><g transform="translate(0 0)"><g transform="translate(0 0)"><path d="M 17.32050807568877 20 l 8.660254037844387 4.999999999999999
M 17.32050807568877 20 l -8.660254037844389 -4.999999999999997
M 17.32050807568877 20 m 8.660254037844387 4.999999999999999 l -8.660254037844386 5.0000000000000036
M 17.32050807568877 20 m -8.660254037844386 5.0000000000000036 l -1.8369701987210296e-15 -10
M 17.32050807568877 20 m -8.660254037844389 -4.999999999999997 l 8.660254037844384 -5.000000000000004
"></path></g></g><g transform="translate(0 40)"><g transform="translate(0 0)"><path d="M 17.32050807568877 20 l -8.660254037844386 5.0000000000000036
M 17.32050807568877 20 l -8.660254037844389 -4.999999999999997
M 17.32050807568877 20 l 8.660254037844384 -5.000000000000004
M 17.32050807568877 20 m 8.660254037844387 4.999999999999999 l -8.660254037844386 5.0000000000000036
M 17.32050807568877 20 m -8.660254037844386 5.0000000000000036 l -1.8369701987210296e-15 -10
M 17.32050807568877 20 m -1.8369701987210296e-15 -10 l 8.66025403784439 4.999999999999993
M 17.32050807568877 20 m 8.660254037844384 -5.000000000000004 l 3.061616997868383e-15 10
"></path></g></g><g transform="translate(0 80)"><g transform="translate(0 0)"><path d="M 17.32050807568877 20 l 8.660254037844387 4.999999999999999
M 17.32050807568877 20 l 6.123233995736766e-16 10
M 17.32050807568877 20 l -1.8369701987210296e-15 -10
M 17.32050807568877 20 l 8.660254037844384 -5.000000000000004
M 17.32050807568877 20 m 6.123233995736766e-16 10 l -8.660254037844389 -4.999999999999997
M 17.32050807568877 20 m -8.660254037844386 5.0000000000000036 l -1.8369701987210296e-15 -10
M 17.32050807568877 20 m -8.660254037844389 -4.999999999999997 l 8.660254037844384 -5.000000000000004
M 17.32050807568877 20 m -1.8369701987210296e-15 -10 l 8.66025403784439 4.999999999999993
M 17.32050807568877 20 m 8.660254037844384 -5.000000000000004 l 3.061616997868383e-15 10
"></path></g></g><g transform="translate(0 120)"><g transform="translate(0 0)"><path d="M 17.32050807568877 20 l 8.660254037844387 4.999999999999999
M 17.32050807568877 20 l 6.123233995736766e-16 10
M 17.32050807568877 20 l -8.660254037844389 -4.999999999999997
M 17.32050807568877 20 m 8.660254037844387 4.999999999999999 l -8.660254037844386 5.0000000000000036
M 17.32050807568877 20 m 6.123233995736766e-16 10 l -8.660254037844389 -4.999999999999997
M 17.32050807568877 20 m -8.660254037844389 -4.999999999999997 l 8.660254037844384 -5.000000000000004
M 17.32050807568877 20 m -1.8369701987210296e-15 -10 l 8.66025403784439 4.999999999999993
"></path></g></g><g transform="translate(0 160)"><g transform="translate(0 0)"><path d="M 17.32050807568877 20 l 8.660254037844387 4.999999999999999
M 17.32050807568877 20 l 6.123233995736766e-16 10
M 17.32050807568877 20 l -8.660254037844386 5.0000000000000036
M 17.32050807568877 20 l -8.660254037844389 -4.999999999999997
M 17.32050807568877 20 l 8.660254037844384 -5.000000000000004
M 17.32050807568877 20 m 6.123233995736766e-16 10 l -8.660254037844389 -4.999999999999997
M 17.32050807568877 20 m -8.660254037844386 5.0000000000000036 l -1.8369701987210296e-15 -10
M 17.32050807568877 20 m 8.660254037844384 -5.000000000000004 l 3.061616997868383e-15 10
"></path></g></g><g transform="translate(0 200)"><g transform="translate(0 0)"><path d="M 17.32050807568877 20 l 8.660254037844387 4.999999999999999
M 17.32050807568877 20 l 6.123233995736766e-16 10
M 17.32050807568877 20 l -8.660254037844389 -4.999999999999997
M 17.32050807568877 20 l -1.8369701987210296e-15 -10
M 17.32050807568877 20 m 6.123233995736766e-16 10 l -8.660254037844389 -4.999999999999997
M 17.32050807568877 20 m -8.660254037844389 -4.999999999999997 l 8.660254037844384 -5.000000000000004
M 17.32050807568877 20 m -1.8369701987210296e-15 -10 l 8.66025403784439 4.999999999999993
"></path></g></g><g transform="translate(0 240)"><g transform="translate(0 0)"><path d="M 17.32050807568877 20 l 8.660254037844387 4.999999999999999
M 17.32050807568877 20 l 6.123233995736766e-16 10
M 17.32050807568877 20 l -8.660254037844389 -4.999999999999997
M 17.32050807568877 20 m 8.660254037844387 4.999999999999999 l -8.660254037844386 5.0000000000000036
M 17.32050807568877 20 m -8.660254037844389 -4.999999999999997 l 8.660254037844384 -5.000000000000004
"></path></g></g><g transform="translate(0 280)"><g transform="translate(0 0)"><path d="M 17.32050807568877 20 l 8.660254037844387 4.999999999999999
M 17.32050807568877 20 l -8.660254037844386 5.0000000000000036
M 17.32050807568877 20 l -1.8369701987210296e-15 -10
M 17.32050807568877 20 l 8.660254037844384 -5.000000000000004
M 17.32050807568877 20 m -8.660254037844386 5.0000000000000036 l -1.8369701987210296e-15 -10
M 17.32050807568877 20 m -8.660254037844389 -4.999999999999997 l 8.660254037844384 -5.000000000000004
M 17.32050807568877 20 m 8.660254037844384 -5.000000000000004 l 3.061616997868383e-15 10
"></path></g></g><g transform="translate(0 320)"><g transform="translate(0 0)"><path d="M 17.32050807568877 20 l 6.123233995736766e-16 10
M 17.32050807568877 20 l -8.660254037844389 -4.999999999999997
M 17.32050807568877 20 l -1.8369701987210296e-15 -10
M 17.32050807568877 20 l 8.660254037844384 -5.000000000000004
M 17.32050807568877 20 m 8.660254037844387 4.999999999999999 l -8.660254037844386 5.0000000000000036
M 17.32050807568877 20 m 6.123233995736766e-16 10 l -8.660254037844389 -4.999999999999997
M 17.32050807568877 20 m -1.8369701987210296e-15 -10 l 8.66025403784439 4.999999999999993
M 17.32050807568877 20 m 8.660254037844384 -5.000000000000004 l 3.061616997868383e-15 10
"></path></g></g><g transform="translate(0 360)"><g transform="translate(0 0)"><path d="M 17.32050807568877 20 l 8.660254037844387 4.999999999999999
M 17.32050807568877 20 l -8.660254037844386 5.0000000000000036
M 17.32050807568877 20 l -8.660254037844389 -4.999999999999997
M 17.32050807568877 20 m 8.660254037844387 4.999999999999999 l -8.660254037844386 5.0000000000000036
M 17.32050807568877 20 m 6.123233995736766e-16 10 l -8.660254037844389 -4.999999999999997
M 17.32050807568877 20 m -8.660254037844389 -4.999999999999997 l 8.660254037844384 -5.000000000000004
M 17.32050807568877 20 m -1.8369701987210296e-15 -10 l 8.66025403784439 4.999999999999993
"></path></g></g><g transform="translate(34.64101615137754 0)"><g transform="translate(0 0)"><path d="M 17.32050807568877 20 l 6.123233995736766e-16 10
M 17.32050807568877 20 l -8.660254037844386 5.0000000000000036
M 17.32050807568877 20 l 8.660254037844384 -5.000000000000004
M 17.32050807568877 20 m -8.660254037844386 5.0000000000000036 l -1.8369701987210296e-15 -10
M 17.32050807568877 20 m 8.660254037844384 -5.000000000000004 l 3.061616997868383e-15 10
"></path></g></g><g transform="translate(34.64101615137754 40)"><g transform="translate(0 0)"><path d="M 17.32050807568877 20 l 8.660254037844387 4.999999999999999
M 17.32050807568877 20 l 6.123233995736766e-16 10
M 17.32050807568877 20 l -1.8369701987210296e-15 -10
M 17.32050807568877 20 l 8.660254037844384 -5.000000000000004
M 17.32050807568877 20 m 6.123233995736766e-16 10 l -8.660254037844389 -4.999999999999997
M 17.32050807568877 20 m -8.660254037844389 -4.999999999999997 l 8.660254037844384 -5.000000000000004
M 17.32050807568877 20 m -1.8369701987210296e-15 -10 l 8.66025403784439 4.999999999999993
"></path></g></g><g transform="translate(34.64101615137754 80)"><g transform="translate(0 0)"><path d="M 17.32050807568877 20 l 8.660254037844387 4.999999999999999
M 17.32050807568877 20 l -8.660254037844386 5.0000000000000036
M 17.32050807568877 20 l -8.660254037844389 -4.999999999999997
M 17.32050807568877 20 l 8.660254037844384 -5.000000000000004
M 17.32050807568877 20 m 8.660254037844387 4.999999999999999 l -8.660254037844386 5.0000000000000036
M 17.32050807568877 20 m -8.660254037844386 5.0000000000000036 l -1.8369701987210296e-15 -10
M 17.32050807568877 20 m -8.660254037844389 -4.999999999999997 l 8.660254037844384 -5.000000000000004
"></path></g></g><g transform="translate(34.64101615137754 120)"><g transform="translate(0 0)"><path d="M 17.32050807568877 20 l -8.660254037844386 5.0000000000000036
M 17.32050807568877 20 l -8.660254037844389 -4.999999999999997
M 17.32050807568877 20 l 8.660254037844384 -5.000000000000004
M 17.32050807568877 20 m -8.660254037844386 5.0000000000000036 l -1.8369701987210296e-15 -10
M 17.32050807568877 20 m 8.660254037844384 -5.000000000000004 l 3.061616997868383e-15 10
"></path></g></g><g transform="translate(34.64101615137754 160)"><g transform="translate(0 0)"><path d="M 17.32050807568877 20 l 8.660254037844387 4.999999999999999
M 17.32050807568877 20 l 6.123233995736766e-16 10
M 17.32050807568877 20 l -1.8369701987210296e-15 -10
M 17.32050807568877 20 m 6.123233995736766e-16 10 l -8.660254037844389 -4.999999999999997
M 17.32050807568877 20 m -1.8369701987210296e-15 -10 l 8.66025403784439 4.999999999999993
"></path></g></g><g transform="translate(34.64101615137754 200)"><g transform="translate(0 0)"><path d="M 17.32050807568877 20 l 8.660254037844387 4.999999999999999
M 17.32050807568877 20 l -8.660254037844389 -4.999999999999997
M 17.32050807568877 20 l -1.8369701987210296e-15 -10
M 17.32050807568877 20 m 8.660254037844387 4.999999999999999 l -8.660254037844386 5.0000000000000036
M 17.32050807568877 20 m -8.660254037844389 -4.999999999999997 l 8.660254037844384 -5.000000000000004
"></path></g></g><g transform="translate(34.64101615137754 240)"><g transform="translate(0 0)"><path d="M 17.32050807568877 20 l 8.660254037844387 4.999999999999999
M 17.32050807568877 20 l -8.660254037844386 5.0000000000000036
M 17.32050807568877 20 l -8.660254037844389 -4.999999999999997
M 17.32050807568877 20 l 8.660254037844384 -5.000000000000004
M 17.32050807568877 20 m 6.123233995736766e-16 10 l -8.660254037844389 -4.999999999999997
M 17.32050807568877 20 m -8.660254037844386 5.0000000000000036 l -1.8369701987210296e-15 -10
M 17.32050807568877 20 m -8.660254037844389 -4.999999999999997 l 8.660254037844384 -5.000000000000004
M 17.32050807568877 20 m 8.660254037844384 -5.000000000000004 l 3.061616997868383e-15 10
"></path></g></g><g transform="translate(34.64101615137754 280)"><g transform="translate(0 0)"><path d="M 17.32050807568877 20 l 8.660254037844387 4.999999999999999
M 17.32050807568877 20 l 6.123233995736766e-16 10
M 17.32050807568877 20 l -8.660254037844386 5.0000000000000036
M 17.32050807568877 20 l -1.8369701987210296e-15 -10
M 17.32050807568877 20 l 8.660254037844384 -5.000000000000004
M 17.32050807568877 20 m 6.123233995736766e-16 10 l -8.660254037844389 -4.999999999999997
M 17.32050807568877 20 m -1.8369701987210296e-15 -10 l 8.66025403784439 4.999999999999993
"></path></g></g><g transform="translate(34.64101615137754 320)"><g transform="translate(0 0)"><path d="M 17.32050807568877 20 l 8.660254037844387 4.999999999999999
M 17.32050807568877 20 l 6.123233995736766e-16 10
M 17.32050807568877 20 l -8.660254037844389 -4.999999999999997
M 17.32050807568877 20 m 8.660254037844387 4.999999999999999 l -8.660254037844386 5.0000000000000036
M 17.32050807568877 20 m 6.123233995736766e-16 10 l -8.660254037844389 -4.999999999999997
M 17.32050807568877 20 m -8.660254037844386 5.0000000000000036 l -1.8369701987210296e-15 -10
M 17.32050807568877 20 m -8.660254037844389 -4.999999999999997 l 8.660254037844384 -5.000000000000004
"></path></g></g><g transform="translate(34.64101615137754 360)"><g transform="translate(0 0)"><path d="M 17.32050807568877 20 l -8.660254037844386 5.0000000000000036
M 17.32050807568877 20 l 8.660254037844384 -5.000000000000004
M 17.32050807568877 20 m -8.660254037844386 5.0000000000000036 l -1.8369701987210296e-15 -10
M 17.32050807568877 20 m -1.8369701987210296e-15 -10 l 8.66025403784439 4.999999999999993
M 17.32050807568877 20 m 8.660254037844384 -5.000000000000004 l 3.061616997868383e-15 10
"></path></g></g><g transform="translate(69.28203230275508 0)"><g transform="translate(0 0)"><path d="M 17.32050807568877 20 l 6.123233995736766e-16 10
M 17.32050807568877 20 l -8.660254037844386 5.0000000000000036
M 17.32050807568877 20 l -1.8369701987210296e-15 -10
M 17.32050807568877 20 m 6.123233995736766e-16 10 l -8.660254037844389 -4.999999999999997
M 17.32050807568877 20 m -8.660254037844386 5.0000000000000036 l -1.8369701987210296e-15 -10
M 17.32050807568877 20 m -8.660254037844389 -4.999999999999997 l 8.660254037844384 -5.000000000000004
M 17.32050807568877 20 m -1.8369701987210296e-15 -10 l 8.66025403784439 4.999999999999993
"></path></g></g><g transform="translate(69.28203230275508 40)"><g transform="translate(0 0)"><path d="M 17.32050807568877 20 l 8.660254037844387 4.999999999999999
M 17.32050807568877 20 l -8.660254037844389 -4.999999999999997
M 17.32050807568877 20 m 8.660254037844387 4.999999999999999 l -8.660254037844386 5.0000000000000036
M 17.32050807568877 20 m -8.660254037844386 5.0000000000000036 l -1.8369701987210296e-15 -10
M 17.32050807568877 20 m -8.660254037844389 -4.999999999999997 l 8.660254037844384 -5.000000000000004
"></path></g></g><g transform="translate(69.28203230275508 80)"><g transform="translate(0 0)"><path d="M 17.32050807568877 20 l 6.123233995736766e-16 10
M 17.32050807568877 20 l -8.660254037844386 5.0000000000000036
M 17.32050807568877 20 l 8.660254037844384 -5.000000000000004
M 17.32050807568877 20 m -8.660254037844386 5.0000000000000036 l -1.8369701987210296e-15 -10
M 17.32050807568877 20 m 8.660254037844384 -5.000000000000004 l 3.061616997868383e-15 10
"></path></g></g><g transform="translate(69.28203230275508 120)"><g transform="translate(0 0)"><path d="M 17.32050807568877 20 l 6.123233995736766e-16 10
M 17.32050807568877 20 l -8.660254037844386 5.0000000000000036
M 17.32050807568877 20 l -8.660254037844389 -4.999999999999997
M 17.32050807568877 20 l -1.8369701987210296e-15 -10
M 17.32050807568877 20 l 8.660254037844384 -5.000000000000004
M 17.32050807568877 20 m 6.123233995736766e-16 10 l -8.660254037844389 -4.999999999999997
M 17.32050807568877 20 m -8.660254037844386 5.0000000000000036 l -1.8369701987210296e-15 -10
M 17.32050807568877 20 m -1.8369701987210296e-15 -10 l 8.66025403784439 4.999999999999993
"></path></g></g><g transform="translate(69.28203230275508 160)"><g transform="translate(0 0)"><path d="M 17.32050807568877 20 l 8.660254037844387 4.999999999999999
M 17.32050807568877 20 l -8.660254037844389 -4.999999999999997
M 17.32050807568877 20 m 8.660254037844387 4.999999999999999 l -8.660254037844386 5.0000000000000036
M 17.32050807568877 20 m -8.660254037844389 -4.999999999999997 l 8.660254037844384 -5.000000000000004
M 17.32050807568877 20 m -1.8369701987210296e-15 -10 l 8.66025403784439 4.999999999999993
"></path></g></g><g transform="translate(69.28203230275508 200)"><g transform="translate(0 0)"><path d="M 17.32050807568877 20 l -8.660254037844386 5.0000000000000036
M 17.32050807568877 20 l 8.660254037844384 -5.000000000000004
M 17.32050807568877 20 m -8.660254037844386 5.0000000000000036 l -1.8369701987210296e-15 -10
M 17.32050807568877 20 m 8.660254037844384 -5.000000000000004 l 3.061616997868383e-15 10
"></path></g></g><g transform="translate(69.28203230275508 240)"><g transform="translate(0 0)"><path d="M 17.32050807568877 20 l 8.660254037844387 4.999999999999999
M 17.32050807568877 20 l 6.123233995736766e-16 10
M 17.32050807568877 20 l -8.660254037844386 5.0000000000000036
M 17.32050807568877 20 l -1.8369701987210296e-15 -10
M 17.32050807568877 20 m 6.123233995736766e-16 10 l -8.660254037844389 -4.999999999999997
M 17.32050807568877 20 m -8.660254037844389 -4.999999999999997 l 8.660254037844384 -5.000000000000004
M 17.32050807568877 20 m -1.8369701987210296e-15 -10 l 8.66025403784439 4.999999999999993
"></path></g></g><g transform="translate(69.28203230275508 280)"><g transform="translate(0 0)"><path d="M 17.32050807568877 20 l 8.660254037844387 4.999999999999999
M 17.32050807568877 20 l 6.123233995736766e-16 10
M 17.32050807568877 20 l -8.660254037844389 -4.999999999999997
M 17.32050807568877 20 l -1.8369701987210296e-15 -10
M 17.32050807568877 20 m 8.660254037844387 4.999999999999999 l -8.660254037844386 5.0000000000000036
M 17.32050807568877 20 m -8.660254037844386 5.0000000000000036 l -1.8369701987210296e-15 -10
M 17.32050807568877 20 m -8.660254037844389 -4.999999999999997 l 8.660254037844384 -5.000000000000004
"></path></g></g><g transform="translate(69.28203230275508 320)"><g transform="translate(0 0)"><path d="M 17.32050807568877 20 l 6.123233995736766e-16 10
M 17.32050807568877 20 l -8.660254037844386 5.0000000000000036
M 17.32050807568877 20 l -8.660254037844389 -4.999999999999997
M 17.32050807568877 20 l 8.660254037844384 -5.000000000000004
M 17.32050807568877 20 m -8.660254037844386 5.0000000000000036 l -1.8369701987210296e-15 -10
M 17.32050807568877 20 m 8.660254037844384 -5.000000000000004 l 3.061616997868383e-15 10
"></path></g></g><g transform="translate(69.28203230275508 360)"><g transform="translate(0 0)"><path d="M 17.32050807568877 20 l 6.123233995736766e-16 10
M 17.32050807568877 20 l -8.660254037844389 -4.999999999999997
M 17.32050807568877 20 l -1.8369701987210296e-15 -10
M 17.32050807568877 20 m 8.660254037844387 4.999999999999999 l -8.660254037844386 5.0000000000000036
M 17.32050807568877 20 m 6.123233995736766e-16 10 l -8.660254037844389 -4.999999999999997
M 17.32050807568877 20 m -1.8369701987210296e-15 -10 l 8.66025403784439 4.999999999999993
M 17.32050807568877 20 m 8.660254037844384 -5.000000000000004 l 3.061616997868383e-15 10
"></path></g></g><g transform="translate(103.92304845413263 0)"><g transform="translate(0 0)"><path d="M 17.32050807568877 20 l 8.660254037844387 4.999999999999999
M 17.32050807568877 20 l -8.660254037844386 5.0000000000000036
M 17.32050807568877 20 l -8.660254037844389 -4.999999999999997
M 17.32050807568877 20 m 8.660254037844387 4.999999999999999 l -8.660254037844386 5.0000000000000036
M 17.32050807568877 20 m -8.660254037844389 -4.999999999999997 l 8.660254037844384 -5.000000000000004
M 17.32050807568877 20 m 8.660254037844384 -5.000000000000004 l 3.061616997868383e-15 10
"></path></g></g><g transform="translate(103.92304845413263 40)"><g transform="translate(0 0)"><path d="M 17.32050807568877 20 l -8.660254037844386 5.0000000000000036
M 17.32050807568877 20 l 8.660254037844384 -5.000000000000004
M 17.32050807568877 20 m -8.660254037844386 5.0000000000000036 l -1.8369701987210296e-15 -10
M 17.32050807568877 20 m 8.660254037844384 -5.000000000000004 l 3.061616997868383e-15 10
"></path></g></g><g transform="translate(103.92304845413263 80)"><g transform="translate(0 0)"><path d="M 17.32050807568877 20 l 6.123233995736766e-16 10
M 17.32050807568877 20 l -8.660254037844386 5.0000000000000036
M 17.32050807568877 20 l -1.8369701987210296e-15 -10
M 17.32050807568877 20 m 6.123233995736766e-16 10 l -8.660254037844389 -4.999999999999997
M 17.32050807568877 20 m -1.8369701987210296e-15 -10 l 8.66025403784439 4.999999999999993
"></path></g></g><g transform="translate(103.92304845413263 120)"><g transform="translate(0 0)"><path d="M 17.32050807568877 20 l 8.660254037844387 4.999999999999999
M 17.32050807568877 20 l -8.660254037844386 5.0000000000000036
M 17.32050807568877 20 l -8.660254037844389 -4.999999999999997
M 17.32050807568877 20 l -1.8369701987210296e-15 -10
M 17.32050807568877 20 m 8.660254037844387 4.999999999999999 l -8.660254037844386 5.0000000000000036
M 17.32050807568877 20 m -8.660254037844386 5.0000000000000036 l -1.8369701987210296e-15 -10
M 17.32050807568877 20 m -8.660254037844389 -4.999999999999997 l 8.660254037844384 -5.000000000000004
M 17.32050807568877 20 m 8.660254037844384 -5.000000000000004 l 3.061616997868383e-15 10
"></path></g></g><g transform="translate(103.92304845413263 160)"><g transform="translate(0 0)"><path d="M 17.32050807568877 20 l -8.660254037844386 5.0000000000000036
M 17.32050807568877 20 l 8.660254037844384 -5.000000000000004
M 17.32050807568877 20 m -8.660254037844386 5.0000000000000036 l -1.8369701987210296e-15 -10
M 17.32050807568877 20 m 8.660254037844384 -5.000000000000004 l 3.061616997868383e-15 10
"></path></g></g><g transform="translate(103.92304845413263 200)"><g transform="translate(0 0)"><path d="M 17.32050807568877 20 l 6.123233995736766e-16 10
M 17.32050807568877 20 l -1.8369701987210296e-15 -10
M 17.32050807568877 20 m 6.123233995736766e-16 10 l -8.660254037844389 -4.999999999999997
M 17.32050807568877 20 m -1.8369701987210296e-15 -10 l 8.66025403784439 4.999999999999993
M 17.32050807568877 20 m 8.660254037844384 -5.000000000000004 l 3.061616997868383e-15 10
"></path></g></g><g transform="translate(103.92304845413263 240)"><g transform="translate(0 0)"><path d="M 17.32050807568877 20 l 8.660254037844387 4.999999999999999
M 17.32050807568877 20 l -8.660254037844389 -4.999999999999997
M 17.32050807568877 20 m 8.660254037844387 4.999999999999999 l -8.660254037844386 5.0000000000000036
M 17.32050807568877 20 m -8.660254037844389 -4.999999999999997 l 8.660254037844384 -5.000000000000004
M 17.32050807568877 20 m -1.8369701987210296e-15 -10 l 8.66025403784439 4.999999999999993
"></path></g></g><g transform="translate(103.92304845413263 280)"><g transform="translate(0 0)"><path d="M 17.32050807568877 20 l -8.660254037844386 5.0000000000000036
M 17.32050807568877 20 l -8.660254037844389 -4.999999999999997
M 17.32050807568877 20 l 8.660254037844384 -5.000000000000004
M 17.32050807568877 20 m 8.660254037844387 4.999999999999999 l -8.660254037844386 5.0000000000000036
M 17.32050807568877 20 m -8.660254037844386 5.0000000000000036 l -1.8369701987210296e-15 -10
M 17.32050807568877 20 m 8.660254037844384 -5.000000000000004 l 3.061616997868383e-15 10
"></path></g></g><g transform="translate(103.92304845413263 320)"><g transform="translate(0 0)"><path d="M 17.32050807568877 20 l 6.123233995736766e-16 10
M 17.32050807568877 20 l -1.8369701987210296e-15 -10
M 17.32050807568877 20 m 6.123233995736766e-16 10 l -8.660254037844389 -4.999999999999997
M 17.32050807568877 20 m -1.8369701987210296e-15 -10 l 8.66025403784439 4.999999999999993
M 17.32050807568877 20 m 8.660254037844384 -5.000000000000004 l 3.061616997868383e-15 10
"></path></g></g><g transform="translate(103.92304845413263 360)"><g transform="translate(0 0)"><path d="M 17.32050807568877 20 l 8.660254037844387 4.999999999999999
M 17.32050807568877 20 l -8.660254037844389 -4.999999999999997
M 17.32050807568877 20 l -1.8369701987210296e-15 -10
M 17.32050807568877 20 m 8.660254037844387 4.999999999999999 l -8.660254037844386 5.0000000000000036
M 17.32050807568877 20 m -8.660254037844389 -4.999999999999997 l 8.660254037844384 -5.000000000000004
M 17.32050807568877 20 m 8.660254037844384 -5.000000000000004 l 3.061616997868383e-15 10
"></path></g></g><g transform="translate(138.56406460551017 0)"><g transform="translate(0 0)"><path d="M 17.32050807568877 20 l 8.660254037844387 4.999999999999999
M 17.32050807568877 20 l -8.660254037844386 5.0000000000000036
M 17.32050807568877 20 l 8.660254037844384 -5.000000000000004
M 17.32050807568877 20 m -8.660254037844386 5.0000000000000036 l -1.8369701987210296e-15 -10
M 17.32050807568877 20 m -1.8369701987210296e-15 -10 l 8.66025403784439 4.999999999999993
M 17.32050807568877 20 m 8.660254037844384 -5.000000000000004 l 3.061616997868383e-15 10
"></path></g></g><g transform="translate(138.56406460551017 40)"><g transform="translate(0 0)"><path d="M 17.32050807568877 20 l 6.123233995736766e-16 10
M 17.32050807568877 20 l -1.8369701987210296e-15 -10
M 17.32050807568877 20 l 8.660254037844384 -5.000000000000004
M 17.32050807568877 20 m 8.660254037844387 4.999999999999999 l -8.660254037844386 5.0000000000000036
M 17.32050807568877 20 m 6.123233995736766e-16 10 l -8.660254037844389 -4.999999999999997
M 17.32050807568877 20 m -1.8369701987210296e-15 -10 l 8.66025403784439 4.999999999999993
M 17.32050807568877 20 m 8.660254037844384 -5.000000000000004 l 3.061616997868383e-15 10
"></path></g></g><g transform="translate(138.56406460551017 80)"><g transform="translate(0 0)"><path d="M 17.32050807568877 20 l 8.660254037844387 4.999999999999999
M 17.32050807568877 20 l -8.660254037844389 -4.999999999999997
M 17.32050807568877 20 l -1.8369701987210296e-15 -10
M 17.32050807568877 20 m 8.660254037844387 4.999999999999999 l -8.660254037844386 5.0000000000000036
M 17.32050807568877 20 m -8.660254037844386 5.0000000000000036 l -1.8369701987210296e-15 -10
M 17.32050807568877 20 m -8.660254037844389 -4.999999999999997 l 8.660254037844384 -5.000000000000004
"></path></g></g><g transform="translate(138.56406460551017 120)"><g transform="translate(0 0)"><path d="M 17.32050807568877 20 l -8.660254037844386 5.0000000000000036
M 17.32050807568877 20 l 8.660254037844384 -5.000000000000004
M 17.32050807568877 20 m -8.660254037844386 5.0000000000000036 l -1.8369701987210296e-15 -10
M 17.32050807568877 20 m 8.660254037844384 -5.000000000000004 l 3.061616997868383e-15 10
"></path></g></g><g transform="translate(138.56406460551017 160)"><g transform="translate(0 0)"><path d="M 17.32050807568877 20 l 6.123233995736766e-16 10
M 17.32050807568877 20 l -8.660254037844389 -4.999999999999997
M 17.32050807568877 20 l -1.8369701987210296e-15 -10
M 17.32050807568877 20 m 6.123233995736766e-16 10 l -8.660254037844389 -4.999999999999997
M 17.32050807568877 20 m -1.8369701987210296e-15 -10 l 8.66025403784439 4.999999999999993
"></path></g></g><g transform="translate(138.56406460551017 200)"><g transform="translate(0 0)"><path d="M 17.32050807568877 20 l 8.660254037844387 4.999999999999999
M 17.32050807568877 20 l -8.660254037844389 -4.999999999999997
M 17.32050807568877 20 l -1.8369701987210296e-15 -10
M 17.32050807568877 20 l 8.660254037844384 -5.000000000000004
M 17.32050807568877 20 m 8.660254037844387 4.999999999999999 l -8.660254037844386 5.0000000000000036
M 17.32050807568877 20 m 6.123233995736766e-16 10 l -8.660254037844389 -4.999999999999997
M 17.32050807568877 20 m -8.660254037844389 -4.999999999999997 l 8.660254037844384 -5.000000000000004
"></path></g></g><g transform="translate(138.56406460551017 240)"><g transform="translate(0 0)"><path d="M 17.32050807568877 20 l -8.660254037844386 5.0000000000000036
M 17.32050807568877 20 l -1.8369701987210296e-15 -10
M 17.32050807568877 20 l 8.660254037844384 -5.000000000000004
M 17.32050807568877 20 m -8.660254037844386 5.0000000000000036 l -1.8369701987210296e-15 -10
M 17.32050807568877 20 m 8.660254037844384 -5.000000000000004 l 3.061616997868383e-15 10
"></path></g></g><g transform="translate(138.56406460551017 280)"><g transform="translate(0 0)"><path d="M 17.32050807568877 20 l 8.660254037844387 4.999999999999999
M 17.32050807568877 20 l 6.123233995736766e-16 10
M 17.32050807568877 20 l -1.8369701987210296e-15 -10
M 17.32050807568877 20 m 8.660254037844387 4.999999999999999 l -8.660254037844386 5.0000000000000036
M 17.32050807568877 20 m 6.123233995736766e-16 10 l -8.660254037844389 -4.999999999999997
M 17.32050807568877 20 m -1.8369701987210296e-15 -10 l 8.66025403784439 4.999999999999993
"></path></g></g><g transform="translate(138.56406460551017 320)"><g transform="translate(0 0)"><path d="M 17.32050807568877 20 l 8.660254037844387 4.999999999999999
M 17.32050807568877 20 l -8.660254037844386 5.0000000000000036
M 17.32050807568877 20 l -8.660254037844389 -4.999999999999997
M 17.32050807568877 20 m 8.660254037844387 4.999999999999999 l -8.660254037844386 5.0000000000000036
M 17.32050807568877 20 m -8.660254037844389 -4.999999999999997 l 8.660254037844384 -5.000000000000004
"></path></g></g><g transform="translate(138.56406460551017 360)"><g transform="translate(0 0)"><path d="M 17.32050807568877 20 l 8.660254037844387 4.999999999999999
M 17.32050807568877 20 l -8.660254037844386 5.0000000000000036
M 17.32050807568877 20 l -1.8369701987210296e-15 -10
M 17.32050807568877 20 l 8.660254037844384 -5.000000000000004
M 17.32050807568877 20 m 8.660254037844387 4.999999999999999 l -8.660254037844386 5.0000000000000036
M 17.32050807568877 20 m -8.660254037844386 5.0000000000000036 l -1.8369701987210296e-15 -10
M 17.32050807568877 20 m -1.8369701987210296e-15 -10 l 8.66025403784439 4.999999999999993
M 17.32050807568877 20 m 8.660254037844384 -5.000000000000004 l 3.061616997868383e-15 10
"></path></g></g><g transform="translate(173.2050807568877 0)"><g transform="translate(0 0)"><path d="M 17.32050807568877 20 l 6.123233995736766e-16 10
M 17.32050807568877 20 l -1.8369701987210296e-15 -10
M 17.32050807568877 20 m 8.660254037844387 4.999999999999999 l -8.660254037844386 5.0000000000000036
M 17.32050807568877 20 m 6.123233995736766e-16 10 l -8.660254037844389 -4.999999999999997
M 17.32050807568877 20 m -8.660254037844389 -4.999999999999997 l 8.660254037844384 -5.000000000000004
M 17.32050807568877 20 m -1.8369701987210296e-15 -10 l 8.66025403784439 4.999999999999993
M 17.32050807568877 20 m 8.660254037844384 -5.000000000000004 l 3.061616997868383e-15 10
"></path></g></g><g transform="translate(173.2050807568877 40)"><g transform="translate(0 0)"><path d="M 17.32050807568877 20 l 8.660254037844387 4.999999999999999
M 17.32050807568877 20 l -8.660254037844389 -4.999999999999997
M 17.32050807568877 20 l 8.660254037844384 -5.000000000000004
M 17.32050807568877 20 m 8.660254037844387 4.999999999999999 l -8.660254037844386 5.0000000000000036
M 17.32050807568877 20 m -8.660254037844389 -4.999999999999997 l 8.660254037844384 -5.000000000000004
"></path></g></g><g transform="translate(173.2050807568877 80)"><g transform="translate(0 0)"><path d="M 17.32050807568877 20 l 6.123233995736766e-16 10
M 17.32050807568877 20 l -8.660254037844386 5.0000000000000036
M 17.32050807568877 20 l -8.660254037844389 -4.999999999999997
M 17.32050807568877 20 l 8.660254037844384 -5.000000000000004
M 17.32050807568877 20 m -8.660254037844386 5.0000000000000036 l -1.8369701987210296e-15 -10
M 17.32050807568877 20 m 8.660254037844384 -5.000000000000004 l 3.061616997868383e-15 10
"></path></g></g><g transform="translate(173.2050807568877 120)"><g transform="translate(0 0)"><path d="M 17.32050807568877 20 l 6.123233995736766e-16 10
M 17.32050807568877 20 l -1.8369701987210296e-15 -10
M 17.32050807568877 20 l 8.660254037844384 -5.000000000000004
M 17.32050807568877 20 m 6.123233995736766e-16 10 l -8.660254037844389 -4.999999999999997
M 17.32050807568877 20 m -8.660254037844386 5.0000000000000036 l -1.8369701987210296e-15 -10
M 17.32050807568877 20 m -1.8369701987210296e-15 -10 l 8.66025403784439 4.999999999999993
M 17.32050807568877 20 m 8.660254037844384 -5.000000000000004 l 3.061616997868383e-15 10
"></path></g></g><g transform="translate(173.2050807568877 160)"><g transform="translate(0 0)"><path d="M 17.32050807568877 20 l 8.660254037844387 4.999999999999999
M 17.32050807568877 20 l -8.660254037844389 -4.999999999999997
M 17.32050807568877 20 m 8.660254037844387 4.999999999999999 l -8.660254037844386 5.0000000000000036
M 17.32050807568877 20 m -8.660254037844386 5.0000000000000036 l -1.8369701987210296e-15 -10
M 17.32050807568877 20 m -8.660254037844389 -4.999999999999997 l 8.660254037844384 -5.000000000000004
"></path></g></g><g transform="translate(173.2050807568877 200)"><g transform="translate(0 0)"><path d="M 17.32050807568877 20 l 8.660254037844387 4.999999999999999
M 17.32050807568877 20 l -8.660254037844386 5.0000000000000036
M 17.32050807568877 20 l -1.8369701987210296e-15 -10
M 17.32050807568877 20 l 8.660254037844384 -5.000000000000004
M 17.32050807568877 20 m 8.660254037844387 4.999999999999999 l -8.660254037844386 5.0000000000000036
M 17.32050807568877 20 m -8.660254037844386 5.0000000000000036 l -1.8369701987210296e-15 -10
M 17.32050807568877 20 m 8.660254037844384 -5.000000000000004 l 3.061616997868383e-15 10
"></path></g></g><g transform="translate(173.2050807568877 240)"><g transform="translate(0 0)"><path d="M 17.32050807568877 20 l 6.123233995736766e-16 10
M 17.32050807568877 20 l -1.8369701987210296e-15 -10
M 17.32050807568877 20 m 6.123233995736766e-16 10 l -8.660254037844389 -4.999999999999997
M 17.32050807568877 20 m -1.8369701987210296e-15 -10 l 8.66025403784439 4.999999999999993
"></path></g></g><g transform="translate(173.2050807568877 280)"><g transform="translate(0 0)"><path d="M 17.32050807568877 20 l 8.660254037844387 4.999999999999999
M 17.32050807568877 20 l -8.660254037844389 -4.999999999999997
M 17.32050807568877 20 l -1.8369701987210296e-15 -10
M 17.32050807568877 20 m 8.660254037844387 4.999999999999999 l -8.660254037844386 5.0000000000000036
M 17.32050807568877 20 m -8.660254037844386 5.0000000000000036 l -1.8369701987210296e-15 -10
M 17.32050807568877 20 m -8.660254037844389 -4.999999999999997 l 8.660254037844384 -5.000000000000004
"></path></g></g><g transform="translate(173.2050807568877 320)"><g transform="translate(0 0)"><path d="M 17.32050807568877 20 l 8.660254037844387 4.999999999999999
M 17.32050807568877 20 l -8.660254037844386 5.0000000000000036
M 17.32050807568877 20 l -1.8369701987210296e-15 -10
M 17.32050807568877 20 l 8.660254037844384 -5.000000000000004
M 17.32050807568877 20 m 8.660254037844387 4.999999999999999 l -8.660254037844386 5.0000000000000036
M 17.32050807568877 20 m -8.660254037844386 5.0000000000000036 l -1.8369701987210296e-15 -10
M 17.32050807568877 20 m 8.660254037844384 -5.000000000000004 l 3.061616997868383e-15 10
"></path></g></g><g transform="translate(173.2050807568877 360)"><g transform="translate(0 0)"><path d="M 17.32050807568877 20 l 6.123233995736766e-16 10
M 17.32050807568877 20 l -1.8369701987210296e-15 -10
M 17.32050807568877 20 m 6.123233995736766e-16 10 l -8.660254037844389 -4.999999999999997
M 17.32050807568877 20 m -8.660254037844386 5.0000000000000036 l -1.8369701987210296e-15 -10
M 17.32050807568877 20 m -8.660254037844389 -4.999999999999997 l 8.660254037844384 -5.000000000000004
M 17.32050807568877 20 m -1.8369701987210296e-15 -10 l 8.66025403784439 4.999999999999993
"></path></g></g><g transform="translate(207.84609690826525 0)"><g transform="translate(0 0)"><path d="M 17.32050807568877 20 l 8.660254037844387 4.999999999999999
M 17.32050807568877 20 l -8.660254037844389 -4.999999999999997
M 17.32050807568877 20 m 8.660254037844387 4.999999999999999 l -8.660254037844386 5.0000000000000036
M 17.32050807568877 20 m -8.660254037844389 -4.999999999999997 l 8.660254037844384 -5.000000000000004
"></path></g></g><g transform="translate(207.84609690826525 40)"><g transform="translate(0 0)"><path d="M 17.32050807568877 20 l -8.660254037844386 5.0000000000000036
M 17.32050807568877 20 l 8.660254037844384 -5.000000000000004
M 17.32050807568877 20 m -8.660254037844386 5.0000000000000036 l -1.8369701987210296e-15 -10
M 17.32050807568877 20 m -8.660254037844389 -4.999999999999997 l 8.660254037844384 -5.000000000000004
M 17.32050807568877 20 m -1.8369701987210296e-15 -10 l 8.66025403784439 4.999999999999993
M 17.32050807568877 20 m 8.660254037844384 -5.000000000000004 l 3.061616997868383e-15 10
"></path></g></g><g transform="translate(207.84609690826525 80)"><g transform="translate(0 0)"><path d="M 17.32050807568877 20 l 8.660254037844387 4.999999999999999
M 17.32050807568877 20 l 6.123233995736766e-16 10
M 17.32050807568877 20 l -1.8369701987210296e-15 -10
M 17.32050807568877 20 m 6.123233995736766e-16 10 l -8.660254037844389 -4.999999999999997
M 17.32050807568877 20 m -1.8369701987210296e-15 -10 l 8.66025403784439 4.999999999999993
"></path></g></g><g transform="translate(207.84609690826525 120)"><g transform="translate(0 0)"><path d="M 17.32050807568877 20 l 8.660254037844387 4.999999999999999
M 17.32050807568877 20 l -8.660254037844389 -4.999999999999997
M 17.32050807568877 20 l -1.8369701987210296e-15 -10
M 17.32050807568877 20 m 8.660254037844387 4.999999999999999 l -8.660254037844386 5.0000000000000036
M 17.32050807568877 20 m 6.123233995736766e-16 10 l -8.660254037844389 -4.999999999999997
M 17.32050807568877 20 m -8.660254037844389 -4.999999999999997 l 8.660254037844384 -5.000000000000004
"></path></g></g><g transform="translate(207.84609690826525 160)"><g transform="translate(0 0)"><path d="M 17.32050807568877 20 l -8.660254037844386 5.0000000000000036
M 17.32050807568877 20 l -8.660254037844389 -4.999999999999997
M 17.32050807568877 20 l -1.8369701987210296e-15 -10
M 17.32050807568877 20 l 8.660254037844384 -5.000000000000004
M 17.32050807568877 20 m -8.660254037844386 5.0000000000000036 l -1.8369701987210296e-15 -10
M 17.32050807568877 20 m 8.660254037844384 -5.000000000000004 l 3.061616997868383e-15 10
"></path></g></g><g transform="translate(207.84609690826525 200)"><g transform="translate(0 0)"><path d="M 17.32050807568877 20 l 6.123233995736766e-16 10
M 17.32050807568877 20 l -8.660254037844386 5.0000000000000036
M 17.32050807568877 20 l -1.8369701987210296e-15 -10
M 17.32050807568877 20 m 6.123233995736766e-16 10 l -8.660254037844389 -4.999999999999997
M 17.32050807568877 20 m -8.660254037844386 5.0000000000000036 l -1.8369701987210296e-15 -10
M 17.32050807568877 20 m -1.8369701987210296e-15 -10 l 8.66025403784439 4.999999999999993
"></path></g></g><g transform="translate(207.84609690826525 240)"><g transform="translate(0 0)"><path d="M 17.32050807568877 20 l 8.660254037844387 4.999999999999999
M 17.32050807568877 20 l -8.660254037844386 5.0000000000000036
M 17.32050807568877 20 l -8.660254037844389 -4.999999999999997
M 17.32050807568877 20 l 8.660254037844384 -5.000000000000004
M 17.32050807568877 20 m 8.660254037844387 4.999999999999999 l -8.660254037844386 5.0000000000000036
M 17.32050807568877 20 m -8.660254037844389 -4.999999999999997 l 8.660254037844384 -5.000000000000004
"></path></g></g><g transform="translate(207.84609690826525 280)"><g transform="translate(0 0)"><path d="M 17.32050807568877 20 l -8.660254037844386 5.0000000000000036
M 17.32050807568877 20 l 8.660254037844384 -5.000000000000004
M 17.32050807568877 20 m 6.123233995736766e-16 10 l -8.660254037844389 -4.999999999999997
M 17.32050807568877 20 m -8.660254037844386 5.0000000000000036 l -1.8369701987210296e-15 -10
M 17.32050807568877 20 m 8.660254037844384 -5.000000000000004 l 3.061616997868383e-15 10
"></path></g></g><g transform="translate(207.84609690826525 320)"><g transform="translate(0 0)"><path d="M 17.32050807568877 20 l 8.660254037844387 4.999999999999999
M 17.32050807568877 20 l 6.123233995736766e-16 10
M 17.32050807568877 20 l -1.8369701987210296e-15 -10
M 17.32050807568877 20 m 6.123233995736766e-16 10 l -8.660254037844389 -4.999999999999997
M 17.32050807568877 20 m -8.660254037844386 5.0000000000000036 l -1.8369701987210296e-15 -10
M 17.32050807568877 20 m -1.8369701987210296e-15 -10 l 8.66025403784439 4.999999999999993
"></path></g></g><g transform="translate(207.84609690826525 360)"><g transform="translate(0 0)"><path d="M 17.32050807568877 20 l 8.660254037844387 4.999999999999999
M 17.32050807568877 20 l -8.660254037844389 -4.999999999999997
M 17.32050807568877 20 l 8.660254037844384 -5.000000000000004
M 17.32050807568877 20 m 8.660254037844387 4.999999999999999 l -8.660254037844386 5.0000000000000036
M 17.32050807568877 20 m -8.660254037844389 -4.999999999999997 l 8.660254037844384 -5.000000000000004
M 17.32050807568877 20 m 8.660254037844384 -5.000000000000004 l 3.061616997868383e-15 10
"></path></g></g><g transform="translate(242.4871130596428 0)"><g transform="translate(0 0)"><path d="M 17.32050807568877 20 l -8.660254037844386 5.0000000000000036
M 17.32050807568877 20 l 8.660254037844384 -5.000000000000004
M 17.32050807568877 20 m -8.660254037844386 5.0000000000000036 l -1.8369701987210296e-15 -10
M 17.32050807568877 20 m -1.8369701987210296e-15 -10 l 8.66025403784439 4.999999999999993
M 17.32050807568877 20 m 8.660254037844384 -5.000000000000004 l 3.061616997868383e-15 10
"></path></g></g><g transform="translate(242.4871130596428 40)"><g transform="translate(0 0)"><path d="M 17.32050807568877 20 l 6.123233995736766e-16 10
M 17.32050807568877 20 l -8.660254037844389 -4.999999999999997
M 17.32050807568877 20 l -1.8369701987210296e-15 -10
M 17.32050807568877 20 m 6.123233995736766e-16 10 l -8.660254037844389 -4.999999999999997
M 17.32050807568877 20 m -1.8369701987210296e-15 -10 l 8.66025403784439 4.999999999999993
"></path></g></g><g transform="translate(242.4871130596428 80)"><g transform="translate(0 0)"><path d="M 17.32050807568877 20 l 8.660254037844387 4.999999999999999
M 17.32050807568877 20 l -8.660254037844389 -4.999999999999997
M 17.32050807568877 20 l -1.8369701987210296e-15 -10
M 17.32050807568877 20 m 8.660254037844387 4.999999999999999 l -8.660254037844386 5.0000000000000036
M 17.32050807568877 20 m -8.660254037844389 -4.999999999999997 l 8.660254037844384 -5.000000000000004
"></path></g></g><g transform="translate(242.4871130596428 120)"><g transform="translate(0 0)"><path d="M 17.32050807568877 20 l -8.660254037844386 5.0000000000000036
M 17.32050807568877 20 l 8.660254037844384 -5.000000000000004
M 17.32050807568877 20 m -8.660254037844386 5.0000000000000036 l -1.8369701987210296e-15 -10
M 17.32050807568877 20 m -1.8369701987210296e-15 -10 l 8.66025403784439 4.999999999999993
M 17.32050807568877 20 m 8.660254037844384 -5.000000000000004 l 3.061616997868383e-15 10
"></path></g></g><g transform="translate(242.4871130596428 160)"><g transform="translate(0 0)"><path d="M 17.32050807568877 20 l 8.660254037844387 4.999999999999999
M 17.32050807568877 20 l 6.123233995736766e-16 10
M 17.32050807568877 20 l -8.660254037844386 5.0000000000000036
M 17.32050807568877 20 l -8.660254037844389 -4.999999999999997
M 17.32050807568877 20 l -1.8369701987210296e-15 -10
M 17.32050807568877 20 m 6.123233995736766e-16 10 l -8.660254037844389 -4.999999999999997
M 17.32050807568877 20 m -1.8369701987210296e-15 -10 l 8.66025403784439 4.999999999999993
"></path></g></g><g transform="translate(242.4871130596428 200)"><g transform="translate(0 0)"><path d="M 17.32050807568877 20 l 8.660254037844387 4.999999999999999
M 17.32050807568877 20 l -8.660254037844389 -4.999999999999997
M 17.32050807568877 20 m 8.660254037844387 4.999999999999999 l -8.660254037844386 5.0000000000000036
M 17.32050807568877 20 m -8.660254037844389 -4.999999999999997 l 8.660254037844384 -5.000000000000004
"></path></g></g><g transform="translate(242.4871130596428 240)"><g transform="translate(0 0)"><path d="M 17.32050807568877 20 l -8.660254037844386 5.0000000000000036
M 17.32050807568877 20 l 8.660254037844384 -5.000000000000004
M 17.32050807568877 20 m -8.660254037844386 5.0000000000000036 l -1.8369701987210296e-15 -10
M 17.32050807568877 20 m -8.660254037844389 -4.999999999999997 l 8.660254037844384 -5.000000000000004
M 17.32050807568877 20 m 8.660254037844384 -5.000000000000004 l 3.061616997868383e-15 10
"></path></g></g><g transform="translate(242.4871130596428 280)"><g transform="translate(0 0)"><path d="M 17.32050807568877 20 l 6.123233995736766e-16 10
M 17.32050807568877 20 l -8.660254037844386 5.0000000000000036
M 17.32050807568877 20 l -1.8369701987210296e-15 -10
M 17.32050807568877 20 m 8.660254037844387 4.999999999999999 l -8.660254037844386 5.0000000000000036
M 17.32050807568877 20 m 6.123233995736766e-16 10 l -8.660254037844389 -4.999999999999997
M 17.32050807568877 20 m -8.660254037844389 -4.999999999999997 l 8.660254037844384 -5.000000000000004
M 17.32050807568877 20 m -1.8369701987210296e-15 -10 l 8.66025403784439 4.999999999999993
"></path></g></g><g transform="translate(242.4871130596428 320)"><g transform="translate(0 0)"><path d="M 17.32050807568877 20 l 8.660254037844387 4.999999999999999
M 17.32050807568877 20 l -8.660254037844389 -4.999999999999997
M 17.32050807568877 20 m 8.660254037844387 4.999999999999999 l -8.660254037844386 5.0000000000000036
M 17.32050807568877 20 m -8.660254037844386 5.0000000000000036 l -1.8369701987210296e-15 -10
M 17.32050807568877 20 m -8.660254037844389 -4.999999999999997 l 8.660254037844384 -5.000000000000004
M 17.32050807568877 20 m -1.8369701987210296e-15 -10 l 8.66025403784439 4.999999999999993
M 17.32050807568877 20 m 8.660254037844384 -5.000000000000004 l 3.061616997868383e-15 10
"></path></g></g><g transform="translate(242.4871130596428 360)"><g transform="translate(0 0)"><path d="M 17.32050807568877 20 l -8.660254037844386 5.0000000000000036
M 17.32050807568877 20 l -1.8369701987210296e-15 -10
M 17.32050807568877 20 l 8.660254037844384 -5.000000000000004
M 17.32050807568877 20 m 6.123233995736766e-16 10 l -8.660254037844389 -4.999999999999997
M 17.32050807568877 20 m -8.660254037844386 5.0000000000000036 l -1.8369701987210296e-15 -10
M 17.32050807568877 20 m 8.660254037844384 -5.000000000000004 l 3.061616997868383e-15 10
"></path></g></g><g transform="translate(277.12812921102034 0)"><g transform="translate(0 0)"><path d="M 17.32050807568877 20 l 6.123233995736766e-16 10
M 17.32050807568877 20 l -1.8369701987210296e-15 -10
M 17.32050807568877 20 m 6.123233995736766e-16 10 l -8.660254037844389 -4.999999999999997
M 17.32050807568877 20 m -1.8369701987210296e-15 -10 l 8.66025403784439 4.999999999999993
"></path></g></g><g transform="translate(277.12812921102034 40)"><g transform="translate(0 0)"><path d="M 17.32050807568877 20 l 8.660254037844387 4.999999999999999
M 17.32050807568877 20 l -8.660254037844386 5.0000000000000036
M 17.32050807568877 20 l -8.660254037844389 -4.999999999999997
M 17.32050807568877 20 m 8.660254037844387 4.999999999999999 l -8.660254037844386 5.0000000000000036
M 17.32050807568877 20 m -8.660254037844386 5.0000000000000036 l -1.8369701987210296e-15 -10
M 17.32050807568877 20 m -8.660254037844389 -4.999999999999997 l 8.660254037844384 -5.000000000000004
M 17.32050807568877 20 m 8.660254037844384 -5.000000000000004 l 3.061616997868383e-15 10
"></path></g></g><g transform="translate(277.12812921102034 80)"><g transform="translate(0 0)"><path d="M 17.32050807568877 20 l -8.660254037844386 5.0000000000000036
M 17.32050807568877 20 l 8.660254037844384 -5.000000000000004
M 17.32050807568877 20 m 6.123233995736766e-16 10 l -8.660254037844389 -4.999999999999997
M 17.32050807568877 20 m -8.660254037844386 5.0000000000000036 l -1.8369701987210296e-15 -10
M 17.32050807568877 20 m 8.660254037844384 -5.000000000000004 l 3.061616997868383e-15 10
"></path></g></g><g transform="translate(277.12812921102034 120)"><g transform="translate(0 0)"><path d="M 17.32050807568877 20 l 6.123233995736766e-16 10
M 17.32050807568877 20 l -1.8369701987210296e-15 -10
M 17.32050807568877 20 l 8.660254037844384 -5.000000000000004
M 17.32050807568877 20 m 6.123233995736766e-16 10 l -8.660254037844389 -4.999999999999997
M 17.32050807568877 20 m -1.8369701987210296e-15 -10 l 8.66025403784439 4.999999999999993
"></path></g></g><g transform="translate(277.12812921102034 160)"><g transform="translate(0 0)"><path d="M 17.32050807568877 20 l 8.660254037844387 4.999999999999999
M 17.32050807568877 20 l -8.660254037844389 -4.999999999999997
M 17.32050807568877 20 l 8.660254037844384 -5.000000000000004
M 17.32050807568877 20 m 8.660254037844387 4.999999999999999 l -8.660254037844386 5.0000000000000036
M 17.32050807568877 20 m 6.123233995736766e-16 10 l -8.660254037844389 -4.999999999999997
M 17.32050807568877 20 m -8.660254037844389 -4.999999999999997 l 8.660254037844384 -5.000000000000004
M 17.32050807568877 20 m -1.8369701987210296e-15 -10 l 8.66025403784439 4.999999999999993
"></path></g></g><g transform="translate(277.12812921102034 200)"><g transform="translate(0 0)"><path d="M 17.32050807568877 20 l 6.123233995736766e-16 10
M 17.32050807568877 20 l -8.660254037844386 5.0000000000000036
M 17.32050807568877 20 l -1.8369701987210296e-15 -10
M 17.32050807568877 20 l 8.660254037844384 -5.000000000000004
M 17.32050807568877 20 m 8.660254037844387 4.999999999999999 l -8.660254037844386 5.0000000000000036
M 17.32050807568877 20 m -8.660254037844386 5.0000000000000036 l -1.8369701987210296e-15 -10
M 17.32050807568877 20 m -1.8369701987210296e-15 -10 l 8.66025403784439 4.999999999999993
M 17.32050807568877 20 m 8.660254037844384 -5.000000000000004 l 3.061616997868383e-15 10
"></path></g></g><g transform="translate(277.12812921102034 240)"><g transform="translate(0 0)"><path d="M 17.32050807568877 20 l 6.123233995736766e-16 10
M 17.32050807568877 20 l -1.8369701987210296e-15 -10
M 17.32050807568877 20 l 8.660254037844384 -5.000000000000004
M 17.32050807568877 20 m 6.123233995736766e-16 10 l -8.660254037844389 -4.999999999999997
M 17.32050807568877 20 m -1.8369701987210296e-15 -10 l 8.66025403784439 4.999999999999993
"></path></g></g><g transform="translate(277.12812921102034 280)"><g transform="translate(0 0)"><path d="M 17.32050807568877 20 l 8.660254037844387 4.999999999999999
M 17.32050807568877 20 l 6.123233995736766e-16 10
M 17.32050807568877 20 l -8.660254037844389 -4.999999999999997
M 17.32050807568877 20 m 8.660254037844387 4.999999999999999 l -8.660254037844386 5.0000000000000036
M 17.32050807568877 20 m -8.660254037844389 -4.999999999999997 l 8.660254037844384 -5.000000000000004
"></path></g></g><g transform="translate(277.12812921102034 320)"><g transform="translate(0 0)"><path d="M 17.32050807568877 20 l -8.660254037844386 5.0000000000000036
M 17.32050807568877 20 l -1.8369701987210296e-15 -10
M 17.32050807568877 20 l 8.660254037844384 -5.000000000000004
M 17.32050807568877 20 m -8.660254037844386 5.0000000000000036 l -1.8369701987210296e-15 -10
M 17.32050807568877 20 m 8.660254037844384 -5.000000000000004 l 3.061616997868383e-15 10
"></path></g></g><g transform="translate(277.12812921102034 360)"><g transform="translate(0 0)"><path d="M 17.32050807568877 20 l 8.660254037844387 4.999999999999999
M 17.32050807568877 20 l 6.123233995736766e-16 10
M 17.32050807568877 20 l -8.660254037844389 -4.999999999999997
M 17.32050807568877 20 l -1.8369701987210296e-15 -10
M 17.32050807568877 20 l 8.660254037844384 -5.000000000000004
M 17.32050807568877 20 m 6.123233995736766e-16 10 l -8.660254037844389 -4.999999999999997
M 17.32050807568877 20 m -8.660254037844386 5.0000000000000036 l -1.8369701987210296e-15 -10
M 17.32050807568877 20 m -8.660254037844389 -4.999999999999997 l 8.660254037844384 -5.000000000000004
M 17.32050807568877 20 m -1.8369701987210296e-15 -10 l 8.66025403784439 4.999999999999993
"></path></g></g><g transform="translate(311.76914536239786 0)"><g transform="translate(0 0)"><path d="M 17.32050807568877 20 l 8.660254037844387 4.999999999999999
M 17.32050807568877 20 l -8.660254037844389 -4.999999999999997
M 17.32050807568877 20 l 8.660254037844384 -5.000000000000004
M 17.32050807568877 20 m 8.660254037844387 4.999999999999999 l -8.660254037844386 5.0000000000000036
M 17.32050807568877 20 m -8.660254037844389 -4.999999999999997 l 8.660254037844384 -5.000000000000004
M 17.32050807568877 20 m 8.660254037844384 -5.000000000000004 l 3.061616997868383e-15 10
"></path></g></g><g transform="translate(311.76914536239786 40)"><g transform="translate(0 0)"><path d="M 17.32050807568877 20 l -8.660254037844386 5.0000000000000036
M 17.32050807568877 20 l 8.660254037844384 -5.000000000000004
M 17.32050807568877 20 m -8.660254037844386 5.0000000000000036 l -1.8369701987210296e-15 -10
M 17.32050807568877 20 m -8.660254037844389 -4.999999999999997 l 8.660254037844384 -5.000000000000004
M 17.32050807568877 20 m 8.660254037844384 -5.000000000000004 l 3.061616997868383e-15 10
"></path></g></g><g transform="translate(311.76914536239786 80)"><g transform="translate(0 0)"><path d="M 17.32050807568877 20 l 6.123233995736766e-16 10
M 17.32050807568877 20 l -8.660254037844389 -4.999999999999997
M 17.32050807568877 20 l -1.8369701987210296e-15 -10
M 17.32050807568877 20 m 8.660254037844387 4.999999999999999 l -8.660254037844386 5.0000000000000036
M 17.32050807568877 20 m 6.123233995736766e-16 10 l -8.660254037844389 -4.999999999999997
M 17.32050807568877 20 m -8.660254037844386 5.0000000000000036 l -1.8369701987210296e-15 -10
M 17.32050807568877 20 m -8.660254037844389 -4.999999999999997 l 8.660254037844384 -5.000000000000004
M 17.32050807568877 20 m -1.8369701987210296e-15 -10 l 8.66025403784439 4.999999999999993
"></path></g></g><g transform="translate(311.76914536239786 120)"><g transform="translate(0 0)"><path d="M 17.32050807568877 20 l 8.660254037844387 4.999999999999999
M 17.32050807568877 20 l 6.123233995736766e-16 10
M 17.32050807568877 20 l -8.660254037844389 -4.999999999999997
M 17.32050807568877 20 m 8.660254037844387 4.999999999999999 l -8.660254037844386 5.0000000000000036
M 17.32050807568877 20 m -8.660254037844389 -4.999999999999997 l 8.660254037844384 -5.000000000000004
"></path></g></g><g transform="translate(311.76914536239786 160)"><g transform="translate(0 0)"><path d="M 17.32050807568877 20 l -8.660254037844386 5.0000000000000036
M 17.32050807568877 20 l -8.660254037844389 -4.999999999999997
M 17.32050807568877 20 l 8.660254037844384 -5.000000000000004
M 17.32050807568877 20 m 8.660254037844387 4.999999999999999 l -8.660254037844386 5.0000000000000036
M 17.32050807568877 20 m -8.660254037844386 5.0000000000000036 l -1.8369701987210296e-15 -10
M 17.32050807568877 20 m 8.660254037844384 -5.000000000000004 l 3.061616997868383e-15 10
"></path></g></g><g transform="translate(311.76914536239786 200)"><g transform="translate(0 0)"><path d="M 17.32050807568877 20 l 6.123233995736766e-16 10
M 17.32050807568877 20 l -8.660254037844386 5.0000000000000036
M 17.32050807568877 20 l -1.8369701987210296e-15 -10
M 17.32050807568877 20 m 8.660254037844387 4.999999999999999 l -8.660254037844386 5.0000000000000036
M 17.32050807568877 20 m 6.123233995736766e-16 10 l -8.660254037844389 -4.999999999999997
M 17.32050807568877 20 m -1.8369701987210296e-15 -10 l 8.66025403784439 4.999999999999993
"></path></g></g><g transform="translate(311.76914536239786 240)"><g transform="translate(0 0)"><path d="M 17.32050807568877 20 l 8.660254037844387 4.999999999999999
M 17.32050807568877 20 l -8.660254037844389 -4.999999999999997
M 17.32050807568877 20 m 8.660254037844387 4.999999999999999 l -8.660254037844386 5.0000000000000036
M 17.32050807568877 20 m 6.123233995736766e-16 10 l -8.660254037844389 -4.999999999999997
M 17.32050807568877 20 m -8.660254037844389 -4.999999999999997 l 8.660254037844384 -5.000000000000004
"></path></g></g><g transform="translate(311.76914536239786 280)"><g transform="translate(0 0)"><path d="M 17.32050807568877 20 l 8.660254037844387 4.999999999999999
M 17.32050807568877 20 l -8.660254037844386 5.0000000000000036
M 17.32050807568877 20 l 8.660254037844384 -5.000000000000004
M 17.32050807568877 20 m -8.660254037844386 5.0000000000000036 l -1.8369701987210296e-15 -10
M 17.32050807568877 20 m 8.660254037844384 -5.000000000000004 l 3.061616997868383e-15 10
"></path></g></g><g transform="translate(311.76914536239786 320)"><g transform="translate(0 0)"><path d="M 17.32050807568877 20 l 6.123233995736766e-16 10
M 17.32050807568877 20 l -1.8369701987210296e-15 -10
M 17.32050807568877 20 m 6.123233995736766e-16 10 l -8.660254037844389 -4.999999999999997
M 17.32050807568877 20 m -1.8369701987210296e-15 -10 l 8.66025403784439 4.999999999999993
"></path></g></g><g transform="translate(311.76914536239786 360)"><g transform="translate(0 0)"><path d="M 17.32050807568877 20 l 8.660254037844387 4.999999999999999
M 17.32050807568877 20 l -8.660254037844389 -4.999999999999997
M 17.32050807568877 20 m 8.660254037844387 4.999999999999999 l -8.660254037844386 5.0000000000000036
M 17.32050807568877 20 m 6.123233995736766e-16 10 l -8.660254037844389 -4.999999999999997
M 17.32050807568877 20 m -8.660254037844389 -4.999999999999997 l 8.660254037844384 -5.000000000000004
M 17.32050807568877 20 m -1.8369701987210296e-15 -10 l 8.66025403784439 4.999999999999993
"></path></g></g></g></g></svg>