<?xml version="1.0" standalone="no"?>
<svg class="Sketch" id="sketch" width="862.102355330306" height="180" viewBox="0 0 862.102355330306 180" xmlns="http://www.w3.org/2000/svg" fill="none" stroke="black"><g id="border"><path d="M 0 0 L 862.102355330306 0 L 862.102355330306 180 L 0 180 L 0 0"></path></g><g id="isocubelang"><g transform="translate(150 50)"><g transform="translate(0 0)"><path d="M 30.095561605923 40 l 17.37568059459261 0
M 30.095561605923 40 l 8.687840297296306 15.047780802961498
M 30.095561605923 40 l -8.687840297296301 15.0477808029615
M 30.095561605923 40 l -17.37568059459261 2.127907162317462e-15
M 30.095561605923 40 l 8.687840297296292 -15.047780802961507
M 30.095561605923 40 m 17.37568059459261 0 l -8.687840297296301 15.0477808029615
M 30.095561605923 40 m 8.687840297296306 15.047780802961498 l -17.37568059459261 2.127907162317462e-15
M 30.095561605923 40 m -8.687840297296301 15.0477808029615 l -8.687840297296312 -15.047780802961496
M 30.095561605923 40 m -17.37568059459261 2.127907162317462e-15 l 8.687840297296292 -15.047780802961507
M 30.095561605923 40 m -8.687840297296312 -15.047780802961496 l 17.37568059459261 -4.255814324634924e-15
M 30.095561605923 40 m 8.687840297296292 -15.047780802961507 l 8.687840297296328 15.047780802961487
"></path></g><g transform="translate(60.191123211846 0)"><path d="M 30.095561605923 40 l 8.687840297296306 15.047780802961498
M 30.095561605923 40 l -8.687840297296301 15.0477808029615
M 30.095561605923 40 l -8.687840297296312 -15.047780802961496
M 30.095561605923 40 l 8.687840297296292 -15.047780802961507
M 30.095561605923 40 m -8.687840297296301 15.0477808029615 l -8.687840297296312 -15.047780802961496
M 30.095561605923 40 m 8.687840297296292 -15.047780802961507 l 8.687840297296328 15.047780802961487
"></path></g><g transform="translate(120.382246423692 0)"><path d="M 30.095561605923 40 l 8.687840297296306 15.047780802961498
M 30.095561605923 40 l -8.687840297296312 -15.047780802961496
M 30.095561605923 40 m 8.687840297296306 15.047780802961498 l -17.37568059459261 2.127907162317462e-15
M 30.095561605923 40 m -8.687840297296312 -15.047780802961496 l 17.37568059459261 -4.255814324634924e-15
"></path></g><g transform="translate(180.573369635538 0)"><path d="M 30.095561605923 40 l 17.37568059459261 0
M 30.095561605923 40 l -17.37568059459261 2.127907162317462e-15
M 30.095561605923 40 m 17.37568059459261 0 l -8.687840297296301 15.0477808029615
M 30.095561605923 40 m -17.37568059459261 2.127907162317462e-15 l 8.687840297296292 -15.047780802961507
M 30.095561605923 40 m -8.687840297296312 -15.047780802961496 l 17.37568059459261 -4.255814324634924e-15
M 30.095561605923 40 m 8.687840297296292 -15.047780802961507 l 8.687840297296328 15.047780802961487
"></path></g><g transform="translate(240.764492847384 0)"><path d="M 30.095561605923 40 l -8.687840297296301 15.0477808029615
M 30.095561605923 40 l -17.37568059459261 2.127907162317462e-15
M 30.095561605923 40 l -8.687840297296312 -15.047780802961496
M 30.095561605923 40 l 8.687840297296292 -15.047780802961507
M 30.095561605923 40 m -8.687840297296301 15.0477808029615 l -8.687840297296312 -15.047780802961496
M 30.095561605923 40 m 8.687840297296292 -15.047780802961507 l 8.687840297296328 15.047780802961487
"></path></g><g transform="translate(300.95561605923 0)"><path d="M 30.095561605923 40 l 8.687840297296306 15.047780802961498
M 30.095561605923 40 l -8.687840297296312 -15.047780802961496
M 30.095561605923 40 m 17.37568059459261 0 l -8.687840297296301 15.0477808029615
M 30.095561605923 40 m 8.687840297296306 15.047780802961498 l -17.37568059459261 2.127907162317462e-15
M 30.095561605923 40 m -8.687840297296301 15.0477808029615 l -8.687840297296312 -15.047780802961496
M 30.095561605923 40 m -8.687840297296312 -15.047780802961496 l 17.37568059459261 -4.255814324634924e-15
"></path></g><g transform="translate(361.146739271076 0)"><path d="M 30.095561605923 40 l 17.37568059459261 0
M 30.095561605923 40 l -17.37568059459261 2.127907162317462e-15
M 30.095561605923 40 m 17.37568059459261 0 l -8.687840297296301 15.0477808029615
M 30.095561605923 40 m 8.687840297296306 15.047780802961498 l -17.37568059459261 2.127907162317462e-15
M 30.095561605923 40 m -17.37568059459261 2.127907162317462e-15 l 8.687840297296292 -15.047780802961507
"></path></g><g transform="translate(421.337862482922 0)"><path d="M 30.095561605923 40 l 17.37568059459261 0
M 30.095561605923 40 l -8.687840297296301 15.0477808029615
M 30.095561605923 40 l -17.37568059459261 2.127907162317462e-15
M 30.095561605923 40 l 8.687840297296292 -15.047780802961507
M 30.095561605923 40 m -8.687840297296301 15.0477808029615 l -8.687840297296312 -15.047780802961496
M 30.095561605923 40 m 8.687840297296292 -15.047780802961507 l 8.687840297296328 15.047780802961487
"></path></g><g transform="translate(481.528985694768 0)"><path d="M 30.095561605923 40 l 8.687840297296306 15.047780802961498
M 30.095561605923 40 l -17.37568059459261 2.127907162317462e-15
M 30.095561605923 40 l -8.687840297296312 -15.047780802961496
M 30.095561605923 40 m 8.687840297296306 15.047780802961498 l -17.37568059459261 2.127907162317462e-15
M 30.095561605923 40 m -8.687840297296312 -15.047780802961496 l 17.37568059459261 -4.255814324634924e-15
"></path></g><g transform="translate(541.720108906614 0)"><path d="M 30.095561605923 40 l 17.37568059459261 0
M 30.095561605923 40 l -17.37568059459261 2.127907162317462e-15
M 30.095561605923 40 m 17.37568059459261 0 l -8.687840297296301 15.0477808029615
M 30.095561605923 40 m -17.37568059459261 2.127907162317462e-15 l 8.687840297296292 -15.047780802961507
M 30.095561605923 40 m -8.687840297296312 -15.047780802961496 l 17.37568059459261 -4.255814324634924e-15
M 30.095561605923 40 m 8.687840297296292 -15.047780802961507 l 8.687840297296328 15.047780802961487
"></path></g><g transform="translate(601.91123211846 0)"><path d="M 30.095561605923 40 l -8.687840297296301 15.0477808029615
M 30.095561605923 40 l -17.37568059459261 2.127907162317462e-15
M 30.095561605923 40 l 8.687840297296292 -15.047780802961507
M 30.095561605923 40 m 8.687840297296306 15.047780802961498 l -17.37568059459261 2.127907162317462e-15
M 30.095561605923 40 m -8.687840297296301 15.0477808029615 l -8.687840297296312 -15.047780802961496
M 30.095561605923 40 m 8.687840297296292 -15.047780802961507 l 8.687840297296328 15.047780802961487
"></path></g></g></g><g id="burner"><circle cx="50" cy="90" r="7"></circle><rect width="862.102355330306" height="180" rx="15"></rect></g></svg>