<?xml version="1.0" standalone="no"?>
<svg class="Sketch" id="sketch" width="823.5382907247958" height="680" viewBox="0 0 823.5382907247958 680" xmlns="http://www.w3.org/2000/svg" fill="none" stroke="black"><g id="border"><path d="M 0 0 L 823.5382907247958 0 L 823.5382907247958 680 L 0 680 L 0 0"></path></g><g id="isocubelang"><g transform="translate(100 100)"><g transform="translate(0 0)"><path d="M 34.64101615137755 40 l -9.151858800266785 -17.783235940063875
M 34.64101615137755 40 l 10.824804685454376 -16.817360182911145
M 34.64101615137755 40 l 9.151858800266787 17.783235940063875
M 34.64101615137755 40 l -19.976663485721154 -0.9658757571526935
M 34.64101615137755 40 m -9.151858800266785 -17.783235940063875 l 19.97666348572115 0.9658757571527314
M 34.64101615137755 40 m 9.151858800266787 17.783235940063875 l -19.97666348572115 -0.965875757152729
"></path></g><g transform="translate(0 80)"><path d="M 34.64101615137755 40 l 8.446619834143691 18.12883375668304
M 34.64101615137755 40 l -19.923340491344238 -1.7494295258635773
M 34.64101615137755 40 l 11.476720657200538 -16.379404230819464
M 34.64101615137755 40 l 19.92334049134424 1.749429525863566
M 34.64101615137755 40 m 8.446619834143691 18.12883375668304 l -19.923340491344238 -1.7494295258635773
M 34.64101615137755 40 m -19.923340491344238 -1.7494295258635773 l 11.476720657200538 -16.379404230819464
M 34.64101615137755 40 m 19.92334049134424 1.749429525863566 l -11.476720657200536 16.379404230819468
"></path></g><g transform="translate(0 160)"><path d="M 34.64101615137755 40 l 18.271135857861314 8.134223654631995
M 34.64101615137755 40 l 2.0911236039550527 19.890379636220676
M 34.64101615137755 40 l -18.271135857861314 -8.134223654631993
M 34.64101615137755 40 l -2.09112360395506 -19.890379636220676
M 34.64101615137755 40 m 18.271135857861314 8.134223654631995 l -16.18001225390626 11.756155981588686
M 34.64101615137755 40 m 2.0911236039550527 19.890379636220676 l -18.271135857861314 -8.134223654631993
M 34.64101615137755 40 m -16.18001225390626 11.756155981588686 l -2.09112360395506 -19.890379636220676
M 34.64101615137755 40 m -2.09112360395506 -19.890379636220676 l 18.271135857861314 8.13422365463199
"></path></g><g transform="translate(0 240)"><path d="M 34.64101615137755 40 l -19.969669145973423 1.1010514067731605
M 34.64101615137755 40 l -10.938373062124862 -16.7437150821967
M 34.64101615137755 40 l 19.969669145973423 -1.1010514067731607
M 34.64101615137755 40 l -9.031296083848549 17.844766488969867
M 34.64101615137755 40 m -19.969669145973423 1.1010514067731605 l 9.031296083848558 -17.844766488969864
M 34.64101615137755 40 m 9.031296083848558 -17.844766488969864 l 10.938373062124871 16.743715082196697
M 34.64101615137755 40 m 19.969669145973423 -1.1010514067731607 l -9.031296083848556 17.844766488969864
"></path></g><g transform="translate(0 320)"><path d="M 34.64101615137755 40 l 18.841808183904284 -6.70718006027553
M 34.64101615137755 40 l -3.6123157719970784 19.671074570632417
M 34.64101615137755 40 l -18.841808183904273 6.707180060275565
M 34.64101615137755 40 m 18.841808183904284 -6.70718006027553 l -3.6123157719970784 19.671074570632417
M 34.64101615137755 40 m 15.229492411907199 12.96389451035688 l -18.841808183904284 6.707180060275531
M 34.64101615137755 40 m -18.841808183904273 6.707180060275565 l 3.612315771997041 -19.67107457063242
"></path></g><g transform="translate(0 400)"><path d="M 34.64101615137755 40 l -0.8871874049543532 19.98031277303963
M 34.64101615137755 40 l -16.859864734533847 -10.758483217127871
M 34.64101615137755 40 l 0.8871874049543419 -19.98031277303963
M 34.64101615137755 40 m -0.8871874049543532 19.98031277303963 l -16.859864734533847 -10.758483217127871
M 34.64101615137755 40 m -16.859864734533847 -10.758483217127871 l 17.74705213948819 -9.221829555911768
M 34.64101615137755 40 m 0.8871874049543419 -19.98031277303963 l 16.859864734533847 10.75848321712787
"></path></g><g transform="translate(69.2820323027551 0)"><path d="M 34.64101615137755 40 l 17.62971950403413 -9.44420405376116
M 34.64101615137755 40 l -0.6359391229359106 19.98988697896813
M 34.64101615137755 40 l 0.6359391229358903 -19.98988697896813
M 34.64101615137755 40 m -0.6359391229359106 19.98988697896813 l -16.993780381098208 -10.545682925206963
M 34.64101615137755 40 m 0.6359391229358903 -19.98988697896813 l 16.99378038109823 10.54568292520693
"></path></g><g transform="translate(69.2820323027551 80)"><path d="M 34.64101615137755 40 l -14.491355277054662 -13.784071322877725
M 34.64101615137755 40 l 19.183033571716013 -5.657846143756161
M 34.64101615137755 40 l 14.49135527705467 13.784071322877718
M 34.64101615137755 40 l -4.691678294661334 19.44191746663389
M 34.64101615137755 40 m -14.491355277054662 -13.784071322877725 l 19.183033571716013 -5.657846143756164
M 34.64101615137755 40 m 14.49135527705467 13.784071322877718 l -19.183033571716013 5.657846143756173
M 34.64101615137755 40 m -4.691678294661334 19.44191746663389 l -14.491355277054678 -13.78407132287771
"></path></g><g transform="translate(69.2820323027551 160)"><path d="M 34.64101615137755 40 l 0.27621684640636207 -19.998092515381597
M 34.64101615137755 40 l -0.27621684640635963 19.998092515381597
M 34.64101615137755 40 l -17.180747722348734 -10.238257063631918
M 34.64101615137755 40 m 0.27621684640636207 -19.998092515381597 l 17.18074772234873 10.23825706363193
M 34.64101615137755 40 m 17.18074772234873 10.23825706363193 l -17.456964568755087 9.759835451749673
M 34.64101615137755 40 m -0.27621684640635963 19.998092515381597 l -17.18074772234873 -10.238257063631927
M 34.64101615137755 40 m -17.456964568755087 9.759835451749673 l 0.2762168464063394 -19.998092515381597
"></path></g><g transform="translate(69.2820323027551 240)"><path d="M 34.64101615137755 40 l 18.90673341688172 -6.521919311289291
M 34.64101615137755 40 l 15.101514513449695 13.112751785955089
M 34.64101615137755 40 l -18.906733416881718 6.521919311289302
M 34.64101615137755 40 m 18.90673341688172 -6.521919311289291 l -3.805218903432019 19.63467109724438
M 34.64101615137755 40 m -18.906733416881718 6.521919311289302 l 3.805218903432008 -19.63467109724438
"></path></g><g transform="translate(69.2820323027551 320)"><path d="M 34.64101615137755 40 l 16.559491951295282 -11.215312136315553
M 34.64101615137755 40 l 1.4329992457735465 19.948596771743436
M 34.64101615137755 40 l -16.559491951295282 11.215312136315553
M 34.64101615137755 40 m 16.559491951295282 -11.215312136315553 l 1.4329992457735643 19.948596771743432
M 34.64101615137755 40 m -16.559491951295282 11.215312136315553 l -1.4329992457735667 -19.948596771743432
"></path></g><g transform="translate(69.2820323027551 400)"><path d="M 34.64101615137755 40 l -17.196209722613744 10.212265721958307
M 34.64101615137755 40 l 17.196209722613748 -10.212265721958302
M 34.64101615137755 40 m -17.196209722613744 10.212265721958307 l -0.24597668410605672 -19.998487329567613
M 34.64101615137755 40 m -17.4421864067198 -9.7862216076093 l 17.196209722613737 -10.212265721958317
M 34.64101615137755 40 m 17.196209722613748 -10.212265721958302 l 0.24597668410604137 19.998487329567613
"></path></g><g transform="translate(138.5640646055102 0)"><path d="M 34.64101615137755 40 l 15.089038196960548 -13.127106546785768
M 34.64101615137755 40 l -15.089038196960534 13.127106546785782
M 34.64101615137755 40 m 15.089038196960548 -13.127106546785768 l 3.823888649221215 19.631043670634458
M 34.64101615137755 40 m 18.912926846181765 6.503937123848686 l -15.089038196960534 13.127106546785782
M 34.64101615137755 40 m -15.089038196960534 13.127106546785782 l -3.823888649221252 -19.63104367063445
"></path></g><g transform="translate(138.5640646055102 80)"><path d="M 34.64101615137755 40 l -9.122426957595412 -17.798351788953287
M 34.64101615137755 40 l 9.122426957595414 17.798351788953283
M 34.64101615137755 40 l -10.852611315928042 16.799429383922263
M 34.64101615137755 40 m -9.122426957595412 -17.798351788953287 l 19.97503827352346 0.9989224050310335
M 34.64101615137755 40 m 19.97503827352346 0.9989224050310335 l -10.852611315928042 16.799429383922263
M 34.64101615137755 40 m 9.122426957595414 17.798351788953283 l -19.97503827352346 -0.998922405031031
M 34.64101615137755 40 m -10.852611315928042 16.799429383922263 l -9.122426957595431 -17.798351788953276
"></path></g><g transform="translate(138.5640646055102 160)"><path d="M 34.64101615137755 40 l 19.466900021997823 4.586916560560186
M 34.64101615137755 40 l 5.7610637445142485 19.152288232262055
M 34.64101615137755 40 l -5.761063744514258 -19.152288232262052
M 34.64101615137755 40 m 5.7610637445142485 19.152288232262055 l -19.466900021997827 -4.586916560560181
M 34.64101615137755 40 m -13.705836277483577 14.565371671701868 l -5.761063744514242 -19.152288232262055
M 34.64101615137755 40 m -19.466900021997827 -4.586916560560173 l 13.705836277483561 -14.56537167170188
M 34.64101615137755 40 m -5.761063744514258 -19.152288232262052 l 19.466900021997827 4.586916560560179
"></path></g><g transform="translate(138.5640646055102 240)"><path d="M 34.64101615137755 40 l -0.887699189500576 19.980290041662563
M 34.64101615137755 40 l -17.74728834581131 9.221374971804924
M 34.64101615137755 40 l 0.8876991895005736 -19.980290041662563
M 34.64101615137755 40 m -0.887699189500576 19.980290041662563 l -16.859589156310733 -10.758915069857633
M 34.64101615137755 40 m 0.8876991895005736 -19.980290041662563 l 16.85958915631074 10.758915069857624
M 34.64101615137755 40 m 17.747288345811302 -9.221374971804934 l -0.887699189500571 19.980290041662563
"></path></g><g transform="translate(138.5640646055102 320)"><path d="M 34.64101615137755 40 l 0.41126852866139035 -19.99577100782395
M 34.64101615137755 40 l 17.111211396701215 10.354054497509786
M 34.64101615137755 40 l -0.4112685286613879 19.99577100782395
M 34.64101615137755 40 l -17.5224799253626 9.64171651031417
M 34.64101615137755 40 m 0.41126852866139035 -19.99577100782395 l 17.111211396701215 10.354054497509784
M 34.64101615137755 40 m 17.522479925362603 -9.641716510314163 l -0.4112685286613879 19.99577100782395
M 34.64101615137755 40 m -0.4112685286613879 19.99577100782395 l -17.111211396701215 -10.35405449750978
"></path></g><g transform="translate(138.5640646055102 400)"><path d="M 34.64101615137755 40 l -19.92640208775711 -1.7142053077240027
M 34.64101615137755 40 l 19.92640208775711 1.7142053077240091
M 34.64101615137755 40 m -19.92640208775711 -1.7142053077240027 l 11.447746387669659 -16.399667760158938
M 34.64101615137755 40 m 19.92640208775711 1.7142053077240091 l -11.447746387669673 16.399667760158927
"></path></g><g transform="translate(207.84609690826528 0)"><path d="M 34.64101615137755 40 l -19.98282518311333 0.8286722519379112
M 34.64101615137755 40 l -10.709063813146154 -16.891298121990616
M 34.64101615137755 40 l 9.273761369967172 -17.71997037392853
M 34.64101615137755 40 l 19.98282518311333 -0.8286722519379113
M 34.64101615137755 40 l -9.273761369967161 17.719970373928533
M 34.64101615137755 40 m -19.98282518311333 0.8286722519379112 l 9.273761369967172 -17.71997037392853
M 34.64101615137755 40 m 19.98282518311333 -0.8286722519379113 l -9.273761369967168 17.71997037392853
M 34.64101615137755 40 m -9.273761369967161 17.719970373928533 l -10.709063813146164 -16.89129812199061
"></path></g><g transform="translate(207.84609690826528 80)"><path d="M 34.64101615137755 40 l 10.544597566044684 16.99445386501622
M 34.64101615137755 40 l -9.445329987524337 17.629116297386368
M 34.64101615137755 40 l -19.989927553569025 0.6346624323701516
M 34.64101615137755 40 l 19.989927553569025 -0.6346624323701541
M 34.64101615137755 40 m -19.989927553569025 0.6346624323701516 l 9.445329987524342 -17.629116297386364
M 34.64101615137755 40 m 9.445329987524342 -17.629116297386364 l 10.544597566044695 16.99445386501621
M 34.64101615137755 40 m 19.989927553569025 -0.6346624323701541 l -9.445329987524339 17.629116297386364
"></path></g><g transform="translate(207.84609690826528 160)"><path d="M 34.64101615137755 40 l 17.040569058563396 -10.469909558364485
M 34.64101615137755 40 l 17.587492182150857 9.522610920476728
M 34.64101615137755 40 l -17.040569058563374 10.469909558364517
M 34.64101615137755 40 l -17.587492182150868 -9.52261092047671
M 34.64101615137755 40 m 17.040569058563396 -10.469909558364485 l 0.546923123587472 19.992520478841218
M 34.64101615137755 40 m -17.040569058563374 10.469909558364517 l -0.5469231235875099 -19.992520478841218
"></path></g><g transform="translate(207.84609690826528 240)"><path d="M 34.64101615137755 40 l -19.98272832822419 0.8310045489565748
M 34.64101615137755 40 l 19.98272832822419 -0.8310045489565749
M 34.64101615137755 40 m -19.98272832822419 0.8310045489565748 l 9.27169311405527 -17.721052643643386
M 34.64101615137755 40 m 19.98272832822419 -0.8310045489565749 l -9.271693114055267 17.72105264364339
M 34.64101615137755 40 m 10.711035214168927 16.890048094686804 l -19.98272832822419 0.8310045489565886
"></path></g><g transform="translate(207.84609690826528 320)"><path d="M 34.64101615137755 40 l -15.753802749037146 12.321432503748493
M 34.64101615137755 40 l -18.547574933780066 -7.482477135001049
M 34.64101615137755 40 l 15.753802749037149 -12.321432503748486
M 34.64101615137755 40 m 2.7937721847429153 19.80390963874954 l -18.547574933780066 -7.482477135001049
M 34.64101615137755 40 m -15.753802749037146 12.321432503748493 l -2.7937721847429264 -19.803909638749538
M 34.64101615137755 40 m -18.547574933780066 -7.482477135001049 l 15.753802749037138 -12.321432503748502
M 34.64101615137755 40 m 15.753802749037149 -12.321432503748486 l 2.7937721847429113 19.80390963874954
"></path></g><g transform="translate(207.84609690826528 400)"><path d="M 34.64101615137755 40 l -1.2060778209893457 19.963601285582662
M 34.64101615137755 40 l 1.2060778209893432 -19.963601285582662
M 34.64101615137755 40 l 17.892024774832933 -8.937306610873586
M 34.64101615137755 40 m -1.2060778209893457 19.963601285582662 l -16.685946953843594 -11.02629467470908
M 34.64101615137755 40 m -17.89202477483294 8.937306610873575 l 1.2060778209893432 -19.963601285582662
M 34.64101615137755 40 m -16.685946953843587 -11.026294674709089 l 17.892024774832933 -8.937306610873586
M 34.64101615137755 40 m 1.2060778209893432 -19.963601285582662 l 16.68594695384359 11.026294674709087
"></path></g><g transform="translate(277.1281292110204 0)"><path d="M 34.64101615137755 40 l 11.16990245672527 -16.590156090502674
M 34.64101615137755 40 l -11.169902456725252 16.590156090502685
M 34.64101615137755 40 m 11.16990245672527 -16.590156090502674 l 8.782545398761803 17.968497330569633
M 34.64101615137755 40 m -11.169902456725252 16.590156090502685 l -8.782545398761838 -17.968497330569615
"></path></g><g transform="translate(277.1281292110204 80)"><path d="M 34.64101615137755 40 l 15.08882033220262 -13.12735696865553
M 34.64101615137755 40 l -15.088820332202607 13.127356968655546
M 34.64101615137755 40 m 15.08882033220262 -13.12735696865553 l 3.8242144533010567 19.630980205154387
M 34.64101615137755 40 m -15.088820332202607 13.127356968655546 l -3.8242144533010936 -19.63098020515438
"></path></g><g transform="translate(277.1281292110204 160)"><path d="M 34.64101615137755 40 l -17.108960049726413 10.357774182558032
M 34.64101615137755 40 l -17.524575593621066 -9.637906944117125
M 34.64101615137755 40 l -0.4156155438946344 -19.995681126675162
M 34.64101615137755 40 l 17.108960049726416 -10.357774182558028
M 34.64101615137755 40 m -17.108960049726413 10.357774182558032 l -0.41561554389465216 -19.995681126675162
M 34.64101615137755 40 m 17.108960049726416 -10.357774182558028 l 0.4156155438946546 19.995681126675162
M 34.64101615137755 40 m 0.4156155438946546 19.995681126675162 l -17.524575593621073 -9.637906944117113
"></path></g><g transform="translate(277.1281292110204 240)"><path d="M 34.64101615137755 40 l 13.440890736663729 -14.810214590108657
M 34.64101615137755 40 l 19.546467438864894 4.235045532387409
M 34.64101615137755 40 l 6.105576702201165 19.045260122496057
M 34.64101615137755 40 l -13.440890736663713 14.81021459010867
M 34.64101615137755 40 m -6.105576702201163 -19.045260122496057 l 19.546467438864898 4.235045532387392
M 34.64101615137755 40 m 13.440890736663729 -14.810214590108657 l 6.105576702201165 19.045260122496057
M 34.64101615137755 40 m 6.105576702201165 19.045260122496057 l -19.546467438864898 -4.23504553238739
M 34.64101615137755 40 m -13.440890736663713 14.81021459010867 l -6.1055767022012 -19.045260122496046
"></path></g><g transform="translate(277.1281292110204 320)"><path d="M 34.64101615137755 40 l -1.4334202691009637 -19.948566523239975
M 34.64101615137755 40 l 16.55925524365915 -11.215661628960955
M 34.64101615137755 40 l -16.55925524365914 11.215661628960971
M 34.64101615137755 40 l -17.992675512760126 -8.732904894279013
M 34.64101615137755 40 m 16.55925524365915 -11.215661628960955 l 1.433420269100966 19.948566523239975
M 34.64101615137755 40 m 17.992675512760115 8.73290489427903 l -16.55925524365916 11.215661628960943
M 34.64101615137755 40 m -16.55925524365914 11.215661628960971 l -1.4334202691010043 -19.948566523239972
"></path></g><g transform="translate(277.1281292110204 400)"><path d="M 34.64101615137755 40 l 17.254251251449983 10.113892116877496
M 34.64101615137755 40 l -17.254251251449986 -10.113892116877494
M 34.64101615137755 40 m 17.254251251449983 10.113892116877496 l -17.386013130076076 9.885673848596385
M 34.64101615137755 40 m -17.254251251449986 -10.113892116877494 l 17.386013130076073 -9.885673848596387
M 34.64101615137755 40 m 0.13176187862609143 -19.999565965473877 l 17.254251251449983 10.113892116877501
"></path></g><g transform="translate(346.4101615137755 0)"><path d="M 34.64101615137755 40 l -0.546501172790485 -19.992532017434378
M 34.64101615137755 40 l 17.04079002667668 -10.469549907551745
M 34.64101615137755 40 l 17.587291199467167 9.522982109882644
M 34.64101615137755 40 l 0.5465011727904874 19.992532017434378
M 34.64101615137755 40 l -17.04079002667667 10.469549907551762
M 34.64101615137755 40 m 17.04079002667668 -10.469549907551745 l 0.5465011727904874 19.992532017434378
M 34.64101615137755 40 m -17.04079002667667 10.469549907551762 l -0.5465011727905253 -19.992532017434378
"></path></g><g transform="translate(346.4101615137755 80)"><path d="M 34.64101615137755 40 l -19.975143840669993 0.9968091816108523
M 34.64101615137755 40 l 19.975143840669993 -0.9968091816108525
M 34.64101615137755 40 m -19.975143840669993 0.9968091816108523 l 9.12430984633442 -17.797386601073903
M 34.64101615137755 40 m 19.975143840669993 -0.9968091816108525 l -9.124309846334416 17.797386601073903
"></path></g><g transform="translate(346.4101615137755 160)"><path d="M 34.64101615137755 40 l -15.33524388695358 -12.838625118276996
M 34.64101615137755 40 l 3.4509535586160855 -19.700023338470317
M 34.64101615137755 40 l 15.335243886953588 12.838625118276987
M 34.64101615137755 40 m -3.4509535586160878 19.700023338470317 l -15.33524388695358 -12.838625118276996
M 34.64101615137755 40 m -15.33524388695358 -12.838625118276996 l 18.78619744556966 -6.8613982201933235
M 34.64101615137755 40 m 3.4509535586160855 -19.700023338470317 l 15.335243886953574 12.838625118277003
M 34.64101615137755 40 m 15.335243886953588 12.838625118276987 l -18.78619744556966 6.861398220193325
"></path></g><g transform="translate(346.4101615137755 240)"><path d="M 34.64101615137755 40 l 16.37861278045347 -11.477850120469702
M 34.64101615137755 40 l 1.750803394930301 19.923219806856036
M 34.64101615137755 40 l -16.37861278045347 11.477850120469704
M 34.64101615137755 40 m 16.37861278045347 -11.477850120469702 l 1.7508033949303188 19.923219806856036
M 34.64101615137755 40 m -16.37861278045347 11.477850120469704 l -1.750803394930321 -19.923219806856036
"></path></g><g transform="translate(346.4101615137755 320)"><path d="M 34.64101615137755 40 l -9.275326782851423 -17.719151025693055
M 34.64101615137755 40 l 9.275326782851424 17.71915102569305
M 34.64101615137755 40 l -10.707571530317558 16.892244135198055
M 34.64101615137755 40 l -19.982898313168988 -0.8269068904949726
M 34.64101615137755 40 m -9.275326782851423 -17.719151025693055 l 19.982898313168988 0.8269068904950104
M 34.64101615137755 40 m 9.275326782851424 17.71915102569305 l -19.982898313168988 -0.8269068904950079
M 34.64101615137755 40 m -19.982898313168988 -0.8269068904949726 l 10.707571530317528 -16.892244135198073
"></path></g><g transform="translate(346.4101615137755 400)"><path d="M 34.64101615137755 40 l -7.5846490804763995 -18.506028702183208
M 34.64101615137755 40 l 19.819015519492822 2.684515568608756
M 34.64101615137755 40 l -19.819015519492822 -2.6845155686087425
M 34.64101615137755 40 m 19.819015519492822 2.684515568608756 l -12.234366439016416 15.821513133574454
M 34.64101615137755 40 m -19.819015519492822 -2.6845155686087425 l 12.234366439016407 -15.821513133574461
"></path></g><g transform="translate(415.69219381653056 0)"><path d="M 34.64101615137755 40 l 17.302577869688147 10.030991928188268
M 34.64101615137755 40 l -17.302577869688147 -10.030991928188266
M 34.64101615137755 40 m 17.302577869688147 10.030991928188268 l -17.338382769811762 9.968976022014239
M 34.64101615137755 40 m -17.302577869688147 -10.030991928188266 l 17.338382769811762 -9.968976022014232
M 34.64101615137755 40 m 17.338382769811755 -9.968976022014248 l -0.0358049001236054 19.999967950202503
"></path></g><g transform="translate(415.69219381653056 80)"><path d="M 34.64101615137755 40 l 3.787526125081242 19.63809170596337
M 34.64101615137755 40 l -3.787526125081244 -19.638091705963365
M 34.64101615137755 40 m 3.787526125081242 19.63809170596337 l -18.900849361753384 -6.538952011164087
M 34.64101615137755 40 m -15.11332323667214 13.099139694799275 l -3.787526125081244 -19.638091705963365
M 34.64101615137755 40 m -3.787526125081244 -19.638091705963365 l 18.90084936175338 6.538952011164093
"></path></g><g transform="translate(415.69219381653056 160)"><path d="M 34.64101615137755 40 l 16.55930581523505 -11.2155869626838
M 34.64101615137755 40 l 1.433330320420194 19.948572986370838
M 34.64101615137755 40 l -16.55930581523505 11.215586962683801
M 34.64101615137755 40 l -17.99263613565526 -8.732986023687014
M 34.64101615137755 40 m -1.4333303204201913 -19.948572986370838 l 17.992636135655243 8.732986023687047
M 34.64101615137755 40 m 16.55930581523505 -11.2155869626838 l 1.4333303204202117 19.948572986370834
M 34.64101615137755 40 m 1.433330320420194 19.948572986370838 l -17.992636135655243 -8.732986023687046
M 34.64101615137755 40 m -16.55930581523505 11.215586962683801 l -1.433330320420214 -19.948572986370834
"></path></g><g transform="translate(415.69219381653056 240)"><path d="M 34.64101615137755 40 l -19.975160381360546 0.9964776660438598
M 34.64101615137755 40 l -10.850555163778086 -16.800757501904755
M 34.64101615137755 40 l 19.975160381360546 -0.99647766604386
M 34.64101615137755 40 m -19.975160381360546 0.9964776660438598 l 9.12460521758246 -17.797235167948617
M 34.64101615137755 40 m 19.975160381360546 -0.99647766604386 l -9.124605217582458 17.79723516794862
M 34.64101615137755 40 m -9.124605217582449 17.797235167948624 l -10.850555163778097 -16.800757501904744
"></path></g><g transform="translate(415.69219381653056 320)"><path d="M 34.64101615137755 40 l 8.478273397179091 18.114052009494877
M 34.64101615137755 40 l -19.926365904284673 -1.7146258625605433
M 34.64101615137755 40 l 19.926365904284673 1.7146258625605406
M 34.64101615137755 40 m -19.926365904284673 -1.7146258625605433 l 11.448092507105574 -16.399426146934328
M 34.64101615137755 40 m -8.47827339717909 -18.11405200949488 l 19.92636590428467 1.7146258625605584
M 34.64101615137755 40 m 19.926365904284673 1.7146258625605406 l -11.448092507105574 16.39942614693433
"></path></g><g transform="translate(415.69219381653056 400)"><path d="M 34.64101615137755 40 l -18.807023587717577 6.804106390337732
M 34.64101615137755 40 l -15.296040777943308 -12.885307001367707
M 34.64101615137755 40 l 15.296040777943308 12.885307001367707
M 34.64101615137755 40 m -18.807023587717577 6.804106390337732 l 3.5109828097742706 -19.689413391705443
M 34.64101615137755 40 m -15.296040777943308 -12.885307001367707 l 18.807023587717573 -6.8041063903377434
M 34.64101615137755 40 m 3.5109828097742706 -19.689413391705443 l 15.296040777943308 12.885307001367705
M 34.64101615137755 40 m 15.296040777943308 12.885307001367707 l -18.807023587717573 6.804106390337745
"></path></g><g transform="translate(484.9742261192857 0)"><path d="M 34.64101615137755 40 l -5.3077238264565585 -19.282843871744266
M 34.64101615137755 40 l 19.353294563367896 5.044798265888812
M 34.64101615137755 40 l 5.30772382645656 19.282843871744266
M 34.64101615137755 40 m -19.3532945633679 -5.044798265888805 l 14.045570736911335 -14.238045605855465
M 34.64101615137755 40 m -5.3077238264565585 -19.282843871744266 l 19.3532945633679 5.044798265888795
M 34.64101615137755 40 m 5.30772382645656 19.282843871744266 l -19.3532945633679 -5.044798265888792
"></path></g><g transform="translate(484.9742261192857 80)"><path d="M 34.64101615137755 40 l -16.378231789502006 -11.478393766087052
M 34.64101615137755 40 l 1.751464701321322 -19.92316168182213
M 34.64101615137755 40 l 18.129696490823328 -8.44476791573507
M 34.64101615137755 40 l 16.378231789502006 11.478393766087052
M 34.64101615137755 40 l -1.7514647013213105 19.92316168182213
M 34.64101615137755 40 m -16.378231789502006 -11.478393766087052 l 18.129696490823324 -8.444767915735081
M 34.64101615137755 40 m 16.378231789502006 11.478393766087052 l -18.129696490823324 8.444767915735083
M 34.64101615137755 40 m -1.7514647013213105 19.92316168182213 l -16.378231789502014 -11.47839376608704
"></path></g><g transform="translate(484.9742261192857 160)"><path d="M 34.64101615137755 40 l -17.19508318508717 10.214162435458553
M 34.64101615137755 40 l 17.195083185087174 -10.214162435458547
M 34.64101615137755 40 m -17.19508318508717 10.214162435458553 l -0.24818255494425795 -19.998460076201404
M 34.64101615137755 40 m 17.195083185087174 -10.214162435458547 l 0.24818255494426036 19.998460076201404
M 34.64101615137755 40 m 17.443265740031425 9.784297640742851 l -17.195083185087174 10.21416243545855
"></path></g><g transform="translate(484.9742261192857 240)"><path d="M 34.64101615137755 40 l -19.69238309276622 3.4942879285678843
M 34.64101615137755 40 l 19.69238309276622 -3.494287928567887
M 34.64101615137755 40 m -6.820049432106025 18.80124798367466 l -12.872333660660207 -15.30696005510677
M 34.64101615137755 40 m -19.69238309276622 3.4942879285678843 l 6.820049432106022 -18.80124798367466
M 34.64101615137755 40 m 19.69238309276622 -3.494287928567887 l -6.82004943210602 18.80124798367466
"></path></g><g transform="translate(484.9742261192857 320)"><path d="M 34.64101615137755 40 l -18.48636265000937 7.632456745526881
M 34.64101615137755 40 l -15.853082759916866 -12.193431305716482
M 34.64101615137755 40 l 18.48636265000937 -7.632456745526881
M 34.64101615137755 40 l 15.853082759916866 12.193431305716482
M 34.64101615137755 40 m -15.853082759916866 -12.193431305716482 l 18.486362650009365 -7.63245674552689
M 34.64101615137755 40 m 15.853082759916866 12.193431305716482 l -18.486362650009365 7.632456745526892
"></path></g><g transform="translate(484.9742261192857 400)"><path d="M 34.64101615137755 40 l 17.318898412268148 10.002787500768775
M 34.64101615137755 40 l -0.003218878189141939 19.99999974097058
M 34.64101615137755 40 l -17.318898412268148 -10.002787500768772
M 34.64101615137755 40 m 17.318898412268148 10.002787500768775 l -17.322117290457285 9.997212240201812
M 34.64101615137755 40 m -17.318898412268148 -10.002787500768772 l 17.32211729045728 -9.997212240201815
M 34.64101615137755 40 m 0.0032188781891394893 -19.99999974097058 l 17.318898412268144 10.002787500768777
"></path></g><g transform="translate(554.2562584220408 0)"><path d="M 34.64101615137755 40 l 15.2960407779433 -12.885307001367716
M 34.64101615137755 40 l 3.510982809774276 19.689413391705443
M 34.64101615137755 40 l -15.296040777943288 12.885307001367732
M 34.64101615137755 40 m -3.5109828097742737 -19.689413391705443 l 18.807023587717584 6.804106390337721
M 34.64101615137755 40 m 15.2960407779433 -12.885307001367716 l 3.510982809774276 19.689413391705443
M 34.64101615137755 40 m -15.296040777943288 12.885307001367732 l -3.5109828097743128 -19.68941339170544
"></path></g><g transform="translate(554.2562584220408 80)"><path d="M 34.64101615137755 40 l 19.992399342108893 0.5513334251104052
M 34.64101615137755 40 l -19.992399342108893 -0.551333425110385
M 34.64101615137755 40 m 19.992399342108893 0.5513334251104052 l -10.473668423155546 17.038259000314397
M 34.64101615137755 40 m -19.992399342108893 -0.551333425110385 l 10.473668423155516 -17.038259000314415
"></path></g><g transform="translate(554.2562584220408 160)"><path d="M 34.64101615137755 40 l -7.159229082322184 -18.674727279048344
M 34.64101615137755 40 l 7.159229082322203 18.674727279048337
M 34.64101615137755 40 m -19.752402773563205 -3.1372893827208053 l 12.593173691241018 -15.537437896327543
M 34.64101615137755 40 m -7.159229082322184 -18.674727279048344 l 19.752402773563208 3.1372893827207937
M 34.64101615137755 40 m 7.159229082322203 18.674727279048337 l -19.752402773563208 -3.1372893827207915
"></path></g><g transform="translate(554.2562584220408 240)"><path d="M 34.64101615137755 40 l -15.296098878011556 -12.885238030944315
M 34.64101615137755 40 l 15.296098878011556 12.885238030944315
M 34.64101615137755 40 m -18.806992907612937 6.804191191684493 l 3.5108940296013804 -19.689429222628814
M 34.64101615137755 40 m -15.296098878011556 -12.885238030944315 l 18.806992907612933 -6.804191191684503
M 34.64101615137755 40 m 3.5108940296013804 -19.689429222628814 l 15.296098878011557 12.885238030944315
M 34.64101615137755 40 m 18.806992907612937 -6.8041911916844935 l -3.510894029601378 19.689429222628814
M 34.64101615137755 40 m 15.296098878011556 12.885238030944315 l -18.806992907612933 6.804191191684506
M 34.64101615137755 40 m -3.5108940296013693 19.689429222628817 l -15.296098878011565 -12.885238030944306
"></path></g><g transform="translate(554.2562584220408 320)"><path d="M 34.64101615137755 40 l -9.122070030971557 -17.79853472480391
M 34.64101615137755 40 l 10.85294820633388 -16.79921174432403
M 34.64101615137755 40 l 9.122070030971559 17.79853472480391
M 34.64101615137755 40 l -10.852948206333862 16.79921174432404
M 34.64101615137755 40 m -9.122070030971557 -17.79853472480391 l 19.97501823730544 0.9993229804798744
M 34.64101615137755 40 m 19.97501823730544 0.9993229804798922 l -10.852948206333892 16.799211744324023
M 34.64101615137755 40 m 9.122070030971559 17.79853472480391 l -19.97501823730544 -0.9993229804798719
M 34.64101615137755 40 m -19.97501823730544 -0.9993229804798364 l 10.85294820633383 -16.79921174432406
"></path></g><g transform="translate(554.2562584220408 400)"><path d="M 34.64101615137755 40 l 19.56037899615125 4.170320554456824
M 34.64101615137755 40 l 6.168585955991611 19.024945395546954
M 34.64101615137755 40 l -6.168585955991622 -19.02494539554695
M 34.64101615137755 40 m 6.168585955991611 19.024945395546954 l -19.56037899615125 -4.170320554456819
M 34.64101615137755 40 m -13.391793040159643 14.854624841090127 l -6.168585955991622 -19.02494539554695
M 34.64101615137755 40 m -6.168585955991622 -19.02494539554695 l 19.560378996151258 4.1703205544568
"></path></g></g></g></svg>