<?xml version="1.0" standalone="no"?>
<svg class="Sketch" id="sketch" width="576" height="384" viewBox="0 0 576 384" xmlns="http://www.w3.org/2000/svg" fill="none" stroke="black"><g id="border"><path d="M 0 0 L 576 0 L 576 384 L 0 384 L 0 0"></path></g><g id="linerects"><g transform="translate(50 50)"><g transform="translate(0 0)"><path transform="rotate(0, 55.75, 44)" d="M 0,0 v 88 h 15.928571428571429 v -88 h 15.928571428571429 v 88 h 15.928571428571429 v -88 h 15.928571428571429 v 88 h 15.928571428571429 v -88 h 15.928571428571429 v 88 "></path></g><g transform="translate(0 98)"><path transform="rotate(14.400000000000002, 55.75, 44)" d="M 0,0 v 88 h 15.928571428571429 v -88 h 15.928571428571429 v 88 h 15.928571428571429 v -88 h 15.928571428571429 v 88 h 15.928571428571429 v -88 h 15.928571428571429 v 88 "></path></g><g transform="translate(0 196)"><path transform="rotate(28.800000000000004, 55.75, 44)" d="M 0,0 v 88 h 15.928571428571429 v -88 h 15.928571428571429 v 88 h 15.928571428571429 v -88 h 15.928571428571429 v 88 h 15.928571428571429 v -88 h 15.928571428571429 v 88 "></path></g><g transform="translate(121.5 0)"><path transform="rotate(7.200000000000001, 55.75, 44)" d="M 0,0 v 88 h 15.928571428571429 v -88 h 15.928571428571429 v 88 h 15.928571428571429 v -88 h 15.928571428571429 v 88 h 15.928571428571429 v -88 h 15.928571428571429 v 88 "></path></g><g transform="translate(121.5 98)"><path transform="rotate(28.800000000000004, 55.75, 44)" d="M 0,0 v 88 h 15.928571428571429 v -88 h 15.928571428571429 v 88 h 15.928571428571429 v -88 h 15.928571428571429 v 88 h 15.928571428571429 v -88 h 15.928571428571429 v 88 "></path></g><g transform="translate(121.5 196)"><path transform="rotate(50.400000000000006, 55.75, 44)" d="M 0,0 v 88 h 15.928571428571429 v -88 h 15.928571428571429 v 88 h 15.928571428571429 v -88 h 15.928571428571429 v 88 h 15.928571428571429 v -88 h 15.928571428571429 v 88 "></path></g><g transform="translate(243 0)"><path transform="rotate(14.400000000000002, 55.75, 44)" d="M 0,0 v 88 h 15.928571428571429 v -88 h 15.928571428571429 v 88 h 15.928571428571429 v -88 h 15.928571428571429 v 88 h 15.928571428571429 v -88 h 15.928571428571429 v 88 "></path></g><g transform="translate(243 98)"><path transform="rotate(43.2, 55.75, 44)" d="M 0,0 v 88 h 15.928571428571429 v -88 h 15.928571428571429 v 88 h 15.928571428571429 v -88 h 15.928571428571429 v 88 h 15.928571428571429 v -88 h 15.928571428571429 v 88 "></path></g><g transform="translate(243 196)"><path transform="rotate(72, 55.75, 44)" d="M 0,0 v 88 h 15.928571428571429 v -88 h 15.928571428571429 v 88 h 15.928571428571429 v -88 h 15.928571428571429 v 88 h 15.928571428571429 v -88 h 15.928571428571429 v 88 "></path></g><g transform="translate(364.5 0)"><path transform="rotate(21.6, 55.75, 44)" d="M 0,0 v 88 h 15.928571428571429 v -88 h 15.928571428571429 v 88 h 15.928571428571429 v -88 h 15.928571428571429 v 88 h 15.928571428571429 v -88 h 15.928571428571429 v 88 "></path></g><g transform="translate(364.5 98)"><path transform="rotate(57.60000000000001, 55.75, 44)" d="M 0,0 v 88 h 15.928571428571429 v -88 h 15.928571428571429 v 88 h 15.928571428571429 v -88 h 15.928571428571429 v 88 h 15.928571428571429 v -88 h 15.928571428571429 v 88 "></path></g><g transform="translate(364.5 196)"><path transform="rotate(93.60000000000001, 55.75, 44)" d="M 0,0 v 88 h 15.928571428571429 v -88 h 15.928571428571429 v 88 h 15.928571428571429 v -88 h 15.928571428571429 v 88 h 15.928571428571429 v -88 h 15.928571428571429 v 88 "></path></g></g></g></svg>