<?xml version="1.0" encoding="UTF-8" standalone="no"?>
<svg
   xmlns:dc="http://purl.org/dc/elements/1.1/"
   xmlns:cc="http://creativecommons.org/ns#"
   xmlns:rdf="http://www.w3.org/1999/02/22-rdf-syntax-ns#"
   xmlns:svg="http://www.w3.org/2000/svg"
   xmlns="http://www.w3.org/2000/svg"
   xmlns:sodipodi="http://sodipodi.sourceforge.net/DTD/sodipodi-0.dtd"
   xmlns:inkscape="http://www.inkscape.org/namespaces/inkscape"
   inkscape:version="1.0 (4035a4f, 2020-05-01)"
   class="Sketch"
   id="sketch"
   width="576"
   height="384"
   viewBox="0 0 576 384"
   fill="none"
   stroke="black"
   version="1.1"
   sodipodi:docname="postcard_back_sofia_template.svg">
  <metadata
     id="metadata29">
    <rdf:RDF>
      <cc:Work
         rdf:about="">
        <dc:format>image/svg+xml</dc:format>
        <dc:type
           rdf:resource="http://purl.org/dc/dcmitype/StillImage" />
        <dc:title />
      </cc:Work>
    </rdf:RDF>
  </metadata>
  <defs
     id="defs27" />
  <sodipodi:namedview
     inkscape:document-rotation="0"
     pagecolor="#ffffff"
     bordercolor="#666666"
     borderopacity="1"
     objecttolerance="10"
     gridtolerance="10"
     guidetolerance="10"
     inkscape:pageopacity="0"
     inkscape:pageshadow="2"
     inkscape:window-width="1440"
     inkscape:window-height="872"
     id="namedview25"
     showgrid="false"
     inkscape:zoom="1.4576896"
     inkscape:cx="255.95671"
     inkscape:cy="186.72768"
     inkscape:window-x="0"
     inkscape:window-y="28"
     inkscape:window-maximized="0"
     inkscape:current-layer="sketch" />
  <g
     style="fill:none;stroke:#000000;stroke-opacity:1"
     id="border">
    <path
       style="fill:none;stroke:#000000;stroke-opacity:1"
       d="M 0 0 L 576 0 L 576 384 L 0 384 L 0 0"
       id="path10" />
  </g>
  <g
     style="fill:none;stroke:#000000;stroke-opacity:1"
     id="postcard_back_template">
    <g
       style="fill:none;stroke:#000000;stroke-opacity:1"
       id="postcard-divider">
      <line
         style="fill:none;stroke:#000000;stroke-opacity:1"
         x1="288"
         y1="10"
         x2="288"
         y2="374"
         stroke="black"
         id="line13" />
    </g>
    <g
       style="fill:none;stroke:#000000;stroke-opacity:1"
       id="g3426" />
  </g>
  <g
     transform="translate(-4.703,21.134)"
     inkscape:label="Hershey Text"
     style="fill:none;stroke:#000000;stroke-linecap:round;stroke-linejoin:round"
     id="sofia">
    <g
       transform="translate(297.383,205.586)"
       id="g3675">
      <path
         d="m 630,567 -63,63 -95,32 H 346 l -94,-32 -63,-63 v -63 l 31,-63 32,-31 63,-32 157,-63 64,-31 31,-32 31,-63 V 94.5 L 567,63 472,31.5 H 346 L 284,63 252,94.5 H 189 M 630,567 h -63 l -31,31 -64,32 H 346 l -94,-32 -32,-31 v -63 l 32,-63 63,-31 157,-64 64,-31 62,-63 32,-63 V 94.5 L 567,31.5 472,0 H 346 l -94,31.5 -63,63"
         style="stroke-width:0.125in"
         transform="scale(0.04,-0.04)"
         id="path3653" />
      <path
         d="M 346,441 284,410 220,346 189,252 V 189 L 220,94.5 284,31.5 346,0 h 95 l 63,31.5 63,63 31,94.5 v 63 l -31,94 -63,64 -63,31 h -95 m 0,-31 -62,-32 -32,-32 -32,-94 V 189 L 252,94.5 284,63 346,31.5 h 95 l 63,31.5 32,31.5 31,94.5 v 63 l -31,94 -32,32 -63,32 h -95"
         style="stroke-width:0.125in"
         transform="matrix(0.04,0,0,-0.04,25.2,0)"
         id="path3655" />
      <path
         d="M 441,662 H 378 L 315,630 284,536 V 0 h 31 m 126,662 v -32 h -63 l -63,-32 m 31,32 -31,-94 V 0 M 189,441 h 221 v -31 m -221,31 v -31 h 221"
         style="stroke-width:0.125in"
         transform="matrix(0.04,0,0,-0.04,49.12,0)"
         id="path3657" />
      <path
         d="m 220,662 -31,-32 v -32 l 31,-31 h 32 l 32,31 v 32 l -32,32 h -32 m 0,-32 v -32 h 32 v 32 h -32 m 0,-189 V 0 h 32 m -32,441 h 32 V 0"
         style="stroke-width:0.125in"
         transform="matrix(0.04,0,0,-0.04,66.76,0)"
         id="path3659" />
      <path
         d="M 567,441 V 0 h 31 m -31,441 h 31 V 0 m -31,346 -63,64 -63,31 H 346 L 284,410 220,346 189,252 V 189 L 220,94.5 284,31.5 346,0 h 95 l 63,31.5 63,63 M 567,346 441,410 H 346 L 284,378 252,346 220,252 V 189 L 252,94.5 284,63 346,31.5 h 95 l 126,63"
         style="stroke-width:0.125in"
         transform="matrix(0.04,0,0,-0.04,78.12,0)"
         id="path3661" />
      <path
         d="M 220,662 V 0 m 32,504 V 0 H 220 M 252,504 472,0 M 220,662 472,94.5 M 724,662 472,94.5 M 693,504 472,0 M 693,504 V 0 h 31 m 0,662 V 0"
         style="stroke-width:0.125in"
         transform="matrix(0.04,0,0,-0.04,118.44,0)"
         id="path3663" />
      <path
         d="M 567,441 V 0 h 31 m -31,441 h 31 V 0 m -31,346 -63,64 -63,31 H 346 L 284,410 220,346 189,252 V 189 L 220,94.5 284,31.5 346,0 h 95 l 63,31.5 63,63 M 567,346 441,410 H 346 L 284,378 252,346 220,252 V 189 L 252,94.5 284,63 346,31.5 h 95 l 126,63"
         style="stroke-width:0.125in"
         transform="matrix(0.04,0,0,-0.04,148.68,0)"
         id="path3665" />
      <path
         d="M 220,441 V 0 h 32 m -32,441 h 32 V 0 m 0,252 32,94 62,64 64,31 h 94 m -252,-189 32,63 62,63 64,32 h 94 v 31"
         style="stroke-width:0.125in"
         transform="matrix(0.04,0,0,-0.04,173.88,0)"
         id="path3667" />
      <path
         d="M 220,662 V 0 h 32 m -32,662 h 32 V 0"
         style="stroke-width:0.125in"
         transform="matrix(0.04,0,0,-0.04,191.52,0)"
         id="path3669" />
      <path
         d="m 220,662 -31,-32 v -32 l 31,-31 h 32 l 32,31 v 32 l -32,32 h -32 m 0,-32 v -32 h 32 v 32 h -32 m 0,-189 V 0 h 32 m -32,441 h 32 V 0"
         style="stroke-width:0.125in"
         transform="matrix(0.04,0,0,-0.04,202.88,0)"
         id="path3671" />
      <path
         d="M 220,441 V 0 h 32 m -32,441 h 32 V 0 m 0,315 94,95 64,31 h 94 l 63,-31 31,-95 V 0 m -346,315 94,63 64,32 h 62 l 64,-32 31,-63 V 0 h 31"
         style="stroke-width:0.125in"
         transform="matrix(0.04,0,0,-0.04,214.24,0)"
         id="path3673" />
    </g>
  </g>
  <g
     transform="translate(-2.026,-1.715)"
     inkscape:label="Hershey Text"
     style="fill:none;stroke:#000000;stroke-linecap:round;stroke-linejoin:round"
     id="address">
    <g
       transform="translate(299.746,265.195)"
       id="address 1">
      <path
         d="m 284,536 62,31 95,95 V 0"
         style="stroke-width:0.25in"
         transform="scale(0.02,-0.02)"
         id="path3718" />
      <path
         d="M 504,662 189,220 H 662 M 504,662 V 0"
         style="stroke-width:0.25in"
         transform="matrix(0.02,0,0,-0.02,12.6,0)"
         id="path3720" />
      <path
         d="M 567,662 H 252 l -32,-284 32,32 94,31 h 95 l 95,-31 62,-64 32,-94 V 189 L 598,94.5 536,31.5 441,0 H 346 L 252,31.5 220,63 189,126"
         style="stroke-width:0.25in"
         transform="matrix(0.02,0,0,-0.02,25.2,0)"
         id="path3722" />
      <path
         d="M 567,662 H 252 l -32,-284 32,32 94,31 h 95 l 95,-31 62,-64 32,-94 V 189 L 598,94.5 536,31.5 441,0 H 346 L 252,31.5 220,63 189,126"
         style="stroke-width:0.25in"
         transform="matrix(0.02,0,0,-0.02,37.8,0)"
         id="path3724" />
      <path
         d="m 662,504 -32,63 -63,63 -63,32 H 378 L 315,630 252,567 220,504 189,410 V 252 l 31,-94 32,-63.5 63,-63 L 378,0 h 126 l 63,31.5 63,63 32,63.5"
         style="stroke-width:0.25in"
         transform="matrix(0.02,0,0,-0.02,57.96,0)"
         id="path3726" />
      <path
         d="M 346,441 284,410 220,346 189,252 V 189 L 220,94.5 284,31.5 346,0 h 95 l 63,31.5 63,63 31,94.5 v 63 l -31,94 -63,64 -63,31 h -95"
         style="stroke-width:0.25in"
         transform="matrix(0.02,0,0,-0.02,71.2,0)"
         id="path3728" />
      <path
         d="M 220,441 V 0 m 0,315 95,95 63,31 h 94 l 64,-31 31,-95 V 0 m 0,315 95,95 62,31 h 95 l 63,-31 32,-95 V 0"
         style="stroke-width:0.25in"
         transform="matrix(0.02,0,0,-0.02,83.16,0)"
         id="path3730" />
      <path
         d="M 220,441 V 0 m 0,315 95,95 63,31 h 94 l 64,-31 31,-95 V 0 m 0,315 95,95 62,31 h 95 l 63,-31 32,-95 V 0"
         style="stroke-width:0.25in"
         transform="matrix(0.02,0,0,-0.02,102.06,0)"
         id="path3732" />
      <path
         d="M 346,441 284,410 220,346 189,252 V 189 L 220,94.5 284,31.5 346,0 h 95 l 63,31.5 63,63 31,94.5 v 63 l -31,94 -63,64 -63,31 h -95"
         style="stroke-width:0.25in"
         transform="matrix(0.02,0,0,-0.02,120.96,0)"
         id="path3734" />
      <path
         d="M 220,441 V 0 m 0,315 95,95 63,31 h 94 l 64,-31 31,-95 V 0"
         style="stroke-width:0.25in"
         transform="matrix(0.02,0,0,-0.02,132.92,0)"
         id="path3736" />
      <path
         d="M 189,441 315,0 M 441,441 315,0 M 441,441 567,0 M 693,441 567,0"
         style="stroke-width:0.25in"
         transform="matrix(0.02,0,0,-0.02,144.88,0)"
         id="path3738" />
      <path
         d="m 189,252 h 378 v 63 l -31,63 -32,32 -63,31 H 346 L 284,410 220,346 189,252 V 189 L 220,94.5 284,31.5 346,0 h 95 l 63,31.5 63,63"
         style="stroke-width:0.25in"
         transform="matrix(0.02,0,0,-0.02,158.74,0)"
         id="path3740" />
      <path
         d="M 567,441 V 0 m 0,346 -63,64 -63,31 H 346 L 284,410 220,346 189,252 V 189 L 220,94.5 284,31.5 346,0 h 95 l 63,31.5 63,63"
         style="stroke-width:0.25in"
         transform="matrix(0.02,0,0,-0.02,170.08,0)"
         id="path3742" />
      <path
         d="M 220,662 V 0"
         style="stroke-width:0.25in"
         transform="matrix(0.02,0,0,-0.02,182.04,0)"
         id="path3744" />
      <path
         d="M 252,662 V 126 L 284,31.5 346,0 h 64 M 158,441 h 220"
         style="stroke-width:0.25in"
         transform="matrix(0.02,0,0,-0.02,187.08,0)"
         id="path3746" />
      <path
         d="M 220,662 V 0 m 0,315 95,95 63,31 h 94 l 64,-31 31,-95 V 0"
         style="stroke-width:0.25in"
         transform="matrix(0.02,0,0,-0.02,194.64,0)"
         id="path3748" />
      <path
         d="M 378,662 126,0 M 378,662 630,0 M 220,220 h 316"
         style="stroke-width:0.25in"
         transform="matrix(0.02,0,0,-0.02,214.16,0)"
         id="path3750" />
      <path
         d="M 158,441 346,0 M 536,441 346,0"
         style="stroke-width:0.25in"
         transform="matrix(0.02,0,0,-0.02,225.5,0)"
         id="path3752" />
      <path
         d="m 189,252 h 378 v 63 l -31,63 -32,32 -63,31 H 346 L 284,410 220,346 189,252 V 189 L 220,94.5 284,31.5 346,0 h 95 l 63,31.5 63,63"
         style="stroke-width:0.25in"
         transform="matrix(0.02,0,0,-0.02,235.58,0)"
         id="path3754" />
    </g>
    <g
       transform="translate(299.746,290.195)"
       id="address 2">
      <path
         d="M 378,662 126,0 M 378,662 630,0 M 220,220 h 316"
         style="stroke-width:0.25in"
         transform="scale(0.02,-0.02)"
         id="path3758" />
      <path
         d="m 220,441 v -661 m 0,566 64,64 62,31 h 95 l 63,-31 63,-64 31,-94 V 189 L 567,94.5 504,31.5 441,0 h -95 l -62,31.5 -64,63"
         style="stroke-width:0.25in"
         transform="matrix(0.02,0,0,-0.02,11.34,0)"
         id="path3760" />
      <path
         d="M 252,662 V 126 L 284,31.5 346,0 h 64 M 158,441 h 220"
         style="stroke-width:0.25in"
         transform="matrix(0.02,0,0,-0.02,23.3,0)"
         id="path3762" />
      <path
         d="M 504,662 189,220 H 662 M 504,662 V 0"
         style="stroke-width:0.25in"
         transform="matrix(0.02,0,0,-0.02,38.42,0)"
         id="path3764" />
      <path
         d="M 378,662 284,630 220,536 189,378 V 284 L 220,126 284,31.5 378,0 h 63 l 95,31.5 62,94.5 32,158 v 94 l -32,158 -62,94 -95,32 h -63"
         style="stroke-width:0.25in"
         transform="matrix(0.02,0,0,-0.02,51.02,0)"
         id="path3766" />
      <path
         d="m 598,567 -31,63 -95,32 H 410 L 315,630 252,536 220,378 V 220 L 252,94.5 315,31.5 410,0 h 31 l 95,31.5 62,63 32,94.5 v 31 l -32,95 -62,63 -95,32 h -31 l -95,-32 -63,-63 -32,-95"
         style="stroke-width:0.25in"
         transform="matrix(0.02,0,0,-0.02,63.62,0)"
         id="path3768" />
    </g>
    <g
       transform="translate(299.746,315.195)"
       id="address 3">
      <path
         d="M 220,662 V 0 m 0,662 h 284 l 94,-32 32,-32 32,-62 v -64 l -32,-62 -32,-32 -94,-32 m -284,0 h 284 l 94,-31 32,-31 32,-64 V 126 L 630,63 598,31.5 504,0 H 220"
         style="stroke-width:0.25in"
         transform="scale(0.02,-0.02)"
         id="path3772" />
      <path
         d="M 220,441 V 0 m 0,252 32,94 63,64 63,31 h 94"
         style="stroke-width:0.25in"
         transform="matrix(0.02,0,0,-0.02,13.24,0)"
         id="path3774" />
      <path
         d="m 189,662 31,-32 32,32 -32,31 -31,-31 M 220,441 V 0"
         style="stroke-width:0.25in"
         transform="matrix(0.02,0,0,-0.02,21.44,0)"
         id="path3776" />
      <path
         d="M 567,441 V -63 l -31,-95 -32,-31 -63,-31 h -95 l -62,31 m 283,535 -63,64 -63,31 H 346 L 284,410 220,346 189,252 V 189 L 220,94.5 284,31.5 346,0 h 95 l 63,31.5 63,63"
         style="stroke-width:0.25in"
         transform="matrix(0.02,0,0,-0.02,26.48,0)"
         id="path3778" />
      <path
         d="M 220,662 V 0 m 0,315 95,95 63,31 h 94 l 64,-31 31,-95 V 0"
         style="stroke-width:0.25in"
         transform="matrix(0.02,0,0,-0.02,38.44,0)"
         id="path3780" />
      <path
         d="M 252,662 V 126 L 284,31.5 346,0 h 64 M 158,441 h 220"
         style="stroke-width:0.25in"
         transform="matrix(0.02,0,0,-0.02,50.4,0)"
         id="path3782" />
      <path
         d="M 346,441 284,410 220,346 189,252 V 189 L 220,94.5 284,31.5 346,0 h 95 l 63,31.5 63,63 31,94.5 v 63 l -31,94 -63,64 -63,31 h -95"
         style="stroke-width:0.25in"
         transform="matrix(0.02,0,0,-0.02,57.96,0)"
         id="path3784" />
      <path
         d="M 220,441 V 0 m 0,315 95,95 63,31 h 94 l 64,-31 31,-95 V 0"
         style="stroke-width:0.25in"
         transform="matrix(0.02,0,0,-0.02,69.92,0)"
         id="path3786" />
      <path
         d="m 252,126 -32,-31.5 -31,31.5 31,32 32,-32 V 63 L 189,0"
         style="stroke-width:0.25in"
         transform="matrix(0.02,0,0,-0.02,81.88,0)"
         id="path3788" />
      <path
         d="M 220,662 V 0 M 220,662 472,0 M 724,662 472,0 M 724,662 V 0"
         style="stroke-width:0.25in"
         transform="matrix(0.02,0,0,-0.02,94.48,0)"
         id="path3790" />
      <path
         d="M 378,662 126,0 M 378,662 630,0 M 220,220 h 316"
         style="stroke-width:0.25in"
         transform="matrix(0.02,0,0,-0.02,109.6,0)"
         id="path3792" />
      <path
         d="M 378,662 284,630 220,536 189,378 V 284 L 220,126 284,31.5 378,0 h 63 l 95,31.5 62,94.5 32,158 v 94 l -32,158 -62,94 -95,32 h -63"
         style="stroke-width:0.25in"
         transform="matrix(0.02,0,0,-0.02,136.06,0)"
         id="path3794" />
      <path
         d="m 220,504 v 32 l 32,62 32,32 62,32 h 126 l 64,-32 31,-32 31,-62 V 472 L 567,410 504,315 189,0 h 441"
         style="stroke-width:0.25in"
         transform="matrix(0.02,0,0,-0.02,148.66,0)"
         id="path3796" />
      <path
         d="m 284,536 62,31 95,95 V 0"
         style="stroke-width:0.25in"
         transform="matrix(0.02,0,0,-0.02,161.26,0)"
         id="path3798" />
      <path
         d="M 252,662 H 598 L 410,410 h 94 l 63,-32 31,-32 32,-94 V 189 L 598,94.5 536,31.5 441,0 H 346 L 252,31.5 220,63 189,126"
         style="stroke-width:0.25in"
         transform="matrix(0.02,0,0,-0.02,173.86,0)"
         id="path3800" />
      <path
         d="M 567,662 H 252 l -32,-284 32,32 94,31 h 95 l 95,-31 62,-64 32,-94 V 189 L 598,94.5 536,31.5 441,0 H 346 L 252,31.5 220,63 189,126"
         style="stroke-width:0.25in"
         transform="matrix(0.02,0,0,-0.02,186.46,0)"
         id="path3802" />
    </g>
  </g>
  <path
     id="path93107-25-5-1-7-7-3-1-5-3-3-9"
     style="display:inline;fill:none;stroke:#000000;stroke-width:1;stroke-miterlimit:4;stroke-dasharray:none;stroke-opacity:1"
     d="m 558.10469,65 c 0,6.085788 -7.60467,6.085788 -7.60467,12.04479 0,6.085789 7.60467,6.085789 7.60467,12.04479 0,6.085771 -7.60467,6.085771 -7.60467,12.04478 0,6.08578 7.60467,6.08578 7.60467,12.04478 0,6.08578 -7.60467,6.08578 -7.60467,12.04478 0,6.0858 7.60467,6.0858 7.60467,12.0448 0,6.08577 -7.60467,6.08577 -7.60467,12.04477 0,6.08577 7.60467,6.08577 7.60467,12.04477 0,6.08579 -7.60467,6.08579 -7.60467,12.04479 0,6.08581 7.60467,6.08581 7.60467,12.0448 0,6.08582 -7.60467,6.08582 -7.60467,12.04481 M 548.10468,60.000001 c 0,6.085788 -7.60467,6.085788 -7.60467,12.04479 0,6.085788 7.60467,6.085788 7.60467,12.044789 0,6.085783 -7.60467,6.085783 -7.60467,12.044785 0,6.085785 7.60467,6.085785 7.60467,12.044785 0,6.08578 -7.60467,6.08578 -7.60467,12.04478 0,6.0858 7.60467,6.0858 7.60467,12.0448 0,6.08577 -7.60467,6.08577 -7.60467,12.04477 0,6.08578 7.60467,6.08578 7.60467,12.04478 0,6.08578 -7.60467,6.08578 -7.60467,12.04478 0,6.08581 7.60467,6.08581 7.60467,12.0448 0,6.08582 -7.60467,6.08582 -7.60467,12.04481 M 538.10468,55.000001 c 0,6.085787 -7.60467,6.085787 -7.60467,12.04479 0,6.085786 7.60467,6.085786 7.60467,12.044788 0,6.085784 -7.60467,6.085784 -7.60467,12.044785 0,6.085784 7.60467,6.085784 7.60467,12.044786 0,6.08578 -7.60467,6.08578 -7.60467,12.04478 0,6.0858 7.60467,6.0858 7.60467,12.0448 0,6.08577 -7.60467,6.08577 -7.60467,12.04477 0,6.08577 7.60467,6.08577 7.60467,12.04478 0,6.08578 -7.60467,6.08578 -7.60467,12.04478 0,6.08581 7.60467,6.08581 7.60467,12.0448 0,6.08582 -7.60467,6.08582 -7.60467,12.04481 M 528.10468,50 c 0,6.085788 -7.60467,6.085788 -7.60467,12.04479 0,6.085787 7.60467,6.085787 7.60467,12.044786 0,6.085787 -7.60467,6.085787 -7.60467,12.044788 0,6.085784 7.60467,6.085784 7.60467,12.044785 0,6.085781 -7.60467,6.085781 -7.60467,12.044781 0,6.0858 7.60467,6.0858 7.60467,12.0448 0,6.08577 -7.60467,6.08577 -7.60467,12.04477 0,6.08577 7.60467,6.08577 7.60467,12.04478 0,6.08578 -7.60467,6.08578 -7.60467,12.04478 0,6.0858 7.60467,6.0858 7.60467,12.0448 0,6.08581 -7.60467,6.08581 -7.60467,12.0448 M 518.10468,45 c 0,6.085787 -7.60467,6.085787 -7.60467,12.04479 0,6.085786 7.60467,6.085786 7.60467,12.044786 0,6.085789 -7.60467,6.085789 -7.60467,12.044787 0,6.085784 7.60467,6.085784 7.60467,12.044785 0,6.085784 -7.60467,6.085784 -7.60467,12.044782 0,6.0858 7.60467,6.0858 7.60467,12.0448 0,6.08578 -7.60467,6.08578 -7.60467,12.04479 0,6.08577 7.60467,6.08577 7.60467,12.04477 0,6.08578 -7.60467,6.08578 -7.60467,12.04478 0,6.0858 7.60467,6.0858 7.60467,12.0448 0,6.08581 -7.60467,6.08581 -7.60467,12.04479 M 508.10468,40.000001 c 0,6.085787 -7.60467,6.085787 -7.60467,12.04479 0,6.085786 7.60467,6.085786 7.60467,12.044786 0,6.085789 -7.60467,6.085789 -7.60467,12.044789 0,6.085781 7.60467,6.085781 7.60467,12.044782 0,6.085784 -7.60467,6.085784 -7.60467,12.044782 0,6.0858 7.60467,6.0858 7.60467,12.0448 0,6.08578 -7.60467,6.08578 -7.60467,12.04479 0,6.08577 7.60467,6.08577 7.60467,12.04477 0,6.08578 -7.60467,6.08578 -7.60467,12.04478 0,6.0858 7.60467,6.0858 7.60467,12.0448 0,6.0858 -7.60467,6.0858 -7.60467,12.04478 M 498.10468,35 c 0,6.085788 -7.60468,6.085788 -7.60468,12.04479 0,6.085787 7.60468,6.085787 7.60468,12.044786 0,6.085789 -7.60468,6.085789 -7.60468,12.044789 0,6.085785 7.60468,6.085785 7.60468,12.044783 0,6.085783 -7.60468,6.085783 -7.60468,12.044784 0,6.085798 7.60468,6.085798 7.60468,12.044798 0,6.08578 -7.60468,6.08578 -7.60468,12.04478 0,6.08579 7.60468,6.08579 7.60468,12.04479 0,6.08578 -7.60468,6.08578 -7.60468,12.04478 0,6.0858 7.60468,6.0858 7.60468,12.0448 0,6.0858 -7.60468,6.0858 -7.60468,12.04479 M 488.10468,30 c 0,6.085788 -7.60468,6.085788 -7.60468,12.04479 0,6.085786 7.60468,6.085786 7.60468,12.044786 0,6.085789 -7.60468,6.085789 -7.60468,12.044789 0,6.085785 7.60468,6.085785 7.60468,12.044782 0,6.085784 -7.60468,6.085784 -7.60468,12.044785 0,6.085797 7.60468,6.085797 7.60468,12.044798 0,6.08578 -7.60468,6.08578 -7.60468,12.04478 0,6.08579 7.60468,6.08579 7.60468,12.04479 0,6.08578 -7.60468,6.08578 -7.60468,12.04478 0,6.0858 7.60468,6.0858 7.60468,12.0448 0,6.08579 -7.60468,6.08579 -7.60468,12.04479 M 478.10468,25.000001 c 0,6.085787 -7.60468,6.085787 -7.60468,12.04479 0,6.085786 7.60468,6.085786 7.60468,12.044786 0,6.085789 -7.60468,6.085789 -7.60468,12.044789 0,6.085785 7.60468,6.085785 7.60468,12.044785 0,6.08578 -7.60468,6.08578 -7.60468,12.044781 0,6.085796 7.60468,6.085796 7.60468,12.044797 0,6.085781 -7.60468,6.085781 -7.60468,12.044781 0,6.08579 7.60468,6.08579 7.60468,12.04479 0,6.08578 -7.60468,6.08578 -7.60468,12.04478 0,6.0858 7.60468,6.0858 7.60468,12.0448 0,6.08579 -7.60468,6.08579 -7.60468,12.04479 M 468.10467,20 c 0,6.085788 -7.60467,6.085788 -7.60467,12.04479 0,6.085787 7.60467,6.085787 7.60467,12.044787 0,6.085788 -7.60467,6.085788 -7.60467,12.044788 0,6.085785 7.60467,6.085785 7.60467,12.044785 0,6.08578 -7.60467,6.08578 -7.60467,12.044781 0,6.085797 7.60467,6.085797 7.60467,12.044798 0,6.085784 -7.60467,6.085784 -7.60467,12.044781 0,6.08579 7.60467,6.08579 7.60467,12.04479 0,6.08578 -7.60467,6.08578 -7.60467,12.04478 0,6.0858 7.60467,6.0858 7.60467,12.0448 0,6.08578 -7.60467,6.08578 -7.60467,12.04479 M 458.10467,15 c 0,6.085787 -7.60467,6.085787 -7.60467,12.044789 0,6.085787 7.60467,6.085787 7.60467,12.044787 0,6.085788 -7.60467,6.085788 -7.60467,12.044788 0,6.085785 7.60467,6.085785 7.60467,12.044786 0,6.085784 -7.60467,6.085784 -7.60467,12.044785 0,6.085792 7.60467,6.085792 7.60467,12.044793 0,6.085784 -7.60467,6.085784 -7.60467,12.044785 0,6.085787 7.60467,6.085787 7.60467,12.044787 0,6.08578 -7.60467,6.08578 -7.60467,12.04478 0,6.0858 7.60467,6.0858 7.60467,12.0448 0,6.08578 -7.60467,6.08578 -7.60467,12.04479" />
</svg>
