<?xml version="1.0" encoding="UTF-8" standalone="no"?>
<svg
   xmlns:dc="http://purl.org/dc/elements/1.1/"
   xmlns:cc="http://creativecommons.org/ns#"
   xmlns:rdf="http://www.w3.org/1999/02/22-rdf-syntax-ns#"
   xmlns:svg="http://www.w3.org/2000/svg"
   xmlns="http://www.w3.org/2000/svg"
   xmlns:sodipodi="http://sodipodi.sourceforge.net/DTD/sodipodi-0.dtd"
   xmlns:inkscape="http://www.inkscape.org/namespaces/inkscape"
   inkscape:version="1.0 (4035a4f, 2020-05-01)"
   class="Sketch"
   id="sketch"
   width="576"
   height="384"
   viewBox="0 0 576 384"
   fill="none"
   stroke="black"
   version="1.1"
   sodipodi:docname="postcard_back_cesar_template_1633474113658.svg">
  <metadata
     id="metadata29">
    <rdf:RDF>
      <cc:Work
         rdf:about="">
        <dc:format>image/svg+xml</dc:format>
        <dc:type
           rdf:resource="http://purl.org/dc/dcmitype/StillImage" />
        <dc:title />
      </cc:Work>
    </rdf:RDF>
  </metadata>
  <defs
     id="defs27" />
  <sodipodi:namedview
     pagecolor="#ffffff"
     bordercolor="#666666"
     borderopacity="1"
     objecttolerance="10"
     gridtolerance="10"
     guidetolerance="10"
     inkscape:pageopacity="0"
     inkscape:pageshadow="2"
     inkscape:window-width="1440"
     inkscape:window-height="872"
     id="namedview25"
     showgrid="false"
     inkscape:zoom="1.5173611"
     inkscape:cx="264.46027"
     inkscape:cy="188.70481"
     inkscape:window-x="0"
     inkscape:window-y="28"
     inkscape:window-maximized="0"
     inkscape:current-layer="sketch"
     inkscape:document-rotation="0" />
  <g
     id="border"
     style="fill:none;stroke:#000000;stroke-opacity:1">
    <path
       d="M 0 0 L 576 0 L 576 384 L 0 384 L 0 0"
       id="path10"
       style="fill:none;stroke:#000000;stroke-opacity:1" />
  </g>
  <g
     id="postcard_back_template"
     style="fill:none;stroke:#000000;stroke-opacity:1">
    <g
       id="postcard-divider"
       style="fill:none;stroke:#000000;stroke-opacity:1">
      <line
         x1="288"
         y1="10"
         x2="288"
         y2="374"
         stroke="black"
         id="line13"
         style="fill:none;stroke:#000000;stroke-opacity:1" />
    </g>
    <g
       id="stamp"
       style="fill:none;stroke:#000000;stroke-opacity:1">
      <rect
         x="470"
         y="10"
         height="96"
         width="96"
         id="rect16"
         style="fill:none;stroke:#000000;stroke-opacity:1" />
      <rect
         x="460"
         y="20"
         height="96"
         width="96"
         id="rect18"
         style="fill:none;stroke:#000000;stroke-opacity:1" />
      <rect
         x="450"
         y="30"
         height="96"
         width="96"
         id="rect20"
         style="fill:none;stroke:#000000;stroke-opacity:1" />
    </g>
  </g>
  <g
     id="cesar"
     style="fill:none;stroke:#000000;stroke-linecap:round;stroke-linejoin:round"
     inkscape:label="Hershey Text"
     transform="matrix(0.75066152,0,0,0.75066152,49.126668,81.767839)">
    <g
       id="g1348"
       transform="translate(326.883,150.92)">
      <path
         id="path1320"
         transform="scale(0.04,-0.04)"
         style="stroke-width:0.125in"
         d="m 662,504 -32,63 -63,63 -63,32 H 378 L 315,630 252,567 220,504 189,410 V 252 l 31,-94 32,-63.5 63,-63 L 378,0 h 126 l 63,31.5 63,63 32,63.5 m 0,346 h -32 l -32,63 -31,31 -63,32 H 378 L 315,598 252,504 220,410 V 252 l 32,-94 63,-95 63,-31.5 h 126 l 63,31.5 31,31.5 32,63.5 h 32" />
      <path
         id="path1322"
         transform="matrix(0.04,0,0,-0.04,26.48,0)"
         style="stroke-width:0.125in"
         d="m 220,220 h 347 v 95 l -31,63 -32,32 -63,31 H 346 L 284,410 220,346 189,252 V 189 L 220,94.5 284,31.5 346,0 h 95 l 63,31.5 63,63 M 220,252 h 316 v 63 l -32,63 -63,32 H 346 L 284,378 252,346 220,252 V 189 L 252,94.5 284,63 346,31.5 h 95 l 63,31.5 32,63 31,-31.5" />
      <path
         id="path1324"
         transform="matrix(0.04,0,0,-0.04,49.16,0)"
         style="stroke-width:0.125in"
         d="m 536,346 -32,64 -94,31 h -95 l -95,-31 -31,-64 31,-62 64,-32 157,-63 63,-31 m -32,31 32,-63 V 94.5 l -32,-63 M 504,63 410,31.5 H 315 L 220,63 m 32,-31.5 -32,63 H 189 M 536,346 h -32 l -32,64 m 32,-32 -94,32 h -95 l -95,-32 m 32,32 -32,-64 32,-62 m -32,31 64,-31 157,-64 63,-31 32,-63 V 94.5 L 504,31.5 410,0 h -95 l -95,31.5 -31,63" />
      <path
         id="path1326"
         transform="matrix(0.04,0,0,-0.04,70.6,0)"
         style="stroke-width:0.125in"
         d="M 567,441 V 0 h 31 m -31,441 h 31 V 0 m -31,346 -63,64 -63,31 H 346 L 284,410 220,346 189,252 V 189 L 220,94.5 284,31.5 346,0 h 95 l 63,31.5 63,63 M 567,346 441,410 H 346 L 284,378 252,346 220,252 V 189 L 252,94.5 284,63 346,31.5 h 95 l 126,63" />
      <path
         id="path1328"
         transform="matrix(0.04,0,0,-0.04,95.8,0)"
         style="stroke-width:0.125in"
         d="M 220,441 V 0 h 32 m -32,441 h 32 V 0 m 0,252 32,94 62,64 64,31 h 94 m -252,-189 32,63 62,63 64,32 h 94 v 31" />
      <path
         id="path1330"
         transform="matrix(0.04,0,0,-0.04,128.56,0)"
         style="stroke-width:0.125in"
         d="M 220,662 V 0 m 0,662 h 32 V 0 H 220 M 662,662 H 630 V 0 h 32 m 0,662 V 0 M 252,346 H 630 M 252,315 h 378" />
      <path
         id="path1332"
         transform="matrix(0.04,0,0,-0.04,156.28,0)"
         style="stroke-width:0.125in"
         d="m 220,220 h 347 v 95 l -31,63 -32,32 -63,31 H 346 L 284,410 220,346 189,252 V 189 L 220,94.5 284,31.5 346,0 h 95 l 63,31.5 63,63 M 220,252 h 316 v 63 l -32,63 -63,32 H 346 L 284,378 252,346 220,252 V 189 L 252,94.5 284,63 346,31.5 h 95 l 63,31.5 32,63 31,-31.5" />
      <path
         id="path1334"
         transform="matrix(0.04,0,0,-0.04,178.96,0)"
         style="stroke-width:0.125in"
         d="M 220,441 V 0 h 32 m -32,441 h 32 V 0 m 0,252 32,94 62,64 64,31 h 94 m -252,-189 32,63 62,63 64,32 h 94 v 31" />
      <path
         id="path1336"
         transform="matrix(0.04,0,0,-0.04,196.6,0)"
         style="stroke-width:0.125in"
         d="M 220,441 V 0 h 32 m -32,441 h 32 V 0 m 0,315 94,95 64,31 h 94 l 63,-31 31,-95 V 0 m -346,315 94,63 64,32 h 62 l 64,-32 31,-63 V 0 h 31" />
      <path
         id="path1338"
         transform="matrix(0.04,0,0,-0.04,221.8,0)"
         style="stroke-width:0.125in"
         d="M 567,441 V 0 h 31 m -31,441 h 31 V 0 m -31,346 -63,64 -63,31 H 346 L 284,410 220,346 189,252 V 189 L 220,94.5 284,31.5 346,0 h 95 l 63,31.5 63,63 M 567,346 441,410 H 346 L 284,378 252,346 220,252 V 189 L 252,94.5 284,63 346,31.5 h 95 l 126,63" />
      <path
         id="path1340"
         transform="matrix(0.04,0,0,-0.04,247,0)"
         style="stroke-width:0.125in"
         d="M 220,441 V 0 h 32 m -32,441 h 32 V 0 m 0,315 94,95 64,31 h 94 l 63,-31 31,-95 V 0 m -346,315 94,63 64,32 h 62 l 64,-32 31,-63 V 0 h 31" />
      <path
         id="path1342"
         transform="matrix(0.04,0,0,-0.04,272.2,0)"
         style="stroke-width:0.125in"
         d="M 567,662 V 0 h 31 m -31,662 h 31 V 0 m -31,346 -63,64 -63,31 H 346 L 284,410 220,346 189,252 V 189 L 220,94.5 284,31.5 346,0 h 95 l 63,31.5 63,63 M 567,346 441,410 H 346 L 284,378 252,346 220,252 V 189 L 252,94.5 284,63 346,31.5 h 95 l 126,63" />
      <path
         id="path1344"
         transform="matrix(0.04,0,0,-0.04,297.4,0)"
         style="stroke-width:0.125in"
         d="m 220,220 h 347 v 95 l -31,63 -32,32 -63,31 H 346 L 284,410 220,346 189,252 V 189 L 220,94.5 284,31.5 346,0 h 95 l 63,31.5 63,63 M 220,252 h 316 v 63 l -32,63 -63,32 H 346 L 284,378 252,346 220,252 V 189 L 252,94.5 284,63 346,31.5 h 95 l 63,31.5 32,63 31,-31.5" />
      <path
         id="path1346"
         transform="matrix(0.04,0,0,-0.04,320.08,0)"
         style="stroke-width:0.125in"
         d="M 504,410 189,0 M 567,441 252,31.5 M 189,441 h 378 m -378,0 V 410 H 504 M 252,31.5 H 567 V 0 M 189,0 h 378" />
    </g>
  </g>
  <g
     id="address 1"
     style="fill:none;stroke:#000000;stroke-linecap:round;stroke-linejoin:round"
     inkscape:label="Hershey Text"
     transform="matrix(0.69581588,0,0,0.69581588,74.792927,127.81125)">
    <g
       id="g5485"
       transform="translate(316.339,202.325)">
      <path
         id="path1546"
         transform="scale(0.04,-0.04)"
         style="stroke-width:0.125in"
         d="M 252,662 H 598 L 410,410 h 94 l 63,-32 31,-32 32,-94 V 189 L 598,94.5 536,31.5 441,0 H 346 L 252,31.5 220,63 189,126" />
      <path
         id="path1548"
         transform="matrix(0.04,0,0,-0.04,25.2,0)"
         style="stroke-width:0.125in"
         d="M 630,662 315,0 M 189,662 h 441" />
      <path
         id="path1550"
         transform="matrix(0.04,0,0,-0.04,50.4,0)"
         style="stroke-width:0.125in"
         d="M 378,662 284,630 220,536 189,378 V 284 L 220,126 284,31.5 378,0 h 63 l 95,31.5 62,94.5 32,158 v 94 l -32,158 -62,94 -95,32 h -63" />
      <path
         id="path1552"
         transform="matrix(0.04,0,0,-0.04,75.6,0)"
         style="stroke-width:0.125in"
         d="m 598,567 -31,63 -95,32 H 410 L 315,630 252,536 220,378 V 220 L 252,94.5 315,31.5 410,0 h 31 l 95,31.5 62,63 32,94.5 v 31 l -32,95 -62,63 -95,32 h -31 l -95,-32 -63,-63 -32,-95" />
      <path
         id="path1554"
         transform="matrix(0.04,0,0,-0.04,115.92,0)"
         style="stroke-width:0.125in"
         d="M 220,662 V 0 m 0,662 h 284 l 94,-32 32,-32 32,-62 V 441 L 630,378 598,346 504,315 H 220" />
      <path
         id="path1556"
         transform="matrix(0.04,0,0,-0.04,142.4,0)"
         style="stroke-width:0.125in"
         d="M 346,441 284,410 220,346 189,252 V 189 L 220,94.5 284,31.5 346,0 h 95 l 63,31.5 63,63 31,94.5 v 63 l -31,94 -63,64 -63,31 h -95" />
      <path
         id="path1558"
         transform="matrix(0.04,0,0,-0.04,166.32,0)"
         style="stroke-width:0.125in"
         d="M 220,441 V 0 m 0,252 32,94 63,64 63,31 h 94" />
      <path
         id="path1560"
         transform="matrix(0.04,0,0,-0.04,182.72,0)"
         style="stroke-width:0.125in"
         d="M 252,662 V 126 L 284,31.5 346,0 h 64 M 158,441 h 220" />
      <path
         id="path1562"
         transform="matrix(0.04,0,0,-0.04,197.84,0)"
         style="stroke-width:0.125in"
         d="M 220,662 V 0" />
      <path
         id="path1564"
         transform="matrix(0.04,0,0,-0.04,207.92,0)"
         style="stroke-width:0.125in"
         d="M 567,441 V 0 m 0,346 -63,64 -63,31 H 346 L 284,410 220,346 189,252 V 189 L 220,94.5 284,31.5 346,0 h 95 l 63,31.5 63,63" />
      <path
         id="path1566"
         transform="matrix(0.04,0,0,-0.04,231.84,0)"
         style="stroke-width:0.125in"
         d="M 220,441 V 0 m 0,315 95,95 63,31 h 94 l 64,-31 31,-95 V 0" />
      <path
         id="path1568"
         transform="matrix(0.04,0,0,-0.04,255.76,0)"
         style="stroke-width:0.125in"
         d="M 567,662 V 0 m 0,346 -63,64 -63,31 H 346 L 284,410 220,346 189,252 V 189 L 220,94.5 284,31.5 346,0 h 95 l 63,31.5 63,63" />
      <path
         id="path1570"
         transform="matrix(0.04,0,0,-0.04,294.8,0)"
         style="stroke-width:0.125in"
         d="m 630,567 -63,63 -95,32 H 346 l -94,-32 -63,-63 v -63 l 31,-63 32,-31 63,-32 189,-63 63,-31 31,-32 32,-63 V 94.5 L 567,31.5 472,0 H 346 l -94,31.5 -63,63" />
      <path
         id="path1572"
         transform="matrix(0.04,0,0,-0.04,320,0)"
         style="stroke-width:0.125in"
         d="M 252,662 V 126 L 284,31.5 346,0 h 64 M 158,441 h 220" />
    </g>
  </g>
  <g
     id="address 2"
     style="fill:none;stroke:#000000;stroke-linecap:round;stroke-linejoin:round"
     inkscape:label="Hershey Text"
     transform="matrix(0.69581588,0,0,0.69581588,71.043871,137.17544)">
    <g
       id="g1590"
       transform="translate(324.247,231.982)">
      <path
         id="path1578"
         transform="scale(0.04,-0.04)"
         style="stroke-width:0.125in"
         d="M 378,662 126,0 M 378,662 630,0 M 220,220 h 316" />
      <path
         id="path1580"
         transform="matrix(0.04,0,0,-0.04,22.68,0)"
         style="stroke-width:0.125in"
         d="m 220,441 v -661 m 0,566 64,64 62,31 h 95 l 63,-31 63,-64 31,-94 V 189 L 567,94.5 504,31.5 441,0 h -95 l -62,31.5 -64,63" />
      <path
         id="path1582"
         transform="matrix(0.04,0,0,-0.04,46.6,0)"
         style="stroke-width:0.125in"
         d="M 252,662 V 126 L 284,31.5 346,0 h 64 M 158,441 h 220" />
      <path
         id="path1584"
         transform="matrix(0.04,0,0,-0.04,76.84,0)"
         style="stroke-width:0.125in"
         d="m 284,536 62,31 95,95 V 0" />
      <path
         id="path1586"
         transform="matrix(0.04,0,0,-0.04,102.04,0)"
         style="stroke-width:0.125in"
         d="m 346,662 -94,-32 -32,-63 v -63 l 32,-63 63,-31 126,-32 95,-32 62,-62 32,-64 V 126 L 598,63 567,31.5 472,0 H 346 L 252,31.5 220,63 189,126 v 94 l 31,64 64,62 94,32 126,32 63,31 31,63 v 63 l -31,63 -95,32 H 346" />
      <path
         id="path1588"
         transform="matrix(0.04,0,0,-0.04,127.24,0)"
         style="stroke-width:0.125in"
         d="m 598,567 -31,63 -95,32 H 410 L 315,630 252,536 220,378 V 220 L 252,94.5 315,31.5 410,0 h 31 l 95,31.5 62,63 32,94.5 v 31 l -32,95 -62,63 -95,32 h -31 l -95,-32 -63,-63 -32,-95" />
    </g>
  </g>
  <g
     id="address 3"
     style="fill:none;stroke:#000000;stroke-linecap:round;stroke-linejoin:round"
     inkscape:label="Hershey Text"
     transform="matrix(0.69581588,0,0,0.69581588,33.11773,145.06267)">
    <g
       id="g1622"
       transform="translate(374.993,264.934)">
      <path
         id="path1594"
         transform="scale(0.04,-0.04)"
         style="stroke-width:0.125in"
         d="M 220,662 V 0" />
      <path
         id="path1596"
         transform="matrix(0.04,0,0,-0.04,10.08,0)"
         style="stroke-width:0.125in"
         d="M 220,441 V 0 m 0,252 32,94 63,64 63,31 h 94" />
      <path
         id="path1598"
         transform="matrix(0.04,0,0,-0.04,26.48,0)"
         style="stroke-width:0.125in"
         d="M 158,441 346,0 M 536,441 346,0" />
      <path
         id="path1600"
         transform="matrix(0.04,0,0,-0.04,46.64,0)"
         style="stroke-width:0.125in"
         d="m 189,662 31,-32 32,32 -32,31 -31,-31 M 220,441 V 0" />
      <path
         id="path1602"
         transform="matrix(0.04,0,0,-0.04,56.72,0)"
         style="stroke-width:0.125in"
         d="M 220,441 V 0 m 0,315 95,95 63,31 h 94 l 64,-31 31,-95 V 0" />
      <path
         id="path1604"
         transform="matrix(0.04,0,0,-0.04,80.64,0)"
         style="stroke-width:0.125in"
         d="M 567,441 V -63 l -31,-95 -32,-31 -63,-31 h -95 l -62,31 m 283,535 -63,64 -63,31 H 346 L 284,410 220,346 189,252 V 189 L 220,94.5 284,31.5 346,0 h 95 l 63,31.5 63,63" />
      <path
         id="path1606"
         transform="matrix(0.04,0,0,-0.04,104.56,0)"
         style="stroke-width:0.125in"
         d="m 252,126 -32,-31.5 -31,31.5 31,32 32,-32 V 63 L 189,0" />
      <path
         id="path1608"
         transform="matrix(0.04,0,0,-0.04,129.76,0)"
         style="stroke-width:0.125in"
         d="M 346,662 V 0 M 126,662 h 441" />
      <path
         id="path1610"
         transform="matrix(0.04,0,0,-0.04,149.92,0)"
         style="stroke-width:0.125in"
         d="M 189,662 630,0 M 630,662 189,0" />
      <path
         id="path1612"
         transform="matrix(0.04,0,0,-0.04,205.36,0)"
         style="stroke-width:0.125in"
         d="M 630,662 315,0 M 189,662 h 441" />
      <path
         id="path1614"
         transform="matrix(0.04,0,0,-0.04,230.56,0)"
         style="stroke-width:0.125in"
         d="M 567,662 H 252 l -32,-284 32,32 94,31 h 95 l 95,-31 62,-64 32,-94 V 189 L 598,94.5 536,31.5 441,0 H 346 L 252,31.5 220,63 189,126" />
      <path
         id="path1616"
         transform="matrix(0.04,0,0,-0.04,255.76,0)"
         style="stroke-width:0.125in"
         d="M 378,662 284,630 220,536 189,378 V 284 L 220,126 284,31.5 378,0 h 63 l 95,31.5 62,94.5 32,158 v 94 l -32,158 -62,94 -95,32 h -63" />
      <path
         id="path1618"
         transform="matrix(0.04,0,0,-0.04,280.96,0)"
         style="stroke-width:0.125in"
         d="M 252,662 H 598 L 410,410 h 94 l 63,-32 31,-32 32,-94 V 189 L 598,94.5 536,31.5 441,0 H 346 L 252,31.5 220,63 189,126" />
      <path
         id="path1620"
         transform="matrix(0.04,0,0,-0.04,306.16,0)"
         style="stroke-width:0.125in"
         d="m 346,662 -94,-32 -32,-63 v -63 l 32,-63 63,-31 126,-32 95,-32 62,-62 32,-64 V 126 L 598,63 567,31.5 472,0 H 346 L 252,31.5 220,63 189,126 v 94 l 31,64 64,62 94,32 126,32 63,31 31,63 v 63 l -31,63 -95,32 H 346" />
    </g>
  </g>
</svg>
