<?xml version="1.0" encoding="UTF-8" standalone="no"?>
<svg
   xmlns:dc="http://purl.org/dc/elements/1.1/"
   xmlns:cc="http://creativecommons.org/ns#"
   xmlns:rdf="http://www.w3.org/1999/02/22-rdf-syntax-ns#"
   xmlns:svg="http://www.w3.org/2000/svg"
   xmlns="http://www.w3.org/2000/svg"
   xmlns:sodipodi="http://sodipodi.sourceforge.net/DTD/sodipodi-0.dtd"
   xmlns:inkscape="http://www.inkscape.org/namespaces/inkscape"
   inkscape:version="1.0 (4035a4f, 2020-05-01)"
   sodipodi:docname="postcard_isocube_front_1633482912009.svg"
   version="1.1"
   stroke="black"
   fill="none"
   viewBox="0 0 576 384"
   height="384"
   width="576"
   id="sketch"
   class="Sketch">
  <metadata
     id="metadata4035">
    <rdf:RDF>
      <cc:Work
         rdf:about="">
        <dc:format>image/svg+xml</dc:format>
        <dc:type
           rdf:resource="http://purl.org/dc/dcmitype/StillImage" />
      </cc:Work>
    </rdf:RDF>
  </metadata>
  <defs
     id="defs4033" />
  <sodipodi:namedview
     inkscape:current-layer="postcard_isocube_front"
     inkscape:window-maximized="0"
     inkscape:window-y="0"
     inkscape:window-x="0"
     inkscape:cy="158.01456"
     inkscape:cx="314.2352"
     inkscape:zoom="0.68240183"
     showgrid="false"
     id="namedview4031"
     inkscape:window-height="900"
     inkscape:window-width="1440"
     inkscape:pageshadow="2"
     inkscape:pageopacity="0"
     guidetolerance="10"
     gridtolerance="10"
     objecttolerance="10"
     borderopacity="1"
     bordercolor="#666666"
     pagecolor="#ffffff" />
  <g
     id="border">
    <path
       id="path3928"
       d="M 0 0 L 576 0 L 576 384 L 0 384 L 0 0" />
  </g>
  <g
     id="postcard_isocube_front">
    <g
       id="g4027"
       transform="translate(50 50)">
      <g
         id="g3933"
         transform="translate(0 0)">
        <path
           id="path3931"
           d="M 39.666666666666664 35.5 l 22.901560677855155 0 M 39.666666666666664 35.5 l -11.450780338927572 19.833333333333336 M 39.666666666666664 35.5 l -22.901560677855155 2.8046322979614205e-15 M 39.666666666666664 35.5 l -11.450780338927588 -19.83333333333333 M 39.666666666666664 35.5 l 11.450780338927562 -19.833333333333343 M 39.666666666666664 35.5 m 22.901560677855155 0 l -11.450780338927572 19.833333333333336 M 39.666666666666664 35.5 m 11.45078033892758 19.833333333333332 l -22.901560677855155 2.8046322979614205e-15 M 39.666666666666664 35.5 m -11.450780338927572 19.833333333333336 l -11.450780338927588 -19.83333333333333 M 39.666666666666664 35.5 m -22.901560677855155 2.8046322979614205e-15 l 11.450780338927562 -19.833333333333343 M 39.666666666666664 35.5 m 11.450780338927562 -19.833333333333343 l 11.450780338927608 19.833333333333318 " />
      </g>
      <g
         id="g3937"
         transform="translate(0 71)">
        <path
           id="path3935"
           d="M 39.666666666666664 35.5 l 2.3938649440871087 -22.776103532232028 M 39.666666666666664 35.5 m -18.527751786093862 -13.461199620924472 l 20.921616730180972 -9.31490391130757 M 39.666666666666664 35.5 m 20.921616730180972 -9.31490391130757 l -2.3938649440870856 22.77610353223203 M 39.666666666666664 35.5 m -20.921616730180972 9.314903911307573 l 2.393864944087083 -22.77610353223203 " />
      </g>
      <g
         id="g3941"
         transform="translate(0 142)">
        <path
           id="path3939"
           d="M 39.666666666666664 35.5 l 7.07697144716629 21.780678516003 M 39.666666666666664 35.5 l -15.32413518293741 17.01917631310462 M 39.666666666666664 35.5 l -22.40110663010369 -4.761502202898354 M 39.666666666666664 35.5 l -7.076971447166293 -21.780678516002997 M 39.666666666666664 35.5 l 15.324135182937376 -17.019176313104648 M 39.666666666666664 35.5 l 22.401106630103694 4.761502202898352 M 39.666666666666664 35.5 m 7.07697144716629 21.780678516003 l -22.40110663010369 -4.761502202898354 M 39.666666666666664 35.5 m -15.32413518293741 17.01917631310462 l -7.076971447166293 -21.780678516002997 M 39.666666666666664 35.5 m -22.40110663010369 -4.761502202898354 l 15.324135182937376 -17.019176313104648 M 39.666666666666664 35.5 m -7.076971447166293 -21.780678516002997 l 22.401106630103694 4.761502202898352 M 39.666666666666664 35.5 m 22.401106630103694 4.761502202898352 l -15.324135182937374 17.019176313104648 " />
      </g>
      <g
         id="g3945"
         transform="translate(0 213)">
        <path
           id="path3943"
           d="M 39.666666666666664 35.5 l 7.076971447166274 -21.780678516003004 M 39.666666666666664 35.5 l 22.401106630103687 -4.761502202898374 M 39.666666666666664 35.5 l -7.0769714471662715 21.780678516003004 M 39.666666666666664 35.5 l -22.40110663010368 4.761502202898416 M 39.666666666666664 35.5 l -15.324135182937395 -17.01917631310463 M 39.666666666666664 35.5 m 7.076971447166274 -21.780678516003004 l 15.324135182937422 17.019176313104605 M 39.666666666666664 35.5 m 22.401106630103687 -4.761502202898374 l -7.0769714471662715 21.780678516003004 " />
      </g>
      <g
         id="g3949"
         transform="translate(79.33333333333333 0)">
        <path
           id="path3947"
           d="M 39.666666666666664 35.5 l -2.3938649440871167 22.776103532232028 M 39.666666666666664 35.5 l -20.92161673018098 9.314903911307558 M 39.666666666666664 35.5 l -18.527751786093862 -13.461199620924472 M 39.666666666666664 35.5 l 2.3938649440871087 -22.776103532232028 M 39.666666666666664 35.5 l 20.921616730180972 -9.31490391130757 M 39.666666666666664 35.5 m -2.3938649440871167 22.776103532232028 l -18.527751786093862 -13.461199620924472 M 39.666666666666664 35.5 m -20.92161673018098 9.314903911307558 l 2.3938649440871087 -22.776103532232028 M 39.666666666666664 35.5 m -18.527751786093862 -13.461199620924472 l 20.921616730180972 -9.31490391130757 M 39.666666666666664 35.5 m 2.3938649440871087 -22.776103532232028 l 18.527751786093866 13.46119962092447 " />
      </g>
      <g
         id="g3953"
         transform="translate(79.33333333333333 71)">
        <path
           id="path3951"
           d="M 39.666666666666664 35.5 l 15.324135182937395 -17.01917631310463 M 39.666666666666664 35.5 l -15.324135182937379 17.019176313104648 M 39.666666666666664 35.5 m -7.076971447166287 -21.780678516003 l 22.40110663010369 4.761502202898357 M 39.666666666666664 35.5 m 15.324135182937395 -17.01917631310463 l 7.07697144716629 21.780678516003 M 39.666666666666664 35.5 m 22.40110663010369 4.761502202898357 l -15.324135182937379 17.019176313104648 M 39.666666666666664 35.5 m -15.324135182937379 17.019176313104648 l -7.076971447166331 -21.780678516002983 " />
      </g>
      <g
         id="g3957"
         transform="translate(79.33333333333333 142)">
        <path
           id="path3955"
           d="M 39.666666666666664 35.5 l -7.076971447166277 21.780678516003 M 39.666666666666664 35.5 l -22.401106630103687 4.761502202898371 M 39.666666666666664 35.5 l 7.076971447166274 -21.780678516003004 M 39.666666666666664 35.5 l 22.40110663010368 -4.761502202898414 M 39.666666666666664 35.5 m -15.32413518293742 -17.01917631310461 l 22.40110663010368 -4.761502202898414 M 39.666666666666664 35.5 m 7.076971447166274 -21.780678516003004 l 15.324135182937422 17.019176313104605 M 39.666666666666664 35.5 m 22.40110663010368 -4.761502202898414 l -7.076971447166232 21.780678516003018 " />
      </g>
      <g
         id="g3961"
         transform="translate(79.33333333333333 213)">
        <path
           id="path3959"
           d="M 39.666666666666664 35.5 l 18.527751786093855 -13.461199620924482 M 39.666666666666664 35.5 l -18.527751786093855 13.461199620924484 M 39.666666666666664 35.5 l -20.921616730180997 -9.314903911307516 M 39.666666666666664 35.5 l -2.393864944087189 -22.77610353223202 M 39.666666666666664 35.5 m -18.527751786093855 13.461199620924484 l -2.393864944087108 -22.776103532232028 M 39.666666666666664 35.5 m -20.921616730180997 -9.314903911307516 l 18.52775178609385 -13.461199620924488 M 39.666666666666664 35.5 m -2.393864944087189 -22.77610353223202 l 20.921616730180997 9.314903911307512 " />
      </g>
      <g
         id="g3965"
         transform="translate(158.66666666666666 0)">
        <path
           id="path3963"
           d="M 39.666666666666664 35.5 l 7.076971447166284 21.780678516003 M 39.666666666666664 35.5 l -22.401106630103687 -4.761502202898369 M 39.666666666666664 35.5 l -7.076971447166287 -21.780678516003 M 39.666666666666664 35.5 m 7.076971447166284 21.780678516003 l -22.401106630103687 -4.761502202898369 M 39.666666666666664 35.5 m -22.401106630103687 -4.761502202898369 l 15.324135182937395 -17.01917631310463 M 39.666666666666664 35.5 m 22.40110663010369 4.761502202898357 l -15.324135182937379 17.019176313104648 " />
      </g>
      <g
         id="g3973"
         transform="translate(158.66666666666666 142)">
        <path
           id="path3971"
           d="M 39.666666666666664 35.5 l -18.527751786093855 13.461199620924479 M 39.666666666666664 35.5 l -2.393864944087143 -22.776103532232025 M 39.666666666666664 35.5 l 20.921616730180997 9.314903911307518 M 39.666666666666664 35.5 l 2.3938649440871456 22.776103532232025 M 39.666666666666664 35.5 m -20.92161673018098 -9.314903911307557 l 18.527751786093855 -13.461199620924482 M 39.666666666666664 35.5 m -2.393864944087143 -22.776103532232025 l 20.921616730180997 9.314903911307518 M 39.666666666666664 35.5 m 20.921616730180997 9.314903911307518 l -18.52775178609383 13.461199620924518 M 39.666666666666664 35.5 m 2.3938649440871456 22.776103532232025 l -20.921616730180997 -9.314903911307516 " />
      </g>
      <g
         id="g3977"
         transform="translate(158.66666666666666 213)">
        <path
           id="path3975"
           d="M 39.666666666666664 35.5 l 22.901560677855155 -1.1218529191845682e-14 M 39.666666666666664 35.5 l 11.450780338927576 19.833333333333336 M 39.666666666666664 35.5 l -11.450780338927554 19.833333333333346 M 39.666666666666664 35.5 m -11.450780338927554 19.833333333333346 l -11.450780338927613 -19.83333333333331 M 39.666666666666664 35.5 m -11.450780338927613 -19.83333333333331 l 22.901560677855155 -1.682779378776852e-14 " />
      </g>
      <g
         id="g3981"
         transform="translate(238 0)">
        <path
           id="path3979"
           d="M 39.666666666666664 35.5 l -7.076971447166281 21.780678516003 M 39.666666666666664 35.5 l -15.32413518293741 -17.01917631310462 M 39.666666666666664 35.5 l 22.401106630103687 -4.761502202898388 M 39.666666666666664 35.5 l 15.32413518293742 17.019176313104612 M 39.666666666666664 35.5 m -22.401106630103687 4.761502202898385 l 7.0769714471662795 -21.780678516003 M 39.666666666666664 35.5 m -15.32413518293741 -17.01917631310462 l 22.401106630103687 -4.761502202898388 M 39.666666666666664 35.5 m 7.0769714471662795 -21.780678516003 l 15.32413518293742 17.019176313104612 " />
      </g>
      <g
         id="g3985"
         transform="translate(238 71)">
        <path
           id="path3983"
           d="M 39.666666666666664 35.5 l -18.527751786093855 13.461199620924479 M 39.666666666666664 35.5 l -20.921616730180997 -9.31490391130752 M 39.666666666666664 35.5 m 2.3938649440871402 22.776103532232025 l -20.921616730180997 -9.31490391130752 M 39.666666666666664 35.5 m -18.527751786093855 13.461199620924479 l -2.393864944087143 -22.776103532232025 " />
      </g>
      <g
         id="g3989"
         transform="translate(238 142)">
        <path
           id="path3987"
           d="M 39.666666666666664 35.5 l 11.450780338927611 19.833333333333314 M 39.666666666666664 35.5 l -11.450780338927554 19.833333333333346 M 39.666666666666664 35.5 m -11.450780338927554 19.833333333333346 l -11.450780338927613 -19.83333333333331 " />
      </g>
      <g
         id="g3993"
         transform="translate(238 213)">
        <path
           id="path3991"
           d="M 39.666666666666664 35.5 l 18.52775178609387 13.461199620924464 M 39.666666666666664 35.5 l -2.3938649440871207 22.776103532232025 M 39.666666666666664 35.5 l -20.92161673018097 9.314903911307578 M 39.666666666666664 35.5 l -18.52775178609387 -13.46119962092446 M 39.666666666666664 35.5 l 20.92161673018095 -9.314903911307619 M 39.666666666666664 35.5 m 18.52775178609387 13.461199620924464 l -20.92161673018097 9.314903911307578 M 39.666666666666664 35.5 m -20.92161673018097 9.314903911307578 l 2.3938649440870776 -22.77610353223203 M 39.666666666666664 35.5 m -18.52775178609387 -13.46119962092446 l 20.921616730180986 -9.314903911307542 M 39.666666666666664 35.5 m 20.92161673018095 -9.314903911307619 l -2.3938649440870745 22.77610353223203 " />
      </g>
      <g
         id="g3997"
         transform="translate(317.3333333333333 0)">
        <path
           id="path3995"
           d="M 39.666666666666664 35.5 l -18.52775178609386 13.461199620924477 M 39.666666666666664 35.5 l 20.921616730180986 9.314903911307542 M 39.666666666666664 35.5 m -18.52775178609386 13.461199620924477 l -2.393864944087137 -22.776103532232025 M 39.666666666666664 35.5 m -2.393864944087137 -22.776103532232025 l 20.921616730180997 9.314903911307523 " />
      </g>
      <g
         id="g4001"
         transform="translate(317.3333333333333 71)">
        <path
           id="path3999"
           d="M 39.666666666666664 35.5 l 22.901560677855155 -5.609264595922841e-15 M 39.666666666666664 35.5 l -11.45078033892756 19.833333333333346 M 39.666666666666664 35.5 l -11.450780338927608 -19.833333333333314 M 39.666666666666664 35.5 l 11.450780338927558 -19.833333333333346 M 39.666666666666664 35.5 m 11.45078033892759 19.83333333333333 l -22.901560677855155 8.41389689388426e-15 M 39.666666666666664 35.5 m -11.45078033892756 19.833333333333346 l -11.450780338927608 -19.833333333333314 M 39.666666666666664 35.5 m -11.450780338927608 -19.833333333333314 l 22.901560677855155 -5.1899873134893526e-14 " />
      </g>
      <g
         id="g4005"
         transform="translate(317.3333333333333 142)">
        <path
           id="path4003"
           d="M 39.666666666666664 35.5 l -18.527751786093866 -13.461199620924466 M 39.666666666666664 35.5 m -18.527751786093866 -13.461199620924466 l 20.92161673018097 -9.314903911307576 M 39.666666666666664 35.5 m 20.92161673018097 -9.314903911307576 l -2.39386494408708 22.77610353223203 M 39.666666666666664 35.5 m 18.52775178609387 13.461199620924464 l -20.92161673018097 9.314903911307578 " />
      </g>
      <g
         id="g4009"
         transform="translate(317.3333333333333 213)">
        <path
           id="path4007"
           d="M 39.666666666666664 35.5 l -22.401106630103694 -4.761502202898349 M 39.666666666666664 35.5 l -7.076971447166298 -21.780678516002997 M 39.666666666666664 35.5 l 15.324135182937372 -17.01917631310465 M 39.666666666666664 35.5 m 7.0769714471662954 21.780678516002997 l -22.401106630103694 -4.761502202898349 M 39.666666666666664 35.5 m 22.401106630103687 4.761502202898385 l -15.32413518293743 17.0191763131046 " />
      </g>
      <g
         id="g4013"
         transform="translate(396.66666666666663 0)">
        <path
           id="path4011"
           d="M 39.666666666666664 35.5 l -11.450780338927588 -19.83333333333333 M 39.666666666666664 35.5 m -22.901560677855155 2.8046322979614205e-15 l 11.450780338927562 -19.833333333333343 M 39.666666666666664 35.5 m 22.901560677855155 -5.609264595922841e-15 l -11.45078033892756 19.833333333333346 " />
      </g>
      <g
         id="g4017"
         transform="translate(396.66666666666663 71)">
        <path
           id="path4015"
           d="M 39.666666666666664 35.5 l 18.527751786093866 13.46119962092447 M 39.666666666666664 35.5 l -18.527751786093866 -13.461199620924466 M 39.666666666666664 35.5 l 2.393864944087083 -22.77610353223203 M 39.666666666666664 35.5 m -2.393864944087106 22.776103532232028 l -18.527751786093866 -13.461199620924466 M 39.666666666666664 35.5 m -18.527751786093866 -13.461199620924466 l 20.92161673018097 -9.314903911307576 M 39.666666666666664 35.5 m 20.92161673018097 -9.314903911307576 l -2.39386494408708 22.77610353223203 " />
      </g>
      <g
         id="g4021"
         transform="translate(396.66666666666663 142)">
        <path
           id="path4019"
           d="M 39.666666666666664 35.5 l -7.076971447166293 -21.780678516002997 M 39.666666666666664 35.5 l 15.324135182937408 -17.019176313104623 M 39.666666666666664 35.5 l 7.0769714471662954 21.780678516002997 M 39.666666666666664 35.5 l -15.324135182937374 17.019176313104648 M 39.666666666666664 35.5 m -7.076971447166293 -21.780678516002997 l 22.401106630103694 4.761502202898352 M 39.666666666666664 35.5 m -15.324135182937374 17.019176313104648 l -7.076971447166298 -21.780678516002997 M 39.666666666666664 35.5 m -22.401106630103694 -4.761502202898349 l 15.324135182937372 -17.01917631310465 " />
      </g>
      <g
         id="g4025"
         transform="translate(396.66666666666663 213)">
        <path
           id="path4023"
           d="M 39.666666666666664 35.5 l -7.0769714471662715 21.780678516003004 M 39.666666666666664 35.5 l 22.40110663010368 -4.761502202898419 M 39.666666666666664 35.5 m 22.40110663010368 -4.761502202898419 l -7.076971447166266 21.780678516003007 " />
      </g>
    </g>
    <g
       id="accent"
       transform="translate(208.66666666666666 121)">
      <path
         id="path3967"
         d="M 39.666666666666664 35.5 l 7.0769714471662795 -21.780678516003 M 39.666666666666664 35.5 l 15.32413518293742 17.019176313104612 M 39.666666666666664 35.5 l -22.40110663010368 4.76150220289841 M 39.666666666666664 35.5 m 7.0769714471662795 -21.780678516003 l 15.32413518293742 17.019176313104612 M 39.666666666666664 35.5 m 15.32413518293742 17.019176313104612 l -22.40110663010368 4.76150220289841 M 39.666666666666664 35.5 m -22.40110663010368 4.76150220289841 l 7.076971447166236 -21.780678516003018 " />
    </g>
  </g>
</svg>
