<?xml version="1.0" encoding="UTF-8" standalone="no"?>
<svg
   xmlns:dc="http://purl.org/dc/elements/1.1/"
   xmlns:cc="http://creativecommons.org/ns#"
   xmlns:rdf="http://www.w3.org/1999/02/22-rdf-syntax-ns#"
   xmlns:svg="http://www.w3.org/2000/svg"
   xmlns="http://www.w3.org/2000/svg"
   xmlns:sodipodi="http://sodipodi.sourceforge.net/DTD/sodipodi-0.dtd"
   xmlns:inkscape="http://www.inkscape.org/namespaces/inkscape"
   sodipodi:docname="postcard_back_wadah_template_1633474113658.svg"
   version="1.1"
   stroke="black"
   fill="none"
   viewBox="0 0 576 384"
   height="384"
   width="576"
   id="sketch"
   class="Sketch"
   inkscape:version="1.0 (4035a4f, 2020-05-01)">
  <metadata
     id="metadata29">
    <rdf:RDF>
      <cc:Work
         rdf:about="">
        <dc:format>image/svg+xml</dc:format>
        <dc:type
           rdf:resource="http://purl.org/dc/dcmitype/StillImage" />
        <dc:title />
      </cc:Work>
    </rdf:RDF>
  </metadata>
  <defs
     id="defs27" />
  <sodipodi:namedview
     inkscape:current-layer="sketch"
     inkscape:window-maximized="0"
     inkscape:window-y="28"
     inkscape:window-x="0"
     inkscape:cy="182.77345"
     inkscape:cx="245.35859"
     inkscape:zoom="1.5173611"
     showgrid="false"
     id="namedview25"
     inkscape:window-height="872"
     inkscape:window-width="1440"
     inkscape:pageshadow="2"
     inkscape:pageopacity="0"
     guidetolerance="10"
     gridtolerance="10"
     objecttolerance="10"
     borderopacity="1"
     bordercolor="#666666"
     pagecolor="#ffffff"
     inkscape:document-rotation="0" />
  <g
     style="fill:none;stroke:#000000;stroke-opacity:1"
     id="border">
    <path
       style="fill:none;stroke:#000000;stroke-opacity:1"
       id="path10"
       d="M 0 0 L 576 0 L 576 384 L 0 384 L 0 0" />
  </g>
  <g
     style="fill:none;stroke:#000000;stroke-opacity:1"
     id="postcard_back_template">
    <g
       style="fill:none;stroke:#000000;stroke-opacity:1"
       id="postcard-divider">
      <line
         style="fill:none;stroke:#000000;stroke-opacity:1"
         id="line13"
         stroke="black"
         y2="374"
         x2="288"
         y1="10"
         x1="288" />
    </g>
    <g
       style="fill:none;stroke:#000000;stroke-opacity:1"
       id="stamp">
      <rect
         style="fill:none;stroke:#000000;stroke-opacity:1"
         id="rect16"
         width="96"
         height="96"
         y="10"
         x="470" />
      <rect
         style="fill:none;stroke:#000000;stroke-opacity:1"
         id="rect18"
         width="96"
         height="96"
         y="20"
         x="460" />
      <rect
         style="fill:none;stroke:#000000;stroke-opacity:1"
         id="rect20"
         width="96"
         height="96"
         y="30"
         x="450" />
    </g>
  </g>
  <g
     transform="translate(-38.895,23.12)"
     inkscape:label="Hershey Text"
     style="fill:none;stroke:#000000;stroke-linecap:round;stroke-linejoin:round"
     id="wadah">
    <g
       transform="translate(332.815,178.6)"
       id="g4660">
      <path
         d="M 158,662 346,0 M 158,662 h 31 L 346,94.5 M 504,662 346,94.5 M 504,567 346,0 M 504,567 662,0 M 504,662 662,94.5 M 850,662 H 819 L 662,94.5 M 850,662 662,0"
         style="stroke-width:0.125in"
         transform="scale(0.04,-0.04)"
         id="path4640" />
      <path
         d="M 567,441 V 0 h 31 m -31,441 h 31 V 0 m -31,346 -63,64 -63,31 H 346 L 284,410 220,346 189,252 V 189 L 220,94.5 284,31.5 346,0 h 95 l 63,31.5 63,63 M 567,346 441,410 H 346 L 284,378 252,346 220,252 V 189 L 252,94.5 284,63 346,31.5 h 95 l 126,63"
         style="stroke-width:0.125in"
         transform="matrix(0.04,0,0,-0.04,32.76,0)"
         id="path4642" />
      <path
         d="M 567,662 V 0 h 31 m -31,662 h 31 V 0 m -31,346 -63,64 -63,31 H 346 L 284,410 220,346 189,252 V 189 L 220,94.5 284,31.5 346,0 h 95 l 63,31.5 63,63 M 567,346 441,410 H 346 L 284,378 252,346 220,252 V 189 L 252,94.5 284,63 346,31.5 h 95 l 126,63"
         style="stroke-width:0.125in"
         transform="matrix(0.04,0,0,-0.04,57.96,0)"
         id="path4644" />
      <path
         d="M 567,441 V 0 h 31 m -31,441 h 31 V 0 m -31,346 -63,64 -63,31 H 346 L 284,410 220,346 189,252 V 189 L 220,94.5 284,31.5 346,0 h 95 l 63,31.5 63,63 M 567,346 441,410 H 346 L 284,378 252,346 220,252 V 189 L 252,94.5 284,63 346,31.5 h 95 l 126,63"
         style="stroke-width:0.125in"
         transform="matrix(0.04,0,0,-0.04,83.16,0)"
         id="path4646" />
      <path
         d="M 220,662 V 0 h 32 m -32,662 h 32 V 0 m 0,315 94,95 64,31 h 94 l 63,-31 31,-95 V 0 m -346,315 94,63 64,32 h 62 l 64,-32 31,-63 V 0 h 31"
         style="stroke-width:0.125in"
         transform="matrix(0.04,0,0,-0.04,108.36,0)"
         id="path4648" />
      <path
         d="M 410,662 158,0 M 410,567 189,0 H 158 M 410,567 630,0 h 32 M 410,662 662,0 M 252,189 H 567 M 220,158 h 378"
         style="stroke-width:0.125in"
         transform="matrix(0.04,0,0,-0.04,148.68,0)"
         id="path4650" />
      <path
         d="M 567,662 V 0 h 31 m -31,662 h 31 V 0 m -31,346 -63,64 -63,31 H 346 L 284,410 220,346 189,252 V 189 L 220,94.5 284,31.5 346,0 h 95 l 63,31.5 63,63 M 567,346 441,410 H 346 L 284,378 252,346 220,252 V 189 L 252,94.5 284,63 346,31.5 h 95 l 126,63"
         style="stroke-width:0.125in"
         transform="matrix(0.04,0,0,-0.04,173.88,0)"
         id="path4652" />
      <path
         d="M 220,662 V 0 h 32 m -32,662 h 32 V 0"
         style="stroke-width:0.125in"
         transform="matrix(0.04,0,0,-0.04,199.08,0)"
         id="path4654" />
      <path
         d="M 567,441 V 0 h 31 m -31,441 h 31 V 0 m -31,346 -63,64 -63,31 H 346 L 284,410 220,346 189,252 V 189 L 220,94.5 284,31.5 346,0 h 95 l 63,31.5 63,63 M 567,346 441,410 H 346 L 284,378 252,346 220,252 V 189 L 252,94.5 284,63 346,31.5 h 95 l 126,63"
         style="stroke-width:0.125in"
         transform="matrix(0.04,0,0,-0.04,210.44,0)"
         id="path4656" />
      <path
         d="M 220,441 V 0 h 32 m -32,441 h 32 V 0 m 0,315 94,95 64,31 h 94 l 63,-31 31,-95 V 0 m -346,315 94,63 64,32 h 62 l 64,-32 31,-63 V 0 h 31"
         style="stroke-width:0.125in"
         transform="matrix(0.04,0,0,-0.04,235.64,0)"
         id="path4658" />
    </g>
  </g>
  <g
     transform="matrix(1.2008585,0,0,1.2008585,-64.129686,-44.02034)"
     inkscape:label="Hershey Text"
     style="fill:none;stroke:#000000;stroke-linecap:round;stroke-linejoin:round"
     id="address">
    <g
       transform="translate(299.61418,258.32179)"
       id="address 1">
      <path
         d="m 220,504 v 32 l 32,62 32,32 62,32 h 126 l 64,-32 31,-32 31,-62 V 472 L 567,410 504,315 189,0 h 441"
         style="stroke-width:0.25in"
         transform="scale(0.02,-0.02)"
         id="path5257" />
      <path
         d="m 346,662 -94,-32 -32,-63 v -63 l 32,-63 63,-31 126,-32 95,-32 62,-62 32,-64 V 126 L 598,63 567,31.5 472,0 H 346 L 252,31.5 220,63 189,126 v 94 l 31,64 64,62 94,32 126,32 63,31 31,63 v 63 l -31,63 -95,32 H 346"
         style="stroke-width:0.25in"
         transform="matrix(0.02,0,0,-0.02,12.6,0)"
         id="path5259" />
      <path
         d="m 220,504 v 32 l 32,62 32,32 62,32 h 126 l 64,-32 31,-32 31,-62 V 472 L 567,410 504,315 189,0 h 441"
         style="stroke-width:0.25in"
         transform="matrix(0.02,0,0,-0.02,25.2,0)"
         id="path5261" />
      <path
         d="m 346,662 -94,-32 -32,-63 v -63 l 32,-63 63,-31 126,-32 95,-32 62,-62 32,-64 V 126 L 598,63 567,31.5 472,0 H 346 L 252,31.5 220,63 189,126 v 94 l 31,64 64,62 94,32 126,32 63,31 31,63 v 63 l -31,63 -95,32 H 346"
         style="stroke-width:0.25in"
         transform="matrix(0.02,0,0,-0.02,37.8,0)"
         id="path5263" />
      <path
         d="M 158,662 315,0 M 472,662 315,0 M 472,662 630,0 M 788,662 630,0"
         style="stroke-width:0.25in"
         transform="matrix(0.02,0,0,-0.02,57.96,0)"
         id="path5265" />
      <path
         d="m 220,504 v 32 l 32,62 32,32 62,32 h 126 l 64,-32 31,-32 31,-62 V 472 L 567,410 504,315 189,0 h 441"
         style="stroke-width:0.25in"
         transform="matrix(0.02,0,0,-0.02,80.64,0)"
         id="path5267" />
      <path
         d="m 346,662 -94,-32 -32,-63 v -63 l 32,-63 63,-31 126,-32 95,-32 62,-62 32,-64 V 126 L 598,63 567,31.5 472,0 H 346 L 252,31.5 220,63 189,126 v 94 l 31,64 64,62 94,32 126,32 63,31 31,63 v 63 l -31,63 -95,32 H 346"
         style="stroke-width:0.25in"
         transform="matrix(0.02,0,0,-0.02,93.24,0)"
         id="path5269" />
      <path
         d="M 252,662 V 126 L 284,31.5 346,0 h 64 M 158,441 h 220"
         style="stroke-width:0.25in"
         transform="matrix(0.02,0,0,-0.02,105.84,0)"
         id="path5271" />
      <path
         d="M 220,662 V 0 m 0,315 95,95 63,31 h 94 l 64,-31 31,-95 V 0"
         style="stroke-width:0.25in"
         transform="matrix(0.02,0,0,-0.02,113.4,0)"
         id="path5273" />
      <path
         d="m 630,567 -63,63 -95,32 H 346 l -94,-32 -63,-63 v -63 l 31,-63 32,-31 63,-32 189,-63 63,-31 31,-32 32,-63 V 94.5 L 567,31.5 472,0 H 346 l -94,31.5 -63,63"
         style="stroke-width:0.25in"
         transform="matrix(0.02,0,0,-0.02,132.92,0)"
         id="path5275" />
      <path
         d="M 252,662 V 126 L 284,31.5 346,0 h 64 M 158,441 h 220"
         style="stroke-width:0.25in"
         transform="matrix(0.02,0,0,-0.02,145.52,0)"
         id="path5277" />
    </g>
    <g
       transform="translate(300.94447,283.30392)"
       id="address 2">
      <path
         d="M 378,662 126,0 M 378,662 630,0 M 220,220 h 316"
         style="stroke-width:0.25in"
         transform="scale(0.02,-0.02)"
         id="path5281" />
      <path
         d="m 220,441 v -661 m 0,566 64,64 62,31 h 95 l 63,-31 63,-64 31,-94 V 189 L 567,94.5 504,31.5 441,0 h -95 l -62,31.5 -64,63"
         style="stroke-width:0.25in"
         transform="matrix(0.02,0,0,-0.02,11.34,0)"
         id="path5283" />
      <path
         d="M 252,662 V 126 L 284,31.5 346,0 h 64 M 158,441 h 220"
         style="stroke-width:0.25in"
         transform="matrix(0.02,0,0,-0.02,23.3,0)"
         id="path5285" />
      <path
         d="m 284,536 62,31 95,95 V 0"
         style="stroke-width:0.25in"
         transform="matrix(0.02,0,0,-0.02,38.42,0)"
         id="path5287" />
      <path
         d="m 284,536 62,31 95,95 V 0"
         style="stroke-width:0.25in"
         transform="matrix(0.02,0,0,-0.02,51.02,0)"
         id="path5289" />
      <path
         d="M 472,662 V 158 L 441,63 410,31.5 346,0 H 284 L 220,31.5 189,63 158,158 v 62"
         style="stroke-width:0.25in"
         transform="matrix(0.02,0,0,-0.02,63.62,0)"
         id="path5291" />
    </g>
    <g
       transform="translate(299.06447,308.28604)"
       id="address 3">
      <path
         d="M 220,662 V 0 m 0,662 h 284 l 94,-32 32,-32 32,-62 v -64 l -32,-62 -32,-32 -94,-32 m -284,0 h 284 l 94,-31 32,-31 32,-64 V 126 L 630,63 598,31.5 504,0 H 220"
         style="stroke-width:0.25in"
         transform="scale(0.02,-0.02)"
         id="path5295" />
      <path
         d="M 220,441 V 0 m 0,252 32,94 63,64 63,31 h 94"
         style="stroke-width:0.25in"
         transform="matrix(0.02,0,0,-0.02,13.24,0)"
         id="path5297" />
      <path
         d="M 346,441 284,410 220,346 189,252 V 189 L 220,94.5 284,31.5 346,0 h 95 l 63,31.5 63,63 31,94.5 v 63 l -31,94 -63,64 -63,31 h -95"
         style="stroke-width:0.25in"
         transform="matrix(0.02,0,0,-0.02,21.44,0)"
         id="path5299" />
      <path
         d="M 346,441 284,410 220,346 189,252 V 189 L 220,94.5 284,31.5 346,0 h 95 l 63,31.5 63,63 31,94.5 v 63 l -31,94 -63,64 -63,31 h -95"
         style="stroke-width:0.25in"
         transform="matrix(0.02,0,0,-0.02,33.4,0)"
         id="path5301" />
      <path
         d="M 220,662 V 0 M 536,441 220,126 M 346,252 567,0"
         style="stroke-width:0.25in"
         transform="matrix(0.02,0,0,-0.02,45.36,0)"
         id="path5303" />
      <path
         d="M 220,662 V 0"
         style="stroke-width:0.25in"
         transform="matrix(0.02,0,0,-0.02,56.08,0)"
         id="path5305" />
      <path
         d="M 158,441 346,0 M 536,441 346,0 l -62,-126 -64,-63 -62,-31 h -32"
         style="stroke-width:0.25in"
         transform="matrix(0.02,0,0,-0.02,61.12,0)"
         id="path5307" />
      <path
         d="M 220,441 V 0 m 0,315 95,95 63,31 h 94 l 64,-31 31,-95 V 0"
         style="stroke-width:0.25in"
         transform="matrix(0.02,0,0,-0.02,71.2,0)"
         id="path5309" />
      <path
         d="m 252,126 -32,-31.5 -31,31.5 31,32 32,-32 V 63 L 189,0"
         style="stroke-width:0.25in"
         transform="matrix(0.02,0,0,-0.02,83.16,0)"
         id="path5311" />
      <path
         d="M 220,662 V 0 M 220,662 662,0 m 0,662 V 0"
         style="stroke-width:0.25in"
         transform="matrix(0.02,0,0,-0.02,95.76,0)"
         id="path5313" />
      <path
         d="M 126,662 378,346 V 0 M 630,662 378,346"
         style="stroke-width:0.25in"
         transform="matrix(0.02,0,0,-0.02,109.62,0)"
         id="path5315" />
      <path
         d="m 284,536 62,31 95,95 V 0"
         style="stroke-width:0.25in"
         transform="matrix(0.02,0,0,-0.02,136.08,0)"
         id="path5317" />
      <path
         d="m 284,536 62,31 95,95 V 0"
         style="stroke-width:0.25in"
         transform="matrix(0.02,0,0,-0.02,148.68,0)"
         id="path5319" />
      <path
         d="m 220,504 v 32 l 32,62 32,32 62,32 h 126 l 64,-32 31,-32 31,-62 V 472 L 567,410 504,315 189,0 h 441"
         style="stroke-width:0.25in"
         transform="matrix(0.02,0,0,-0.02,161.28,0)"
         id="path5321" />
      <path
         d="m 220,504 v 32 l 32,62 32,32 62,32 h 126 l 64,-32 31,-32 31,-62 V 472 L 567,410 504,315 189,0 h 441"
         style="stroke-width:0.25in"
         transform="matrix(0.02,0,0,-0.02,173.88,0)"
         id="path5323" />
      <path
         d="M 504,662 189,220 H 662 M 504,662 V 0"
         style="stroke-width:0.25in"
         transform="matrix(0.02,0,0,-0.02,186.48,0)"
         id="path5325" />
    </g>
  </g>
</svg>
