<?xml version="1.0" encoding="UTF-8" standalone="no"?>
<svg
   xmlns:dc="http://purl.org/dc/elements/1.1/"
   xmlns:cc="http://creativecommons.org/ns#"
   xmlns:rdf="http://www.w3.org/1999/02/22-rdf-syntax-ns#"
   xmlns:svg="http://www.w3.org/2000/svg"
   xmlns="http://www.w3.org/2000/svg"
   xmlns:sodipodi="http://sodipodi.sourceforge.net/DTD/sodipodi-0.dtd"
   xmlns:inkscape="http://www.inkscape.org/namespaces/inkscape"
   sodipodi:docname="postcard_back_kyla_template.svg"
   version="1.1"
   stroke="black"
   fill="none"
   viewBox="0 0 576 384"
   height="384"
   width="576"
   id="sketch"
   class="Sketch"
   inkscape:version="1.0 (4035a4f, 2020-05-01)">
  <metadata
     id="metadata852">
    <rdf:RDF>
      <cc:Work
         rdf:about="">
        <dc:format>image/svg+xml</dc:format>
        <dc:type
           rdf:resource="http://purl.org/dc/dcmitype/StillImage" />
        <dc:title />
      </cc:Work>
    </rdf:RDF>
  </metadata>
  <defs
     id="defs850" />
  <sodipodi:namedview
     pagecolor="#ffffff"
     bordercolor="#666666"
     borderopacity="1"
     objecttolerance="10"
     gridtolerance="10"
     guidetolerance="10"
     inkscape:pageopacity="0"
     inkscape:pageshadow="2"
     inkscape:window-width="1440"
     inkscape:window-height="872"
     id="namedview848"
     showgrid="false"
     inkscape:zoom="1.2361111"
     inkscape:cx="222.26087"
     inkscape:cy="188.76404"
     inkscape:window-x="0"
     inkscape:window-y="28"
     inkscape:window-maximized="0"
     inkscape:current-layer="postcard_back_template"
     inkscape:document-rotation="0" />
  <g
     id="border"
     style="fill:none;fill-opacity:1;stroke:#000000;stroke-opacity:1">
    <path
       d="M 0 0 L 576 0 L 576 384 L 0 384 L 0 0"
       id="path833"
       style="fill:none;fill-opacity:1;stroke:#000000;stroke-opacity:1" />
  </g>
  <g
     id="postcard_back_template"
     style="fill:none;stroke:#000000;stroke-opacity:1">
    <g
       id="postcard-divider"
       style="fill:none;stroke:#000000;stroke-opacity:1">
      <line
         x1="288"
         y1="10"
         x2="288"
         y2="374"
         stroke="black"
         id="line836"
         style="fill:none;stroke:#000000;stroke-opacity:1" />
    </g>
    <path
       d="m 566.10448,60.000138 c 0,6.085805 -7.60465,6.085805 -7.60465,12.044823 0,6.085806 7.60465,6.085806 7.60465,12.044824 0,6.085788 -7.60465,6.085788 -7.60465,12.044815 0,6.08579 7.60465,6.08579 7.60465,12.04481 0,6.0858 -7.60465,6.0858 -7.60465,12.04482 0,6.08581 7.60465,6.08581 7.60465,12.04483 0,6.08579 -7.60465,6.08579 -7.60465,12.0448 0,6.08579 7.60465,6.08579 7.60465,12.04481 0,6.0858 -7.60465,6.0858 -7.60465,12.04482 0,6.08582 7.60465,6.08582 7.60465,12.04483 0,6.08584 -7.60465,6.08584 -7.60465,12.04484 M 556.1045,55.000125 c 0,6.085805 -7.60466,6.085805 -7.60466,12.044824 0,6.085804 7.60466,6.085804 7.60466,12.044821 0,6.085801 -7.60466,6.085801 -7.60466,12.044819 0,6.085801 7.60466,6.085801 7.60466,12.044821 0,6.0858 -7.60466,6.0858 -7.60466,12.04481 0,6.08582 7.60466,6.08582 7.60466,12.04484 0,6.08578 -7.60466,6.08578 -7.60466,12.0448 0,6.08579 7.60466,6.08579 7.60466,12.04481 0,6.0858 -7.60466,6.0858 -7.60466,12.04481 0,6.08583 7.60466,6.08583 7.60466,12.04484 0,6.08583 -7.60466,6.08583 -7.60466,12.04484 M 546.10452,50.000111 c 0,6.085804 -7.60466,6.085804 -7.60466,12.044823 0,6.085803 7.60466,6.085803 7.60466,12.044822 0,6.085801 -7.60466,6.085801 -7.60466,12.044818 0,6.085801 7.60466,6.085801 7.60466,12.044816 0,6.0858 -7.60466,6.0858 -7.60466,12.04482 0,6.08581 7.60466,6.08581 7.60466,12.04483 0,6.08579 -7.60466,6.08579 -7.60466,12.04481 0,6.08579 7.60466,6.08579 7.60466,12.0448 0,6.0858 -7.60466,6.0858 -7.60466,12.04482 0,6.08583 7.60466,6.08583 7.60466,12.04483 0,6.08584 -7.60466,6.08584 -7.60466,12.04485 M 536.10454,45.000097 c 0,6.085804 -7.60466,6.085804 -7.60466,12.044823 0,6.085803 7.60466,6.085803 7.60466,12.04482 0,6.085803 -7.60466,6.085803 -7.60466,12.04482 0,6.085801 7.60466,6.085801 7.60466,12.044818 0,6.085802 -7.60466,6.085802 -7.60466,12.044822 0,6.08581 7.60466,6.08581 7.60466,12.04483 0,6.08579 -7.60466,6.08579 -7.60466,12.0448 0,6.08579 7.60466,6.08579 7.60466,12.04481 0,6.0858 -7.60466,6.0858 -7.60466,12.04482 0,6.08581 7.60466,6.08581 7.60466,12.04483 0,6.08582 -7.60466,6.08582 -7.60466,12.04483 M 526.10456,40.000083 c 0,6.085804 -7.60466,6.085804 -7.60466,12.044823 0,6.085803 7.60466,6.085803 7.60466,12.044819 0,6.085806 -7.60466,6.085806 -7.60466,12.044821 0,6.085801 7.60466,6.085801 7.60466,12.044818 0,6.085801 -7.60466,6.085801 -7.60466,12.044816 0,6.08582 7.60466,6.08582 7.60466,12.04483 0,6.0858 -7.60466,6.0858 -7.60466,12.04482 0,6.08579 7.60466,6.08579 7.60466,12.04481 0,6.0858 -7.60466,6.0858 -7.60466,12.04482 0,6.08581 7.60466,6.08581 7.60466,12.04483 0,6.08582 -7.60466,6.08582 -7.60466,12.04481 M 516.10457,35.00007 c 0,6.085804 -7.60466,6.085804 -7.60466,12.044823 0,6.085803 7.60466,6.085803 7.60466,12.044819 0,6.085806 -7.60466,6.085806 -7.60466,12.044822 0,6.085798 7.60466,6.085798 7.60466,12.044816 0,6.085801 -7.60466,6.085801 -7.60466,12.04482 0,6.08581 7.60466,6.08581 7.60466,12.04483 0,6.0858 -7.60466,6.0858 -7.60466,12.04482 0,6.08579 7.60466,6.08579 7.60466,12.0448 0,6.0858 -7.60466,6.0858 -7.60466,12.04482 0,6.08581 7.60466,6.08581 7.60466,12.04483 0,6.08581 -7.60466,6.08581 -7.60466,12.04482 M 506.10459,30.000056 c 0,6.085804 -7.60466,6.085804 -7.60466,12.044823 0,6.085803 7.60466,6.085803 7.60466,12.044819 0,6.085806 -7.60466,6.085806 -7.60466,12.044822 0,6.085802 7.60466,6.085802 7.60466,12.044816 0,6.0858 -7.60466,6.0858 -7.60466,12.044818 0,6.085816 7.60466,6.085816 7.60466,12.044836 0,6.0858 -7.60466,6.0858 -7.60466,12.04481 0,6.0858 7.60466,6.0858 7.60466,12.04482 0,6.0858 -7.60466,6.0858 -7.60466,12.04482 0,6.08581 7.60466,6.08581 7.60466,12.04483 0,6.08581 -7.60466,6.08581 -7.60466,12.04482 M 496.10461,25.000041 c 0,6.085805 -7.60466,6.085805 -7.60466,12.044824 0,6.085803 7.60466,6.085803 7.60466,12.044819 0,6.085806 -7.60466,6.085806 -7.60466,12.044822 0,6.085802 7.60466,6.085802 7.60466,12.044816 0,6.0858 -7.60466,6.0858 -7.60466,12.044818 0,6.085813 7.60466,6.085813 7.60466,12.04483 0,6.0858 -7.60466,6.0858 -7.60466,12.04482 0,6.0858 7.60466,6.0858 7.60466,12.04482 0,6.0858 -7.60466,6.0858 -7.60466,12.04482 0,6.08581 7.60466,6.08581 7.60466,12.04483 0,6.0858 -7.60466,6.0858 -7.60466,12.04481 M 486.10463,20.000028 c 0,6.085805 -7.60466,6.085805 -7.60466,12.044824 0,6.085803 7.60466,6.085803 7.60466,12.044819 0,6.085806 -7.60466,6.085806 -7.60466,12.044822 0,6.085802 7.60466,6.085802 7.60466,12.044818 0,6.085797 -7.60466,6.085797 -7.60466,12.044815 0,6.085813 7.60466,6.085813 7.60466,12.04483 0,6.085804 -7.60466,6.085804 -7.60466,12.044824 0,6.0858 7.60466,6.0858 7.60466,12.04481 0,6.0858 -7.60466,6.0858 -7.60466,12.04482 0,6.08581 7.60466,6.08581 7.60466,12.04483 0,6.0858 -7.60466,6.0858 -7.60466,12.04482 M 476.10464,15.000014 c 0,6.085805 -7.60466,6.085805 -7.60466,12.044823 0,6.085804 7.60466,6.085804 7.60466,12.04482 0,6.085806 -7.60466,6.085806 -7.60466,12.044822 0,6.085802 7.60466,6.085802 7.60466,12.044818 0,6.085797 -7.60466,6.085797 -7.60466,12.044814 0,6.085814 7.60466,6.085814 7.60466,12.044831 0,6.085801 -7.60466,6.085801 -7.60466,12.044818 0,6.0858 7.60466,6.0858 7.60466,12.04482 0,6.0858 -7.60466,6.0858 -7.60466,12.04482 0,6.08581 7.60466,6.08581 7.60466,12.04483 0,6.0858 -7.60466,6.0858 -7.60466,12.04482 M 466.10466,10 c 0,6.085804 -7.60466,6.085804 -7.60466,12.044822 0,6.085804 7.60466,6.085804 7.60466,12.044821 0,6.085804 -7.60466,6.085804 -7.60466,12.04482 0,6.085802 7.60466,6.085802 7.60466,12.04482 0,6.0858 -7.60466,6.0858 -7.60466,12.044818 0,6.085809 7.60466,6.085809 7.60466,12.044827 0,6.085801 -7.60466,6.085801 -7.60466,12.044818 0,6.085804 7.60466,6.085804 7.60466,12.044814 0,6.0858 -7.60466,6.0858 -7.60466,12.04482 0,6.08582 7.60466,6.08582 7.60466,12.04483 0,6.0858 -7.60466,6.0858 -7.60466,12.04482"
       style="display:inline;fill:none;stroke:#000000;stroke-width:1;stroke-miterlimit:4;stroke-dasharray:none;stroke-opacity:1"
       id="path93107-25-5-1-7-7-3-1-5-3-3-9" />
  </g>
  <g
     id="g1758"
     style="fill:none;stroke:#000000;stroke-linecap:round;stroke-linejoin:round"
     inkscape:label="Hershey Text"
     transform="translate(-59.930978,64.126337)">
    <g
       id="g1756"
       transform="translate(355.955,156.944)">
      <path
         id="path1732"
         transform="scale(0.04,-0.04)"
         style="stroke-width:0.125in"
         d="M 220,662 V 0 h 32 m -32,662 h 32 V 0 M 662,662 H 630 L 252,284 M 662,662 252,252 M 346,378 630,0 h 32 M 378,378 662,0" />
      <path
         id="path1734"
         transform="matrix(0.04,0,0,-0.04,26.48,0)"
         style="stroke-width:0.125in"
         d="M 158,441 346,0 M 158,441 h 31 L 346,63 M 536,441 H 504 L 346,63 220,-220 M 536,441 346,0 252,-220 h -32" />
      <path
         id="path1736"
         transform="matrix(0.04,0,0,-0.04,46.64,0)"
         style="stroke-width:0.125in"
         d="M 220,662 V 0 h 32 m -32,662 h 32 V 0" />
      <path
         id="path1738"
         transform="matrix(0.04,0,0,-0.04,58,0)"
         style="stroke-width:0.125in"
         d="M 567,441 V 0 h 31 m -31,441 h 31 V 0 m -31,346 -63,64 -63,31 H 346 L 284,410 220,346 189,252 V 189 L 220,94.5 284,31.5 346,0 h 95 l 63,31.5 63,63 M 567,346 441,410 H 346 L 284,378 252,346 220,252 V 189 L 252,94.5 284,63 346,31.5 h 95 l 126,63" />
      <path
         id="path1740"
         transform="matrix(0.04,0,0,-0.04,98.32,0)"
         style="stroke-width:0.125in"
         d="M 158,662 346,0 M 158,662 h 31 L 346,94.5 M 504,662 346,94.5 M 504,567 346,0 M 504,567 662,0 M 504,662 662,94.5 M 850,662 H 819 L 662,94.5 M 850,662 662,0" />
      <path
         id="path1742"
         transform="matrix(0.04,0,0,-0.04,131.08,0)"
         style="stroke-width:0.125in"
         d="m 220,662 -31,-32 v -32 l 31,-31 h 32 l 32,31 v 32 l -32,32 h -32 m 0,-32 v -32 h 32 v 32 h -32 m 0,-189 V 0 h 32 m -32,441 h 32 V 0" />
      <path
         id="path1744"
         transform="matrix(0.04,0,0,-0.04,142.44,0)"
         style="stroke-width:0.125in"
         d="M 220,662 V 0 h 32 m -32,662 h 32 V 0" />
      <path
         id="path1746"
         transform="matrix(0.04,0,0,-0.04,153.8,0)"
         style="stroke-width:0.125in"
         d="M 220,662 V 0 h 32 m -32,662 h 32 V 0" />
      <path
         id="path1748"
         transform="matrix(0.04,0,0,-0.04,165.16,0)"
         style="stroke-width:0.125in"
         d="m 220,662 -31,-32 v -32 l 31,-31 h 32 l 32,31 v 32 l -32,32 h -32 m 0,-32 v -32 h 32 v 32 h -32 m 0,-189 V 0 h 32 m -32,441 h 32 V 0" />
      <path
         id="path1750"
         transform="matrix(0.04,0,0,-0.04,176.52,0)"
         style="stroke-width:0.125in"
         d="M 567,441 V 0 h 31 m -31,441 h 31 V 0 m -31,346 -63,64 -63,31 H 346 L 284,410 220,346 189,252 V 189 L 220,94.5 284,31.5 346,0 h 95 l 63,31.5 63,63 M 567,346 441,410 H 346 L 284,378 252,346 220,252 V 189 L 252,94.5 284,63 346,31.5 h 95 l 126,63" />
      <path
         id="path1752"
         transform="matrix(0.04,0,0,-0.04,201.72,0)"
         style="stroke-width:0.125in"
         d="M 220,441 V 0 h 32 m -32,441 h 32 V 0 m 0,315 94,95 64,31 h 94 l 63,-31 31,-95 V 0 m -346,315 94,63 64,32 h 62 l 64,-32 31,-63 V 0 h 31 m 0,315 95,95 63,31 h 94 l 64,-31 31,-95 V 0 m -347,315 95,63 63,32 h 63 l 63,-32 32,-63 V 0 h 31" />
      <path
         id="path1754"
         transform="matrix(0.04,0,0,-0.04,240.76,0)"
         style="stroke-width:0.125in"
         d="m 536,346 -32,64 -94,31 h -95 l -95,-31 -31,-64 31,-62 64,-32 157,-63 63,-31 m -32,31 32,-63 V 94.5 l -32,-63 M 504,63 410,31.5 H 315 L 220,63 m 32,-31.5 -32,63 H 189 M 536,346 h -32 l -32,64 m 32,-32 -94,32 h -95 l -95,-32 m 32,32 -32,-64 32,-62 m -32,31 64,-31 157,-64 63,-31 32,-63 V 94.5 L 504,31.5 410,0 h -95 l -95,31.5 -31,63" />
    </g>
  </g>
  <g
     id="g1861"
     style="fill:none;stroke:#000000;stroke-linecap:round;stroke-linejoin:round"
     inkscape:label="Hershey Text"
     transform="matrix(0.71449523,0,0,0.71449523,28.130259,131.60301)">
    <g
       id="g1827"
       transform="translate(374.562,199.82)">
      <path
         id="path1801"
         transform="scale(0.04,-0.04)"
         style="stroke-width:0.125in"
         d="M 630,662 315,0 M 189,662 h 441" />
      <path
         id="path1803"
         transform="matrix(0.04,0,0,-0.04,25.2,0)"
         style="stroke-width:0.125in"
         d="m 598,567 -31,63 -95,32 H 410 L 315,630 252,536 220,378 V 220 L 252,94.5 315,31.5 410,0 h 31 l 95,31.5 62,63 32,94.5 v 31 l -32,95 -62,63 -95,32 h -31 l -95,-32 -63,-63 -32,-95" />
      <path
         id="path1805"
         transform="matrix(0.04,0,0,-0.04,65.52,0)"
         style="stroke-width:0.125in"
         d="M 220,662 V 0 m 0,662 h 284 l 94,-32 32,-32 32,-62 v -64 l -32,-62 -32,-32 -94,-32 m -284,0 h 284 l 94,-31 32,-31 32,-64 V 126 L 630,63 598,31.5 504,0 H 220" />
      <path
         id="path1807"
         transform="matrix(0.04,0,0,-0.04,92,0)"
         style="stroke-width:0.125in"
         d="M 220,441 V 0 m 0,252 32,94 63,64 63,31 h 94" />
      <path
         id="path1809"
         transform="matrix(0.04,0,0,-0.04,108.4,0)"
         style="stroke-width:0.125in"
         d="M 346,441 284,410 220,346 189,252 V 189 L 220,94.5 284,31.5 346,0 h 95 l 63,31.5 63,63 31,94.5 v 63 l -31,94 -63,64 -63,31 h -95" />
      <path
         id="path1811"
         transform="matrix(0.04,0,0,-0.04,132.32,0)"
         style="stroke-width:0.125in"
         d="M 346,441 284,410 220,346 189,252 V 189 L 220,94.5 284,31.5 346,0 h 95 l 63,31.5 63,63 31,94.5 v 63 l -31,94 -63,64 -63,31 h -95" />
      <path
         id="path1813"
         transform="matrix(0.04,0,0,-0.04,156.24,0)"
         style="stroke-width:0.125in"
         d="M 220,662 V 0 M 536,441 220,126 M 346,252 567,0" />
      <path
         id="path1815"
         transform="matrix(0.04,0,0,-0.04,177.68,0)"
         style="stroke-width:0.125in"
         d="m 189,662 31,-32 32,32 -32,31 -31,-31 M 220,441 V 0" />
      <path
         id="path1817"
         transform="matrix(0.04,0,0,-0.04,187.76,0)"
         style="stroke-width:0.125in"
         d="M 220,441 V 0 m 0,315 95,95 63,31 h 94 l 64,-31 31,-95 V 0" />
      <path
         id="path1819"
         transform="matrix(0.04,0,0,-0.04,211.68,0)"
         style="stroke-width:0.125in"
         d="M 567,441 V -63 l -31,-95 -32,-31 -63,-31 h -95 l -62,31 m 283,535 -63,64 -63,31 H 346 L 284,410 220,346 189,252 V 189 L 220,94.5 284,31.5 346,0 h 95 l 63,31.5 63,63" />
      <path
         id="path1821"
         transform="matrix(0.04,0,0,-0.04,235.6,0)"
         style="stroke-width:0.125in"
         d="m 536,346 -32,64 -94,31 h -95 l -95,-31 -31,-64 31,-62 64,-32 157,-32 63,-31 32,-63 V 94.5 L 504,31.5 410,0 h -95 l -95,31.5 -31,63" />
      <path
         id="path1823"
         transform="matrix(0.04,0,0,-0.04,272.16,0)"
         style="stroke-width:0.125in"
         d="m 630,567 -63,63 -95,32 H 346 l -94,-32 -63,-63 v -63 l 31,-63 32,-31 63,-32 189,-63 63,-31 31,-32 32,-63 V 94.5 L 567,31.5 472,0 H 346 l -94,31.5 -63,63" />
      <path
         id="path1825"
         transform="matrix(0.04,0,0,-0.04,297.36,0)"
         style="stroke-width:0.125in"
         d="M 252,662 V 126 L 284,31.5 346,0 h 64 M 158,441 h 220" />
    </g>
    <g
       id="g1859"
       transform="translate(374.562,249.82)">
      <path
         id="path1829"
         transform="scale(0.04,-0.04)"
         style="stroke-width:0.125in"
         d="M 220,662 V 0 M 220,662 472,0 M 724,662 472,0 M 724,662 V 0" />
      <path
         id="path1831"
         transform="matrix(0.04,0,0,-0.04,30.24,0)"
         style="stroke-width:0.125in"
         d="m 189,252 h 378 v 63 l -31,63 -32,32 -63,31 H 346 L 284,410 220,346 189,252 V 189 L 220,94.5 284,31.5 346,0 h 95 l 63,31.5 63,63" />
      <path
         id="path1833"
         transform="matrix(0.04,0,0,-0.04,52.92,0)"
         style="stroke-width:0.125in"
         d="M 567,662 V 0 m 0,346 -63,64 -63,31 H 346 L 284,410 220,346 189,252 V 189 L 220,94.5 284,31.5 346,0 h 95 l 63,31.5 63,63" />
      <path
         id="path1835"
         transform="matrix(0.04,0,0,-0.04,76.84,0)"
         style="stroke-width:0.125in"
         d="M 410,662 H 346 L 284,630 252,536 V 0 m -94,441 h 220" />
      <path
         id="path1837"
         transform="matrix(0.04,0,0,-0.04,91.96,0)"
         style="stroke-width:0.125in"
         d="M 346,441 284,410 220,346 189,252 V 189 L 220,94.5 284,31.5 346,0 h 95 l 63,31.5 63,63 31,94.5 v 63 l -31,94 -63,64 -63,31 h -95" />
      <path
         id="path1839"
         transform="matrix(0.04,0,0,-0.04,115.88,0)"
         style="stroke-width:0.125in"
         d="M 220,441 V 0 m 0,252 32,94 63,64 63,31 h 94" />
      <path
         id="path1841"
         transform="matrix(0.04,0,0,-0.04,132.28,0)"
         style="stroke-width:0.125in"
         d="M 567,662 V 0 m 0,346 -63,64 -63,31 H 346 L 284,410 220,346 189,252 V 189 L 220,94.5 284,31.5 346,0 h 95 l 63,31.5 63,63" />
      <path
         id="path1843"
         transform="matrix(0.04,0,0,-0.04,156.2,0)"
         style="stroke-width:0.125in"
         d="m 252,126 -32,-31.5 -31,31.5 31,32 32,-32 V 63 L 189,0" />
      <path
         id="path1845"
         transform="matrix(0.04,0,0,-0.04,181.4,0)"
         style="stroke-width:0.125in"
         d="M 220,662 V 0 M 220,662 472,0 M 724,662 472,0 M 724,662 V 0" />
      <path
         id="path1847"
         transform="matrix(0.04,0,0,-0.04,211.64,0)"
         style="stroke-width:0.125in"
         d="M 378,662 126,0 M 378,662 630,0 M 220,220 h 316" />
      <path
         id="path1849"
         transform="matrix(0.04,0,0,-0.04,249.44,0)"
         style="stroke-width:0.125in"
         d="M 378,662 284,630 220,536 189,378 V 284 L 220,126 284,31.5 378,0 h 63 l 95,31.5 62,94.5 32,158 v 94 l -32,158 -62,94 -95,32 h -63" />
      <path
         id="path1851"
         transform="matrix(0.04,0,0,-0.04,274.64,0)"
         style="stroke-width:0.125in"
         d="m 220,504 v 32 l 32,62 32,32 62,32 h 126 l 64,-32 31,-32 31,-62 V 472 L 567,410 504,315 189,0 h 441" />
      <path
         id="path1853"
         transform="matrix(0.04,0,0,-0.04,299.84,0)"
         style="stroke-width:0.125in"
         d="m 284,536 62,31 95,95 V 0" />
      <path
         id="path1855"
         transform="matrix(0.04,0,0,-0.04,325.04,0)"
         style="stroke-width:0.125in"
         d="M 567,662 H 252 l -32,-284 32,32 94,31 h 95 l 95,-31 62,-64 32,-94 V 189 L 598,94.5 536,31.5 441,0 H 346 L 252,31.5 220,63 189,126" />
      <path
         id="path1857"
         transform="matrix(0.04,0,0,-0.04,350.24,0)"
         style="stroke-width:0.125in"
         d="M 567,662 H 252 l -32,-284 32,32 94,31 h 95 l 95,-31 62,-64 32,-94 V 189 L 598,94.5 536,31.5 441,0 H 346 L 252,31.5 220,63 189,126" />
    </g>
  </g>
</svg>
