<?xml version="1.0" encoding="UTF-8" standalone="no"?>
<svg
   xmlns:dc="http://purl.org/dc/elements/1.1/"
   xmlns:cc="http://creativecommons.org/ns#"
   xmlns:rdf="http://www.w3.org/1999/02/22-rdf-syntax-ns#"
   xmlns:svg="http://www.w3.org/2000/svg"
   xmlns="http://www.w3.org/2000/svg"
   xmlns:sodipodi="http://sodipodi.sourceforge.net/DTD/sodipodi-0.dtd"
   xmlns:inkscape="http://www.inkscape.org/namespaces/inkscape"
   sodipodi:docname="postcard_back_ellie_template.svg"
   version="1.1"
   stroke="black"
   fill="none"
   viewBox="0 0 576 384"
   height="384"
   width="576"
   id="sketch"
   class="Sketch"
   inkscape:version="1.0 (4035a4f, 2020-05-01)">
  <metadata
     id="metadata29">
    <rdf:RDF>
      <cc:Work
         rdf:about="">
        <dc:format>image/svg+xml</dc:format>
        <dc:type
           rdf:resource="http://purl.org/dc/dcmitype/StillImage" />
        <dc:title></dc:title>
      </cc:Work>
    </rdf:RDF>
  </metadata>
  <defs
     id="defs27" />
  <sodipodi:namedview
     inkscape:document-rotation="0"
     pagecolor="#ffffff"
     bordercolor="#666666"
     borderopacity="1"
     objecttolerance="10"
     gridtolerance="10"
     guidetolerance="10"
     inkscape:pageopacity="0"
     inkscape:pageshadow="2"
     inkscape:window-width="1440"
     inkscape:window-height="872"
     id="namedview25"
     showgrid="false"
     inkscape:zoom="1.5794753"
     inkscape:cx="296.09043"
     inkscape:cy="180.69266"
     inkscape:window-x="0"
     inkscape:window-y="28"
     inkscape:window-maximized="0"
     inkscape:current-layer="postcard_back_template" />
  <g
     id="border"
     style="stroke:#000000;stroke-opacity:1;fill:none">
    <path
       d="M 0 0 L 576 0 L 576 384 L 0 384 L 0 0"
       id="path10"
       style="stroke:#000000;stroke-opacity:1;fill:none" />
  </g>
  <g
     id="postcard_back_template"
     style="stroke:#000000;stroke-opacity:1;fill:none">
    <g
       id="postcard-divider"
       style="stroke:#000000;stroke-opacity:1;fill:none">
      <line
         x1="288"
         y1="10"
         x2="288"
         y2="374"
         stroke="black"
         id="line13"
         style="stroke:#000000;stroke-opacity:1;fill:none" />
    </g>
    <g
       transform="matrix(1.26787 0 0 1.26745 253.916 -49.4036)"
       id="stamp"
       style="display:inline">
      <path
         d="m 239.92081,90.263072 c 0,4.801613 -5.99798,4.801613 -5.99798,9.503194 0,4.801614 5.99798,4.801614 5.99798,9.503194 0,4.8016 -5.99798,4.8016 -5.99798,9.50319 0,4.8016 5.99798,4.8016 5.99798,9.50318 0,4.80161 -5.99798,4.80161 -5.99798,9.50319 0,4.80162 5.99798,4.80162 5.99798,9.5032 0,4.8016 -5.99798,4.8016 -5.99798,9.50318 0,4.8016 5.99798,4.8016 5.99798,9.50318 0,4.80161 -5.99798,4.80161 -5.99798,9.50319 0,4.80163 5.99798,4.80163 5.99798,9.5032 0,4.80164 -5.99798,4.80164 -5.99798,9.50321 M 232.03358,86.318133 c 0,4.801613 -5.99798,4.801613 -5.99798,9.503194 0,4.801613 5.99798,4.801613 5.99798,9.503193 0,4.80161 -5.99798,4.80161 -5.99798,9.50319 0,4.80161 5.99798,4.80161 5.99798,9.50319 0,4.80161 -5.99798,4.80161 -5.99798,9.50319 0,4.80162 5.99798,4.80162 5.99798,9.5032 0,4.8016 -5.99798,4.8016 -5.99798,9.50318 0,4.8016 5.99798,4.8016 5.99798,9.50318 0,4.80161 -5.99798,4.80161 -5.99798,9.50319 0,4.80163 5.99798,4.80163 5.99798,9.5032 0,4.80164 -5.99798,4.80164 -5.99798,9.50321 M 224.14635,82.373193 c 0,4.801613 -5.99798,4.801613 -5.99798,9.503194 0,4.801612 5.99798,4.801612 5.99798,9.503193 0,4.80161 -5.99798,4.80161 -5.99798,9.50319 0,4.80161 5.99798,4.80161 5.99798,9.50319 0,4.80161 -5.99798,4.80161 -5.99798,9.50319 0,4.80162 5.99798,4.80162 5.99798,9.5032 0,4.8016 -5.99798,4.8016 -5.99798,9.50318 0,4.8016 5.99798,4.8016 5.99798,9.50318 0,4.80161 -5.99798,4.80161 -5.99798,9.50319 0,4.80163 5.99798,4.80163 5.99798,9.5032 0,4.80164 -5.99798,4.80164 -5.99798,9.50321 M 216.25912,78.428253 c 0,4.801613 -5.99798,4.801613 -5.99798,9.503194 0,4.801612 5.99798,4.801612 5.99798,9.503191 0,4.801612 -5.99798,4.801612 -5.99798,9.503192 0,4.80161 5.99798,4.80161 5.99798,9.50319 0,4.80161 -5.99798,4.80161 -5.99798,9.50319 0,4.80162 5.99798,4.80162 5.99798,9.5032 0,4.8016 -5.99798,4.8016 -5.99798,9.50318 0,4.8016 5.99798,4.8016 5.99798,9.50318 0,4.80161 -5.99798,4.80161 -5.99798,9.50319 0,4.80162 5.99798,4.80162 5.99798,9.5032 0,4.80163 -5.99798,4.80163 -5.99798,9.5032 M 208.37189,74.483313 c 0,4.801613 -5.99798,4.801613 -5.99798,9.503194 0,4.801612 5.99798,4.801612 5.99798,9.503191 0,4.801614 -5.99798,4.801614 -5.99798,9.503192 0,4.80161 5.99798,4.80161 5.99798,9.50319 0,4.80161 -5.99798,4.80161 -5.99798,9.50319 0,4.80162 5.99798,4.80162 5.99798,9.5032 0,4.80161 -5.99798,4.80161 -5.99798,9.50319 0,4.8016 5.99798,4.8016 5.99798,9.50318 0,4.80161 -5.99798,4.80161 -5.99798,9.50319 0,4.80162 5.99798,4.80162 5.99798,9.5032 0,4.80163 -5.99798,4.80163 -5.99798,9.50319 M 200.48466,70.538374 c 0,4.801613 -5.99798,4.801613 -5.99798,9.503194 0,4.801612 5.99798,4.801612 5.99798,9.503191 0,4.801614 -5.99798,4.801614 -5.99798,9.503193 0,4.801608 5.99798,4.801608 5.99798,9.503188 0,4.80161 -5.99798,4.80161 -5.99798,9.50319 0,4.80162 5.99798,4.80162 5.99798,9.5032 0,4.80161 -5.99798,4.80161 -5.99798,9.50319 0,4.8016 5.99798,4.8016 5.99798,9.50318 0,4.80161 -5.99798,4.80161 -5.99798,9.50319 0,4.80162 5.99798,4.80162 5.99798,9.5032 0,4.80162 -5.99798,4.80162 -5.99798,9.50319 M 192.59743,66.593434 c 0,4.801613 -5.99798,4.801613 -5.99798,9.503194 0,4.801612 5.99798,4.801612 5.99798,9.503191 0,4.801614 -5.99798,4.801614 -5.99798,9.503193 0,4.801611 5.99798,4.801611 5.99798,9.503188 0,4.80161 -5.99798,4.80161 -5.99798,9.50319 0,4.80162 5.99798,4.80162 5.99798,9.5032 0,4.80161 -5.99798,4.80161 -5.99798,9.50319 0,4.80161 5.99798,4.80161 5.99798,9.50319 0,4.80161 -5.99798,4.80161 -5.99798,9.50319 0,4.80162 5.99798,4.80162 5.99798,9.5032 0,4.80162 -5.99798,4.80162 -5.99798,9.50319 M 184.7102,62.648494 c 0,4.801613 -5.99798,4.801613 -5.99798,9.503194 0,4.801612 5.99798,4.801612 5.99798,9.503191 0,4.801614 -5.99798,4.801614 -5.99798,9.503193 0,4.801611 5.99798,4.801611 5.99798,9.503188 0,4.80161 -5.99798,4.80161 -5.99798,9.50319 0,4.80162 5.99798,4.80162 5.99798,9.5032 0,4.80161 -5.99798,4.80161 -5.99798,9.50319 0,4.80161 5.99798,4.80161 5.99798,9.50319 0,4.80161 -5.99798,4.80161 -5.99798,9.50319 0,4.80162 5.99798,4.80162 5.99798,9.5032 0,4.80161 -5.99798,4.80161 -5.99798,9.50319 M 176.82297,58.703555 c 0,4.801613 -5.99798,4.801613 -5.99798,9.503194 0,4.801612 5.99798,4.801612 5.99798,9.503191 0,4.801614 -5.99798,4.801614 -5.99798,9.503193 0,4.801611 5.99798,4.801611 5.99798,9.50319 0,4.801607 -5.99798,4.801607 -5.99798,9.503187 0,4.80162 5.99798,4.80162 5.99798,9.5032 0,4.80161 -5.99798,4.80161 -5.99798,9.50319 0,4.80161 5.99798,4.80161 5.99798,9.50319 0,4.80161 -5.99798,4.80161 -5.99798,9.50319 0,4.80162 5.99798,4.80162 5.99798,9.5032 0,4.80161 -5.99798,4.80161 -5.99798,9.50319 M 168.93574,54.758615 c 0,4.801613 -5.99798,4.801613 -5.99798,9.503194 0,4.801612 5.99798,4.801612 5.99798,9.503191 0,4.801614 -5.99798,4.801614 -5.99798,9.503193 0,4.801611 5.99798,4.801611 5.99798,9.50319 0,4.801607 -5.99798,4.801607 -5.99798,9.503187 0,4.80162 5.99798,4.80162 5.99798,9.5032 0,4.80161 -5.99798,4.80161 -5.99798,9.50319 0,4.80161 5.99798,4.80161 5.99798,9.50319 0,4.80161 -5.99798,4.80161 -5.99798,9.50319 0,4.80162 5.99798,4.80162 5.99798,9.5032 0,4.80161 -5.99798,4.80161 -5.99798,9.50319 M 161.04851,50.813675 c 0,4.801613 -5.99798,4.801613 -5.99798,9.503193 0,4.801613 5.99798,4.801613 5.99798,9.503192 0,4.801613 -5.99798,4.801613 -5.99798,9.503192 0,4.801611 5.99798,4.801611 5.99798,9.503191 0,4.80161 -5.99798,4.80161 -5.99798,9.50319 0,4.801617 5.99798,4.801617 5.99798,9.503197 0,4.80161 -5.99798,4.80161 -5.99798,9.50319 0,4.80161 5.99798,4.80161 5.99798,9.50319 0,4.80161 -5.99798,4.80161 -5.99798,9.50319 0,4.80162 5.99798,4.80162 5.99798,9.5032 0,4.80161 -5.99798,4.80161 -5.99798,9.50319"
         style="display:inline;fill:none;stroke:#000000;stroke-width:0.788855;stroke-miterlimit:4;stroke-dasharray:none;stroke-opacity:1"
         id="path93107-25-5-1-7-7-3-1-5-3-3-9" />
    </g>
    <g
       style="display:inline;fill:none;fill-opacity:1;paint-order:normal;stroke:#000400;stroke-opacity:1;stroke-width:0.36686129;stroke-miterlimit:4;stroke-dasharray:none"
       transform="matrix(1.26787 0 0 1.26745 253.916 -49.4036) matrix(1.0749591,0,0,1.0753225,-43.673566,7.8926601) translate(68.8961,193.3)"
       id="name">
      <path
         style="fill:none;fill-opacity:1;paint-order:normal;stroke:#000400;stroke-opacity:1;stroke-width:13.95164472;stroke-miterlimit:4;stroke-dasharray:none"
         d="M 220,662 V 0 m 32,630 V 31.5 M 220,662 H 598 M 252,630 h 346 v 32 M 252,346 h 189 v -31 m -189,0 H 441 M 252,31.5 H 598 V 0 M 220,0 h 378"
         transform="scale(0.0262952,-0.0262952)"
         id="path24155" />
      <path
         style="fill:none;fill-opacity:1;paint-order:normal;stroke:#000400;stroke-opacity:1;stroke-width:13.95164472;stroke-miterlimit:4;stroke-dasharray:none"
         d="M 220,662 V 0 h 32 m -32,662 h 32 V 0"
         transform="matrix(0.0262952,0,0,-0.0262952,15.7245,0)"
         id="path24157" />
      <path
         style="fill:none;fill-opacity:1;paint-order:normal;stroke:#000400;stroke-opacity:1;stroke-width:13.95164472;stroke-miterlimit:4;stroke-dasharray:none"
         d="M 220,662 V 0 h 32 m -32,662 h 32 V 0"
         transform="matrix(0.0262952,0,0,-0.0262952,23.1923,0)"
         id="path24159" />
      <path
         style="fill:none;fill-opacity:1;paint-order:normal;stroke:#000400;stroke-opacity:1;stroke-width:13.95164472;stroke-miterlimit:4;stroke-dasharray:none"
         d="m 220,662 -31,-32 v -32 l 31,-31 h 32 l 32,31 v 32 l -32,32 h -32 m 0,-32 v -32 h 32 v 32 h -32 m 0,-189 V 0 h 32 m -32,441 h 32 V 0"
         transform="matrix(0.0262952,0,0,-0.0262952,30.6602,0)"
         id="path24161" />
      <path
         style="fill:none;fill-opacity:1;paint-order:normal;stroke:#000400;stroke-opacity:1;stroke-width:13.95164472;stroke-miterlimit:4;stroke-dasharray:none"
         d="m 220,220 h 347 v 95 l -31,63 -32,32 -63,31 H 346 L 284,410 220,346 189,252 V 189 L 220,94.5 284,31.5 346,0 h 95 l 63,31.5 63,63 M 220,252 h 316 v 63 l -32,63 -63,32 H 346 L 284,378 252,346 220,252 V 189 L 252,94.5 284,63 346,31.5 h 95 l 63,31.5 32,63 31,-31.5"
         transform="matrix(0.0262952,0,0,-0.0262952,38.128,0)"
         id="path24163" />
      <path
         style="fill:none;fill-opacity:1;paint-order:normal;stroke:#000400;stroke-opacity:1;stroke-width:13.95164472;stroke-miterlimit:4;stroke-dasharray:none"
         d="M 220,662 V 0 m 0,662 h 32 V 0 H 220 M 662,662 H 630 V 0 h 32 m 0,662 V 0 M 252,346 H 630 M 252,315 h 378"
         transform="matrix(0.0262952,0,0,-0.0262952,62.977,0)"
         id="path24165" />
      <path
         style="fill:none;fill-opacity:1;paint-order:normal;stroke:#000400;stroke-opacity:1;stroke-width:13.95164472;stroke-miterlimit:4;stroke-dasharray:none"
         d="M 220,441 V 126 L 252,31.5 315,0 h 95 l 62,31.5 95,94.5 M 220,441 h 32 V 126 l 32,-63 62,-31.5 h 64 l 62,31.5 95,63 m 0,315 V 0 h 31 m -31,441 h 31 V 0"
         transform="matrix(0.0262952,0,0,-0.0262952,81.1995,0)"
         id="path24167" />
      <path
         style="fill:none;fill-opacity:1;paint-order:normal;stroke:#000400;stroke-opacity:1;stroke-width:13.95164472;stroke-miterlimit:4;stroke-dasharray:none"
         d="M 220,441 V 0 h 32 m -32,441 h 32 V 0 m 0,315 94,95 64,31 h 94 l 63,-31 31,-95 V 0 m -346,315 94,63 64,32 h 62 l 64,-32 31,-63 V 0 h 31"
         transform="matrix(0.0262952,0,0,-0.0262952,97.7655,0)"
         id="path24169" />
      <path
         style="fill:none;fill-opacity:1;paint-order:normal;stroke:#000400;stroke-opacity:1;stroke-width:13.95164472;stroke-miterlimit:4;stroke-dasharray:none"
         d="M 252,662 V 0 h 32 m -32,662 h 32 V 0 M 158,441 h 220 v -31 m -220,31 v -31 h 220"
         transform="matrix(0.0262952,0,0,-0.0262952,114.331,0)"
         id="path24171" />
      <path
         style="fill:none;fill-opacity:1;paint-order:normal;stroke:#000400;stroke-opacity:1;stroke-width:13.95164472;stroke-miterlimit:4;stroke-dasharray:none"
         d="M 220,441 V 0 h 32 m -32,441 h 32 V 0 m 0,252 32,94 62,64 64,31 h 94 m -252,-189 32,63 62,63 64,32 h 94 v 31"
         transform="matrix(0.0262952,0,0,-0.0262952,123.43,0)"
         id="path24173" />
      <path
         style="fill:none;fill-opacity:1;paint-order:normal;stroke:#000400;stroke-opacity:1;stroke-width:13.95164472;stroke-miterlimit:4;stroke-dasharray:none"
         d="m 220,220 h 347 v 95 l -31,63 -32,32 -63,31 H 346 L 284,410 220,346 189,252 V 189 L 220,94.5 284,31.5 346,0 h 95 l 63,31.5 63,63 M 220,252 h 316 v 63 l -32,63 -63,32 H 346 L 284,378 252,346 220,252 V 189 L 252,94.5 284,63 346,31.5 h 95 l 63,31.5 32,63 31,-31.5"
         transform="matrix(0.0262952,0,0,-0.0262952,135.026,0)"
         id="path24175" />
      <path
         style="fill:none;fill-opacity:1;paint-order:normal;stroke:#000400;stroke-opacity:1;stroke-width:13.95164472;stroke-miterlimit:4;stroke-dasharray:none"
         d="m 536,346 -32,64 -94,31 h -95 l -95,-31 -31,-64 31,-62 64,-32 157,-63 63,-31 m -32,31 32,-63 V 94.5 l -32,-63 M 504,63 410,31.5 H 315 L 220,63 m 32,-31.5 -32,63 H 189 M 536,346 h -32 l -32,64 m 32,-32 -94,32 h -95 l -95,-32 m 32,32 -32,-64 32,-62 m -32,31 64,-31 157,-64 63,-31 32,-63 V 94.5 L 504,31.5 410,0 h -95 l -95,31.5 -31,63"
         transform="matrix(0.0262952,0,0,-0.0262952,149.935,0)"
         id="path24177" />
      <path
         style="fill:none;fill-opacity:1;paint-order:normal;stroke:#000400;stroke-opacity:1;stroke-width:13.95164472;stroke-miterlimit:4;stroke-dasharray:none"
         d="m 536,346 -32,64 -94,31 h -95 l -95,-31 -31,-64 31,-62 64,-32 157,-63 63,-31 m -32,31 32,-63 V 94.5 l -32,-63 M 504,63 410,31.5 H 315 L 220,63 m 32,-31.5 -32,63 H 189 M 536,346 h -32 l -32,64 m 32,-32 -94,32 h -95 l -95,-32 m 32,32 -32,-64 32,-62 m -32,31 64,-31 157,-64 63,-31 32,-63 V 94.5 L 504,31.5 410,0 h -95 l -95,31.5 -31,63"
         transform="matrix(0.0262952,0,0,-0.0262952,164.029,0)"
         id="path24179" />
    </g>
    <g
       transform="matrix(1.26787 0 0 1.26745 253.916 -49.4036) matrix(1.1777087,0,0,1.1781068,-8.2891463,-43.65126) translate(36.1534,248.249)"
       id="address1">
      <path
         d="m 3.470962,-7.9516584 c -0.00742,-2.9476366 4.8648551,-3.5133586 5.7982296,-0.8358958 0.673057,1.9639427 -1.2771392,3.6961831 -2.511309,5.0115435 C 5.4992123,-2.5173404 4.2405421,-1.2586702 2.9818719,0 5.3011056,0 7.6203393,0 9.939573,0"
         style="stroke-width:0.00499976in"
         id="path24232" />
      <path
         d="m 15.903314,-10.44444 c -2.393339,0.273736 -2.877373,2.9765808 -2.981872,4.9630545 0.06256,1.8026661 0.214253,4.2157491 1.956186,5.13767158 1.809122,0.94672599 4.27489,-0.0269996 4.592397,-2.11696038 0.691054,-2.482178 0.59728,-5.4097721 -1.073929,-7.4788987 -0.826511,-0.281206 -1.597605,-0.634231 -2.492782,-0.504867 z"
         style="stroke-width:0.00499976in"
         id="path24234" />
      <path
         d="m 25.337977,-10.44444 c -1.474704,0.04347 -2.54143,1.5992184 -1.769472,2.922842 1.158866,1.9469561 4.342356,0.9567355 5.619818,2.9154184 1.412094,1.5643241 0.495123,4.44897396 -1.737144,4.5646369 -1.795372,0.3027711 -4.601432,-0.10215436 -4.590207,-2.4287302 -0.325272,-2.3650216 2.185859,-3.5177886 4.150663,-3.7903068 1.677461,-0.019284 3.007089,-1.8508643 1.982723,-3.3342354 -0.740435,-1.0503229 -2.481925,-0.8254469 -3.656381,-0.8496249 z"
         style="stroke-width:0.00499976in"
         id="path24236" />
      <path
         d="m 39.253462,-10.44444 c 0,3.4814799 0,6.9629599 0,10.44444 m 0,-10.44444 C 41.577955,-6.9629601 43.902448,-3.4814801 46.22694,0 m 0,-10.44444 c 0,3.4814799 0,6.9629599 0,10.44444"
         style="stroke-width:0.00499976in"
         id="path24238" />
      <path
         d="m 52.174877,-6.9577011 c -2.950321,0.8412517 -3.371338,5.4168336 -0.548142,6.67920962 2.569222,1.41213878 5.453733,-1.88240292 4.297362,-4.38447322 -0.379194,-1.6285146 -2.141819,-2.597694 -3.74922,-2.2947364 z"
         style="stroke-width:0.00499976in"
         id="path24240" />
      <path
         d="m 59.621662,-6.9577011 c 0,2.3192337 0,4.6384674 0,6.9577011 m 0,-3.9758292 c 0.310404,-1.8959893 2.006968,-3.3689119 3.975829,-2.9818719"
         style="stroke-width:0.00499976in"
         id="path24242" />
      <path
         d="m 69.087911,-10.44444 c -1.789677,-0.432596 -2.717737,1.420016 -2.492782,2.9526311 0,2.4972696 0,4.9945393 0,7.4918089 m -1.483047,-6.9577011 c 1.156987,0 2.313975,0 3.470962,0"
         style="stroke-width:0.00499976in"
         id="path24244" />
      <path
         d="m 74.041977,-6.9577011 c -2.950321,0.8412517 -3.371338,5.4168336 -0.548142,6.67920962 2.569222,1.41213878 5.453733,-1.88240292 4.297362,-4.38447322 -0.379194,-1.6285146 -2.141819,-2.597694 -3.74922,-2.2947364 z"
         style="stroke-width:0.00499976in"
         id="path24246" />
      <path
         d="m 81.488762,-10.44444 c 0,3.4814799 0,6.9629599 0,10.44444"
         style="stroke-width:0.00499976in"
         id="path24248" />
      <path
         d="m 85.464562,-10.44444 c 0,3.4814799 0,6.9629599 0,10.44444 m 4.985564,-6.9577011 c -1.661855,1.6565955 -3.32371,3.313191 -4.985564,4.9697865 m 1.987915,-1.9879146 C 88.614723,-2.6505528 89.776969,-1.3252764 90.939216,0"
         style="stroke-width:0.00499976in"
         id="path24250" />
      <path
         d="M 102.37764,-10.44444 C 101.05237,-6.9629601 99.727091,-3.4814801 98.401815,0 m 3.975825,-10.44444 c 1.32528,3.4814799 2.65056,6.9629599 3.97583,10.44444 m -6.468608,-3.470962 c 1.661858,0 3.323708,0 4.985568,0"
         style="stroke-width:0.00499976in"
         id="path24252" />
      <path
         d="m 107.85178,-6.9577011 c 0.9887,2.3192337 1.9774,4.6384674 2.9661,6.9577011 m 2.99765,-6.9577011 C 112.81631,-4.6384674 111.81709,-2.3192337 110.81788,0"
         style="stroke-width:0.00499976in"
         id="path24254" />
      <path
         d="m 116.29287,-3.9758292 c 1.98792,0 3.97583,0 5.96375,0 0.5184,-2.7126057 -3.43749,-4.1160901 -4.97654,-1.9811636 -2.15049,1.9319233 -0.56726,6.30157806 2.45451,5.9569928 1.05538,0.10986471 1.85569,-0.80605994 2.52203,-1.4909359"
         style="stroke-width:0.00499976in"
         id="path24256" />
    </g>
    <g
       style="display:inline;fill:none;stroke:#000000;stroke-linecap:round;stroke-linejoin:round;stroke-opacity:1"
       transform="matrix(1.4931815,0,0,1.4931915,297.39003,295.4029)"
       id="address2">
      <path
         d="M 378,662 126,0 M 378,662 630,0 M 220,220 h 316"
         style="stroke-width:0.3169in"
         transform="scale(0.0157771,-0.0157771)"
         id="path24260" />
      <path
         d="m 220,441 v -661 m 0,566 64,64 62,31 h 95 l 63,-31 63,-64 31,-94 V 189 L 567,94.5 504,31.5 441,0 h -95 l -62,31.5 -64,63"
         style="stroke-width:0.3169in"
         transform="matrix(0.0157771,0,0,-0.0157771,8.94562,0)"
         id="path24262" />
      <path
         d="M 252,662 V 126 L 284,31.5 346,0 h 64 M 158,441 h 220"
         style="stroke-width:0.3169in"
         transform="matrix(0.0157771,0,0,-0.0157771,18.3803,0)"
         id="path24264" />
      <path
         d="m 220,504 v 32 l 32,62 32,32 62,32 h 126 l 64,-32 31,-32 31,-62 V 472 L 567,410 504,315 189,0 h 441"
         style="stroke-width:0.3169in"
         transform="matrix(0.0157771,0,0,-0.0157771,30.3078,0)"
         id="path24266" />
      <path
         d="M 220,662 V 0 m 0,662 H 630 M 220,346 h 252"
         style="stroke-width:0.3169in"
         transform="matrix(0.0157771,0,0,-0.0157771,40.2474,0)"
         id="path24268" />
    </g>
    <g
       transform="matrix(1.26787 0 0 1.26745 253.916 -49.4036) matrix(1.1777087,0,0,1.1781068,-8.2891463,-43.65126) translate(36.1534,287.692)"
       id="address3">
      <path
         d="M 220,662 V 0 m 0,662 h 284 l 94,-32 32,-32 32,-62 V 441 L 630,378 598,346 504,315 H 220"
         style="stroke-width:0.3169in"
         transform="scale(0.0157771,-0.0157771)"
         id="path24272" />
      <path
         d="M 567,441 V 0 m 0,346 -63,64 -63,31 H 346 L 284,410 220,346 189,252 V 189 L 220,94.5 284,31.5 346,0 h 95 l 63,31.5 63,63"
         style="stroke-width:0.3169in"
         transform="matrix(0.0157771,0,0,-0.0157771,10.4444,0)"
         id="path24274" />
      <path
         d="M 189,441 315,0 M 441,441 315,0 M 441,441 567,0 M 693,441 567,0"
         style="stroke-width:0.3169in"
         transform="matrix(0.0157771,0,0,-0.0157771,19.8791,0)"
         id="path24276" />
      <path
         d="M 252,662 V 126 L 284,31.5 346,0 h 64 M 158,441 h 220"
         style="stroke-width:0.3169in"
         transform="matrix(0.0157771,0,0,-0.0157771,30.8127,0)"
         id="path24278" />
      <path
         d="M 220,441 V 126 L 252,31.5 315,0 h 95 l 62,31.5 95,94.5 m 0,315 V 0"
         style="stroke-width:0.3169in"
         transform="matrix(0.0157771,0,0,-0.0157771,36.7764,0)"
         id="path24280" />
      <path
         d="m 567,346 -63,64 -63,31 H 346 L 284,410 220,346 189,252 V 189 L 220,94.5 284,31.5 346,0 h 95 l 63,31.5 63,63"
         style="stroke-width:0.3169in"
         transform="matrix(0.0157771,0,0,-0.0157771,46.2111,0)"
         id="path24282" />
      <path
         d="M 220,662 V 0 M 536,441 220,126 M 346,252 567,0"
         style="stroke-width:0.3169in"
         transform="matrix(0.0157771,0,0,-0.0157771,55.1567,0)"
         id="path24284" />
      <path
         d="m 189,252 h 378 v 63 l -31,63 -32,32 -63,31 H 346 L 284,410 220,346 189,252 V 189 L 220,94.5 284,31.5 346,0 h 95 l 63,31.5 63,63"
         style="stroke-width:0.3169in"
         transform="matrix(0.0157771,0,0,-0.0157771,63.6133,0)"
         id="path24286" />
      <path
         d="M 252,662 V 126 L 284,31.5 346,0 h 64 M 158,441 h 220"
         style="stroke-width:0.3169in"
         transform="matrix(0.0157771,0,0,-0.0157771,72.5589,0)"
         id="path24288" />
      <path
         d="m 252,126 -32,-31.5 -31,31.5 31,32 32,-32 V 63 L 189,0"
         style="stroke-width:0.3169in"
         transform="matrix(0.0157771,0,0,-0.0157771,78.5226,0)"
         id="path24290" />
      <path
         d="M 220,662 V 0 m 0,662 h 284 l 94,-32 32,-32 32,-62 V 472 L 630,410 598,378 504,346 H 220 M 441,346 662,0"
         style="stroke-width:0.3169in"
         transform="matrix(0.0157771,0,0,-0.0157771,88.4622,0)"
         id="path24292" />
      <path
         d="M 220,662 V 0"
         style="stroke-width:0.3169in"
         transform="matrix(0.0157771,0,0,-0.0157771,98.9066,0)"
         id="path24294" />
      <path
         d="M 378,662 284,630 220,536 189,378 V 284 L 220,126 284,31.5 378,0 h 63 l 95,31.5 62,94.5 32,158 v 94 l -32,158 -62,94 -95,32 h -63"
         style="stroke-width:0.3169in"
         transform="matrix(0.0157771,0,0,-0.0157771,114.81,0)"
         id="path24296" />
      <path
         d="m 220,504 v 32 l 32,62 32,32 62,32 h 126 l 64,-32 31,-32 31,-62 V 472 L 567,410 504,315 189,0 h 441"
         style="stroke-width:0.3169in"
         transform="matrix(0.0157771,0,0,-0.0157771,124.75,0)"
         id="path24298" />
      <path
         d="m 346,662 -94,-32 -32,-63 v -63 l 32,-63 63,-31 126,-32 95,-32 62,-62 32,-64 V 126 L 598,63 567,31.5 472,0 H 346 L 252,31.5 220,63 189,126 v 94 l 31,64 64,62 94,32 126,32 63,31 31,63 v 63 l -31,63 -95,32 H 346"
         style="stroke-width:0.3169in"
         transform="matrix(0.0157771,0,0,-0.0157771,134.689,0)"
         id="path24300" />
      <path
         d="m 598,567 -31,63 -95,32 H 410 L 315,630 252,536 220,378 V 220 L 252,94.5 315,31.5 410,0 h 31 l 95,31.5 62,63 32,94.5 v 31 l -32,95 -62,63 -95,32 h -31 l -95,-32 -63,-63 -32,-95"
         style="stroke-width:0.3169in"
         transform="matrix(0.0157771,0,0,-0.0157771,144.629,0)"
         id="path24302" />
      <path
         d="m 284,536 62,31 95,95 V 0"
         style="stroke-width:0.3169in"
         transform="matrix(0.0157771,0,0,-0.0157771,154.568,0)"
         id="path24304" />
    </g>
  </g>
</svg>
