<?xml version="1.0" encoding="UTF-8" standalone="no"?>
<svg
   xmlns:dc="http://purl.org/dc/elements/1.1/"
   xmlns:cc="http://creativecommons.org/ns#"
   xmlns:rdf="http://www.w3.org/1999/02/22-rdf-syntax-ns#"
   xmlns:svg="http://www.w3.org/2000/svg"
   xmlns="http://www.w3.org/2000/svg"
   xmlns:sodipodi="http://sodipodi.sourceforge.net/DTD/sodipodi-0.dtd"
   xmlns:inkscape="http://www.inkscape.org/namespaces/inkscape"
   inkscape:version="1.0 (4035a4f, 2020-05-01)"
   class="Sketch"
   id="sketch"
   width="576"
   height="384"
   viewBox="0 0 576 384"
   fill="none"
   stroke="black"
   version="1.1"
   sodipodi:docname="postcard_back_cesar_note_1_1633474113658.svg">
  <metadata
     id="metadata29">
    <rdf:RDF>
      <cc:Work
         rdf:about="">
        <dc:format>image/svg+xml</dc:format>
        <dc:type
           rdf:resource="http://purl.org/dc/dcmitype/StillImage" />
        <dc:title />
      </cc:Work>
    </rdf:RDF>
  </metadata>
  <defs
     id="defs27" />
  <sodipodi:namedview
     inkscape:document-rotation="0"
     inkscape:current-layer="sketch"
     inkscape:window-maximized="0"
     inkscape:window-y="0"
     inkscape:window-x="0"
     inkscape:cy="215.7254"
     inkscape:cx="235.13304"
     inkscape:zoom="1.5173611"
     showgrid="false"
     id="namedview25"
     inkscape:window-height="900"
     inkscape:window-width="1440"
     inkscape:pageshadow="2"
     inkscape:pageopacity="0"
     guidetolerance="10"
     gridtolerance="10"
     objecttolerance="10"
     borderopacity="1"
     bordercolor="#666666"
     pagecolor="#ffffff" />
  <g
     style="fill:none;stroke:#000000;stroke-opacity:1"
     id="border">
    <path
       style="fill:none;stroke:#000000;stroke-opacity:1"
       id="path10"
       d="M 0 0 L 576 0 L 576 384 L 0 384 L 0 0" />
  </g>
  <g
     style="fill:none;stroke:#000000;stroke-opacity:1"
     id="postcard_back_template">
    <g
       style="fill:none;stroke:#000000;stroke-opacity:1"
       id="postcard-divider">
      <line
         style="fill:none;stroke:#000000;stroke-opacity:1"
         id="line13"
         stroke="black"
         y2="374"
         x2="288"
         y1="10"
         x1="288" />
    </g>
    <g
       style="fill:none;stroke:#000000;stroke-opacity:1"
       id="stamp">
      <rect
         style="fill:none;stroke:#000000;stroke-opacity:1"
         id="rect16"
         width="96"
         height="96"
         y="10"
         x="470" />
      <rect
         style="fill:none;stroke:#000000;stroke-opacity:1"
         id="rect18"
         width="96"
         height="96"
         y="20"
         x="460" />
      <rect
         style="fill:none;stroke:#000000;stroke-opacity:1"
         id="rect20"
         width="96"
         height="96"
         y="30"
         x="450" />
    </g>
  </g>
  <g
     transform="matrix(0.75066152,0,0,0.75066152,49.126668,52.716123)"
     inkscape:label="Hershey Text"
     style="fill:none;stroke:#000000;stroke-linecap:round;stroke-linejoin:round"
     id="g1350">
    <g
       transform="translate(326.883,150.92)"
       id="g1348">
      <path
         d="m 662,504 -32,63 -63,63 -63,32 H 378 L 315,630 252,567 220,504 189,410 V 252 l 31,-94 32,-63.5 63,-63 L 378,0 h 126 l 63,31.5 63,63 32,63.5 m 0,346 h -32 l -32,63 -31,31 -63,32 H 378 L 315,598 252,504 220,410 V 252 l 32,-94 63,-95 63,-31.5 h 126 l 63,31.5 31,31.5 32,63.5 h 32"
         style="stroke-width:0.125in"
         transform="scale(0.04,-0.04)"
         id="path1320" />
      <path
         d="m 220,220 h 347 v 95 l -31,63 -32,32 -63,31 H 346 L 284,410 220,346 189,252 V 189 L 220,94.5 284,31.5 346,0 h 95 l 63,31.5 63,63 M 220,252 h 316 v 63 l -32,63 -63,32 H 346 L 284,378 252,346 220,252 V 189 L 252,94.5 284,63 346,31.5 h 95 l 63,31.5 32,63 31,-31.5"
         style="stroke-width:0.125in"
         transform="matrix(0.04,0,0,-0.04,26.48,0)"
         id="path1322" />
      <path
         d="m 536,346 -32,64 -94,31 h -95 l -95,-31 -31,-64 31,-62 64,-32 157,-63 63,-31 m -32,31 32,-63 V 94.5 l -32,-63 M 504,63 410,31.5 H 315 L 220,63 m 32,-31.5 -32,63 H 189 M 536,346 h -32 l -32,64 m 32,-32 -94,32 h -95 l -95,-32 m 32,32 -32,-64 32,-62 m -32,31 64,-31 157,-64 63,-31 32,-63 V 94.5 L 504,31.5 410,0 h -95 l -95,31.5 -31,63"
         style="stroke-width:0.125in"
         transform="matrix(0.04,0,0,-0.04,49.16,0)"
         id="path1324" />
      <path
         d="M 567,441 V 0 h 31 m -31,441 h 31 V 0 m -31,346 -63,64 -63,31 H 346 L 284,410 220,346 189,252 V 189 L 220,94.5 284,31.5 346,0 h 95 l 63,31.5 63,63 M 567,346 441,410 H 346 L 284,378 252,346 220,252 V 189 L 252,94.5 284,63 346,31.5 h 95 l 126,63"
         style="stroke-width:0.125in"
         transform="matrix(0.04,0,0,-0.04,70.6,0)"
         id="path1326" />
      <path
         d="M 220,441 V 0 h 32 m -32,441 h 32 V 0 m 0,252 32,94 62,64 64,31 h 94 m -252,-189 32,63 62,63 64,32 h 94 v 31"
         style="stroke-width:0.125in"
         transform="matrix(0.04,0,0,-0.04,95.8,0)"
         id="path1328" />
      <path
         d="M 220,662 V 0 m 0,662 h 32 V 0 H 220 M 662,662 H 630 V 0 h 32 m 0,662 V 0 M 252,346 H 630 M 252,315 h 378"
         style="stroke-width:0.125in"
         transform="matrix(0.04,0,0,-0.04,128.56,0)"
         id="path1330" />
      <path
         d="m 220,220 h 347 v 95 l -31,63 -32,32 -63,31 H 346 L 284,410 220,346 189,252 V 189 L 220,94.5 284,31.5 346,0 h 95 l 63,31.5 63,63 M 220,252 h 316 v 63 l -32,63 -63,32 H 346 L 284,378 252,346 220,252 V 189 L 252,94.5 284,63 346,31.5 h 95 l 63,31.5 32,63 31,-31.5"
         style="stroke-width:0.125in"
         transform="matrix(0.04,0,0,-0.04,156.28,0)"
         id="path1332" />
      <path
         d="M 220,441 V 0 h 32 m -32,441 h 32 V 0 m 0,252 32,94 62,64 64,31 h 94 m -252,-189 32,63 62,63 64,32 h 94 v 31"
         style="stroke-width:0.125in"
         transform="matrix(0.04,0,0,-0.04,178.96,0)"
         id="path1334" />
      <path
         d="M 220,441 V 0 h 32 m -32,441 h 32 V 0 m 0,315 94,95 64,31 h 94 l 63,-31 31,-95 V 0 m -346,315 94,63 64,32 h 62 l 64,-32 31,-63 V 0 h 31"
         style="stroke-width:0.125in"
         transform="matrix(0.04,0,0,-0.04,196.6,0)"
         id="path1336" />
      <path
         d="M 567,441 V 0 h 31 m -31,441 h 31 V 0 m -31,346 -63,64 -63,31 H 346 L 284,410 220,346 189,252 V 189 L 220,94.5 284,31.5 346,0 h 95 l 63,31.5 63,63 M 567,346 441,410 H 346 L 284,378 252,346 220,252 V 189 L 252,94.5 284,63 346,31.5 h 95 l 126,63"
         style="stroke-width:0.125in"
         transform="matrix(0.04,0,0,-0.04,221.8,0)"
         id="path1338" />
      <path
         d="M 220,441 V 0 h 32 m -32,441 h 32 V 0 m 0,315 94,95 64,31 h 94 l 63,-31 31,-95 V 0 m -346,315 94,63 64,32 h 62 l 64,-32 31,-63 V 0 h 31"
         style="stroke-width:0.125in"
         transform="matrix(0.04,0,0,-0.04,247,0)"
         id="path1340" />
      <path
         d="M 567,662 V 0 h 31 m -31,662 h 31 V 0 m -31,346 -63,64 -63,31 H 346 L 284,410 220,346 189,252 V 189 L 220,94.5 284,31.5 346,0 h 95 l 63,31.5 63,63 M 567,346 441,410 H 346 L 284,378 252,346 220,252 V 189 L 252,94.5 284,63 346,31.5 h 95 l 126,63"
         style="stroke-width:0.125in"
         transform="matrix(0.04,0,0,-0.04,272.2,0)"
         id="path1342" />
      <path
         d="m 220,220 h 347 v 95 l -31,63 -32,32 -63,31 H 346 L 284,410 220,346 189,252 V 189 L 220,94.5 284,31.5 346,0 h 95 l 63,31.5 63,63 M 220,252 h 316 v 63 l -32,63 -63,32 H 346 L 284,378 252,346 220,252 V 189 L 252,94.5 284,63 346,31.5 h 95 l 63,31.5 32,63 31,-31.5"
         style="stroke-width:0.125in"
         transform="matrix(0.04,0,0,-0.04,297.4,0)"
         id="path1344" />
      <path
         d="M 504,410 189,0 M 567,441 252,31.5 M 189,441 h 378 m -378,0 V 410 H 504 M 252,31.5 H 567 V 0 M 189,0 h 378"
         style="stroke-width:0.125in"
         transform="matrix(0.04,0,0,-0.04,320.08,0)"
         id="path1346" />
    </g>
  </g>
  <g
     transform="matrix(0.69581588,0,0,0.69581588,74.792927,87.811252)"
     inkscape:label="Hershey Text"
     style="fill:none;stroke:#000000;stroke-linecap:round;stroke-linejoin:round"
     id="g1576">
    <g
       transform="translate(316.339,202.325)"
       id="g1574">
      <path
         d="M 252,662 H 598 L 410,410 h 94 l 63,-32 31,-32 32,-94 V 189 L 598,94.5 536,31.5 441,0 H 346 L 252,31.5 220,63 189,126"
         style="stroke-width:0.125in"
         transform="scale(0.04,-0.04)"
         id="path1546" />
      <path
         d="M 630,662 315,0 M 189,662 h 441"
         style="stroke-width:0.125in"
         transform="matrix(0.04,0,0,-0.04,25.2,0)"
         id="path1548" />
      <path
         d="M 378,662 284,630 220,536 189,378 V 284 L 220,126 284,31.5 378,0 h 63 l 95,31.5 62,94.5 32,158 v 94 l -32,158 -62,94 -95,32 h -63"
         style="stroke-width:0.125in"
         transform="matrix(0.04,0,0,-0.04,50.4,0)"
         id="path1550" />
      <path
         d="m 598,567 -31,63 -95,32 H 410 L 315,630 252,536 220,378 V 220 L 252,94.5 315,31.5 410,0 h 31 l 95,31.5 62,63 32,94.5 v 31 l -32,95 -62,63 -95,32 h -31 l -95,-32 -63,-63 -32,-95"
         style="stroke-width:0.125in"
         transform="matrix(0.04,0,0,-0.04,75.6,0)"
         id="path1552" />
      <path
         d="M 220,662 V 0 m 0,662 h 284 l 94,-32 32,-32 32,-62 V 441 L 630,378 598,346 504,315 H 220"
         style="stroke-width:0.125in"
         transform="matrix(0.04,0,0,-0.04,115.92,0)"
         id="path1554" />
      <path
         d="M 346,441 284,410 220,346 189,252 V 189 L 220,94.5 284,31.5 346,0 h 95 l 63,31.5 63,63 31,94.5 v 63 l -31,94 -63,64 -63,31 h -95"
         style="stroke-width:0.125in"
         transform="matrix(0.04,0,0,-0.04,142.4,0)"
         id="path1556" />
      <path
         d="M 220,441 V 0 m 0,252 32,94 63,64 63,31 h 94"
         style="stroke-width:0.125in"
         transform="matrix(0.04,0,0,-0.04,166.32,0)"
         id="path1558" />
      <path
         d="M 252,662 V 126 L 284,31.5 346,0 h 64 M 158,441 h 220"
         style="stroke-width:0.125in"
         transform="matrix(0.04,0,0,-0.04,182.72,0)"
         id="path1560" />
      <path
         d="M 220,662 V 0"
         style="stroke-width:0.125in"
         transform="matrix(0.04,0,0,-0.04,197.84,0)"
         id="path1562" />
      <path
         d="M 567,441 V 0 m 0,346 -63,64 -63,31 H 346 L 284,410 220,346 189,252 V 189 L 220,94.5 284,31.5 346,0 h 95 l 63,31.5 63,63"
         style="stroke-width:0.125in"
         transform="matrix(0.04,0,0,-0.04,207.92,0)"
         id="path1564" />
      <path
         d="M 220,441 V 0 m 0,315 95,95 63,31 h 94 l 64,-31 31,-95 V 0"
         style="stroke-width:0.125in"
         transform="matrix(0.04,0,0,-0.04,231.84,0)"
         id="path1566" />
      <path
         d="M 567,662 V 0 m 0,346 -63,64 -63,31 H 346 L 284,410 220,346 189,252 V 189 L 220,94.5 284,31.5 346,0 h 95 l 63,31.5 63,63"
         style="stroke-width:0.125in"
         transform="matrix(0.04,0,0,-0.04,255.76,0)"
         id="path1568" />
      <path
         d="m 630,567 -63,63 -95,32 H 346 l -94,-32 -63,-63 v -63 l 31,-63 32,-31 63,-32 189,-63 63,-31 31,-32 32,-63 V 94.5 L 567,31.5 472,0 H 346 l -94,31.5 -63,63"
         style="stroke-width:0.125in"
         transform="matrix(0.04,0,0,-0.04,294.8,0)"
         id="path1570" />
      <path
         d="M 252,662 V 126 L 284,31.5 346,0 h 64 M 158,441 h 220"
         style="stroke-width:0.125in"
         transform="matrix(0.04,0,0,-0.04,320,0)"
         id="path1572" />
    </g>
  </g>
  <g
     transform="matrix(0.69581588,0,0,0.69581588,71.043871,97.175441)"
     inkscape:label="Hershey Text"
     style="fill:none;stroke:#000000;stroke-linecap:round;stroke-linejoin:round"
     id="g1592">
    <g
       transform="translate(324.247,231.982)"
       id="g1590">
      <path
         d="M 378,662 126,0 M 378,662 630,0 M 220,220 h 316"
         style="stroke-width:0.125in"
         transform="scale(0.04,-0.04)"
         id="path1578" />
      <path
         d="m 220,441 v -661 m 0,566 64,64 62,31 h 95 l 63,-31 63,-64 31,-94 V 189 L 567,94.5 504,31.5 441,0 h -95 l -62,31.5 -64,63"
         style="stroke-width:0.125in"
         transform="matrix(0.04,0,0,-0.04,22.68,0)"
         id="path1580" />
      <path
         d="M 252,662 V 126 L 284,31.5 346,0 h 64 M 158,441 h 220"
         style="stroke-width:0.125in"
         transform="matrix(0.04,0,0,-0.04,46.6,0)"
         id="path1582" />
      <path
         d="m 284,536 62,31 95,95 V 0"
         style="stroke-width:0.125in"
         transform="matrix(0.04,0,0,-0.04,76.84,0)"
         id="path1584" />
      <path
         d="m 346,662 -94,-32 -32,-63 v -63 l 32,-63 63,-31 126,-32 95,-32 62,-62 32,-64 V 126 L 598,63 567,31.5 472,0 H 346 L 252,31.5 220,63 189,126 v 94 l 31,64 64,62 94,32 126,32 63,31 31,63 v 63 l -31,63 -95,32 H 346"
         style="stroke-width:0.125in"
         transform="matrix(0.04,0,0,-0.04,102.04,0)"
         id="path1586" />
      <path
         d="m 598,567 -31,63 -95,32 H 410 L 315,630 252,536 220,378 V 220 L 252,94.5 315,31.5 410,0 h 31 l 95,31.5 62,63 32,94.5 v 31 l -32,95 -62,63 -95,32 h -31 l -95,-32 -63,-63 -32,-95"
         style="stroke-width:0.125in"
         transform="matrix(0.04,0,0,-0.04,127.24,0)"
         id="path1588" />
    </g>
  </g>
  <g
     transform="matrix(0.69581588,0,0,0.69581588,33.11773,105.06267)"
     inkscape:label="Hershey Text"
     style="fill:none;stroke:#000000;stroke-linecap:round;stroke-linejoin:round"
     id="g1624">
    <g
       transform="translate(374.993,264.934)"
       id="g1622">
      <path
         d="M 220,662 V 0"
         style="stroke-width:0.125in"
         transform="scale(0.04,-0.04)"
         id="path1594" />
      <path
         d="M 220,441 V 0 m 0,252 32,94 63,64 63,31 h 94"
         style="stroke-width:0.125in"
         transform="matrix(0.04,0,0,-0.04,10.08,0)"
         id="path1596" />
      <path
         d="M 158,441 346,0 M 536,441 346,0"
         style="stroke-width:0.125in"
         transform="matrix(0.04,0,0,-0.04,26.48,0)"
         id="path1598" />
      <path
         d="m 189,662 31,-32 32,32 -32,31 -31,-31 M 220,441 V 0"
         style="stroke-width:0.125in"
         transform="matrix(0.04,0,0,-0.04,46.64,0)"
         id="path1600" />
      <path
         d="M 220,441 V 0 m 0,315 95,95 63,31 h 94 l 64,-31 31,-95 V 0"
         style="stroke-width:0.125in"
         transform="matrix(0.04,0,0,-0.04,56.72,0)"
         id="path1602" />
      <path
         d="M 567,441 V -63 l -31,-95 -32,-31 -63,-31 h -95 l -62,31 m 283,535 -63,64 -63,31 H 346 L 284,410 220,346 189,252 V 189 L 220,94.5 284,31.5 346,0 h 95 l 63,31.5 63,63"
         style="stroke-width:0.125in"
         transform="matrix(0.04,0,0,-0.04,80.64,0)"
         id="path1604" />
      <path
         d="m 252,126 -32,-31.5 -31,31.5 31,32 32,-32 V 63 L 189,0"
         style="stroke-width:0.125in"
         transform="matrix(0.04,0,0,-0.04,104.56,0)"
         id="path1606" />
      <path
         d="M 346,662 V 0 M 126,662 h 441"
         style="stroke-width:0.125in"
         transform="matrix(0.04,0,0,-0.04,129.76,0)"
         id="path1608" />
      <path
         d="M 189,662 630,0 M 630,662 189,0"
         style="stroke-width:0.125in"
         transform="matrix(0.04,0,0,-0.04,149.92,0)"
         id="path1610" />
      <path
         d="M 630,662 315,0 M 189,662 h 441"
         style="stroke-width:0.125in"
         transform="matrix(0.04,0,0,-0.04,205.36,0)"
         id="path1612" />
      <path
         d="M 567,662 H 252 l -32,-284 32,32 94,31 h 95 l 95,-31 62,-64 32,-94 V 189 L 598,94.5 536,31.5 441,0 H 346 L 252,31.5 220,63 189,126"
         style="stroke-width:0.125in"
         transform="matrix(0.04,0,0,-0.04,230.56,0)"
         id="path1614" />
      <path
         d="M 378,662 284,630 220,536 189,378 V 284 L 220,126 284,31.5 378,0 h 63 l 95,31.5 62,94.5 32,158 v 94 l -32,158 -62,94 -95,32 h -63"
         style="stroke-width:0.125in"
         transform="matrix(0.04,0,0,-0.04,255.76,0)"
         id="path1616" />
      <path
         d="M 252,662 H 598 L 410,410 h 94 l 63,-32 31,-32 32,-94 V 189 L 598,94.5 536,31.5 441,0 H 346 L 252,31.5 220,63 189,126"
         style="stroke-width:0.125in"
         transform="matrix(0.04,0,0,-0.04,280.96,0)"
         id="path1618" />
      <path
         d="m 346,662 -94,-32 -32,-63 v -63 l 32,-63 63,-31 126,-32 95,-32 62,-62 32,-64 V 126 L 598,63 567,31.5 472,0 H 346 L 252,31.5 220,63 189,126 v 94 l 31,64 64,62 94,32 126,32 63,31 31,63 v 63 l -31,63 -95,32 H 346"
         style="stroke-width:0.125in"
         transform="matrix(0.04,0,0,-0.04,306.16,0)"
         id="path1620" />
    </g>
  </g>
  <g
     transform="matrix(0.97819036,0,0,0.97819036,-3.6314136,18.204353)"
     inkscape:label="Hershey Text"
     style="fill:none;stroke:#000000;stroke-linecap:round;stroke-linejoin:round"
     id="g2346">
    <g
       transform="translate(12.5217,32.2929)"
       id="g1844">
      <path
         d="M 220,662 V 0 m 0,315 95,95 63,31 h 94 l 64,-31 31,-95 V 0"
         style="stroke-width:0.25in"
         transform="scale(0.02,-0.02)"
         id="path1808" />
      <path
         d="m 189,252 h 378 v 63 l -31,63 -32,32 -63,31 H 346 L 284,410 220,346 189,252 V 189 L 220,94.5 284,31.5 346,0 h 95 l 63,31.5 63,63"
         style="stroke-width:0.25in"
         transform="matrix(0.02,0,0,-0.02,11.96,0)"
         id="path1810" />
      <path
         d="M 158,441 346,0 M 536,441 346,0 l -62,-126 -64,-63 -62,-31 h -32"
         style="stroke-width:0.25in"
         transform="matrix(0.02,0,0,-0.02,23.3,0)"
         id="path1812" />
      <path
         d="M 220,441 V 0 m 0,252 32,94 63,64 63,31 h 94"
         style="stroke-width:0.25in"
         transform="matrix(0.02,0,0,-0.02,40.94,0)"
         id="path1814" />
      <path
         d="m 189,252 h 378 v 63 l -31,63 -32,32 -63,31 H 346 L 284,410 220,346 189,252 V 189 L 220,94.5 284,31.5 346,0 h 95 l 63,31.5 63,63"
         style="stroke-width:0.25in"
         transform="matrix(0.02,0,0,-0.02,49.14,0)"
         id="path1816" />
      <path
         d="M 220,441 V 0 m 0,315 95,95 63,31 h 94 l 64,-31 31,-95 V 0 m 0,315 95,95 62,31 h 95 l 63,-31 32,-95 V 0"
         style="stroke-width:0.25in"
         transform="matrix(0.02,0,0,-0.02,60.48,0)"
         id="path1818" />
      <path
         d="m 189,252 h 378 v 63 l -31,63 -32,32 -63,31 H 346 L 284,410 220,346 189,252 V 189 L 220,94.5 284,31.5 346,0 h 95 l 63,31.5 63,63"
         style="stroke-width:0.25in"
         transform="matrix(0.02,0,0,-0.02,79.38,0)"
         id="path1820" />
      <path
         d="M 220,441 V 0 m 0,315 95,95 63,31 h 94 l 64,-31 31,-95 V 0 m 0,315 95,95 62,31 h 95 l 63,-31 32,-95 V 0"
         style="stroke-width:0.25in"
         transform="matrix(0.02,0,0,-0.02,90.72,0)"
         id="path1822" />
      <path
         d="M 220,662 V 0 m 0,346 64,64 62,31 h 95 l 63,-31 63,-64 31,-94 V 189 L 567,94.5 504,31.5 441,0 h -95 l -62,31.5 -64,63"
         style="stroke-width:0.25in"
         transform="matrix(0.02,0,0,-0.02,109.62,0)"
         id="path1824" />
      <path
         d="m 189,252 h 378 v 63 l -31,63 -32,32 -63,31 H 346 L 284,410 220,346 189,252 V 189 L 220,94.5 284,31.5 346,0 h 95 l 63,31.5 63,63"
         style="stroke-width:0.25in"
         transform="matrix(0.02,0,0,-0.02,121.58,0)"
         id="path1826" />
      <path
         d="M 220,441 V 0 m 0,252 32,94 63,64 63,31 h 94"
         style="stroke-width:0.25in"
         transform="matrix(0.02,0,0,-0.02,132.92,0)"
         id="path1828" />
      <path
         d="M 346,441 284,410 220,346 189,252 V 189 L 220,94.5 284,31.5 346,0 h 95 l 63,31.5 63,63 31,94.5 v 63 l -31,94 -63,64 -63,31 h -95"
         style="stroke-width:0.25in"
         transform="matrix(0.02,0,0,-0.02,148.68,0)"
         id="path1830" />
      <path
         d="M 220,441 V 0 m 0,315 95,95 63,31 h 94 l 64,-31 31,-95 V 0 m 0,315 95,95 62,31 h 95 l 63,-31 32,-95 V 0"
         style="stroke-width:0.25in"
         transform="matrix(0.02,0,0,-0.02,160.64,0)"
         id="path1832" />
      <path
         d="M 567,441 V -63 l -31,-95 -32,-31 -63,-31 h -95 l -62,31 m 283,535 -63,64 -63,31 H 346 L 284,410 220,346 189,252 V 189 L 220,94.5 284,31.5 346,0 h 95 l 63,31.5 63,63"
         style="stroke-width:0.25in"
         transform="matrix(0.02,0,0,-0.02,179.54,0)"
         id="path1834" />
      <path
         d="m 220,441 v -661 m 0,566 64,64 62,31 h 95 l 63,-31 63,-64 31,-94 V 189 L 567,94.5 504,31.5 441,0 h -95 l -62,31.5 -64,63"
         style="stroke-width:0.25in"
         transform="matrix(0.02,0,0,-0.02,191.5,0)"
         id="path1836" />
      <path
         d="M 346,441 284,410 220,346 189,252 V 189 L 220,94.5 284,31.5 346,0 h 95 l 63,31.5 63,63 31,94.5 v 63 l -31,94 -63,64 -63,31 h -95"
         style="stroke-width:0.25in"
         transform="matrix(0.02,0,0,-0.02,203.46,0)"
         id="path1838" />
      <path
         d="m 220,441 v -661 m 0,566 64,64 62,31 h 95 l 63,-31 63,-64 31,-94 V 189 L 567,94.5 504,31.5 441,0 h -95 l -62,31.5 -64,63"
         style="stroke-width:0.25in"
         transform="matrix(0.02,0,0,-0.02,215.42,0)"
         id="path1840" />
      <path
         d="m 189,504 v 32 l 31,62 32,32 63,32 h 126 l 63,-32 32,-32 31,-62 V 472 L 536,410 504,378 378,315 V 220 M 378,63 346,31.5 378,0 410,31.5 378,63"
         style="stroke-width:0.25in"
         transform="matrix(0.02,0,0,-0.02,227.38,0)"
         id="path1842" />
    </g>
    <g
       transform="translate(12.5217,57.2929)"
       id="g1884">
      <path
         d="M 410,662 H 346 L 284,630 252,536 V 0 m -94,441 h 220"
         style="stroke-width:0.25in"
         transform="scale(0.02,-0.02)"
         id="path1846" />
      <path
         d="M 220,662 V 0 m 0,346 64,64 62,31 h 95 l 63,-31 63,-64 31,-94 V 189 L 567,94.5 504,31.5 441,0 h -95 l -62,31.5 -64,63"
         style="stroke-width:0.25in"
         transform="matrix(0.02,0,0,-0.02,7.56,0)"
         id="path1848" />
      <path
         d="m 536,346 -32,64 -94,31 h -95 l -95,-31 -31,-64 31,-62 64,-32 157,-32 63,-31 32,-63 V 94.5 L 504,31.5 410,0 h -95 l -95,31.5 -31,63"
         style="stroke-width:0.25in"
         transform="matrix(0.02,0,0,-0.02,27.08,0)"
         id="path1850" />
      <path
         d="M 220,662 V 0 m 0,315 95,95 63,31 h 94 l 64,-31 31,-95 V 0"
         style="stroke-width:0.25in"
         transform="matrix(0.02,0,0,-0.02,37.8,0)"
         id="path1852" />
      <path
         d="M 346,441 284,410 220,346 189,252 V 189 L 220,94.5 284,31.5 346,0 h 95 l 63,31.5 63,63 31,94.5 v 63 l -31,94 -63,64 -63,31 h -95"
         style="stroke-width:0.25in"
         transform="matrix(0.02,0,0,-0.02,49.76,0)"
         id="path1854" />
      <path
         d="M 189,441 315,0 M 441,441 315,0 M 441,441 567,0 M 693,441 567,0"
         style="stroke-width:0.25in"
         transform="matrix(0.02,0,0,-0.02,61.72,0)"
         id="path1856" />
      <path
         d="m 189,252 h 378 v 63 l -31,63 -32,32 -63,31 H 346 L 284,410 220,346 189,252 V 189 L 220,94.5 284,31.5 346,0 h 95 l 63,31.5 63,63"
         style="stroke-width:0.25in"
         transform="matrix(0.02,0,0,-0.02,75.58,0)"
         id="path1858" />
      <path
         d="M 567,662 V 0 m 0,346 -63,64 -63,31 H 346 L 284,410 220,346 189,252 V 189 L 220,94.5 284,31.5 346,0 h 95 l 63,31.5 63,63"
         style="stroke-width:0.25in"
         transform="matrix(0.02,0,0,-0.02,86.92,0)"
         id="path1860" />
      <path
         d="M 220,441 V 0 m 0,315 95,95 63,31 h 94 l 64,-31 31,-95 V 0 m 0,315 95,95 62,31 h 95 l 63,-31 32,-95 V 0"
         style="stroke-width:0.25in"
         transform="matrix(0.02,0,0,-0.02,106.44,0)"
         id="path1862" />
      <path
         d="m 189,252 h 378 v 63 l -31,63 -32,32 -63,31 H 346 L 284,410 220,346 189,252 V 189 L 220,94.5 284,31.5 346,0 h 95 l 63,31.5 63,63"
         style="stroke-width:0.25in"
         transform="matrix(0.02,0,0,-0.02,125.34,0)"
         id="path1864" />
      <path
         d="M 567,441 V 0 m 0,346 -63,64 -63,31 H 346 L 284,410 220,346 189,252 V 189 L 220,94.5 284,31.5 346,0 h 95 l 63,31.5 63,63"
         style="stroke-width:0.25in"
         transform="matrix(0.02,0,0,-0.02,144.24,0)"
         id="path1866" />
      <path
         d="m 220,441 v -661 m 0,566 64,64 62,31 h 95 l 63,-31 63,-64 31,-94 V 189 L 567,94.5 504,31.5 441,0 h -95 l -62,31.5 -64,63"
         style="stroke-width:0.25in"
         transform="matrix(0.02,0,0,-0.02,163.76,0)"
         id="path1868" />
      <path
         d="M 346,441 284,410 220,346 189,252 V 189 L 220,94.5 284,31.5 346,0 h 95 l 63,31.5 63,63 31,94.5 v 63 l -31,94 -63,64 -63,31 h -95"
         style="stroke-width:0.25in"
         transform="matrix(0.02,0,0,-0.02,175.72,0)"
         id="path1870" />
      <path
         d="m 536,346 -32,64 -94,31 h -95 l -95,-31 -31,-64 31,-62 64,-32 157,-32 63,-31 32,-63 V 94.5 L 504,31.5 410,0 h -95 l -95,31.5 -31,63"
         style="stroke-width:0.25in"
         transform="matrix(0.02,0,0,-0.02,187.68,0)"
         id="path1872" />
      <path
         d="M 252,662 V 126 L 284,31.5 346,0 h 64 M 158,441 h 220"
         style="stroke-width:0.25in"
         transform="matrix(0.02,0,0,-0.02,198.4,0)"
         id="path1874" />
      <path
         d="M 410,662 H 346 L 284,630 252,536 V 0 m -94,441 h 220"
         style="stroke-width:0.25in"
         transform="matrix(0.02,0,0,-0.02,213.52,0)"
         id="path1876" />
      <path
         d="M 220,441 V 0 m 0,252 32,94 63,64 63,31 h 94"
         style="stroke-width:0.25in"
         transform="matrix(0.02,0,0,-0.02,221.08,0)"
         id="path1878" />
      <path
         d="M 346,441 284,410 220,346 189,252 V 189 L 220,94.5 284,31.5 346,0 h 95 l 63,31.5 63,63 31,94.5 v 63 l -31,94 -63,64 -63,31 h -95"
         style="stroke-width:0.25in"
         transform="matrix(0.02,0,0,-0.02,229.28,0)"
         id="path1880" />
      <path
         d="M 220,441 V 0 m 0,315 95,95 63,31 h 94 l 64,-31 31,-95 V 0 m 0,315 95,95 62,31 h 95 l 63,-31 32,-95 V 0"
         style="stroke-width:0.25in"
         transform="matrix(0.02,0,0,-0.02,241.24,0)"
         id="path1882" />
    </g>
    <g
       transform="translate(12.5217,82.2929)"
       id="g1928">
      <path
         d="M 158,441 346,0 M 536,441 346,0 l -62,-126 -64,-63 -62,-31 h -32"
         style="stroke-width:0.25in"
         transform="scale(0.02,-0.02)"
         id="path1886" />
      <path
         d="m 189,252 h 378 v 63 l -31,63 -32,32 -63,31 H 346 L 284,410 220,346 189,252 V 189 L 220,94.5 284,31.5 346,0 h 95 l 63,31.5 63,63"
         style="stroke-width:0.25in"
         transform="matrix(0.02,0,0,-0.02,10.08,0)"
         id="path1888" />
      <path
         d="M 567,441 V 0 m 0,346 -63,64 -63,31 H 346 L 284,410 220,346 189,252 V 189 L 220,94.5 284,31.5 346,0 h 95 l 63,31.5 63,63"
         style="stroke-width:0.25in"
         transform="matrix(0.02,0,0,-0.02,21.42,0)"
         id="path1890" />
      <path
         d="M 220,441 V 0 m 0,252 32,94 63,64 63,31 h 94"
         style="stroke-width:0.25in"
         transform="matrix(0.02,0,0,-0.02,33.38,0)"
         id="path1892" />
      <path
         d="m 536,346 -32,64 -94,31 h -95 l -95,-31 -31,-64 31,-62 64,-32 157,-32 63,-31 32,-63 V 94.5 L 504,31.5 410,0 h -95 l -95,31.5 -31,63"
         style="stroke-width:0.25in"
         transform="matrix(0.02,0,0,-0.02,41.58,0)"
         id="path1894" />
      <path
         d="M 567,441 V 0 m 0,346 -63,64 -63,31 H 346 L 284,410 220,346 189,252 V 189 L 220,94.5 284,31.5 346,0 h 95 l 63,31.5 63,63"
         style="stroke-width:0.25in"
         transform="matrix(0.02,0,0,-0.02,59.86,0)"
         id="path1896" />
      <path
         d="M 567,441 V -63 l -31,-95 -32,-31 -63,-31 h -95 l -62,31 m 283,535 -63,64 -63,31 H 346 L 284,410 220,346 189,252 V 189 L 220,94.5 284,31.5 346,0 h 95 l 63,31.5 63,63"
         style="stroke-width:0.25in"
         transform="matrix(0.02,0,0,-0.02,71.82,0)"
         id="path1898" />
      <path
         d="M 346,441 284,410 220,346 189,252 V 189 L 220,94.5 284,31.5 346,0 h 95 l 63,31.5 63,63 31,94.5 v 63 l -31,94 -63,64 -63,31 h -95"
         style="stroke-width:0.25in"
         transform="matrix(0.02,0,0,-0.02,83.78,0)"
         id="path1900" />
      <path
         d="M 567,441 V 0 m 0,346 -63,64 -63,31 H 346 L 284,410 220,346 189,252 V 189 L 220,94.5 284,31.5 346,0 h 95 l 63,31.5 63,63"
         style="stroke-width:0.25in"
         transform="matrix(0.02,0,0,-0.02,103.3,0)"
         id="path1902" />
      <path
         d="M 220,662 V 0 m 0,346 64,64 62,31 h 95 l 63,-31 63,-64 31,-94 V 189 L 567,94.5 504,31.5 441,0 h -95 l -62,31.5 -64,63"
         style="stroke-width:0.25in"
         transform="matrix(0.02,0,0,-0.02,115.26,0)"
         id="path1904" />
      <path
         d="M 346,441 284,410 220,346 189,252 V 189 L 220,94.5 284,31.5 346,0 h 95 l 63,31.5 63,63 31,94.5 v 63 l -31,94 -63,64 -63,31 h -95"
         style="stroke-width:0.25in"
         transform="matrix(0.02,0,0,-0.02,127.22,0)"
         id="path1906" />
      <path
         d="M 220,441 V 126 L 252,31.5 315,0 h 95 l 62,31.5 95,94.5 m 0,315 V 0"
         style="stroke-width:0.25in"
         transform="matrix(0.02,0,0,-0.02,139.18,0)"
         id="path1908" />
      <path
         d="M 252,662 V 126 L 284,31.5 346,0 h 64 M 158,441 h 220"
         style="stroke-width:0.25in"
         transform="matrix(0.02,0,0,-0.02,151.14,0)"
         id="path1910" />
      <path
         d="m 189,662 31,-32 32,32 -32,31 -31,-31 M 220,441 V 0"
         style="stroke-width:0.25in"
         transform="matrix(0.02,0,0,-0.02,166.26,0)"
         id="path1912" />
      <path
         d="M 252,662 V 126 L 284,31.5 346,0 h 64 M 158,441 h 220"
         style="stroke-width:0.25in"
         transform="matrix(0.02,0,0,-0.02,171.3,0)"
         id="path1914" />
      <path
         d="M 567,662 V 0 m 0,346 -63,64 -63,31 H 346 L 284,410 220,346 189,252 V 189 L 220,94.5 284,31.5 346,0 h 95 l 63,31.5 63,63"
         style="stroke-width:0.25in"
         transform="matrix(0.02,0,0,-0.02,186.42,0)"
         id="path1916" />
      <path
         d="M 158,441 346,0 M 536,441 346,0 l -62,-126 -64,-63 -62,-31 h -32"
         style="stroke-width:0.25in"
         transform="matrix(0.02,0,0,-0.02,198.38,0)"
         id="path1918" />
      <path
         d="m 189,662 31,-32 32,32 -32,31 -31,-31 M 220,441 V 0"
         style="stroke-width:0.25in"
         transform="matrix(0.02,0,0,-0.02,208.46,0)"
         id="path1920" />
      <path
         d="M 220,441 V 0 m 0,315 95,95 63,31 h 94 l 64,-31 31,-95 V 0"
         style="stroke-width:0.25in"
         transform="matrix(0.02,0,0,-0.02,213.5,0)"
         id="path1922" />
      <path
         d="M 567,441 V -63 l -31,-95 -32,-31 -63,-31 h -95 l -62,31 m 283,535 -63,64 -63,31 H 346 L 284,410 220,346 189,252 V 189 L 220,94.5 284,31.5 346,0 h 95 l 63,31.5 63,63"
         style="stroke-width:0.25in"
         transform="matrix(0.02,0,0,-0.02,225.46,0)"
         id="path1924" />
      <path
         d="m 252,126 -32,-31.5 -31,31.5 31,32 32,-32 V 63 L 189,0"
         style="stroke-width:0.25in"
         transform="matrix(0.02,0,0,-0.02,237.42,0)"
         id="path1926" />
    </g>
    <g
       transform="translate(12.5217,107.293)"
       id="g1972">
      <path
         d="m 536,346 -32,64 -94,31 h -95 l -95,-31 -31,-64 31,-62 64,-32 157,-32 63,-31 32,-63 V 94.5 L 504,31.5 410,0 h -95 l -95,31.5 -31,63"
         style="stroke-width:0.25in"
         transform="scale(0.02,-0.02)"
         id="path1930" />
      <path
         d="M 346,441 284,410 220,346 189,252 V 189 L 220,94.5 284,31.5 346,0 h 95 l 63,31.5 63,63 31,94.5 v 63 l -31,94 -63,64 -63,31 h -95"
         style="stroke-width:0.25in"
         transform="matrix(0.02,0,0,-0.02,10.72,0)"
         id="path1932" />
      <path
         d="m 189,662 31,-32 32,32 -32,31 -31,-31 M 220,441 V 0"
         style="stroke-width:0.25in"
         transform="matrix(0.02,0,0,-0.02,30.24,0)"
         id="path1934" />
      <path
         d="M 220,662 V 0"
         style="stroke-width:0.25in"
         transform="matrix(0.02,0,0,-0.02,42.84,0)"
         id="path1936" />
      <path
         d="M 346,441 284,410 220,346 189,252 V 189 L 220,94.5 284,31.5 346,0 h 95 l 63,31.5 63,63 31,94.5 v 63 l -31,94 -63,64 -63,31 h -95"
         style="stroke-width:0.25in"
         transform="matrix(0.02,0,0,-0.02,47.88,0)"
         id="path1938" />
      <path
         d="M 346,441 284,410 220,346 189,252 V 189 L 220,94.5 284,31.5 346,0 h 95 l 63,31.5 63,63 31,94.5 v 63 l -31,94 -63,64 -63,31 h -95"
         style="stroke-width:0.25in"
         transform="matrix(0.02,0,0,-0.02,59.84,0)"
         id="path1940" />
      <path
         d="M 220,662 V 0 M 536,441 220,126 M 346,252 567,0"
         style="stroke-width:0.25in"
         transform="matrix(0.02,0,0,-0.02,71.8,0)"
         id="path1942" />
      <path
         d="m 189,252 h 378 v 63 l -31,63 -32,32 -63,31 H 346 L 284,410 220,346 189,252 V 189 L 220,94.5 284,31.5 346,0 h 95 l 63,31.5 63,63"
         style="stroke-width:0.25in"
         transform="matrix(0.02,0,0,-0.02,82.52,0)"
         id="path1944" />
      <path
         d="M 567,662 V 0 m 0,346 -63,64 -63,31 H 346 L 284,410 220,346 189,252 V 189 L 220,94.5 284,31.5 346,0 h 95 l 63,31.5 63,63"
         style="stroke-width:0.25in"
         transform="matrix(0.02,0,0,-0.02,93.86,0)"
         id="path1946" />
      <path
         d="m 189,662 31,-32 32,32 -32,31 -31,-31 M 220,441 V 0"
         style="stroke-width:0.25in"
         transform="matrix(0.02,0,0,-0.02,113.38,0)"
         id="path1948" />
      <path
         d="M 252,662 V 126 L 284,31.5 346,0 h 64 M 158,441 h 220"
         style="stroke-width:0.25in"
         transform="matrix(0.02,0,0,-0.02,118.42,0)"
         id="path1950" />
      <path
         d="M 220,441 V 126 L 252,31.5 315,0 h 95 l 62,31.5 95,94.5 m 0,315 V 0"
         style="stroke-width:0.25in"
         transform="matrix(0.02,0,0,-0.02,133.54,0)"
         id="path1952" />
      <path
         d="m 220,441 v -661 m 0,566 64,64 62,31 h 95 l 63,-31 63,-64 31,-94 V 189 L 567,94.5 504,31.5 441,0 h -95 l -62,31.5 -64,63"
         style="stroke-width:0.25in"
         transform="matrix(0.02,0,0,-0.02,145.5,0)"
         id="path1954" />
      <path
         d="M 567,441 V 0 m 0,346 -63,64 -63,31 H 346 L 284,410 220,346 189,252 V 189 L 220,94.5 284,31.5 346,0 h 95 l 63,31.5 63,63"
         style="stroke-width:0.25in"
         transform="matrix(0.02,0,0,-0.02,165.02,0)"
         id="path1956" />
      <path
         d="M 220,441 V 0 m 0,315 95,95 63,31 h 94 l 64,-31 31,-95 V 0"
         style="stroke-width:0.25in"
         transform="matrix(0.02,0,0,-0.02,176.98,0)"
         id="path1958" />
      <path
         d="M 567,662 V 0 m 0,346 -63,64 -63,31 H 346 L 284,410 220,346 189,252 V 189 L 220,94.5 284,31.5 346,0 h 95 l 63,31.5 63,63"
         style="stroke-width:0.25in"
         transform="matrix(0.02,0,0,-0.02,188.94,0)"
         id="path1960" />
      <path
         d="M 536,441 189,0 m 0,441 H 536 M 189,0 h 347"
         style="stroke-width:0.25in"
         transform="matrix(0.02,0,0,-0.02,208.46,0)"
         id="path1962" />
      <path
         d="M 158,441 346,0 M 536,441 346,0 l -62,-126 -64,-63 -62,-31 h -32"
         style="stroke-width:0.25in"
         transform="matrix(0.02,0,0,-0.02,219.18,0)"
         id="path1964" />
      <path
         d="M 220,441 V 0 m 0,315 95,95 63,31 h 94 l 64,-31 31,-95 V 0"
         style="stroke-width:0.25in"
         transform="matrix(0.02,0,0,-0.02,229.26,0)"
         id="path1966" />
      <path
         d="M 567,441 V -63 l -31,-95 -32,-31 -63,-31 h -95 l -62,31 m 283,535 -63,64 -63,31 H 346 L 284,410 220,346 189,252 V 189 L 220,94.5 284,31.5 346,0 h 95 l 63,31.5 63,63"
         style="stroke-width:0.25in"
         transform="matrix(0.02,0,0,-0.02,241.22,0)"
         id="path1968" />
      <path
         d="M 567,441 V 0 m 0,346 -63,64 -63,31 H 346 L 284,410 220,346 189,252 V 189 L 220,94.5 284,31.5 346,0 h 95 l 63,31.5 63,63"
         style="stroke-width:0.25in"
         transform="matrix(0.02,0,0,-0.02,253.18,0)"
         id="path1970" />
    </g>
    <g
       transform="translate(12.5217,132.293)"
       id="g2012">
      <path
         d="M 220,662 V 0 m 0,346 64,64 62,31 h 95 l 63,-31 63,-64 31,-94 V 189 L 567,94.5 504,31.5 441,0 h -95 l -62,31.5 -64,63"
         style="stroke-width:0.25in"
         transform="scale(0.02,-0.02)"
         id="path1974" />
      <path
         d="M 346,441 284,410 220,346 189,252 V 189 L 220,94.5 284,31.5 346,0 h 95 l 63,31.5 63,63 31,94.5 v 63 l -31,94 -63,64 -63,31 h -95"
         style="stroke-width:0.25in"
         transform="matrix(0.02,0,0,-0.02,11.96,0)"
         id="path1976" />
      <path
         d="M 220,441 V 126 L 252,31.5 315,0 h 95 l 62,31.5 95,94.5 m 0,315 V 0"
         style="stroke-width:0.25in"
         transform="matrix(0.02,0,0,-0.02,23.92,0)"
         id="path1978" />
      <path
         d="M 567,441 V -63 l -31,-95 -32,-31 -63,-31 h -95 l -62,31 m 283,535 -63,64 -63,31 H 346 L 284,410 220,346 189,252 V 189 L 220,94.5 284,31.5 346,0 h 95 l 63,31.5 63,63"
         style="stroke-width:0.25in"
         transform="matrix(0.02,0,0,-0.02,35.88,0)"
         id="path1980" />
      <path
         d="M 220,662 V 0 m 0,315 95,95 63,31 h 94 l 64,-31 31,-95 V 0"
         style="stroke-width:0.25in"
         transform="matrix(0.02,0,0,-0.02,47.84,0)"
         id="path1982" />
      <path
         d="M 252,662 V 126 L 284,31.5 346,0 h 64 M 158,441 h 220"
         style="stroke-width:0.25in"
         transform="matrix(0.02,0,0,-0.02,59.8,0)"
         id="path1984" />
      <path
         d="M 252,662 V 126 L 284,31.5 346,0 h 64 M 158,441 h 220"
         style="stroke-width:0.25in"
         transform="matrix(0.02,0,0,-0.02,74.92,0)"
         id="path1986" />
      <path
         d="M 220,662 V 0 m 0,315 95,95 63,31 h 94 l 64,-31 31,-95 V 0"
         style="stroke-width:0.25in"
         transform="matrix(0.02,0,0,-0.02,82.48,0)"
         id="path1988" />
      <path
         d="m 189,252 h 378 v 63 l -31,63 -32,32 -63,31 H 346 L 284,410 220,346 189,252 V 189 L 220,94.5 284,31.5 346,0 h 95 l 63,31.5 63,63"
         style="stroke-width:0.25in"
         transform="matrix(0.02,0,0,-0.02,94.44,0)"
         id="path1990" />
      <path
         d="m 567,346 -63,64 -63,31 H 346 L 284,410 220,346 189,252 V 189 L 220,94.5 284,31.5 346,0 h 95 l 63,31.5 63,63"
         style="stroke-width:0.25in"
         transform="matrix(0.02,0,0,-0.02,113.34,0)"
         id="path1992" />
      <path
         d="M 346,441 284,410 220,346 189,252 V 189 L 220,94.5 284,31.5 346,0 h 95 l 63,31.5 63,63 31,94.5 v 63 l -31,94 -63,64 -63,31 h -95"
         style="stroke-width:0.25in"
         transform="matrix(0.02,0,0,-0.02,124.68,0)"
         id="path1994" />
      <path
         d="M 220,441 V 0 m 0,315 95,95 63,31 h 94 l 64,-31 31,-95 V 0 m 0,315 95,95 62,31 h 95 l 63,-31 32,-95 V 0"
         style="stroke-width:0.25in"
         transform="matrix(0.02,0,0,-0.02,136.64,0)"
         id="path1996" />
      <path
         d="m 220,441 v -661 m 0,566 64,64 62,31 h 95 l 63,-31 63,-64 31,-94 V 189 L 567,94.5 504,31.5 441,0 h -95 l -62,31.5 -64,63"
         style="stroke-width:0.25in"
         transform="matrix(0.02,0,0,-0.02,155.54,0)"
         id="path1998" />
      <path
         d="M 567,441 V 0 m 0,346 -63,64 -63,31 H 346 L 284,410 220,346 189,252 V 189 L 220,94.5 284,31.5 346,0 h 95 l 63,31.5 63,63"
         style="stroke-width:0.25in"
         transform="matrix(0.02,0,0,-0.02,167.5,0)"
         id="path2000" />
      <path
         d="M 220,441 V 0 m 0,315 95,95 63,31 h 94 l 64,-31 31,-95 V 0"
         style="stroke-width:0.25in"
         transform="matrix(0.02,0,0,-0.02,179.46,0)"
         id="path2002" />
      <path
         d="M 158,441 346,0 M 536,441 346,0 l -62,-126 -64,-63 -62,-31 h -32"
         style="stroke-width:0.25in"
         transform="matrix(0.02,0,0,-0.02,191.42,0)"
         id="path2004" />
      <path
         d="M 410,662 H 346 L 284,630 252,536 V 0 m -94,441 h 220"
         style="stroke-width:0.25in"
         transform="matrix(0.02,0,0,-0.02,209.06,0)"
         id="path2006" />
      <path
         d="M 346,441 284,410 220,346 189,252 V 189 L 220,94.5 284,31.5 346,0 h 95 l 63,31.5 63,63 31,94.5 v 63 l -31,94 -63,64 -63,31 h -95"
         style="stroke-width:0.25in"
         transform="matrix(0.02,0,0,-0.02,216.62,0)"
         id="path2008" />
      <path
         d="M 220,441 V 0 m 0,252 32,94 63,64 63,31 h 94"
         style="stroke-width:0.25in"
         transform="matrix(0.02,0,0,-0.02,228.58,0)"
         id="path2010" />
    </g>
    <g
       transform="translate(12.5217,157.293)"
       id="g2058">
      <path
         d="M 252,662 V 126 L 284,31.5 346,0 h 64 M 158,441 h 220"
         style="stroke-width:0.25in"
         transform="scale(0.02,-0.02)"
         id="path2014" />
      <path
         d="M 220,662 V 0 m 0,315 95,95 63,31 h 94 l 64,-31 31,-95 V 0"
         style="stroke-width:0.25in"
         transform="matrix(0.02,0,0,-0.02,7.56,0)"
         id="path2016" />
      <path
         d="m 189,252 h 378 v 63 l -31,63 -32,32 -63,31 H 346 L 284,410 220,346 189,252 V 189 L 220,94.5 284,31.5 346,0 h 95 l 63,31.5 63,63"
         style="stroke-width:0.25in"
         transform="matrix(0.02,0,0,-0.02,19.52,0)"
         id="path2018" />
      <path
         d="m 189,662 31,-32 32,32 -32,31 -31,-31 M 220,441 V 0"
         style="stroke-width:0.25in"
         transform="matrix(0.02,0,0,-0.02,30.86,0)"
         id="path2020" />
      <path
         d="M 220,441 V 0 m 0,252 32,94 63,64 63,31 h 94"
         style="stroke-width:0.25in"
         transform="matrix(0.02,0,0,-0.02,35.9,0)"
         id="path2022" />
      <path
         d="M 220,662 V 0"
         style="stroke-width:0.25in"
         transform="matrix(0.02,0,0,-0.02,51.66,0)"
         id="path2024" />
      <path
         d="m 189,662 31,-32 32,32 -32,31 -31,-31 M 220,441 V 0"
         style="stroke-width:0.25in"
         transform="matrix(0.02,0,0,-0.02,56.7,0)"
         id="path2026" />
      <path
         d="M 220,662 V 0 M 536,441 220,126 M 346,252 567,0"
         style="stroke-width:0.25in"
         transform="matrix(0.02,0,0,-0.02,61.74,0)"
         id="path2028" />
      <path
         d="m 189,252 h 378 v 63 l -31,63 -32,32 -63,31 H 346 L 284,410 220,346 189,252 V 189 L 220,94.5 284,31.5 346,0 h 95 l 63,31.5 63,63"
         style="stroke-width:0.25in"
         transform="matrix(0.02,0,0,-0.02,72.46,0)"
         id="path2030" />
      <path
         d="m 536,346 -32,64 -94,31 h -95 l -95,-31 -31,-64 31,-62 64,-32 157,-32 63,-31 32,-63 V 94.5 L 504,31.5 410,0 h -95 l -95,31.5 -31,63"
         style="stroke-width:0.25in"
         transform="matrix(0.02,0,0,-0.02,91.36,0)"
         id="path2032" />
      <path
         d="m 189,662 31,-32 32,32 -32,31 -31,-31 M 220,441 V 0"
         style="stroke-width:0.25in"
         transform="matrix(0.02,0,0,-0.02,102.08,0)"
         id="path2034" />
      <path
         d="M 220,441 V 0 m 0,315 95,95 63,31 h 94 l 64,-31 31,-95 V 0"
         style="stroke-width:0.25in"
         transform="matrix(0.02,0,0,-0.02,107.12,0)"
         id="path2036" />
      <path
         d="M 567,441 V -63 l -31,-95 -32,-31 -63,-31 h -95 l -62,31 m 283,535 -63,64 -63,31 H 346 L 284,410 220,346 189,252 V 189 L 220,94.5 284,31.5 346,0 h 95 l 63,31.5 63,63"
         style="stroke-width:0.25in"
         transform="matrix(0.02,0,0,-0.02,119.08,0)"
         id="path2038" />
      <path
         d="M 220,662 V 0"
         style="stroke-width:0.25in"
         transform="matrix(0.02,0,0,-0.02,131.04,0)"
         id="path2040" />
      <path
         d="m 189,252 h 378 v 63 l -31,63 -32,32 -63,31 H 346 L 284,410 220,346 189,252 V 189 L 220,94.5 284,31.5 346,0 h 95 l 63,31.5 63,63"
         style="stroke-width:0.25in"
         transform="matrix(0.02,0,0,-0.02,136.08,0)"
         id="path2042" />
      <path
         d="m 220,441 v -661 m 0,566 64,64 62,31 h 95 l 63,-31 63,-64 31,-94 V 189 L 567,94.5 504,31.5 441,0 h -95 l -62,31.5 -64,63"
         style="stroke-width:0.25in"
         transform="matrix(0.02,0,0,-0.02,154.98,0)"
         id="path2044" />
      <path
         d="M 346,441 284,410 220,346 189,252 V 189 L 220,94.5 284,31.5 346,0 h 95 l 63,31.5 63,63 31,94.5 v 63 l -31,94 -63,64 -63,31 h -95"
         style="stroke-width:0.25in"
         transform="matrix(0.02,0,0,-0.02,166.94,0)"
         id="path2046" />
      <path
         d="m 220,441 v -661 m 0,566 64,64 62,31 h 95 l 63,-31 63,-64 31,-94 V 189 L 567,94.5 504,31.5 441,0 h -95 l -62,31.5 -64,63"
         style="stroke-width:0.25in"
         transform="matrix(0.02,0,0,-0.02,178.9,0)"
         id="path2048" />
      <path
         d="M 220,441 V 126 L 252,31.5 315,0 h 95 l 62,31.5 95,94.5 m 0,315 V 0"
         style="stroke-width:0.25in"
         transform="matrix(0.02,0,0,-0.02,190.86,0)"
         id="path2050" />
      <path
         d="M 220,662 V 0"
         style="stroke-width:0.25in"
         transform="matrix(0.02,0,0,-0.02,202.82,0)"
         id="path2052" />
      <path
         d="M 567,441 V 0 m 0,346 -63,64 -63,31 H 346 L 284,410 220,346 189,252 V 189 L 220,94.5 284,31.5 346,0 h 95 l 63,31.5 63,63"
         style="stroke-width:0.25in"
         transform="matrix(0.02,0,0,-0.02,207.86,0)"
         id="path2054" />
      <path
         d="M 220,441 V 0 m 0,252 32,94 63,64 63,31 h 94"
         style="stroke-width:0.25in"
         transform="matrix(0.02,0,0,-0.02,219.82,0)"
         id="path2056" />
    </g>
    <g
       transform="translate(12.5217,182.293)"
       id="g2092">
      <path
         d="M 567,441 V -63 l -31,-95 -32,-31 -63,-31 h -95 l -62,31 m 283,535 -63,64 -63,31 H 346 L 284,410 220,346 189,252 V 189 L 220,94.5 284,31.5 346,0 h 95 l 63,31.5 63,63"
         style="stroke-width:0.25in"
         transform="scale(0.02,-0.02)"
         id="path2060" />
      <path
         d="M 567,441 V 0 m 0,346 -63,64 -63,31 H 346 L 284,410 220,346 189,252 V 189 L 220,94.5 284,31.5 346,0 h 95 l 63,31.5 63,63"
         style="stroke-width:0.25in"
         transform="matrix(0.02,0,0,-0.02,11.96,0)"
         id="path2062" />
      <path
         d="M 220,441 V 0 m 0,315 95,95 63,31 h 94 l 64,-31 31,-95 V 0 m 0,315 95,95 62,31 h 95 l 63,-31 32,-95 V 0"
         style="stroke-width:0.25in"
         transform="matrix(0.02,0,0,-0.02,23.92,0)"
         id="path2064" />
      <path
         d="m 189,252 h 378 v 63 l -31,63 -32,32 -63,31 H 346 L 284,410 220,346 189,252 V 189 L 220,94.5 284,31.5 346,0 h 95 l 63,31.5 63,63"
         style="stroke-width:0.25in"
         transform="matrix(0.02,0,0,-0.02,42.82,0)"
         id="path2066" />
      <path
         d="m 252,126 -32,-31.5 -31,31.5 31,32 32,-32 V 63 L 189,0"
         style="stroke-width:0.25in"
         transform="matrix(0.02,0,0,-0.02,54.16,0)"
         id="path2068" />
      <path
         d="M 252,662 V 126 L 284,31.5 346,0 h 64 M 158,441 h 220"
         style="stroke-width:0.25in"
         transform="matrix(0.02,0,0,-0.02,66.76,0)"
         id="path2070" />
      <path
         d="M 220,662 V 0 m 0,315 95,95 63,31 h 94 l 64,-31 31,-95 V 0"
         style="stroke-width:0.25in"
         transform="matrix(0.02,0,0,-0.02,74.32,0)"
         id="path2072" />
      <path
         d="m 189,252 h 378 v 63 l -31,63 -32,32 -63,31 H 346 L 284,410 220,346 189,252 V 189 L 220,94.5 284,31.5 346,0 h 95 l 63,31.5 63,63"
         style="stroke-width:0.25in"
         transform="matrix(0.02,0,0,-0.02,86.28,0)"
         id="path2074" />
      <path
         d="M 220,441 V 0 m 0,315 95,95 63,31 h 94 l 64,-31 31,-95 V 0"
         style="stroke-width:0.25in"
         transform="matrix(0.02,0,0,-0.02,97.62,0)"
         id="path2076" />
      <path
         d="M 220,441 V 0 m 0,315 95,95 63,31 h 94 l 64,-31 31,-95 V 0 m 0,315 95,95 62,31 h 95 l 63,-31 32,-95 V 0"
         style="stroke-width:0.25in"
         transform="matrix(0.02,0,0,-0.02,117.14,0)"
         id="path2078" />
      <path
         d="M 567,441 V 0 m 0,346 -63,64 -63,31 H 346 L 284,410 220,346 189,252 V 189 L 220,94.5 284,31.5 346,0 h 95 l 63,31.5 63,63"
         style="stroke-width:0.25in"
         transform="matrix(0.02,0,0,-0.02,136.04,0)"
         id="path2080" />
      <path
         d="M 567,662 V 0 m 0,346 -63,64 -63,31 H 346 L 284,410 220,346 189,252 V 189 L 220,94.5 284,31.5 346,0 h 95 l 63,31.5 63,63"
         style="stroke-width:0.25in"
         transform="matrix(0.02,0,0,-0.02,148,0)"
         id="path2082" />
      <path
         d="m 189,252 h 378 v 63 l -31,63 -32,32 -63,31 H 346 L 284,410 220,346 189,252 V 189 L 220,94.5 284,31.5 346,0 h 95 l 63,31.5 63,63"
         style="stroke-width:0.25in"
         transform="matrix(0.02,0,0,-0.02,159.96,0)"
         id="path2084" />
      <path
         d="m 189,662 31,-32 32,32 -32,31 -31,-31 M 220,441 V 0"
         style="stroke-width:0.25in"
         transform="matrix(0.02,0,0,-0.02,178.86,0)"
         id="path2086" />
      <path
         d="M 252,662 V 126 L 284,31.5 346,0 h 64 M 158,441 h 220"
         style="stroke-width:0.25in"
         transform="matrix(0.02,0,0,-0.02,183.9,0)"
         id="path2088" />
      <path
         d="M 567,441 V 0 m 0,346 -63,64 -63,31 H 346 L 284,410 220,346 189,252 V 189 L 220,94.5 284,31.5 346,0 h 95 l 63,31.5 63,63"
         style="stroke-width:0.25in"
         transform="matrix(0.02,0,0,-0.02,199.02,0)"
         id="path2090" />
    </g>
    <g
       transform="translate(12.5217,207.293)"
       id="g2140">
      <path
         d="m 536,346 -32,64 -94,31 h -95 l -95,-31 -31,-64 31,-62 64,-32 157,-32 63,-31 32,-63 V 94.5 L 504,31.5 410,0 h -95 l -95,31.5 -31,63"
         style="stroke-width:0.25in"
         transform="scale(0.02,-0.02)"
         id="path2094" />
      <path
         d="M 252,662 V 126 L 284,31.5 346,0 h 64 M 158,441 h 220"
         style="stroke-width:0.25in"
         transform="matrix(0.02,0,0,-0.02,10.72,0)"
         id="path2096" />
      <path
         d="M 567,441 V 0 m 0,346 -63,64 -63,31 H 346 L 284,410 220,346 189,252 V 189 L 220,94.5 284,31.5 346,0 h 95 l 63,31.5 63,63"
         style="stroke-width:0.25in"
         transform="matrix(0.02,0,0,-0.02,18.28,0)"
         id="path2098" />
      <path
         d="M 220,441 V 0 m 0,315 95,95 63,31 h 94 l 64,-31 31,-95 V 0"
         style="stroke-width:0.25in"
         transform="matrix(0.02,0,0,-0.02,30.24,0)"
         id="path2100" />
      <path
         d="M 567,662 V 0 m 0,346 -63,64 -63,31 H 346 L 284,410 220,346 189,252 V 189 L 220,94.5 284,31.5 346,0 h 95 l 63,31.5 63,63"
         style="stroke-width:0.25in"
         transform="matrix(0.02,0,0,-0.02,42.2,0)"
         id="path2102" />
      <path
         d="M 567,441 V 0 m 0,346 -63,64 -63,31 H 346 L 284,410 220,346 189,252 V 189 L 220,94.5 284,31.5 346,0 h 95 l 63,31.5 63,63"
         style="stroke-width:0.25in"
         transform="matrix(0.02,0,0,-0.02,54.16,0)"
         id="path2104" />
      <path
         d="M 220,662 V 0"
         style="stroke-width:0.25in"
         transform="matrix(0.02,0,0,-0.02,66.12,0)"
         id="path2106" />
      <path
         d="M 346,441 284,410 220,346 189,252 V 189 L 220,94.5 284,31.5 346,0 h 95 l 63,31.5 63,63 31,94.5 v 63 l -31,94 -63,64 -63,31 h -95"
         style="stroke-width:0.25in"
         transform="matrix(0.02,0,0,-0.02,71.16,0)"
         id="path2108" />
      <path
         d="M 220,441 V 0 m 0,315 95,95 63,31 h 94 l 64,-31 31,-95 V 0"
         style="stroke-width:0.25in"
         transform="matrix(0.02,0,0,-0.02,83.12,0)"
         id="path2110" />
      <path
         d="m 189,252 h 378 v 63 l -31,63 -32,32 -63,31 H 346 L 284,410 220,346 189,252 V 189 L 220,94.5 284,31.5 346,0 h 95 l 63,31.5 63,63"
         style="stroke-width:0.25in"
         transform="matrix(0.02,0,0,-0.02,95.08,0)"
         id="path2112" />
      <path
         d="M 252,662 V 126 L 284,31.5 346,0 h 64 M 158,441 h 220"
         style="stroke-width:0.25in"
         transform="matrix(0.02,0,0,-0.02,113.98,0)"
         id="path2114" />
      <path
         d="M 220,662 V 0 m 0,315 95,95 63,31 h 94 l 64,-31 31,-95 V 0"
         style="stroke-width:0.25in"
         transform="matrix(0.02,0,0,-0.02,121.54,0)"
         id="path2116" />
      <path
         d="m 189,662 31,-32 32,32 -32,31 -31,-31 M 220,441 V 0"
         style="stroke-width:0.25in"
         transform="matrix(0.02,0,0,-0.02,133.5,0)"
         id="path2118" />
      <path
         d="M 220,441 V 0 m 0,315 95,95 63,31 h 94 l 64,-31 31,-95 V 0"
         style="stroke-width:0.25in"
         transform="matrix(0.02,0,0,-0.02,138.54,0)"
         id="path2120" />
      <path
         d="M 567,441 V -63 l -31,-95 -32,-31 -63,-31 h -95 l -62,31 m 283,535 -63,64 -63,31 H 346 L 284,410 220,346 189,252 V 189 L 220,94.5 284,31.5 346,0 h 95 l 63,31.5 63,63"
         style="stroke-width:0.25in"
         transform="matrix(0.02,0,0,-0.02,150.5,0)"
         id="path2122" />
      <path
         d="m 252,126 -32,-31.5 -31,31.5 31,32 32,-32 V 63 L 189,0"
         style="stroke-width:0.25in"
         transform="matrix(0.02,0,0,-0.02,162.46,0)"
         id="path2124" />
      <path
         d="M 567,441 V 0 m 0,346 -63,64 -63,31 H 346 L 284,410 220,346 189,252 V 189 L 220,94.5 284,31.5 346,0 h 95 l 63,31.5 63,63"
         style="stroke-width:0.25in"
         transform="matrix(0.02,0,0,-0.02,175.06,0)"
         id="path2126" />
      <path
         d="M 220,441 V 0 m 0,315 95,95 63,31 h 94 l 64,-31 31,-95 V 0"
         style="stroke-width:0.25in"
         transform="matrix(0.02,0,0,-0.02,187.02,0)"
         id="path2128" />
      <path
         d="M 567,662 V 0 m 0,346 -63,64 -63,31 H 346 L 284,410 220,346 189,252 V 189 L 220,94.5 284,31.5 346,0 h 95 l 63,31.5 63,63"
         style="stroke-width:0.25in"
         transform="matrix(0.02,0,0,-0.02,198.98,0)"
         id="path2130" />
      <path
         d="m 536,346 -32,64 -94,31 h -95 l -95,-31 -31,-64 31,-62 64,-32 157,-32 63,-31 32,-63 V 94.5 L 504,31.5 410,0 h -95 l -95,31.5 -31,63"
         style="stroke-width:0.25in"
         transform="matrix(0.02,0,0,-0.02,218.5,0)"
         id="path2132" />
      <path
         d="M 220,662 V 0 m 0,315 95,95 63,31 h 94 l 64,-31 31,-95 V 0"
         style="stroke-width:0.25in"
         transform="matrix(0.02,0,0,-0.02,229.22,0)"
         id="path2134" />
      <path
         d="M 220,441 V 126 L 252,31.5 315,0 h 95 l 62,31.5 95,94.5 m 0,315 V 0"
         style="stroke-width:0.25in"
         transform="matrix(0.02,0,0,-0.02,241.18,0)"
         id="path2136" />
      <path
         d="M 252,662 V 126 L 284,31.5 346,0 h 64 M 158,441 h 220"
         style="stroke-width:0.25in"
         transform="matrix(0.02,0,0,-0.02,253.14,0)"
         id="path2138" />
    </g>
    <g
       transform="translate(12.5217,232.293)"
       id="g2180">
      <path
         d="m 189,252 h 378 v 63 l -31,63 -32,32 -63,31 H 346 L 284,410 220,346 189,252 V 189 L 220,94.5 284,31.5 346,0 h 95 l 63,31.5 63,63"
         style="stroke-width:0.25in"
         transform="scale(0.02,-0.02)"
         id="path2142" />
      <path
         d="M 158,441 346,0 M 536,441 346,0"
         style="stroke-width:0.25in"
         transform="matrix(0.02,0,0,-0.02,11.34,0)"
         id="path2144" />
      <path
         d="m 189,252 h 378 v 63 l -31,63 -32,32 -63,31 H 346 L 284,410 220,346 189,252 V 189 L 220,94.5 284,31.5 346,0 h 95 l 63,31.5 63,63"
         style="stroke-width:0.25in"
         transform="matrix(0.02,0,0,-0.02,21.42,0)"
         id="path2146" />
      <path
         d="M 220,441 V 0 m 0,252 32,94 63,64 63,31 h 94"
         style="stroke-width:0.25in"
         transform="matrix(0.02,0,0,-0.02,32.76,0)"
         id="path2148" />
      <path
         d="M 158,441 346,0 M 536,441 346,0 l -62,-126 -64,-63 -62,-31 h -32"
         style="stroke-width:0.25in"
         transform="matrix(0.02,0,0,-0.02,40.96,0)"
         id="path2150" />
      <path
         d="M 252,662 V 126 L 284,31.5 346,0 h 64 M 158,441 h 220"
         style="stroke-width:0.25in"
         transform="matrix(0.02,0,0,-0.02,51.04,0)"
         id="path2152" />
      <path
         d="M 220,662 V 0 m 0,315 95,95 63,31 h 94 l 64,-31 31,-95 V 0"
         style="stroke-width:0.25in"
         transform="matrix(0.02,0,0,-0.02,58.6,0)"
         id="path2154" />
      <path
         d="m 189,662 31,-32 32,32 -32,31 -31,-31 M 220,441 V 0"
         style="stroke-width:0.25in"
         transform="matrix(0.02,0,0,-0.02,70.56,0)"
         id="path2156" />
      <path
         d="M 220,441 V 0 m 0,315 95,95 63,31 h 94 l 64,-31 31,-95 V 0"
         style="stroke-width:0.25in"
         transform="matrix(0.02,0,0,-0.02,75.6,0)"
         id="path2158" />
      <path
         d="M 567,441 V -63 l -31,-95 -32,-31 -63,-31 h -95 l -62,31 m 283,535 -63,64 -63,31 H 346 L 284,410 220,346 189,252 V 189 L 220,94.5 284,31.5 346,0 h 95 l 63,31.5 63,63"
         style="stroke-width:0.25in"
         transform="matrix(0.02,0,0,-0.02,87.56,0)"
         id="path2160" />
      <path
         d="m 189,252 h 378 v 63 l -31,63 -32,32 -63,31 H 346 L 284,410 220,346 189,252 V 189 L 220,94.5 284,31.5 346,0 h 95 l 63,31.5 63,63"
         style="stroke-width:0.25in"
         transform="matrix(0.02,0,0,-0.02,107.08,0)"
         id="path2162" />
      <path
         d="M 220,662 V 0"
         style="stroke-width:0.25in"
         transform="matrix(0.02,0,0,-0.02,118.42,0)"
         id="path2164" />
      <path
         d="m 536,346 -32,64 -94,31 h -95 l -95,-31 -31,-64 31,-62 64,-32 157,-32 63,-31 32,-63 V 94.5 L 504,31.5 410,0 h -95 l -95,31.5 -31,63"
         style="stroke-width:0.25in"
         transform="matrix(0.02,0,0,-0.02,123.46,0)"
         id="path2166" />
      <path
         d="m 189,252 h 378 v 63 l -31,63 -32,32 -63,31 H 346 L 284,410 220,346 189,252 V 189 L 220,94.5 284,31.5 346,0 h 95 l 63,31.5 63,63"
         style="stroke-width:0.25in"
         transform="matrix(0.02,0,0,-0.02,134.18,0)"
         id="path2168" />
      <path
         d="M 567,662 V 0 m 0,346 -63,64 -63,31 H 346 L 284,410 220,346 189,252 V 189 L 220,94.5 284,31.5 346,0 h 95 l 63,31.5 63,63"
         style="stroke-width:0.25in"
         transform="matrix(0.02,0,0,-0.02,153.08,0)"
         id="path2170" />
      <path
         d="M 346,441 284,410 220,346 189,252 V 189 L 220,94.5 284,31.5 346,0 h 95 l 63,31.5 63,63 31,94.5 v 63 l -31,94 -63,64 -63,31 h -95"
         style="stroke-width:0.25in"
         transform="matrix(0.02,0,0,-0.02,165.04,0)"
         id="path2172" />
      <path
         d="M 189,441 315,0 M 441,441 315,0 M 441,441 567,0 M 693,441 567,0"
         style="stroke-width:0.25in"
         transform="matrix(0.02,0,0,-0.02,177,0)"
         id="path2174" />
      <path
         d="M 220,441 V 0 m 0,315 95,95 63,31 h 94 l 64,-31 31,-95 V 0"
         style="stroke-width:0.25in"
         transform="matrix(0.02,0,0,-0.02,190.86,0)"
         id="path2176" />
      <path
         d="m 220,158 -31,-32 31,-31.5 32,31.5 -32,32"
         style="stroke-width:0.25in"
         transform="matrix(0.02,0,0,-0.02,202.82,0)"
         id="path2178" />
    </g>
    <g
       transform="translate(12.5217,257.293)"
       id="g2220">
      <path
         d="m 536,346 -32,64 -94,31 h -95 l -95,-31 -31,-64 31,-62 64,-32 157,-32 63,-31 32,-63 V 94.5 L 504,31.5 410,0 h -95 l -95,31.5 -31,63"
         style="stroke-width:0.25in"
         transform="scale(0.02,-0.02)"
         id="path2182" />
      <path
         d="M 346,441 284,410 220,346 189,252 V 189 L 220,94.5 284,31.5 346,0 h 95 l 63,31.5 63,63 31,94.5 v 63 l -31,94 -63,64 -63,31 h -95"
         style="stroke-width:0.25in"
         transform="matrix(0.02,0,0,-0.02,10.72,0)"
         id="path2184" />
      <path
         d="M 220,441 V 0 m 0,315 95,95 63,31 h 94 l 64,-31 31,-95 V 0 m 0,315 95,95 62,31 h 95 l 63,-31 32,-95 V 0"
         style="stroke-width:0.25in"
         transform="matrix(0.02,0,0,-0.02,22.68,0)"
         id="path2186" />
      <path
         d="m 189,252 h 378 v 63 l -31,63 -32,32 -63,31 H 346 L 284,410 220,346 189,252 V 189 L 220,94.5 284,31.5 346,0 h 95 l 63,31.5 63,63"
         style="stroke-width:0.25in"
         transform="matrix(0.02,0,0,-0.02,41.58,0)"
         id="path2188" />
      <path
         d="M 346,441 284,410 220,346 189,252 V 189 L 220,94.5 284,31.5 346,0 h 95 l 63,31.5 63,63 31,94.5 v 63 l -31,94 -63,64 -63,31 h -95"
         style="stroke-width:0.25in"
         transform="matrix(0.02,0,0,-0.02,60.48,0)"
         id="path2190" />
      <path
         d="M 410,662 H 346 L 284,630 252,536 V 0 m -94,441 h 220"
         style="stroke-width:0.25in"
         transform="matrix(0.02,0,0,-0.02,72.44,0)"
         id="path2192" />
      <path
         d="M 252,662 V 126 L 284,31.5 346,0 h 64 M 158,441 h 220"
         style="stroke-width:0.25in"
         transform="matrix(0.02,0,0,-0.02,87.56,0)"
         id="path2194" />
      <path
         d="M 220,662 V 0 m 0,315 95,95 63,31 h 94 l 64,-31 31,-95 V 0"
         style="stroke-width:0.25in"
         transform="matrix(0.02,0,0,-0.02,95.12,0)"
         id="path2196" />
      <path
         d="m 189,252 h 378 v 63 l -31,63 -32,32 -63,31 H 346 L 284,410 220,346 189,252 V 189 L 220,94.5 284,31.5 346,0 h 95 l 63,31.5 63,63"
         style="stroke-width:0.25in"
         transform="matrix(0.02,0,0,-0.02,107.08,0)"
         id="path2198" />
      <path
         d="M 567,662 V 0 m 0,346 -63,64 -63,31 H 346 L 284,410 220,346 189,252 V 189 L 220,94.5 284,31.5 346,0 h 95 l 63,31.5 63,63"
         style="stroke-width:0.25in"
         transform="matrix(0.02,0,0,-0.02,125.98,0)"
         id="path2200" />
      <path
         d="m 189,252 h 378 v 63 l -31,63 -32,32 -63,31 H 346 L 284,410 220,346 189,252 V 189 L 220,94.5 284,31.5 346,0 h 95 l 63,31.5 63,63"
         style="stroke-width:0.25in"
         transform="matrix(0.02,0,0,-0.02,137.94,0)"
         id="path2202" />
      <path
         d="M 158,441 346,0 M 536,441 346,0"
         style="stroke-width:0.25in"
         transform="matrix(0.02,0,0,-0.02,149.28,0)"
         id="path2204" />
      <path
         d="m 536,346 -32,64 -94,31 h -95 l -95,-31 -31,-64 31,-62 64,-32 157,-32 63,-31 32,-63 V 94.5 L 504,31.5 410,0 h -95 l -95,31.5 -31,63"
         style="stroke-width:0.25in"
         transform="matrix(0.02,0,0,-0.02,159.36,0)"
         id="path2206" />
      <path
         d="M 189,441 315,0 M 441,441 315,0 M 441,441 567,0 M 693,441 567,0"
         style="stroke-width:0.25in"
         transform="matrix(0.02,0,0,-0.02,177.64,0)"
         id="path2208" />
      <path
         d="M 567,441 V 0 m 0,346 -63,64 -63,31 H 346 L 284,410 220,346 189,252 V 189 L 220,94.5 284,31.5 346,0 h 95 l 63,31.5 63,63"
         style="stroke-width:0.25in"
         transform="matrix(0.02,0,0,-0.02,191.5,0)"
         id="path2210" />
      <path
         d="M 220,441 V 0 m 0,315 95,95 63,31 h 94 l 64,-31 31,-95 V 0"
         style="stroke-width:0.25in"
         transform="matrix(0.02,0,0,-0.02,203.46,0)"
         id="path2212" />
      <path
         d="M 252,662 V 126 L 284,31.5 346,0 h 64 M 158,441 h 220"
         style="stroke-width:0.25in"
         transform="matrix(0.02,0,0,-0.02,215.42,0)"
         id="path2214" />
      <path
         d="m 189,252 h 378 v 63 l -31,63 -32,32 -63,31 H 346 L 284,410 220,346 189,252 V 189 L 220,94.5 284,31.5 346,0 h 95 l 63,31.5 63,63"
         style="stroke-width:0.25in"
         transform="matrix(0.02,0,0,-0.02,222.98,0)"
         id="path2216" />
      <path
         d="M 567,662 V 0 m 0,346 -63,64 -63,31 H 346 L 284,410 220,346 189,252 V 189 L 220,94.5 284,31.5 346,0 h 95 l 63,31.5 63,63"
         style="stroke-width:0.25in"
         transform="matrix(0.02,0,0,-0.02,234.32,0)"
         id="path2218" />
    </g>
    <g
       transform="translate(12.5217,282.293)"
       id="g2258">
      <path
         d="M 252,662 V 126 L 284,31.5 346,0 h 64 M 158,441 h 220"
         style="stroke-width:0.25in"
         transform="scale(0.02,-0.02)"
         id="path2222" />
      <path
         d="M 346,441 284,410 220,346 189,252 V 189 L 220,94.5 284,31.5 346,0 h 95 l 63,31.5 63,63 31,94.5 v 63 l -31,94 -63,64 -63,31 h -95"
         style="stroke-width:0.25in"
         transform="matrix(0.02,0,0,-0.02,7.56,0)"
         id="path2224" />
      <path
         d="M 220,662 V 0 m 0,346 64,64 62,31 h 95 l 63,-31 63,-64 31,-94 V 189 L 567,94.5 504,31.5 441,0 h -95 l -62,31.5 -64,63"
         style="stroke-width:0.25in"
         transform="matrix(0.02,0,0,-0.02,27.08,0)"
         id="path2226" />
      <path
         d="M 220,441 V 126 L 252,31.5 315,0 h 95 l 62,31.5 95,94.5 m 0,315 V 0"
         style="stroke-width:0.25in"
         transform="matrix(0.02,0,0,-0.02,39.04,0)"
         id="path2228" />
      <path
         d="M 158,441 346,0 M 536,441 346,0 l -62,-126 -64,-63 -62,-31 h -32"
         style="stroke-width:0.25in"
         transform="matrix(0.02,0,0,-0.02,51,0)"
         id="path2230" />
      <path
         d="m 189,662 31,-32 32,32 -32,31 -31,-31 M 220,441 V 0"
         style="stroke-width:0.25in"
         transform="matrix(0.02,0,0,-0.02,68.64,0)"
         id="path2232" />
      <path
         d="M 252,662 V 126 L 284,31.5 346,0 h 64 M 158,441 h 220"
         style="stroke-width:0.25in"
         transform="matrix(0.02,0,0,-0.02,73.68,0)"
         id="path2234" />
      <path
         d="M 220,662 V 0 m 0,346 64,64 62,31 h 95 l 63,-31 63,-64 31,-94 V 189 L 567,94.5 504,31.5 441,0 h -95 l -62,31.5 -64,63"
         style="stroke-width:0.25in"
         transform="matrix(0.02,0,0,-0.02,88.8,0)"
         id="path2236" />
      <path
         d="M 567,441 V 0 m 0,346 -63,64 -63,31 H 346 L 284,410 220,346 189,252 V 189 L 220,94.5 284,31.5 346,0 h 95 l 63,31.5 63,63"
         style="stroke-width:0.25in"
         transform="matrix(0.02,0,0,-0.02,100.76,0)"
         id="path2238" />
      <path
         d="m 567,346 -63,64 -63,31 H 346 L 284,410 220,346 189,252 V 189 L 220,94.5 284,31.5 346,0 h 95 l 63,31.5 63,63"
         style="stroke-width:0.25in"
         transform="matrix(0.02,0,0,-0.02,112.72,0)"
         id="path2240" />
      <path
         d="M 220,662 V 0 M 536,441 220,126 M 346,252 567,0"
         style="stroke-width:0.25in"
         transform="matrix(0.02,0,0,-0.02,124.06,0)"
         id="path2242" />
      <path
         d="M 567,441 V 0 m 0,346 -63,64 -63,31 H 346 L 284,410 220,346 189,252 V 189 L 220,94.5 284,31.5 346,0 h 95 l 63,31.5 63,63"
         style="stroke-width:0.25in"
         transform="matrix(0.02,0,0,-0.02,142.34,0)"
         id="path2244" />
      <path
         d="M 220,441 V 0 m 0,315 95,95 63,31 h 94 l 64,-31 31,-95 V 0"
         style="stroke-width:0.25in"
         transform="matrix(0.02,0,0,-0.02,154.3,0)"
         id="path2246" />
      <path
         d="M 567,662 V 0 m 0,346 -63,64 -63,31 H 346 L 284,410 220,346 189,252 V 189 L 220,94.5 284,31.5 346,0 h 95 l 63,31.5 63,63"
         style="stroke-width:0.25in"
         transform="matrix(0.02,0,0,-0.02,166.26,0)"
         id="path2248" />
      <path
         d="M 220,662 V 0 M 536,441 220,126 M 346,252 567,0"
         style="stroke-width:0.25in"
         transform="matrix(0.02,0,0,-0.02,185.78,0)"
         id="path2250" />
      <path
         d="m 189,252 h 378 v 63 l -31,63 -32,32 -63,31 H 346 L 284,410 220,346 189,252 V 189 L 220,94.5 284,31.5 346,0 h 95 l 63,31.5 63,63"
         style="stroke-width:0.25in"
         transform="matrix(0.02,0,0,-0.02,196.5,0)"
         id="path2252" />
      <path
         d="m 189,252 h 378 v 63 l -31,63 -32,32 -63,31 H 346 L 284,410 220,346 189,252 V 189 L 220,94.5 284,31.5 346,0 h 95 l 63,31.5 63,63"
         style="stroke-width:0.25in"
         transform="matrix(0.02,0,0,-0.02,207.84,0)"
         id="path2254" />
      <path
         d="m 220,441 v -661 m 0,566 64,64 62,31 h 95 l 63,-31 63,-64 31,-94 V 189 L 567,94.5 504,31.5 441,0 h -95 l -62,31.5 -64,63"
         style="stroke-width:0.25in"
         transform="matrix(0.02,0,0,-0.02,219.18,0)"
         id="path2256" />
    </g>
    <g
       transform="translate(12.5217,307.293)"
       id="g2298">
      <path
         d="M 189,441 315,0 M 441,441 315,0 M 441,441 567,0 M 693,441 567,0"
         style="stroke-width:0.25in"
         transform="scale(0.02,-0.02)"
         id="path2260" />
      <path
         d="M 346,441 284,410 220,346 189,252 V 189 L 220,94.5 284,31.5 346,0 h 95 l 63,31.5 63,63 31,94.5 v 63 l -31,94 -63,64 -63,31 h -95"
         style="stroke-width:0.25in"
         transform="matrix(0.02,0,0,-0.02,13.86,0)"
         id="path2262" />
      <path
         d="M 220,441 V 0 m 0,252 32,94 63,64 63,31 h 94"
         style="stroke-width:0.25in"
         transform="matrix(0.02,0,0,-0.02,25.82,0)"
         id="path2264" />
      <path
         d="M 220,662 V 0 M 536,441 220,126 M 346,252 567,0"
         style="stroke-width:0.25in"
         transform="matrix(0.02,0,0,-0.02,34.02,0)"
         id="path2266" />
      <path
         d="m 189,662 31,-32 32,32 -32,31 -31,-31 M 220,441 V 0"
         style="stroke-width:0.25in"
         transform="matrix(0.02,0,0,-0.02,44.74,0)"
         id="path2268" />
      <path
         d="M 220,441 V 0 m 0,315 95,95 63,31 h 94 l 64,-31 31,-95 V 0"
         style="stroke-width:0.25in"
         transform="matrix(0.02,0,0,-0.02,49.78,0)"
         id="path2270" />
      <path
         d="M 567,441 V -63 l -31,-95 -32,-31 -63,-31 h -95 l -62,31 m 283,535 -63,64 -63,31 H 346 L 284,410 220,346 189,252 V 189 L 220,94.5 284,31.5 346,0 h 95 l 63,31.5 63,63"
         style="stroke-width:0.25in"
         transform="matrix(0.02,0,0,-0.02,61.74,0)"
         id="path2272" />
      <path
         d="M 346,441 284,410 220,346 189,252 V 189 L 220,94.5 284,31.5 346,0 h 95 l 63,31.5 63,63 31,94.5 v 63 l -31,94 -63,64 -63,31 h -95"
         style="stroke-width:0.25in"
         transform="matrix(0.02,0,0,-0.02,73.7,0)"
         id="path2274" />
      <path
         d="M 220,441 V 0 m 0,315 95,95 63,31 h 94 l 64,-31 31,-95 V 0"
         style="stroke-width:0.25in"
         transform="matrix(0.02,0,0,-0.02,85.66,0)"
         id="path2276" />
      <path
         d="M 252,662 V 126 L 284,31.5 346,0 h 64 M 158,441 h 220"
         style="stroke-width:0.25in"
         transform="matrix(0.02,0,0,-0.02,105.18,0)"
         id="path2278" />
      <path
         d="M 220,662 V 0 m 0,315 95,95 63,31 h 94 l 64,-31 31,-95 V 0"
         style="stroke-width:0.25in"
         transform="matrix(0.02,0,0,-0.02,112.74,0)"
         id="path2280" />
      <path
         d="m 189,252 h 378 v 63 l -31,63 -32,32 -63,31 H 346 L 284,410 220,346 189,252 V 189 L 220,94.5 284,31.5 346,0 h 95 l 63,31.5 63,63"
         style="stroke-width:0.25in"
         transform="matrix(0.02,0,0,-0.02,124.7,0)"
         id="path2282" />
      <path
         d="m 536,346 -32,64 -94,31 h -95 l -95,-31 -31,-64 31,-62 64,-32 157,-32 63,-31 32,-63 V 94.5 L 504,31.5 410,0 h -95 l -95,31.5 -31,63"
         style="stroke-width:0.25in"
         transform="matrix(0.02,0,0,-0.02,143.6,0)"
         id="path2284" />
      <path
         d="m 189,662 31,-32 32,32 -32,31 -31,-31 M 220,441 V 0"
         style="stroke-width:0.25in"
         transform="matrix(0.02,0,0,-0.02,154.32,0)"
         id="path2286" />
      <path
         d="M 252,662 V 126 L 284,31.5 346,0 h 64 M 158,441 h 220"
         style="stroke-width:0.25in"
         transform="matrix(0.02,0,0,-0.02,159.36,0)"
         id="path2288" />
      <path
         d="m 189,252 h 378 v 63 l -31,63 -32,32 -63,31 H 346 L 284,410 220,346 189,252 V 189 L 220,94.5 284,31.5 346,0 h 95 l 63,31.5 63,63"
         style="stroke-width:0.25in"
         transform="matrix(0.02,0,0,-0.02,166.92,0)"
         id="path2290" />
      <path
         d="M 220,662 V 0 m 0,346 64,64 62,31 h 95 l 63,-31 63,-64 31,-94 V 189 L 567,94.5 504,31.5 441,0 h -95 l -62,31.5 -64,63"
         style="stroke-width:0.25in"
         transform="matrix(0.02,0,0,-0.02,185.82,0)"
         id="path2292" />
      <path
         d="M 220,441 V 126 L 252,31.5 315,0 h 95 l 62,31.5 95,94.5 m 0,315 V 0"
         style="stroke-width:0.25in"
         transform="matrix(0.02,0,0,-0.02,197.78,0)"
         id="path2294" />
      <path
         d="M 252,662 V 126 L 284,31.5 346,0 h 64 M 158,441 h 220"
         style="stroke-width:0.25in"
         transform="matrix(0.02,0,0,-0.02,209.74,0)"
         id="path2296" />
    </g>
    <g
       transform="translate(12.5217,332.293)"
       id="g2344">
      <path
         d="M 536,441 189,0 m 0,441 H 536 M 189,0 h 347"
         style="stroke-width:0.25in"
         transform="scale(0.02,-0.02)"
         id="path2300" />
      <path
         d="M 158,441 346,0 M 536,441 346,0 l -62,-126 -64,-63 -62,-31 h -32"
         style="stroke-width:0.25in"
         transform="matrix(0.02,0,0,-0.02,10.72,0)"
         id="path2302" />
      <path
         d="M 220,441 V 0 m 0,315 95,95 63,31 h 94 l 64,-31 31,-95 V 0"
         style="stroke-width:0.25in"
         transform="matrix(0.02,0,0,-0.02,20.8,0)"
         id="path2304" />
      <path
         d="M 567,441 V -63 l -31,-95 -32,-31 -63,-31 h -95 l -62,31 m 283,535 -63,64 -63,31 H 346 L 284,410 220,346 189,252 V 189 L 220,94.5 284,31.5 346,0 h 95 l 63,31.5 63,63"
         style="stroke-width:0.25in"
         transform="matrix(0.02,0,0,-0.02,32.76,0)"
         id="path2306" />
      <path
         d="M 567,441 V 0 m 0,346 -63,64 -63,31 H 346 L 284,410 220,346 189,252 V 189 L 220,94.5 284,31.5 346,0 h 95 l 63,31.5 63,63"
         style="stroke-width:0.25in"
         transform="matrix(0.02,0,0,-0.02,44.72,0)"
         id="path2308" />
      <path
         d="M 189,441 315,0 M 441,441 315,0 M 441,441 567,0 M 693,441 567,0"
         style="stroke-width:0.25in"
         transform="matrix(0.02,0,0,-0.02,64.24,0)"
         id="path2310" />
      <path
         d="M 567,441 V 0 m 0,346 -63,64 -63,31 H 346 L 284,410 220,346 189,252 V 189 L 220,94.5 284,31.5 346,0 h 95 l 63,31.5 63,63"
         style="stroke-width:0.25in"
         transform="matrix(0.02,0,0,-0.02,78.1,0)"
         id="path2312" />
      <path
         d="m 536,346 -32,64 -94,31 h -95 l -95,-31 -31,-64 31,-62 64,-32 157,-32 63,-31 32,-63 V 94.5 L 504,31.5 410,0 h -95 l -95,31.5 -31,63"
         style="stroke-width:0.25in"
         transform="matrix(0.02,0,0,-0.02,90.06,0)"
         id="path2314" />
      <path
         d="M 220,662 V 0"
         style="stroke-width:0.25in"
         transform="matrix(0.02,0,0,-0.02,108.34,0)"
         id="path2316" />
      <path
         d="m 189,662 31,-32 32,32 -32,31 -31,-31 M 220,441 V 0"
         style="stroke-width:0.25in"
         transform="matrix(0.02,0,0,-0.02,113.38,0)"
         id="path2318" />
      <path
         d="M 220,662 V 0 M 536,441 220,126 M 346,252 567,0"
         style="stroke-width:0.25in"
         transform="matrix(0.02,0,0,-0.02,118.42,0)"
         id="path2320" />
      <path
         d="m 189,252 h 378 v 63 l -31,63 -32,32 -63,31 H 346 L 284,410 220,346 189,252 V 189 L 220,94.5 284,31.5 346,0 h 95 l 63,31.5 63,63"
         style="stroke-width:0.25in"
         transform="matrix(0.02,0,0,-0.02,129.14,0)"
         id="path2322" />
      <path
         d="M 220,441 V 0 m 0,315 95,95 63,31 h 94 l 64,-31 31,-95 V 0"
         style="stroke-width:0.25in"
         transform="matrix(0.02,0,0,-0.02,148.04,0)"
         id="path2324" />
      <path
         d="M 567,441 V 0 m 0,346 -63,64 -63,31 H 346 L 284,410 220,346 189,252 V 189 L 220,94.5 284,31.5 346,0 h 95 l 63,31.5 63,63"
         style="stroke-width:0.25in"
         transform="matrix(0.02,0,0,-0.02,160,0)"
         id="path2326" />
      <path
         d="M 220,662 V 0 m 0,315 95,95 63,31 h 94 l 64,-31 31,-95 V 0"
         style="stroke-width:0.25in"
         transform="matrix(0.02,0,0,-0.02,171.96,0)"
         id="path2328" />
      <path
         d="M 410,662 H 346 L 284,630 252,536 V 0 m -94,441 h 220"
         style="stroke-width:0.25in"
         transform="matrix(0.02,0,0,-0.02,191.48,0)"
         id="path2330" />
      <path
         d="M 220,441 V 126 L 252,31.5 315,0 h 95 l 62,31.5 95,94.5 m 0,315 V 0"
         style="stroke-width:0.25in"
         transform="matrix(0.02,0,0,-0.02,199.04,0)"
         id="path2332" />
      <path
         d="m 567,346 -63,64 -63,31 H 346 L 284,410 220,346 189,252 V 189 L 220,94.5 284,31.5 346,0 h 95 l 63,31.5 63,63"
         style="stroke-width:0.25in"
         transform="matrix(0.02,0,0,-0.02,211,0)"
         id="path2334" />
      <path
         d="M 220,662 V 0 M 536,441 220,126 M 346,252 567,0"
         style="stroke-width:0.25in"
         transform="matrix(0.02,0,0,-0.02,222.34,0)"
         id="path2336" />
      <path
         d="M 158,441 346,0 M 536,441 346,0 l -62,-126 -64,-63 -62,-31 h -32"
         style="stroke-width:0.25in"
         transform="matrix(0.02,0,0,-0.02,240.62,0)"
         id="path2338" />
      <path
         d="M 346,441 284,410 220,346 189,252 V 189 L 220,94.5 284,31.5 346,0 h 95 l 63,31.5 63,63 31,94.5 v 63 l -31,94 -63,64 -63,31 h -95"
         style="stroke-width:0.25in"
         transform="matrix(0.02,0,0,-0.02,250.7,0)"
         id="path2340" />
      <path
         d="M 220,441 V 126 L 252,31.5 315,0 h 95 l 62,31.5 95,94.5 m 0,315 V 0"
         style="stroke-width:0.25in"
         transform="matrix(0.02,0,0,-0.02,262.66,0)"
         id="path2342" />
    </g>
  </g>
</svg>
