<?xml version="1.0" standalone="no"?>
<svg class="Sketch" id="sketch" width="576" height="384" viewBox="0 0 576 384" xmlns="http://www.w3.org/2000/svg" fill="none" stroke="black"><g id="border"><path d="M 0 0 L 576 0 L 576 384 L 0 384 L 0 0"></path></g><g id="postcard_isocube_front"><g transform="translate(50 50)"><g transform="translate(0 0)"><path d="M 39.666666666666664 35.5 l 22.901560677855155 0
M 39.666666666666664 35.5 l -11.450780338927572 19.833333333333336
M 39.666666666666664 35.5 l -22.901560677855155 2.8046322979614205e-15
M 39.666666666666664 35.5 l -11.450780338927588 -19.83333333333333
M 39.666666666666664 35.5 l 11.450780338927562 -19.833333333333343
M 39.666666666666664 35.5 m 22.901560677855155 0 l -11.450780338927572 19.833333333333336
M 39.666666666666664 35.5 m 11.45078033892758 19.833333333333332 l -22.901560677855155 2.8046322979614205e-15
M 39.666666666666664 35.5 m -11.450780338927572 19.833333333333336 l -11.450780338927588 -19.83333333333333
M 39.666666666666664 35.5 m -22.901560677855155 2.8046322979614205e-15 l 11.450780338927562 -19.833333333333343
M 39.666666666666664 35.5 m 11.450780338927562 -19.833333333333343 l 11.450780338927608 19.833333333333318
"></path></g><g transform="translate(0 71)"><path d="M 39.666666666666664 35.5 l 11.45078033892758 19.833333333333332
M 39.666666666666664 35.5 m 22.901560677855155 0 l -11.450780338927572 19.833333333333336
M 39.666666666666664 35.5 m -11.450780338927572 19.833333333333336 l -11.450780338927588 -19.83333333333333
M 39.666666666666664 35.5 m 11.450780338927562 -19.833333333333343 l 11.450780338927608 19.833333333333318
"></path></g><g transform="translate(0 142)"><path d="M 39.666666666666664 35.5 l 22.901560677855155 0
M 39.666666666666664 35.5 l 11.45078033892758 19.833333333333332
M 39.666666666666664 35.5 l -11.450780338927572 19.833333333333336
M 39.666666666666664 35.5 l -22.901560677855155 2.8046322979614205e-15
M 39.666666666666664 35.5 l -11.450780338927588 -19.83333333333333
M 39.666666666666664 35.5 l 11.450780338927562 -19.833333333333343
M 39.666666666666664 35.5 m 22.901560677855155 0 l -11.450780338927572 19.833333333333336
M 39.666666666666664 35.5 m 11.45078033892758 19.833333333333332 l -22.901560677855155 2.8046322979614205e-15
M 39.666666666666664 35.5 m -11.450780338927572 19.833333333333336 l -11.450780338927588 -19.83333333333333
M 39.666666666666664 35.5 m -22.901560677855155 2.8046322979614205e-15 l 11.450780338927562 -19.833333333333343
M 39.666666666666664 35.5 m 11.450780338927562 -19.833333333333343 l 11.450780338927608 19.833333333333318
"></path></g><g transform="translate(0 213)"><path d="M 39.666666666666664 35.5 l 22.901560677855155 0
M 39.666666666666664 35.5 l 11.45078033892758 19.833333333333332
M 39.666666666666664 35.5 l -22.901560677855155 2.8046322979614205e-15
M 39.666666666666664 35.5 l -11.450780338927588 -19.83333333333333
M 39.666666666666664 35.5 l 11.450780338927562 -19.833333333333343
M 39.666666666666664 35.5 m 22.901560677855155 0 l -11.450780338927572 19.833333333333336
M 39.666666666666664 35.5 m 11.45078033892758 19.833333333333332 l -22.901560677855155 2.8046322979614205e-15
"></path></g><g transform="translate(79.33333333333333 0)"><path d="M 39.666666666666664 35.5 l 11.45078033892758 19.833333333333332
M 39.666666666666664 35.5 l -11.450780338927572 19.833333333333336
M 39.666666666666664 35.5 l -22.901560677855155 2.8046322979614205e-15
M 39.666666666666664 35.5 l -11.450780338927588 -19.83333333333333
M 39.666666666666664 35.5 l 11.450780338927562 -19.833333333333343
M 39.666666666666664 35.5 m 11.45078033892758 19.833333333333332 l -22.901560677855155 2.8046322979614205e-15
M 39.666666666666664 35.5 m -11.450780338927572 19.833333333333336 l -11.450780338927588 -19.83333333333333
M 39.666666666666664 35.5 m -22.901560677855155 2.8046322979614205e-15 l 11.450780338927562 -19.833333333333343
M 39.666666666666664 35.5 m -11.450780338927588 -19.83333333333333 l 22.901560677855155 -5.609264595922841e-15
"></path></g><g transform="translate(79.33333333333333 71)"><path d="M 39.666666666666664 35.5 l 11.45078033892758 19.833333333333332
M 39.666666666666664 35.5 l -11.450780338927588 -19.83333333333333
M 39.666666666666664 35.5 m 22.901560677855155 0 l -11.450780338927572 19.833333333333336
M 39.666666666666664 35.5 m 11.45078033892758 19.833333333333332 l -22.901560677855155 2.8046322979614205e-15
M 39.666666666666664 35.5 m -11.450780338927572 19.833333333333336 l -11.450780338927588 -19.83333333333333
M 39.666666666666664 35.5 m -11.450780338927588 -19.83333333333333 l 22.901560677855155 -5.609264595922841e-15
"></path></g><g transform="translate(79.33333333333333 142)"><path d="M 39.666666666666664 35.5 l 22.901560677855155 0
M 39.666666666666664 35.5 l 11.45078033892758 19.833333333333332
M 39.666666666666664 35.5 l -22.901560677855155 2.8046322979614205e-15
M 39.666666666666664 35.5 l -11.450780338927588 -19.83333333333333
M 39.666666666666664 35.5 m -11.450780338927572 19.833333333333336 l -11.450780338927588 -19.83333333333333
M 39.666666666666664 35.5 m -22.901560677855155 2.8046322979614205e-15 l 11.450780338927562 -19.833333333333343
M 39.666666666666664 35.5 m -11.450780338927588 -19.83333333333333 l 22.901560677855155 -5.609264595922841e-15
"></path></g><g transform="translate(79.33333333333333 213)"><path d="M 39.666666666666664 35.5 l 22.901560677855155 0
M 39.666666666666664 35.5 l -22.901560677855155 2.8046322979614205e-15
M 39.666666666666664 35.5 l -11.450780338927588 -19.83333333333333
M 39.666666666666664 35.5 l 11.450780338927562 -19.833333333333343
M 39.666666666666664 35.5 m -22.901560677855155 2.8046322979614205e-15 l 11.450780338927562 -19.833333333333343
M 39.666666666666664 35.5 m -11.450780338927588 -19.83333333333333 l 22.901560677855155 -5.609264595922841e-15
M 39.666666666666664 35.5 m 11.450780338927562 -19.833333333333343 l 11.450780338927608 19.833333333333318
"></path></g><g transform="translate(158.66666666666666 0)"><path d="M 39.666666666666664 35.5 l 22.901560677855155 0
M 39.666666666666664 35.5 l -11.450780338927572 19.833333333333336
M 39.666666666666664 35.5 l -22.901560677855155 2.8046322979614205e-15
M 39.666666666666664 35.5 m 22.901560677855155 0 l -11.450780338927572 19.833333333333336
M 39.666666666666664 35.5 m -11.450780338927572 19.833333333333336 l -11.450780338927588 -19.83333333333333
M 39.666666666666664 35.5 m 11.450780338927562 -19.833333333333343 l 11.450780338927608 19.833333333333318
"></path></g><g transform="translate(158.66666666666666 71)"><path d="M 39.666666666666664 35.5 l 22.901560677855155 0
M 39.666666666666664 35.5 l -11.450780338927572 19.833333333333336
M 39.666666666666664 35.5 l -11.450780338927588 -19.83333333333333
M 39.666666666666664 35.5 m 22.901560677855155 0 l -11.450780338927572 19.833333333333336
M 39.666666666666664 35.5 m -11.450780338927572 19.833333333333336 l -11.450780338927588 -19.83333333333333
M 39.666666666666664 35.5 m -11.450780338927588 -19.83333333333333 l 22.901560677855155 -5.609264595922841e-15
"></path></g><g transform="translate(158.66666666666666 142)"><path d="M 39.666666666666664 35.5 l 22.901560677855155 0
M 39.666666666666664 35.5 l -11.450780338927572 19.833333333333336
M 39.666666666666664 35.5 l -11.450780338927588 -19.83333333333333
M 39.666666666666664 35.5 l 11.450780338927562 -19.833333333333343
M 39.666666666666664 35.5 m 11.45078033892758 19.833333333333332 l -22.901560677855155 2.8046322979614205e-15
M 39.666666666666664 35.5 m -11.450780338927572 19.833333333333336 l -11.450780338927588 -19.83333333333333
M 39.666666666666664 35.5 m -11.450780338927588 -19.83333333333333 l 22.901560677855155 -5.609264595922841e-15
M 39.666666666666664 35.5 m 11.450780338927562 -19.833333333333343 l 11.450780338927608 19.833333333333318
"></path></g><g transform="translate(158.66666666666666 213)"><path d="M 39.666666666666664 35.5 l 22.901560677855155 0
M 39.666666666666664 35.5 l 11.45078033892758 19.833333333333332
M 39.666666666666664 35.5 l -11.450780338927572 19.833333333333336
M 39.666666666666664 35.5 m -11.450780338927572 19.833333333333336 l -11.450780338927588 -19.83333333333333
M 39.666666666666664 35.5 m -11.450780338927588 -19.83333333333333 l 22.901560677855155 -5.609264595922841e-15
"></path></g><g transform="translate(238 0)"><path d="M 39.666666666666664 35.5 l 22.901560677855155 0
M 39.666666666666664 35.5 l -11.450780338927572 19.833333333333336
M 39.666666666666664 35.5 l -11.450780338927588 -19.83333333333333
M 39.666666666666664 35.5 l 11.450780338927562 -19.833333333333343
M 39.666666666666664 35.5 m 11.45078033892758 19.833333333333332 l -22.901560677855155 2.8046322979614205e-15
M 39.666666666666664 35.5 m -11.450780338927572 19.833333333333336 l -11.450780338927588 -19.83333333333333
M 39.666666666666664 35.5 m -22.901560677855155 2.8046322979614205e-15 l 11.450780338927562 -19.833333333333343
"></path></g><g transform="translate(238 71)"><path d="M 39.666666666666664 35.5 l -22.901560677855155 2.8046322979614205e-15
M 39.666666666666664 35.5 l -11.450780338927588 -19.83333333333333
M 39.666666666666664 35.5 m -11.450780338927572 19.833333333333336 l -11.450780338927588 -19.83333333333333
M 39.666666666666664 35.5 m -22.901560677855155 2.8046322979614205e-15 l 11.450780338927562 -19.833333333333343
"></path></g><g transform="translate(238 142)"><path d="M 39.666666666666664 35.5 l -11.450780338927588 -19.83333333333333
M 39.666666666666664 35.5 l 11.450780338927562 -19.833333333333343
M 39.666666666666664 35.5 m 11.450780338927562 -19.833333333333343 l 11.450780338927608 19.833333333333318
"></path></g><g transform="translate(238 213)"><path d="M 39.666666666666664 35.5 l 22.901560677855155 0
M 39.666666666666664 35.5 l 11.45078033892758 19.833333333333332
M 39.666666666666664 35.5 l -11.450780338927572 19.833333333333336
M 39.666666666666664 35.5 l -22.901560677855155 2.8046322979614205e-15
M 39.666666666666664 35.5 l 11.450780338927562 -19.833333333333343
M 39.666666666666664 35.5 m 22.901560677855155 0 l -11.450780338927572 19.833333333333336
M 39.666666666666664 35.5 m -11.450780338927572 19.833333333333336 l -11.450780338927588 -19.83333333333333
M 39.666666666666664 35.5 m -22.901560677855155 2.8046322979614205e-15 l 11.450780338927562 -19.833333333333343
M 39.666666666666664 35.5 m 11.450780338927562 -19.833333333333343 l 11.450780338927608 19.833333333333318
"></path></g><g transform="translate(317.3333333333333 0)"><path d="M 39.666666666666664 35.5 l 22.901560677855155 0
M 39.666666666666664 35.5 l -11.450780338927588 -19.83333333333333
M 39.666666666666664 35.5 m 22.901560677855155 0 l -11.450780338927572 19.833333333333336
M 39.666666666666664 35.5 m -11.450780338927572 19.833333333333336 l -11.450780338927588 -19.83333333333333
"></path></g><g transform="translate(317.3333333333333 71)"><path d="M 39.666666666666664 35.5 l 22.901560677855155 0
M 39.666666666666664 35.5 l -11.450780338927572 19.833333333333336
M 39.666666666666664 35.5 l -11.450780338927588 -19.83333333333333
M 39.666666666666664 35.5 l 11.450780338927562 -19.833333333333343
M 39.666666666666664 35.5 m 11.45078033892758 19.833333333333332 l -22.901560677855155 2.8046322979614205e-15
M 39.666666666666664 35.5 m -11.450780338927572 19.833333333333336 l -11.450780338927588 -19.83333333333333
M 39.666666666666664 35.5 m -11.450780338927588 -19.83333333333333 l 22.901560677855155 -5.609264595922841e-15
"></path></g><g transform="translate(317.3333333333333 142)"><path d="M 39.666666666666664 35.5 l 22.901560677855155 0
M 39.666666666666664 35.5 m 22.901560677855155 0 l -11.450780338927572 19.833333333333336
M 39.666666666666664 35.5 m -11.450780338927572 19.833333333333336 l -11.450780338927588 -19.83333333333333
M 39.666666666666664 35.5 m -22.901560677855155 2.8046322979614205e-15 l 11.450780338927562 -19.833333333333343
"></path></g><g transform="translate(317.3333333333333 213)"><path d="M 39.666666666666664 35.5 l -11.450780338927572 19.833333333333336
M 39.666666666666664 35.5 l -22.901560677855155 2.8046322979614205e-15
M 39.666666666666664 35.5 l -11.450780338927588 -19.83333333333333
M 39.666666666666664 35.5 m 22.901560677855155 0 l -11.450780338927572 19.833333333333336
M 39.666666666666664 35.5 m 11.450780338927562 -19.833333333333343 l 11.450780338927608 19.833333333333318
"></path></g><g transform="translate(396.66666666666663 0)"><path d="M 39.666666666666664 35.5 l 11.45078033892758 19.833333333333332
M 39.666666666666664 35.5 m 22.901560677855155 0 l -11.450780338927572 19.833333333333336
M 39.666666666666664 35.5 m -22.901560677855155 2.8046322979614205e-15 l 11.450780338927562 -19.833333333333343
"></path></g><g transform="translate(396.66666666666663 71)"><path d="M 39.666666666666664 35.5 l 22.901560677855155 0
M 39.666666666666664 35.5 l -22.901560677855155 2.8046322979614205e-15
M 39.666666666666664 35.5 l -11.450780338927588 -19.83333333333333
M 39.666666666666664 35.5 m 11.45078033892758 19.833333333333332 l -22.901560677855155 2.8046322979614205e-15
M 39.666666666666664 35.5 m -22.901560677855155 2.8046322979614205e-15 l 11.450780338927562 -19.833333333333343
M 39.666666666666664 35.5 m 11.450780338927562 -19.833333333333343 l 11.450780338927608 19.833333333333318
"></path></g><g transform="translate(396.66666666666663 142)"><path d="M 39.666666666666664 35.5 l 22.901560677855155 0
M 39.666666666666664 35.5 l 11.45078033892758 19.833333333333332
M 39.666666666666664 35.5 l -22.901560677855155 2.8046322979614205e-15
M 39.666666666666664 35.5 l -11.450780338927588 -19.83333333333333
M 39.666666666666664 35.5 m 22.901560677855155 0 l -11.450780338927572 19.833333333333336
M 39.666666666666664 35.5 m -11.450780338927588 -19.83333333333333 l 22.901560677855155 -5.609264595922841e-15
M 39.666666666666664 35.5 m 11.450780338927562 -19.833333333333343 l 11.450780338927608 19.833333333333318
"></path></g><g transform="translate(396.66666666666663 213)"><path d="M 39.666666666666664 35.5 l 22.901560677855155 0
M 39.666666666666664 35.5 l -11.450780338927588 -19.83333333333333
M 39.666666666666664 35.5 m -11.450780338927588 -19.83333333333333 l 22.901560677855155 -5.609264595922841e-15
"></path></g></g></g></svg>