<?xml version="1.0" encoding="UTF-8" standalone="no"?>
<svg
   xmlns:dc="http://purl.org/dc/elements/1.1/"
   xmlns:cc="http://creativecommons.org/ns#"
   xmlns:rdf="http://www.w3.org/1999/02/22-rdf-syntax-ns#"
   xmlns:svg="http://www.w3.org/2000/svg"
   xmlns="http://www.w3.org/2000/svg"
   xmlns:sodipodi="http://sodipodi.sourceforge.net/DTD/sodipodi-0.dtd"
   xmlns:inkscape="http://www.inkscape.org/namespaces/inkscape"
   sodipodi:docname="postcard_back_hadas_template.svg"
   version="1.1"
   stroke="black"
   fill="none"
   viewBox="0 0 576 384"
   height="384"
   width="576"
   id="sketch"
   class="Sketch"
   inkscape:version="1.0 (4035a4f, 2020-05-01)">
  <metadata
     id="metadata29">
    <rdf:RDF>
      <cc:Work
         rdf:about="">
        <dc:format>image/svg+xml</dc:format>
        <dc:type
           rdf:resource="http://purl.org/dc/dcmitype/StillImage" />
        <dc:title />
      </cc:Work>
    </rdf:RDF>
  </metadata>
  <defs
     id="defs27" />
  <sodipodi:namedview
     inkscape:current-layer="sketch"
     inkscape:window-maximized="0"
     inkscape:window-y="0"
     inkscape:window-x="0"
     inkscape:cy="162.34324"
     inkscape:cx="321.17534"
     inkscape:zoom="1.5173611"
     showgrid="false"
     id="namedview25"
     inkscape:window-height="900"
     inkscape:window-width="1440"
     inkscape:pageshadow="2"
     inkscape:pageopacity="0"
     guidetolerance="10"
     gridtolerance="10"
     objecttolerance="10"
     borderopacity="1"
     bordercolor="#666666"
     pagecolor="#ffffff"
     inkscape:document-rotation="0" />
  <g
     style="fill:none;stroke:#000000;stroke-opacity:1"
     id="border">
    <path
       style="fill:none;stroke:#000000;stroke-opacity:1"
       id="path10"
       d="M 0 0 L 576 0 L 576 384 L 0 384 L 0 0" />
  </g>
  <g
     style="fill:none;stroke:#000000;stroke-opacity:1"
     id="postcard_back_template">
    <g
       style="fill:none;stroke:#000000;stroke-opacity:1"
       id="postcard-divider">
      <line
         style="fill:none;stroke:#000000;stroke-opacity:1"
         id="line13"
         stroke="black"
         y2="374"
         x2="288"
         y1="10"
         x1="288" />
    </g>
    <g
       style="fill:none;stroke:#000000;stroke-opacity:1"
       id="stamp">
      <rect
         style="fill:none;stroke:#000000;stroke-opacity:1"
         id="rect16"
         width="96"
         height="96"
         y="10"
         x="470" />
      <rect
         style="fill:none;stroke:#000000;stroke-opacity:1"
         id="rect18"
         width="96"
         height="96"
         y="20"
         x="460" />
      <rect
         style="fill:none;stroke:#000000;stroke-opacity:1"
         id="rect20"
         width="96"
         height="96"
         y="30"
         x="450" />
    </g>
  </g>
  <g
     transform="matrix(1.1098397,0,0,1.1098397,-35.584082,16.390987)"
     inkscape:label="Hershey Text"
     style="fill:none;stroke:#000000;stroke-linecap:round;stroke-linejoin:round"
     id="hadas">
    <g
       transform="translate(296.745,160.805)"
       id="name">
      <path
         d="M 220,662 V 0 m 0,662 h 32 V 0 H 220 M 662,662 H 630 V 0 h 32 m 0,662 V 0 M 252,346 H 630 M 252,315 h 378"
         style="stroke-width:0.1875in"
         transform="scale(0.0266667,-0.0266667)"
         id="path7101" />
      <path
         d="M 567,441 V 0 h 31 m -31,441 h 31 V 0 m -31,346 -63,64 -63,31 H 346 L 284,410 220,346 189,252 V 189 L 220,94.5 284,31.5 346,0 h 95 l 63,31.5 63,63 M 567,346 441,410 H 346 L 284,378 252,346 220,252 V 189 L 252,94.5 284,63 346,31.5 h 95 l 126,63"
         style="stroke-width:0.1875in"
         transform="matrix(0.0266667,0,0,-0.0266667,18.48,0)"
         id="path7103" />
      <path
         d="M 567,662 V 0 h 31 m -31,662 h 31 V 0 m -31,346 -63,64 -63,31 H 346 L 284,410 220,346 189,252 V 189 L 220,94.5 284,31.5 346,0 h 95 l 63,31.5 63,63 M 567,346 441,410 H 346 L 284,378 252,346 220,252 V 189 L 252,94.5 284,63 346,31.5 h 95 l 126,63"
         style="stroke-width:0.1875in"
         transform="matrix(0.0266667,0,0,-0.0266667,35.28,0)"
         id="path7105" />
      <path
         d="M 567,441 V 0 h 31 m -31,441 h 31 V 0 m -31,346 -63,64 -63,31 H 346 L 284,410 220,346 189,252 V 189 L 220,94.5 284,31.5 346,0 h 95 l 63,31.5 63,63 M 567,346 441,410 H 346 L 284,378 252,346 220,252 V 189 L 252,94.5 284,63 346,31.5 h 95 l 126,63"
         style="stroke-width:0.1875in"
         transform="matrix(0.0266667,0,0,-0.0266667,52.0801,0)"
         id="path7107" />
      <path
         d="m 536,346 -32,64 -94,31 h -95 l -95,-31 -31,-64 31,-62 64,-32 157,-63 63,-31 m -32,31 32,-63 V 94.5 l -32,-63 M 504,63 410,31.5 H 315 L 220,63 m 32,-31.5 -32,63 H 189 M 536,346 h -32 l -32,64 m 32,-32 -94,32 h -95 l -95,-32 m 32,32 -32,-64 32,-62 m -32,31 64,-31 157,-64 63,-31 32,-63 V 94.5 L 504,31.5 410,0 h -95 l -95,31.5 -31,63"
         style="stroke-width:0.1875in"
         transform="matrix(0.0266667,0,0,-0.0266667,68.8801,0)"
         id="path7109" />
      <path
         d="M 598,662 189,0 M 630,662 220,0 m -31,662 h 441 m -441,0 V 630 H 598 M 220,31.5 H 630 V 0 M 189,0 h 441"
         style="stroke-width:0.1875in"
         transform="matrix(0.0266667,0,0,-0.0266667,93.2534,0)"
         id="path7111" />
      <path
         d="m 220,220 h 347 v 95 l -31,63 -32,32 -63,31 H 346 L 284,410 220,346 189,252 V 189 L 220,94.5 284,31.5 346,0 h 95 l 63,31.5 63,63 M 220,252 h 316 v 63 l -32,63 -63,32 H 346 L 284,378 252,346 220,252 V 189 L 252,94.5 284,63 346,31.5 h 95 l 63,31.5 32,63 31,-31.5"
         style="stroke-width:0.1875in"
         transform="matrix(0.0266667,0,0,-0.0266667,110.053,0)"
         id="path7113" />
      <path
         d="m 220,662 -31,-32 v -32 l 31,-31 h 32 l 32,31 v 32 l -32,32 h -32 m 0,-32 v -32 h 32 v 32 h -32 m 0,-189 V 0 h 32 m -32,441 h 32 V 0"
         style="stroke-width:0.1875in"
         transform="matrix(0.0266667,0,0,-0.0266667,125.173,0)"
         id="path7115" />
      <path
         d="M 220,662 V 0 h 32 m -32,662 h 32 V 0"
         style="stroke-width:0.1875in"
         transform="matrix(0.0266667,0,0,-0.0266667,132.747,0)"
         id="path7117" />
      <path
         d="M 220,662 V 0 h 32 m -32,662 h 32 V 0 m 0,346 63,64 63,31 h 94 l 64,-31 62,-64 32,-94 V 189 L 598,94.5 536,31.5 472,0 h -94 l -63,31.5 -63,63 m 0,251.5 126,64 h 94 l 64,-32 31,-32 31,-94 V 189 L 567,94.5 536,63 472,31.5 h -94 l -126,63"
         style="stroke-width:0.1875in"
         transform="matrix(0.0266667,0,0,-0.0266667,140.32,0)"
         id="path7119" />
      <path
         d="m 220,220 h 347 v 95 l -31,63 -32,32 -63,31 H 346 L 284,410 220,346 189,252 V 189 L 220,94.5 284,31.5 346,0 h 95 l 63,31.5 63,63 M 220,252 h 316 v 63 l -32,63 -63,32 H 346 L 284,378 252,346 220,252 V 189 L 252,94.5 284,63 346,31.5 h 95 l 63,31.5 32,63 31,-31.5"
         style="stroke-width:0.1875in"
         transform="matrix(0.0266667,0,0,-0.0266667,157.12,0)"
         id="path7121" />
      <path
         d="M 220,441 V 0 h 32 m -32,441 h 32 V 0 m 0,252 32,94 62,64 64,31 h 94 m -252,-189 32,63 62,63 64,32 h 94 v 31"
         style="stroke-width:0.1875in"
         transform="matrix(0.0266667,0,0,-0.0266667,172.24,0)"
         id="path7123" />
      <path
         d="M 598,441 H 567 V -31.5 l -31,-94.5 -32,-32 -63,-31 h -63 l -63,31 -31,32 H 220 M 598,441 V -31.5 l -31,-94.5 -63,-63 -63,-31 h -95 l -62,31 -64,63 m 347,472 -63,64 -63,31 H 346 L 284,410 220,346 189,252 V 189 L 220,94.5 284,31.5 346,0 h 95 l 63,31.5 63,63 M 567,346 441,410 H 346 L 284,378 252,346 220,252 V 189 L 252,94.5 284,63 346,31.5 h 95 l 126,63"
         style="stroke-width:0.1875in"
         transform="matrix(0.0266667,0,0,-0.0266667,184,0)"
         id="path7125" />
      <path
         d="m 220,220 h 347 v 95 l -31,63 -32,32 -63,31 H 346 L 284,410 220,346 189,252 V 189 L 220,94.5 284,31.5 346,0 h 95 l 63,31.5 63,63 M 220,252 h 316 v 63 l -32,63 -63,32 H 346 L 284,378 252,346 220,252 V 189 L 252,94.5 284,63 346,31.5 h 95 l 63,31.5 32,63 31,-31.5"
         style="stroke-width:0.1875in"
         transform="matrix(0.0266667,0,0,-0.0266667,200.8,0)"
         id="path7127" />
      <path
         d="M 220,441 V 0 h 32 m -32,441 h 32 V 0 m 0,252 32,94 62,64 64,31 h 94 m -252,-189 32,63 62,63 64,32 h 94 v 31"
         style="stroke-width:0.1875in"
         transform="matrix(0.0266667,0,0,-0.0266667,215.92,0)"
         id="path7129" />
    </g>
  </g>
  <g
     transform="matrix(1.1187243,0,0,1.1187243,-37.709307,29.622952)"
     inkscape:label="Hershey Text"
     style="fill:none;stroke:#000000;stroke-linecap:round;stroke-linejoin:round"
     id="address">
    <g
       transform="translate(297.826,212.87)"
       id="address 1">
      <path
         d="M 252,662 H 598 L 410,410 h 94 l 63,-32 31,-32 32,-94 V 189 L 598,94.5 536,31.5 441,0 H 346 L 252,31.5 220,63 189,126"
         style="stroke-width:0.2206in"
         transform="scale(0.0226667,-0.0226667)"
         id="path7182" />
      <path
         d="M 504,662 189,220 H 662 M 504,662 V 0"
         style="stroke-width:0.2206in"
         transform="matrix(0.0226667,0,0,-0.0226667,14.28,0)"
         id="path7184" />
      <path
         d="M 220,662 V 0 M 220,662 472,0 M 724,662 472,0 M 724,662 V 0"
         style="stroke-width:0.2206in"
         transform="matrix(0.0226667,0,0,-0.0226667,37.1281,0)"
         id="path7186" />
      <path
         d="M 346,441 284,410 220,346 189,252 V 189 L 220,94.5 284,31.5 346,0 h 95 l 63,31.5 63,63 31,94.5 v 63 l -31,94 -63,64 -63,31 h -95"
         style="stroke-width:0.2206in"
         transform="matrix(0.0226667,0,0,-0.0226667,54.2641,0)"
         id="path7188" />
      <path
         d="M 220,441 V 0 m 0,252 32,94 63,64 63,31 h 94"
         style="stroke-width:0.2206in"
         transform="matrix(0.0226667,0,0,-0.0226667,67.8188,0)"
         id="path7190" />
      <path
         d="M 567,441 V 0 m 0,346 -63,64 -63,31 H 346 L 284,410 220,346 189,252 V 189 L 220,94.5 284,31.5 346,0 h 95 l 63,31.5 63,63"
         style="stroke-width:0.2206in"
         transform="matrix(0.0226667,0,0,-0.0226667,77.1121,0)"
         id="path7192" />
      <path
         d="m 189,662 31,-32 32,32 -32,31 -31,-31 M 220,441 V 0"
         style="stroke-width:0.2206in"
         transform="matrix(0.0226667,0,0,-0.0226667,90.6668,0)"
         id="path7194" />
      <path
         d="M 220,441 V 0 m 0,315 95,95 63,31 h 94 l 64,-31 31,-95 V 0"
         style="stroke-width:0.2206in"
         transform="matrix(0.0226667,0,0,-0.0226667,96.3788,0)"
         id="path7196" />
      <path
         d="m 189,252 h 378 v 63 l -31,63 -32,32 -63,31 H 346 L 284,410 220,346 189,252 V 189 L 220,94.5 284,31.5 346,0 h 95 l 63,31.5 63,63"
         style="stroke-width:0.2206in"
         transform="matrix(0.0226667,0,0,-0.0226667,109.933,0)"
         id="path7198" />
      <path
         d="m 630,567 -63,63 -95,32 H 346 l -94,-32 -63,-63 v -63 l 31,-63 32,-31 63,-32 189,-63 63,-31 31,-32 32,-63 V 94.5 L 567,31.5 472,0 H 346 l -94,31.5 -63,63"
         style="stroke-width:0.2206in"
         transform="matrix(0.0226667,0,0,-0.0226667,131.354,0)"
         id="path7200" />
      <path
         d="M 252,662 V 126 L 284,31.5 346,0 h 64 M 158,441 h 220"
         style="stroke-width:0.2206in"
         transform="matrix(0.0226667,0,0,-0.0226667,145.634,0)"
         id="path7202" />
    </g>
    <g
       transform="translate(297.826,246.203)"
       id="address 2">
      <path
         d="M 220,662 V 0 m 0,662 h 284 l 94,-32 32,-32 32,-62 v -64 l -32,-62 -32,-32 -94,-32 m -284,0 h 284 l 94,-31 32,-31 32,-64 V 126 L 630,63 598,31.5 504,0 H 220"
         style="stroke-width:0.2206in"
         transform="scale(0.0226667,-0.0226667)"
         id="path7206" />
      <path
         d="M 346,441 284,410 220,346 189,252 V 189 L 220,94.5 284,31.5 346,0 h 95 l 63,31.5 63,63 31,94.5 v 63 l -31,94 -63,64 -63,31 h -95"
         style="stroke-width:0.2206in"
         transform="matrix(0.0226667,0,0,-0.0226667,15.0054,0)"
         id="path7208" />
      <path
         d="m 536,346 -32,64 -94,31 h -95 l -95,-31 -31,-64 31,-62 64,-32 157,-32 63,-31 32,-63 V 94.5 L 504,31.5 410,0 h -95 l -95,31.5 -31,63"
         style="stroke-width:0.2206in"
         transform="matrix(0.0226667,0,0,-0.0226667,28.56,0)"
         id="path7210" />
      <path
         d="M 252,662 V 126 L 284,31.5 346,0 h 64 M 158,441 h 220"
         style="stroke-width:0.2206in"
         transform="matrix(0.0226667,0,0,-0.0226667,40.7094,0)"
         id="path7212" />
      <path
         d="M 346,441 284,410 220,346 189,252 V 189 L 220,94.5 284,31.5 346,0 h 95 l 63,31.5 63,63 31,94.5 v 63 l -31,94 -63,64 -63,31 h -95"
         style="stroke-width:0.2206in"
         transform="matrix(0.0226667,0,0,-0.0226667,49.2774,0)"
         id="path7214" />
      <path
         d="M 220,441 V 0 m 0,315 95,95 63,31 h 94 l 64,-31 31,-95 V 0"
         style="stroke-width:0.2206in"
         transform="matrix(0.0226667,0,0,-0.0226667,62.8321,0)"
         id="path7216" />
      <path
         d="m 252,126 -32,-31.5 -31,31.5 31,32 32,-32 V 63 L 189,0"
         style="stroke-width:0.2206in"
         transform="matrix(0.0226667,0,0,-0.0226667,76.3868,0)"
         id="path7218" />
      <path
         d="M 220,662 V 0 M 220,662 472,0 M 724,662 472,0 M 724,662 V 0"
         style="stroke-width:0.2206in"
         transform="matrix(0.0226667,0,0,-0.0226667,90.6668,0)"
         id="path7220" />
      <path
         d="M 378,662 126,0 M 378,662 630,0 M 220,220 h 316"
         style="stroke-width:0.2206in"
         transform="matrix(0.0226667,0,0,-0.0226667,107.803,0)"
         id="path7222" />
      <path
         d="M 378,662 284,630 220,536 189,378 V 284 L 220,126 284,31.5 378,0 h 63 l 95,31.5 62,94.5 32,158 v 94 l -32,158 -62,94 -95,32 h -63"
         style="stroke-width:0.2206in"
         transform="matrix(0.0226667,0,0,-0.0226667,137.791,0)"
         id="path7224" />
      <path
         d="m 220,504 v 32 l 32,62 32,32 62,32 h 126 l 64,-32 31,-32 31,-62 V 472 L 567,410 504,315 189,0 h 441"
         style="stroke-width:0.2206in"
         transform="matrix(0.0226667,0,0,-0.0226667,152.071,0)"
         id="path7226" />
      <path
         d="m 284,536 62,31 95,95 V 0"
         style="stroke-width:0.2206in"
         transform="matrix(0.0226667,0,0,-0.0226667,166.351,0)"
         id="path7228" />
      <path
         d="M 252,662 H 598 L 410,410 h 94 l 63,-32 31,-32 32,-94 V 189 L 598,94.5 536,31.5 441,0 H 346 L 252,31.5 220,63 189,126"
         style="stroke-width:0.2206in"
         transform="matrix(0.0226667,0,0,-0.0226667,180.631,0)"
         id="path7230" />
      <path
         d="M 378,662 284,630 220,536 189,378 V 284 L 220,126 284,31.5 378,0 h 63 l 95,31.5 62,94.5 32,158 v 94 l -32,158 -62,94 -95,32 h -63"
         style="stroke-width:0.2206in"
         transform="matrix(0.0226667,0,0,-0.0226667,194.911,0)"
         id="path7232" />
    </g>
  </g>
</svg>
