<?xml version="1.0" standalone="no"?>
<svg class="Sketch" id="sketch" width="576" height="384" viewBox="0 0 576 384" xmlns="http://www.w3.org/2000/svg" fill="none" stroke="black"><g id="border"><path d="M 0 0 L 576 0 L 576 384 L 0 384 L 0 0"></path></g><g id="postcard_isocube_front"><g transform="translate(50 50)"><g transform="translate(0 0)"><path d="M 39.666666666666664 35.5 l 22.901560677855155 0
M 39.666666666666664 35.5 l -11.450780338927572 19.833333333333336
M 39.666666666666664 35.5 l -22.901560677855155 2.8046322979614205e-15
M 39.666666666666664 35.5 l -11.450780338927588 -19.83333333333333
M 39.666666666666664 35.5 l 11.450780338927562 -19.833333333333343
M 39.666666666666664 35.5 m 22.901560677855155 0 l -11.450780338927572 19.833333333333336
M 39.666666666666664 35.5 m 11.45078033892758 19.833333333333332 l -22.901560677855155 2.8046322979614205e-15
M 39.666666666666664 35.5 m -11.450780338927572 19.833333333333336 l -11.450780338927588 -19.83333333333333
M 39.666666666666664 35.5 m -22.901560677855155 2.8046322979614205e-15 l 11.450780338927562 -19.833333333333343
M 39.666666666666664 35.5 m 11.450780338927562 -19.833333333333343 l 11.450780338927608 19.833333333333318
"></path></g><g transform="translate(0 71)"><path d="M 39.666666666666664 35.5 l 22.361121928526924 4.945877837051165
M 39.666666666666664 35.5 m 15.463816815164208 -16.892360728700005 l 6.897305113362707 21.83823856575118
M 39.666666666666664 35.5 m 6.897305113362707 21.83823856575118 l -22.361121928526924 -4.945877837051162
M 39.666666666666664 35.5 m -6.89730511336271 -21.838238565751176 l 22.361121928526924 4.945877837051159
"></path></g><g transform="translate(0 142)"><path d="M 39.666666666666664 35.5 l 1.4523025920416188 -22.855465400263252
M 39.666666666666664 35.5 l 20.519564947965055 -10.170001761441604
M 39.666666666666664 35.5 l 19.067262355923436 12.685463638821659
M 39.666666666666664 35.5 l -1.452302592041616 22.855465400263252
M 39.666666666666664 35.5 l -20.519564947965055 10.170001761441606
M 39.666666666666664 35.5 l -19.06726235592346 -12.685463638821624
M 39.666666666666664 35.5 m 1.4523025920416188 -22.855465400263252 l 19.067262355923436 12.685463638821659
M 39.666666666666664 35.5 m 20.519564947965055 -10.170001761441604 l -1.452302592041596 22.855465400263256
M 39.666666666666664 35.5 m 19.067262355923436 12.685463638821659 l -20.519564947965055 10.170001761441606
M 39.666666666666664 35.5 m -1.452302592041616 22.855465400263252 l -19.06726235592344 -12.685463638821657
M 39.666666666666664 35.5 m -19.06726235592346 -12.685463638821624 l 20.519564947965033 -10.170001761441645
"></path></g><g transform="translate(0 213)"><path d="M 39.666666666666664 35.5 l 22.901560677855155 0
M 39.666666666666664 35.5 l 11.45078033892758 19.833333333333332
M 39.666666666666664 35.5 l -22.901560677855155 2.8046322979614205e-15
M 39.666666666666664 35.5 l -11.450780338927588 -19.83333333333333
M 39.666666666666664 35.5 l 11.450780338927562 -19.833333333333343
M 39.666666666666664 35.5 m 22.901560677855155 0 l -11.450780338927572 19.833333333333336
M 39.666666666666664 35.5 m 11.45078033892758 19.833333333333332 l -22.901560677855155 2.8046322979614205e-15
"></path></g><g transform="translate(79.33333333333333 0)"><path d="M 39.666666666666664 35.5 l -19.067262355912924 12.685463638837463
M 39.666666666666664 35.5 l -20.51956494797349 -10.170001761424587
M 39.666666666666664 35.5 l -1.4523025920605612 -22.855465400262048
M 39.666666666666664 35.5 l 19.067262355912924 -12.685463638837463
M 39.666666666666664 35.5 l 20.519564947973493 10.170001761424576
M 39.666666666666664 35.5 m -19.067262355912924 12.685463638837463 l -1.4523025920605714 -22.855465400262048
M 39.666666666666664 35.5 m -20.51956494797349 -10.170001761424587 l 19.067262355912924 -12.685463638837463
M 39.666666666666664 35.5 m -1.4523025920605612 -22.855465400262048 l 20.519564947973493 10.170001761424585
M 39.666666666666664 35.5 m 19.067262355912924 -12.685463638837463 l 1.4523025920605743 22.855465400262048
"></path></g><g transform="translate(79.33333333333333 71)"><path d="M 39.666666666666664 35.5 l -19.0672623559249 12.68546363881946
M 39.666666666666664 35.5 l 19.0672623559249 -12.685463638819462
M 39.666666666666664 35.5 m 1.4523025920389798 22.85546540026342 l -20.51956494796389 -10.170001761443961
M 39.666666666666664 35.5 m -19.0672623559249 12.68546363881946 l -1.452302592038993 -22.85546540026342
M 39.666666666666664 35.5 m -20.51956494796389 -10.170001761443961 l 19.0672623559249 -12.685463638819462
M 39.666666666666664 35.5 m 19.0672623559249 -12.685463638819462 l 1.4523025920389958 22.855465400263416
"></path></g><g transform="translate(79.33333333333333 142)"><path d="M 39.666666666666664 35.5 l 22.901560677855155 0
M 39.666666666666664 35.5 l 11.45078033892758 19.833333333333332
M 39.666666666666664 35.5 l -22.901560677855155 2.8046322979614205e-15
M 39.666666666666664 35.5 l -11.450780338927588 -19.83333333333333
M 39.666666666666664 35.5 m -11.450780338927572 19.833333333333336 l -11.450780338927588 -19.83333333333333
M 39.666666666666664 35.5 m -22.901560677855155 2.8046322979614205e-15 l 11.450780338927562 -19.833333333333343
M 39.666666666666664 35.5 m -11.450780338927588 -19.83333333333333 l 22.901560677855155 -5.609264595922841e-15
"></path></g><g transform="translate(79.33333333333333 213)"><path d="M 39.666666666666664 35.5 l 22.901560677855155 -8.6640273545642e-12
M 39.666666666666664 35.5 l -22.901560677855155 8.667930892167152e-12
M 39.666666666666664 35.5 l -11.450780338935092 -19.833333333328994
M 39.666666666666664 35.5 l 11.450780338920058 -19.833333333337674
M 39.666666666666664 35.5 m -22.901560677855155 8.667930892167152e-12 l 11.450780338920058 -19.833333333337674
M 39.666666666666664 35.5 m -11.450780338935092 -19.833333333328994 l 22.901560677855155 -8.670735524465113e-12
M 39.666666666666664 35.5 m 11.450780338920058 -19.833333333337674 l 11.450780338935111 19.833333333328984
"></path></g><g transform="translate(158.66666666666666 0)"><path d="M 39.666666666666664 35.5 l 15.463816815181538 -16.892360728684142
M 39.666666666666664 35.5 l 6.897305113340325 21.83823856575825
M 39.666666666666664 35.5 l -15.463816815181534 16.892360728684146
M 39.666666666666664 35.5 m 15.463816815181538 -16.892360728684142 l 6.897305113340325 21.83823856575825
M 39.666666666666664 35.5 m 6.897305113340325 21.83823856575825 l -22.361121928521854 -4.9458778370740815
M 39.666666666666664 35.5 m -6.897305113340328 -21.83823856575825 l 22.361121928521854 4.945877837074079
"></path></g><g transform="translate(158.66666666666666 71)"><path d="M 39.666666666666664 35.5 l 22.901560677855155 0
M 39.666666666666664 35.5 l -11.450780338927572 19.833333333333336
M 39.666666666666664 35.5 l -11.450780338927588 -19.83333333333333
M 39.666666666666664 35.5 m 22.901560677855155 0 l -11.450780338927572 19.833333333333336
M 39.666666666666664 35.5 m -11.450780338927572 19.833333333333336 l -11.450780338927588 -19.83333333333333
M 39.666666666666664 35.5 m -11.450780338927588 -19.83333333333333 l 22.901560677855155 -5.609264595922841e-15
"></path></g><g transform="translate(158.66666666666666 142)"><path d="M 39.666666666666664 35.5 l 22.901560677855155 -9.325817125607146e-12
M 39.666666666666664 35.5 l -11.450780338919495 19.833333333337997
M 39.666666666666664 35.5 l -11.450780338935655 -19.833333333328667
M 39.666666666666664 35.5 l 11.450780338919493 -19.833333333338
M 39.666666666666664 35.5 m 11.450780338935658 19.833333333328667 l -22.901560677855155 9.339173067227441e-12
M 39.666666666666664 35.5 m -11.450780338919495 19.833333333337997 l -11.450780338935672 -19.83333333332866
M 39.666666666666664 35.5 m -11.450780338935655 -19.833333333328667 l 22.901560677855155 -9.321637027553879e-12
M 39.666666666666664 35.5 m 11.450780338919493 -19.833333333338 l 11.450780338935676 19.83333333332866
"></path></g><g transform="translate(158.66666666666666 213)"><path d="M 39.666666666666664 35.5 l 1.4523025920416188 22.855465400263252
M 39.666666666666664 35.5 l -19.067262355923436 12.68546363882166
M 39.666666666666664 35.5 l -20.519564947965062 -10.170001761441592
M 39.666666666666664 35.5 m -20.519564947965062 -10.170001761441592 l 19.067262355923436 -12.685463638821664
M 39.666666666666664 35.5 m 19.067262355923436 -12.685463638821664 l 1.4523025920416346 22.855465400263252
"></path></g><g transform="translate(238 0)"><path d="M 39.666666666666664 35.5 l 22.901560677855155 0
M 39.666666666666664 35.5 l -11.450780338927572 19.833333333333336
M 39.666666666666664 35.5 l -11.450780338927588 -19.83333333333333
M 39.666666666666664 35.5 l 11.450780338927562 -19.833333333333343
M 39.666666666666664 35.5 m 11.45078033892758 19.833333333333332 l -22.901560677855155 2.8046322979614205e-15
M 39.666666666666664 35.5 m -11.450780338927572 19.833333333333336 l -11.450780338927588 -19.83333333333333
M 39.666666666666664 35.5 m -22.901560677855155 2.8046322979614205e-15 l 11.450780338927562 -19.833333333333343
"></path></g><g transform="translate(238 71)"><path d="M 39.666666666666664 35.5 l -17.838998536136298 14.361462763563063
M 39.666666666666664 35.5 l -21.356890856818037 -8.26829452858591
M 39.666666666666664 35.5 m 3.5178923206817343 22.62975729214898 l -21.356890856818037 -8.26829452858591
M 39.666666666666664 35.5 m -17.838998536136298 14.361462763563063 l -3.517892320681727 -22.62975729214898
"></path></g><g transform="translate(238 142)"><path d="M 39.666666666666664 35.5 l -11.450780338928732 -19.833333333332664
M 39.666666666666664 35.5 l 11.450780338926418 -19.833333333334004
M 39.666666666666664 35.5 m 11.450780338926418 -19.833333333334004 l 11.450780338928734 19.833333333332664
"></path></g><g transform="translate(238 213)"><path d="M 39.666666666666664 35.5 l 22.901560677855155 0
M 39.666666666666664 35.5 l 11.45078033892758 19.833333333333332
M 39.666666666666664 35.5 l -11.450780338927572 19.833333333333336
M 39.666666666666664 35.5 l -22.901560677855155 2.8046322979614205e-15
M 39.666666666666664 35.5 l 11.450780338927562 -19.833333333333343
M 39.666666666666664 35.5 m 22.901560677855155 0 l -11.450780338927572 19.833333333333336
M 39.666666666666664 35.5 m -11.450780338927572 19.833333333333336 l -11.450780338927588 -19.83333333333333
M 39.666666666666664 35.5 m -22.901560677855155 2.8046322979614205e-15 l 11.450780338927562 -19.833333333333343
M 39.666666666666664 35.5 m 11.450780338927562 -19.833333333333343 l 11.450780338927608 19.833333333333318
"></path></g><g transform="translate(317.3333333333333 0)"><path d="M 39.666666666666664 35.5 l 22.901560677855155 9.325817125607146e-12
M 39.666666666666664 35.5 l -11.450780338919518 -19.833333333337986
M 39.666666666666664 35.5 m 22.901560677855155 9.325817125607146e-12 l -11.450780338935651 19.83333333332867
M 39.666666666666664 35.5 m -11.450780338935651 19.83333333332867 l -11.4507803389195 -19.833333333337993
"></path></g><g transform="translate(317.3333333333333 71)"><path d="M 39.666666666666664 35.5 l 1.4523025920602337 -22.85546540026207
M 39.666666666666664 35.5 l 19.067262355913115 12.685463638837172
M 39.666666666666664 35.5 l -20.51956494797333 10.170001761424912
M 39.666666666666664 35.5 l -19.06726235591312 -12.685463638837172
M 39.666666666666664 35.5 m 20.51956494797334 -10.17000176142489 l -1.4523025920602308 22.85546540026207
M 39.666666666666664 35.5 m 19.067262355913115 12.685463638837172 l -20.51956494797333 10.170001761424912
M 39.666666666666664 35.5 m -20.51956494797333 10.170001761424912 l 1.4523025920601875 -22.855465400262073
"></path></g><g transform="translate(317.3333333333333 142)"><path d="M 39.666666666666664 35.5 l 22.901560677855155 0
M 39.666666666666664 35.5 m 22.901560677855155 0 l -11.450780338927572 19.833333333333336
M 39.666666666666664 35.5 m -11.450780338927572 19.833333333333336 l -11.450780338927588 -19.83333333333333
M 39.666666666666664 35.5 m -22.901560677855155 2.8046322979614205e-15 l 11.450780338927562 -19.833333333333343
"></path></g><g transform="translate(317.3333333333333 213)"><path d="M 39.666666666666664 35.5 l -20.519564947977617 -10.170001761416259
M 39.666666666666664 35.5 l -1.4523025920698382 -22.85546540026146
M 39.666666666666664 35.5 l 19.067262355907772 -12.685463638845203
M 39.666666666666664 35.5 m 1.4523025920698354 22.85546540026146 l -20.519564947977617 -10.170001761416259
M 39.666666666666664 35.5 m 20.519564947977624 10.170001761416248 l -19.06726235590777 12.685463638845215
"></path></g><g transform="translate(396.66666666666663 0)"><path d="M 39.666666666666664 35.5 l 11.45078033891257 19.833333333341997
M 39.666666666666664 35.5 m 22.901560677855155 1.7328054709117913e-11 l -11.45078033894258 19.83333333332467
M 39.666666666666664 35.5 m -22.901560677855155 -1.732744788744042e-11 l 11.450780338942572 -19.833333333324678
"></path></g><g transform="translate(396.66666666666663 71)"><path d="M 39.666666666666664 35.5 l 22.901560677855155 0
M 39.666666666666664 35.5 l -22.901560677855155 2.8046322979614205e-15
M 39.666666666666664 35.5 l -11.450780338927588 -19.83333333333333
M 39.666666666666664 35.5 m 11.45078033892758 19.833333333333332 l -22.901560677855155 2.8046322979614205e-15
M 39.666666666666664 35.5 m -22.901560677855155 2.8046322979614205e-15 l 11.450780338927562 -19.833333333333343
M 39.666666666666664 35.5 m 11.450780338927562 -19.833333333333343 l 11.450780338927608 19.833333333333318
"></path></g><g transform="translate(396.66666666666663 142)"><path d="M 39.666666666666664 35.5 l 17.83899853612419 -14.361462763578103
M 39.666666666666664 35.5 l 21.356890856825004 8.268294528567909
M 39.666666666666664 35.5 l -17.83899853612419 14.361462763578107
M 39.666666666666664 35.5 l -21.356890856825007 -8.2682945285679
M 39.666666666666664 35.5 m 17.83899853612419 -14.361462763578103 l 3.517892320700819 22.629757292146014
M 39.666666666666664 35.5 m -21.356890856825007 -8.2682945285679 l 17.83899853612418 -14.361462763578118
M 39.666666666666664 35.5 m -3.5178923207008217 -22.629757292146014 l 21.35689085682501 8.268294528567887
"></path></g><g transform="translate(396.66666666666663 213)"><path d="M 39.666666666666664 35.5 l 17.838998536115525 14.36146276358887
M 39.666666666666664 35.5 l 3.5178923207144606 -22.629757292143893
M 39.666666666666664 35.5 m 3.5178923207144606 -22.629757292143893 l 17.838998536115525 14.361462763588868
"></path></g></g></g></svg>