<?xml version="1.0" encoding="UTF-8" standalone="no"?>
<svg
   xmlns:dc="http://purl.org/dc/elements/1.1/"
   xmlns:cc="http://creativecommons.org/ns#"
   xmlns:rdf="http://www.w3.org/1999/02/22-rdf-syntax-ns#"
   xmlns:svg="http://www.w3.org/2000/svg"
   xmlns="http://www.w3.org/2000/svg"
   xmlns:sodipodi="http://sodipodi.sourceforge.net/DTD/sodipodi-0.dtd"
   xmlns:inkscape="http://www.inkscape.org/namespaces/inkscape"
   sodipodi:docname="postcard_back_template_squiggle.svg"
   version="1.1"
   stroke="black"
   fill="none"
   viewBox="0 0 576 384"
   height="384"
   width="576"
   id="sketch"
   class="Sketch"
   inkscape:version="1.0 (4035a4f, 2020-05-01)">
  <metadata
     id="metadata29">
    <rdf:RDF>
      <cc:Work
         rdf:about="">
        <dc:format>image/svg+xml</dc:format>
        <dc:type
           rdf:resource="http://purl.org/dc/dcmitype/StillImage" />
        <dc:title></dc:title>
      </cc:Work>
    </rdf:RDF>
  </metadata>
  <defs
     id="defs27" />
  <sodipodi:namedview
     inkscape:document-rotation="0"
     pagecolor="#ffffff"
     bordercolor="#666666"
     borderopacity="1"
     objecttolerance="10"
     gridtolerance="10"
     guidetolerance="10"
     inkscape:pageopacity="0"
     inkscape:pageshadow="2"
     inkscape:window-width="1440"
     inkscape:window-height="872"
     id="namedview25"
     showgrid="false"
     inkscape:zoom="1.5173611"
     inkscape:cx="376.49689"
     inkscape:cy="178.16017"
     inkscape:window-x="0"
     inkscape:window-y="28"
     inkscape:window-maximized="0"
     inkscape:current-layer="stamp" />
  <g
     id="border"
     style="stroke:#000000;stroke-opacity:1;fill:none">
    <path
       d="M 0 0 L 576 0 L 576 384 L 0 384 L 0 0"
       id="path10"
       style="stroke:#000000;stroke-opacity:1;fill:none" />
  </g>
  <g
     id="postcard_back_template"
     style="stroke:#000000;stroke-opacity:1;fill:none">
    <g
       id="postcard-divider"
       style="stroke:#000000;stroke-opacity:1;fill:none">
      <line
         x1="288"
         y1="10"
         x2="288"
         y2="374"
         stroke="black"
         id="line13"
         style="stroke:#000000;stroke-opacity:1;fill:none" />
    </g>
    <g
       transform="matrix(1.2678724,0,0,1.2674465,253.91579,-49.403615)"
       id="stamp"
       inkscape:label="straight lines"
       style="display:inline">
      <path
         d="m 239.92081,90.263072 c 0,4.801613 -5.99798,4.801613 -5.99798,9.503194 0,4.801614 5.99798,4.801614 5.99798,9.503194 0,4.8016 -5.99798,4.8016 -5.99798,9.50319 0,4.8016 5.99798,4.8016 5.99798,9.50318 0,4.80161 -5.99798,4.80161 -5.99798,9.50319 0,4.80162 5.99798,4.80162 5.99798,9.5032 0,4.8016 -5.99798,4.8016 -5.99798,9.50318 0,4.8016 5.99798,4.8016 5.99798,9.50318 0,4.80161 -5.99798,4.80161 -5.99798,9.50319 0,4.80163 5.99798,4.80163 5.99798,9.5032 0,4.80164 -5.99798,4.80164 -5.99798,9.50321 M 232.03358,86.318133 c 0,4.801613 -5.99798,4.801613 -5.99798,9.503194 0,4.801613 5.99798,4.801613 5.99798,9.503193 0,4.80161 -5.99798,4.80161 -5.99798,9.50319 0,4.80161 5.99798,4.80161 5.99798,9.50319 0,4.80161 -5.99798,4.80161 -5.99798,9.50319 0,4.80162 5.99798,4.80162 5.99798,9.5032 0,4.8016 -5.99798,4.8016 -5.99798,9.50318 0,4.8016 5.99798,4.8016 5.99798,9.50318 0,4.80161 -5.99798,4.80161 -5.99798,9.50319 0,4.80163 5.99798,4.80163 5.99798,9.5032 0,4.80164 -5.99798,4.80164 -5.99798,9.50321 M 224.14635,82.373193 c 0,4.801613 -5.99798,4.801613 -5.99798,9.503194 0,4.801612 5.99798,4.801612 5.99798,9.503193 0,4.80161 -5.99798,4.80161 -5.99798,9.50319 0,4.80161 5.99798,4.80161 5.99798,9.50319 0,4.80161 -5.99798,4.80161 -5.99798,9.50319 0,4.80162 5.99798,4.80162 5.99798,9.5032 0,4.8016 -5.99798,4.8016 -5.99798,9.50318 0,4.8016 5.99798,4.8016 5.99798,9.50318 0,4.80161 -5.99798,4.80161 -5.99798,9.50319 0,4.80163 5.99798,4.80163 5.99798,9.5032 0,4.80164 -5.99798,4.80164 -5.99798,9.50321 M 216.25912,78.428253 c 0,4.801613 -5.99798,4.801613 -5.99798,9.503194 0,4.801612 5.99798,4.801612 5.99798,9.503191 0,4.801612 -5.99798,4.801612 -5.99798,9.503192 0,4.80161 5.99798,4.80161 5.99798,9.50319 0,4.80161 -5.99798,4.80161 -5.99798,9.50319 0,4.80162 5.99798,4.80162 5.99798,9.5032 0,4.8016 -5.99798,4.8016 -5.99798,9.50318 0,4.8016 5.99798,4.8016 5.99798,9.50318 0,4.80161 -5.99798,4.80161 -5.99798,9.50319 0,4.80162 5.99798,4.80162 5.99798,9.5032 0,4.80163 -5.99798,4.80163 -5.99798,9.5032 M 208.37189,74.483313 c 0,4.801613 -5.99798,4.801613 -5.99798,9.503194 0,4.801612 5.99798,4.801612 5.99798,9.503191 0,4.801614 -5.99798,4.801614 -5.99798,9.503192 0,4.80161 5.99798,4.80161 5.99798,9.50319 0,4.80161 -5.99798,4.80161 -5.99798,9.50319 0,4.80162 5.99798,4.80162 5.99798,9.5032 0,4.80161 -5.99798,4.80161 -5.99798,9.50319 0,4.8016 5.99798,4.8016 5.99798,9.50318 0,4.80161 -5.99798,4.80161 -5.99798,9.50319 0,4.80162 5.99798,4.80162 5.99798,9.5032 0,4.80163 -5.99798,4.80163 -5.99798,9.50319 M 200.48466,70.538374 c 0,4.801613 -5.99798,4.801613 -5.99798,9.503194 0,4.801612 5.99798,4.801612 5.99798,9.503191 0,4.801614 -5.99798,4.801614 -5.99798,9.503193 0,4.801608 5.99798,4.801608 5.99798,9.503188 0,4.80161 -5.99798,4.80161 -5.99798,9.50319 0,4.80162 5.99798,4.80162 5.99798,9.5032 0,4.80161 -5.99798,4.80161 -5.99798,9.50319 0,4.8016 5.99798,4.8016 5.99798,9.50318 0,4.80161 -5.99798,4.80161 -5.99798,9.50319 0,4.80162 5.99798,4.80162 5.99798,9.5032 0,4.80162 -5.99798,4.80162 -5.99798,9.50319 M 192.59743,66.593434 c 0,4.801613 -5.99798,4.801613 -5.99798,9.503194 0,4.801612 5.99798,4.801612 5.99798,9.503191 0,4.801614 -5.99798,4.801614 -5.99798,9.503193 0,4.801611 5.99798,4.801611 5.99798,9.503188 0,4.80161 -5.99798,4.80161 -5.99798,9.50319 0,4.80162 5.99798,4.80162 5.99798,9.5032 0,4.80161 -5.99798,4.80161 -5.99798,9.50319 0,4.80161 5.99798,4.80161 5.99798,9.50319 0,4.80161 -5.99798,4.80161 -5.99798,9.50319 0,4.80162 5.99798,4.80162 5.99798,9.5032 0,4.80162 -5.99798,4.80162 -5.99798,9.50319 M 184.7102,62.648494 c 0,4.801613 -5.99798,4.801613 -5.99798,9.503194 0,4.801612 5.99798,4.801612 5.99798,9.503191 0,4.801614 -5.99798,4.801614 -5.99798,9.503193 0,4.801611 5.99798,4.801611 5.99798,9.503188 0,4.80161 -5.99798,4.80161 -5.99798,9.50319 0,4.80162 5.99798,4.80162 5.99798,9.5032 0,4.80161 -5.99798,4.80161 -5.99798,9.50319 0,4.80161 5.99798,4.80161 5.99798,9.50319 0,4.80161 -5.99798,4.80161 -5.99798,9.50319 0,4.80162 5.99798,4.80162 5.99798,9.5032 0,4.80161 -5.99798,4.80161 -5.99798,9.50319 M 176.82297,58.703555 c 0,4.801613 -5.99798,4.801613 -5.99798,9.503194 0,4.801612 5.99798,4.801612 5.99798,9.503191 0,4.801614 -5.99798,4.801614 -5.99798,9.503193 0,4.801611 5.99798,4.801611 5.99798,9.50319 0,4.801607 -5.99798,4.801607 -5.99798,9.503187 0,4.80162 5.99798,4.80162 5.99798,9.5032 0,4.80161 -5.99798,4.80161 -5.99798,9.50319 0,4.80161 5.99798,4.80161 5.99798,9.50319 0,4.80161 -5.99798,4.80161 -5.99798,9.50319 0,4.80162 5.99798,4.80162 5.99798,9.5032 0,4.80161 -5.99798,4.80161 -5.99798,9.50319 M 168.93574,54.758615 c 0,4.801613 -5.99798,4.801613 -5.99798,9.503194 0,4.801612 5.99798,4.801612 5.99798,9.503191 0,4.801614 -5.99798,4.801614 -5.99798,9.503193 0,4.801611 5.99798,4.801611 5.99798,9.50319 0,4.801607 -5.99798,4.801607 -5.99798,9.503187 0,4.80162 5.99798,4.80162 5.99798,9.5032 0,4.80161 -5.99798,4.80161 -5.99798,9.50319 0,4.80161 5.99798,4.80161 5.99798,9.50319 0,4.80161 -5.99798,4.80161 -5.99798,9.50319 0,4.80162 5.99798,4.80162 5.99798,9.5032 0,4.80161 -5.99798,4.80161 -5.99798,9.50319 M 161.04851,50.813675 c 0,4.801613 -5.99798,4.801613 -5.99798,9.503193 0,4.801613 5.99798,4.801613 5.99798,9.503192 0,4.801613 -5.99798,4.801613 -5.99798,9.503192 0,4.801611 5.99798,4.801611 5.99798,9.503191 0,4.80161 -5.99798,4.80161 -5.99798,9.50319 0,4.801617 5.99798,4.801617 5.99798,9.503197 0,4.80161 -5.99798,4.80161 -5.99798,9.50319 0,4.80161 5.99798,4.80161 5.99798,9.50319 0,4.80161 -5.99798,4.80161 -5.99798,9.50319 0,4.80162 5.99798,4.80162 5.99798,9.5032 0,4.80161 -5.99798,4.80161 -5.99798,9.50319"
         style="display:inline;fill:none;stroke:#000000;stroke-width:0.788855;stroke-miterlimit:4;stroke-dasharray:none;stroke-opacity:1"
         id="path93107-25-5-1-7-7-3-1-5-3-3-9" />
    </g>
  </g>
</svg>
