<?xml version="1.0" standalone="no"?>
<svg class="Sketch" id="sketch" width="768" height="432" viewBox="0 0 768 432" xmlns="http://www.w3.org/2000/svg" fill="none" stroke="black"><g id="rectangle_twist"><g id="outline"><path d="M 0 0 L 768 0 L 768 432 L 0 432 L 0 0"></path></g><g id="rectSpiral"><path d="M 76.8 64.96240601503759
 l 614.4 0
 l 1.8496770602460177e-14 302.07518796992485
 l -614.4 7.524229933961338e-14
 l -4.9941280626642473e-14 -271.8676691729324
 l 552.7385434561472 15.64813656564098
 l -5.722411926489802 241.5923887076442
 l -490.74873666874805 -27.52431394290853
 l 10.7259203301988 -211.18042057618004
 l 428.42661928377515 37.675433495517474
 l -14.787290596389482 180.64087838626529
 l -365.8129116707364 -45.567129106165766
 l 17.635327920199614 -150.0044999522127
 l 303.01200272231307 50.55260830276647
 l -18.943589290568937 119.33586005355102
 l -240.22640526162115 -51.8579966358068
 l 18.323523247364324 -88.75075336378386
 l 177.8053054686535 48.570935210255286
 l -15.319333119677443 58.44052361376455
 l -116.31166204502638 -39.6369987804774
 l 9.40682272260329 -28.705502575920338
 l 56.612889802659105 23.871621398471785
 l 0 0
" fill="none" stroke="black"></path></g></g></svg>