<?xml version="1.0"?><svg  viewBox="0 0 200 200" width="180mm" height="180mm" xmlns="http://www.w3.org/2000/svg"  version="1.2" viewport-fill="#fff">
  <polyline points="0.000,5.000 0,0 5.000,0.000" style="fill:none;stroke:#000;stroke-width:0.1953;opacity:.5" stroke-linecap="round"/>
  <polyline points="200.000,5.000 200,0 195.000,0.000" style="fill:none;stroke:#000;stroke-width:0.1953;opacity:.5" stroke-linecap="round"/>
  <polyline points="0.000,195.000 0,200 5.000,200.000" style="fill:none;stroke:#000;stroke-width:0.1953;opacity:.5" stroke-linecap="round"/>
  <polyline points="200.000,195.000 200,200 195.000,200.000" style="fill:none;stroke:#000;stroke-width:0.1953;opacity:.5" stroke-linecap="round"/>
  <polyline points="160.000,180.000 159.200,179.957 158.408,179.827 157.631,179.612 156.879,179.312 156.157,178.930 155.475,178.467 154.838,177.927 154.254,177.311 153.728,176.625 153.266,175.871 152.874,175.054 152.556,174.179 152.316,173.250 152.157,172.272 152.082,171.252 152.093,170.194 152.191,169.104 152.377,167.989 152.650,166.854 153.010,165.706 153.454,164.550 153.980,163.392 154.585,162.238 155.264,161.095 156.014,159.967 156.829,158.860 157.704,157.781 158.631,156.732 159.605,155.720 160.618,154.749 161.661,153.823 162.728,152.945 163.810,152.120 164.899,151.349 165.985,150.636 167.060,149.982 168.116,149.390 169.144,148.861 170.135,148.395 171.081,147.992 171.974,147.654 172.806,147.379 173.570,147.167 174.259,147.016 174.867,146.925 175.388,146.892 175.816,146.913 176.147,146.988 176.378,147.113 176.504,147.284 176.524,147.498 176.436,147.753 176.239,148.043 175.933,148.365 175.519,148.715 174.998,149.089 174.373,149.483 173.646,149.893 172.822,150.314 171.905,150.744 170.901,151.178 169.815,151.612 168.654,152.042 167.425,152.467 166.136,152.881 164.795,153.284 163.410,153.671 161.992,154.041 160.548,154.391 159.088,154.720 157.622,155.027 156.159,155.310 154.710,155.570 153.283,155.804 151.888,156.014 150.535,156.200 149.233,156.362 147.990,156.502 146.814,156.620 145.713,156.719 144.696,156.799 143.768,156.863 142.935,156.914 142.203,156.954 141.577,156.985 141.061,157.010 140.658,157.033 140.371,157.056 140.201,157.083 140.149,157.116 140.214,157.158 140.398,157.213 140.696,157.284 141.108,157.373 141.631,157.483 142.259,157.617 142.988,157.777 143.813,157.965 144.729,158.184 145.727,158.434 146.802,158.718 147.945,159.035 149.148,159.388 150.403,159.775 151.701,160.198 153.032,160.656 154.388,161.148 155.759,161.674 157.135,162.231 158.508,162.818 159.867,163.433 161.204,164.073 162.510,164.736 163.776,165.418 164.994,166.116 166.156,166.827 167.255,167.546 168.283,168.269 169.235,168.992 170.104,169.711 170.887,170.420 171.578,171.116 172.174,171.793 172.673,172.446 173.072,173.072 173.369,173.664 173.565,174.218 173.660,174.730 173.654,175.196 173.551,175.611 173.351,175.971 173.059,176.272 172.678,176.512 172.213,176.686 171.670,176.793 171.054,176.830 170.371,176.794 169.629,176.684 168.834,176.500 167.994,176.240 167.117,175.903 166.210,175.491 165.284,175.004 164.344,174.443 163.401,173.810 162.461,173.106 161.534,172.335 160.627,171.498 159.749,170.600 158.906,169.645 158.106,168.635 157.355,167.577 156.661,166.475 156.027,165.333 155.460,164.159 154.964,162.956 154.544,161.731 154.201,160.490 153.939,159.240 153.760,157.986 153.665,156.734 153.653,155.492 153.725,154.266 153.880,153.061 154.115,151.884 154.429,150.741 154.818,149.637 155.277,148.578 155.803,147.570 156.390,146.617 157.033,145.725 157.726,144.896 158.462,144.136 159.233,143.449 160.033,142.836 160.854,142.300 161.688,141.845 162.527,141.471 163.364,141.180 164.189,140.973 164.995,140.849 165.774,140.809 166.518,140.852 167.220,140.977 167.872,141.182 168.468,141.464 169.002,141.823 169.466,142.254 169.857,142.754 170.168,143.319 170.397,143.946 170.538,144.630 170.590,145.367 170.551,146.151 170.418,146.978 170.191,147.842 169.871,148.739 169.458,149.662 168.953,150.606 168.359,151.566 167.680,152.536 166.918,153.511 166.079,154.485 165.168,155.453 164.190,156.411 163.152,157.353 162.061,158.274 160.923,159.172 159.748,160.040 158.543,160.876 157.316,161.677 156.077,162.438 154.834,163.159 153.597,163.835 152.373,164.465 151.174,165.049 150.007,165.584 148.881,166.069 147.805,166.505 146.788,166.892 145.837,167.230 144.959,167.519 144.162,167.762 143.452,167.959 142.836,168.112 142.317,168.223 141.902,168.295 141.594,168.330 141.396,168.332 141.310,168.302 141.338,168.245 141.482,168.163 141.740,168.061 142.112,167.940 142.596,167.806 143.191,167.660 143.891,167.508 144.695,167.351 145.597,167.193 146.590,167.038 147.671,166.888 148.830,166.746 150.062,166.615 151.359,166.496 152.711,166.392 154.111,166.304 155.550,166.235 157.017,166.184 158.504,166.153 160.000,166.143 161.496,166.153 162.983,166.184 164.450,166.235 165.889,166.304 167.289,166.392 168.641,166.496 169.938,166.615 171.170,166.746 172.329,166.888 173.410,167.038 174.403,167.193 175.305,167.351 176.109,167.508 176.809,167.660 177.404,167.806 177.888,167.940 178.260,168.061 178.518,168.163 178.662,168.245 178.690,168.302 178.604,168.332 178.406,168.330 178.098,168.295 177.683,168.223 177.164,168.112 176.548,167.959 175.838,167.762 175.041,167.519 174.163,167.230 173.212,166.892 172.195,166.505 171.119,166.069 169.993,165.584 168.826,165.049 167.627,164.465 166.403,163.835 165.166,163.159 163.923,162.438 162.684,161.677 161.457,160.876 160.252,160.040 159.077,159.172 157.939,158.274 156.848,157.353 155.810,156.411 154.832,155.453 153.921,154.485 153.082,153.511 152.320,152.536 151.641,151.566 151.047,150.606 150.542,149.662 150.129,148.739 149.809,147.842 149.582,146.978 149.449,146.151 149.410,145.367 149.462,144.630 149.603,143.946 149.832,143.319 150.143,142.754 150.534,142.254 150.998,141.823 151.532,141.464 152.128,141.182 152.780,140.977 153.482,140.852 154.226,140.809 155.005,140.849 155.811,140.973 156.636,141.180 157.473,141.471 158.312,141.845 159.146,142.300 159.967,142.836 160.767,143.449 161.538,144.136 162.274,144.896 162.967,145.725 163.610,146.617 164.197,147.570 164.723,148.578 165.182,149.637 165.571,150.741 165.885,151.884 166.120,153.061 166.275,154.266 166.347,155.492 166.335,156.734 166.240,157.986 166.061,159.240 165.799,160.490 165.456,161.731 165.036,162.956 164.540,164.159 163.973,165.333 163.339,166.475 162.645,167.577 161.894,168.635 161.094,169.645 160.251,170.600 159.373,171.498 158.466,172.335 157.539,173.106 156.599,173.810 155.656,174.443 154.716,175.004 153.790,175.491 152.883,175.903 152.006,176.240 151.166,176.500 150.371,176.684 149.629,176.794 148.946,176.830 148.330,176.793 147.787,176.686 147.322,176.512 146.941,176.272 146.649,175.971 146.449,175.611 146.346,175.196 146.340,174.730 146.435,174.218 146.631,173.664 146.928,173.072 147.327,172.446 147.826,171.793 148.422,171.116 149.113,170.420 149.896,169.711 150.765,168.992 151.717,168.269 152.745,167.546 153.844,166.827 155.006,166.116 156.224,165.418 157.490,164.736 158.796,164.073 160.133,163.433 161.492,162.818 162.865,162.231 164.241,161.674 165.612,161.148 166.968,160.656 168.299,160.198 169.597,159.775 170.852,159.388 172.055,159.035 173.198,158.718 174.273,158.434 175.271,158.184 176.187,157.965 177.012,157.777 177.741,157.617 178.369,157.483 178.892,157.373 179.304,157.284 179.602,157.213 179.786,157.158 179.851,157.116 179.799,157.083 179.629,157.056 179.342,157.033 178.939,157.010 178.423,156.985 177.797,156.954 177.065,156.914 176.232,156.863 175.304,156.799 174.287,156.719 173.186,156.620 172.010,156.502 170.767,156.362 169.465,156.200 168.112,156.014 166.717,155.804 165.290,155.570 163.841,155.310 162.378,155.027 160.912,154.720 159.452,154.391 158.008,154.041 156.590,153.671 155.205,153.284 153.864,152.881 152.575,152.467 151.346,152.042 150.185,151.612 149.099,151.178 148.095,150.744 147.178,150.314 146.354,149.893 145.627,149.483 145.002,149.089 144.481,148.715 144.067,148.365 143.761,148.043 143.564,147.753 143.476,147.498 143.496,147.284 143.622,147.113 143.853,146.988 144.184,146.913 144.612,146.892 145.133,146.925 145.741,147.016 146.430,147.167 147.194,147.379 148.026,147.654 148.919,147.992 149.865,148.395 150.856,148.861 151.884,149.390 152.940,149.982 154.015,150.636 155.101,151.349 156.190,152.120 157.272,152.945 158.339,153.823 159.382,154.749 160.395,155.720 161.369,156.732 162.296,157.781 163.171,158.860 163.986,159.967 164.736,161.095 165.415,162.238 166.020,163.392 166.546,164.550 166.990,165.706 167.350,166.854 167.623,167.989 167.809,169.104 167.907,170.194 167.918,171.252 167.843,172.272 167.684,173.250 167.444,174.179 167.126,175.054 166.734,175.871 166.272,176.625 165.746,177.311 165.162,177.927 164.525,178.467 163.843,178.930 163.121,179.312 162.369,179.612 161.592,179.827 160.800,179.957 160.000,180.000 159.200,179.957"  style="fill:none;stroke:#000;stroke-width:0.1953;opacity:1" stroke-linecap="round"/>
  <polyline points="100.000,180.000 99.903,179.944 99.809,179.777 99.724,179.499 99.650,179.113 99.591,178.622 99.551,178.028 99.533,177.337 99.541,176.553 99.577,175.682 99.643,174.730 99.744,173.704 99.880,172.611 100.053,171.460 100.266,170.257 100.518,169.012 100.811,167.733 101.145,166.430 101.520,165.111 101.936,163.786 102.391,162.464 102.885,161.155 103.417,159.866 103.983,158.607 104.582,157.387 105.211,156.214 105.868,155.095 106.548,154.037 107.249,153.048 107.967,152.134 108.697,151.301 109.435,150.553 110.177,149.895 110.918,149.330 111.654,148.861 112.380,148.491 113.091,148.221 113.782,148.050 114.449,147.980 115.086,148.008 115.690,148.133 116.256,148.353 116.780,148.664 117.257,149.062 117.685,149.542 118.058,150.100 118.375,150.729 118.632,151.422 118.827,152.174 118.957,152.975 119.021,153.820 119.017,154.699 118.945,155.604 118.803,156.527 118.592,157.459 118.311,158.391 117.962,159.315 117.546,160.223 117.064,161.106 116.518,161.955 115.911,162.763 115.245,163.522 114.523,164.226 113.749,164.867 112.926,165.440 112.060,165.939 111.153,166.359 110.211,166.696 109.237,166.946 108.239,167.107 107.219,167.176 106.184,167.152 105.138,167.034 104.087,166.823 103.036,166.520 101.991,166.126 100.955,165.645 99.936,165.078 98.936,164.430 97.962,163.707 97.016,162.912 96.105,162.052 95.230,161.134 94.397,160.165 93.608,159.151 92.867,158.101 92.175,157.023 91.536,155.926 90.950,154.818 90.420,153.707 89.946,152.604 89.530,151.516 89.170,150.453 88.867,149.423 88.621,148.435 88.430,147.497 88.293,146.617 88.208,145.802 88.174,145.060 88.187,144.397 88.244,143.820 88.344,143.332 88.482,142.940 88.655,142.648 88.860,142.458 89.092,142.373 89.348,142.395 89.623,142.525 89.913,142.763 90.215,143.110 90.523,143.562 90.834,144.119 91.144,144.777 91.449,145.532 91.745,146.381 92.029,147.318 92.296,148.337 92.545,149.432 92.771,150.596 92.973,151.821 93.147,153.101 93.293,154.425 93.408,155.786 93.491,157.175 93.541,158.583 93.558,160.000 93.541,161.417 93.491,162.825 93.408,164.214 93.293,165.575 93.147,166.899 92.973,168.179 92.771,169.404 92.545,170.568 92.296,171.663 92.029,172.682 91.745,173.619 91.449,174.468 91.144,175.223 90.834,175.881 90.523,176.438 90.215,176.890 89.913,177.237 89.623,177.475 89.348,177.605 89.092,177.627 88.860,177.542 88.655,177.352 88.482,177.060 88.344,176.668 88.244,176.180 88.187,175.603 88.174,174.940 88.208,174.198 88.293,173.383 88.430,172.503 88.621,171.565 88.867,170.577 89.170,169.547 89.530,168.484 89.946,167.396 90.420,166.293 90.950,165.182 91.536,164.074 92.175,162.977 92.867,161.899 93.608,160.849 94.397,159.835 95.230,158.866 96.105,157.948 97.016,157.088 97.962,156.293 98.936,155.570 99.936,154.922 100.955,154.355 101.991,153.874 103.036,153.480 104.087,153.177 105.138,152.966 106.184,152.848 107.219,152.824 108.239,152.893 109.237,153.054 110.211,153.304 111.153,153.641 112.060,154.061 112.926,154.560 113.749,155.133 114.523,155.774 115.245,156.478 115.911,157.237 116.518,158.045 117.064,158.894 117.546,159.777 117.962,160.685 118.311,161.609 118.592,162.541 118.803,163.473 118.945,164.396 119.017,165.301 119.021,166.180 118.957,167.025 118.827,167.826 118.632,168.578 118.375,169.271 118.058,169.900 117.685,170.458 117.257,170.938 116.780,171.336 116.256,171.647 115.690,171.867 115.086,171.992 114.449,172.020 113.782,171.950 113.091,171.779 112.380,171.509 111.654,171.139 110.918,170.670 110.177,170.105 109.435,169.447 108.697,168.699 107.967,167.866 107.249,166.952 106.548,165.963 105.868,164.905 105.211,163.786 104.582,162.613 103.983,161.393 103.417,160.134 102.885,158.845 102.391,157.536 101.936,156.214 101.520,154.889 101.145,153.570 100.811,152.267 100.518,150.988 100.266,149.743 100.053,148.540 99.880,147.389 99.744,146.296 99.643,145.270 99.577,144.318 99.541,143.447 99.533,142.663 99.551,141.972 99.591,141.378 99.650,140.887 99.724,140.501 99.809,140.223 99.903,140.056 100.000,140.000 100.097,140.056 100.191,140.223 100.276,140.501 100.350,140.887 100.409,141.378 100.449,141.972 100.467,142.663 100.459,143.447 100.423,144.318 100.357,145.270 100.256,146.296 100.120,147.389 99.947,148.540 99.734,149.743 99.482,150.988 99.189,152.267 98.855,153.570 98.480,154.889 98.064,156.214 97.609,157.536 97.115,158.845 96.583,160.134 96.017,161.393 95.418,162.613 94.789,163.786 94.132,164.905 93.452,165.963 92.751,166.952 92.033,167.866 91.303,168.699 90.565,169.447 89.823,170.105 89.082,170.670 88.346,171.139 87.620,171.509 86.909,171.779 86.218,171.950 85.551,172.020 84.914,171.992 84.310,171.867 83.744,171.647 83.220,171.336 82.743,170.938 82.315,170.458 81.942,169.900 81.625,169.271 81.368,168.578 81.173,167.826 81.043,167.025 80.979,166.180 80.983,165.301 81.055,164.396 81.197,163.473 81.408,162.541 81.689,161.609 82.038,160.685 82.454,159.777 82.936,158.894 83.482,158.045 84.089,157.237 84.755,156.478 85.477,155.774 86.251,155.133 87.074,154.560 87.940,154.061 88.847,153.641 89.789,153.304 90.763,153.054 91.761,152.893 92.781,152.824 93.816,152.848 94.862,152.966 95.913,153.177 96.964,153.480 98.009,153.874 99.045,154.355 100.064,154.922 101.064,155.570 102.038,156.293 102.984,157.088 103.895,157.948 104.770,158.866 105.603,159.835 106.392,160.849 107.133,161.899 107.825,162.977 108.464,164.074 109.050,165.182 109.580,166.293 110.054,167.396 110.470,168.484 110.830,169.547 111.133,170.577 111.379,171.565 111.570,172.503 111.707,173.383 111.792,174.198 111.826,174.940 111.813,175.603 111.756,176.180 111.656,176.668 111.518,177.060 111.345,177.352 111.140,177.542 110.908,177.627 110.652,177.605 110.377,177.475 110.087,177.237 109.785,176.890 109.477,176.438 109.166,175.881 108.856,175.223 108.551,174.468 108.255,173.619 107.971,172.682 107.704,171.663 107.455,170.568 107.229,169.404 107.027,168.179 106.853,166.899 106.707,165.575 106.592,164.214 106.509,162.825 106.459,161.417 106.442,160.000 106.459,158.583 106.509,157.175 106.592,155.786 106.707,154.425 106.853,153.101 107.027,151.821 107.229,150.596 107.455,149.432 107.704,148.337 107.971,147.318 108.255,146.381 108.551,145.532 108.856,144.777 109.166,144.119 109.477,143.562 109.785,143.110 110.087,142.763 110.377,142.525 110.652,142.395 110.908,142.373 111.140,142.458 111.345,142.648 111.518,142.940 111.656,143.332 111.756,143.820 111.813,144.397 111.826,145.060 111.792,145.802 111.707,146.617 111.570,147.497 111.379,148.435 111.133,149.423 110.830,150.453 110.470,151.516 110.054,152.604 109.580,153.707 109.050,154.818 108.464,155.926 107.825,157.023 107.133,158.101 106.392,159.151 105.603,160.165 104.770,161.134 103.895,162.052 102.984,162.912 102.038,163.707 101.064,164.430 100.064,165.078 99.045,165.645 98.009,166.126 96.964,166.520 95.913,166.823 94.862,167.034 93.816,167.152 92.781,167.176 91.761,167.107 90.763,166.946 89.789,166.696 88.847,166.359 87.940,165.939 87.074,165.440 86.251,164.867 85.477,164.226 84.755,163.522 84.089,162.763 83.482,161.955 82.936,161.106 82.454,160.223 82.038,159.315 81.689,158.391 81.408,157.459 81.197,156.527 81.055,155.604 80.983,154.699 80.979,153.820 81.043,152.975 81.173,152.174 81.368,151.422 81.625,150.729 81.942,150.100 82.315,149.542 82.743,149.062 83.220,148.664 83.744,148.353 84.310,148.133 84.914,148.008 85.551,147.980 86.218,148.050 86.909,148.221 87.620,148.491 88.346,148.861 89.082,149.330 89.823,149.895 90.565,150.553 91.303,151.301 92.033,152.134 92.751,153.048 93.452,154.037 94.132,155.095 94.789,156.214 95.418,157.387 96.017,158.607 96.583,159.866 97.115,161.155 97.609,162.464 98.064,163.786 98.480,165.111 98.855,166.430 99.189,167.733 99.482,169.012 99.734,170.257 99.947,171.460 100.120,172.611 100.256,173.704 100.357,174.730 100.423,175.682 100.459,176.553 100.467,177.337 100.449,178.028 100.409,178.622 100.350,179.113 100.276,179.499 100.191,179.777 100.097,179.944 100.000,180.000 99.903,179.944"  style="fill:none;stroke:#000;stroke-width:0.1953;opacity:1" stroke-linecap="round"/>
  <polyline points="40.000,180.000 39.887,179.942 39.777,179.769 39.675,179.481 39.582,179.081 39.503,178.572 39.441,177.958 39.399,177.243 39.380,176.434 39.386,175.535 39.420,174.553 39.484,173.497 39.580,172.373 39.710,171.190 39.876,169.958 40.078,168.685 40.318,167.381 40.596,166.056 40.911,164.718 41.265,163.379 41.657,162.049 42.086,160.736 42.550,159.451 43.049,158.204 43.581,157.002 44.144,155.856 44.736,154.773 45.353,153.761 45.995,152.828 46.656,151.979 47.335,151.222 48.028,150.560 48.732,149.999 49.443,149.542 50.156,149.192 50.869,148.952 51.578,148.821 52.278,148.800 52.967,148.890 53.639,149.087 54.292,149.391 54.921,149.797 55.524,150.302 56.096,150.902 56.635,151.589 57.138,152.360 57.602,153.205 58.024,154.119 58.403,155.093 58.736,156.119 59.021,157.188 59.258,158.290 59.444,159.416 59.580,160.558 59.665,161.704 59.699,162.845 59.682,163.971 59.615,165.073 59.499,166.141 59.334,167.166 59.123,168.139 58.867,169.051 58.568,169.895 58.230,170.663 57.853,171.348 57.442,171.943 56.999,172.444 56.527,172.845 56.031,173.143 55.512,173.334 54.976,173.415 54.425,173.385 53.864,173.244 53.296,172.990 52.725,172.627 52.155,172.155 51.588,171.576 51.030,170.896 50.483,170.117 49.950,169.245 49.436,168.287 48.941,167.248 48.470,166.135 48.024,164.957 47.607,163.721 47.219,162.437 46.862,161.113 46.539,159.759 46.249,158.384 45.993,156.999 45.773,155.613 45.587,154.236 45.437,152.879 45.320,151.550 45.237,150.260 45.185,149.018 45.165,147.832 45.173,146.712 45.208,145.665 45.268,144.698 45.350,143.820 45.451,143.035 45.568,142.349 45.699,141.768 45.841,141.294 45.989,140.932 46.140,140.683 46.292,140.549 46.440,140.531 46.581,140.628 46.712,140.840 46.828,141.163 46.928,141.596 47.007,142.135 47.063,142.775 47.092,143.510 47.092,144.336 47.061,145.245 46.995,146.231 46.894,147.284 46.754,148.398 46.576,149.563 46.357,150.771 46.096,152.011 45.794,153.274 45.449,154.551 45.063,155.831 44.634,157.104 44.165,158.362 43.655,159.593 43.107,160.789 42.522,161.941 41.902,163.039 41.249,164.076 40.566,165.043 39.855,165.933 39.120,166.741 38.363,167.458 37.588,168.082 36.799,168.606 35.999,169.027 35.192,169.342 34.381,169.550 33.571,169.648 32.766,169.637 31.969,169.518 31.185,169.290 30.416,168.958 29.668,168.523 28.943,167.990 28.244,167.363 27.576,166.648 26.941,165.851 26.343,164.979 25.783,164.038 25.264,163.037 24.789,161.985 24.358,160.890 23.974,159.761 23.638,158.608 23.350,157.440 23.111,156.267 22.922,155.100 22.782,153.947 22.691,152.818 22.648,151.724 22.652,150.672 22.701,149.673 22.794,148.735 22.929,147.866 23.104,147.073 23.316,146.363 23.562,145.744 23.840,145.220 24.146,144.796 24.478,144.478 24.831,144.267 25.202,144.167 25.588,144.179 25.985,144.304 26.390,144.543 26.798,144.894 27.207,145.355 27.612,145.925 28.010,146.598 28.398,147.372 28.772,148.242 29.131,149.200 29.469,150.242 29.786,151.360 30.079,152.546 30.345,153.792 30.583,155.089 30.792,156.429 30.969,157.801 31.113,159.197 31.226,160.607 31.305,162.020 31.350,163.426 31.363,164.816 31.344,166.180 31.294,167.508 31.213,168.791 31.103,170.020 30.967,171.186 30.807,172.281 30.623,173.297 30.420,174.228 30.200,175.068 29.966,175.809 29.720,176.449 29.467,176.982 29.210,177.405 28.952,177.716 28.696,177.913 28.446,177.995 28.207,177.963 27.980,177.818 27.770,177.561 27.580,177.195 27.414,176.723 27.274,176.151 27.164,175.482 27.087,174.723 27.044,173.880 27.039,172.961 27.073,171.973 27.148,170.924 27.267,169.823 27.430,168.679 27.637,167.502 27.891,166.300 28.191,165.084 28.537,163.863 28.928,162.648 29.365,161.448 29.847,160.273 30.371,159.132 30.936,158.034 31.541,156.988 32.183,156.003 32.859,155.086 33.568,154.246 34.306,153.487 35.070,152.817 35.856,152.241 36.662,151.763 37.483,151.387 38.315,151.116 39.156,150.953 40.000,150.899 40.844,150.953 41.685,151.116 42.517,151.387 43.338,151.763 44.144,152.241 44.930,152.817 45.694,153.487 46.432,154.246 47.141,155.086 47.817,156.003 48.459,156.988 49.064,158.034 49.629,159.132 50.153,160.273 50.635,161.448 51.072,162.648 51.463,163.863 51.809,165.084 52.109,166.300 52.363,167.502 52.570,168.679 52.733,169.823 52.852,170.924 52.927,171.973 52.961,172.961 52.956,173.880 52.913,174.723 52.836,175.482 52.726,176.151 52.586,176.723 52.420,177.195 52.230,177.561 52.020,177.818 51.793,177.963 51.554,177.995 51.304,177.913 51.048,177.716 50.790,177.405 50.533,176.982 50.280,176.449 50.034,175.809 49.800,175.068 49.580,174.228 49.377,173.297 49.193,172.281 49.033,171.186 48.897,170.020 48.787,168.791 48.706,167.508 48.656,166.180 48.637,164.816 48.650,163.426 48.695,162.020 48.774,160.607 48.887,159.197 49.031,157.801 49.208,156.429 49.417,155.089 49.655,153.792 49.921,152.546 50.214,151.360 50.531,150.242 50.869,149.200 51.228,148.242 51.602,147.372 51.990,146.598 52.388,145.925 52.793,145.355 53.202,144.894 53.610,144.543 54.015,144.304 54.412,144.179 54.798,144.167 55.169,144.267 55.522,144.478 55.854,144.796 56.160,145.220 56.438,145.744 56.684,146.363 56.896,147.073 57.071,147.866 57.206,148.735 57.299,149.673 57.348,150.672 57.352,151.724 57.309,152.818 57.218,153.947 57.078,155.100 56.889,156.267 56.650,157.440 56.362,158.608 56.026,159.761 55.642,160.890 55.211,161.985 54.736,163.037 54.217,164.038 53.657,164.979 53.059,165.851 52.424,166.648 51.756,167.363 51.057,167.990 50.332,168.523 49.584,168.958 48.815,169.290 48.031,169.518 47.234,169.637 46.429,169.648 45.619,169.550 44.808,169.342 44.001,169.027 43.201,168.606 42.412,168.082 41.637,167.458 40.880,166.741 40.145,165.933 39.434,165.043 38.751,164.076 38.098,163.039 37.478,161.941 36.893,160.789 36.345,159.593 35.835,158.362 35.366,157.104 34.937,155.831 34.551,154.551 34.206,153.274 33.904,152.011 33.643,150.771 33.424,149.563 33.246,148.398 33.106,147.284 33.005,146.231 32.939,145.245 32.908,144.336 32.908,143.510 32.937,142.775 32.993,142.135 33.072,141.596 33.172,141.163 33.288,140.840 33.419,140.628 33.560,140.531 33.708,140.549 33.860,140.683 34.011,140.932 34.159,141.294 34.301,141.768 34.432,142.349 34.549,143.035 34.650,143.820 34.732,144.698 34.792,145.665 34.827,146.712 34.835,147.832 34.815,149.018 34.763,150.260 34.680,151.550 34.563,152.879 34.413,154.236 34.227,155.613 34.007,156.999 33.751,158.384 33.461,159.759 33.138,161.113 32.781,162.437 32.393,163.721 31.976,164.957 31.530,166.135 31.059,167.248 30.564,168.287 30.050,169.245 29.517,170.117 28.970,170.896 28.412,171.576 27.845,172.155 27.275,172.627 26.704,172.990 26.136,173.244 25.575,173.385 25.024,173.415 24.488,173.334 23.969,173.143 23.473,172.845 23.001,172.444 22.558,171.943 22.147,171.348 21.770,170.663 21.432,169.895 21.133,169.051 20.877,168.139 20.666,167.166 20.501,166.141 20.385,165.073 20.318,163.971 20.301,162.845 20.335,161.704 20.420,160.558 20.556,159.416 20.742,158.290 20.979,157.188 21.264,156.119 21.597,155.093 21.976,154.119 22.398,153.205 22.862,152.360 23.365,151.589 23.904,150.902 24.476,150.302 25.079,149.797 25.708,149.391 26.361,149.087 27.033,148.890 27.722,148.800 28.422,148.821 29.131,148.952 29.844,149.192 30.557,149.542 31.268,149.999 31.972,150.560 32.665,151.222 33.344,151.979 34.005,152.828 34.647,153.761 35.264,154.773 35.856,155.856 36.419,157.002 36.951,158.204 37.450,159.451 37.914,160.736 38.343,162.049 38.735,163.379 39.089,164.718 39.404,166.056 39.682,167.381 39.922,168.685 40.124,169.958 40.290,171.190 40.420,172.373 40.516,173.497 40.580,174.553 40.614,175.535 40.620,176.434 40.601,177.243 40.559,177.958 40.497,178.572 40.418,179.081 40.325,179.481 40.223,179.769 40.113,179.942 40.000,180.000 39.887,179.942"  style="fill:none;stroke:#000;stroke-width:0.1953;opacity:1" stroke-linecap="round"/>
  <polyline points="40.000,120.000 39.124,119.978 38.253,119.911 37.394,119.801 36.552,119.648 35.733,119.451 34.942,119.213 34.185,118.934 33.466,118.616 32.791,118.260 32.164,117.868 31.589,117.442 31.071,116.983 30.612,116.494 30.218,115.977 29.890,115.434 29.630,114.867 29.443,114.281 29.328,113.676 29.288,113.055 29.323,112.422 29.434,111.780 29.622,111.130 29.884,110.476 30.222,109.820 30.633,109.166 31.116,108.516 31.669,107.872 32.289,107.238 32.973,106.616 33.718,106.007 34.521,105.415 35.377,104.841 36.282,104.289 37.232,103.758 38.221,103.252 39.245,102.771 40.298,102.318 41.375,101.892 42.470,101.497 43.577,101.131 44.690,100.796 45.804,100.492 46.913,100.219 48.010,99.978 49.090,99.768 50.147,99.589 51.176,99.440 52.170,99.320 53.125,99.230 54.035,99.166 54.895,99.129 55.701,99.116 56.449,99.127 57.134,99.159 57.752,99.210 58.301,99.279 58.777,99.364 59.177,99.461 59.501,99.569 59.744,99.686 59.908,99.809 59.990,99.936 59.990,100.064 59.908,100.191 59.744,100.314 59.501,100.431 59.177,100.539 58.777,100.636 58.301,100.721 57.752,100.790 57.134,100.841 56.449,100.873 55.701,100.884 54.895,100.871 54.035,100.834 53.125,100.770 52.170,100.680 51.176,100.560 50.147,100.411 49.090,100.232 48.010,100.022 46.913,99.781 45.804,99.508 44.690,99.204 43.577,98.869 42.470,98.503 41.375,98.108 40.298,97.682 39.245,97.229 38.221,96.748 37.232,96.242 36.282,95.711 35.377,95.159 34.521,94.585 33.718,93.993 32.973,93.384 32.289,92.762 31.669,92.128 31.116,91.484 30.633,90.834 30.222,90.180 29.884,89.524 29.622,88.870 29.434,88.220 29.323,87.578 29.288,86.945 29.328,86.324 29.443,85.719 29.630,85.133 29.890,84.566 30.218,84.023 30.612,83.506 31.071,83.017 31.589,82.558 32.164,82.132 32.791,81.740 33.466,81.384 34.185,81.066 34.942,80.787 35.733,80.549 36.552,80.352 37.394,80.199 38.253,80.089 39.124,80.022 40.000,80.000 40.876,80.022 41.747,80.089 42.606,80.199 43.448,80.352 44.267,80.549 45.058,80.787 45.815,81.066 46.534,81.384 47.209,81.740 47.836,82.132 48.411,82.558 48.929,83.017 49.388,83.506 49.782,84.023 50.110,84.566 50.370,85.133 50.557,85.719 50.672,86.324 50.712,86.945 50.677,87.578 50.566,88.220 50.378,88.870 50.116,89.524 49.778,90.180 49.367,90.834 48.884,91.484 48.331,92.128 47.711,92.762 47.027,93.384 46.282,93.993 45.479,94.585 44.623,95.159 43.718,95.711 42.768,96.242 41.779,96.748 40.755,97.229 39.702,97.682 38.625,98.108 37.530,98.503 36.423,98.869 35.310,99.204 34.196,99.508 33.087,99.781 31.990,100.022 30.910,100.232 29.853,100.411 28.824,100.560 27.830,100.680 26.875,100.770 25.965,100.834 25.105,100.871 24.299,100.884 23.551,100.873 22.866,100.841 22.248,100.790 21.699,100.721 21.223,100.636 20.823,100.539 20.499,100.431 20.256,100.314 20.092,100.191 20.010,100.064 20.010,99.936 20.092,99.809 20.256,99.686 20.499,99.569 20.823,99.461 21.223,99.364 21.699,99.279 22.248,99.210 22.866,99.159 23.551,99.127 24.299,99.116 25.105,99.129 25.965,99.166 26.875,99.230 27.830,99.320 28.824,99.440 29.853,99.589 30.910,99.768 31.990,99.978 33.087,100.219 34.196,100.492 35.310,100.796 36.423,101.131 37.530,101.497 38.625,101.892 39.702,102.318 40.755,102.771 41.779,103.252 42.768,103.758 43.718,104.289 44.623,104.841 45.479,105.415 46.282,106.007 47.027,106.616 47.711,107.238 48.331,107.872 48.884,108.516 49.367,109.166 49.778,109.820 50.116,110.476 50.378,111.130 50.566,111.780 50.677,112.422 50.712,113.055 50.672,113.676 50.557,114.281 50.370,114.867 50.110,115.434 49.782,115.977 49.388,116.494 48.929,116.983 48.411,117.442 47.836,117.868 47.209,118.260 46.534,118.616 45.815,118.934 45.058,119.213 44.267,119.451 43.448,119.648 42.606,119.801 41.747,119.911 40.876,119.978 40.000,120.000 39.124,119.978"  style="fill:none;stroke:#000;stroke-width:0.1953;opacity:1" stroke-linecap="round"/>
  <polyline points="40.000,60.000 39.637,59.977 39.276,59.908 38.920,59.792 38.570,59.631 38.230,59.425 37.900,59.175 37.584,58.882 37.284,58.546 37.001,58.169 36.737,57.752 36.494,57.296 36.275,56.804 36.080,56.276 35.912,55.716 35.771,55.123 35.659,54.502 35.578,53.853 35.528,53.179 35.510,52.483 35.526,51.767 35.575,51.032 35.659,50.282 35.778,49.520 35.932,48.747 36.121,47.967 36.345,47.181 36.603,46.393 36.897,45.605 37.224,44.820 37.585,44.041 37.978,43.269 38.403,42.508 38.859,41.759 39.344,41.025 39.856,40.309 40.396,39.612 40.960,38.938 41.547,38.286 42.156,37.661 42.784,37.063 43.430,36.493 44.091,35.955 44.765,35.449 45.450,34.975 46.144,34.537 46.843,34.134 47.547,33.767 48.252,33.437 48.956,33.144 49.656,32.890 50.350,32.674 51.036,32.496 51.710,32.356 52.371,32.254 53.016,32.189 53.643,32.162 54.249,32.170 54.832,32.214 55.390,32.293 55.921,32.404 56.422,32.548 56.893,32.723 57.330,32.926 57.733,33.157 58.099,33.414 58.428,33.695 58.717,33.998 58.966,34.320 59.173,34.661 59.338,35.017 59.460,35.387 59.538,35.769 59.571,36.159 59.559,36.556 59.503,36.957 59.402,37.360 59.256,37.763 59.065,38.163 58.830,38.557 58.552,38.945 58.231,39.322 57.868,39.688 57.464,40.039 57.021,40.374 56.539,40.691 56.020,40.988 55.466,41.263 54.879,41.513 54.260,41.739 53.611,41.937 52.934,42.107 52.232,42.247 51.506,42.356 50.759,42.433 49.993,42.478 49.211,42.488 48.415,42.465 47.607,42.407 46.791,42.314 45.968,42.186 45.141,42.023 44.313,41.826 43.487,41.593 42.664,41.327 41.848,41.027 41.041,40.694 40.245,40.330 39.463,39.935 38.697,39.511 37.950,39.058 37.222,38.579 36.518,38.075 35.838,37.547 35.184,36.998 34.558,36.430 33.963,35.844 33.399,35.242 32.867,34.628 32.370,34.002 31.907,33.368 31.481,32.727 31.092,32.083 30.741,31.438 30.427,30.793 30.153,30.153 29.917,29.518 29.720,28.893 29.562,28.278 29.443,27.678 29.362,27.093 29.319,26.527 29.313,25.982 29.343,25.460 29.409,24.964 29.509,24.495 29.641,24.055 29.806,23.647 30.001,23.273 30.224,22.933 30.474,22.631 30.750,22.366 31.049,22.141 31.369,21.957 31.709,21.815 32.066,21.715 32.438,21.659 32.823,21.647 33.218,21.680 33.622,21.758 34.032,21.881 34.446,22.049 34.861,22.262 35.276,22.519 35.687,22.821 36.093,23.166 36.491,23.554 36.880,23.983 37.256,24.453 37.619,24.962 37.965,25.509 38.294,26.093 38.603,26.711 38.890,27.362 39.154,28.045 39.394,28.756 39.608,29.494 39.794,30.257 39.952,31.042 40.081,31.847 40.179,32.670 40.245,33.508 40.281,34.358 40.283,35.218 40.254,36.085 40.191,36.957 40.096,37.831 39.968,38.704 39.808,39.574 39.616,40.437 39.392,41.292 39.138,42.136 38.854,42.966 38.541,43.780 38.201,44.575 37.834,45.349 37.442,46.101 37.026,46.826 36.589,47.525 36.131,48.194 35.655,48.832 35.163,49.437 34.656,50.008 34.137,50.543 33.607,51.041 33.070,51.501 32.527,51.922 31.980,52.302 31.433,52.641 30.887,52.939 30.344,53.196 29.808,53.410 29.280,53.582 28.763,53.713 28.259,53.801 27.770,53.849 27.300,53.855 26.850,53.822 26.421,53.749 26.017,53.638 25.640,53.490 25.290,53.307 24.971,53.089 24.684,52.838 24.430,52.556 24.211,52.245 24.028,51.906 23.883,51.541 23.777,51.153 23.710,50.744 23.685,50.316 23.700,49.870 23.758,49.410 23.858,48.938 24.000,48.456 24.185,47.967 24.413,47.472 24.683,46.975 24.995,46.477 25.349,45.982 25.744,45.492 26.178,45.008 26.652,44.534 27.164,44.071 27.712,43.621 28.296,43.188 28.914,42.772 29.563,42.376 30.243,42.002 30.952,41.650 31.687,41.324 32.447,41.024 33.228,40.752 34.030,40.509 34.850,40.296 35.685,40.114 36.532,39.964 37.390,39.846 38.256,39.762 39.127,39.711 40.000,39.694 40.873,39.711 41.744,39.762 42.610,39.846 43.468,39.964 44.315,40.114 45.150,40.296 45.970,40.509 46.772,40.752 47.553,41.024 48.313,41.324 49.048,41.650 49.757,42.002 50.437,42.376 51.086,42.772 51.704,43.188 52.288,43.621 52.836,44.071 53.348,44.534 53.822,45.008 54.256,45.492 54.651,45.982 55.005,46.477 55.317,46.975 55.587,47.472 55.815,47.967 56.000,48.456 56.142,48.938 56.242,49.410 56.300,49.870 56.315,50.316 56.290,50.744 56.223,51.153 56.117,51.541 55.972,51.906 55.789,52.245 55.570,52.556 55.316,52.838 55.029,53.089 54.710,53.307 54.360,53.490 53.983,53.638 53.579,53.749 53.150,53.822 52.700,53.855 52.230,53.849 51.741,53.801 51.237,53.713 50.720,53.582 50.192,53.410 49.656,53.196 49.113,52.939 48.567,52.641 48.020,52.302 47.473,51.922 46.930,51.501 46.393,51.041 45.863,50.543 45.344,50.008 44.837,49.437 44.345,48.832 43.869,48.194 43.411,47.525 42.974,46.826 42.558,46.101 42.166,45.349 41.799,44.575 41.459,43.780 41.146,42.966 40.862,42.136 40.608,41.292 40.384,40.437 40.192,39.574 40.032,38.704 39.904,37.831 39.809,36.957 39.746,36.085 39.717,35.218 39.719,34.358 39.755,33.508 39.821,32.670 39.919,31.847 40.048,31.042 40.206,30.257 40.392,29.494 40.606,28.756 40.846,28.045 41.110,27.362 41.397,26.711 41.706,26.093 42.035,25.509 42.381,24.962 42.744,24.453 43.120,23.983 43.509,23.554 43.907,23.166 44.313,22.821 44.724,22.519 45.139,22.262 45.554,22.049 45.968,21.881 46.378,21.758 46.782,21.680 47.177,21.647 47.562,21.659 47.934,21.715 48.291,21.815 48.631,21.957 48.951,22.141 49.250,22.366 49.526,22.631 49.776,22.933 49.999,23.273 50.194,23.647 50.359,24.055 50.491,24.495 50.591,24.964 50.657,25.460 50.687,25.982 50.681,26.527 50.638,27.093 50.557,27.678 50.438,28.278 50.280,28.893 50.083,29.518 49.847,30.153 49.573,30.793 49.259,31.438 48.908,32.083 48.519,32.727 48.093,33.368 47.630,34.002 47.133,34.628 46.601,35.242 46.037,35.844 45.442,36.430 44.816,36.998 44.162,37.547 43.482,38.075 42.778,38.579 42.050,39.058 41.303,39.511 40.537,39.935 39.755,40.330 38.959,40.694 38.152,41.027 37.336,41.327 36.513,41.593 35.687,41.826 34.859,42.023 34.032,42.186 33.209,42.314 32.393,42.407 31.585,42.465 30.789,42.488 30.007,42.478 29.241,42.433 28.494,42.356 27.768,42.247 27.066,42.107 26.389,41.937 25.740,41.739 25.121,41.513 24.534,41.263 23.980,40.988 23.461,40.691 22.979,40.374 22.536,40.039 22.132,39.688 21.769,39.322 21.448,38.945 21.170,38.557 20.935,38.163 20.744,37.763 20.598,37.360 20.497,36.957 20.441,36.556 20.429,36.159 20.462,35.769 20.540,35.387 20.662,35.017 20.827,34.661 21.034,34.320 21.283,33.998 21.572,33.695 21.901,33.414 22.267,33.157 22.670,32.926 23.107,32.723 23.578,32.548 24.079,32.404 24.610,32.293 25.168,32.214 25.751,32.170 26.357,32.162 26.984,32.189 27.629,32.254 28.290,32.356 28.964,32.496 29.650,32.674 30.344,32.890 31.044,33.144 31.748,33.437 32.453,33.767 33.157,34.134 33.856,34.537 34.550,34.975 35.235,35.449 35.909,35.955 36.570,36.493 37.216,37.063 37.844,37.661 38.453,38.286 39.040,38.938 39.604,39.612 40.144,40.309 40.656,41.025 41.141,41.759 41.597,42.508 42.022,43.269 42.415,44.041 42.776,44.820 43.103,45.605 43.397,46.393 43.655,47.181 43.879,47.967 44.068,48.747 44.222,49.520 44.341,50.282 44.425,51.032 44.474,51.767 44.490,52.483 44.472,53.179 44.422,53.853 44.341,54.502 44.229,55.123 44.088,55.716 43.920,56.276 43.725,56.804 43.506,57.296 43.263,57.752 42.999,58.169 42.716,58.546 42.416,58.882 42.100,59.175 41.770,59.425 41.430,59.631 41.080,59.792 40.724,59.908 40.363,59.977 40.000,60.000 39.637,59.977"  style="fill:none;stroke:#000;stroke-width:0.1953;opacity:1" stroke-linecap="round"/>
  <polyline points="99.343,59.978 100.000,60.000 100.657,59.978 101.310,59.913 101.958,59.805 102.596,59.653 103.221,59.460 103.831,59.224 104.422,58.947 104.992,58.629 105.538,58.272 106.057,57.876 106.546,57.442 107.004,56.972 107.427,56.467 107.814,55.928 108.163,55.357 108.471,54.755 108.738,54.125 108.960,53.467 109.138,52.783 109.270,52.076 109.356,51.347 109.393,50.598 109.382,49.831 109.323,49.048 109.215,48.252 109.059,47.443 108.855,46.625 108.602,45.800 108.303,44.969 107.957,44.135 107.567,43.300 107.132,42.465 106.656,41.634 106.139,40.807 105.583,39.987 104.991,39.176 104.364,38.376 103.705,37.589 103.017,36.815 102.302,36.058 101.563,35.319 100.802,34.599 100.023,33.900 99.229,33.224 98.424,32.571 97.609,31.943 96.789,31.340 95.967,30.765 95.146,30.218 94.330,29.700 93.522,29.212 92.726,28.754 91.944,28.327 91.180,27.931 90.438,27.567 89.720,27.235 89.030,26.935 88.370,26.668 87.744,26.432 87.155,26.229 86.605,26.057 86.096,25.916 85.631,25.807 85.213,25.728 84.843,25.679 84.523,25.659 84.255,25.668 84.040,25.704 83.881,25.767 83.777,25.856 83.730,25.969 83.740,26.106 83.808,26.266 83.935,26.447 84.119,26.649 84.362,26.869 84.662,27.107 85.020,27.361 85.433,27.631 85.901,27.914 86.424,28.210 86.998,28.518 87.623,28.835 88.297,29.160 89.017,29.493 89.782,29.832 90.588,30.176 91.433,30.524 92.315,30.874 93.231,31.226 94.177,31.577 95.150,31.928 96.147,32.278 97.165,32.624 98.200,32.967 99.249,33.306 100.307,33.640 101.371,33.968 102.438,34.290 103.504,34.604 104.565,34.912 105.617,35.211 106.657,35.502 107.680,35.785 108.684,36.060 109.664,36.325 110.618,36.582 111.542,36.830 112.432,37.070 113.285,37.301 114.099,37.523 114.870,37.738 115.595,37.945 116.273,38.144 116.900,38.336 117.475,38.522 117.994,38.702 118.458,38.876 118.862,39.046 119.207,39.212 119.491,39.374 119.713,39.533 119.872,39.690 119.968,39.845 120.000,40.000 119.968,40.155 119.872,40.310 119.713,40.467 119.491,40.626 119.207,40.788 118.862,40.954 118.458,41.124 117.994,41.298 117.475,41.478 116.900,41.664 116.273,41.856 115.595,42.055 114.870,42.262 114.099,42.477 113.285,42.699 112.432,42.930 111.542,43.170 110.618,43.418 109.664,43.675 108.684,43.940 107.680,44.215 106.657,44.498 105.617,44.789 104.565,45.088 103.504,45.396 102.438,45.710 101.371,46.032 100.307,46.360 99.249,46.694 98.200,47.033 97.165,47.376 96.147,47.722 95.150,48.072 94.177,48.423 93.231,48.774 92.315,49.126 91.433,49.476 90.588,49.824 89.782,50.168 89.017,50.507 88.297,50.840 87.623,51.165 86.998,51.482 86.424,51.790 85.901,52.086 85.433,52.369 85.020,52.639 84.662,52.893 84.362,53.131 84.119,53.351 83.935,53.553 83.808,53.734 83.740,53.894 83.730,54.031 83.777,54.144 83.881,54.233 84.040,54.296 84.255,54.332 84.523,54.341 84.843,54.321 85.213,54.272 85.631,54.193 86.096,54.084 86.605,53.943 87.155,53.771 87.744,53.568 88.370,53.332 89.030,53.065 89.720,52.765 90.438,52.433 91.180,52.069 91.944,51.673 92.726,51.246 93.522,50.788 94.330,50.300 95.146,49.782 95.967,49.235 96.789,48.660 97.609,48.057 98.424,47.429 99.229,46.776 100.023,46.100 100.802,45.401 101.563,44.681 102.302,43.942 103.017,43.185 103.705,42.411 104.364,41.624 104.991,40.824 105.583,40.013 106.139,39.193 106.656,38.366 107.132,37.535 107.567,36.700 107.957,35.865 108.303,35.031 108.602,34.200 108.855,33.375 109.059,32.557 109.215,31.748 109.323,30.952 109.382,30.169 109.393,29.402 109.356,28.653 109.270,27.924 109.138,27.217 108.960,26.533 108.738,25.875 108.471,25.245 108.163,24.643 107.814,24.072 107.427,23.533 107.004,23.028 106.546,22.558 106.057,22.124 105.538,21.728 104.992,21.371 104.422,21.053 103.831,20.776 103.221,20.540 102.596,20.347 101.958,20.195 101.310,20.087 100.657,20.022 100.000,20.000 99.343,20.022 98.690,20.087 98.042,20.195 97.404,20.347 96.779,20.540 96.169,20.776 95.578,21.053 95.008,21.371 94.462,21.728 93.943,22.124 93.454,22.558 92.996,23.028 92.573,23.533 92.186,24.072 91.837,24.643 91.529,25.245 91.262,25.875 91.040,26.533 90.862,27.217 90.730,27.924 90.644,28.653 90.607,29.402 90.618,30.169 90.677,30.952 90.785,31.748 90.941,32.557 91.145,33.375 91.398,34.200 91.697,35.031 92.043,35.865 92.433,36.700 92.868,37.535 93.344,38.366 93.861,39.193 94.417,40.013 95.009,40.824 95.636,41.624 96.295,42.411 96.983,43.185 97.698,43.942 98.437,44.681 99.198,45.401 99.977,46.100 100.771,46.776 101.576,47.429 102.391,48.057 103.211,48.660 104.033,49.235 104.854,49.782 105.670,50.300 106.478,50.788 107.274,51.246 108.056,51.673 108.820,52.069 109.562,52.433 110.280,52.765 110.970,53.065 111.630,53.332 112.256,53.568 112.845,53.771 113.395,53.943 113.904,54.084 114.369,54.193 114.787,54.272 115.157,54.321 115.477,54.341 115.745,54.332 115.960,54.296 116.119,54.233 116.223,54.144 116.270,54.031 116.260,53.894 116.192,53.734 116.065,53.553 115.881,53.351 115.638,53.131 115.338,52.893 114.980,52.639 114.567,52.369 114.099,52.086 113.576,51.790 113.002,51.482 112.377,51.165 111.703,50.840 110.983,50.507 110.218,50.168 109.412,49.824 108.567,49.476 107.685,49.126 106.769,48.774 105.823,48.423 104.850,48.072 103.853,47.722 102.835,47.376 101.800,47.033 100.751,46.694 99.693,46.360 98.629,46.032 97.562,45.710 96.496,45.396 95.435,45.088 94.383,44.789 93.343,44.498 92.320,44.215 91.316,43.940 90.336,43.675 89.382,43.418 88.458,43.170 87.568,42.930 86.715,42.699 85.901,42.477 85.130,42.262 84.405,42.055 83.727,41.856 83.100,41.664 82.525,41.478 82.006,41.298 81.542,41.124 81.138,40.954 80.793,40.788 80.509,40.626 80.287,40.467 80.128,40.310 80.032,40.155 80.000,40.000 80.032,39.845 80.128,39.690 80.287,39.533 80.509,39.374 80.793,39.212 81.138,39.046 81.542,38.876 82.006,38.702 82.525,38.522 83.100,38.336 83.727,38.144 84.405,37.945 85.130,37.738 85.901,37.523 86.715,37.301 87.568,37.070 88.458,36.830 89.382,36.582 90.336,36.325 91.316,36.060 92.320,35.785 93.343,35.502 94.383,35.211 95.435,34.912 96.496,34.604 97.562,34.290 98.629,33.968 99.693,33.640 100.751,33.306 101.800,32.967 102.835,32.624 103.853,32.278 104.850,31.928 105.823,31.577 106.769,31.226 107.685,30.874 108.567,30.524 109.412,30.176 110.218,29.832 110.983,29.493 111.703,29.160 112.377,28.835 113.002,28.518 113.576,28.210 114.099,27.914 114.567,27.631 114.980,27.361 115.338,27.107 115.638,26.869 115.881,26.649 116.065,26.447 116.192,26.266 116.260,26.106 116.270,25.969 116.223,25.856 116.119,25.767 115.960,25.704 115.745,25.668 115.477,25.659 115.157,25.679 114.787,25.728 114.369,25.807 113.904,25.916 113.395,26.057 112.845,26.229 112.256,26.432 111.630,26.668 110.970,26.935 110.280,27.235 109.562,27.567 108.820,27.931 108.056,28.327 107.274,28.754 106.478,29.212 105.670,29.700 104.854,30.218 104.033,30.765 103.211,31.340 102.391,31.943 101.576,32.571 100.771,33.224 99.977,33.900 99.198,34.599 98.437,35.319 97.698,36.058 96.983,36.815 96.295,37.589 95.636,38.376 95.009,39.176 94.417,39.987 93.861,40.807 93.344,41.634 92.868,42.465 92.433,43.300 92.043,44.135 91.697,44.969 91.398,45.800 91.145,46.625 90.941,47.443 90.785,48.252 90.677,49.048 90.618,49.831 90.607,50.598 90.644,51.347 90.730,52.076 90.862,52.783 91.040,53.467 91.262,54.125 91.529,54.755 91.837,55.357 92.186,55.928 92.573,56.467 92.996,56.972 93.454,57.442 93.943,57.876 94.462,58.272 95.008,58.629 95.578,58.947 96.169,59.224 96.779,59.460 97.404,59.653 98.042,59.805 98.690,59.913 99.343,59.978 100.000,60.000"  style="fill:none;stroke:#000;stroke-width:0.1953;opacity:1" stroke-linecap="round"/>
  <polyline points="159.319,59.971 160.000,60.000 160.681,59.971 161.360,59.885 162.032,59.741 162.695,59.540 163.346,59.283 163.982,58.970 164.601,58.602 165.198,58.181 165.772,57.708 166.321,57.184 166.841,56.611 167.330,55.990 167.786,55.324 168.207,54.614 168.591,53.862 168.936,53.071 169.240,52.243 169.503,51.381 169.722,50.487 169.898,49.564 170.028,48.614 170.112,47.641 170.150,46.648 170.141,45.636 170.085,44.610 169.983,43.572 169.835,42.526 169.640,41.474 169.400,40.420 169.117,39.366 168.789,38.317 168.420,37.274 168.011,36.241 167.563,35.221 167.077,34.218 166.557,33.233 166.004,32.269 165.420,31.331 164.808,30.419 164.171,29.537 163.510,28.687 162.829,27.872 162.131,27.094 161.418,26.355 160.695,25.658 159.962,25.003 159.225,24.393 158.485,23.830 157.747,23.315 157.013,22.849 156.287,22.434 155.571,22.070 154.869,21.759 154.184,21.501 153.519,21.296 152.877,21.146 152.261,21.050 151.673,21.009 151.117,21.021 150.594,21.088 150.108,21.209 149.660,21.382 149.253,21.608 148.888,21.885 148.568,22.212 148.293,22.589 148.067,23.014 147.889,23.484 147.760,24.000 147.683,24.559 147.656,25.159 147.681,25.798 147.759,26.475 147.888,27.186 148.069,27.931 148.301,28.706 148.584,29.509 148.917,30.337 149.298,31.189 149.727,32.061 150.203,32.951 150.722,33.856 151.285,34.774 151.888,35.701 152.529,36.635 153.206,37.574 153.917,38.514 154.659,39.452 155.428,40.387 156.223,41.316 157.040,42.235 157.875,43.143 158.726,44.036 159.589,44.912 160.462,45.770 161.339,46.606 162.219,47.418 163.096,48.204 163.969,48.963 164.833,49.692 165.685,50.389 166.521,51.052 167.338,51.681 168.132,52.273 168.901,52.827 169.640,53.341 170.348,53.815 171.020,54.248 171.654,54.639 172.247,54.986 172.797,55.290 173.302,55.549 173.758,55.764 174.164,55.935 174.517,56.060 174.817,56.141 175.062,56.176 175.250,56.168 175.380,56.116 175.452,56.020 175.464,55.882 175.417,55.701 175.311,55.480 175.144,55.219 174.918,54.918 174.634,54.580 174.291,54.206 173.891,53.797 173.435,53.354 172.924,52.879 172.361,52.374 171.747,51.841 171.084,51.280 170.375,50.695 169.621,50.086 168.826,49.456 167.992,48.807 167.123,48.141 166.221,47.459 165.290,46.764 164.333,46.058 163.354,45.342 162.356,44.619 161.343,43.892 160.319,43.161 159.288,42.429 158.253,41.697 157.219,40.969 156.189,40.245 155.167,39.528 154.158,38.820 153.164,38.121 152.191,37.435 151.241,36.762 150.318,36.104 149.427,35.463 148.570,34.840 147.751,34.236 146.973,33.654 146.240,33.093 145.553,32.556 144.917,32.044 144.333,31.556 143.804,31.095 143.333,30.661 142.921,30.255 142.569,29.877 142.281,29.529 142.056,29.210 141.896,28.920 141.803,28.661 141.775,28.433 141.815,28.235 141.921,28.068 142.095,27.931 142.335,27.825 142.640,27.749 143.010,27.703 143.445,27.687 143.941,27.700 144.498,27.742 145.114,27.812 145.787,27.910 146.515,28.035 147.294,28.186 148.122,28.363 148.997,28.565 149.915,28.791 150.873,29.040 151.868,29.310 152.896,29.603 153.953,29.915 155.035,30.246 156.139,30.596 157.261,30.962 158.396,31.345 159.540,31.742 160.689,32.153 161.840,32.577 162.987,33.013 164.126,33.458 165.254,33.913 166.366,34.377 167.458,34.847 168.526,35.324 169.565,35.805 170.573,36.290 171.545,36.779 172.477,37.268 173.367,37.759 174.210,38.250 175.004,38.739 175.746,39.227 176.432,39.711 177.061,40.192 177.629,40.667 178.135,41.138 178.577,41.601 178.952,42.058 179.260,42.507 179.499,42.947 179.668,43.378 179.767,43.800 179.795,44.210 179.751,44.610 179.637,44.998 179.452,45.374 179.196,45.737 178.872,46.087 178.479,46.423 178.019,46.746 177.494,47.054 176.906,47.347 176.256,47.625 175.548,47.888 174.783,48.135 173.964,48.366 173.095,48.581 172.178,48.780 171.217,48.962 170.215,49.127 169.176,49.275 168.103,49.406 167.001,49.520 165.874,49.617 164.725,49.696 163.559,49.757 162.380,49.801 161.192,49.828 160.000,49.837 158.808,49.828 157.620,49.801 156.441,49.757 155.275,49.696 154.126,49.617 152.999,49.520 151.897,49.406 150.824,49.275 149.785,49.127 148.783,48.962 147.822,48.780 146.905,48.581 146.036,48.366 145.217,48.135 144.452,47.888 143.744,47.625 143.094,47.347 142.506,47.054 141.981,46.746 141.521,46.423 141.128,46.087 140.804,45.737 140.548,45.374 140.363,44.998 140.249,44.610 140.205,44.210 140.233,43.800 140.332,43.378 140.501,42.947 140.740,42.507 141.048,42.058 141.423,41.601 141.865,41.138 142.371,40.667 142.939,40.192 143.568,39.711 144.254,39.227 144.996,38.739 145.790,38.250 146.633,37.759 147.523,37.268 148.455,36.779 149.427,36.290 150.435,35.805 151.474,35.324 152.542,34.847 153.634,34.377 154.746,33.913 155.874,33.458 157.013,33.013 158.160,32.577 159.311,32.153 160.460,31.742 161.604,31.345 162.739,30.962 163.861,30.596 164.965,30.246 166.047,29.915 167.104,29.603 168.132,29.310 169.127,29.040 170.085,28.791 171.003,28.565 171.878,28.363 172.706,28.186 173.485,28.035 174.213,27.910 174.886,27.812 175.502,27.742 176.059,27.700 176.555,27.687 176.990,27.703 177.360,27.749 177.665,27.825 177.905,27.931 178.079,28.068 178.185,28.235 178.225,28.433 178.197,28.661 178.104,28.920 177.944,29.210 177.719,29.529 177.431,29.877 177.079,30.255 176.667,30.661 176.196,31.095 175.667,31.556 175.083,32.044 174.447,32.556 173.760,33.093 173.027,33.654 172.249,34.236 171.430,34.840 170.573,35.463 169.682,36.104 168.759,36.762 167.809,37.435 166.836,38.121 165.842,38.820 164.833,39.528 163.811,40.245 162.781,40.969 161.747,41.697 160.712,42.429 159.681,43.161 158.657,43.892 157.644,44.619 156.646,45.342 155.667,46.058 154.710,46.764 153.779,47.459 152.877,48.141 152.008,48.807 151.174,49.456 150.379,50.086 149.625,50.695 148.916,51.280 148.253,51.841 147.639,52.374 147.076,52.879 146.565,53.354 146.109,53.797 145.709,54.206 145.366,54.580 145.082,54.918 144.856,55.219 144.689,55.480 144.583,55.701 144.536,55.882 144.548,56.020 144.620,56.116 144.750,56.168 144.938,56.176 145.183,56.141 145.483,56.060 145.836,55.935 146.242,55.764 146.698,55.549 147.203,55.290 147.753,54.986 148.346,54.639 148.980,54.248 149.652,53.815 150.360,53.341 151.099,52.827 151.868,52.273 152.662,51.681 153.479,51.052 154.315,50.389 155.167,49.692 156.031,48.963 156.904,48.204 157.781,47.418 158.661,46.606 159.538,45.770 160.411,44.912 161.274,44.036 162.125,43.143 162.960,42.235 163.777,41.316 164.572,40.387 165.341,39.452 166.083,38.514 166.794,37.574 167.471,36.635 168.112,35.701 168.715,34.774 169.278,33.856 169.797,32.951 170.273,32.061 170.702,31.189 171.083,30.337 171.416,29.509 171.699,28.706 171.931,27.931 172.112,27.186 172.241,26.475 172.319,25.798 172.344,25.159 172.317,24.559 172.240,24.000 172.111,23.484 171.933,23.014 171.707,22.589 171.432,22.212 171.112,21.885 170.747,21.608 170.340,21.382 169.892,21.209 169.406,21.088 168.883,21.021 168.327,21.009 167.739,21.050 167.123,21.146 166.481,21.296 165.816,21.501 165.131,21.759 164.429,22.070 163.713,22.434 162.987,22.849 162.253,23.315 161.515,23.830 160.775,24.393 160.038,25.003 159.305,25.658 158.582,26.355 157.869,27.094 157.171,27.872 156.490,28.687 155.829,29.537 155.192,30.419 154.580,31.331 153.996,32.269 153.443,33.233 152.923,34.218 152.437,35.221 151.989,36.241 151.580,37.274 151.211,38.317 150.883,39.366 150.600,40.420 150.360,41.474 150.165,42.526 150.017,43.572 149.915,44.610 149.859,45.636 149.850,46.648 149.888,47.641 149.972,48.614 150.102,49.564 150.278,50.487 150.497,51.381 150.760,52.243 151.064,53.071 151.409,53.862 151.793,54.614 152.214,55.324 152.670,55.990 153.159,56.611 153.679,57.184 154.228,57.708 154.802,58.181 155.399,58.602 156.018,58.970 156.654,59.283 157.305,59.540 157.968,59.741 158.640,59.885 159.319,59.971 160.000,60.000"  style="fill:none;stroke:#000;stroke-width:0.1953;opacity:1" stroke-linecap="round"/>
  <polyline points="160.535,119.949 160.000,120.000 159.465,119.949 158.931,119.797 158.397,119.543 157.865,119.191 157.335,118.741 156.807,118.196 156.282,117.558 155.760,116.833 155.243,116.022 154.730,115.131 154.222,114.164 153.721,113.127 153.225,112.025 152.737,110.864 152.258,109.650 151.787,108.390 151.325,107.091 150.875,105.759 150.436,104.402 150.009,103.026 149.596,101.640 149.197,100.250 148.814,98.864 148.447,97.489 148.098,96.133 147.768,94.802 147.458,93.504 147.169,92.245 146.902,91.033 146.659,89.872 146.440,88.770 146.247,87.732 146.081,86.763 145.943,85.868 145.834,85.052 145.755,84.319 145.707,83.672 145.691,83.114 145.708,82.649 145.759,82.277 145.844,82.002 145.965,81.822 146.121,81.741 146.314,81.756 146.543,81.868 146.809,82.075 147.112,82.376 147.452,82.769 147.830,83.252 148.244,83.820 148.695,84.470 149.183,85.199 149.706,86.002 150.263,86.873 150.855,87.809 151.480,88.803 152.137,89.849 152.825,90.942 153.541,92.074 154.286,93.240 155.057,94.433 155.851,95.646 156.668,96.871 157.506,98.103 158.361,99.333 159.232,100.556 160.117,101.763 161.012,102.950 161.915,104.108 162.825,105.231 163.737,106.314 164.649,107.350 165.558,108.334 166.461,109.261 167.356,110.124 168.239,110.921 169.107,111.647 169.958,112.297 170.789,112.870 171.596,113.361 172.376,113.769 173.128,114.091 173.847,114.327 174.532,114.475 175.179,114.536 175.787,114.508 176.352,114.394 176.873,114.195 177.347,113.911 177.772,113.545 178.147,113.100 178.470,112.579 178.738,111.986 178.952,111.324 179.109,110.598 179.209,109.812 179.250,108.972 179.233,108.083 179.157,107.150 179.021,106.180 178.826,105.179 178.572,104.152 178.260,103.106 177.889,102.048 177.462,100.985 176.978,99.922 176.441,98.866 175.850,97.824 175.207,96.802 174.515,95.806 173.776,94.843 172.992,93.918 172.165,93.038 171.298,92.206 170.394,91.429 169.456,90.711 168.486,90.056 167.488,89.468 166.465,88.952 165.421,88.510 164.358,88.144 163.282,87.857 162.194,87.651 161.099,87.527 160.000,87.485 158.901,87.527 157.806,87.651 156.718,87.857 155.642,88.144 154.579,88.510 153.535,88.952 152.512,89.468 151.514,90.056 150.544,90.711 149.606,91.429 148.702,92.206 147.835,93.038 147.008,93.918 146.224,94.843 145.485,95.806 144.793,96.802 144.150,97.824 143.559,98.866 143.022,99.922 142.538,100.985 142.111,102.048 141.740,103.106 141.428,104.152 141.174,105.179 140.979,106.180 140.843,107.150 140.767,108.083 140.750,108.972 140.791,109.812 140.891,110.598 141.048,111.324 141.262,111.986 141.530,112.579 141.853,113.100 142.228,113.545 142.653,113.911 143.127,114.195 143.648,114.394 144.213,114.508 144.821,114.536 145.468,114.475 146.153,114.327 146.872,114.091 147.624,113.769 148.404,113.361 149.211,112.870 150.042,112.297 150.893,111.647 151.761,110.921 152.644,110.124 153.539,109.261 154.442,108.334 155.351,107.350 156.263,106.314 157.175,105.231 158.085,104.108 158.988,102.950 159.883,101.763 160.768,100.556 161.639,99.333 162.494,98.103 163.332,96.871 164.149,95.646 164.943,94.433 165.714,93.240 166.459,92.074 167.175,90.942 167.863,89.849 168.520,88.803 169.145,87.809 169.737,86.873 170.294,86.002 170.817,85.199 171.305,84.470 171.756,83.820 172.170,83.252 172.548,82.769 172.888,82.376 173.191,82.075 173.457,81.868 173.686,81.756 173.879,81.741 174.035,81.822 174.156,82.002 174.241,82.277 174.292,82.649 174.309,83.114 174.293,83.672 174.245,84.319 174.166,85.052 174.057,85.868 173.919,86.763 173.753,87.732 173.560,88.770 173.341,89.872 173.098,91.033 172.831,92.245 172.542,93.504 172.232,94.802 171.902,96.133 171.553,97.489 171.186,98.864 170.803,100.250 170.404,101.640 169.991,103.026 169.564,104.402 169.125,105.759 168.675,107.091 168.213,108.390 167.742,109.650 167.263,110.864 166.775,112.025 166.279,113.127 165.778,114.164 165.270,115.131 164.757,116.022 164.240,116.833 163.718,117.558 163.193,118.196 162.665,118.741 162.135,119.191 161.603,119.543 161.069,119.797 160.535,119.949 160.000,120.000"  style="fill:none;stroke:#000;stroke-width:0.1953;opacity:1" stroke-linecap="round"/>
  <polyline points="100.000,120.000 99.691,119.963 99.386,119.853 99.088,119.670 98.800,119.415 98.525,119.089 98.268,118.694 98.030,118.232 97.816,117.705 97.627,117.116 97.467,116.467 97.337,115.762 97.241,115.004 97.181,114.197 97.158,113.344 97.173,112.450 97.229,111.520 97.327,110.556 97.466,109.565 97.648,108.551 97.874,107.518 98.142,106.472 98.453,105.417 98.806,104.359 99.200,103.302 99.634,102.250 100.107,101.210 100.617,100.184 101.162,99.179 101.739,98.199 102.347,97.246 102.982,96.327 103.642,95.444 104.324,94.601 105.023,93.802 105.737,93.050 106.463,92.347 107.196,91.695 107.932,91.099 108.668,90.558 109.400,90.075 110.124,89.650 110.835,89.286 111.529,88.982 112.204,88.738 112.854,88.555 113.475,88.433 114.065,88.369 114.619,88.363 115.134,88.414 115.606,88.520 116.033,88.679 116.411,88.888 116.737,89.145 117.009,89.448 117.226,89.792 117.383,90.175 117.481,90.593 117.517,91.043 117.491,91.520 117.401,92.022 117.247,92.543 117.029,93.080 116.746,93.628 116.400,94.184 115.990,94.743 115.519,95.301 114.987,95.853 114.395,96.397 113.747,96.928 113.044,97.441 112.288,97.935 111.483,98.404 110.631,98.845 109.736,99.257 108.801,99.634 107.830,99.976 106.827,100.280 105.796,100.542 104.741,100.763 103.666,100.940 102.577,101.071 101.476,101.157 100.369,101.196 99.261,101.188 98.156,101.134 97.059,101.032 95.974,100.886 94.905,100.694 93.857,100.459 92.835,100.183 91.842,99.866 90.883,99.512 89.961,99.123 89.080,98.701 88.244,98.250 87.455,97.773 86.716,97.272 86.031,96.753 85.401,96.217 84.829,95.670 84.317,95.115 83.866,94.556 83.478,93.998 83.152,93.444 82.891,92.899 82.694,92.367 82.562,91.852 82.493,91.358 82.488,90.890 82.545,90.450 82.663,90.043 82.840,89.673 83.075,89.342 83.366,89.054 83.710,88.813 84.104,88.620 84.546,88.479 85.033,88.391 85.562,88.359 86.128,88.384 86.729,88.467 87.360,88.610 88.019,88.813 88.700,89.077 89.401,89.401 90.116,89.785 90.843,90.229 91.577,90.732 92.313,91.291 93.049,91.907 93.780,92.575 94.502,93.295 95.212,94.064 95.906,94.878 96.580,95.734 97.232,96.630 97.859,97.560 98.457,98.522 99.023,99.512 99.557,100.524 100.055,101.555 100.515,102.600 100.936,103.654 101.317,104.712 101.656,105.770 101.952,106.822 102.206,107.864 102.417,108.891 102.585,109.898 102.711,110.881 102.794,111.834 102.836,112.753 102.839,113.633 102.803,114.471 102.730,115.262 102.623,116.003 102.483,116.690 102.313,117.319 102.116,117.888 101.893,118.394 101.648,118.833 101.385,119.206 101.105,119.508 100.814,119.739 100.513,119.898 100.206,119.984 99.897,119.996"  style="fill:none;stroke:#000;stroke-width:0.1953;opacity:1" stroke-linecap="round"/>
</svg>