<svg xmlns="http://www.w3.org/2000/svg" xmlns:inkscape="http://www.inkscape.org/namespaces/inkscape" xmlns:xlink="http://www.w3.org/1999/xlink" width="1920px" height="1080px">

<g inkscape:groupmode="layer" id="Sat Oct  2 00:29:21 2021">

<g id="Sv_0">  <!-- start Sv_0 -->

<g id="caras_bordes.Sv_0" stroke-width="1.0px" stroke-linejoin="bevel" stroke-linecap="round">
  <polygon stroke="rgb(75,196,30)" fill="rgb(75,196,30)" points="470.5496,372.0348 533.1191,307.6068 527.2675,316.1835 475.862,376.6967 " opacity="0.9" />
  <polygon stroke="rgb(75,196,30)" fill="rgb(75,196,30)" points="438.3698,489.3988 523.024,435.0544 523.8101,437.8892 426.4186,493.521 " opacity="0.9" />
  <polygon stroke="rgb(75,196,30)" fill="rgb(75,196,30)" points="523.024,435.0544 586.2999,362.669 598.2546,360.3824 523.8101,437.8892 " opacity="0.9" />
  <polygon stroke="rgb(75,196,30)" fill="rgb(75,196,30)" points="400.4609,414.3339 470.5496,372.0348 475.862,376.6967 414.9541,419.1767 " opacity="0.9" />
  <polygon stroke="rgb(75,196,30)" fill="rgb(75,196,30)" points="475.862,376.6967 527.2675,316.1835 536.4309,331.0588 489.5537,392.6546 " opacity="0.9" />
  <polygon stroke="rgb(75,196,30)" fill="rgb(75,196,30)" points="439.2159,471.1714 510.4025,418.4836 523.024,435.0544 438.3698,489.3988 " opacity="0.9" />
  <polygon stroke="rgb(75,196,30)" fill="rgb(75,196,30)" points="510.4025,418.4836 561.5673,350.4021 586.2999,362.669 523.024,435.0544 " opacity="0.9" />
  <polygon stroke="rgb(75,196,30)" fill="rgb(75,196,30)" points="414.9541,419.1767 475.862,376.6967 489.5537,392.6546 428.6036,440.1639 " opacity="0.9" />
  <polygon stroke="rgb(75,196,30)" fill="rgb(75,196,30)" points="489.5537,392.6546 536.4309,331.0588 561.5673,350.4021 510.4025,418.4836 " opacity="0.9" />
  <polygon stroke="rgb(75,196,30)" fill="rgb(75,196,30)" points="428.6036,440.1639 489.5537,392.6546 510.4025,418.4836 439.2159,471.1714 " opacity="0.9" />
  <polygon stroke="rgb(75,196,30)" fill="rgb(75,196,30)" points="527.2675,316.1835 558.9832,246.839 562.108,266.1102 536.4309,331.0588 " opacity="0.9" />
  <polygon stroke="rgb(75,196,30)" fill="rgb(75,196,30)" points="586.2999,362.669 616.5112,286.5878 636.1294,278.9582 598.2546,360.3824 " opacity="0.9" />
  <polygon stroke="rgb(75,196,30)" fill="rgb(75,196,30)" points="336.9548,429.1929 400.4609,414.3339 414.9541,419.1767 354.8271,437.1899 " opacity="0.9" />
  <polygon stroke="rgb(75,196,30)" fill="rgb(75,196,30)" points="361.6094,496.1603 439.2159,471.1714 438.3698,489.3988 347.3663,512.5274 " opacity="0.9" />
  <polygon stroke="rgb(75,196,30)" fill="rgb(75,196,30)" points="561.5673,350.4021 584.5801,280.3741 616.5112,286.5878 586.2999,362.669 " opacity="0.9" />
  <polygon stroke="rgb(75,196,30)" fill="rgb(75,196,30)" points="536.4309,331.0588 562.108,266.1102 584.5801,280.3741 561.5673,350.4021 " opacity="0.9" />
  <polygon stroke="rgb(75,196,30)" fill="rgb(75,196,30)" points="354.8271,437.1899 414.9541,419.1767 428.6036,440.1639 363.9794,464.673 " opacity="0.9" />
  <polygon stroke="rgb(75,196,30)" fill="rgb(75,196,30)" points="363.9794,464.673 428.6036,440.1639 439.2159,471.1714 361.6094,496.1603 " opacity="0.9" />
  <polygon stroke="rgb(75,196,30)" fill="rgb(75,196,30)" points="558.9832,246.839 562.8951,180.3978 560.5717,206.225 562.108,266.1102 " opacity="0.9" />
  <polygon stroke="rgb(75,196,30)" fill="rgb(75,196,30)" points="636.1294,278.9582 632.7017,210.7825 644.308,185.4464 642.4434,259.9255 " opacity="0.9" />
  <polygon stroke="rgb(75,196,30)" fill="rgb(75,196,30)" points="268.7812,496.552 347.3663,512.5274 326.0053,513.1794 244.2354,490.696 " opacity="0.9" />
  <polygon stroke="rgb(75,196,30)" fill="rgb(75,196,30)" points="562.108,266.1102 560.5717,206.225 577.209,220.4229 584.5801,280.3741 " opacity="0.9" />
  <polygon stroke="rgb(75,196,30)" fill="rgb(75,196,30)" points="291.2279,416.8022 336.9548,429.1929 354.8271,437.1899 307.3072,430.2397 " opacity="0.9" />
  <polygon stroke="rgb(75,196,30)" fill="rgb(75,196,30)" points="616.5112,286.5878 609.2861,222.5123 632.7017,210.7825 636.1294,278.9582 " opacity="0.9" />
  <polygon stroke="rgb(75,196,30)" fill="rgb(75,196,30)" points="584.5801,280.3741 577.209,220.4229 609.2861,222.5123 616.5112,286.5878 " opacity="0.9" />
  <polygon stroke="rgb(75,196,30)" fill="rgb(75,196,30)" points="294.9312,485.2446 361.6094,496.1603 347.3663,512.5274 268.7812,496.552 " opacity="0.9" />
  <polygon stroke="rgb(75,196,30)" fill="rgb(75,196,30)" points="307.3072,430.2397 354.8271,437.1899 363.9794,464.673 308.0502,460.2448 " opacity="0.9" />
  <polygon stroke="rgb(75,196,30)" fill="rgb(75,196,30)" points="308.0502,460.2448 363.9794,464.673 361.6094,496.1603 294.9312,485.2446 " opacity="0.9" />
  <polygon stroke="rgb(75,196,30)" fill="rgb(75,196,30)" points="560.5717,206.225 531.0454,161.0731 542.3726,179.5779 577.209,220.4229 " opacity="0.9" />
  <polygon stroke="rgb(75,196,30)" fill="rgb(75,196,30)" points="644.308,185.4464 603.5077,139.6168 599.3506,112.0193 637.7417,164.9764 " opacity="0.9" />
  <polygon stroke="rgb(75,196,30)" fill="rgb(75,196,30)" points="577.209,220.4229 542.3726,179.5779 569.2277,181.7386 609.2861,222.5123 " opacity="0.9" />
  <polygon stroke="rgb(75,196,30)" fill="rgb(75,196,30)" points="632.7017,210.7825 592.2132,168.2382 603.5077,139.6168 644.308,185.4464 " opacity="0.9" />
  <polygon stroke="rgb(75,196,30)" fill="rgb(75,196,30)" points="609.2861,222.5123 569.2277,181.7386 592.2132,168.2382 632.7017,210.7825 " opacity="0.9" />
  <polygon stroke="rgb(75,196,30)" fill="rgb(75,196,30)" points="220.2691,441.7341 268.7812,496.552 244.2354,490.696 199.2196,430.0177 " opacity="0.9" />
  <polygon stroke="rgb(75,196,30)" fill="rgb(75,196,30)" points="281.0649,399.4113 307.3072,430.2397 308.0502,460.2448 273.2567,425.6074 " opacity="0.9" />
  <polygon stroke="rgb(75,196,30)" fill="rgb(75,196,30)" points="252.5785,440.5276 294.9312,485.2446 268.7812,496.552 220.2691,441.7341 " opacity="0.9" />
  <polygon stroke="rgb(75,196,30)" fill="rgb(75,196,30)" points="273.2567,425.6074 308.0502,460.2448 294.9312,485.2446 252.5785,440.5276 " opacity="0.9" />
  <polygon stroke="rgb(75,196,30)" fill="rgb(75,196,30)" points="542.3726,179.5779 486.9413,163.407 506.4808,169.3643 569.2277,181.7386 " opacity="0.9" />
  <polygon stroke="rgb(75,196,30)" fill="rgb(75,196,30)" points="599.3506,112.0193 525.8077,99.1245 511.4383,84.5622 579.6785,102.1794 " opacity="0.9" />
  <polygon stroke="rgb(75,196,30)" fill="rgb(75,196,30)" points="569.2277,181.7386 506.4808,169.3643 525.2667,157.0098 592.2132,168.2382 " opacity="0.9" />
  <polygon stroke="rgb(75,196,30)" fill="rgb(75,196,30)" points="603.5077,139.6168 531.3875,131.1762 525.8077,99.1245 599.3506,112.0193 " opacity="0.9" />
  <polygon stroke="rgb(75,196,30)" fill="rgb(75,196,30)" points="282.0163,349.1599 281.0649,399.4113 273.2567,425.6074 269.4312,365.494 " opacity="0.9" />
  <polygon stroke="rgb(75,196,30)" fill="rgb(75,196,30)" points="592.2132,168.2382 525.2667,157.0098 531.3875,131.1762 603.5077,139.6168 " opacity="0.9" />
  <polygon stroke="rgb(75,196,30)" fill="rgb(75,196,30)" points="213.6798,357.4019 220.2691,441.7341 199.2196,430.0177 198.5272,341.7725 " opacity="0.9" />
  <polygon stroke="rgb(75,196,30)" fill="rgb(75,196,30)" points="269.4312,365.494 273.2567,425.6074 252.5785,440.5276 245.2618,367.8192 " opacity="0.9" />
  <polygon stroke="rgb(75,196,30)" fill="rgb(75,196,30)" points="245.2618,367.8192 252.5785,440.5276 220.2691,441.7341 213.6798,357.4019 " opacity="0.9" />
  <polygon stroke="rgb(75,196,30)" fill="rgb(75,196,30)" points="511.4383,84.5622 420.3447,109.0721 406.0186,105.4526 490.0343,88.0116 " opacity="0.9" />
  <polygon stroke="rgb(75,196,30)" fill="rgb(75,196,30)" points="506.4808,169.3643 433.9073,184.6084 445.275,179.2187 525.2667,157.0098 " opacity="0.9" />
  <polygon stroke="rgb(75,196,30)" fill="rgb(75,196,30)" points="241.3079,245.2864 198.5272,341.7725 202.1047,322.197 246.0332,235.8823 " opacity="0.9" />
  <polygon stroke="rgb(75,196,30)" fill="rgb(75,196,30)" points="312.472,287.8067 282.0163,349.1599 269.4312,365.494 300.9789,290.9705 " opacity="0.9" />
  <polygon stroke="rgb(75,196,30)" fill="rgb(75,196,30)" points="525.8077,99.1245 433.988,128.7988 420.3447,109.0721 511.4383,84.5622 " opacity="0.9" />
  <polygon stroke="rgb(75,196,30)" fill="rgb(75,196,30)" points="525.2667,157.0098 445.275,179.2187 445.2076,159.9265 531.3875,131.1762 " opacity="0.9" />
  <polygon stroke="rgb(75,196,30)" fill="rgb(75,196,30)" points="531.3875,131.1762 445.2076,159.9265 433.988,128.7988 525.8077,99.1245 " opacity="0.9" />
  <polygon stroke="rgb(75,196,30)" fill="rgb(75,196,30)" points="251.5722,260.4094 213.6798,357.4019 198.5272,341.7725 241.3079,245.2864 " opacity="0.9" />
  <polygon stroke="rgb(75,196,30)" fill="rgb(75,196,30)" points="316.4636,160.9655 241.3079,245.2864 246.0332,235.8823 317.2496,163.8003 " opacity="0.9" />
  <polygon stroke="rgb(75,196,30)" fill="rgb(75,196,30)" points="300.9789,290.9705 269.4312,365.494 245.2618,367.8192 277.4498,279.7671 " opacity="0.9" />
  <polygon stroke="rgb(75,196,30)" fill="rgb(75,196,30)" points="277.4498,279.7671 245.2618,367.8192 213.6798,357.4019 251.5722,260.4094 " opacity="0.9" />
  <polygon stroke="rgb(75,196,30)" fill="rgb(75,196,30)" points="420.3447,109.0721 326.3377,171.6332 316.4636,160.9655 406.0186,105.4526 " opacity="0.9" />
  <polygon stroke="rgb(75,196,30)" fill="rgb(75,196,30)" points="369.7241,226.8199 312.472,287.8067 300.9789,290.9705 363.4509,217.6482 " opacity="0.9" />
  <polygon stroke="rgb(75,196,30)" fill="rgb(75,196,30)" points="445.275,179.2187 369.7241,226.8199 363.4509,217.6482 445.2076,159.9265 " opacity="0.9" />
  <polygon stroke="rgb(75,196,30)" fill="rgb(75,196,30)" points="326.3377,171.6332 251.5722,260.4094 241.3079,245.2864 316.4636,160.9655 " opacity="0.9" />
  <polygon stroke="rgb(75,196,30)" fill="rgb(75,196,30)" points="433.988,128.7988 344.75,193.9335 326.3377,171.6332 420.3447,109.0721 " opacity="0.9" />
  <polygon stroke="rgb(75,196,30)" fill="rgb(75,196,30)" points="445.2076,159.9265 363.4509,217.6482 344.75,193.9335 433.988,128.7988 " opacity="0.9" />
  <polygon stroke="rgb(75,196,30)" fill="rgb(75,196,30)" points="363.4509,217.6482 300.9789,290.9705 277.4498,279.7671 344.75,193.9335 " opacity="0.9" />
  <polygon stroke="rgb(75,196,30)" fill="rgb(75,196,30)" points="344.75,193.9335 277.4498,279.7671 251.5722,260.4094 326.3377,171.6332 " opacity="0.9" />
</g>

</g>  <!-- end Sv_0 -->

</g>

</svg>

