<svg xmlns="http://www.w3.org/2000/svg" xmlns:inkscape="http://www.inkscape.org/namespaces/inkscape" xmlns:xlink="http://www.w3.org/1999/xlink" width="500px" height="500px">

<g inkscape:groupmode="layer" id="Sat Oct  2 11:10:56 2021">

<g id="Sv_0">  <!-- start Sv_0 -->

<g id="outline"><rect fill="none" stroke="black" width="500" height="500"/></g>
<g id="ring"><circle fill="none" stroke="black" strokeWidth="10" cx="250" cy="250" r="250"/></g>
<g id="caras_bordes.Sv_0" stroke-width="1.0px" stroke-linejoin="miter" stroke-linecap="round" transform="translate(-165, -50)">
  <polygon stroke="rgb(1,3,0)" fill="rgb(1,3,0)" points="586.0483,396.9272 567.9732,435.9054 584.1818,404.5287 608.1057,356.3889 618.2135,334.7829 " opacity="0.9" />
  <polygon stroke="rgb(3,8,1)" fill="rgb(3,8,1)" points="561.9888,144.3826 604.1943,243.6981 619.8274,275.4033 610.9355,250.4846 589.4907,200.6036 " opacity="0.9" />
  <polygon stroke="rgb(11,32,4)" fill="rgb(11,32,4)" points="208.5243,296.9188 240.7064,251.6808 265.2304,191.3043 265.201,171.2486 244.4902,205.847 " opacity="0.9" />
  <polygon stroke="rgb(17,47,6)" fill="rgb(17,47,6)" points="586.0483,396.9272 493.4789,468.3258 485.9595,488.4529 524.0685,470.7802 567.9732,435.9054 " opacity="0.9" />
  <polygon stroke="rgb(17,48,7)" fill="rgb(17,48,7)" points="335.1563,106.9789 355.9189,125.1033 420.6013,121.3908 459.537,106.8906 433.5574,98.7646 " opacity="0.9" />
  <polygon stroke="rgb(23,63,9)" fill="rgb(23,63,9)" points="335.1563,106.9789 265.201,171.2486 265.2304,191.3043 314.077,167.6041 355.9189,125.1033 " opacity="0.9" />
  <polygon stroke="rgb(27,75,10)" fill="rgb(27,75,10)" points="340.6065,489.184 431.5882,500.4485 485.9595,488.4529 493.4789,468.3258 436.6061,461.5999 " opacity="0.9" />
  <polygon stroke="rgb(27,76,10)" fill="rgb(27,76,10)" points="586.0483,396.9272 618.2135,334.7829 619.8274,275.4033 604.1943,243.6981 585.1796,278.3896 " opacity="0.9" />
  <polygon stroke="rgb(32,91,13)" fill="rgb(32,91,13)" points="208.5243,296.9188 240.0819,374.3097 263.406,360.5176 264.2773,292.5618 240.7064,251.6808 " opacity="0.9" />
  <polygon stroke="rgb(35,98,14)" fill="rgb(35,98,14)" points="340.6065,489.184 313.0768,404.1393 263.406,360.5176 240.0819,374.3097 262.2557,422.9462 " opacity="0.9" />
  <polygon stroke="rgb(42,119,16)" fill="rgb(42,119,16)" points="561.9888,144.3826 459.537,106.8906 420.6013,121.3908 446.5723,161.9809 514.5395,182.6218 " opacity="0.9" />
  <polygon stroke="rgb(47,131,18)" fill="rgb(47,131,18)" points="561.9888,144.3826 514.5395,182.6218 536.5544,248.0591 585.1796,278.3896 604.1943,243.6981 " opacity="0.9" />
  <polygon stroke="rgb(55,155,21)" fill="rgb(55,155,21)" points="360.9842,245.1377 314.077,167.6041 265.2304,191.3043 240.7064,251.6808 264.2773,292.5618 " opacity="0.9" />
  <polygon stroke="rgb(59,166,23)" fill="rgb(59,166,23)" points="360.9842,245.1377 446.5723,161.9809 420.6013,121.3908 355.9189,125.1033 314.077,167.6041 " opacity="0.9" />
  <polygon stroke="rgb(60,169,23)" fill="rgb(60,169,23)" points="586.0483,396.9272 495.1192,367.1777 433.5718,409.4554 436.6061,461.5999 493.4789,468.3258 " opacity="0.9" />
  <polygon stroke="rgb(62,173,24)" fill="rgb(62,173,24)" points="340.6065,489.184 436.6061,461.5999 433.5718,409.4554 366.276,377.5493 313.0768,404.1393 " opacity="0.9" />
  <polygon stroke="rgb(69,194,27)" fill="rgb(69,194,27)" points="586.0483,396.9272 585.1796,278.3896 536.5544,248.0591 487.1417,293.3795 495.1192,367.1777 " opacity="0.9" />
  <polygon stroke="rgb(72,202,28)" fill="rgb(72,202,28)" points="360.9842,245.1377 264.2773,292.5618 263.406,360.5176 313.0768,404.1393 366.276,377.5493 " opacity="0.9" />
  <polygon stroke="rgb(80,223,31)" fill="rgb(80,223,31)" points="360.9842,245.1377 487.1417,293.3795 536.5544,248.0591 514.5395,182.6218 446.5723,161.9809 " opacity="0.9" />
  <polygon stroke="rgb(89,249,34)" fill="rgb(89,249,34)" points="360.9842,245.1377 366.276,377.5493 433.5718,409.4554 495.1192,367.1777 487.1417,293.3795 " opacity="0.9" />
</g>

</g>  <!-- end Sv_0 -->

</g>

</svg>
