<svg xmlns="http://www.w3.org/2000/svg" xmlns:inkscape="http://www.inkscape.org/namespaces/inkscape" xmlns:xlink="http://www.w3.org/1999/xlink" width="600px" height="300px">

<g inkscape:groupmode="layer" id="Thu Oct 14 22:24:47 2021">

<g id="Sv_0">  <!-- start Sv_0 -->

<path id="trazo.Sv_0" d="M 470.3091,561.0095 L 470.3091,546.9439 473.588,548.3101 473.588,565.1081 513.9032,565.1081 513.9032,548.3101 528.4831,550.3351 528.4831,571.183 478.448,571.183 478.448,550.3351 486.3959,553.6466 486.3959,581.1178 552.3267,581.1178 552.3267,553.6466 618.2575,553.6466 684.1883,553.6466 628.5532,550.3351 578.5181,550.3351 578.5181,571.183 628.5532,571.183 684.1883,581.1178 618.2575,581.1178 618.2575,608.589 684.1883,608.589 628.5532,592.0309 578.5181,592.0309 578.5181,612.8789 628.5532,612.8789 684.1882,636.0601 618.2575,636.0601 552.3267,636.0601 552.3267,608.589 486.3959,608.5889 486.3959,636.0601 478.448,612.8789 478.448,592.0309 528.4831,592.0309 528.4831,612.8789 513.9032,598.704 513.9032,581.9061 473.588,581.9061 473.588,598.704 470.3091,589.1407 470.3091,575.0751 504.0666,575.0751 504.0666,589.1407 537.824,589.1407 554.2184,598.7041 554.2184,581.9061 537.824,575.0751 571.5814,575.0751 594.5336,581.9061 594.5336,598.7041 571.5814,589.1407 555.0515,582.2532 526.0168,582.2532 517.108,577.0564 542.579,577.0564 542.579,566.4435 517.108,566.4435 526.0168,570.1555 555.0515,570.1555 555.0515,558.0577 542.579,555.8305 542.579,545.2176 555.0515,545.96 526.0168,545.96 517.108,545.2176 517.108,555.8305 526.0168,558.0577 496.9823,558.0577 491.637,555.8305 491.637,545.2176 496.9823,545.96 467.9477,545.96 466.166,545.2176 466.1659,555.8305 467.9477,558.0577 467.9477,570.1555 467.9477,582.2532 496.9823,582.2532 496.9823,570.1555 491.637,566.4435 491.637,577.0564 466.1659,577.0564 466.1659,566.4435 464.7737,563.543 464.7737,572.9958 487.4603,572.9958 487.4603,563.543 484.1069,561.2142 484.1069,569.7355 463.6559,569.7355 463.6559,561.2142 463.6559,552.693 464.7737,554.0903 464.7737,544.6375 463.6559,544.1718 484.1069,544.1718 487.4604,544.6375 487.4603,554.0903 484.1069,552.693 504.5579,552.693 510.147,554.0903 510.147,544.6375 504.5579,544.1718 525.0089,544.1718 532.8336,544.6375 532.8336,554.0903 525.0089,552.693 525.0089,561.2143 504.5579,561.2142 510.147,563.543 532.8336,563.543 532.8336,572.9958 510.147,572.9958 504.5579,569.7355 525.0089,569.7355 381.852,569.7355 402.3029,569.7355 396.7138,572.9958 374.0272,572.9958 374.0272,563.543 396.7138,563.543 402.3029,561.2142 381.852,561.2142 381.852,552.693 374.0272,554.0902 374.0272,544.6375 381.852,544.1717 402.3029,544.1717 396.7139,544.6375 396.7138,554.0902 402.3029,552.693 422.7539,552.693 419.4005,554.0902 419.4005,544.6375 422.7539,544.1718 443.2049,544.1718 442.0871,544.6375 442.0871,554.0903 443.2049,552.693 443.2049,561.2142 443.2049,569.7355 422.7539,569.7355 422.7539,561.2142 419.4005,563.543 419.4005,572.9958 442.0871,572.9958 442.0871,563.543 440.6949,566.4435 440.6949,577.0564 415.2238,577.0564 415.2238,566.4435 409.8786,570.1555 409.8786,582.2532 438.9131,582.2532 438.9131,570.1555 438.9131,558.0577 440.6949,555.8305 440.6949,545.2176 438.9131,545.96 409.8786,545.96 415.2238,545.2176 415.2238,555.8305 409.8786,558.0577 380.844,558.0577 389.7528,555.8305 389.7528,545.2176 380.844,545.96 351.8094,545.96 364.2818,545.2176 364.2818,555.8305 351.8094,558.0577 351.8094,570.1554 380.844,570.1554 389.7528,566.4434 364.2818,566.4434 364.2818,577.0564 389.7528,577.0564 380.844,582.2532 351.8094,582.2532 335.2795,589.1406 312.3274,598.704 312.3274,581.906 335.2795,575.075 369.0369,575.075 352.6425,581.906 352.6425,598.704 369.0369,589.1406 402.7943,589.1407 402.7943,575.0751 436.5517,575.0751 436.5517,589.1407 433.2729,598.704 433.2729,581.9061 392.9577,581.906 392.9577,598.704 378.3779,612.8788 378.3779,592.0309 428.413,592.0309 428.413,612.8788 420.4651,636.0601 420.4651,608.5889 354.5344,608.5889 354.5344,636.0601 288.6036,636.0601 222.6727,636.0601 278.3078,612.8788 328.3429,612.8788 328.3429,592.0309 278.3078,592.0309 222.6728,608.5889 288.6036,608.5889 288.6036,581.1178 222.6728,581.1177 278.3078,571.183 328.3429,571.183 328.3429,550.335 278.3078,550.335 222.6728,553.6466 288.6036,553.6466 354.5344,553.6466 354.5344,581.1178 420.4651,581.1178 420.4651,553.6466 428.413,550.3351 428.413,571.183 378.3779,571.183 378.3779,550.335 392.9577,548.3101 392.9577,565.1081 433.2729,565.1081 433.2729,548.3101 436.5518,546.9439 436.5518,561.0095 402.7943,561.0095 402.7943,546.9439 369.0369,546.9439 352.6425,548.3101 352.6425,565.1081 369.0369,561.0095 335.2795,561.0095 312.3274,565.108 312.3274,548.3101 335.2795,546.9439 335.2795,532.8783 312.3274,531.5121 312.3274,514.7141 335.2795,518.8127 369.037,518.8127 352.6426,514.7141 352.6425,531.5121 369.0369,532.8783 402.7943,532.8783 402.7943,518.8127 436.5518,518.8127 436.5518,532.8783 433.2729,531.5121 433.2729,514.7141 392.9577,514.7141 392.9577,531.5121 378.3779,529.4871 378.3779,508.6392 428.413,508.6392 428.413,529.4871 420.4652,526.1754 420.4652,498.7043 354.5344,498.7043 354.5344,526.1754 288.6036,526.1754 222.6728,526.1754 278.3078,529.4871 328.3429,529.4871 328.3429,508.6392 278.3078,508.6391 222.6728,498.7043 288.6036,498.7043 288.6036,471.2331 222.6728,471.2331 278.3078,487.7912 328.3429,487.7912 328.3429,466.9433 278.3079,466.9433 222.6728,443.7619 288.6036,443.762 354.5344,443.762 354.5344,471.2331 420.4652,471.2331 420.4652,443.762 428.413,466.9433 428.413,487.7912 378.378,487.7912 378.378,466.9433 392.9577,481.1181 392.9577,497.9161 433.2729,497.9161 433.2729,481.1181 436.5518,490.6815 436.5518,504.7471 402.7943,504.7471 402.7943,490.6815 369.037,490.6815 352.6426,481.1181 352.6426,497.9161 369.037,504.7471 335.2795,504.7471 312.3274,497.9161 312.3274,481.1181 335.2795,490.6815 351.8094,497.569 351.8094,509.6667 380.844,509.6667 380.844,497.569 389.7528,502.7658 389.7528,513.3788 364.2818,513.3788 364.2818,502.7658 374.0272,506.8264 396.7139,506.8264 402.3029,510.0868 381.852,510.0868 381.852,518.608 402.3029,518.608 396.7139,516.2792 374.0272,516.2792 374.0272,525.732 396.7139,525.732 402.3029,527.1293 381.852,527.1292 381.852,535.6505 402.3029,535.6505 396.7139,535.1847 374.0272,535.1847 364.2818,534.6046 351.8094,533.8622 351.8094,521.7645 364.2818,523.9917 389.7528,523.9917 380.844,521.7645 380.844,533.8622 389.7528,534.6046 415.2238,534.6046 409.8786,533.8622 409.8786,521.7645 415.2238,523.9917 440.6949,523.9917 438.9131,521.7645 438.9131,533.8622 440.6949,534.6046 442.0871,535.1848 419.4005,535.1848 422.7539,535.6505 443.2049,535.6505 443.2049,527.1293 422.7539,527.1293 419.4005,525.732 442.0871,525.732 442.0871,516.2792 419.4005,516.2792 422.7539,518.608 443.2049,518.608 443.2049,510.0868 422.7539,510.0868 419.4005,506.8264 442.0871,506.8264 440.6949,502.7658 440.6949,513.3788 415.2238,513.3788 415.2238,502.7658 409.8786,497.569 409.8786,509.6667 438.9131,509.6667 438.9131,497.569 467.9477,497.569 467.9477,509.6668 496.9823,509.6668 496.9823,497.569 491.637,502.7659 491.637,513.3788 466.166,513.3788 466.166,502.7658 464.7737,506.8265 487.4604,506.8265 484.1069,510.0868 463.6559,510.0868 463.6559,518.608 484.1069,518.608 487.4604,516.2792 464.7737,516.2792 464.7737,525.732 487.4604,525.732 484.1069,527.1293 463.6559,527.1293 463.6559,535.6505 484.1069,535.6505 487.4604,535.1848 464.7737,535.1848 466.166,534.6046 467.9477,533.8622 467.9477,521.7645 466.166,523.9917 491.637,523.9917 496.9823,521.7645 496.9823,533.8622 491.637,534.6047 517.108,534.6047 526.0168,533.8622 526.0168,521.7645 517.108,523.9917 542.579,523.9917 555.0515,521.7645 555.0515,533.8623 542.579,534.6047 532.8336,535.1848 510.147,535.1848 504.5579,535.6505 525.0089,535.6505 525.0089,527.1293 504.5579,527.1293 510.147,525.732 532.8336,525.732 532.8336,516.2792 510.147,516.2792 504.5579,518.608 525.0089,518.608 525.0089,510.0868 504.5579,510.0868 510.147,506.8265 532.8336,506.8265 542.5791,502.7659 542.579,513.3788 517.108,513.3788 517.108,502.7659 526.0168,497.569 526.0168,509.6668 555.0515,509.6668 555.0515,497.569 571.5814,490.6816 594.5336,481.1182 594.5336,497.9162 571.5814,504.7472 537.824,504.7472 554.2184,497.9161 554.2184,481.1182 537.824,490.6816 504.0666,490.6816 504.0666,504.7472 470.3091,504.7471 470.3092,490.6815 473.5881,481.1181 473.5881,497.9161 513.9033,497.9161 513.9033,481.1182 528.4831,466.9433 528.4831,487.7913 478.448,487.7912 478.448,466.9433 486.396,443.762 486.396,471.2332 552.3267,471.2332 552.3267,443.762 618.2575,443.762 684.1883,443.762 628.5532,466.9433 578.5181,466.9433 578.5181,487.7913 628.5532,487.7913 684.1883,471.2332 618.2575,471.2332 618.2575,498.7043 684.1883,498.7043 628.5532,508.6392 578.5181,508.6392 578.5181,529.4871 628.5532,529.4872 684.1883,526.1755 618.2575,526.1755 552.3267,526.1755 552.3267,498.7043 486.396,498.7043 486.3959,526.1755 478.448,529.4871 478.448,508.6392 528.4831,508.6392 528.4831,529.4871 513.9032,531.5121 513.9033,514.7141 473.588,514.7141 473.588,531.5121 470.3091,532.8783 470.3091,518.8127 504.0666,518.8127 504.0666,532.8783 537.824,532.8783 554.2184,531.5121 554.2184,514.7141 537.824,518.8127 571.5814,518.8127 594.5336,514.7141 594.5336,531.5121 571.5814,532.8783 571.5814,546.9439 594.5336,548.3101 594.5336,565.1081 571.5814,561.0095 537.824,561.0095 554.2184,565.1081 554.2184,548.3101 537.824,546.9439 504.0666,546.9439 504.0666,561.0095 470.3091,561.0095  z" stroke="rgb(176,166,227)" fill="none" />

</g>  <!-- end Sv_0 -->

</g>

</svg>

