<svg xmlns="http://www.w3.org/2000/svg" xmlns:inkscape="http://www.inkscape.org/namespaces/inkscape" xmlns:xlink="http://www.w3.org/1999/xlink" width="600px" height="300px">

<g inkscape:groupmode="layer" id="Fri Oct 15 19:40:41 2021">

</g>


<!-- new blender session -->


<g inkscape:groupmode="layer" id="Fri Oct 15 19:40:44 2021">

</g>


<!-- new blender session -->


<g inkscape:groupmode="layer" id="Fri Oct 15 19:40:50 2021">

</g>


<!-- new blender session -->


<g inkscape:groupmode="layer" id="Fri Oct 15 19:40:56 2021">

</g>


<!-- new blender session -->


<g inkscape:groupmode="layer" id="Fri Oct 15 19:41:19 2021">

<g id="Sv_0.001">  <!-- start Sv_0.001 -->

<path id="trazo.Sv_0.001" d="M 1961.2539,-1016.9763 L 1321.7515,-1016.9766 1321.7513,-579.9832 1321.7513,-142.9899 1321.7512,294.0033 1961.2538,294.0034 1961.2539,-142.9899 1961.2539,-2327.9556 1961.254,-2764.9487 1321.7517,-2764.9492 1321.7517,-2327.9558 1321.7516,-1890.9626 1321.7515,-1453.9695 1961.2539,-1453.9695 1961.2539,-1890.9624 2600.7561,-1890.9624 2600.7561,-1453.9692 3240.2585,-1453.969 3240.2588,-1890.9624 3240.2588,-2327.9556 2600.7563,-2327.9556 2600.7563,-2764.9487 3240.2588,-2764.9487 3879.761,-2764.9485 3879.761,-2327.9551 4519.2632,-2327.9551 4519.2632,-2764.9485 3879.7607,-1453.969 3879.761,-1890.9622 4519.2632,-1890.9622 4519.2632,-1453.9688 5158.7656,-1453.9688 5158.7656,-1890.9619 5798.2681,-1890.9619 5798.2681,-1453.9688 5158.7656,-2764.9485 5158.7656,-2327.9551 5798.2681,-2327.9551 5798.2681,-2764.9485 2896.4536,-782.0427 2182.3337,-294.061 2182.3337,-186.5194 2896.4536,-609.4369 2643.8599,-609.4369 2024.9559,-186.5194 2024.9559,-294.061 2643.8599,-782.0427 2391.2659,-782.0427 2391.2659,-609.4369 2138.6721,-609.4369 2138.6721,-782.0427 1710.2003,-294.061 1710.2003,-186.5195 1867.5781,-186.5195 1867.5781,-294.061 1630.6185,-73.2578 1630.6185,4.8432 1516.3243,4.8432 1516.3242,-73.2578 1405.7847,52.6345 1405.7847,113.9498 1495.5146,113.9498 1495.5145,52.6345 1585.2445,52.6345 1674.9744,52.6345 1859.207,-73.2578 1744.9128,-73.2578 1744.9128,4.8433 1859.2072,4.8433 1674.9745,113.9499 1585.2446,113.9499 1585.2446,175.2653 1674.9745,175.2653 1859.2072,82.9443 1744.9128,82.9443 1744.9128,161.0454 1859.2072,161.0454 1674.9745,236.5807 1585.2445,236.5807 1495.5146,236.5807 1495.5146,175.2653 1405.7847,175.2653 1405.7847,236.5807 1516.3242,161.0453 1516.3243,82.9442 1630.6185,82.9442 1630.6185,161.0454 1867.5781,28.5635 1867.5781,-78.978 1710.2003,-78.978 1710.2002,28.5635 2138.6721,-264.2255 2138.6721,-436.8313 2391.2659,-436.8313 2391.2659,-264.2255 2643.8596,-264.2255 2024.9559,28.5635 2024.9559,-78.978 2643.8599,-436.8312 2896.4536,-436.8312 2182.3337,-78.978 2182.3337,28.5635 2896.4536,-264.2253 2896.4531,-91.6198 2896.4531,80.9861 2643.8596,80.986 2643.8596,-91.6198 2024.9559,136.105 2024.9559,243.6465 2182.3337,243.6465 2182.3335,136.105 1859.207,239.1464 1744.9128,239.1464 1585.2445,297.8961 1674.9744,297.8962 1674.9744,359.2116 1585.2445,359.2116 1744.9128,317.2476 1859.207,317.2476 1859.207,395.3486 1744.9127,395.3486 1585.2445,420.527 1674.9744,420.527 1674.9744,481.8425 1585.2445,481.8425 1744.9127,473.4496 1859.207,473.4497 2182.3337,458.7295 2896.4534,426.1975 2896.4534,253.5917 2182.3337,351.188 2024.9559,351.188 2643.8596,253.5917 2643.8596,426.1974 2024.9559,458.7295 1867.5781,458.7294 2391.2659,426.1974 2391.2659,253.5917 1867.5781,351.1879 1710.2002,351.1879 2138.6721,253.5916 2138.6721,426.1974 1710.2002,458.7294 1516.3242,473.4496 1630.6185,473.4496 1495.5145,481.8425 1405.7847,481.8425 1405.7847,420.527 1495.5145,420.527 1630.6185,395.3486 1516.3242,395.3486 1516.3242,317.2475 1630.6185,317.2476 1495.5146,359.2116 1405.7847,359.2116 1405.7847,297.8961 1495.5146,297.8961 1630.6185,239.1464 1516.3242,239.1464 1710.2002,136.1049 1710.2003,243.6465 1867.5782,243.6465 1867.5781,136.105 2391.2659,-91.6198 2391.2659,80.986 2138.6721,80.986 2138.6721,-91.6198 1886.0784,-91.6199 1886.0784,80.9859 1633.4845,80.9858 1633.4845,-91.6199 1395.4446,136.1049 1395.4446,243.6464 1552.8225,243.6464 1552.8224,136.1049 1402.03,239.1464 1287.7357,239.1464 1226.3248,297.8961 1316.0548,297.8961 1316.0548,359.2115 1226.3248,359.2115 1287.7357,317.2475 1402.03,317.2475 1402.03,395.3485 1287.7357,395.3485 1226.3248,420.527 1316.0547,420.527 1316.0547,481.8424 1226.3248,481.8424 1287.7357,473.4496 1402.03,473.4496 1552.8224,458.7294 1886.0784,426.1973 1886.0784,253.5916 1552.8224,351.1879 1395.4446,351.1879 1633.4845,253.5916 1633.4845,426.1973 1395.4446,458.7294 1238.0668,458.7294 1380.8907,426.1972 1380.8907,253.5915 1238.0668,351.1879 1080.689,351.1878 1128.2969,253.5914 1128.2969,426.1972 1080.689,458.7293 1059.1471,473.4495 1173.4414,473.4496 1136.5948,481.8424 1046.865,481.8424 1046.865,420.5269 1136.5948,420.527 1173.4414,395.3485 1059.1471,395.3484 1059.1472,317.2474 1173.4414,317.2474 1136.5948,359.2115 1046.865,359.2115 1046.865,297.8961 1136.595,297.8961 1173.4414,239.1464 1059.1472,239.1463 1080.689,136.1048 1080.689,243.6463 1238.0668,243.6464 1238.0668,136.1049 1380.8907,-91.62 1380.8907,80.9858 1128.297,80.9858 1128.297,-91.62 1128.297,-264.2257 1380.8907,-264.2256 1238.0668,28.5634 1080.689,28.5634 1080.689,-78.9781 1238.0668,-78.9781 1380.8907,-436.8314 1128.297,-436.8315 1128.2971,-609.4371 1080.6891,-186.5197 1080.6891,-294.0612 1128.2971,-782.043 1380.8909,-782.0428 1238.0669,-294.061 1238.0669,-186.5195 1380.8909,-609.4371 1633.4846,-609.4371 1395.4447,-186.5195 1395.4447,-294.061 1633.4846,-782.0428 1886.0785,-782.0428 1552.8225,-294.061 1552.8225,-186.5195 1886.0785,-609.4371 1886.0785,-436.8314 1886.0784,-264.2255 1633.4845,-264.2256 1633.4845,-436.8314 1395.4446,-78.9781 1395.4446,28.5634 1552.8224,28.5635 1552.8225,-78.9781 1402.03,82.9442 1402.03,161.0453 1287.7357,161.0453 1287.7357,82.9442 1226.3248,175.2652 1226.3248,236.5807 1316.0548,236.5807 1316.0548,175.2652 1316.0548,113.9498 1402.03,4.8431 1402.03,-73.2579 1316.0548,52.6344 1226.3248,52.6344 1287.7357,-73.2579 1287.7357,4.8431 1226.3248,113.9498 1136.595,113.9498 1173.4415,4.8431 1173.4415,-73.2579 1136.595,52.6344 1046.865,52.6343 1059.1472,-73.2579 1059.1472,4.8431 1046.865,113.9498 1046.865,175.2652 1136.595,175.2652 1173.4415,82.9442 1059.1472,82.9442 1059.1472,161.0453 1173.4415,161.0453 1136.595,236.5806 1046.865,236.5806 1038.9283,285.3913 1112.7848,285.3914 1096.1326,319.5284 1033.3776,319.5284 1033.3776,276.6458 1096.1326,276.6458 1112.7848,234.9227 1038.9283,234.9227 1038.9283,184.454 1033.3776,233.7632 1033.3776,190.8806 1038.9283,133.9854 1112.7849,133.9855 1096.1326,190.8806 1096.1326,233.7632 1112.7848,184.4541 1186.6414,184.4541 1158.8877,233.7632 1158.8877,190.8806 1186.6414,133.9855 1260.4979,133.9855 1221.6427,190.8806 1221.6427,233.7632 1260.4979,184.4541 1260.4979,234.9227 1260.4979,285.3914 1186.6414,285.3914 1186.6414,234.9227 1158.8877,276.6458 1158.8877,319.5284 1221.6427,319.5284 1221.6427,276.6458 1192.9419,307.4649 1192.9419,344.7441 1138.3871,344.7441 1138.3871,307.4649 1122.625,331.1606 1122.625,364.1314 1170.875,364.1315 1170.875,331.1606 1170.875,298.1898 1192.9419,270.1858 1192.9419,232.9067 1170.875,265.219 1122.625,265.219 1138.3871,232.9067 1138.3871,270.1858 1122.625,298.1898 1074.375,298.1898 1083.8323,270.1858 1083.8323,232.9067 1074.375,265.219 1026.125,265.2189 1029.2775,232.9067 1029.2775,270.1858 1026.125,298.1898 1026.125,331.1606 1074.375,331.1606 1083.8323,307.4649 1029.2775,307.4649 1029.2775,344.744 1083.8323,344.7441 1074.375,364.1314 1026.125,364.1314 1026.125,397.1022 1026.125,430.0731 1074.375,430.0731 1074.375,397.1022 1083.8323,382.0232 1083.8323,419.3023 1029.2775,419.3023 1029.2775,382.0231 1033.3776,362.4109 1096.1326,362.411 1112.7848,335.8599 1038.9283,335.8599 1038.9283,386.3286 1112.7848,386.3286 1096.1326,405.2936 1033.3776,405.2936 1033.3776,448.1762 1096.1326,448.1762 1112.7848,436.7972 1038.9282,436.7972 1038.9282,487.2658 1112.7848,487.2658 1096.1326,491.0588 1033.3776,491.0588 1029.2775,493.8605 1026.125,496.0147 1026.125,463.0439 1029.2775,456.5814 1083.8323,456.5814 1074.375,463.0439 1074.375,496.0147 1083.8323,493.8605 1138.3871,493.8605 1122.625,496.0147 1122.625,463.0439 1138.3871,456.5814 1192.9419,456.5814 1170.875,463.0439 1170.875,496.0147 1192.9419,493.8606 1221.6427,491.0588 1158.8876,491.0588 1186.6414,487.2658 1260.4978,487.2658 1260.4978,436.7972 1186.6414,436.7972 1158.8876,448.1762 1221.6427,448.1762 1221.6427,405.2936 1158.8876,405.2936 1186.6414,386.3286 1260.4979,386.3286 1260.4979,335.86 1186.6414,335.8599 1158.8877,362.411 1221.6427,362.411 1192.9419,382.0232 1192.9419,419.3023 1138.3871,419.3023 1138.3871,382.0232 1122.625,397.1022 1122.625,430.0731 1170.875,430.0731 1170.875,397.1022 1219.125,397.1023 1219.125,430.0731 1267.375,430.0731 1267.375,397.1023 1302.0516,382.0232 1302.0516,419.3024 1247.4967,419.3024 1247.4967,382.0232 1284.3977,362.411 1347.1528,362.411 1408.2109,335.86 1334.3544,335.86 1334.3544,386.3286 1408.2109,386.3286 1347.1528,405.2936 1284.3977,405.2936 1284.3977,448.1762 1347.1527,448.1763 1408.2109,436.7972 1334.3544,436.7972 1334.3544,487.2659 1408.2109,487.2659 1347.1527,491.0588 1284.3977,491.0588 1247.4967,493.8606 1219.1249,496.0147 1219.1249,463.0439 1247.4967,456.5814 1302.0515,456.5815 1267.375,463.0439 1267.375,496.0147 1302.0515,493.8606 1356.6063,493.8606 1315.6249,496.0148 1315.6249,463.0439 1356.6063,456.5815 1411.1611,456.5815 1363.8749,463.0439 1363.8749,496.0148 1411.1611,493.8606 1472.6628,491.0589 1409.9077,491.0588 1482.0674,487.2659 1555.924,487.2659 1555.924,436.7972 1482.0674,436.7972 1409.9077,448.1763 1472.6628,448.1763 1472.6628,405.2936 1409.9078,405.2936 1482.0675,386.3286 1555.924,386.3287 1555.924,335.86 1482.0675,335.86 1409.9078,362.411 1472.6628,362.4111 1411.1611,382.0233 1411.1611,419.3024 1356.6064,419.3024 1356.6064,382.0232 1315.625,397.1023 1315.625,430.0731 1363.8749,430.0731 1363.8749,397.1023 1363.875,364.1315 1411.1613,344.7441 1411.1613,307.465 1363.875,331.1606 1315.625,331.1606 1356.6064,307.465 1356.6064,344.7441 1315.625,364.1315 1267.375,364.1315 1267.375,331.1606 1219.125,331.1606 1219.125,364.1315 1247.4967,344.7441 1247.4967,307.465 1302.0516,307.465 1302.0516,344.7441 1347.1528,319.5284 1347.1528,276.6458 1284.3977,276.6458 1284.3977,319.5284 1334.3544,285.3914 1334.3545,234.9227 1408.2109,234.9227 1408.2109,285.3914 1482.0675,285.3914 1555.9241,285.3914 1472.6628,319.5284 1409.9078,319.5284 1409.9078,276.6458 1472.6628,276.6458 1555.9241,234.9227 1482.0675,234.9227 1482.0675,184.4542 1555.9241,184.4542 1472.6628,233.7632 1409.9078,233.7632 1409.9078,190.8806 1472.6628,190.8806 1555.9241,133.9855 1482.0675,133.9855 1408.2109,133.9855 1408.2109,184.4541 1334.3545,184.4541 1334.3545,133.9855 1284.3977,190.8806 1284.3977,233.7632 1347.1528,233.7632 1347.1528,190.8806 1302.0516,232.9067 1302.0516,270.1859 1247.4967,270.1859 1247.4967,232.9067 1219.125,265.219 1219.125,298.1898 1267.375,298.1898 1267.375,265.219 1315.625,265.219 1356.6064,232.9067 1356.6064,270.1859 1315.625,298.1898 1363.875,298.1898 1411.1613,270.1859 1411.1613,232.9067 1363.875,265.219 640.1251,265.2189 592.8389,232.9066 592.8389,270.1857 640.1251,298.1898 688.3751,298.1898 647.3937,270.1857 647.3937,232.9066 688.3751,265.2189 736.6251,265.2189 736.6251,298.1898 784.8751,298.1898 784.8751,265.2189 756.5033,232.9066 756.5033,270.1857 701.9485,270.1857 701.9485,232.9066 656.8473,190.8805 656.8473,233.7631 719.6024,233.7631 719.6024,190.8805 669.6457,133.9854 669.6457,184.454 595.7891,184.454 595.7891,133.9854 521.9326,133.9854 448.0761,133.9854 531.3372,190.8805 594.0923,190.8805 594.0923,233.7631 531.3372,233.7631 448.0761,184.454 521.9326,184.454 521.9326,234.9226 448.0761,234.9226 531.3372,276.6457 594.0923,276.6457 594.0922,319.5283 531.3372,319.5283 448.0761,285.3912 521.9326,285.3912 595.7891,285.3912 595.7891,234.9226 669.6457,234.9226 669.6456,285.3912 719.6024,319.5283 719.6024,276.6457 656.8473,276.6457 656.8473,319.5283 701.9485,344.744 701.9485,307.4648 756.5033,307.4648 756.5033,344.744 784.8751,364.1314 784.8751,331.1606 736.6251,331.1606 736.6251,364.1313 688.3751,364.1313 647.3936,344.744 647.3937,307.4648 688.3751,331.1605 640.1251,331.1605 592.8389,307.4648 592.8389,344.744 640.1251,364.1313 640.1251,397.1022 640.1251,430.073 688.3751,430.073 688.3751,397.1022 647.3936,382.0231 647.3936,419.3022 592.8388,419.3022 592.8388,382.0231 531.3372,362.4109 594.0922,362.4109 521.9326,335.8599 448.0761,335.8599 448.0761,386.3285 521.9326,386.3285 594.0922,405.2935 531.3372,405.2935 531.3372,448.1761 594.0922,448.1761 521.9326,436.7971 448.0761,436.7971 448.0761,487.2657 521.9326,487.2657 594.0922,491.0587 531.3372,491.0587 592.8388,493.8605 640.1251,496.0146 640.1251,463.0438 592.8388,456.5814 647.3936,456.5814 688.3751,463.0438 688.3751,496.0146 647.3936,493.8605 701.9484,493.8605 736.6251,496.0146 736.6251,463.0438 701.9484,456.5814 756.5033,456.5814 784.8751,463.0438 784.8751,496.0146 756.5033,493.8605 719.6023,491.0588 656.8472,491.0587 595.7891,487.2657 669.6456,487.2657 669.6456,436.7971 595.7891,436.7971 656.8472,448.1761 719.6023,448.1761 719.6024,405.2935 656.8473,405.2935 595.7891,386.3285 669.6456,386.3285 669.6456,335.8599 595.7891,335.8599 656.8473,362.4109 719.6024,362.4109 756.5033,382.0231 756.5033,419.3022 701.9485,419.3022 701.9485,382.0231 736.6251,397.1022 736.6251,430.073 784.8751,430.073 784.8751,397.1022 833.1251,397.1022 833.1251,430.0731 881.3751,430.0731 881.3751,397.1022 865.613,382.0231 865.6129,419.3022 811.0581,419.3022 811.0581,382.0231 782.3574,362.4109 845.1124,362.4109 817.3587,335.8599 743.5021,335.8599 743.5021,386.3285 817.3587,386.3286 845.1124,405.2936 782.3574,405.2936 782.3574,448.1761 845.1124,448.1761 817.3587,436.7971 743.5021,436.7971 743.5021,487.2657 817.3587,487.2657 845.1124,491.0588 782.3574,491.0588 811.0581,493.8605 833.1251,496.0146 833.1251,463.0438 811.0581,456.5814 865.6129,456.5814 881.3751,463.0439 881.3751,496.0146 865.6129,493.8605 920.1678,493.8605 929.625,496.0147 929.625,463.0439 920.1678,456.5814 974.7226,456.5814 977.875,463.0439 977.875,496.0147 974.7226,493.8605 970.6225,491.0588 907.8674,491.0588 891.2152,487.2657 965.0717,487.2658 965.0717,436.7972 891.2152,436.7972 907.8674,448.1761 970.6225,448.1762 970.6225,405.2936 907.8674,405.2936 891.2152,386.3286 965.0718,386.3286 965.0718,335.8599 891.2152,335.8599 907.8674,362.4109 970.6225,362.4109 974.7226,382.0231 974.7226,419.3023 920.1678,419.3023 920.1678,382.0231 929.6251,397.1022 929.6251,430.0731 977.875,430.0731 977.875,397.1022 977.875,364.1314 929.6251,364.1314 920.1678,344.744 974.7226,344.744 974.7226,307.4649 920.1678,307.4649 929.6251,331.1606 977.8751,331.1606 977.8751,298.1898 974.7227,270.1858 974.7227,232.9067 977.8751,265.2189 929.6251,265.2189 920.1678,232.9066 920.1678,270.1858 929.6251,298.1898 881.3751,298.1898 865.613,270.1858 865.613,232.9066 881.3751,265.2189 833.1251,265.2189 811.0582,232.9066 811.0582,270.1858 833.1251,298.1898 833.1251,331.1606 833.1251,364.1314 881.3751,364.1314 881.3751,331.1606 865.613,307.4649 865.613,344.744 811.0581,344.744 811.0582,307.4649 782.3574,276.6458 782.3574,319.5283 845.1124,319.5283 845.1124,276.6458 817.3587,234.9227 817.3587,285.3913 743.5021,285.3913 743.5022,234.9227 743.5022,184.454 782.3574,233.7631 782.3574,190.8805 743.5022,133.9854 817.3588,133.9854 845.1124,190.8805 845.1124,233.7631 817.3588,184.454 891.2153,184.454 907.8675,233.7631 907.8675,190.8805 891.2153,133.9854 965.0718,133.9854 970.6226,190.8806 970.6225,233.7632 965.0718,184.454 965.0718,234.9227 891.2153,234.9227 907.8675,276.6458 970.6225,276.6458 970.6225,319.5284 907.8674,319.5284 891.2152,285.3913 965.0718,285.3913 957.1351,236.5806 867.4052,236.5806 830.5587,161.0452 944.8529,161.0453 944.8529,82.9442 830.5587,82.9441 867.4052,175.2651 957.1351,175.2652 957.1351,113.9498 944.853,4.8431 944.853,-73.2579 957.1351,52.6343 867.4052,52.6343 830.5587,-73.2579 830.5587,4.8431 867.4052,113.9498 777.6753,113.9498 716.2644,4.8431 716.2645,-73.2579 777.6753,52.6343 687.9454,52.6343 601.9702,-73.2579 601.9702,4.8431 687.9453,113.9498 687.9453,175.2651 687.9453,236.5806 777.6753,236.5806 777.6753,175.2651 716.2644,82.9441 716.2644,161.0452 601.97,161.0452 601.9702,82.9441 451.1777,-78.9783 451.1776,28.5633 608.5555,28.5633 608.5555,-78.9783 370.5157,-436.8315 370.5157,-264.2257 117.9218,-264.2258 117.922,-436.8315 117.922,-609.4373 451.1777,-186.5197 451.1777,-294.0613 117.922,-782.043 370.5158,-782.043 608.5556,-294.0613 608.5556,-186.5197 370.5158,-609.4373 623.1095,-609.4373 765.9334,-186.5197 765.9334,-294.0613 623.1095,-782.043 875.7033,-782.043 923.3112,-294.0612 923.3112,-186.5197 875.7033,-609.4371 875.7032,-436.8315 623.1095,-436.8315 765.9333,-78.9783 923.3112,-78.9781 923.3112,28.5634 765.9333,28.5633 623.1094,-264.2257 875.7032,-264.2257 875.7032,-91.62 875.7032,80.9858 623.1094,80.9857 623.1094,-91.62 765.9333,136.1048 765.9333,243.6463 923.3112,243.6463 923.3112,136.1048 944.8529,239.1463 830.5587,239.1463 867.4052,297.8961 957.1351,297.8961 957.1351,359.2115 867.4052,359.2115 830.5586,317.2474 944.8529,317.2474 944.8529,395.3484 830.5586,395.3484 867.4052,420.5269 957.1351,420.5269 957.1351,481.8423 867.4052,481.8423 830.5586,473.4495 944.8528,473.4495 923.3111,458.7293 875.7031,426.1971 875.7031,253.5914 923.3111,351.1878 765.9333,351.1878 623.1094,253.5914 623.1094,426.1971 765.9333,458.7293 608.5554,458.7292 370.5156,426.1971 370.5156,253.5913 608.5554,351.1877 451.1776,351.1877 117.9217,253.5912 117.9217,426.197 451.1776,458.7292 601.97,473.4495 716.2643,473.4495 777.6752,481.8423 687.9453,481.8423 687.9453,420.5269 777.6752,420.5269 716.2643,395.3484 601.97,395.3484 601.97,317.2474 716.2643,317.2474 777.6752,359.2115 687.9453,359.2114 687.9453,297.896 777.6752,297.896 716.2643,239.1462 601.97,239.1462 451.1776,136.1047 451.1776,243.6462 608.5554,243.6462 608.5555,136.1047 370.5157,-91.6201 370.5156,80.9857 117.9218,80.9857 117.9218,-91.6201 -134.6719,-91.6202 -134.6719,80.9855 -387.2657,80.9855 -387.2657,-91.6202 136.4221,136.1047 136.422,243.6462 293.7998,243.6462 293.7999,136.1047 487.6758,239.1462 373.3816,239.1462 508.4855,297.896 598.2154,297.896 598.2154,359.2114 508.4855,359.2114 373.3816,317.2473 487.6758,317.2473 487.6758,395.3484 373.3815,395.3484 508.4854,420.5269 598.2154,420.5269 598.2154,481.8423 508.4854,481.8423 373.3815,473.4495 487.6758,473.4495 293.7998,458.7292 -134.672,426.197 -134.672,253.5912 293.7998,351.1877 136.4219,351.1877 -387.2659,253.5912 -387.2659,426.197 136.4219,458.7292 -20.9559,458.7291 -639.8596,426.1969 -639.8596,253.5911 -20.9559,351.1876 -178.3337,351.1876 -892.4534,253.5911 -892.4534,426.1968 -178.3337,458.7291 144.793,473.4494 259.0872,473.4494 418.7555,481.8423 329.0256,481.8423 329.0256,420.5269 418.7555,420.5269 259.0872,395.3483 144.793,395.3483 144.793,317.2473 259.0872,317.2473 418.7555,359.2114 329.0256,359.2114 329.0256,297.8959 418.7555,297.896 259.0872,239.1462 144.793,239.1462 -178.3336,136.1046 -178.3337,243.6461 -20.9559,243.6462 -20.9558,136.1047 -639.8595,-91.6202 -639.8595,80.9855 -892.4532,80.9855 -892.4532,-91.6202 -892.4531,-264.226 -178.3335,28.5632 -178.3335,-78.9784 -892.4531,-436.8318 -639.8594,-436.8318 -20.9557,-78.9784 -20.9558,28.5632 -639.8595,-264.226 -387.2657,-264.226 -387.2657,-436.8317 -134.6718,-436.8317 -134.6719,-264.226 293.7999,28.5632 293.7999,-78.9783 136.4221,-78.9783 136.4221,28.5632 373.3816,161.0452 373.3816,82.9441 487.6758,82.9441 487.6758,161.0452 598.2154,236.5806 598.2154,175.2651 508.4855,175.2651 508.4855,236.5805 418.7555,236.5805 329.0257,236.5805 144.7931,161.0451 259.0872,161.0452 259.0873,82.944 144.7931,82.944 329.0257,175.2651 418.7556,175.2651 418.7556,113.9496 329.0257,113.9496 144.7931,4.843 259.0873,4.843 259.0874,-73.2581 144.7932,-73.2581 329.0258,52.6342 418.7556,52.6342 508.4855,52.6343 508.4855,113.9497 598.2154,113.9497 598.2155,52.6343 487.6759,-73.2581 487.6758,4.843 373.3816,4.843 373.3816,-73.2581 136.4221,-294.0613 136.4221,-186.5198 293.7999,-186.5198 293.7999,-294.0613 -134.6718,-782.0431 -134.6718,-609.4374 -387.2657,-609.4374 -387.2657,-782.0431 -639.8594,-782.0433 -20.9557,-294.0614 -20.9557,-186.5199 -639.8594,-609.4375 -892.4531,-609.4375 -178.3335,-186.5199 -178.3335,-294.0614 -892.4531,-782.0433 -3794.2668,-2764.95 -3794.2668,-2327.9565 -3154.7646,-2327.9565 -3154.7646,-2764.95 -3794.2668,-1453.9702 -3794.2668,-1890.9634 -3154.7646,-1890.9634 -3154.7651,-1453.9702 -2515.2627,-1453.9702 -2515.2627,-1890.9631 -1875.76,-1890.9631 -1875.7603,-1453.97 -2515.2627,-2764.9495 -2515.2627,-2327.9563 -1875.76,-2327.9563 -1875.76,-2764.9495 -1236.2577,-2764.9492 -596.7552,-2764.9492 -596.7552,-2327.9558 -1236.2577,-2327.9558 -1236.2577,-1890.9629 -1236.2581,-1453.9697 -596.7554,-1453.9697 -596.7554,-1890.9629 42.7469,-1890.9629 42.7468,-1453.9695 682.2491,-1453.9695 682.2492,-1890.9626 682.2493,-2327.9558 682.2493,-2764.9492 42.747,-2764.9492 42.747,-2327.9558 42.7464,-142.9901 42.7464,294.0031 682.2488,294.0032 682.2488,-142.9901 682.249,-579.9832 682.249,-1016.9766 42.7467,-1016.9767 42.7466,-579.9833 -596.7559,-579.9834 -596.7557,-1016.9768 -1236.2583,-1016.9769 -1236.2583,-579.9835 -1236.2587,-142.9904 -596.756,-142.9902 -596.756,294.003 -1236.2587,294.0029 -1875.761,294.0028 -1875.761,-142.9905 -2515.2637,-142.9906 -2515.2637,294.0027 -1875.7605,-1016.9771 -1875.7605,-579.9836 -2515.2629,-579.9838 -2515.2629,-1016.9772 -3154.7654,-1016.9772 -3154.7654,-579.9838 -3794.2676,-579.9839 -3794.2676,-1016.9773 -3154.7659,294.0026 -3154.7659,-142.9907 -3794.2681,-142.9907 -3794.2681,294.0025 -3794.2681,730.9958 -3794.2681,1167.9891 -3154.7659,1167.9892 -3154.7659,730.9958 -3794.2686,2041.9758 -3794.2686,1604.9824 -3154.7666,1604.9824 -3154.7666,2041.9759 -2515.2642,2041.9759 -2515.2642,1604.9824 -1875.7616,1604.9826 -1875.7616,2041.976 -2515.2637,730.996 -2515.2637,1167.9893 -1875.761,1167.9894 -1875.761,730.9961 -1236.2587,730.9962 -596.756,730.9963 -596.7562,1167.9896 -1236.2587,1167.9895 -1236.259,1604.9827 -1236.259,2041.9762 -596.7565,2041.9763 -596.7563,1604.9829 42.746,1604.983 42.746,2041.9764 682.2485,2041.9766 682.2485,1604.9831 682.2487,1167.9898 682.2487,730.9965 42.7462,730.9964 42.7461,1167.9897 42.7457,3352.9565 42.7456,3789.95 682.2482,3789.9504 682.2482,3352.9568 682.2484,2915.9635 682.2484,2478.9697 42.7459,2478.9696 42.7458,2915.9634 -596.7567,2915.9634 -596.7565,2478.9696 -1236.259,2478.9694 -1236.2596,2915.9634 -1236.2596,3352.9565 -596.7569,3352.9565 -596.7569,3789.95 -1236.2596,3789.95 -1875.7621,3789.9497 -1875.7621,3352.9563 -2515.2646,3352.9563 -2515.2646,3789.9497 -1875.7616,2478.9692 -1875.7621,2915.963 -2515.2646,2915.963 -2515.2642,2478.9692 -3154.7666,2478.9692 -3154.7673,2915.9628 -3794.2698,2915.9628 -3794.2693,2478.969 -3154.7673,3789.9497 -3154.7673,3352.9561 -3794.2698,3352.9561 -3794.2698,3789.9497 -892.4538,1807.0428 -639.86,1807.0428 -20.9561,1319.0612 -178.3339,1319.0612 -178.3339,1211.5196 -20.9561,1211.5196 -639.86,1634.437 -892.4538,1634.437 -892.4538,1461.8313 -178.3339,1103.9781 -178.3339,996.4366 -892.4538,1289.2256 -639.8599,1289.2256 -20.956,996.4367 -20.9561,1103.9781 -639.86,1461.8313 -387.2661,1461.8314 136.4218,1103.9782 136.4218,996.4367 -387.2661,1289.2256 -134.6723,1289.2257 293.7997,996.4367 293.7996,1103.9782 -134.6723,1461.8314 -134.6723,1634.4371 -134.6723,1807.0428 -387.2661,1807.0428 -387.2661,1634.4371 136.4218,1211.5197 136.4218,1319.0612 293.7996,1319.0612 293.7996,1211.5197 487.6757,1020.157 487.6757,1098.2581 373.3814,1098.2581 373.3814,1020.157 508.4854,911.0504 508.4854,972.3658 598.2153,972.3658 598.2153,911.0504 598.2153,849.7349 487.6757,942.0559 487.6757,863.9548 598.2153,788.4195 508.4854,788.4195 373.3814,863.9548 373.3814,942.0559 508.4854,849.7349 418.7554,849.7349 259.0871,942.0559 259.0872,863.9548 418.7555,788.4195 329.0255,788.4194 144.7929,863.9548 144.7929,942.0559 329.0255,849.7349 329.0255,911.0503 418.7554,911.0503 259.0871,1020.1569 144.7929,1020.1569 144.7929,1098.258 259.0871,1098.258 418.7554,972.3658 329.0255,972.3658 448.076,891.0147 531.3372,834.1196 531.3372,791.237 448.076,840.546 521.9325,840.546 594.0922,791.237 594.0922,834.1196 521.9325,891.0147 595.7891,891.0147 595.7891,840.5461 669.6456,840.5461 669.6456,891.0147 719.6022,834.1196 719.6022,791.237 656.8472,791.237 656.8472,834.1196 701.9484,792.0935 701.9484,754.8144 756.5032,754.8144 756.5032,792.0935 784.875,759.7812 784.875,726.8104 736.6251,726.8104 736.6251,759.7812 688.3751,759.7812 640.1251,759.7812 592.8387,792.0935 647.3936,792.0935 647.3936,754.8144 592.8387,754.8144 640.1251,726.8104 688.3751,726.8104 688.3751,693.8396 640.1251,693.8396 592.8387,717.5352 647.3936,717.5352 647.3936,680.2561 592.8387,680.2561 640.1251,660.8687 688.3751,660.8687 736.6251,660.8687 736.6251,693.8396 784.875,693.8396 784.8751,660.8687 756.5032,680.2561 756.5032,717.5352 701.9484,717.5352 701.9484,680.2561 656.8472,705.4718 656.8472,748.3544 719.6022,748.3544 719.6023,705.4718 669.6456,739.6088 669.6456,790.0774 595.7891,790.0774 595.7891,739.6088 521.9326,739.6088 594.0922,705.4718 594.0922,748.3544 521.9325,790.0774 448.076,790.0774 531.3372,748.3544 531.3372,705.4717 448.076,739.6088 448.0761,689.1402 531.3372,662.5891 531.3372,619.7065 448.0761,638.6716 521.9326,638.6716 594.0922,619.7065 594.0922,662.5892 521.9326,689.1402 595.7891,689.1402 595.7891,638.6716 669.6456,638.6716 669.6456,689.1402 719.6023,662.5892 719.6023,619.7066 656.8472,619.7065 656.8472,662.5892 701.9484,642.977 701.9484,605.6978 756.5032,605.6979 756.5032,642.977 784.8751,627.8979 784.8751,594.9271 736.6251,594.9271 736.6251,627.8979 688.3751,627.8979 640.1251,627.8979 592.8388,642.977 647.3936,642.977 647.3936,605.6978 592.8388,605.6978 640.1251,594.9271 688.3751,594.9271 688.3751,561.9563 640.1251,561.9563 592.8388,568.4187 647.3936,568.4187 647.3936,531.1396 592.8388,531.1396 640.1251,528.9854 688.3751,528.9855 736.6251,528.9855 736.6251,561.9563 784.8751,561.9563 784.8751,528.9855 756.5033,531.1396 756.5033,568.4188 701.9484,568.4187 701.9484,531.1396 656.8472,533.9413 656.8472,576.8239 719.6023,576.824 719.6023,533.9413 669.6456,537.7343 669.6456,588.203 595.7891,588.203 595.7891,537.7343 521.9326,537.7343 594.0922,533.9413 594.0922,576.8239 521.9326,588.2029 448.0761,588.2029 531.3372,576.8239 531.3372,533.9413 448.0761,537.7343 329.0256,543.1577 329.0256,604.4731 418.7555,604.4731 418.7555,543.1577 259.0872,551.5505 259.0872,629.6516 144.793,629.6516 144.793,551.5505 -178.3337,566.2706 -20.9559,566.2707 -639.8596,598.8026 -892.4534,598.8026 -892.4534,771.4083 -639.8596,771.4083 -20.9559,673.8121 -178.3337,673.8121 -178.3337,781.3536 -20.956,781.3537 -639.8599,944.0141 -892.4535,944.0141 -892.4535,1116.6199 -639.8599,1116.6199 -20.956,888.8952 -178.3337,888.8952 144.793,785.8537 329.0256,727.104 329.0256,665.7886 144.793,707.7526 259.0872,707.7527 418.7555,665.7886 418.7555,727.104 259.0872,785.8537 373.3814,785.8537 508.4854,727.104 508.4854,665.7886 373.3814,707.7527 487.6757,707.7527 598.2153,665.7886 598.2153,727.1041 487.6757,785.8538 293.7997,888.8952 136.4218,888.8952 -387.2661,1116.6199 -134.6723,1116.62 -134.6723,944.0142 -387.2661,944.0141 136.4218,781.3537 293.7997,781.3537 293.7998,673.8122 136.4219,673.8122 -387.2659,771.4084 -134.672,771.4084 -134.672,598.8027 -387.2659,598.8027 136.4219,566.2707 293.7998,566.2707 487.6758,551.5505 487.6758,629.6516 373.3815,629.6516 373.3815,551.5505 508.4854,543.1577 508.4854,604.4732 598.2154,604.4732 598.2154,543.1577 687.9453,543.1577 687.9453,604.4732 777.6752,604.4732 777.6752,543.1578 716.2643,551.5506 716.2643,629.6516 601.97,629.6516 601.97,551.5506 451.1776,566.2707 608.5554,566.2708 370.5156,598.8028 117.9217,598.8028 117.9217,771.4085 370.5155,771.4085 608.5554,673.8123 451.1776,673.8122 451.1775,781.3537 608.5554,781.3538 370.5154,944.0143 117.9216,944.0142 117.9216,1116.62 370.5154,1116.6201 608.5554,888.8953 451.1775,888.8952 601.97,785.8538 687.9453,727.1041 687.9453,665.7886 601.97,707.7527 716.2643,707.7527 777.6752,665.7886 777.6752,727.1041 716.2643,785.8538 830.5585,785.8538 867.4051,727.1041 867.4051,665.7887 830.5585,707.7527 944.8528,707.7528 957.135,665.7887 957.135,727.1041 944.8528,785.8539 923.311,888.8953 765.9332,888.8953 623.1092,1116.6201 875.703,1116.6202 875.703,944.0144 623.1092,944.0144 765.9332,781.3538 923.311,781.3538 923.311,673.8123 765.9332,673.8123 623.1093,771.4086 875.7031,771.4086 875.7031,598.8029 623.1093,598.8029 765.9332,566.2708 923.3111,566.2708 944.8528,551.5506 944.8528,629.6517 830.5585,629.6517 830.5586,551.5506 867.4051,543.1578 867.4051,604.4732 957.135,604.4732 957.135,543.1578 965.0717,537.7344 970.6225,533.9414 970.6225,576.824 965.0717,588.203 891.2152,588.203 907.8674,576.824 907.8674,533.9414 891.2152,537.7344 817.3587,537.7344 817.3586,588.203 743.5021,588.203 743.5021,537.7344 782.3574,533.9414 782.3574,576.824 845.1124,576.824 845.1124,533.9414 865.6129,531.1396 865.6129,568.4188 811.0581,568.4188 811.0581,531.1396 833.1251,528.9855 833.1251,561.9563 881.375,561.9563 881.3751,528.9855 929.625,528.9855 977.875,528.9855 974.7226,531.1396 920.1677,531.1396 920.1677,568.4188 974.7226,568.4188 977.875,561.9563 929.625,561.9563 929.625,594.9272 977.875,594.9272 974.7226,605.6979 920.1677,605.6979 920.1677,642.9771 974.7226,642.9771 977.875,627.898 929.625,627.898 881.375,627.8979 881.375,594.9271 833.125,594.9271 833.125,627.8979 811.0581,642.977 811.0581,605.6979 865.6129,605.6979 865.6129,642.977 845.1124,662.5892 845.1124,619.7066 782.3573,619.7066 782.3573,662.5892 743.5021,689.1402 743.5021,638.6716 817.3586,638.6716 817.3586,689.1403 891.2151,689.1403 907.8674,662.5892 907.8674,619.7066 891.2152,638.6716 965.0717,638.6716 970.6224,619.7066 970.6224,662.5892 965.0717,689.1403 965.0717,739.6089 970.6224,705.4718 970.6224,748.3544 965.0717,790.0775 891.2151,790.0775 907.8674,748.3544 907.8674,705.4718 891.2151,739.6089 817.3586,739.6089 817.3586,790.0775 743.5021,790.0775 743.5021,739.6088 782.3573,705.4718 782.3573,748.3544 845.1124,748.3544 845.1124,705.4718 865.6129,680.2561 865.6129,717.5353 811.058,717.5353 811.0581,680.2561 833.125,660.8688 833.125,693.8396 881.375,693.8396 881.375,660.8688 929.625,660.8688 977.875,660.8688 974.7225,680.2562 920.1677,680.2562 920.1677,717.5353 974.7225,717.5353 977.875,693.8396 929.625,693.8396 929.625,726.8104 977.875,726.8104 974.7225,754.8144 920.1677,754.8144 920.1677,792.0935 974.7225,792.0936 977.8749,759.7813 929.625,759.7812 881.375,759.7812 881.375,726.8104 833.125,726.8104 833.125,759.7812 811.058,792.0935 811.058,754.8144 865.6129,754.8144 865.6129,792.0935 845.1124,834.1196 845.1124,791.237 782.3573,791.237 782.3573,834.1196 743.5021,891.0147 743.5021,840.5461 817.3586,840.5461 817.3586,891.0147 891.2151,891.0147 907.8674,834.1196 907.8674,791.237 891.2151,840.5461 965.0717,840.5461 970.6224,791.237 970.6224,834.1196 965.0717,891.0148 957.1349,972.3659 867.405,972.3659 830.5585,1098.2581 944.8528,1098.2582 944.8528,1020.1571 830.5585,1020.157 867.405,911.0504 957.1349,911.0504 957.135,849.735 944.8528,942.056 944.8528,863.9549 957.135,788.4195 867.4051,788.4195 830.5585,863.9549 830.5585,942.056 867.4051,849.735 777.6752,849.735 716.2643,942.056 716.2643,863.9549 777.6752,788.4195 687.9453,788.4195 601.97,863.9548 601.9699,942.056 687.9452,849.735 687.9452,911.0504 687.9452,972.3659 777.6751,972.3659 777.6751,911.0504 716.2642,1020.157 716.2642,1098.2581 601.9699,1098.2581 601.9699,1020.157 451.1774,1211.5198 451.1774,1319.0613 608.5553,1319.0613 608.5553,1211.5198 370.5153,1634.4373 370.5153,1807.043 117.9214,1807.043 117.9214,1634.4373 117.9214,1461.8315 451.1774,1103.9783 451.1775,996.4367 117.9216,1289.2257 370.5154,1289.2258 608.5554,996.4368 608.5554,1103.9783 370.5154,1461.8315 623.1091,1461.8315 765.9332,1103.9783 765.9332,996.4368 623.1091,1289.2259 875.7029,1289.2259 923.311,996.4368 923.311,1103.9783 875.7029,1461.8316 875.7029,1634.4373 623.1091,1634.4373 765.9332,1211.5198 923.311,1211.5198 923.311,1319.0613 765.9331,1319.0613 623.1091,1807.043 875.7029,1807.0432 1128.2968,1807.0432 1380.8905,1807.0432 1238.0667,1319.0614 1080.6888,1319.0613 1080.6888,1211.5198 1238.0667,1211.5199 1380.8905,1634.4374 1128.2968,1634.4373 1128.2968,1461.8316 1080.6888,1103.9783 1080.6888,996.4368 1128.2968,1289.2259 1380.8906,1289.2259 1238.0667,996.4369 1238.0667,1103.9784 1380.8906,1461.8317 1633.4844,1461.8317 1395.4445,1103.9784 1395.4445,996.4369 1633.4844,1289.226 1886.0782,1289.226 1552.8224,996.4369 1552.8223,1103.9784 1886.0781,1461.8317 1886.0781,1634.4374 1886.0781,1807.0432 1633.4843,1807.0432 1633.4843,1634.4374 1395.4445,1211.5199 1395.4445,1319.0614 1552.8223,1319.0614 1552.8223,1211.5199 1402.0299,1020.1571 1402.0299,1098.2582 1287.7356,1098.2582 1287.7356,1020.1571 1226.3247,911.0505 1226.3247,972.3659 1316.0547,972.3659 1316.0547,911.0505 1316.0547,849.735 1402.0299,942.0561 1402.0299,863.955 1316.0547,788.4196 1226.3247,788.4196 1287.7356,863.955 1287.7356,942.0561 1226.3247,849.735 1136.5948,849.735 1173.4413,942.0561 1173.4414,863.9549 1136.5948,788.4196 1046.8649,788.4195 1059.1471,863.9549 1059.1471,942.056 1046.8649,849.735 1046.8649,911.0504 1136.5948,911.0505 1173.4413,1020.1571 1059.1471,1020.1571 1059.1471,1098.2582 1173.4413,1098.2582 1136.5948,972.3659 1046.8649,972.3659 1038.9282,891.0148 1033.3774,834.1196 1033.3774,791.237 1038.9282,840.5461 1112.7848,840.5461 1096.1326,791.2371 1096.1326,834.1197 1112.7848,891.0148 1186.6412,891.0148 1186.6412,840.5461 1260.4978,840.5461 1260.4978,891.0148 1221.6426,834.1197 1221.6426,791.2371 1158.8876,791.2371 1158.8876,834.1197 1138.387,792.0936 1138.387,754.8145 1192.9419,754.8145 1192.9419,792.0936 1170.8749,759.7813 1170.8749,726.8105 1122.6249,726.8105 1122.6249,759.7813 1074.375,759.7813 1026.125,759.7813 1029.2773,792.0936 1083.8322,792.0936 1083.8322,754.8145 1029.2773,754.8144 1026.125,726.8104 1074.375,726.8105 1074.375,693.8396 1026.125,693.8396 1029.2773,717.5353 1083.8322,717.5353 1083.8323,680.2562 1029.2773,680.2562 1026.125,660.8688 1074.375,660.8688 1122.6249,660.8688 1122.6249,693.8396 1170.8749,693.8396 1170.875,660.8688 1192.9419,680.2562 1192.9419,717.5353 1138.3871,717.5353 1138.3871,680.2562 1158.8876,705.4718 1158.8876,748.3545 1221.6426,748.3545 1221.6427,705.4719 1260.4978,739.6089 1260.4978,790.0775 1186.6412,790.0775 1186.6412,739.6089 1112.7848,739.6089 1096.1326,705.4718 1096.1326,748.3545 1112.7848,790.0775 1038.9282,790.0775 1033.3774,748.3544 1033.3774,705.4718 1038.9282,739.6089 1038.9282,689.1403 1033.3774,662.5892 1033.3776,619.7066 1038.9282,638.6716 1112.7848,638.6717 1096.1326,619.7066 1096.1326,662.5892 1112.7848,689.1403 1186.6412,689.1403 1186.6414,638.6717 1260.4978,638.6717 1260.4978,689.1403 1221.6427,662.5893 1221.6427,619.7067 1158.8876,619.7066 1158.8876,662.5893 1138.3871,642.9771 1138.3871,605.6979 1192.9419,605.6979 1192.9419,642.9771 1170.875,627.898 1170.875,594.9272 1122.625,594.9272 1122.625,627.898 1074.375,627.898 1026.125,627.898 1029.2773,642.9771 1083.8323,642.9771 1083.8323,605.6979 1029.2773,605.6979 1026.125,594.9272 1074.375,594.9272 1074.375,561.9564 1026.125,561.9563 1029.2775,568.4188 1083.8323,568.4188 1083.8323,531.1397 1029.2775,531.1397 1026.125,528.9855 1074.375,528.9855 1122.625,528.9855 1122.625,561.9564 1170.875,561.9564 1170.875,528.9855 1192.9419,531.1397 1192.9419,568.4188 1138.3871,568.4188 1138.3871,531.1397 1158.8876,533.9414 1158.8876,576.824 1221.6427,576.824 1221.6427,533.9414 1260.4978,537.7344 1260.4978,588.2031 1186.6414,588.2031 1186.6414,537.7344 1112.7848,537.7344 1096.1326,533.9414 1096.1326,576.824 1112.7848,588.203 1038.9282,588.203 1033.3776,576.824 1033.3776,533.9414 1038.9282,537.7344 1046.865,543.1578 1046.865,604.4733 1136.5948,604.4733 1136.5948,543.1578 1173.4414,551.5507 1173.4414,629.6517 1059.1471,629.6517 1059.1471,551.5506 1080.689,566.2708 1238.0668,566.2709 1380.8906,598.8029 1128.2969,598.8029 1128.2969,771.4087 1380.8906,771.4087 1238.0668,673.8123 1080.6888,673.8123 1080.6888,781.3538 1238.0667,781.3539 1380.8906,944.0144 1128.2969,944.0144 1128.2968,1116.6202 1380.8906,1116.6202 1238.0667,888.8954 1080.6888,888.8953 1059.1471,785.8539 1046.8649,727.1041 1046.865,665.7887 1059.1471,707.7528 1173.4414,707.7528 1136.5948,665.7887 1136.5948,727.1041 1173.4414,785.8539 1287.7356,785.8539 1226.3247,727.1042 1226.3248,665.7887 1287.7357,707.7528 1402.0299,707.7528 1316.0547,665.7887 1316.0547,727.1042 1402.0299,785.8539 1552.8224,888.8954 1395.4445,888.8954 1633.4844,1116.6203 1886.0782,1116.6203 1886.0782,944.0145 1633.4845,944.0145 1395.4446,781.3539 1552.8224,781.3539 1552.8224,673.8124 1395.4446,673.8124 1633.4845,771.4087 1886.0784,771.4088 1886.0784,598.803 1633.4845,598.803 1395.4446,566.2709 1552.8224,566.2709 1402.03,551.5507 1402.03,629.6518 1287.7357,629.6517 1287.7357,551.5507 1226.3248,543.1578 1226.3248,604.4733 1316.0547,604.4733 1316.0547,543.1579 1405.7847,543.1579 1405.7847,604.4733 1495.5145,604.4733 1495.5145,543.1579 1630.6185,551.5507 1630.6185,629.6518 1516.3242,629.6518 1516.3242,551.5507 1710.2002,566.2709 1867.5781,566.271 2391.2659,598.8031 2138.6721,598.8031 2138.6721,771.4088 2391.2659,771.4089 1867.5781,673.8125 1710.2002,673.8124 1710.2002,781.3539 1867.578,781.354 2391.2659,944.0146 2138.6721,944.0146 2138.6721,1116.6204 2391.2659,1116.6204 1867.578,888.8955 1710.2002,888.8955 1516.3242,785.854 1405.7845,727.1042 1405.7845,665.7888 1516.3242,707.7528 1630.6184,707.7529 1495.5145,665.7888 1495.5145,727.1042 1630.6184,785.854 1744.9127,785.854 1585.2445,727.1042 1585.2445,665.7888 1744.9127,707.7529 1859.207,707.7529 1674.9744,665.7888 1674.9744,727.1042 1859.207,785.854 2182.3337,888.8955 2024.9559,888.8955 2643.8596,1116.6204 2896.4534,1116.6205 2896.4534,944.0147 2643.8596,944.0146 2024.9559,781.354 2182.3337,781.354 2182.3337,673.8125 2024.9559,673.8125 2643.8596,771.4089 2896.4534,771.4089 2896.4534,598.8032 2643.8596,598.8032 2024.9559,566.271 2182.3337,566.271 1859.207,551.5508 1859.207,629.6518 1744.9127,629.6518 1744.9127,551.5508 1585.2445,543.1579 1585.2445,604.4733 1674.9744,604.4734 1674.9744,543.1579 1555.924,537.7345 1472.6628,533.9415 1472.6628,576.8241 1555.924,588.2031 1482.0674,588.2031 1409.9077,576.8241 1409.9077,533.9415 1482.0674,537.7345 1408.2109,537.7345 1408.2109,588.2031 1334.3544,588.2031 1334.3544,537.7345 1284.3977,533.9414 1284.3977,576.8241 1347.1527,576.8241 1347.1527,533.9415 1302.0515,531.1397 1302.0515,568.4189 1247.4967,568.4188 1247.4967,531.1397 1219.1249,528.9856 1219.1249,561.9564 1267.375,561.9564 1267.375,528.9856 1315.6249,528.9856 1363.8749,528.9856 1411.1611,531.1397 1356.6063,531.1397 1356.6063,568.4189 1411.1611,568.4189 1363.8749,561.9564 1315.6249,561.9564 1315.6249,594.9272 1363.8749,594.9272 1411.1611,605.698 1356.6063,605.698 1356.6063,642.9771 1411.1611,642.9771 1363.8749,627.898 1315.6249,627.898 1267.3749,627.898 1267.3749,594.9272 1219.1249,594.9272 1219.1249,627.898 1247.4967,642.9771 1247.4967,605.698 1302.0515,605.698 1302.0515,642.9771 1347.1527,662.5893 1347.1527,619.7067 1284.3977,619.7067 1284.3977,662.5893 1334.3544,689.1404 1334.3544,638.6717 1408.2109,638.6717 1408.2109,689.1404 1482.0674,689.1404 1409.9077,662.5893 1409.9077,619.7067 1482.0674,638.6717 1555.924,638.6717 1472.6628,619.7067 1472.6628,662.5893 1555.924,689.1404 1555.924,739.609 1472.6627,705.4719 1472.6627,748.3545 1555.924,790.0776 1482.0674,790.0776 1409.9077,748.3545 1409.9077,705.4719 1482.0674,739.609 1408.2109,739.609 1408.2109,790.0776 1334.3544,790.0776 1334.3544,739.6089 1284.3977,705.4719 1284.3977,748.3545 1347.1527,748.3545 1347.1527,705.4719 1302.0515,680.2562 1302.0515,717.5353 1247.4967,717.5353 1247.4967,680.2562 1219.1249,660.8688 1219.1249,693.8397 1267.3749,693.8397 1267.3749,660.8688 1315.6249,660.8688 1363.8749,660.8688 1411.1611,680.2562 1356.6063,680.2562 1356.6063,717.5354 1411.1611,717.5354 1363.8749,693.8397 1315.6249,693.8397 1315.6249,726.8105 1363.8749,726.8105 1411.1611,754.8145 1356.6063,754.8145 1356.6063,792.0936 1411.1611,792.0936 1363.8749,759.7813 1315.6249,759.7813 1267.3749,759.7813 1267.3749,726.8105 1219.1249,726.8105 1219.1249,759.7813 1247.4967,792.0936 1247.4967,754.8145 1302.0515,754.8145 1302.0515,792.0936 1347.1527,834.1197 1347.1527,791.2371 1284.3977,791.2371 1284.3977,834.1197 1334.3544,891.0148 1334.3544,840.5462 1408.2109,840.5462 1408.2109,891.0148 1482.0674,891.0148 1409.9077,834.1197 1409.9077,791.2371 1482.0674,840.5462 1555.924,840.5462 1472.6627,791.2371 1472.6627,834.1197 1555.924,891.0148 1674.9744,972.366 1585.2444,972.366 1744.9127,1098.2583 1859.2069,1098.2583 1859.2069,1020.1572 1744.9127,1020.1572 1585.2444,911.0505 1674.9744,911.0505 1674.9744,849.7351 1859.2069,942.0562 1859.2069,863.955 1674.9744,788.4196 1585.2445,788.4196 1744.9127,863.955 1744.9127,942.0562 1585.2444,849.7351 1495.5145,849.7351 1630.6184,942.0561 1630.6184,863.955 1495.5145,788.4196 1405.7845,788.4196 1516.3242,863.955 1516.3241,942.0561 1405.7845,849.7351 1405.7845,911.0505 1405.7845,972.366 1495.5145,972.366 1495.5145,911.0505 1630.6184,1020.1571 1630.6184,1098.2582 1516.3241,1098.2582 1516.3241,1020.1571 1710.2002,1211.5199 1710.2002,1319.0615 1867.578,1319.0615 1867.578,1211.5199 2391.2659,1634.4376 2391.2659,1807.0433 2138.6719,1807.0433 2138.6719,1634.4376 2138.6719,1461.8318 1710.2002,1103.9785 1710.2002,996.437 2138.6721,1289.2261 2391.2659,1289.2262 1867.578,996.437 1867.578,1103.9785 2391.2659,1461.8318 2643.8596,1461.8319 2024.9558,1103.9785 2024.9559,996.437 2643.8596,1289.2262 2896.4534,1289.2262 2182.3335,996.437 2182.3335,1103.9785 2896.4534,1461.8319 2896.4534,1634.4376 2643.8596,1634.4376 2024.9558,1211.52 2182.3335,1211.52 2182.3335,1319.0615 2024.9558,1319.0615 2643.8596,1807.0435 2896.4534,1807.0435 5798.2686,3789.9512 5798.2686,3352.9575 5158.7661,3352.9575 5158.7661,3789.9512 5798.2681,2478.9705 5798.2686,2915.9642 5158.7661,2915.9642 5158.7661,2478.9703 4519.2637,2478.9703 4519.2637,2915.9641 3879.7612,2915.9641 3879.761,2478.9703 4519.2637,3789.9507 4519.2637,3352.9573 3879.7612,3352.9573 3879.7612,3789.9507 3240.2585,3789.9504 2600.7559,3789.9504 2600.7559,3352.957 3240.2585,3352.957 3240.2585,2915.9637 3240.2588,2478.9701 2600.7559,2478.97 2600.7559,2915.9637 1961.2535,2915.9637 1961.2535,2478.97 1321.751,2478.9697 1321.7509,2915.9635 1321.7509,3352.9568 1321.7507,3789.9504 1961.2534,3789.9504 1961.2534,3352.957 1961.2535,1167.99 1961.2535,730.9967 1321.7512,730.9966 1321.7511,1167.9899 1321.7511,1604.9831 1321.751,2041.9766 1961.2535,2041.9766 1961.2535,1604.9833 2600.7561,1604.9833 2600.7561,2041.9769 3240.2588,2041.9769 3240.2588,1604.9835 3240.2588,1167.9902 2600.7561,1167.9901 2600.7561,730.9968 3240.2588,730.9969 3879.761,730.997 3879.761,1167.9903 4519.2637,1167.9904 4519.2637,730.9971 3879.761,2041.9771 3879.761,1604.9836 4519.2637,1604.9838 4519.2637,2041.9772 5158.7661,2041.9772 5158.7661,1604.9838 5798.2686,1604.9838 5798.2686,2041.9773 5158.7656,730.9972 5158.7656,1167.9906 5798.2681,1167.9906 5798.2681,730.9973 5798.2681,294.004 5798.2681,-142.9893 5158.7656,-142.9893 5158.7656,294.0039 5798.2676,-1016.9757 5798.2676,-579.9824 5158.7656,-579.9825 5158.7656,-1016.976 4519.2637,-1016.976 4519.2637,-579.9825 3879.761,-579.9827 3879.761,-1016.976 4519.2637,294.0038 4519.2637,-142.9894 3879.761,-142.9895 3879.761,294.0037 3240.2588,294.0037 2600.7561,294.0035 2600.7563,-142.9897 3240.2588,-142.9896 3240.2585,-579.9828 3240.2585,-1016.9762 2600.7563,-1016.9763 2600.7561,-579.9829 1961.2538,-579.983 1961.2539,-1016.9763  z" stroke="rgb(176,166,227)" fill="none" />

</g>  <!-- end Sv_0.001 -->

</g>


<!-- new blender session -->


<g inkscape:groupmode="layer" id="Mon Oct 18 08:11:17 2021">

<g id="Sv_0.001">  <!-- start Sv_0.001 -->

<path id="trazo.Sv_0.001" d="M 1308.2037,24.2753 L 1104.068,24.2753 1213.483,-499.093 1213.4829,-210.0664 1104.068,163.7681 1104.0679,303.2609 1104.0679,442.7536 1308.2037,442.7537 1308.2037,303.2609 1636.4486,78.9601 1636.4486,367.9866 1213.4829,367.9866 1213.4829,78.9601 1213.4832,-1366.1724 1213.4832,-1655.199 1636.4489,-1655.1987 1636.4487,-1366.1721 1308.2037,-394.2029 1308.2039,-533.6957 1104.0681,-533.6957 1104.068,-394.2029 1104.068,-254.7102 1213.483,-1077.146 1213.483,-788.1194 1104.068,-115.2174 1308.2037,-115.2174 1636.4487,-788.1193 1636.4487,-1077.1458 1308.2037,-254.7101 1512.3395,-254.7101 2059.4143,-1077.1458 2059.4143,-788.1193 1512.3395,-115.2174 1716.4753,-115.2173 2482.3801,-788.1191 2482.3801,-1077.1458 1716.4753,-254.7101 1716.4753,-394.2029 1512.3396,-394.2029 2059.4143,-1366.1721 2482.3801,-1366.1721 2482.3801,-1655.1987 2059.4143,-1655.1987 1512.3396,-533.6957 1716.4753,-533.6957 1920.6111,-533.6956 1920.6111,-394.2028 2124.7468,-394.2028 2124.7468,-533.6956 3328.3115,-1655.1987 3328.3115,-1366.1721 2905.3457,-1366.1721 2905.3457,-1655.1987 2905.3455,-788.119 1920.611,-115.2173 1920.6111,-254.7101 2905.3457,-1077.1455 3328.3115,-1077.1455 2124.7468,-254.7101 2124.7468,-115.2173 3328.3113,-788.119 3751.2769,-788.119 2328.8826,-115.2173 2328.8826,-254.71 3751.2771,-1077.1455 4174.2427,-1077.1455 2533.0183,-254.71 2533.0183,-115.2172 4174.2427,-788.1189 4174.2427,-1655.1985 4174.2427,-1366.1719 3751.2771,-1366.1719 3751.2771,-1655.1985 2328.8826,-533.6954 2328.8826,-394.2026 2533.0183,-394.2026 2533.0183,-533.6954 2010.9945,-176.9794 1754.4391,-1.6665 1754.4391,66.8891 2010.9945,-85.0487 1876.462,-85.0487 1654.1139,66.8891 1654.1139,-1.6665 1876.462,-176.9794 1741.9294,-176.9794 1741.9294,-85.0488 1607.3967,-85.0488 1607.3967,-176.9794 1453.4635,-1.6665 1453.4635,66.889 1553.7887,66.889 1553.7887,-1.6665 1441.9287,102.5667 1441.9287,157.2245 1361.9417,157.2245 1361.9417,102.5667 1301.2723,171.6622 1301.2725,217.1072 1367.7775,217.1072 1367.7773,171.6622 1434.2823,171.6622 1500.7872,171.6622 1601.9027,102.5667 1521.9156,102.5667 1521.9158,157.2245 1601.9027,157.2245 1500.7874,217.1073 1434.2823,217.1073 1434.2823,262.5523 1500.7874,262.5523 1601.9027,211.8823 1521.9158,211.8823 1521.9156,266.54 1601.9027,266.5401 1500.7874,307.9974 1434.2823,307.9974 1367.7773,307.9974 1367.7775,262.5523 1301.2725,262.5523 1301.2723,307.9974 1361.9417,266.54 1361.9417,211.8823 1441.9287,211.8823 1441.9287,266.54 1553.7887,204.0002 1553.7887,135.4446 1453.4635,135.4446 1453.4634,204.0001 1607.3967,98.8124 1607.3967,6.8818 1741.9294,6.8818 1741.9293,98.8124 1876.4619,98.8124 1654.1139,204.0002 1654.1139,135.4446 1876.462,6.8818 2010.9945,6.8818 1754.4391,135.4446 1754.4391,204.0002 2010.9945,98.8125 2010.9945,190.7431 2010.9945,282.6737 1876.4619,282.6736 1876.4619,190.743 1654.1139,272.5557 1654.1139,341.1113 1754.439,341.1113 1754.439,272.5557 1601.9027,321.1979 1521.9156,321.1978 1434.2823,353.4424 1500.7872,353.4424 1500.7872,398.8875 1434.2823,398.8875 1521.9156,375.8557 1601.9027,375.8557 1601.9027,430.5134 1521.9156,430.5134 1434.2823,444.3326 1500.7872,444.3326 1500.7872,489.7776 1434.2823,489.7776 1521.9156,485.1713 1601.9027,485.1713 1754.439,478.2224 2010.9945,466.5349 2010.9945,374.6042 1754.439,409.6668 1654.1139,409.6668 1876.4619,374.6042 1876.4619,466.5349 1654.1139,478.2224 1553.7886,478.2224 1741.9293,466.5349 1741.9293,374.6042 1553.7886,409.6668 1453.4634,409.6668 1607.3967,374.6042 1607.3967,466.5348 1453.4634,478.2224 1361.9417,485.1712 1441.9286,485.1712 1367.7773,489.7776 1301.2723,489.7776 1301.2723,444.3325 1367.7773,444.3325 1441.9286,430.5134 1361.9417,430.5134 1361.9417,375.8557 1441.9287,375.8557 1367.7773,398.8875 1301.2723,398.8875 1301.2723,353.4424 1367.7773,353.4424 1441.9287,321.1978 1361.9417,321.1978 1453.4634,272.5557 1453.4634,341.1113 1553.7887,341.1113 1553.7887,272.5557 1741.9293,190.743 1741.9293,282.6736 1607.3967,282.6736 1607.3967,190.743 1472.8641,190.743 1472.8641,282.6736 1338.3315,282.6736 1338.3315,190.743 1252.813,272.5557 1252.813,341.1112 1353.1383,341.1113 1353.1383,272.5557 1281.9546,321.1978 1201.9677,321.1978 1168.2625,353.4424 1234.7675,353.4424 1234.7675,398.8875 1168.2625,398.8875 1201.9675,375.8556 1281.9546,375.8557 1281.9546,430.5134 1201.9675,430.5134 1168.2625,444.3325 1234.7675,444.3325 1234.7675,489.7776 1168.2625,489.7776 1201.9675,485.1712 1281.9546,485.1712 1353.1382,478.2224 1472.8641,466.5348 1472.8641,374.6042 1353.1382,409.6668 1252.813,409.6667 1338.3315,374.6042 1338.3314,466.5348 1252.813,478.2223 1152.4878,478.2223 1203.799,466.5347 1203.799,374.6041 1152.4878,409.6667 1052.1626,409.6667 1069.2664,374.6041 1069.2664,466.5347 1052.1626,478.2223 1041.9935,485.1711 1121.9806,485.1712 1101.7574,489.7775 1035.2524,489.7775 1035.2524,444.3325 1101.7574,444.3325 1121.9806,430.5134 1041.9935,430.5134 1041.9935,375.8556 1121.9806,375.8556 1101.7574,398.8875 1035.2526,398.8875 1035.2526,353.4423 1101.7574,353.4424 1121.9806,321.1978 1041.9935,321.1978 1052.1626,272.5556 1052.1626,341.1111 1152.4878,341.1112 1152.4878,272.5556 1203.799,190.7429 1203.799,282.6736 1069.2664,282.6735 1069.2664,190.7429 1069.2664,98.8123 1203.799,98.8124 1152.4879,204.0001 1052.1626,204.0001 1052.1627,135.4445 1152.4879,135.4445 1203.799,6.8818 1069.2664,6.8817 1069.2664,-85.0488 1052.1627,66.889 1052.1627,-1.6666 1069.2664,-176.9795 1203.799,-176.9795 1152.4879,-1.6665 1152.4879,66.889 1203.799,-85.0488 1338.3315,-85.0488 1252.8131,66.889 1252.8131,-1.6665 1338.3315,-176.9795 1472.8643,-176.9795 1353.1383,-1.6665 1353.1383,66.889 1472.8643,-85.0488 1472.8643,6.8818 1472.8641,98.8124 1338.3315,98.8124 1338.3315,6.8818 1252.8131,135.4445 1252.8131,204.0001 1353.1383,204.0001 1353.1383,135.4445 1281.9547,211.8822 1281.9546,266.54 1201.9677,266.54 1201.9677,211.8822 1168.2625,262.5523 1168.2625,307.9973 1234.7675,307.9973 1234.7675,262.5523 1234.7675,217.1072 1281.9547,157.2244 1281.9546,102.5667 1234.7675,171.6622 1168.2625,171.6622 1201.9677,102.5667 1201.9677,157.2244 1168.2625,217.1072 1101.7574,217.1072 1121.9806,157.2244 1121.9806,102.5667 1101.7574,171.6622 1035.2526,171.6622 1041.9935,102.5667 1041.9935,157.2244 1035.2526,217.1072 1035.2526,262.5522 1101.7574,262.5523 1121.9806,211.8822 1041.9935,211.8822 1041.9935,266.54 1121.9806,266.54 1101.7574,307.9973 1035.2526,307.9973 1030.4562,337.4949 1087.3684,337.4949 1076.6071,359.5558 1026.869,359.5558 1026.869,325.5681 1076.6071,325.5682 1087.3684,298.6049 1030.4562,298.6049 1030.4562,259.7149 1026.869,291.5805 1026.869,257.5929 1030.4562,220.8248 1087.3684,220.8249 1076.6071,257.5929 1076.6071,291.5805 1087.3684,259.7149 1144.2806,259.7149 1126.345,291.5805 1126.345,257.5929 1144.2806,220.8249 1201.1929,220.8249 1176.083,257.5929 1176.083,291.5805 1201.1929,259.7149 1201.1929,298.6049 1201.1929,337.495 1144.2806,337.495 1144.2806,298.6049 1126.345,325.5682 1126.345,359.5558 1176.083,359.5558 1176.083,325.5682 1156.5951,346.4945 1156.5951,376.6774 1112.425,376.6774 1112.425,346.4945 1101.3079,363.2073 1101.3079,390.3514 1141.031,390.3514 1141.031,363.2073 1141.031,336.0632 1156.5951,316.3117 1156.5951,286.1288 1141.031,308.919 1101.3079,308.919 1112.425,286.1288 1112.425,316.3117 1101.3079,336.0632 1061.5847,336.0632 1068.255,316.3117 1068.255,286.1288 1061.5847,308.919 1021.8616,308.919 1024.0851,286.1288 1024.0851,316.3116 1021.8616,336.0632 1021.8616,363.2073 1061.5847,363.2073 1068.255,346.4945 1024.0851,346.4945 1024.0851,376.6774 1068.255,376.6774 1061.5847,390.3514 1021.8616,390.3514 1021.8616,417.4955 1021.8616,444.6397 1061.5847,444.6397 1061.5847,417.4956 1068.255,406.8602 1068.255,437.043 1024.085,437.043 1024.085,406.8602 1026.869,393.5434 1076.6071,393.5434 1087.3684,376.385 1030.4562,376.3849 1030.4562,415.275 1087.3684,415.275 1076.6071,427.531 1026.869,427.531 1026.869,461.5187 1076.6071,461.5187 1087.3684,454.165 1030.4562,454.165 1030.4562,493.0551 1087.3684,493.0551 1076.6069,495.5063 1026.869,495.5063 1024.085,497.4087 1021.8616,498.928 1021.8616,471.7839 1024.085,467.2258 1068.255,467.2258 1061.5847,471.7839 1061.5847,498.928 1068.255,497.4087 1112.425,497.4087 1101.3079,498.928 1101.3079,471.7839 1112.425,467.2258 1156.595,467.2258 1141.031,471.7839 1141.031,498.928 1156.595,497.4087 1176.083,495.5063 1126.345,495.5063 1144.2806,493.0551 1201.1929,493.0551 1201.1929,454.165 1144.2806,454.165 1126.345,461.5187 1176.083,461.5187 1176.083,427.5311 1126.345,427.531 1144.2806,415.275 1201.1929,415.275 1201.1929,376.385 1144.2806,376.385 1126.345,393.5434 1176.083,393.5434 1156.5951,406.8602 1156.5951,437.043 1112.425,437.043 1112.425,406.8602 1101.3079,417.4956 1101.3079,444.6397 1141.031,444.6398 1141.031,417.4956 1180.7542,417.4956 1180.7542,444.6398 1220.4773,444.6398 1220.4773,417.4956 1244.9351,406.8602 1244.9351,437.043 1200.765,437.043 1200.765,406.8602 1225.8209,393.5434 1275.559,393.5435 1315.0173,376.385 1258.1051,376.385 1258.1051,415.2751 1315.0173,415.2751 1275.559,427.5311 1225.8209,427.5311 1225.8209,461.5187 1275.559,461.5187 1315.0173,454.1651 1258.1051,454.165 1258.1051,493.0551 1315.0173,493.0551 1275.559,495.5063 1225.8209,495.5063 1200.765,497.4087 1180.7542,498.928 1180.7542,471.7839 1200.765,467.2259 1244.9351,467.2259 1220.4773,471.7839 1220.4773,498.928 1244.9351,497.4087 1289.105,497.4087 1260.2004,498.928 1260.2004,471.7839 1289.105,467.2259 1333.275,467.2259 1299.9236,471.7839 1299.9236,498.928 1333.275,497.4087 1375.0349,495.5063 1325.297,495.5063 1371.9296,493.0551 1428.8418,493.0551 1428.8418,454.1651 1371.9296,454.1651 1325.297,461.5187 1375.0349,461.5187 1375.0349,427.5311 1325.297,427.5311 1371.9296,415.2751 1428.8418,415.2751 1428.8418,376.3851 1371.9296,376.385 1325.297,393.5435 1375.0349,393.5435 1333.275,406.8602 1333.275,437.043 1289.105,437.043 1289.105,406.8602 1260.2004,417.4956 1260.2004,444.6398 1299.9236,444.6398 1299.9236,417.4956 1299.9236,390.3515 1333.275,376.6774 1333.275,346.4946 1299.9236,363.2073 1260.2004,363.2073 1289.1051,346.4946 1289.105,376.6774 1260.2004,390.3515 1220.4773,390.3515 1220.4773,363.2073 1180.7542,363.2073 1180.7542,390.3514 1200.765,376.6774 1200.765,346.4945 1244.9351,346.4945 1244.9351,376.6774 1275.559,359.5558 1275.559,325.5682 1225.821,325.5682 1225.8209,359.5558 1258.1051,337.495 1258.1051,298.605 1315.0173,298.605 1315.0173,337.495 1371.9296,337.495 1428.8418,337.4951 1375.0349,359.5558 1325.297,359.5558 1325.297,325.5682 1375.0349,325.5682 1428.8418,298.605 1371.9296,298.605 1371.9296,259.715 1428.8418,259.715 1375.0349,291.5806 1325.297,291.5806 1325.297,257.593 1375.0349,257.593 1428.8418,220.825 1371.9296,220.825 1315.0173,220.8249 1315.0173,259.7149 1258.1051,259.7149 1258.1051,220.8249 1225.821,257.5929 1225.821,291.5806 1275.559,291.5806 1275.559,257.5929 1244.9351,286.1288 1244.9351,316.3117 1200.765,316.3117 1200.765,286.1288 1180.7542,308.919 1180.7542,336.0632 1220.4773,336.0632 1220.4773,308.919 1260.2004,308.9191 1289.1051,286.1289 1289.1051,316.3117 1260.2004,336.0632 1299.9236,336.0632 1333.275,316.3117 1333.275,286.1289 1299.9236,308.9191 704.0765,308.9189 670.725,286.1288 670.725,316.3116 704.0765,336.0631 743.7996,336.0631 714.895,316.3116 714.895,286.1288 743.7996,308.9189 783.5227,308.9189 783.5227,336.0631 823.2459,336.0631 823.2459,308.9189 803.235,286.1288 803.235,316.3116 759.065,316.3116 759.065,286.1288 728.4411,257.5928 728.4411,291.5804 778.1791,291.5804 778.1791,257.5928 745.895,220.8248 745.895,259.7148 688.9827,259.7148 688.9827,220.8248 632.0705,220.8248 575.1583,220.8248 628.9651,257.5928 678.7031,257.5928 678.7031,291.5804 628.9651,291.5804 575.1583,259.7148 632.0705,259.7148 632.0705,298.6049 575.1583,298.6049 628.9651,325.5681 678.7031,325.5681 678.7031,359.5557 628.9651,359.5557 575.1583,337.4949 632.0704,337.4949 688.9827,337.4949 688.9827,298.6049 745.895,298.6049 745.895,337.4949 778.1791,359.5557 778.1791,325.5681 728.4411,325.5681 728.441,359.5557 759.065,376.6773 759.065,346.4944 803.235,346.4944 803.235,376.6773 823.2458,390.3514 823.2459,363.2073 783.5227,363.2073 783.5227,390.3514 743.7996,390.3514 714.895,376.6773 714.895,346.4944 743.7996,363.2072 704.0765,363.2072 670.725,346.4944 670.725,376.6773 704.0765,390.3514 704.0764,417.4955 704.0764,444.6396 743.7996,444.6397 743.7996,417.4955 714.895,406.8601 714.895,437.043 670.725,437.043 670.725,406.8601 628.9651,393.5433 678.7031,393.5433 632.0704,376.3849 575.1582,376.3849 575.1582,415.275 632.0704,415.275 678.7031,427.5309 628.9651,427.5309 628.9651,461.5186 678.7031,461.5186 632.0704,454.165 575.1582,454.165 575.1582,493.055 632.0704,493.055 678.7031,495.5062 628.9651,495.5062 670.725,497.4086 704.0764,498.928 704.0764,471.7838 670.725,467.2258 714.895,467.2258 743.7996,471.7838 743.7996,498.928 714.895,497.4086 759.065,497.4086 783.5227,498.928 783.5227,471.7838 759.065,467.2258 803.235,467.2258 823.2458,471.7838 823.2458,498.928 803.235,497.4086 778.179,495.5062 728.441,495.5062 688.9827,493.055 745.8949,493.055 745.8949,454.165 688.9827,454.165 728.441,461.5186 778.179,461.5186 778.1791,427.531 728.441,427.5309 688.9827,415.275 745.895,415.275 745.895,376.3849 688.9827,376.3849 728.441,393.5433 778.1791,393.5433 803.235,406.8601 803.235,437.043 759.065,437.043 759.065,406.8601 783.5227,417.4955 783.5227,444.6397 823.2458,444.6397 823.2458,417.4955 862.969,417.4955 862.969,444.6397 902.6921,444.6397 902.6921,417.4955 891.575,406.8602 891.575,437.043 847.405,437.043 847.405,406.8602 827.9171,393.5433 877.655,393.5434 859.7194,376.3849 802.8072,376.3849 802.8072,415.275 859.7194,415.275 877.655,427.531 827.9171,427.531 827.9171,461.5186 877.655,461.5186 859.7194,454.165 802.8071,454.165 802.8071,493.0551 859.7194,493.0551 877.655,495.5062 827.9171,495.5062 847.405,497.4086 862.969,498.928 862.969,471.7838 847.405,467.2258 891.575,467.2258 902.6921,471.7839 902.6921,498.928 891.575,497.4086 935.745,497.4086 942.4153,498.928 942.4153,471.7839 935.745,467.2258 979.915,467.2258 982.1384,471.7839 982.1384,498.928 979.915,497.4087 977.131,495.5063 927.393,495.5062 916.6317,493.0551 973.5439,493.0551 973.5439,454.165 916.6317,454.165 927.393,461.5186 977.131,461.5186 977.131,427.531 927.393,427.531 916.6317,415.275 973.5439,415.275 973.5439,376.3849 916.6317,376.3849 927.393,393.5434 977.131,393.5434 979.915,406.8602 979.915,437.043 935.745,437.043 935.745,406.8602 942.4153,417.4955 942.4153,444.6397 982.1384,444.6397 982.1384,417.4955 982.1384,390.3514 942.4153,390.3514 935.745,376.6773 979.915,376.6774 979.915,346.4945 935.745,346.4945 942.4153,363.2073 982.1384,363.2073 982.1384,336.0632 979.915,316.3116 979.915,286.1288 982.1385,308.919 942.4153,308.9189 935.7451,286.1288 935.745,316.3116 942.4153,336.0631 902.6922,336.0631 891.575,316.3116 891.575,286.1288 902.6922,308.9189 862.969,308.9189 847.405,286.1288 847.405,316.3116 862.969,336.0631 862.969,363.2073 862.969,390.3514 902.6921,390.3514 902.6921,363.2073 891.575,346.4945 891.575,376.6773 847.405,376.6773 847.405,346.4945 827.9171,325.5681 827.9171,359.5557 877.655,359.5557 877.655,325.5681 859.7194,298.6049 859.7194,337.4949 802.8072,337.4949 802.8072,298.6049 802.8072,259.7148 827.9171,291.5805 827.9171,257.5928 802.8072,220.8248 859.7194,220.8248 877.655,257.5928 877.655,291.5805 859.7194,259.7148 916.6317,259.7148 927.3931,291.5805 927.3931,257.5928 916.6317,220.8248 973.5439,220.8248 977.131,257.5929 977.131,291.5805 973.5439,259.7149 973.5439,298.6049 916.6317,298.6049 927.3931,325.5681 977.131,325.5681 977.131,359.5558 927.393,359.5558 916.6317,337.4949 973.5439,337.4949 968.7476,307.9973 902.2426,307.9973 882.0195,266.54 962.0065,266.54 962.0065,211.8822 882.0195,211.8821 902.2426,262.5522 968.7476,262.5522 968.7476,217.1072 962.0065,157.2244 962.0065,102.5667 968.7476,171.6622 902.2426,171.6621 882.0195,102.5666 882.0195,157.2244 902.2426,217.1072 835.7376,217.1072 802.0325,157.2244 802.0325,102.5666 835.7377,171.6621 769.2327,171.6621 722.0455,102.5666 722.0455,157.2244 769.2327,217.1072 769.2327,262.5522 769.2326,307.9973 835.7376,307.9973 835.7376,262.5522 802.0325,211.8821 802.0325,266.54 722.0454,266.5399 722.0455,211.8821 650.8619,135.4445 650.8618,204.0 751.1871,204.0 751.1871,135.4445 665.6686,6.8817 665.6686,98.8123 531.1359,98.8123 531.136,6.8817 531.136,-85.049 650.8619,66.8889 650.8619,-1.6666 531.136,-176.9796 665.6686,-176.9796 751.1871,-1.6666 751.1871,66.8889 665.6686,-85.049 800.2012,-85.049 851.5123,66.8889 851.5123,-1.6666 800.2012,-176.9796 934.7338,-176.9795 951.8375,-1.6666 951.8375,66.889 934.7338,-85.0488 934.7338,6.8817 800.2012,6.8817 851.5123,135.4445 951.8375,135.4445 951.8375,204.0001 851.5123,204.0001 800.2012,98.8123 934.7338,98.8123 934.7338,190.7429 934.7338,282.6735 800.2012,282.6735 800.2012,190.7429 851.5122,272.5556 851.5122,341.1111 951.8374,341.1111 951.8375,272.5556 962.0065,321.1978 882.0195,321.1978 902.2426,353.4423 968.7476,353.4423 968.7476,398.8875 902.2426,398.8874 882.0195,375.8555 962.0065,375.8556 962.0065,430.5134 882.0195,430.5134 902.2426,444.3325 968.7475,444.3325 968.7475,489.7775 902.2426,489.7775 882.0195,485.1711 962.0065,485.1711 951.8374,478.2223 934.7337,466.5347 934.7337,374.6041 951.8374,409.6667 851.5122,409.6667 800.2011,374.6041 800.2011,466.5347 851.5122,478.2222 751.187,478.2222 665.6685,466.5347 665.6685,374.6041 751.187,409.6667 650.8618,409.6666 531.1359,374.604 531.1359,466.5347 650.8618,478.2222 722.0454,485.1711 802.0325,485.1711 835.7375,489.7775 769.2326,489.7775 769.2326,444.3325 835.7376,444.3325 802.0325,430.5133 722.0454,430.5133 722.0454,375.8555 802.0325,375.8555 835.7376,398.8874 769.2326,398.8874 769.2326,353.4423 835.7376,353.4423 802.0325,321.1978 722.0454,321.1977 650.8618,272.5555 650.8618,341.1111 751.187,341.1111 751.1871,272.5555 665.6686,190.7429 665.6685,282.6735 531.1359,282.6735 531.1359,190.7428 396.6034,190.7428 396.6034,282.6735 262.0707,282.6734 262.0707,190.7428 450.2114,272.5555 450.2114,341.1111 550.5367,341.1111 550.5367,272.5555 642.0584,321.1977 562.0714,321.1977 636.2227,353.4423 702.7277,353.4423 702.7277,398.8874 636.2227,398.8874 562.0714,375.8555 642.0584,375.8555 642.0584,430.5133 562.0714,430.5133 636.2227,444.3324 702.7277,444.3325 702.7277,489.7775 636.2227,489.7775 562.0714,485.1711 642.0584,485.1711 550.5366,478.2222 396.6033,466.5346 396.6033,374.604 550.5366,409.6666 450.2114,409.6666 262.0707,374.604 262.0707,466.5346 450.2114,478.2222 349.8862,478.2222 127.5381,466.5345 127.5381,374.6039 349.8862,409.6666 249.561,409.6666 -6.9945,374.6039 -6.9945,466.5345 249.561,478.2222 402.0973,485.1711 482.0843,485.1711 569.7177,489.7775 503.2127,489.7775 503.2127,444.3324 569.7177,444.3324 482.0843,430.5133 402.0973,430.5132 402.0973,375.8555 482.0844,375.8555 569.7177,398.8874 503.2127,398.8873 503.2127,353.4423 569.7177,353.4423 482.0844,321.1977 402.0973,321.1977 249.561,272.5555 249.561,341.111 349.8862,341.1111 349.8862,272.5555 127.5382,190.7428 127.5382,282.6734 -6.9945,282.6734 -6.9945,190.7427 -6.9943,98.8122 249.5611,203.9999 249.5611,135.4444 -6.9943,6.8815 127.5383,6.8815 349.8863,135.4444 349.8862,203.9999 127.5382,98.8122 262.0707,98.8122 262.0708,6.8816 396.6034,6.8816 396.6034,98.8122 550.5367,204.0 550.5367,135.4444 450.2115,135.4444 450.2114,203.9999 562.0714,266.5399 562.0714,211.8821 642.0585,211.8821 642.0584,266.5399 702.7277,307.9973 702.7277,262.5522 636.2227,262.5522 636.2227,307.9973 569.7177,307.9973 503.2128,307.9973 402.0974,266.5399 482.0844,266.5399 482.0844,211.8821 402.0974,211.8821 503.2128,262.5522 569.7178,262.5522 569.7178,217.1071 503.2128,217.1071 402.0974,157.2243 482.0844,157.2243 482.0845,102.5665 402.0975,102.5665 503.2129,171.662 569.7178,171.662 636.2227,171.6621 636.2227,217.1071 702.7277,217.1071 702.7277,171.6621 642.0585,102.5665 642.0585,157.2243 562.0714,157.2243 562.0715,102.5665 450.2115,-1.6666 450.2115,66.8889 550.5367,66.8889 550.5367,-1.6666 396.6034,-176.9796 396.6034,-85.049 262.0708,-85.049 262.0708,-176.9796 127.5383,-176.9797 349.8863,-1.6667 349.8863,66.8889 127.5383,-85.0491 -6.9943,-85.0491 249.5611,66.8889 249.5611,-1.6667 -6.9943,-176.9797 -529.0179,-533.6959 -529.0179,-394.2031 -324.8823,-394.2031 -324.8823,-533.6959 -1747.2762,-1655.1995 -1747.2762,-1366.1729 -2170.2417,-1366.1729 -2170.2417,-1655.1995 -2170.2417,-788.1199 -529.0179,-115.2177 -529.0179,-254.7104 -2170.2417,-1077.1465 -1747.2762,-1077.1465 -324.8823,-254.7104 -324.8824,-115.2177 -1747.2765,-788.1198 -1324.311,-788.1198 -120.7467,-115.2177 -120.7466,-254.7103 -1324.3108,-1077.1462 -901.345,-1077.1462 83.3893,-254.7103 83.3892,-115.2177 -901.3451,-788.1196 -901.345,-1655.1992 -901.345,-1366.1726 -1324.3108,-1366.1726 -1324.3108,-1655.1992 -120.7466,-533.6959 -120.7466,-394.2031 83.3893,-394.2031 83.3893,-533.6959 287.5249,-533.6958 491.6608,-533.6958 -55.4137,-1655.1992 -478.3795,-1655.1992 -478.3795,-1366.1726 -55.4137,-1366.1726 491.6608,-394.203 287.5249,-394.203 287.5249,-254.7103 -478.3795,-1077.146 -478.3796,-788.1196 287.5249,-115.2175 491.6607,-115.2175 -55.4138,-788.1195 -55.4138,-1077.146 491.6607,-254.7103 695.7965,-254.7103 367.5518,-1077.146 367.5518,-788.1195 695.7964,-115.2175 899.9323,-115.2174 790.5174,-788.1194 790.5175,-1077.146 899.9323,-254.7102 899.9323,-394.2029 899.9323,-533.6957 695.7965,-533.6958 695.7965,-394.203 367.5518,-1366.1726 367.5519,-1655.1992 790.5175,-1655.199 790.5175,-1366.1724 790.5172,78.96 790.5172,367.9865 367.5515,367.9865 367.5515,78.96 695.7964,303.2608 695.7963,442.7535 899.9321,442.7535 899.9321,303.2608 899.9322,163.7681 790.5173,-210.0664 790.5173,-499.093 899.9322,24.2753 695.7964,24.2752 367.5517,-499.093 367.5516,-210.0665 695.7964,163.768 491.6606,163.768 -55.4141,-210.0667 -55.4139,-499.0931 491.6607,24.2751 287.5248,24.2751 -478.3796,-499.0933 -478.3798,-210.0668 287.5248,163.7679 287.5248,303.2607 491.6606,303.2607 -55.4141,78.9598 -478.3799,78.9598 -478.3799,367.9863 -55.4142,367.9864 491.6606,442.7535 287.5248,442.7535 83.389,442.7534 83.389,303.2607 -120.7468,303.2606 -120.7468,442.7534 -1324.3113,367.9861 -1324.3113,78.9597 -901.3456,78.9598 -901.3456,367.9862 -901.3451,-499.0933 83.3891,24.2751 83.3891,163.7679 -901.3453,-210.0668 -1324.3113,-210.0669 -120.7468,163.7679 -120.7468,24.275 -1324.311,-499.0934 -1747.2765,-499.0934 -324.8825,24.275 -324.8825,163.7679 -1747.2769,-210.0669 -2170.2427,-210.067 -529.0183,163.7678 -529.0183,24.275 -2170.2422,-499.0934 -2170.2427,367.986 -2170.2427,78.9595 -1747.2771,78.9595 -1747.2771,367.9861 -324.8826,442.7534 -324.8826,303.2606 -529.0183,303.2606 -529.0183,442.7534 -529.0183,582.2461 -529.0183,721.7389 -324.8826,721.7389 -324.8826,582.2461 -1747.2771,657.0126 -1747.2771,946.0392 -2170.2427,946.0391 -2170.2427,657.0126 -2170.2432,1524.0924 -529.0183,1000.7244 -529.0183,861.2316 -2170.2427,1235.0656 -1747.2771,1235.0657 -324.8826,861.2317 -324.8826,1000.7245 -1747.2775,1524.0924 -1324.3119,1524.0924 -120.7469,1000.7245 -120.7469,861.2317 -1324.3115,1235.0657 -901.3458,1235.0658 83.3889,861.2317 83.3889,1000.7245 -901.346,1524.0925 -901.3456,657.0128 -901.3456,946.0393 -1324.3113,946.0393 -1324.3113,657.0127 -120.7468,582.2462 -120.7468,721.739 83.389,721.739 83.389,582.2462 287.5248,582.2462 491.6606,582.2463 -55.4142,657.0129 -478.3799,657.0128 -478.3799,946.0394 -55.4143,946.0395 491.6606,721.739 287.5248,721.739 287.5247,861.2317 -478.3802,1235.0659 -478.3804,1524.0927 287.5247,1000.7245 491.6605,1000.7246 -55.4145,1524.0927 -55.4143,1235.0659 491.6606,861.2318 695.7963,861.2318 367.5514,1235.0661 367.5512,1524.0928 695.7963,1000.7246 899.932,1000.7247 790.517,1524.0929 790.517,1235.0661 899.9321,861.2319 899.9321,721.7391 899.9321,582.2463 695.7963,582.2463 695.7963,721.7391 367.5514,946.0396 367.5514,657.013 790.5172,657.013 790.5171,946.0396 790.5168,2391.1725 790.5168,2680.1992 367.551,2680.199 367.5511,2391.1724 695.7962,1419.203 695.7961,1558.6958 899.9319,1558.6959 899.9319,1419.203 899.932,1279.7103 790.5169,2102.146 790.5169,1813.1193 899.932,1140.2174 695.7962,1140.2173 367.5511,1813.1193 367.5511,2102.1459 695.7962,1279.7102 491.6604,1279.7102 -55.4146,2102.1459 -55.4146,1813.1192 491.6605,1140.2173 287.5247,1140.2173 -478.3804,1813.119 -478.3805,2102.1459 287.5245,1279.7102 287.5245,1419.203 491.6604,1419.203 -55.4146,2391.1724 -478.3805,2391.1724 -478.3805,2680.199 -55.4146,2680.199 491.6604,1558.6958 287.5245,1558.6958 83.3888,1558.6957 83.3888,1419.2029 -120.7471,1419.2029 -120.7471,1558.6957 -1324.3121,2680.1989 -1324.3121,2391.1721 -901.3461,2391.1721 -901.3461,2680.1989 -901.346,1813.119 83.3889,1140.2172 83.3888,1279.7101 -901.3461,2102.1458 -1324.3121,2102.1458 -120.7471,1279.7101 -120.7469,1140.2172 -1324.3119,1813.1189 -1747.2775,1813.1189 -324.8826,1140.2172 -324.8828,1279.7101 -1747.2777,2102.1455 -2170.2434,2102.1455 -529.0185,1279.7101 -529.0184,1140.2171 -2170.2434,1813.1189 -2170.2434,2680.1987 -2170.2434,2391.172 -1747.2777,2391.172 -1747.2777,2680.1987 -324.8828,1558.6956 -324.8828,1419.2028 -529.0185,1419.2028 -529.0185,1558.6956 -6.9946,1201.9794 127.5379,1201.9794 349.8861,1026.6665 249.5609,1026.6665 249.5609,958.111 349.8861,958.111 127.538,1110.0487 -6.9945,1110.0487 -6.9945,1018.1182 249.5609,889.5555 249.5609,820.9999 -6.9945,926.1875 127.5381,926.1876 349.8862,820.9999 349.8861,889.5555 127.538,1018.1182 262.0706,1018.1182 450.2113,889.5555 450.2113,820.9999 262.0706,926.1876 396.6033,926.1876 550.5366,820.9999 550.5366,889.5555 396.6032,1018.1182 396.6032,1110.0488 396.6032,1201.9794 262.0705,1201.9794 262.0706,1110.0488 450.2113,958.111 450.2113,1026.6666 550.5366,1026.6666 550.5366,958.111 642.0583,867.7757 642.0583,922.4335 562.0712,922.4335 562.0713,867.7757 636.2226,807.8929 636.2225,853.338 702.7275,853.338 702.7276,807.8929 702.7276,762.4479 642.0583,813.1179 642.0583,758.4601 702.7276,717.0028 636.2226,717.0028 562.0713,758.4601 562.0713,813.1179 636.2226,762.4479 569.7177,762.4478 482.0843,813.1178 482.0843,758.4601 569.7177,717.0028 503.2127,717.0027 402.0973,758.46 402.0973,813.1178 503.2127,762.4478 503.2127,807.8929 569.7177,807.8929 482.0843,867.7756 402.0973,867.7756 402.0972,922.4335 482.0842,922.4335 569.7176,853.338 503.2126,853.338 575.1581,804.1752 628.965,767.4072 628.965,733.4196 575.1581,765.2852 632.0704,765.2852 678.703,733.4196 678.703,767.4072 632.0704,804.1752 688.9826,804.1752 688.9826,765.2852 745.8949,765.2852 745.8949,804.1752 778.179,767.4073 778.179,733.4196 728.441,733.4196 728.441,767.4073 759.0649,738.8713 759.0649,708.6885 803.2349,708.6885 803.2349,738.8713 823.2458,716.0812 823.2458,688.937 783.5226,688.937 783.5226,716.0812 743.7996,716.0811 704.0764,716.0811 670.725,738.8713 714.895,738.8713 714.895,708.6884 670.725,708.6884 704.0764,688.937 743.7996,688.937 743.7996,661.7928 704.0764,661.7928 670.725,678.5056 714.895,678.5056 714.895,648.3228 670.725,648.3228 704.0764,634.6487 743.7996,634.6487 783.5227,634.6487 783.5226,661.7929 823.2458,661.7929 823.2458,634.6487 803.235,648.3228 803.2349,678.5056 759.0649,678.5056 759.0649,648.3228 728.441,665.4443 728.441,699.432 778.179,699.432 778.179,665.4443 745.8949,687.5052 745.8949,726.3952 688.9826,726.3952 688.9827,687.5052 632.0704,687.5052 678.7031,665.4443 678.703,699.432 632.0704,726.3952 575.1581,726.3952 628.965,699.432 628.965,665.4443 575.1581,687.5051 575.1582,648.6151 628.9651,631.4567 628.9651,597.4691 575.1582,609.7251 632.0704,609.7251 678.7031,597.4691 678.7031,631.4567 632.0704,648.6151 688.9827,648.6151 688.9827,609.7251 745.8949,609.7251 745.8949,648.6151 778.179,631.4567 778.179,597.4691 728.441,597.4691 728.441,631.4567 759.0649,618.14 759.0649,587.9571 803.235,587.9571 803.235,618.14 823.2458,607.5046 823.2458,580.3604 783.5227,580.3604 783.5227,607.5046 743.7996,607.5046 704.0764,607.5045 670.725,618.14 714.895,618.14 714.895,587.9571 670.725,587.9571 704.0764,580.3604 743.7996,580.3604 743.7996,553.2162 704.0764,553.2162 670.725,557.7743 714.895,557.7743 714.895,527.5915 670.725,527.5915 704.0764,526.0721 743.7996,526.0721 783.5227,526.0721 783.5227,553.2163 823.2458,553.2163 823.2458,526.0721 803.235,527.5915 803.235,557.7743 759.065,557.7743 759.065,527.5915 728.441,529.4938 728.441,563.4815 778.179,563.4815 778.179,529.4939 745.8949,531.945 745.8949,570.8351 688.9827,570.8351 688.9827,531.945 632.0704,531.945 678.7031,529.4938 678.7031,563.4815 632.0704,570.8351 575.1582,570.8351 628.9651,563.4814 628.9651,529.4938 575.1582,531.945 503.2127,535.2225 503.2127,580.6676 569.7177,580.6676 569.7177,535.2225 482.0843,539.8289 482.0843,594.4867 402.0973,594.4867 402.0973,539.8289 249.561,546.7777 349.8862,546.7777 127.5381,558.4652 -6.9945,558.4651 -6.9945,650.3958 127.5381,650.3958 349.8862,615.3333 249.561,615.3333 249.561,683.8888 349.8862,683.8888 127.5381,742.3264 -6.9945,742.3264 -6.9945,834.257 127.5381,834.257 349.8862,752.4444 249.561,752.4444 402.0973,703.8023 503.2127,671.5577 503.2127,626.1126 402.0973,649.1444 482.0843,649.1445 569.7177,626.1126 569.7177,671.5577 482.0843,703.8023 562.0713,703.8023 636.2226,671.5577 636.2226,626.1126 562.0713,649.1445 642.0583,649.1445 702.7276,626.1127 702.7276,671.5577 642.0583,703.8023 550.5366,752.4444 450.2113,752.4444 262.0706,834.257 396.6033,834.257 396.6033,742.3264 262.0706,742.3264 450.2113,683.8888 550.5366,683.8888 550.5366,615.3333 450.2114,615.3333 262.0707,650.3958 396.6033,650.3958 396.6033,558.4652 262.0707,558.4652 450.2114,546.7777 550.5366,546.7777 642.0584,539.8289 642.0584,594.4867 562.0714,594.4867 562.0714,539.8289 636.2227,535.2225 636.2227,580.6676 702.7277,580.6676 702.7277,535.2225 769.2326,535.2226 769.2326,580.6676 835.7375,580.6676 835.7375,535.2226 802.0325,539.8289 802.0324,594.4867 722.0454,594.4867 722.0454,539.8289 650.8618,546.7778 751.187,546.7778 665.6685,558.4653 531.1359,558.4652 531.1359,650.3958 665.6685,650.3958 751.187,615.3333 650.8618,615.3333 650.8618,683.8889 751.187,683.8889 665.6685,742.3264 531.1358,742.3264 531.1358,834.2571 665.6685,834.2571 751.187,752.4444 650.8618,752.4444 722.0453,703.8023 769.2325,671.5577 769.2325,626.1127 722.0453,649.1445 802.0324,649.1445 835.7375,626.1127 835.7375,671.5578 802.0324,703.8023 882.0194,703.8023 902.2425,671.5578 902.2426,626.1127 882.0195,649.1445 962.0065,649.1446 968.7475,626.1127 968.7475,671.5578 962.0065,703.8024 951.8373,752.4445 851.5121,752.4445 800.201,834.2571 934.7336,834.2571 934.7336,742.3265 800.201,742.3265 851.5121,683.8889 951.8373,683.8889 951.8374,615.3333 851.5121,615.3333 800.201,650.3959 934.7337,650.3959 934.7337,558.4653 800.2011,558.4653 851.5122,546.7778 951.8374,546.7778 962.0065,539.8289 962.0065,594.4868 882.0195,594.4867 882.0195,539.8289 902.2426,535.2226 902.2426,580.6676 968.7475,580.6677 968.7475,535.2226 973.5439,531.9451 977.131,529.4939 977.131,563.4815 973.5439,570.8351 916.6317,570.8351 927.393,563.4815 927.393,529.4939 916.6317,531.9451 859.7194,531.9451 859.7194,570.8351 802.8071,570.8351 802.8071,531.9451 827.9171,529.4939 827.9171,563.4815 877.655,563.4815 877.655,529.4939 891.575,527.5915 891.575,557.7743 847.405,557.7743 847.405,527.5915 862.969,526.0721 862.969,553.2163 902.6921,553.2163 902.6921,526.0721 942.4153,526.0721 982.1384,526.0721 979.915,527.5915 935.745,527.5915 935.745,557.7743 979.915,557.7743 982.1384,553.2163 942.4153,553.2163 942.4153,580.3604 982.1384,580.3604 979.915,587.9572 935.745,587.9572 935.745,618.14 979.915,618.14 982.1384,607.5046 942.4153,607.5046 902.6921,607.5046 902.6921,580.3604 862.969,580.3604 862.969,607.5046 847.405,618.14 847.405,587.9572 891.575,587.9572 891.575,618.14 877.655,631.4568 877.655,597.4691 827.917,597.4691 827.917,631.4568 802.8071,648.6151 802.8071,609.7251 859.7194,609.7251 859.7194,648.6152 916.6316,648.6152 927.393,631.4568 927.393,597.4691 916.6317,609.7251 973.5439,609.7251 977.131,597.4691 977.131,631.4568 973.5439,648.6152 973.5438,687.5052 977.131,665.4444 977.131,699.432 973.5438,726.3952 916.6316,726.3952 927.393,699.432 927.393,665.4444 916.6316,687.5052 859.7194,687.5052 859.7194,726.3952 802.8071,726.3952 802.8071,687.5052 827.917,665.4444 827.917,699.432 877.655,699.432 877.655,665.4444 891.575,648.3228 891.575,678.5057 847.405,678.5057 847.405,648.3228 862.969,634.6487 862.9689,661.7929 902.6921,661.7929 902.6921,634.6487 942.4153,634.6487 982.1384,634.6487 979.915,648.3228 935.745,648.3228 935.745,678.5057 979.915,678.5057 982.1384,661.7929 942.4153,661.7929 942.4153,688.937 982.1384,688.937 979.915,708.6885 935.7449,708.6885 935.7449,738.8713 979.915,738.8713 982.1384,716.0812 942.4152,716.0812 902.6921,716.0812 902.6921,688.937 862.9689,688.937 862.9689,716.0812 847.405,738.8713 847.405,708.6885 891.575,708.6885 891.575,738.8713 877.655,767.4073 877.655,733.4196 827.917,733.4196 827.917,767.4073 802.8071,804.1753 802.8071,765.2852 859.7194,765.2852 859.7194,804.1753 916.6316,804.1753 927.3929,767.4073 927.393,733.4196 916.6316,765.2852 973.5438,765.2852 977.131,733.4196 977.131,767.4073 973.5438,804.1753 968.7474,853.3381 902.2425,853.338 882.0194,922.4335 962.0064,922.4336 962.0064,867.7757 882.0194,867.7757 902.2425,807.8929 968.7474,807.893 968.7475,762.4479 962.0065,813.118 962.0065,758.4601 968.7475,717.0028 902.2425,717.0028 882.0194,758.4601 882.0194,813.1179 902.2425,762.4479 835.7375,762.4479 802.0324,813.1179 802.0324,758.4601 835.7375,717.0028 769.2325,717.0028 722.0453,758.4601 722.0453,813.1179 769.2325,762.4479 769.2325,807.8929 769.2325,853.338 835.7375,853.338 835.7375,807.8929 802.0324,867.7757 802.0323,922.4335 722.0453,922.4335 722.0453,867.7757 650.8617,958.1111 650.8617,1026.6666 751.187,1026.6666 751.187,958.1111 665.6684,1110.0488 665.6684,1201.9795 531.1357,1201.9795 531.1358,1110.0488 531.1358,1018.1183 650.8617,889.5555 650.8618,820.9999 531.1358,926.1876 665.6685,926.1877 751.187,821.0 751.187,889.5555 665.6685,1018.1183 800.201,1018.1183 851.5121,889.5555 851.5121,821.0 800.201,926.1877 934.7336,926.1877 951.8373,821.0 951.8373,889.5556 934.7336,1018.1183 934.7336,1110.0489 800.201,1110.0488 851.5121,958.1111 951.8373,958.1111 951.8373,1026.6667 851.5121,1026.6666 800.201,1201.9795 934.7336,1201.9796 1069.2662,1201.9796 1203.7988,1201.9796 1152.4877,1026.6667 1052.1625,1026.6667 1052.1625,958.1111 1152.4878,958.1112 1203.7988,1110.0489 1069.2662,1110.0489 1069.2662,1018.1183 1052.1626,889.5556 1052.1626,821.0 1069.2662,926.1877 1203.7988,926.1877 1152.4878,821.0 1152.4878,889.5556 1203.7988,1018.1184 1338.3314,1018.1184 1252.813,889.5556 1252.813,821.0 1338.3314,926.1878 1472.864,926.1878 1353.1382,821.0001 1353.1382,889.5556 1472.864,1018.1184 1472.864,1110.0489 1472.864,1201.9796 1338.3314,1201.9796 1338.3314,1110.0489 1252.8129,958.1112 1252.8129,1026.6667 1353.1382,1026.6667 1353.1382,958.1112 1281.9546,867.7758 1281.9546,922.4336 1201.9675,922.4336 1201.9675,867.7758 1168.2623,807.893 1168.2623,853.3381 1234.7673,853.3381 1234.7673,807.893 1234.7673,762.4479 1281.9546,813.118 1281.9546,758.4602 1234.7673,717.0029 1168.2623,717.0028 1201.9675,758.4601 1201.9675,813.118 1168.2623,762.4479 1101.7574,762.4479 1121.9805,813.118 1121.9805,758.4601 1101.7574,717.0028 1035.2524,717.0028 1041.9935,758.4601 1041.9934,813.118 1035.2524,762.4479 1035.2524,807.893 1101.7574,807.893 1121.9805,867.7758 1041.9934,867.7757 1041.9934,922.4336 1121.9805,922.4336 1101.7574,853.3381 1035.2524,853.3381 1030.4561,804.1753 1026.8689,767.4073 1026.869,733.4196 1030.4561,765.2852 1087.3683,765.2853 1076.6069,733.4196 1076.6069,767.4073 1087.3683,804.1753 1144.2805,804.1753 1144.2805,765.2853 1201.1927,765.2853 1201.1927,804.1753 1176.0829,767.4073 1176.0829,733.4196 1126.345,733.4196 1126.345,767.4073 1112.4249,738.8714 1112.4249,708.6885 1156.595,708.6885 1156.595,738.8714 1141.031,716.0812 1141.031,688.937 1101.3079,688.937 1101.3079,716.0812 1061.5847,716.0812 1021.8615,716.0812 1024.085,738.8713 1068.255,738.8714 1068.255,708.6885 1024.085,708.6885 1021.8616,688.937 1061.5847,688.937 1061.5847,661.7929 1021.8616,661.7929 1024.085,678.5057 1068.255,678.5057 1068.255,648.3228 1024.085,648.3228 1021.8616,634.6487 1061.5847,634.6487 1101.3079,634.6487 1101.3079,661.7929 1141.031,661.7929 1141.031,634.6488 1156.595,648.3229 1156.595,678.5057 1112.4249,678.5057 1112.4249,648.3228 1126.345,665.4444 1126.345,699.432 1176.0829,699.432 1176.083,665.4444 1201.1929,687.5052 1201.1927,726.3953 1144.2805,726.3953 1144.2805,687.5052 1087.3683,687.5052 1076.6069,665.4444 1076.6069,699.432 1087.3683,726.3953 1030.4561,726.3952 1026.869,699.432 1026.869,665.4444 1030.4561,687.5052 1030.4561,648.6152 1026.869,631.4568 1026.869,597.4691 1030.4561,609.7251 1087.3683,609.7252 1076.6069,597.4691 1076.6069,631.4568 1087.3683,648.6152 1144.2805,648.6152 1144.2806,609.7252 1201.1929,609.7252 1201.1929,648.6152 1176.083,631.4568 1176.083,597.4692 1126.345,597.4691 1126.345,631.4568 1112.4249,618.14 1112.425,587.9572 1156.595,587.9572 1156.595,618.14 1141.031,607.5046 1141.031,580.3605 1101.3079,580.3605 1101.3079,607.5046 1061.5847,607.5046 1021.8616,607.5046 1024.085,618.14 1068.255,618.14 1068.255,587.9572 1024.085,587.9572 1021.8616,580.3604 1061.5847,580.3604 1061.5847,553.2163 1021.8616,553.2163 1024.085,557.7744 1068.255,557.7744 1068.255,527.5915 1024.085,527.5915 1021.8616,526.0722 1061.5847,526.0722 1101.3079,526.0722 1101.3079,553.2163 1141.031,553.2163 1141.031,526.0722 1156.595,527.5915 1156.595,557.7744 1112.425,557.7744 1112.425,527.5915 1126.345,529.4939 1126.345,563.4815 1176.083,563.4815 1176.083,529.4939 1201.1929,531.9451 1201.1929,570.8351 1144.2806,570.8351 1144.2806,531.9451 1087.3684,531.9451 1076.6069,529.4939 1076.6069,563.4815 1087.3684,570.8351 1030.4561,570.8351 1026.869,563.4815 1026.869,529.4939 1030.4562,531.9451 1035.2524,535.2226 1035.2524,580.6677 1101.7574,580.6677 1101.7574,535.2226 1121.9806,539.829 1121.9805,594.4868 1041.9935,594.4868 1041.9935,539.8289 1052.1626,546.7778 1152.4878,546.7778 1203.7988,558.4654 1069.2662,558.4653 1069.2662,650.3959 1203.7988,650.3959 1152.4878,615.3334 1052.1626,615.3334 1052.1626,683.8889 1152.4878,683.8889 1203.7988,742.3265 1069.2662,742.3265 1069.2662,834.2571 1203.7988,834.2572 1152.4878,752.4445 1052.1626,752.4445 1041.9935,703.8024 1035.2524,671.5578 1035.2524,626.1127 1041.9935,649.1446 1121.9805,649.1446 1101.7574,626.1127 1101.7574,671.5578 1121.9805,703.8024 1201.9675,703.8024 1168.2625,671.5578 1168.2625,626.1127 1201.9675,649.1446 1281.9546,649.1446 1234.7673,626.1128 1234.7673,671.5578 1281.9546,703.8024 1353.1382,752.4445 1252.813,752.4445 1338.3314,834.2572 1472.864,834.2572 1472.864,742.3266 1338.3314,742.3266 1252.813,683.8889 1353.1382,683.889 1353.1382,615.3334 1252.813,615.3334 1338.3314,650.396 1472.8641,650.396 1472.8641,558.4654 1338.3314,558.4654 1252.813,546.7779 1353.1382,546.7779 1281.9546,539.829 1281.9546,594.4868 1201.9675,594.4868 1201.9675,539.829 1168.2625,535.2226 1168.2625,580.6677 1234.7675,580.6677 1234.7675,535.2226 1301.2723,535.2227 1301.2723,580.6677 1367.7773,580.6677 1367.7773,535.2227 1441.9286,539.829 1441.9286,594.4868 1361.9417,594.4868 1361.9417,539.829 1453.4634,546.7779 1553.7886,546.7779 1741.9293,558.4655 1607.3967,558.4654 1607.3967,650.396 1741.9293,650.396 1553.7886,615.3335 1453.4634,615.3334 1453.4634,683.889 1553.7886,683.889 1741.9293,742.3267 1607.3966,742.3266 1607.3966,834.2573 1741.9293,834.2573 1553.7886,752.4446 1453.4634,752.4445 1361.9415,703.8024 1301.2723,671.5578 1301.2723,626.1128 1361.9415,649.1446 1441.9286,649.1446 1367.7773,626.1128 1367.7773,671.5579 1441.9286,703.8024 1521.9156,703.8024 1434.2822,671.5579 1434.2822,626.1128 1521.9156,649.1446 1601.9027,649.1447 1500.7872,626.1128 1500.7872,671.5579 1601.9027,703.8025 1754.439,752.4446 1654.1138,752.4446 1876.4618,834.2573 2010.9945,834.2573 2010.9945,742.3267 1876.4618,742.3267 1654.1138,683.889 1754.439,683.889 1754.439,615.3335 1654.1139,615.3335 1876.4619,650.3961 2010.9945,650.3961 2010.9945,558.4655 1876.4619,558.4655 1654.1139,546.7779 1754.439,546.778 1601.9027,539.829 1601.9027,594.4868 1521.9156,594.4868 1521.9156,539.829 1434.2823,535.2227 1434.2823,580.6677 1500.7872,580.6677 1500.7872,535.2227 1428.8418,531.9452 1375.0349,529.494 1375.0349,563.4816 1428.8418,570.8352 1371.9296,570.8352 1325.297,563.4816 1325.297,529.494 1371.9296,531.9452 1315.0173,531.9451 1315.0173,570.8352 1258.1051,570.8351 1258.1051,531.9451 1225.8209,529.4939 1225.8209,563.4816 1275.559,563.4816 1275.559,529.4939 1244.9351,527.5916 1244.9351,557.7744 1200.765,557.7744 1200.765,527.5915 1180.7542,526.0722 1180.7542,553.2163 1220.4773,553.2163 1220.4773,526.0722 1260.2004,526.0722 1299.9236,526.0722 1333.275,527.5916 1289.105,527.5916 1289.105,557.7744 1333.275,557.7744 1299.9236,553.2163 1260.2004,553.2163 1260.2004,580.3605 1299.9236,580.3605 1333.275,587.9572 1289.105,587.9572 1289.105,618.14 1333.275,618.1401 1299.9236,607.5046 1260.2004,607.5046 1220.4773,607.5046 1220.4773,580.3605 1180.7542,580.3605 1180.7542,607.5046 1200.765,618.14 1200.765,587.9572 1244.9351,587.9572 1244.9351,618.14 1275.559,631.4568 1275.559,597.4692 1225.8209,597.4692 1225.8209,631.4568 1258.1051,648.6152 1258.1051,609.7252 1315.0173,609.7252 1315.0173,648.6152 1371.9296,648.6152 1325.2969,631.4568 1325.2969,597.4692 1371.9296,609.7252 1428.8418,609.7252 1375.0349,597.4692 1375.0349,631.4568 1428.8418,648.6153 1428.8417,687.5053 1375.0349,665.4445 1375.0349,699.4321 1428.8417,726.3953 1371.9296,726.3953 1325.2969,699.4321 1325.2969,665.4444 1371.9296,687.5052 1315.0173,687.5052 1315.0173,726.3953 1258.105,726.3953 1258.1051,687.5052 1225.8209,665.4444 1225.8209,699.4321 1275.559,699.4321 1275.559,665.4444 1244.9351,648.3229 1244.9349,678.5057 1200.765,678.5057 1200.765,648.3229 1180.7542,634.6488 1180.7542,661.7929 1220.4773,661.7929 1220.4773,634.6488 1260.2004,634.6488 1299.9236,634.6488 1333.275,648.3229 1289.105,648.3229 1289.105,678.5057 1333.275,678.5057 1299.9236,661.7929 1260.2004,661.7929 1260.2004,688.9371 1299.9236,688.9371 1333.275,708.6885 1289.105,708.6885 1289.105,738.8714 1333.275,738.8714 1299.9236,716.0812 1260.2004,716.0812 1220.4773,716.0812 1220.4773,688.9371 1180.7542,688.9371 1180.7542,716.0812 1200.765,738.8714 1200.765,708.6885 1244.9349,708.6885 1244.9349,738.8714 1275.559,767.4073 1275.559,733.4197 1225.8209,733.4197 1225.8209,767.4073 1258.105,804.1753 1258.105,765.2853 1315.0173,765.2853 1315.0173,804.1753 1371.9296,804.1754 1325.2969,767.4073 1325.2969,733.4197 1371.9296,765.2853 1428.8417,765.2853 1375.0349,733.4197 1375.0349,767.4073 1428.8417,804.1754 1500.7872,853.3382 1434.2822,853.3382 1521.9156,922.4337 1601.9026,922.4337 1601.9026,867.7758 1521.9155,867.7758 1434.2822,807.8931 1500.7872,807.8931 1500.7872,762.448 1601.9026,813.118 1601.9026,758.4602 1500.7872,717.0029 1434.2822,717.0029 1521.9156,758.4602 1521.9155,813.118 1434.2822,762.448 1367.7773,762.448 1441.9286,813.118 1441.9286,758.4602 1367.7773,717.0029 1301.2723,717.0029 1361.9415,758.4602 1361.9415,813.118 1301.2723,762.448 1301.2723,807.893 1301.2723,853.3381 1367.7773,853.3381 1367.7773,807.893 1441.9286,867.7758 1441.9286,922.4336 1361.9415,922.4336 1361.9415,867.7758 1453.4633,958.1112 1453.4633,1026.6668 1553.7886,1026.6668 1553.7886,958.1112 1741.9292,1110.049 1741.9292,1201.9797 1607.3966,1201.9797 1607.3966,1110.049 1607.3966,1018.1184 1453.4633,889.5556 1453.4634,821.0001 1607.3966,926.1878 1741.9293,926.1878 1553.7886,821.0001 1553.7886,889.5556 1741.9292,1018.1184 1876.4618,1018.1185 1654.1138,889.5557 1654.1138,821.0001 1876.4618,926.1878 2010.9943,926.1879 1754.4388,821.0001 1754.4388,889.5557 2010.9943,1018.1185 2010.9943,1110.049 1876.4618,1110.049 1654.1138,958.1112 1754.4388,958.1112 1754.4388,1026.6668 1654.1138,1026.6668 1876.4618,1201.9797 2010.9944,1201.9797 2533.0181,1558.6961 2533.0181,1419.2033 2328.8823,1419.2033 2328.8823,1558.6961 3751.2769,2680.1997 3751.2769,2391.1731 4174.2427,2391.1731 4174.2427,2680.1997 4174.2427,1813.1198 2533.0181,1140.2177 2533.0181,1279.7105 4174.2427,2102.1465 3751.2769,2102.1465 2328.8823,1279.7105 2328.8826,1140.2176 3751.2771,1813.1198 3328.3115,1813.1198 2124.7468,1140.2176 2124.7468,1279.7104 3328.3113,2102.1464 2905.3455,2102.1464 1920.6108,1279.7104 1920.6108,1140.2176 2905.3457,1813.1197 2905.3455,2680.1995 2905.3455,2391.1727 3328.3113,2391.1727 3328.3113,2680.1995 2124.7468,1558.696 2124.7468,1419.2032 1920.6108,1419.2032 1920.6108,1558.696 1716.4751,1558.6959 1512.3394,1558.6959 2059.4141,2680.1993 2482.3799,2680.1993 2482.3799,2391.1726 2059.4141,2391.1726 1512.3394,1419.2031 1716.4751,1419.2031 1716.4751,1279.7104 2482.3799,2102.1462 2482.3799,1813.1196 1716.4752,1140.2175 1512.3394,1140.2175 2059.4141,1813.1196 2059.4141,2102.1462 1512.3394,1279.7104 1308.2035,1279.7104 1636.4484,2102.1462 1636.4484,1813.1194 1308.2036,1140.2175 1104.0677,1140.2174 1213.4827,1813.1193 1213.4827,2102.146 1104.0677,1279.7103 1104.0677,1419.203 1104.0677,1558.6959 1308.2035,1558.6959 1308.2035,1419.2031 1636.4484,2391.1726 1636.4482,2680.1993 1213.4825,2680.1992 1213.4825,2391.1725 1213.4828,946.0397 1213.4828,657.0131 1636.4485,657.0132 1636.4485,946.0397 1308.2036,721.7392 1308.2036,582.2464 1104.0679,582.2464 1104.0679,721.7391 1104.0679,861.2319 1213.4828,1235.0661 1213.4827,1524.0929 1104.0677,1000.7247 1308.2036,1000.7247 1636.4485,1524.093 1636.4484,1235.0662 1308.2036,861.2319 1512.3394,861.2319 2059.4141,1235.0663 2059.4141,1524.093 1512.3394,1000.7247 1716.4752,1000.7248 2482.3799,1524.0931 2482.3799,1235.0664 1716.4752,861.232 1716.4752,721.7393 1512.3394,721.7392 2059.4141,946.0398 2482.3799,946.0399 2482.3799,657.0133 2059.4143,657.0132 1512.3395,582.2464 1716.4752,582.2465 1920.611,582.2465 1920.611,721.7393 2124.7468,721.7393 2124.7468,582.2465 3328.3113,657.0135 3328.3113,946.04 2905.3457,946.0399 2905.3457,657.0134 2905.3457,1524.0932 1920.6108,1000.7248 1920.6108,861.232 2905.3455,1235.0665 3328.3113,1235.0665 2124.7468,861.2321 2124.7468,1000.7249 3328.3115,1524.0933 3751.2771,1524.0933 2328.8826,1000.7249 2328.8826,861.2321 3751.2769,1235.0665 4174.2427,1235.0667 2533.0183,861.2321 2533.0183,1000.7249 4174.2432,1524.0934 4174.2427,657.0136 4174.2427,946.0402 3751.2771,946.0401 3751.2771,657.0135 2328.8826,582.2466 2328.8826,721.7393 2533.0183,721.7394 2533.0183,582.2466 2533.0183,442.7538 2533.0183,303.261 2328.8826,303.261 2328.8826,442.7538 3751.2771,367.987 3751.2771,78.9605 4174.2427,78.9605 4174.2427,367.9871 4174.2422,-499.0924 2533.0183,24.2755 2533.0183,163.7683 4174.2427,-210.0659 3751.2771,-210.066 2328.8826,163.7682 2328.8826,24.2755 3751.2769,-499.0925 3328.3113,-499.0925 2124.7468,24.2755 2124.7468,163.7682 3328.3115,-210.066 2905.3457,-210.0662 1920.6111,163.7682 1920.6111,24.2754 2905.3455,-499.0927 2905.3457,367.9869 2905.3457,78.9603 3328.3113,78.9604 3328.3113,367.9869 2124.7468,442.7538 2124.7468,303.261 1920.611,303.261 1920.611,442.7537 1716.4752,442.7537 1512.3395,442.7537 2059.4143,367.9867 2482.3799,367.9868 2482.3799,78.9603 2059.4143,78.9602 1512.3395,303.2609 1716.4752,303.2609 1716.4753,163.7682 2482.3801,-210.0662 2482.3801,-499.0927 1716.4753,24.2753 1512.3395,24.2753 2059.4143,-499.0928 2059.4143,-210.0663 1512.3395,163.7681 1308.2037,163.7681 1636.4486,-210.0664 1636.4486,-499.0929 1308.2037,24.2753  z" stroke="rgb(176,166,227)" fill="none" />

</g>  <!-- end Sv_0.001 -->

</g>


<!-- new blender session -->


<g inkscape:groupmode="layer" id="Mon Oct 18 08:11:45 2021">

</g>


<!-- new blender session -->


<g inkscape:groupmode="layer" id="Mon Oct 18 08:12:07 2021">

</g>


<!-- new blender session -->


<g inkscape:groupmode="layer" id="Mon Oct 18 08:12:20 2021">

<g id="Sv_0.001">  <!-- start Sv_0.001 -->

</g>  <!-- end Sv_0.001 -->

</g>

</svg>

