<svg xmlns="http://www.w3.org/2000/svg" xmlns:inkscape="http://www.inkscape.org/namespaces/inkscape" xmlns:xlink="http://www.w3.org/1999/xlink" width="600px" height="300px">

<g inkscape:groupmode="layer" id="Fri Oct 15 19:40:41 2021">

</g>


<!-- new blender session -->


<g inkscape:groupmode="layer" id="Fri Oct 15 19:40:44 2021">

</g>


<!-- new blender session -->


<g inkscape:groupmode="layer" id="Fri Oct 15 19:40:50 2021">

</g>


<!-- new blender session -->


<g inkscape:groupmode="layer" id="Fri Oct 15 19:40:56 2021">

</g>


<!-- new blender session -->


<g inkscape:groupmode="layer" id="Fri Oct 15 19:41:19 2021">

<g id="Sv_0.001">  <!-- start Sv_0.001 -->

<path id="trazo.Sv_0.001" d="M 1961.2539,-1016.9763 L 1321.7515,-1016.9766 1321.7513,-579.9832 1321.7513,-142.9899 1321.7512,294.0033 1961.2538,294.0034 1961.2539,-142.9899 1961.2539,-2327.9556 1961.254,-2764.9487 1321.7517,-2764.9492 1321.7517,-2327.9558 1321.7516,-1890.9626 1321.7515,-1453.9695 1961.2539,-1453.9695 1961.2539,-1890.9624 2600.7561,-1890.9624 2600.7561,-1453.9692 3240.2585,-1453.969 3240.2588,-1890.9624 3240.2588,-2327.9556 2600.7563,-2327.9556 2600.7563,-2764.9487 3240.2588,-2764.9487 3879.761,-2764.9485 3879.761,-2327.9551 4519.2632,-2327.9551 4519.2632,-2764.9485 3879.7607,-1453.969 3879.761,-1890.9622 4519.2632,-1890.9622 4519.2632,-1453.9688 5158.7656,-1453.9688 5158.7656,-1890.9619 5798.2681,-1890.9619 5798.2681,-1453.9688 5158.7656,-2764.9485 5158.7656,-2327.9551 5798.2681,-2327.9551 5798.2681,-2764.9485 2896.4536,-782.0427 2182.3337,-294.061 2182.3337,-186.5194 2896.4536,-609.4369 2643.8599,-609.4369 2024.9559,-186.5194 2024.9559,-294.061 2643.8599,-782.0427 2391.2659,-782.0427 2391.2659,-609.4369 2138.6721,-609.4369 2138.6721,-782.0427 1710.2003,-294.061 1710.2003,-186.5195 1867.5781,-186.5195 1867.5781,-294.061 1630.6185,-73.2578 1630.6185,4.8432 1516.3243,4.8432 1516.3242,-73.2578 1405.7847,52.6345 1405.7847,113.9498 1495.5146,113.9498 1495.5145,52.6345 1585.2445,52.6345 1674.9744,52.6345 1859.207,-73.2578 1744.9128,-73.2578 1744.9128,4.8433 1859.2072,4.8433 1674.9745,113.9499 1585.2446,113.9499 1585.2446,175.2653 1674.9745,175.2653 1859.2072,82.9443 1744.9128,82.9443 1744.9128,161.0454 1859.2072,161.0454 1674.9745,236.5807 1585.2445,236.5807 1495.5146,236.5807 1495.5146,175.2653 1405.7847,175.2653 1405.7847,236.5807 1516.3242,161.0453 1516.3243,82.9442 1630.6185,82.9442 1630.6185,161.0454 1867.5781,28.5635 1867.5781,-78.978 1710.2003,-78.978 1710.2002,28.5635 2138.6721,-264.2255 2138.6721,-436.8313 2391.2659,-436.8313 2391.2659,-264.2255 2643.8596,-264.2255 2024.9559,28.5635 2024.9559,-78.978 2643.8599,-436.8312 2896.4536,-436.8312 2182.3337,-78.978 2182.3337,28.5635 2896.4536,-264.2253 2896.4531,-91.6198 2896.4531,80.9861 2643.8596,80.986 2643.8596,-91.6198 2024.9559,136.105 2024.9559,243.6465 2182.3337,243.6465 2182.3335,136.105 1859.207,239.1464 1744.9128,239.1464 1585.2445,297.8961 1674.9744,297.8962 1674.9744,359.2116 1585.2445,359.2116 1744.9128,317.2476 1859.207,317.2476 1859.207,395.3486 1744.9127,395.3486 1585.2445,420.527 1674.9744,420.527 1674.9744,481.8425 1585.2445,481.8425 1744.9127,473.4496 1859.207,473.4497 2182.3337,458.7295 2896.4534,426.1975 2896.4534,253.5917 2182.3337,351.188 2024.9559,351.188 2643.8596,253.5917 2643.8596,426.1974 2024.9559,458.7295 1867.5781,458.7294 2391.2659,426.1974 2391.2659,253.5917 1867.5781,351.1879 1710.2002,351.1879 2138.6721,253.5916 2138.6721,426.1974 1710.2002,458.7294 1516.3242,473.4496 1630.6185,473.4496 1495.5145,481.8425 1405.7847,481.8425 1405.7847,420.527 1495.5145,420.527 1630.6185,395.3486 1516.3242,395.3486 1516.3242,317.2475 1630.6185,317.2476 1495.5146,359.2116 1405.7847,359.2116 1405.7847,297.8961 1495.5146,297.8961 1630.6185,239.1464 1516.3242,239.1464 1710.2002,136.1049 1710.2003,243.6465 1867.5782,243.6465 1867.5781,136.105 2391.2659,-91.6198 2391.2659,80.986 2138.6721,80.986 2138.6721,-91.6198 1886.0784,-91.6199 1886.0784,80.9859 1633.4845,80.9858 1633.4845,-91.6199 1395.4446,136.1049 1395.4446,243.6464 1552.8225,243.6464 1552.8224,136.1049 1402.03,239.1464 1287.7357,239.1464 1226.3248,297.8961 1316.0548,297.8961 1316.0548,359.2115 1226.3248,359.2115 1287.7357,317.2475 1402.03,317.2475 1402.03,395.3485 1287.7357,395.3485 1226.3248,420.527 1316.0547,420.527 1316.0547,481.8424 1226.3248,481.8424 1287.7357,473.4496 1402.03,473.4496 1552.8224,458.7294 1886.0784,426.1973 1886.0784,253.5916 1552.8224,351.1879 1395.4446,351.1879 1633.4845,253.5916 1633.4845,426.1973 1395.4446,458.7294 1238.0668,458.7294 1380.8907,426.1972 1380.8907,253.5915 1238.0668,351.1879 1080.689,351.1878 1128.2969,253.5914 1128.2969,426.1972 1080.689,458.7293 1059.1471,473.4495 1173.4414,473.4496 1136.5948,481.8424 1046.865,481.8424 1046.865,420.5269 1136.5948,420.527 1173.4414,395.3485 1059.1471,395.3484 1059.1472,317.2474 1173.4414,317.2474 1136.5948,359.2115 1046.865,359.2115 1046.865,297.8961 1136.595,297.8961 1173.4414,239.1464 1059.1472,239.1463 1080.689,136.1048 1080.689,243.6463 1238.0668,243.6464 1238.0668,136.1049 1380.8907,-91.62 1380.8907,80.9858 1128.297,80.9858 1128.297,-91.62 1128.297,-264.2257 1380.8907,-264.2256 1238.0668,28.5634 1080.689,28.5634 1080.689,-78.9781 1238.0668,-78.9781 1380.8907,-436.8314 1128.297,-436.8315 1128.2971,-609.4371 1080.6891,-186.5197 1080.6891,-294.0612 1128.2971,-782.043 1380.8909,-782.0428 1238.0669,-294.061 1238.0669,-186.5195 1380.8909,-609.4371 1633.4846,-609.4371 1395.4447,-186.5195 1395.4447,-294.061 1633.4846,-782.0428 1886.0785,-782.0428 1552.8225,-294.061 1552.8225,-186.5195 1886.0785,-609.4371 1886.0785,-436.8314 1886.0784,-264.2255 1633.4845,-264.2256 1633.4845,-436.8314 1395.4446,-78.9781 1395.4446,28.5634 1552.8224,28.5635 1552.8225,-78.9781 1402.03,82.9442 1402.03,161.0453 1287.7357,161.0453 1287.7357,82.9442 1226.3248,175.2652 1226.3248,236.5807 1316.0548,236.5807 1316.0548,175.2652 1316.0548,113.9498 1402.03,4.8431 1402.03,-73.2579 1316.0548,52.6344 1226.3248,52.6344 1287.7357,-73.2579 1287.7357,4.8431 1226.3248,113.9498 1136.595,113.9498 1173.4415,4.8431 1173.4415,-73.2579 1136.595,52.6344 1046.865,52.6343 1059.1472,-73.2579 1059.1472,4.8431 1046.865,113.9498 1046.865,175.2652 1136.595,175.2652 1173.4415,82.9442 1059.1472,82.9442 1059.1472,161.0453 1173.4415,161.0453 1136.595,236.5806 1046.865,236.5806 1038.9283,285.3913 1112.7848,285.3914 1096.1326,319.5284 1033.3776,319.5284 1033.3776,276.6458 1096.1326,276.6458 1112.7848,234.9227 1038.9283,234.9227 1038.9283,184.454 1033.3776,233.7632 1033.3776,190.8806 1038.9283,133.9854 1112.7849,133.9855 1096.1326,190.8806 1096.1326,233.7632 1112.7848,184.4541 1186.6414,184.4541 1158.8877,233.7632 1158.8877,190.8806 1186.6414,133.9855 1260.4979,133.9855 1221.6427,190.8806 1221.6427,233.7632 1260.4979,184.4541 1260.4979,234.9227 1260.4979,285.3914 1186.6414,285.3914 1186.6414,234.9227 1158.8877,276.6458 1158.8877,319.5284 1221.6427,319.5284 1221.6427,276.6458 1192.9419,307.4649 1192.9419,344.7441 1138.3871,344.7441 1138.3871,307.4649 1122.625,331.1606 1122.625,364.1314 1170.875,364.1315 1170.875,331.1606 1170.875,298.1898 1192.9419,270.1858 1192.9419,232.9067 1170.875,265.219 1122.625,265.219 1138.3871,232.9067 1138.3871,270.1858 1122.625,298.1898 1074.375,298.1898 1083.8323,270.1858 1083.8323,232.9067 1074.375,265.219 1026.125,265.2189 1029.2775,232.9067 1029.2775,270.1858 1026.125,298.1898 1026.125,331.1606 1074.375,331.1606 1083.8323,307.4649 1029.2775,307.4649 1029.2775,344.744 1083.8323,344.7441 1074.375,364.1314 1026.125,364.1314 1026.125,397.1022 1026.125,430.0731 1074.375,430.0731 1074.375,397.1022 1083.8323,382.0232 1083.8323,419.3023 1029.2775,419.3023 1029.2775,382.0231 1033.3776,362.4109 1096.1326,362.411 1112.7848,335.8599 1038.9283,335.8599 1038.9283,386.3286 1112.7848,386.3286 1096.1326,405.2936 1033.3776,405.2936 1033.3776,448.1762 1096.1326,448.1762 1112.7848,436.7972 1038.9282,436.7972 1038.9282,487.2658 1112.7848,487.2658 1096.1326,491.0588 1033.3776,491.0588 1029.2775,493.8605 1026.125,496.0147 1026.125,463.0439 1029.2775,456.5814 1083.8323,456.5814 1074.375,463.0439 1074.375,496.0147 1083.8323,493.8605 1138.3871,493.8605 1122.625,496.0147 1122.625,463.0439 1138.3871,456.5814 1192.9419,456.5814 1170.875,463.0439 1170.875,496.0147 1192.9419,493.8606 1221.6427,491.0588 1158.8876,491.0588 1186.6414,487.2658 1260.4978,487.2658 1260.4978,436.7972 1186.6414,436.7972 1158.8876,448.1762 1221.6427,448.1762 1221.6427,405.2936 1158.8876,405.2936 1186.6414,386.3286 1260.4979,386.3286 1260.4979,335.86 1186.6414,335.8599 1158.8877,362.411 1221.6427,362.411 1192.9419,382.0232 1192.9419,419.3023 1138.3871,419.3023 1138.3871,382.0232 1122.625,397.1022 1122.625,430.0731 1170.875,430.0731 1170.875,397.1022 1219.125,397.1023 1219.125,430.0731 1267.375,430.0731 1267.375,397.1023 1302.0516,382.0232 1302.0516,419.3024 1247.4967,419.3024 1247.4967,382.0232 1284.3977,362.411 1347.1528,362.411 1408.2109,335.86 1334.3544,335.86 1334.3544,386.3286 1408.2109,386.3286 1347.1528,405.2936 1284.3977,405.2936 1284.3977,448.1762 1347.1527,448.1763 1408.2109,436.7972 1334.3544,436.7972 1334.3544,487.2659 1408.2109,487.2659 1347.1527,491.0588 1284.3977,491.0588 1247.4967,493.8606 1219.1249,496.0147 1219.1249,463.0439 1247.4967,456.5814 1302.0515,456.5815 1267.375,463.0439 1267.375,496.0147 1302.0515,493.8606 1356.6063,493.8606 1315.6249,496.0148 1315.6249,463.0439 1356.6063,456.5815 1411.1611,456.5815 1363.8749,463.0439 1363.8749,496.0148 1411.1611,493.8606 1472.6628,491.0589 1409.9077,491.0588 1482.0674,487.2659 1555.924,487.2659 1555.924,436.7972 1482.0674,436.7972 1409.9077,448.1763 1472.6628,448.1763 1472.6628,405.2936 1409.9078,405.2936 1482.0675,386.3286 1555.924,386.3287 1555.924,335.86 1482.0675,335.86 1409.9078,362.411 1472.6628,362.4111 1411.1611,382.0233 1411.1611,419.3024 1356.6064,419.3024 1356.6064,382.0232 1315.625,397.1023 1315.625,430.0731 1363.8749,430.0731 1363.8749,397.1023 1363.875,364.1315 1411.1613,344.7441 1411.1613,307.465 1363.875,331.1606 1315.625,331.1606 1356.6064,307.465 1356.6064,344.7441 1315.625,364.1315 1267.375,364.1315 1267.375,331.1606 1219.125,331.1606 1219.125,364.1315 1247.4967,344.7441 1247.4967,307.465 1302.0516,307.465 1302.0516,344.7441 1347.1528,319.5284 1347.1528,276.6458 1284.3977,276.6458 1284.3977,319.5284 1334.3544,285.3914 1334.3545,234.9227 1408.2109,234.9227 1408.2109,285.3914 1482.0675,285.3914 1555.9241,285.3914 1472.6628,319.5284 1409.9078,319.5284 1409.9078,276.6458 1472.6628,276.6458 1555.9241,234.9227 1482.0675,234.9227 1482.0675,184.4542 1555.9241,184.4542 1472.6628,233.7632 1409.9078,233.7632 1409.9078,190.8806 1472.6628,190.8806 1555.9241,133.9855 1482.0675,133.9855 1408.2109,133.9855 1408.2109,184.4541 1334.3545,184.4541 1334.3545,133.9855 1284.3977,190.8806 1284.3977,233.7632 1347.1528,233.7632 1347.1528,190.8806 1302.0516,232.9067 1302.0516,270.1859 1247.4967,270.1859 1247.4967,232.9067 1219.125,265.219 1219.125,298.1898 1267.375,298.1898 1267.375,265.219 1315.625,265.219 1356.6064,232.9067 1356.6064,270.1859 1315.625,298.1898 1363.875,298.1898 1411.1613,270.1859 1411.1613,232.9067 1363.875,265.219 640.1251,265.2189 592.8389,232.9066 592.8389,270.1857 640.1251,298.1898 688.3751,298.1898 647.3937,270.1857 647.3937,232.9066 688.3751,265.2189 736.6251,265.2189 736.6251,298.1898 784.8751,298.1898 784.8751,265.2189 756.5033,232.9066 756.5033,270.1857 701.9485,270.1857 701.9485,232.9066 656.8473,190.8805 656.8473,233.7631 719.6024,233.7631 719.6024,190.8805 669.6457,133.9854 669.6457,184.454 595.7891,184.454 595.7891,133.9854 521.9326,133.9854 448.0761,133.9854 531.3372,190.8805 594.0923,190.8805 594.0923,233.7631 531.3372,233.7631 448.0761,184.454 521.9326,184.454 521.9326,234.9226 448.0761,234.9226 531.3372,276.6457 594.0923,276.6457 594.0922,319.5283 531.3372,319.5283 448.0761,285.3912 521.9326,285.3912 595.7891,285.3912 595.7891,234.9226 669.6457,234.9226 669.6456,285.3912 719.6024,319.5283 719.6024,276.6457 656.8473,276.6457 656.8473,319.5283 701.9485,344.744 701.9485,307.4648 756.5033,307.4648 756.5033,344.744 784.8751,364.1314 784.8751,331.1606 736.6251,331.1606 736.6251,364.1313 688.3751,364.1313 647.3936,344.744 647.3937,307.4648 688.3751,331.1605 640.1251,331.1605 592.8389,307.4648 592.8389,344.744 640.1251,364.1313 640.1251,397.1022 640.1251,430.073 688.3751,430.073 688.3751,397.1022 647.3936,382.0231 647.3936,419.3022 592.8388,419.3022 592.8388,382.0231 531.3372,362.4109 594.0922,362.4109 521.9326,335.8599 448.0761,335.8599 448.0761,386.3285 521.9326,386.3285 594.0922,405.2935 531.3372,405.2935 531.3372,448.1761 594.0922,448.1761 521.9326,436.7971 448.0761,436.7971 448.0761,487.2657 521.9326,487.2657 594.0922,491.0587 531.3372,491.0587 592.8388,493.8605 640.1251,496.0146 640.1251,463.0438 592.8388,456.5814 647.3936,456.5814 688.3751,463.0438 688.3751,496.0146 647.3936,493.8605 701.9484,493.8605 736.6251,496.0146 736.6251,463.0438 701.9484,456.5814 756.5033,456.5814 784.8751,463.0438 784.8751,496.0146 756.5033,493.8605 719.6023,491.0588 656.8472,491.0587 595.7891,487.2657 669.6456,487.2657 669.6456,436.7971 595.7891,436.7971 656.8472,448.1761 719.6023,448.1761 719.6024,405.2935 656.8473,405.2935 595.7891,386.3285 669.6456,386.3285 669.6456,335.8599 595.7891,335.8599 656.8473,362.4109 719.6024,362.4109 756.5033,382.0231 756.5033,419.3022 701.9485,419.3022 701.9485,382.0231 736.6251,397.1022 736.6251,430.073 784.8751,430.073 784.8751,397.1022 833.1251,397.1022 833.1251,430.0731 881.3751,430.0731 881.3751,397.1022 865.613,382.0231 865.6129,419.3022 811.0581,419.3022 811.0581,382.0231 782.3574,362.4109 845.1124,362.4109 817.3587,335.8599 743.5021,335.8599 743.5021,386.3285 817.3587,386.3286 845.1124,405.2936 782.3574,405.2936 782.3574,448.1761 845.1124,448.1761 817.3587,436.7971 743.5021,436.7971 743.5021,487.2657 817.3587,487.2657 845.1124,491.0588 782.3574,491.0588 811.0581,493.8605 833.1251,496.0146 833.1251,463.0438 811.0581,456.5814 865.6129,456.5814 881.3751,463.0439 881.3751,496.0146 865.6129,493.8605 920.1678,493.8605 929.625,496.0147 929.625,463.0439 920.1678,456.5814 974.7226,456.5814 977.875,463.0439 977.875,496.0147 974.7226,493.8605 970.6225,491.0588 907.8674,491.0588 891.2152,487.2657 965.0717,487.2658 965.0717,436.7972 891.2152,436.7972 907.8674,448.1761 970.6225,448.1762 970.6225,405.2936 907.8674,405.2936 891.2152,386.3286 965.0718,386.3286 965.0718,335.8599 891.2152,335.8599 907.8674,362.4109 970.6225,362.4109 974.7226,382.0231 974.7226,419.3023 920.1678,419.3023 920.1678,382.0231 929.6251,397.1022 929.6251,430.0731 977.875,430.0731 977.875,397.1022 977.875,364.1314 929.6251,364.1314 920.1678,344.744 974.7226,344.744 974.7226,307.4649 920.1678,307.4649 929.6251,331.1606 977.8751,331.1606 977.8751,298.1898 974.7227,270.1858 974.7227,232.9067 977.8751,265.2189 929.6251,265.2189 920.1678,232.9066 920.1678,270.1858 929.6251,298.1898 881.3751,298.1898 865.613,270.1858 865.613,232.9066 881.3751,265.2189 833.1251,265.2189 811.0582,232.9066 811.0582,270.1858 833.1251,298.1898 833.1251,331.1606 833.1251,364.1314 881.3751,364.1314 881.3751,331.1606 865.613,307.4649 865.613,344.744 811.0581,344.744 811.0582,307.4649 782.3574,276.6458 782.3574,319.5283 845.1124,319.5283 845.1124,276.6458 817.3587,234.9227 817.3587,285.3913 743.5021,285.3913 743.5022,234.9227 743.5022,184.454 782.3574,233.7631 782.3574,190.8805 743.5022,133.9854 817.3588,133.9854 845.1124,190.8805 845.1124,233.7631 817.3588,184.454 891.2153,184.454 907.8675,233.7631 907.8675,190.8805 891.2153,133.9854 965.0718,133.9854 970.6226,190.8806 970.6225,233.7632 965.0718,184.454 965.0718,234.9227 891.2153,234.9227 907.8675,276.6458 970.6225,276.6458 970.6225,319.5284 907.8674,319.5284 891.2152,285.3913 965.0718,285.3913 957.1351,236.5806 867.4052,236.5806 830.5587,161.0452 944.8529,161.0453 944.8529,82.9442 830.5587,82.9441 867.4052,175.2651 957.1351,175.2652 957.1351,113.9498 944.853,4.8431 944.853,-73.2579 957.1351,52.6343 867.4052,52.6343 830.5587,-73.2579 830.5587,4.8431 867.4052,113.9498 777.6753,113.9498 716.2644,4.8431 716.2645,-73.2579 777.6753,52.6343 687.9454,52.6343 601.9702,-73.2579 601.9702,4.8431 687.9453,113.9498 687.9453,175.2651 687.9453,236.5806 777.6753,236.5806 777.6753,175.2651 716.2644,82.9441 716.2644,161.0452 601.97,161.0452 601.9702,82.9441 451.1777,-78.9783 451.1776,28.5633 608.5555,28.5633 608.5555,-78.9783 370.5157,-436.8315 370.5157,-264.2257 117.9218,-264.2258 117.922,-436.8315 117.922,-609.4373 451.1777,-186.5197 451.1777,-294.0613 117.922,-782.043 370.5158,-782.043 608.5556,-294.0613 608.5556,-186.5197 370.5158,-609.4373 623.1095,-609.4373 765.9334,-186.5197 765.9334,-294.0613 623.1095,-782.043 875.7033,-782.043 923.3112,-294.0612 923.3112,-186.5197 875.7033,-609.4371 875.7032,-436.8315 623.1095,-436.8315 765.9333,-78.9783 923.3112,-78.9781 923.3112,28.5634 765.9333,28.5633 623.1094,-264.2257 875.7032,-264.2257 875.7032,-91.62 875.7032,80.9858 623.1094,80.9857 623.1094,-91.62 765.9333,136.1048 765.9333,243.6463 923.3112,243.6463 923.3112,136.1048 944.8529,239.1463 830.5587,239.1463 867.4052,297.8961 957.1351,297.8961 957.1351,359.2115 867.4052,359.2115 830.5586,317.2474 944.8529,317.2474 944.8529,395.3484 830.5586,395.3484 867.4052,420.5269 957.1351,420.5269 957.1351,481.8423 867.4052,481.8423 830.5586,473.4495 944.8528,473.4495 923.3111,458.7293 875.7031,426.1971 875.7031,253.5914 923.3111,351.1878 765.9333,351.1878 623.1094,253.5914 623.1094,426.1971 765.9333,458.7293 608.5554,458.7292 370.5156,426.1971 370.5156,253.5913 608.5554,351.1877 451.1776,351.1877 117.9217,253.5912 117.9217,426.197 451.1776,458.7292 601.97,473.4495 716.2643,473.4495 777.6752,481.8423 687.9453,481.8423 687.9453,420.5269 777.6752,420.5269 716.2643,395.3484 601.97,395.3484 601.97,317.2474 716.2643,317.2474 777.6752,359.2115 687.9453,359.2114 687.9453,297.896 777.6752,297.896 716.2643,239.1462 601.97,239.1462 451.1776,136.1047 451.1776,243.6462 608.5554,243.6462 608.5555,136.1047 370.5157,-91.6201 370.5156,80.9857 117.9218,80.9857 117.9218,-91.6201 -134.6719,-91.6202 -134.6719,80.9855 -387.2657,80.9855 -387.2657,-91.6202 136.4221,136.1047 136.422,243.6462 293.7998,243.6462 293.7999,136.1047 487.6758,239.1462 373.3816,239.1462 508.4855,297.896 598.2154,297.896 598.2154,359.2114 508.4855,359.2114 373.3816,317.2473 487.6758,317.2473 487.6758,395.3484 373.3815,395.3484 508.4854,420.5269 598.2154,420.5269 598.2154,481.8423 508.4854,481.8423 373.3815,473.4495 487.6758,473.4495 293.7998,458.7292 -134.672,426.197 -134.672,253.5912 293.7998,351.1877 136.4219,351.1877 -387.2659,253.5912 -387.2659,426.197 136.4219,458.7292 -20.9559,458.7291 -639.8596,426.1969 -639.8596,253.5911 -20.9559,351.1876 -178.3337,351.1876 -892.4534,253.5911 -892.4534,426.1968 -178.3337,458.7291 144.793,473.4494 259.0872,473.4494 418.7555,481.8423 329.0256,481.8423 329.0256,420.5269 418.7555,420.5269 259.0872,395.3483 144.793,395.3483 144.793,317.2473 259.0872,317.2473 418.7555,359.2114 329.0256,359.2114 329.0256,297.8959 418.7555,297.896 259.0872,239.1462 144.793,239.1462 -178.3336,136.1046 -178.3337,243.6461 -20.9559,243.6462 -20.9558,136.1047 -639.8595,-91.6202 -639.8595,80.9855 -892.4532,80.9855 -892.4532,-91.6202 -892.4531,-264.226 -178.3335,28.5632 -178.3335,-78.9784 -892.4531,-436.8318 -639.8594,-436.8318 -20.9557,-78.9784 -20.9558,28.5632 -639.8595,-264.226 -387.2657,-264.226 -387.2657,-436.8317 -134.6718,-436.8317 -134.6719,-264.226 293.7999,28.5632 293.7999,-78.9783 136.4221,-78.9783 136.4221,28.5632 373.3816,161.0452 373.3816,82.9441 487.6758,82.9441 487.6758,161.0452 598.2154,236.5806 598.2154,175.2651 508.4855,175.2651 508.4855,236.5805 418.7555,236.5805 329.0257,236.5805 144.7931,161.0451 259.0872,161.0452 259.0873,82.944 144.7931,82.944 329.0257,175.2651 418.7556,175.2651 418.7556,113.9496 329.0257,113.9496 144.7931,4.843 259.0873,4.843 259.0874,-73.2581 144.7932,-73.2581 329.0258,52.6342 418.7556,52.6342 508.4855,52.6343 508.4855,113.9497 598.2154,113.9497 598.2155,52.6343 487.6759,-73.2581 487.6758,4.843 373.3816,4.843 373.3816,-73.2581 136.4221,-294.0613 136.4221,-186.5198 293.7999,-186.5198 293.7999,-294.0613 -134.6718,-782.0431 -134.6718,-609.4374 -387.2657,-609.4374 -387.2657,-782.0431 -639.8594,-782.0433 -20.9557,-294.0614 -20.9557,-186.5199 -639.8594,-609.4375 -892.4531,-609.4375 -178.3335,-186.5199 -178.3335,-294.0614 -892.4531,-782.0433 -3794.2668,-2764.95 -3794.2668,-2327.9565 -3154.7646,-2327.9565 -3154.7646,-2764.95 -3794.2668,-1453.9702 -3794.2668,-1890.9634 -3154.7646,-1890.9634 -3154.7651,-1453.9702 -2515.2627,-1453.9702 -2515.2627,-1890.9631 -1875.76,-1890.9631 -1875.7603,-1453.97 -2515.2627,-2764.9495 -2515.2627,-2327.9563 -1875.76,-2327.9563 -1875.76,-2764.9495 -1236.2577,-2764.9492 -596.7552,-2764.9492 -596.7552,-2327.9558 -1236.2577,-2327.9558 -1236.2577,-1890.9629 -1236.2581,-1453.9697 -596.7554,-1453.9697 -596.7554,-1890.9629 42.7469,-1890.9629 42.7468,-1453.9695 682.2491,-1453.9695 682.2492,-1890.9626 682.2493,-2327.9558 682.2493,-2764.9492 42.747,-2764.9492 42.747,-2327.9558 42.7464,-142.9901 42.7464,294.0031 682.2488,294.0032 682.2488,-142.9901 682.249,-579.9832 682.249,-1016.9766 42.7467,-1016.9767 42.7466,-579.9833 -596.7559,-579.9834 -596.7557,-1016.9768 -1236.2583,-1016.9769 -1236.2583,-579.9835 -1236.2587,-142.9904 -596.756,-142.9902 -596.756,294.003 -1236.2587,294.0029 -1875.761,294.0028 -1875.761,-142.9905 -2515.2637,-142.9906 -2515.2637,294.0027 -1875.7605,-1016.9771 -1875.7605,-579.9836 -2515.2629,-579.9838 -2515.2629,-1016.9772 -3154.7654,-1016.9772 -3154.7654,-579.9838 -3794.2676,-579.9839 -3794.2676,-1016.9773 -3154.7659,294.0026 -3154.7659,-142.9907 -3794.2681,-142.9907 -3794.2681,294.0025 -3794.2681,730.9958 -3794.2681,1167.9891 -3154.7659,1167.9892 -3154.7659,730.9958 -3794.2686,2041.9758 -3794.2686,1604.9824 -3154.7666,1604.9824 -3154.7666,2041.9759 -2515.2642,2041.9759 -2515.2642,1604.9824 -1875.7616,1604.9826 -1875.7616,2041.976 -2515.2637,730.996 -2515.2637,1167.9893 -1875.761,1167.9894 -1875.761,730.9961 -1236.2587,730.9962 -596.756,730.9963 -596.7562,1167.9896 -1236.2587,1167.9895 -1236.259,1604.9827 -1236.259,2041.9762 -596.7565,2041.9763 -596.7563,1604.9829 42.746,1604.983 42.746,2041.9764 682.2485,2041.9766 682.2485,1604.9831 682.2487,1167.9898 682.2487,730.9965 42.7462,730.9964 42.7461,1167.9897 42.7457,3352.9565 42.7456,3789.95 682.2482,3789.9504 682.2482,3352.9568 682.2484,2915.9635 682.2484,2478.9697 42.7459,2478.9696 42.7458,2915.9634 -596.7567,2915.9634 -596.7565,2478.9696 -1236.259,2478.9694 -1236.2596,2915.9634 -1236.2596,3352.9565 -596.7569,3352.9565 -596.7569,3789.95 -1236.2596,3789.95 -1875.7621,3789.9497 -1875.7621,3352.9563 -2515.2646,3352.9563 -2515.2646,3789.9497 -1875.7616,2478.9692 -1875.7621,2915.963 -2515.2646,2915.963 -2515.2642,2478.9692 -3154.7666,2478.9692 -3154.7673,2915.9628 -3794.2698,2915.9628 -3794.2693,2478.969 -3154.7673,3789.9497 -3154.7673,3352.9561 -3794.2698,3352.9561 -3794.2698,3789.9497 -892.4538,1807.0428 -639.86,1807.0428 -20.9561,1319.0612 -178.3339,1319.0612 -178.3339,1211.5196 -20.9561,1211.5196 -639.86,1634.437 -892.4538,1634.437 -892.4538,1461.8313 -178.3339,1103.9781 -178.3339,996.4366 -892.4538,1289.2256 -639.8599,1289.2256 -20.956,996.4367 -20.9561,1103.9781 -639.86,1461.8313 -387.2661,1461.8314 136.4218,1103.9782 136.4218,996.4367 -387.2661,1289.2256 -134.6723,1289.2257 293.7997,996.4367 293.7996,1103.9782 -134.6723,1461.8314 -134.6723,1634.4371 -134.6723,1807.0428 -387.2661,1807.0428 -387.2661,1634.4371 136.4218,1211.5197 136.4218,1319.0612 293.7996,1319.0612 293.7996,1211.5197 487.6757,1020.157 487.6757,1098.2581 373.3814,1098.2581 373.3814,1020.157 508.4854,911.0504 508.4854,972.3658 598.2153,972.3658 598.2153,911.0504 598.2153,849.7349 487.6757,942.0559 487.6757,863.9548 598.2153,788.4195 508.4854,788.4195 373.3814,863.9548 373.3814,942.0559 508.4854,849.7349 418.7554,849.7349 259.0871,942.0559 259.0872,863.9548 418.7555,788.4195 329.0255,788.4194 144.7929,863.9548 144.7929,942.0559 329.0255,849.7349 329.0255,911.0503 418.7554,911.0503 259.0871,1020.1569 144.7929,1020.1569 144.7929,1098.258 259.0871,1098.258 418.7554,972.3658 329.0255,972.3658 448.076,891.0147 531.3372,834.1196 531.3372,791.237 448.076,840.546 521.9325,840.546 594.0922,791.237 594.0922,834.1196 521.9325,891.0147 595.7891,891.0147 595.7891,840.5461 669.6456,840.5461 669.6456,891.0147 719.6022,834.1196 719.6022,791.237 656.8472,791.237 656.8472,834.1196 701.9484,792.0935 701.9484,754.8144 756.5032,754.8144 756.5032,792.0935 784.875,759.7812 784.875,726.8104 736.6251,726.8104 736.6251,759.7812 688.3751,759.7812 640.1251,759.7812 592.8387,792.0935 647.3936,792.0935 647.3936,754.8144 592.8387,754.8144 640.1251,726.8104 688.3751,726.8104 688.3751,693.8396 640.1251,693.8396 592.8387,717.5352 647.3936,717.5352 647.3936,680.2561 592.8387,680.2561 640.1251,660.8687 688.3751,660.8687 736.6251,660.8687 736.6251,693.8396 784.875,693.8396 784.8751,660.8687 756.5032,680.2561 756.5032,717.5352 701.9484,717.5352 701.9484,680.2561 656.8472,705.4718 656.8472,748.3544 719.6022,748.3544 719.6023,705.4718 669.6456,739.6088 669.6456,790.0774 595.7891,790.0774 595.7891,739.6088 521.9326,739.6088 594.0922,705.4718 594.0922,748.3544 521.9325,790.0774 448.076,790.0774 531.3372,748.3544 531.3372,705.4717 448.076,739.6088 448.0761,689.1402 531.3372,662.5891 531.3372,619.7065 448.0761,638.6716 521.9326,638.6716 594.0922,619.7065 594.0922,662.5892 521.9326,689.1402 595.7891,689.1402 595.7891,638.6716 669.6456,638.6716 669.6456,689.1402 719.6023,662.5892 719.6023,619.7066 656.8472,619.7065 656.8472,662.5892 701.9484,642.977 701.9484,605.6978 756.5032,605.6979 756.5032,642.977 784.8751,627.8979 784.8751,594.9271 736.6251,594.9271 736.6251,627.8979 688.3751,627.8979 640.1251,627.8979 592.8388,642.977 647.3936,642.977 647.3936,605.6978 592.8388,605.6978 640.1251,594.9271 688.3751,594.9271 688.3751,561.9563 640.1251,561.9563 592.8388,568.4187 647.3936,568.4187 647.3936,531.1396 592.8388,531.1396 640.1251,528.9854 688.3751,528.9855 736.6251,528.9855 736.6251,561.9563 784.8751,561.9563 784.8751,528.9855 756.5033,531.1396 756.5033,568.4188 701.9484,568.4187 701.9484,531.1396 656.8472,533.9413 656.8472,576.8239 719.6023,576.824 719.6023,533.9413 669.6456,537.7343 669.6456,588.203 595.7891,588.203 595.7891,537.7343 521.9326,537.7343 594.0922,533.9413 594.0922,576.8239 521.9326,588.2029 448.0761,588.2029 531.3372,576.8239 531.3372,533.9413 448.0761,537.7343 329.0256,543.1577 329.0256,604.4731 418.7555,604.4731 418.7555,543.1577 259.0872,551.5505 259.0872,629.6516 144.793,629.6516 144.793,551.5505 -178.3337,566.2706 -20.9559,566.2707 -639.8596,598.8026 -892.4534,598.8026 -892.4534,771.4083 -639.8596,771.4083 -20.9559,673.8121 -178.3337,673.8121 -178.3337,781.3536 -20.956,781.3537 -639.8599,944.0141 -892.4535,944.0141 -892.4535,1116.6199 -639.8599,1116.6199 -20.956,888.8952 -178.3337,888.8952 144.793,785.8537 329.0256,727.104 329.0256,665.7886 144.793,707.7526 259.0872,707.7527 418.7555,665.7886 418.7555,727.104 259.0872,785.8537 373.3814,785.8537 508.4854,727.104 508.4854,665.7886 373.3814,707.7527 487.6757,707.7527 598.2153,665.7886 598.2153,727.1041 487.6757,785.8538 293.7997,888.8952 136.4218,888.8952 -387.2661,1116.6199 -134.6723,1116.62 -134.6723,944.0142 -387.2661,944.0141 136.4218,781.3537 293.7997,781.3537 293.7998,673.8122 136.4219,673.8122 -387.2659,771.4084 -134.672,771.4084 -134.672,598.8027 -387.2659,598.8027 136.4219,566.2707 293.7998,566.2707 487.6758,551.5505 487.6758,629.6516 373.3815,629.6516 373.3815,551.5505 508.4854,543.1577 508.4854,604.4732 598.2154,604.4732 598.2154,543.1577 687.9453,543.1577 687.9453,604.4732 777.6752,604.4732 777.6752,543.1578 716.2643,551.5506 716.2643,629.6516 601.97,629.6516 601.97,551.5506 451.1776,566.2707 608.5554,566.2708 370.5156,598.8028 117.9217,598.8028 117.9217,771.4085 370.5155,771.4085 608.5554,673.8123 451.1776,673.8122 451.1775,781.3537 608.5554,781.3538 370.5154,944.0143 117.9216,944.0142 117.9216,1116.62 370.5154,1116.6201 608.5554,888.8953 451.1775,888.8952 601.97,785.8538 687.9453,727.1041 687.9453,665.7886 601.97,707.7527 716.2643,707.7527 777.6752,665.7886 777.6752,727.1041 716.2643,785.8538 830.5585,785.8538 867.4051,727.1041 867.4051,665.7887 830.5585,707.7527 944.8528,707.7528 957.135,665.7887 957.135,727.1041 944.8528,785.8539 923.311,888.8953 765.9332,888.8953 623.1092,1116.6201 875.703,1116.6202 875.703,944.0144 623.1092,944.0144 765.9332,781.3538 923.311,781.3538 923.311,673.8123 765.9332,673.8123 623.1093,771.4086 875.7031,771.4086 875.7031,598.8029 623.1093,598.8029 765.9332,566.2708 923.3111,566.2708 944.8528,551.5506 944.8528,629.6517 830.5585,629.6517 830.5586,551.5506 867.4051,543.1578 867.4051,604.4732 957.135,604.4732 957.135,543.1578 965.0717,537.7344 970.6225,533.9414 970.6225,576.824 965.0717,588.203 891.2152,588.203 907.8674,576.824 907.8674,533.9414 891.2152,537.7344 817.3587,537.7344 817.3586,588.203 743.5021,588.203 743.5021,537.7344 782.3574,533.9414 782.3574,576.824 845.1124,576.824 845.1124,533.9414 865.6129,531.1396 865.6129,568.4188 811.0581,568.4188 811.0581,531.1396 833.1251,528.9855 833.1251,561.9563 881.375,561.9563 881.3751,528.9855 929.625,528.9855 977.875,528.9855 974.7226,531.1396 920.1677,531.1396 920.1677,568.4188 974.7226,568.4188 977.875,561.9563 929.625,561.9563 929.625,594.9272 977.875,594.9272 974.7226,605.6979 920.1677,605.6979 920.1677,642.9771 974.7226,642.9771 977.875,627.898 929.625,627.898 881.375,627.8979 881.375,594.9271 833.125,594.9271 833.125,627.8979 811.0581,642.977 811.0581,605.6979 865.6129,605.6979 865.6129,642.977 845.1124,662.5892 845.1124,619.7066 782.3573,619.7066 782.3573,662.5892 743.5021,689.1402 743.5021,638.6716 817.3586,638.6716 817.3586,689.1403 891.2151,689.1403 907.8674,662.5892 907.8674,619.7066 891.2152,638.6716 965.0717,638.6716 970.6224,619.7066 970.6224,662.5892 965.0717,689.1403 965.0717,739.6089 970.6224,705.4718 970.6224,748.3544 965.0717,790.0775 891.2151,790.0775 907.8674,748.3544 907.8674,705.4718 891.2151,739.6089 817.3586,739.6089 817.3586,790.0775 743.5021,790.0775 743.5021,739.6088 782.3573,705.4718 782.3573,748.3544 845.1124,748.3544 845.1124,705.4718 865.6129,680.2561 865.6129,717.5353 811.058,717.5353 811.0581,680.2561 833.125,660.8688 833.125,693.8396 881.375,693.8396 881.375,660.8688 929.625,660.8688 977.875,660.8688 974.7225,680.2562 920.1677,680.2562 920.1677,717.5353 974.7225,717.5353 977.875,693.8396 929.625,693.8396 929.625,726.8104 977.875,726.8104 974.7225,754.8144 920.1677,754.8144 920.1677,792.0935 974.7225,792.0936 977.8749,759.7813 929.625,759.7812 881.375,759.7812 881.375,726.8104 833.125,726.8104 833.125,759.7812 811.058,792.0935 811.058,754.8144 865.6129,754.8144 865.6129,792.0935 845.1124,834.1196 845.1124,791.237 782.3573,791.237 782.3573,834.1196 743.5021,891.0147 743.5021,840.5461 817.3586,840.5461 817.3586,891.0147 891.2151,891.0147 907.8674,834.1196 907.8674,791.237 891.2151,840.5461 965.0717,840.5461 970.6224,791.237 970.6224,834.1196 965.0717,891.0148 957.1349,972.3659 867.405,972.3659 830.5585,1098.2581 944.8528,1098.2582 944.8528,1020.1571 830.5585,1020.157 867.405,911.0504 957.1349,911.0504 957.135,849.735 944.8528,942.056 944.8528,863.9549 957.135,788.4195 867.4051,788.4195 830.5585,863.9549 830.5585,942.056 867.4051,849.735 777.6752,849.735 716.2643,942.056 716.2643,863.9549 777.6752,788.4195 687.9453,788.4195 601.97,863.9548 601.9699,942.056 687.9452,849.735 687.9452,911.0504 687.9452,972.3659 777.6751,972.3659 777.6751,911.0504 716.2642,1020.157 716.2642,1098.2581 601.9699,1098.2581 601.9699,1020.157 451.1774,1211.5198 451.1774,1319.0613 608.5553,1319.0613 608.5553,1211.5198 370.5153,1634.4373 370.5153,1807.043 117.9214,1807.043 117.9214,1634.4373 117.9214,1461.8315 451.1774,1103.9783 451.1775,996.4367 117.9216,1289.2257 370.5154,1289.2258 608.5554,996.4368 608.5554,1103.9783 370.5154,1461.8315 623.1091,1461.8315 765.9332,1103.9783 765.9332,996.4368 623.1091,1289.2259 875.7029,1289.2259 923.311,996.4368 923.311,1103.9783 875.7029,1461.8316 875.7029,1634.4373 623.1091,1634.4373 765.9332,1211.5198 923.311,1211.5198 923.311,1319.0613 765.9331,1319.0613 623.1091,1807.043 875.7029,1807.0432 1128.2968,1807.0432 1380.8905,1807.0432 1238.0667,1319.0614 1080.6888,1319.0613 1080.6888,1211.5198 1238.0667,1211.5199 1380.8905,1634.4374 1128.2968,1634.4373 1128.2968,1461.8316 1080.6888,1103.9783 1080.6888,996.4368 1128.2968,1289.2259 1380.8906,1289.2259 1238.0667,996.4369 1238.0667,1103.9784 1380.8906,1461.8317 1633.4844,1461.8317 1395.4445,1103.9784 1395.4445,996.4369 1633.4844,1289.226 1886.0782,1289.226 1552.8224,996.4369 1552.8223,1103.9784 1886.0781,1461.8317 1886.0781,1634.4374 1886.0781,1807.0432 1633.4843,1807.0432 1633.4843,1634.4374 1395.4445,1211.5199 1395.4445,1319.0614 1552.8223,1319.0614 1552.8223,1211.5199 1402.0299,1020.1571 1402.0299,1098.2582 1287.7356,1098.2582 1287.7356,1020.1571 1226.3247,911.0505 1226.3247,972.3659 1316.0547,972.3659 1316.0547,911.0505 1316.0547,849.735 1402.0299,942.0561 1402.0299,863.955 1316.0547,788.4196 1226.3247,788.4196 1287.7356,863.955 1287.7356,942.0561 1226.3247,849.735 1136.5948,849.735 1173.4413,942.0561 1173.4414,863.9549 1136.5948,788.4196 1046.8649,788.4195 1059.1471,863.9549 1059.1471,942.056 1046.8649,849.735 1046.8649,911.0504 1136.5948,911.0505 1173.4413,1020.1571 1059.1471,1020.1571 1059.1471,1098.2582 1173.4413,1098.2582 1136.5948,972.3659 1046.8649,972.3659 1038.9282,891.0148 1033.3774,834.1196 1033.3774,791.237 1038.9282,840.5461 1112.7848,840.5461 1096.1326,791.2371 1096.1326,834.1197 1112.7848,891.0148 1186.6412,891.0148 1186.6412,840.5461 1260.4978,840.5461 1260.4978,891.0148 1221.6426,834.1197 1221.6426,791.2371 1158.8876,791.2371 1158.8876,834.1197 1138.387,792.0936 1138.387,754.8145 1192.9419,754.8145 1192.9419,792.0936 1170.8749,759.7813 1170.8749,726.8105 1122.6249,726.8105 1122.6249,759.7813 1074.375,759.7813 1026.125,759.7813 1029.2773,792.0936 1083.8322,792.0936 1083.8322,754.8145 1029.2773,754.8144 1026.125,726.8104 1074.375,726.8105 1074.375,693.8396 1026.125,693.8396 1029.2773,717.5353 1083.8322,717.5353 1083.8323,680.2562 1029.2773,680.2562 1026.125,660.8688 1074.375,660.8688 1122.6249,660.8688 1122.6249,693.8396 1170.8749,693.8396 1170.875,660.8688 1192.9419,680.2562 1192.9419,717.5353 1138.3871,717.5353 1138.3871,680.2562 1158.8876,705.4718 1158.8876,748.3545 1221.6426,748.3545 1221.6427,705.4719 1260.4978,739.6089 1260.4978,790.0775 1186.6412,790.0775 1186.6412,739.6089 1112.7848,739.6089 1096.1326,705.4718 1096.1326,748.3545 1112.7848,790.0775 1038.9282,790.0775 1033.3774,748.3544 1033.3774,705.4718 1038.9282,739.6089 1038.9282,689.1403 1033.3774,662.5892 1033.3776,619.7066 1038.9282,638.6716 1112.7848,638.6717 1096.1326,619.7066 1096.1326,662.5892 1112.7848,689.1403 1186.6412,689.1403 1186.6414,638.6717 1260.4978,638.6717 1260.4978,689.1403 1221.6427,662.5893 1221.6427,619.7067 1158.8876,619.7066 1158.8876,662.5893 1138.3871,642.9771 1138.3871,605.6979 1192.9419,605.6979 1192.9419,642.9771 1170.875,627.898 1170.875,594.9272 1122.625,594.9272 1122.625,627.898 1074.375,627.898 1026.125,627.898 1029.2773,642.9771 1083.8323,642.9771 1083.8323,605.6979 1029.2773,605.6979 1026.125,594.9272 1074.375,594.9272 1074.375,561.9564 1026.125,561.9563 1029.2775,568.4188 1083.8323,568.4188 1083.8323,531.1397 1029.2775,531.1397 1026.125,528.9855 1074.375,528.9855 1122.625,528.9855 1122.625,561.9564 1170.875,561.9564 1170.875,528.9855 1192.9419,531.1397 1192.9419,568.4188 1138.3871,568.4188 1138.3871,531.1397 1158.8876,533.9414 1158.8876,576.824 1221.6427,576.824 1221.6427,533.9414 1260.4978,537.7344 1260.4978,588.2031 1186.6414,588.2031 1186.6414,537.7344 1112.7848,537.7344 1096.1326,533.9414 1096.1326,576.824 1112.7848,588.203 1038.9282,588.203 1033.3776,576.824 1033.3776,533.9414 1038.9282,537.7344 1046.865,543.1578 1046.865,604.4733 1136.5948,604.4733 1136.5948,543.1578 1173.4414,551.5507 1173.4414,629.6517 1059.1471,629.6517 1059.1471,551.5506 1080.689,566.2708 1238.0668,566.2709 1380.8906,598.8029 1128.2969,598.8029 1128.2969,771.4087 1380.8906,771.4087 1238.0668,673.8123 1080.6888,673.8123 1080.6888,781.3538 1238.0667,781.3539 1380.8906,944.0144 1128.2969,944.0144 1128.2968,1116.6202 1380.8906,1116.6202 1238.0667,888.8954 1080.6888,888.8953 1059.1471,785.8539 1046.8649,727.1041 1046.865,665.7887 1059.1471,707.7528 1173.4414,707.7528 1136.5948,665.7887 1136.5948,727.1041 1173.4414,785.8539 1287.7356,785.8539 1226.3247,727.1042 1226.3248,665.7887 1287.7357,707.7528 1402.0299,707.7528 1316.0547,665.7887 1316.0547,727.1042 1402.0299,785.8539 1552.8224,888.8954 1395.4445,888.8954 1633.4844,1116.6203 1886.0782,1116.6203 1886.0782,944.0145 1633.4845,944.0145 1395.4446,781.3539 1552.8224,781.3539 1552.8224,673.8124 1395.4446,673.8124 1633.4845,771.4087 1886.0784,771.4088 1886.0784,598.803 1633.4845,598.803 1395.4446,566.2709 1552.8224,566.2709 1402.03,551.5507 1402.03,629.6518 1287.7357,629.6517 1287.7357,551.5507 1226.3248,543.1578 1226.3248,604.4733 1316.0547,604.4733 1316.0547,543.1579 1405.7847,543.1579 1405.7847,604.4733 1495.5145,604.4733 1495.5145,543.1579 1630.6185,551.5507 1630.6185,629.6518 1516.3242,629.6518 1516.3242,551.5507 1710.2002,566.2709 1867.5781,566.271 2391.2659,598.8031 2138.6721,598.8031 2138.6721,771.4088 2391.2659,771.4089 1867.5781,673.8125 1710.2002,673.8124 1710.2002,781.3539 1867.578,781.354 2391.2659,944.0146 2138.6721,944.0146 2138.6721,1116.6204 2391.2659,1116.6204 1867.578,888.8955 1710.2002,888.8955 1516.3242,785.854 1405.7845,727.1042 1405.7845,665.7888 1516.3242,707.7528 1630.6184,707.7529 1495.5145,665.7888 1495.5145,727.1042 1630.6184,785.854 1744.9127,785.854 1585.2445,727.1042 1585.2445,665.7888 1744.9127,707.7529 1859.207,707.7529 1674.9744,665.7888 1674.9744,727.1042 1859.207,785.854 2182.3337,888.8955 2024.9559,888.8955 2643.8596,1116.6204 2896.4534,1116.6205 2896.4534,944.0147 2643.8596,944.0146 2024.9559,781.354 2182.3337,781.354 2182.3337,673.8125 2024.9559,673.8125 2643.8596,771.4089 2896.4534,771.4089 2896.4534,598.8032 2643.8596,598.8032 2024.9559,566.271 2182.3337,566.271 1859.207,551.5508 1859.207,629.6518 1744.9127,629.6518 1744.9127,551.5508 1585.2445,543.1579 1585.2445,604.4733 1674.9744,604.4734 1674.9744,543.1579 1555.924,537.7345 1472.6628,533.9415 1472.6628,576.8241 1555.924,588.2031 1482.0674,588.2031 1409.9077,576.8241 1409.9077,533.9415 1482.0674,537.7345 1408.2109,537.7345 1408.2109,588.2031 1334.3544,588.2031 1334.3544,537.7345 1284.3977,533.9414 1284.3977,576.8241 1347.1527,576.8241 1347.1527,533.9415 1302.0515,531.1397 1302.0515,568.4189 1247.4967,568.4188 1247.4967,531.1397 1219.1249,528.9856 1219.1249,561.9564 1267.375,561.9564 1267.375,528.9856 1315.6249,528.9856 1363.8749,528.9856 1411.1611,531.1397 1356.6063,531.1397 1356.6063,568.4189 1411.1611,568.4189 1363.8749,561.9564 1315.6249,561.9564 1315.6249,594.9272 1363.8749,594.9272 1411.1611,605.698 1356.6063,605.698 1356.6063,642.9771 1411.1611,642.9771 1363.8749,627.898 1315.6249,627.898 1267.3749,627.898 1267.3749,594.9272 1219.1249,594.9272 1219.1249,627.898 1247.4967,642.9771 1247.4967,605.698 1302.0515,605.698 1302.0515,642.9771 1347.1527,662.5893 1347.1527,619.7067 1284.3977,619.7067 1284.3977,662.5893 1334.3544,689.1404 1334.3544,638.6717 1408.2109,638.6717 1408.2109,689.1404 1482.0674,689.1404 1409.9077,662.5893 1409.9077,619.7067 1482.0674,638.6717 1555.924,638.6717 1472.6628,619.7067 1472.6628,662.5893 1555.924,689.1404 1555.924,739.609 1472.6627,705.4719 1472.6627,748.3545 1555.924,790.0776 1482.0674,790.0776 1409.9077,748.3545 1409.9077,705.4719 1482.0674,739.609 1408.2109,739.609 1408.2109,790.0776 1334.3544,790.0776 1334.3544,739.6089 1284.3977,705.4719 1284.3977,748.3545 1347.1527,748.3545 1347.1527,705.4719 1302.0515,680.2562 1302.0515,717.5353 1247.4967,717.5353 1247.4967,680.2562 1219.1249,660.8688 1219.1249,693.8397 1267.3749,693.8397 1267.3749,660.8688 1315.6249,660.8688 1363.8749,660.8688 1411.1611,680.2562 1356.6063,680.2562 1356.6063,717.5354 1411.1611,717.5354 1363.8749,693.8397 1315.6249,693.8397 1315.6249,726.8105 1363.8749,726.8105 1411.1611,754.8145 1356.6063,754.8145 1356.6063,792.0936 1411.1611,792.0936 1363.8749,759.7813 1315.6249,759.7813 1267.3749,759.7813 1267.3749,726.8105 1219.1249,726.8105 1219.1249,759.7813 1247.4967,792.0936 1247.4967,754.8145 1302.0515,754.8145 1302.0515,792.0936 1347.1527,834.1197 1347.1527,791.2371 1284.3977,791.2371 1284.3977,834.1197 1334.3544,891.0148 1334.3544,840.5462 1408.2109,840.5462 1408.2109,891.0148 1482.0674,891.0148 1409.9077,834.1197 1409.9077,791.2371 1482.0674,840.5462 1555.924,840.5462 1472.6627,791.2371 1472.6627,834.1197 1555.924,891.0148 1674.9744,972.366 1585.2444,972.366 1744.9127,1098.2583 1859.2069,1098.2583 1859.2069,1020.1572 1744.9127,1020.1572 1585.2444,911.0505 1674.9744,911.0505 1674.9744,849.7351 1859.2069,942.0562 1859.2069,863.955 1674.9744,788.4196 1585.2445,788.4196 1744.9127,863.955 1744.9127,942.0562 1585.2444,849.7351 1495.5145,849.7351 1630.6184,942.0561 1630.6184,863.955 1495.5145,788.4196 1405.7845,788.4196 1516.3242,863.955 1516.3241,942.0561 1405.7845,849.7351 1405.7845,911.0505 1405.7845,972.366 1495.5145,972.366 1495.5145,911.0505 1630.6184,1020.1571 1630.6184,1098.2582 1516.3241,1098.2582 1516.3241,1020.1571 1710.2002,1211.5199 1710.2002,1319.0615 1867.578,1319.0615 1867.578,1211.5199 2391.2659,1634.4376 2391.2659,1807.0433 2138.6719,1807.0433 2138.6719,1634.4376 2138.6719,1461.8318 1710.2002,1103.9785 1710.2002,996.437 2138.6721,1289.2261 2391.2659,1289.2262 1867.578,996.437 1867.578,1103.9785 2391.2659,1461.8318 2643.8596,1461.8319 2024.9558,1103.9785 2024.9559,996.437 2643.8596,1289.2262 2896.4534,1289.2262 2182.3335,996.437 2182.3335,1103.9785 2896.4534,1461.8319 2896.4534,1634.4376 2643.8596,1634.4376 2024.9558,1211.52 2182.3335,1211.52 2182.3335,1319.0615 2024.9558,1319.0615 2643.8596,1807.0435 2896.4534,1807.0435 5798.2686,3789.9512 5798.2686,3352.9575 5158.7661,3352.9575 5158.7661,3789.9512 5798.2681,2478.9705 5798.2686,2915.9642 5158.7661,2915.9642 5158.7661,2478.9703 4519.2637,2478.9703 4519.2637,2915.9641 3879.7612,2915.9641 3879.761,2478.9703 4519.2637,3789.9507 4519.2637,3352.9573 3879.7612,3352.9573 3879.7612,3789.9507 3240.2585,3789.9504 2600.7559,3789.9504 2600.7559,3352.957 3240.2585,3352.957 3240.2585,2915.9637 3240.2588,2478.9701 2600.7559,2478.97 2600.7559,2915.9637 1961.2535,2915.9637 1961.2535,2478.97 1321.751,2478.9697 1321.7509,2915.9635 1321.7509,3352.9568 1321.7507,3789.9504 1961.2534,3789.9504 1961.2534,3352.957 1961.2535,1167.99 1961.2535,730.9967 1321.7512,730.9966 1321.7511,1167.9899 1321.7511,1604.9831 1321.751,2041.9766 1961.2535,2041.9766 1961.2535,1604.9833 2600.7561,1604.9833 2600.7561,2041.9769 3240.2588,2041.9769 3240.2588,1604.9835 3240.2588,1167.9902 2600.7561,1167.9901 2600.7561,730.9968 3240.2588,730.9969 3879.761,730.997 3879.761,1167.9903 4519.2637,1167.9904 4519.2637,730.9971 3879.761,2041.9771 3879.761,1604.9836 4519.2637,1604.9838 4519.2637,2041.9772 5158.7661,2041.9772 5158.7661,1604.9838 5798.2686,1604.9838 5798.2686,2041.9773 5158.7656,730.9972 5158.7656,1167.9906 5798.2681,1167.9906 5798.2681,730.9973 5798.2681,294.004 5798.2681,-142.9893 5158.7656,-142.9893 5158.7656,294.0039 5798.2676,-1016.9757 5798.2676,-579.9824 5158.7656,-579.9825 5158.7656,-1016.976 4519.2637,-1016.976 4519.2637,-579.9825 3879.761,-579.9827 3879.761,-1016.976 4519.2637,294.0038 4519.2637,-142.9894 3879.761,-142.9895 3879.761,294.0037 3240.2588,294.0037 2600.7561,294.0035 2600.7563,-142.9897 3240.2588,-142.9896 3240.2585,-579.9828 3240.2585,-1016.9762 2600.7563,-1016.9763 2600.7561,-579.9829 1961.2538,-579.983 1961.2539,-1016.9763  z" stroke="rgb(176,166,227)" fill="none" />

</g>  <!-- end Sv_0.001 -->

</g>

</svg>

