<?xml version="1.0" encoding="UTF-8" standalone="no"?>
<svg
   xmlns:dc="http://purl.org/dc/elements/1.1/"
   xmlns:cc="http://creativecommons.org/ns#"
   xmlns:rdf="http://www.w3.org/1999/02/22-rdf-syntax-ns#"
   xmlns:svg="http://www.w3.org/2000/svg"
   xmlns="http://www.w3.org/2000/svg"
   xmlns:sodipodi="http://sodipodi.sourceforge.net/DTD/sodipodi-0.dtd"
   xmlns:inkscape="http://www.inkscape.org/namespaces/inkscape"
   inkscape:version="1.0 (4035a4f, 2020-05-01)"
   sodipodi:docname="hilbert_2d_lines_2_glitch_2.svg"
   id="svg11387"
   version="1.1"
   height="1000.0px"
   width="1000.0px">
  <metadata
     id="metadata11391">
    <rdf:RDF>
      <cc:Work
         rdf:about="">
        <dc:format>image/svg+xml</dc:format>
        <dc:type
           rdf:resource="http://purl.org/dc/dcmitype/StillImage" />
        <dc:title></dc:title>
      </cc:Work>
    </rdf:RDF>
  </metadata>
  <sodipodi:namedview
     inkscape:current-layer="svg11387"
     inkscape:window-maximized="0"
     inkscape:window-y="0"
     inkscape:window-x="0"
     inkscape:cy="179.35166"
     inkscape:cx="94.22805"
     inkscape:zoom="0.59187778"
     showgrid="false"
     id="namedview11389"
     inkscape:window-height="900"
     inkscape:window-width="1440"
     inkscape:pageshadow="2"
     inkscape:pageopacity="0"
     guidetolerance="10"
     gridtolerance="10"
     objecttolerance="10"
     borderopacity="1"
     bordercolor="#666666"
     pagecolor="#ffffff" />
  <defs
     id="defs9336" />
  <g
     transform="matrix(1361.0207,0,0,1935.9567,-412.48032,-1936229.5)"
     style="fill:none;fill-opacity:1;stroke:#000000;stroke-width:0.00171717;stroke-miterlimit:4;stroke-dasharray:none;stroke-opacity:1"
     id="torus">
    <g
       style="fill:none;fill-opacity:1;stroke:#000000;stroke-width:0.00171717;stroke-miterlimit:4;stroke-dasharray:none;stroke-opacity:1"
       id="g11384">
      <path
         d="m 0.28710938,1000.3398 v 0.01 h 0.0332031 v -0.01 z m 0.0175781,-0.016 v 0.031 h 0.0136719 v -0.031 z m -0.001953,0.012 v 0.012 h 0.03125 v -0.012 z m 0.015625,-0.01 v 0.033 h 0.0136719 v -0.033 z m 0.0136719,0 v 0.033 h 0.0136719 v -0.033 z m -0.001953,0.01 v 0.01 h 0.0332031 v -0.01 z m 0.001953,-0.016 v 0.031 h 0.0136719 v -0.031 z m -0.015625,0.01 v 0.01 h 0.03125 v -0.01 z m 0.015625,-0.016 v 0.031 h 0.0136719 v -0.031 z m -0.001953,0.01 v 0.01 h 0.0332031 v -0.01 z m 0.001953,-0.016 v 0.033 h 0.0136719 v -0.033 z m -0.0136719,0 v 0.033 h 0.0136719 v -0.033 z m -0.015625,0.014 v 0.01 h 0.03125 v -0.01 z m 0.001953,-0.01 v 0.031 h 0.0136719 v -0.031 z m -0.0175781,0.01 v 0.01 h 0.0332031 v -0.01 z m 0,-0.01 v 0.01 h 0.0332031 v -0.01 z m 0.0175781,-0.016 v 0.031 h 0.0136719 v -0.031 z m -0.001953,0.01 v 0.01 h 0.03125 v -0.01 z m 0.001953,-0.018 v 0.033 h 0.0136719 v -0.033 z m -0.0175781,0.01 v 0.01 h 0.0332031 v -0.01 z m 0,-0.01 v 0.01 h 0.0332031 v -0.01 z m 0.0175781,-0.016 v 0.031 h 0.0136719 v -0.031 z m -0.001953,0.012 v 0.01 h 0.03125 v -0.01 z m 0.015625,-0.01 v 0.031 h 0.0136719 v -0.031 z m -0.001953,0.01 v 0.01 h 0.03125 v -0.01 z m 0.015625,-0.016 v 0.031 h 0.0136719 v -0.031 z m -0.001953,0.012 v 0.01 h 0.0332031 v -0.01 z m 0,0.01 v 0.012 h 0.0332031 v -0.012 z m 0.001953,-0.01 v 0.033 h 0.0136719 v -0.033 z m -0.015625,0.014 v 0.01 h 0.03125 v -0.01 z m 0.015625,-0.01 v 0.031 h 0.0136719 v -0.031 z m 0.0136719,0 v 0.031 h 0.015625 v -0.031 z m 0.015625,0 v 0.031 H 0.375 v -0.031 z m -0.001953,0.01 v 0.01 h 0.03125 v -0.01 z m 0.001953,-0.018 v 0.033 H 0.375 v -0.033 z m -0.0175781,0.01 v 0.01 h 0.0332031 v -0.01 z m 0,-0.01 v 0.01 h 0.0332031 v -0.01 z m 0.0175781,-0.016 v 0.031 H 0.375 v -0.031 z m -0.001953,0.012 v 0.01 h 0.03125 v -0.01 z m 0.015625,-0.01 v 0.031 h 0.0136719 v -0.031 z m -0.001953,0.01 v 0.01 h 0.03125 v -0.01 z m 0.015625,-0.016 v 0.031 h 0.0136719 v -0.031 z m -0.001953,0.012 v 0.01 h 0.0332031 v -0.01 z m 0,0.01 v 0.012 h 0.0332031 v -0.012 z m 0.001953,-0.01 v 0.033 h 0.0136719 v -0.033 z m -0.015625,0.014 v 0.01 h 0.03125 v -0.01 z m 0.015625,-0.01 v 0.031 h 0.0136719 v -0.031 z m -0.001953,0.012 v 0.01 h 0.0332031 v -0.01 z m 0,0.01 v 0.01 h 0.0332031 v -0.01 z m 0.001953,-0.01 v 0.031 h 0.0136719 v -0.031 z m -0.015625,0.01 v 0.01 h 0.03125 v -0.01 z m 0.001953,-0.016 v 0.033 h 0.0136719 v -0.033 z m -0.0136719,0 v 0.033 H 0.375 v -0.033 z m -0.0175781,0.014 v 0.01 h 0.0332031 v -0.01 z m 0.0175781,-0.01 v 0.031 H 0.375 v -0.031 z m -0.001953,0.012 v 0.01 h 0.03125 v -0.01 z m 0.001953,-0.01 v 0.031 H 0.375 v -0.031 z m -0.0175781,0.012 v 0.012 h 0.0332031 v -0.012 z m 0.0175781,-0.01 v 0.033 H 0.375 v -0.033 z m 0.0136719,0 v 0.033 h 0.0136719 v -0.033 z m -0.001953,0.01 v 0.01 h 0.03125 v -0.01 z m 0.015625,-0.016 v 0.031 h 0.0136719 v -0.031 z m -0.001953,0.012 v 0.012 h 0.0332031 v -0.012 z m 0.015625,-0.01 v 0.033 h 0.015625 v -0.033 z m 0.015625,0 v 0.033 h 0.0136719 v -0.033 z m -0.001953,0.01 v 0.01 h 0.03125 v -0.01 z m 0.001953,-0.016 v 0.031 h 0.0136719 v -0.031 z m -0.0175781,0.01 v 0.01 h 0.0332031 v -0.01 z m 0,-0.01 v 0.01 h 0.0332031 v -0.01 z m 0.0175781,-0.016 v 0.033 h 0.0136719 v -0.033 z m -0.001953,0.014 v 0.01 h 0.03125 v -0.01 z m 0.015625,-0.01 v 0.031 h 0.0136719 v -0.031 z m -0.001953,0.01 v 0.01 h 0.03125 v -0.01 z m 0.015625,-0.016 v 0.033 h 0.0136719 v -0.033 z m -0.001953,0.014 v 0.01 h 0.0332031 v -0.01 z m 0,0.01 v 0.01 h 0.0332031 v -0.01 z m 0.001953,-0.01 v 0.031 h 0.0136719 v -0.031 z m -0.015625,0.012 v 0.012 h 0.03125 v -0.012 z m 0.015625,-0.01 v 0.033 h 0.0136719 v -0.033 z m 0.0136719,0 v 0.033 h 0.015625 v -0.033 z m -0.001953,0.01 v 0.01 h 0.0332031 v -0.01 z m 0.0175781,-0.016 v 0.031 h 0.0136719 v -0.031 z m -0.001953,0.012 v 0.012 h 0.03125 v -0.012 z m 0.015625,-0.01 v 0.033 h 0.0136719 v -0.033 z m 0.0136719,0 v 0.033 H 0.515625 v -0.033 z M 0.5,1000.3398 v 0.01 h 0.0332031 v -0.01 z m 0.001953,-0.016 v 0.031 H 0.515625 v -0.031 z m -0.015625,0.01 v 0.01 h 0.03125 v -0.01 z m 0.015625,-0.016 v 0.031 H 0.515625 v -0.031 z M 0.5,1000.3262 v 0.01 h 0.0332031 v -0.01 z m 0.001953,-0.016 v 0.033 H 0.515625 v -0.033 z m -0.0136719,0 v 0.033 h 0.0136719 v -0.033 z m -0.015625,0.014 v 0.01 h 0.03125 v -0.01 z m 0.001953,-0.01 v 0.031 h 0.0136719 v -0.031 z m -0.0175781,0.01 v 0.01 h 0.0332031 v -0.01 z m 0,-0.01 v 0.01 h 0.0332031 v -0.01 z m 0,-0.01 v 0.01 h 0.0332031 v -0.01 z m 0.0175781,-0.018 v 0.033 h 0.0136719 v -0.033 z m -0.001953,0.014 v 0.01 h 0.03125 v -0.01 z m 0.015625,-0.01 v 0.031 h 0.0136719 v -0.031 z m 0.0136719,0 v 0.031 H 0.515625 v -0.031 z M 0.5,1000.3145 v 0.01 h 0.0332031 v -0.01 z m 0.001953,-0.018 v 0.033 H 0.515625 v -0.033 z m -0.015625,0.01 v 0.01 h 0.03125 v -0.01 z m 0.015625,-0.016 v 0.031 H 0.515625 v -0.031 z M 0.5,1000.3008 v 0.01 h 0.0332031 v -0.01 z m 0.001953,-0.016 v 0.031 H 0.515625 v -0.031 z m -0.0136719,0 v 0.031 h 0.0136719 v -0.031 z m -0.015625,0.012 v 0.01 h 0.03125 v -0.01 z m 0.001953,-0.01 v 0.031 h 0.0136719 v -0.031 z m -0.0175781,0.01 v 0.01 h 0.0332031 v -0.01 z m 0.001953,-0.016 v 0.031 h 0.015625 v -0.031 z m -0.0136719,0 v 0.031 h 0.0136719 v -0.031 z m -0.015625,0.012 v 0.01 h 0.03125 v -0.01 z m 0.015625,-0.01 v 0.031 h 0.0136719 v -0.031 z m -0.001953,0.012 v 0.012 h 0.0332031 v -0.012 z m 0,0.01 v 0.01 h 0.0332031 v -0.01 z m 0.001953,-0.01 v 0.031 h 0.0136719 v -0.031 z m -0.015625,0.01 v 0.01 h 0.03125 v -0.01 z m 0.001953,-0.018 v 0.033 h 0.0136719 v -0.033 z m -0.015625,0.014 v 0.01 h 0.03125 v -0.01 z m 0.001953,-0.01 v 0.031 h 0.0136719 v -0.031 z m -0.0175781,0.01 v 0.01 h 0.0332031 v -0.01 z m 0,-0.01 v 0.01 h 0.0332031 v -0.01 z m 0.0175781,-0.016 v 0.031 h 0.0136719 v -0.031 z m -0.001953,0.01 v 0.01 h 0.03125 v -0.01 z m 0.001953,-0.016 v 0.031 h 0.0136719 v -0.031 z m -0.0175781,0.01 v 0.012 h 0.0332031 v -0.012 z m 0.0175781,-0.016 v 0.033 h 0.0136719 v -0.033 z m -0.001953,0.01 v 0.01 h 0.03125 v -0.01 z m 0.001953,-0.016 v 0.031 h 0.0136719 v -0.031 z m -0.0175781,0.01 v 0.01 h 0.0332031 v -0.01 z m 0,-0.01 v 0.01 h 0.0332031 v -0.01 z m 0.0175781,-0.016 v 0.031 h 0.0136719 v -0.031 z m -0.001953,0.014 v 0.01 h 0.03125 v -0.01 z m 0.015625,-0.01 v 0.033 h 0.0136719 v -0.033 z m -0.001953,0.01 v 0.01 h 0.03125 v -0.01 z m 0.015625,-0.016 v 0.031 h 0.0136719 v -0.031 z m -0.001953,0.014 v 0.01 h 0.0332031 v -0.01 z m 0,0.01 v 0.01 h 0.0332031 v -0.01 z m 0.001953,-0.01 v 0.031 h 0.0136719 v -0.031 z m -0.015625,0.012 v 0.01 h 0.03125 v -0.01 z m 0.015625,-0.01 v 0.033 h 0.0136719 v -0.033 z m 0.0136719,0 v 0.033 h 0.015625 v -0.033 z m -0.001953,0.01 v 0.01 h 0.0332031 v -0.01 z m 0.0175781,-0.016 v 0.031 h 0.0136719 v -0.031 z m -0.001953,0.012 v 0.01 h 0.03125 v -0.01 z m 0.015625,-0.01 v 0.033 h 0.0136719 v -0.033 z m 0.0136719,0 v 0.033 H 0.515625 v -0.033 z M 0.5,1000.2871 v 0.01 h 0.0332031 v -0.01 z m 0.001953,-0.016 v 0.031 H 0.515625 v -0.031 z m -0.015625,0.01 v 0.01 h 0.03125 v -0.01 z m 0.015625,-0.018 v 0.033 H 0.515625 v -0.033 z M 0.5,1000.2734 v 0.01 h 0.0332031 v -0.01 z m 0.001953,-0.016 v 0.031 H 0.515625 v -0.031 z m -0.0136719,0 v 0.031 h 0.0136719 v -0.031 z m -0.015625,0.014 v 0.01 h 0.03125 v -0.01 z m 0.001953,-0.01 v 0.033 h 0.0136719 v -0.033 z m -0.0175781,0.01 v 0.01 h 0.0332031 v -0.01 z m 0,-0.01 v 0.01 h 0.0332031 v -0.01 z m 0,-0.01 v 0.01 h 0.0332031 v -0.01 z m 0.0175781,-0.018 v 0.033 h 0.0136719 v -0.033 z m -0.001953,0.014 v 0.01 h 0.03125 v -0.01 z m 0.015625,-0.01 v 0.031 h 0.0136719 v -0.031 z m 0.0136719,0 v 0.031 H 0.515625 v -0.031 z M 0.5,1000.2617 v 0.01 h 0.0332031 v -0.01 z m 0.001953,-0.018 v 0.033 H 0.515625 v -0.033 z m -0.015625,0.01 v 0.01 h 0.03125 v -0.01 z m 0.015625,-0.016 v 0.031 H 0.515625 v -0.031 z M 0.5,1000.248 v 0.01 h 0.0332031 v -0.01 z m 0.001953,-0.016 v 0.031 H 0.515625 v -0.031 z m -0.0136719,0 v 0.031 h 0.0136719 v -0.031 z m -0.015625,0.012 v 0.01 h 0.03125 v -0.01 z m 0.001953,-0.01 v 0.031 h 0.0136719 v -0.031 z m -0.0175781,0.01 v 0.01 h 0.0332031 v -0.01 z m 0.001953,-0.016 v 0.031 h 0.015625 v -0.031 z m -0.0136719,0 v 0.031 h 0.0136719 v -0.031 z m -0.015625,0.012 v 0.01 h 0.03125 v -0.01 z m 0.015625,-0.01 v 0.031 h 0.0136719 v -0.031 z m -0.001953,0.012 v 0.012 h 0.0332031 v -0.012 z m 0,0.01 v 0.01 h 0.0332031 v -0.01 z m 0.001953,-0.01 v 0.031 h 0.0136719 v -0.031 z m -0.015625,0.01 v 0.01 h 0.03125 v -0.01 z m 0.001953,-0.018 v 0.033 h 0.0136719 v -0.033 z m -0.015625,0.014 v 0.01 h 0.03125 v -0.01 z m 0.001953,-0.01 v 0.031 h 0.0136719 v -0.031 z m -0.0175781,0.01 v 0.01 h 0.0332031 v -0.01 z m 0,-0.01 v 0.01 h 0.0332031 v -0.01 z m 0.0175781,-0.016 v 0.031 h 0.0136719 v -0.031 z m -0.001953,0.01 v 0.01 h 0.03125 v -0.01 z m 0.001953,-0.016 v 0.031 h 0.0136719 v -0.031 z m -0.015625,0 v 0.031 h 0.015625 v -0.031 z m -0.015625,0.012 v 0.01 h 0.0332031 v -0.01 z m 0.001953,-0.01 v 0.031 h 0.0136719 v -0.031 z m -0.015625,0.01 v 0.01 h 0.03125 v -0.01 z m 0.001953,-0.016 v 0.031 h 0.0136719 v -0.031 z m -0.0136719,0 v 0.031 H 0.375 v -0.031 z m -0.0175781,0.012 v 0.01 h 0.0332031 v -0.01 z m 0.0175781,-0.01 v 0.031 H 0.375 v -0.031 z m -0.001953,0.012 v 0.012 h 0.03125 v -0.012 z m 0.001953,-0.01 v 0.033 H 0.375 v -0.033 z m -0.0175781,0.014 v 0.01 h 0.0332031 v -0.01 z m 0.0175781,-0.01 v 0.031 H 0.375 v -0.031 z m 0.0136719,0 v 0.031 h 0.0136719 v -0.031 z m -0.001953,0.01 v 0.01 h 0.03125 v -0.01 z m 0.015625,-0.018 v 0.033 h 0.0136719 v -0.033 z m -0.001953,0.014 v 0.01 h 0.0332031 v -0.01 z m 0,0.01 v 0.01 h 0.0332031 v -0.01 z m 0.001953,-0.01 v 0.031 h 0.0136719 v -0.031 z m -0.015625,0.014 v 0.01 h 0.03125 v -0.01 z m 0.015625,-0.01 v 0.033 h 0.0136719 v -0.033 z m -0.001953,0.014 v 0.01 h 0.0332031 v -0.01 z m 0,0.01 v 0.01 h 0.0332031 v -0.01 z m 0.001953,-0.01 v 0.033 h 0.0136719 v -0.033 z m -0.015625,0.01 v 0.01 h 0.03125 v -0.01 z m 0.001953,-0.016 v 0.031 h 0.0136719 v -0.031 z m -0.015625,0.012 v 0.01 h 0.03125 v -0.01 z m 0.001953,-0.01 v 0.033 H 0.375 v -0.033 z m -0.0175781,0.01 v 0.01 h 0.0332031 v -0.01 z m 0,-0.01 v 0.01 h 0.0332031 v -0.01 z m 0.0175781,-0.018 v 0.033 H 0.375 v -0.033 z m -0.001953,0.01 v 0.01 h 0.03125 v -0.01 z m 0.001953,-0.016 v 0.031 H 0.375 v -0.031 z m -0.015625,0 v 0.031 h 0.015625 v -0.031 z m -0.0136719,0 v 0.031 h 0.0136719 v -0.031 z m -0.015625,0.014 v 0.01 h 0.03125 v -0.01 z m 0.015625,-0.01 v 0.033 h 0.0136719 v -0.033 z m -0.001953,0.014 v 0.01 h 0.0332031 v -0.01 z m 0,0.01 v 0.01 h 0.0332031 v -0.01 z m 0.001953,-0.01 v 0.033 h 0.0136719 v -0.033 z m -0.015625,0.01 v 0.01 h 0.03125 v -0.01 z m 0.001953,-0.016 v 0.031 h 0.0136719 v -0.031 z m -0.015625,0.012 v 0.01 h 0.03125 v -0.01 z m 0.001953,-0.01 v 0.033 h 0.0136719 v -0.033 z m -0.0175781,0.01 v 0.01 h 0.0332031 v -0.01 z m 0,-0.01 v 0.01 h 0.0332031 v -0.01 z m 0.0175781,-0.018 v 0.033 h 0.0136719 v -0.033 z m -0.001953,0.01 v 0.01 h 0.03125 v -0.01 z m 0.001953,-0.016 v 0.031 h 0.0136719 v -0.031 z m -0.0175781,0.01 v 0.01 h 0.0332031 v -0.01 z m 0,-0.01 v 0.01 h 0.0332031 v -0.01 z m 0.0175781,-0.018 v 0.033 h 0.0136719 v -0.033 z m -0.001953,0.014 v 0.01 h 0.03125 v -0.01 z m 0.015625,-0.01 v 0.031 h 0.0136719 v -0.031 z m 0.0136719,0 v 0.031 h 0.0136719 v -0.031 z m -0.001953,0.01 v 0.01 h 0.0332031 v -0.01 z m 0.001953,-0.018 v 0.033 h 0.0136719 v -0.033 z m -0.015625,0.01 v 0.01 h 0.03125 v -0.01 z m 0.015625,-0.016 v 0.031 h 0.0136719 v -0.031 z m -0.001953,0.01 v 0.01 h 0.0332031 v -0.01 z m 0.001953,-0.016 v 0.031 h 0.0136719 v -0.031 z m -0.0136719,0 v 0.031 h 0.0136719 v -0.031 z m -0.015625,0.012 v 0.01 h 0.03125 v -0.01 z m 0.001953,-0.01 v 0.031 h 0.0136719 v -0.031 z m -0.0175781,0.01 v 0.01 h 0.0332031 v -0.01 z m 0,-0.01 v 0.012 h 0.0332031 v -0.012 z m 0.0175781,-0.016 v 0.033 h 0.0136719 v -0.033 z m -0.001953,0.01 v 0.01 h 0.03125 v -0.01 z m 0.001953,-0.016 v 0.031 h 0.0136719 v -0.031 z m -0.0175781,0.01 v 0.01 h 0.0332031 v -0.01 z m 0,-0.01 v 0.01 h 0.0332031 v -0.01 z m 0.0175781,-0.016 v 0.031 h 0.0136719 v -0.031 z m -0.001953,0.012 v 0.012 h 0.03125 v -0.012 z m 0.015625,-0.01 v 0.033 h 0.0136719 v -0.033 z m -0.001953,0.01 v 0.01 h 0.03125 v -0.01 z m 0.015625,-0.016 v 0.031 h 0.0136719 v -0.031 z m -0.001953,0.012 v 0.012 h 0.0332031 v -0.012 z m 0,0.01 v 0.01 h 0.0332031 v -0.01 z m 0.001953,-0.01 v 0.031 h 0.0136719 v -0.031 z m -0.015625,0.012 v 0.01 h 0.03125 v -0.01 z m 0.015625,-0.01 v 0.033 h 0.0136719 v -0.033 z m 0.0136719,0 v 0.033 h 0.015625 v -0.033 z m -0.001953,0.01 v 0.01 h 0.0332031 v -0.01 z m 0.0175781,-0.016 v 0.031 H 0.375 v -0.031 z m -0.001953,0.012 v 0.01 h 0.03125 v -0.01 z m 0.015625,-0.01 v 0.033 h 0.0136719 v -0.033 z m 0.0136719,0 v 0.033 h 0.0136719 v -0.033 z m -0.001953,0.01 v 0.01 h 0.0332031 v -0.01 z m 0.001953,-0.016 v 0.031 h 0.0136719 v -0.031 z m -0.015625,0.01 v 0.01 h 0.03125 v -0.01 z m 0.015625,-0.018 v 0.033 h 0.0136719 v -0.033 z m -0.001953,0.01 v 0.01 h 0.0332031 v -0.01 z m 0.001953,-0.016 v 0.031 h 0.0136719 v -0.031 z m -0.0136719,0 v 0.031 h 0.0136719 v -0.031 z m -0.015625,0.012 v 0.012 h 0.03125 v -0.012 z m 0.001953,-0.01 v 0.033 H 0.375 v -0.033 z m -0.0175781,0.01 v 0.01 h 0.0332031 v -0.01 z m 0,-0.01 v 0.01 h 0.0332031 v -0.01 z m 0,-0.01 v 0.012 h 0.0332031 v -0.012 z m 0.0175781,-0.016 v 0.033 H 0.375 v -0.033 z m -0.001953,0.014 v 0.01 h 0.03125 v -0.01 z m 0.015625,-0.01 v 0.031 h 0.0136719 v -0.031 z m 0.0136719,0 v 0.031 h 0.0136719 v -0.031 z m -0.001953,0.01 v 0.012 h 0.0332031 v -0.012 z m 0.001953,-0.016 v 0.033 h 0.0136719 v -0.033 z m -0.015625,0.01 v 0.01 h 0.03125 v -0.01 z m 0.015625,-0.016 v 0.031 h 0.0136719 v -0.031 z m -0.001953,0.01 v 0.01 h 0.0332031 v -0.01 z m 0.001953,-0.018 v 0.033 h 0.0136719 v -0.033 z m -0.0136719,0 v 0.033 h 0.0136719 v -0.033 z m -0.015625,0.014 v 0.01 h 0.03125 v -0.01 z m 0.001953,-0.01 v 0.031 H 0.375 v -0.031 z m -0.0175781,0.01 v 0.01 h 0.0332031 v -0.01 z m 0.001953,-0.018 v 0.033 h 0.015625 v -0.033 z m -0.0136719,0 v 0.033 h 0.0136719 v -0.033 z m -0.015625,0.014 v 0.01 h 0.03125 v -0.01 z m 0.015625,-0.01 v 0.031 h 0.0136719 v -0.031 z m -0.001953,0.012 v 0.01 h 0.0332031 v -0.01 z m 0,0.01 v 0.01 h 0.0332031 v -0.01 z m 0.001953,-0.01 v 0.031 h 0.0136719 v -0.031 z m -0.015625,0.01 v 0.012 h 0.03125 v -0.012 z m 0.001953,-0.016 v 0.033 h 0.0136719 v -0.033 z m -0.015625,0.014 v 0.01 h 0.03125 v -0.01 z m 0.001953,-0.01 v 0.031 h 0.0136719 v -0.031 z m -0.0175781,0.01 v 0.012 h 0.0332031 v -0.012 z m 0,-0.01 v 0.01 h 0.0332031 v -0.01 z m 0.0175781,-0.016 v 0.031 h 0.0136719 v -0.031 z m -0.001953,0.01 v 0.01 h 0.03125 v -0.01 z m 0.001953,-0.018 v 0.033 h 0.0136719 v -0.033 z m -0.0175781,0.01 v 0.01 h 0.0332031 v -0.01 z m 0,-0.01 v 0.01 h 0.0332031 v -0.01 z m 0.0175781,-0.016 v 0.031 h 0.0136719 v -0.031 z m -0.001953,0.012 v 0.01 h 0.03125 v -0.01 z m 0.015625,-0.01 v 0.031 h 0.0136719 v -0.031 z m 0.0136719,0 v 0.031 h 0.0136719 v -0.031 z m -0.001953,0.01 v 0.01 h 0.0332031 v -0.01 z m 0.001953,-0.016 v 0.031 h 0.0136719 v -0.031 z m -0.015625,0.01 v 0.01 h 0.03125 v -0.01 z m 0.015625,-0.018 v 0.033 h 0.0136719 v -0.033 z m -0.001953,0.01 v 0.01 h 0.0332031 v -0.01 z m 0.001953,-0.016 v 0.031 h 0.0136719 v -0.031 z m -0.0136719,0 v 0.031 h 0.0136719 v -0.031 z m -0.015625,0.012 v 0.012 h 0.03125 v -0.012 z m 0.001953,-0.01 v 0.033 h 0.0136719 v -0.033 z m -0.0175781,0.01 v 0.01 h 0.0332031 v -0.01 z m 0,-0.01 v 0.01 h 0.0332031 v -0.01 z m 0.0175781,-0.016 v 0.031 h 0.0136719 v -0.031 z m -0.001953,0.01 v 0.01 h 0.03125 v -0.01 z m 0.001953,-0.016 v 0.033 h 0.0136719 v -0.033 z m -0.0175781,0.01 v 0.01 h 0.0332031 v -0.01 z m 0,-0.01 v 0.01 h 0.0332031 v -0.01 z m 0.0175781,-0.018 v 0.033 h 0.0136719 v -0.033 z m -0.001953,0.014 v 0.01 h 0.03125 v -0.01 z m 0.015625,-0.01 v 0.031 h 0.0136719 v -0.031 z m -0.001953,0.01 v 0.01 h 0.03125 v -0.01 z m 0.015625,-0.018 v 0.033 h 0.0136719 v -0.033 z m -0.001953,0.014 v 0.01 h 0.0332031 v -0.01 z m 0,0.01 v 0.01 h 0.0332031 v -0.01 z m 0.001953,-0.01 v 0.033 h 0.0136719 v -0.033 z m -0.015625,0.014 v 0.01 h 0.03125 v -0.01 z m 0.015625,-0.01 v 0.031 h 0.0136719 v -0.031 z m 0.0136719,0 v 0.031 h 0.015625 v -0.031 z m 0.015625,0 v 0.031 H 0.375 v -0.031 z m -0.001953,0.01 v 0.01 h 0.03125 v -0.01 z m 0.001953,-0.016 v 0.033 H 0.375 v -0.033 z m -0.0175781,0.01 v 0.01 h 0.0332031 v -0.01 z m 0,-0.01 v 0.01 h 0.0332031 v -0.01 z m 0.0175781,-0.018 v 0.033 H 0.375 v -0.033 z m -0.001953,0.014 v 0.01 h 0.03125 v -0.01 z m 0.015625,-0.01 v 0.031 h 0.0136719 v -0.031 z m -0.001953,0.01 v 0.01 h 0.03125 v -0.01 z m 0.015625,-0.018 v 0.033 h 0.0136719 v -0.033 z m -0.001953,0.014 v 0.01 h 0.0332031 v -0.01 z m 0,0.01 v 0.01 h 0.0332031 v -0.01 z m 0.001953,-0.01 v 0.033 h 0.0136719 v -0.033 z m -0.015625,0.014 v 0.01 h 0.03125 v -0.01 z m 0.015625,-0.01 v 0.031 h 0.0136719 v -0.031 z m -0.001953,0.012 v 0.01 h 0.0332031 v -0.01 z m 0,0.01 v 0.012 h 0.0332031 v -0.012 z m 0.001953,-0.01 v 0.033 h 0.0136719 v -0.033 z m -0.015625,0.01 v 0.01 h 0.03125 v -0.01 z m 0.001953,-0.016 v 0.031 h 0.0136719 v -0.031 z m -0.0136719,0 v 0.031 H 0.375 v -0.031 z m -0.0175781,0.012 v 0.012 h 0.0332031 v -0.012 z m 0.0175781,-0.01 v 0.033 H 0.375 v -0.033 z m -0.001953,0.014 v 0.01 h 0.03125 v -0.01 z m 0.001953,-0.01 v 0.031 H 0.375 v -0.031 z m -0.0175781,0.012 v 0.01 h 0.0332031 v -0.01 z m 0.0175781,-0.01 v 0.031 H 0.375 v -0.031 z m 0.0136719,0 v 0.031 h 0.0136719 v -0.031 z m -0.001953,0.01 v 0.01 h 0.03125 v -0.01 z m 0.015625,-0.016 v 0.031 h 0.0136719 v -0.031 z m -0.001953,0.012 v 0.01 h 0.0332031 v -0.01 z m 0.015625,-0.01 v 0.031 h 0.015625 v -0.031 z m -0.001953,0.01 v 0.01 h 0.0332031 v -0.01 z m 0.0175781,-0.016 v 0.031 h 0.0136719 v -0.031 z m -0.001953,0.012 v 0.01 h 0.03125 v -0.01 z m 0.015625,-0.01 v 0.031 h 0.0136719 v -0.031 z m 0.0136719,0 v 0.031 h 0.0136719 v -0.031 z m -0.001953,0.01 v 0.01 h 0.0332031 v -0.01 z m 0.001953,-0.016 v 0.031 h 0.0136719 v -0.031 z m -0.015625,0.01 v 0.01 h 0.03125 v -0.01 z m 0.015625,-0.018 v 0.033 h 0.0136719 v -0.033 z m -0.001953,0.01 v 0.01 h 0.0332031 v -0.01 z m 0.001953,-0.016 v 0.031 h 0.0136719 v -0.031 z m -0.0136719,0 v 0.031 h 0.0136719 v -0.031 z m -0.015625,0.012 v 0.012 h 0.03125 v -0.012 z m 0.001953,-0.01 v 0.033 h 0.0136719 v -0.033 z m -0.0175781,0.01 v 0.01 h 0.0332031 v -0.01 z m 0,-0.01 v 0.01 h 0.0332031 v -0.01 z m 0.0175781,-0.016 v 0.031 h 0.0136719 v -0.031 z m -0.001953,0.01 v 0.01 h 0.03125 v -0.01 z m 0.001953,-0.016 v 0.033 h 0.0136719 v -0.033 z m -0.0175781,0.01 v 0.01 h 0.0332031 v -0.01 z m 0,-0.01 v 0.01 h 0.0332031 v -0.01 z m 0.0175781,-0.018 v 0.033 h 0.0136719 v -0.033 z m -0.001953,0.014 v 0.01 h 0.03125 v -0.01 z m 0.015625,-0.01 v 0.031 h 0.0136719 v -0.031 z m -0.001953,0.01 v 0.01 h 0.03125 v -0.01 z m 0.015625,-0.018 v 0.033 h 0.0136719 v -0.033 z m -0.001953,0.014 v 0.01 h 0.0332031 v -0.01 z m 0,0.01 v 0.01 h 0.0332031 v -0.01 z m 0.001953,-0.01 v 0.033 h 0.0136719 v -0.033 z m -0.015625,0.014 v 0.01 h 0.03125 v -0.01 z m 0.015625,-0.01 v 0.031 h 0.0136719 v -0.031 z m 0.0136719,0 v 0.031 h 0.015625 v -0.031 z m 0.015625,0 v 0.031 h 0.0136719 v -0.031 z m -0.001953,0.01 v 0.01 h 0.03125 v -0.01 z m 0.001953,-0.016 v 0.033 h 0.0136719 v -0.033 z m -0.0175781,0.01 v 0.01 h 0.0332031 v -0.01 z m 0,-0.01 v 0.01 h 0.0332031 v -0.01 z m 0.0175781,-0.018 v 0.033 h 0.0136719 v -0.033 z m -0.001953,0.014 v 0.01 h 0.03125 v -0.01 z m 0.015625,-0.01 v 0.031 h 0.0136719 v -0.031 z m -0.001953,0.01 v 0.01 h 0.03125 v -0.01 z m 0.015625,-0.018 v 0.033 H 0.515625 v -0.033 z M 0.5,1000.1387 v 0.01 h 0.0332031 v -0.01 z m 0,0.01 v 0.01 h 0.0332031 v -0.01 z m 0.001953,-0.01 v 0.033 H 0.515625 v -0.033 z m -0.015625,0.014 v 0.01 h 0.03125 v -0.01 z m 0.015625,-0.01 v 0.031 H 0.515625 v -0.031 z M 0.5,1000.1582 v 0.01 h 0.0332031 v -0.01 z m 0,0.01 v 0.012 h 0.0332031 v -0.012 z m 0.001953,-0.01 v 0.033 H 0.515625 v -0.033 z m -0.015625,0.01 v 0.01 h 0.03125 v -0.01 z m 0.001953,-0.016 v 0.031 h 0.0136719 v -0.031 z m -0.0136719,0 v 0.031 h 0.0136719 v -0.031 z m -0.0175781,0.012 v 0.012 h 0.0332031 v -0.012 z m 0.0175781,-0.01 v 0.033 h 0.0136719 v -0.033 z m -0.001953,0.014 v 0.01 h 0.03125 v -0.01 z m 0.001953,-0.01 v 0.031 h 0.0136719 v -0.031 z m -0.0175781,0.012 v 0.01 h 0.0332031 v -0.01 z m 0.0175781,-0.01 v 0.031 h 0.0136719 v -0.031 z m 0.0136719,0 v 0.031 h 0.0136719 v -0.031 z m -0.001953,0.01 v 0.01 h 0.03125 v -0.01 z m 0.015625,-0.016 v 0.031 H 0.515625 v -0.031 z M 0.5,1000.1777 v 0.01 h 0.0332031 v -0.01 z m 0,0.01 v 0.01 h 0.0332031 v -0.01 z m 0.001953,-0.01 v 0.033 H 0.515625 v -0.033 z m -0.015625,0.014 v 0.01 h 0.03125 v -0.01 z m 0.015625,-0.01 v 0.031 H 0.515625 v -0.031 z M 0.5,1000.1973 v 0.01 h 0.0332031 v -0.01 z m 0,0.01 v 0.01 h 0.0332031 v -0.01 z m 0.001953,-0.01 v 0.031 H 0.515625 v -0.031 z m -0.015625,0.01 v 0.012 h 0.03125 v -0.012 z m 0.001953,-0.016 v 0.033 h 0.0136719 v -0.033 z m -0.015625,0.014 v 0.01 h 0.03125 v -0.01 z m 0.001953,-0.01 v 0.031 h 0.0136719 v -0.031 z m -0.0175781,0.01 v 0.012 h 0.0332031 v -0.012 z m 0,-0.01 v 0.01 h 0.0332031 v -0.01 z m 0.0175781,-0.016 v 0.031 h 0.0136719 v -0.031 z m -0.001953,0.01 v 0.01 h 0.03125 v -0.01 z m 0.001953,-0.018 v 0.033 h 0.0136719 v -0.033 z m -0.015625,0 v 0.033 h 0.015625 v -0.033 z m -0.015625,0.014 v 0.01 h 0.0332031 v -0.01 z m 0.001953,-0.01 v 0.031 h 0.0136719 v -0.031 z m -0.015625,0.01 v 0.01 h 0.03125 v -0.01 z m 0.001953,-0.018 v 0.033 h 0.0136719 v -0.033 z m -0.0136719,0 v 0.033 h 0.0136719 v -0.033 z m -0.0175781,0.014 v 0.01 h 0.0332031 v -0.01 z m 0.0175781,-0.01 v 0.031 h 0.0136719 v -0.031 z m -0.001953,0.012 v 0.01 h 0.03125 v -0.01 z m 0.001953,-0.01 v 0.033 h 0.0136719 v -0.033 z m -0.0175781,0.014 v 0.01 h 0.0332031 v -0.01 z m 0.0175781,-0.01 v 0.031 h 0.0136719 v -0.031 z m 0.0136719,0 v 0.031 h 0.0136719 v -0.031 z m -0.001953,0.01 v 0.012 h 0.03125 v -0.012 z m 0.015625,-0.016 v 0.033 h 0.0136719 v -0.033 z m -0.001953,0.014 v 0.01 h 0.0332031 v -0.01 z m 0,0.01 v 0.01 h 0.0332031 v -0.01 z m 0,0.01 v 0.012 h 0.0332031 v -0.012 z m 0.001953,-0.01 v 0.033 h 0.0136719 v -0.033 z m -0.015625,0.01 v 0.01 h 0.03125 v -0.01 z m 0.001953,-0.016 v 0.031 h 0.0136719 v -0.031 z m -0.0136719,0 v 0.031 h 0.0136719 v -0.031 z m -0.0175781,0.012 v 0.012 h 0.0332031 v -0.012 z m 0.0175781,-0.01 v 0.033 h 0.0136719 v -0.033 z m -0.001953,0.014 v 0.01 h 0.03125 v -0.01 z m 0.001953,-0.01 v 0.031 h 0.0136719 v -0.031 z m -0.0175781,0.012 v 0.01 h 0.0332031 v -0.01 z m 0.0175781,-0.01 v 0.033 h 0.0136719 v -0.033 z m 0.0136719,0 v 0.033 h 0.0136719 v -0.033 z m -0.001953,0.01 v 0.01 h 0.03125 v -0.01 z m 0.015625,-0.016 v 0.031 h 0.0136719 v -0.031 z m -0.001953,0.012 v 0.01 h 0.0332031 v -0.01 z m 0.015625,-0.01 v 0.033 h 0.015625 v -0.033 z m 0.015625,0 v 0.033 h 0.0136719 v -0.033 z m -0.001953,0.01 v 0.01 h 0.03125 v -0.01 z m 0.001953,-0.016 v 0.031 h 0.0136719 v -0.031 z m -0.0175781,0.01 v 0.01 h 0.0332031 v -0.01 z m 0,-0.01 v 0.01 h 0.0332031 v -0.01 z m 0.0175781,-0.016 v 0.031 h 0.0136719 v -0.031 z m -0.001953,0.012 v 0.012 h 0.03125 v -0.012 z m 0.015625,-0.01 v 0.033 h 0.0136719 v -0.033 z m -0.001953,0.01 v 0.01 h 0.03125 v -0.01 z m 0.015625,-0.016 v 0.031 H 0.515625 v -0.031 z M 0.5,1000.2168 v 0.012 h 0.0332031 v -0.012 z m 0,0.01 v 0.01 h 0.0332031 v -0.01 z m 0.001953,-0.01 v 0.031 H 0.515625 v -0.031 z m -0.015625,0.012 v 0.01 h 0.03125 v -0.01 z m 0.015625,-0.01 v 0.033 H 0.515625 v -0.033 z m 0.0136719,0 v 0.033 H 0.53125 v -0.033 z m 0.015625,0 v 0.033 h 0.0136719 v -0.033 z m -0.001953,0.01 v 0.01 h 0.03125 v -0.01 z m 0.001953,-0.016 v 0.031 h 0.0136719 v -0.031 z m -0.0175781,0.01 v 0.01 H 0.546875 v -0.01 z m 0,-0.01 v 0.01 H 0.546875 v -0.01 z m 0.0175781,-0.016 v 0.031 h 0.0136719 v -0.031 z m -0.001953,0.012 v 0.012 h 0.03125 v -0.012 z m 0.015625,-0.01 v 0.033 h 0.0136719 v -0.033 z m -0.001953,0.01 v 0.01 h 0.03125 v -0.01 z m 0.015625,-0.016 v 0.031 h 0.0136719 v -0.031 z m -0.001953,0.012 v 0.012 h 0.0332031 v -0.012 z m 0,0.01 v 0.01 h 0.0332031 v -0.01 z m 0.001953,-0.01 v 0.031 h 0.0136719 v -0.031 z m -0.015625,0.012 v 0.01 h 0.03125 v -0.01 z m 0.015625,-0.01 v 0.033 h 0.0136719 v -0.033 z m 0.0136719,0 v 0.033 h 0.015625 v -0.033 z m -0.001953,0.01 v 0.01 h 0.0332031 v -0.01 z m 0.0175781,-0.016 v 0.031 h 0.0136719 v -0.031 z m -0.001953,0.012 v 0.01 h 0.03125 v -0.01 z m 0.015625,-0.01 v 0.033 h 0.0136719 v -0.033 z m 0.0136719,0 v 0.033 h 0.0136719 v -0.033 z m -0.001953,0.01 v 0.01 h 0.0332031 v -0.01 z m 0.001953,-0.016 v 0.031 h 0.0136719 v -0.031 z m -0.015625,0.01 v 0.01 h 0.03125 v -0.01 z m 0.015625,-0.018 v 0.033 h 0.0136719 v -0.033 z m -0.001953,0.01 v 0.01 h 0.0332031 v -0.01 z m 0.001953,-0.016 v 0.031 h 0.0136719 v -0.031 z m -0.0136719,0 v 0.031 h 0.0136719 v -0.031 z m -0.015625,0.012 v 0.012 h 0.03125 v -0.012 z m 0.001953,-0.01 v 0.033 h 0.0136719 v -0.033 z m -0.0175781,0.01 v 0.01 h 0.0332031 v -0.01 z m 0,-0.01 v 0.01 h 0.0332031 v -0.01 z m 0,-0.01 v 0.012 h 0.0332031 v -0.012 z m 0.0175781,-0.016 v 0.033 h 0.0136719 v -0.033 z m -0.001953,0.014 v 0.01 h 0.03125 v -0.01 z m 0.015625,-0.01 v 0.031 h 0.0136719 v -0.031 z m 0.0136719,0 v 0.031 h 0.0136719 v -0.031 z m -0.001953,0.01 v 0.012 h 0.0332031 v -0.012 z m 0.001953,-0.016 v 0.033 h 0.0136719 v -0.033 z m -0.015625,0.01 v 0.01 h 0.03125 v -0.01 z m 0.015625,-0.016 v 0.031 h 0.0136719 v -0.031 z m -0.001953,0.01 v 0.01 h 0.0332031 v -0.01 z m 0.001953,-0.018 v 0.033 h 0.0136719 v -0.033 z m -0.0136719,0 v 0.033 h 0.0136719 v -0.033 z m -0.015625,0.014 v 0.01 h 0.03125 v -0.01 z m 0.001953,-0.01 v 0.031 h 0.0136719 v -0.031 z m -0.0175781,0.01 v 0.01 h 0.0332031 v -0.01 z m 0.001953,-0.018 v 0.033 h 0.015625 v -0.033 z m -0.0136719,0 v 0.033 h 0.0136719 v -0.033 z m -0.015625,0.014 v 0.01 h 0.03125 v -0.01 z m 0.015625,-0.01 v 0.031 h 0.0136719 v -0.031 z m -0.001953,0.012 v 0.01 h 0.0332031 v -0.01 z m 0,0.01 v 0.01 h 0.0332031 v -0.01 z m 0.001953,-0.01 v 0.031 h 0.0136719 v -0.031 z m -0.015625,0.01 v 0.012 h 0.03125 v -0.012 z m 0.001953,-0.016 v 0.033 h 0.0136719 v -0.033 z m -0.015625,0.014 v 0.01 h 0.03125 v -0.01 z m 0.001953,-0.01 v 0.031 h 0.0136719 v -0.031 z m -0.0175781,0.01 v 0.012 H 0.546875 v -0.012 z m 0,-0.01 v 0.01 H 0.546875 v -0.01 z m 0.0175781,-0.016 v 0.031 h 0.0136719 v -0.031 z m -0.001953,0.01 v 0.01 h 0.03125 v -0.01 z m 0.001953,-0.018 v 0.033 h 0.0136719 v -0.033 z m -0.0175781,0.01 v 0.01 H 0.546875 v -0.01 z m 0,-0.01 v 0.01 H 0.546875 v -0.01 z m 0.0175781,-0.016 v 0.031 h 0.0136719 v -0.031 z m -0.001953,0.012 v 0.01 h 0.03125 v -0.01 z m 0.015625,-0.01 v 0.031 h 0.0136719 v -0.031 z m 0.0136719,0 v 0.031 h 0.0136719 v -0.031 z m -0.001953,0.01 v 0.01 h 0.0332031 v -0.01 z m 0.001953,-0.016 v 0.031 h 0.0136719 v -0.031 z m -0.015625,0.01 v 0.01 h 0.03125 v -0.01 z m 0.015625,-0.018 v 0.033 h 0.0136719 v -0.033 z m -0.001953,0.01 v 0.01 h 0.0332031 v -0.01 z m 0.001953,-0.016 v 0.031 h 0.0136719 v -0.031 z m -0.0136719,0 v 0.031 h 0.0136719 v -0.031 z m -0.015625,0.012 v 0.012 h 0.03125 v -0.012 z m 0.001953,-0.01 v 0.033 h 0.0136719 v -0.033 z m -0.0175781,0.01 v 0.01 H 0.546875 v -0.01 z m 0,-0.01 v 0.01 H 0.546875 v -0.01 z m 0.0175781,-0.016 v 0.031 h 0.0136719 v -0.031 z m -0.001953,0.01 v 0.01 h 0.03125 v -0.01 z m 0.001953,-0.016 v 0.033 h 0.0136719 v -0.033 z m -0.0175781,0.01 v 0.01 H 0.546875 v -0.01 z m 0,-0.01 v 0.01 H 0.546875 v -0.01 z m 0.0175781,-0.018 v 0.033 h 0.0136719 v -0.033 z m -0.001953,0.014 v 0.01 h 0.03125 v -0.01 z m 0.015625,-0.01 v 0.031 h 0.0136719 v -0.031 z m -0.001953,0.01 v 0.01 h 0.03125 v -0.01 z m 0.015625,-0.018 v 0.033 h 0.0136719 v -0.033 z m -0.001953,0.014 v 0.01 h 0.0332031 v -0.01 z m 0,0.01 v 0.01 h 0.0332031 v -0.01 z m 0.001953,-0.01 v 0.033 h 0.0136719 v -0.033 z m -0.015625,0.014 v 0.01 h 0.03125 v -0.01 z m 0.015625,-0.01 v 0.031 h 0.0136719 v -0.031 z m 0.0136719,0 v 0.031 h 0.015625 v -0.031 z m 0.015625,0 v 0.031 h 0.0136719 v -0.031 z m -0.001953,0.01 v 0.01 h 0.03125 v -0.01 z m 0.001953,-0.016 v 0.033 h 0.0136719 v -0.033 z m -0.0175781,0.01 v 0.01 h 0.0332031 v -0.01 z m 0,-0.01 v 0.01 h 0.0332031 v -0.01 z m 0.0175781,-0.018 v 0.033 h 0.0136719 v -0.033 z m -0.001953,0.014 v 0.01 h 0.03125 v -0.01 z m 0.015625,-0.01 v 0.031 h 0.0136719 v -0.031 z m -0.001953,0.01 v 0.01 h 0.03125 v -0.01 z m 0.015625,-0.018 v 0.033 h 0.0136719 v -0.033 z m -0.001953,0.014 v 0.01 h 0.0332031 v -0.01 z m 0,0.01 v 0.01 h 0.0332031 v -0.01 z m 0.001953,-0.01 v 0.033 h 0.0136719 v -0.033 z m -0.015625,0.014 v 0.01 h 0.03125 v -0.01 z m 0.015625,-0.01 v 0.031 h 0.0136719 v -0.031 z m -0.001953,0.012 v 0.01 h 0.0332031 v -0.01 z m 0,0.01 v 0.012 h 0.0332031 v -0.012 z m 0.001953,-0.01 v 0.033 h 0.0136719 v -0.033 z m -0.015625,0.01 v 0.01 h 0.03125 v -0.01 z m 0.001953,-0.016 v 0.031 h 0.0136719 v -0.031 z m -0.0136719,0 v 0.031 h 0.0136719 v -0.031 z m -0.0175781,0.012 v 0.012 h 0.0332031 v -0.012 z m 0.0175781,-0.01 v 0.033 h 0.0136719 v -0.033 z m -0.001953,0.014 v 0.01 h 0.03125 v -0.01 z m 0.001953,-0.01 v 0.031 h 0.0136719 v -0.031 z m -0.0175781,0.012 v 0.01 h 0.0332031 v -0.01 z m 0.0175781,-0.01 v 0.031 h 0.0136719 v -0.031 z m 0.0136719,0 v 0.031 h 0.0136719 v -0.031 z m -0.001953,0.01 v 0.01 h 0.03125 v -0.01 z m 0.015625,-0.016 v 0.031 h 0.0136719 v -0.031 z m -0.001953,0.012 v 0.01 h 0.0332031 v -0.01 z m 0.015625,-0.01 v 0.031 h 0.015625 v -0.031 z m -0.001953,0.01 v 0.01 h 0.0332031 v -0.01 z m 0.0175781,-0.016 v 0.031 h 0.0136719 v -0.031 z m -0.001953,0.012 v 0.01 h 0.03125 v -0.01 z m 0.015625,-0.01 v 0.031 H 0.671875 v -0.031 z m 0.0136719,0 v 0.031 h 0.0136719 v -0.031 z m -0.001953,0.01 v 0.01 H 0.703125 v -0.01 z m 0.001953,-0.016 v 0.031 h 0.0136719 v -0.031 z m -0.015625,0.01 v 0.01 H 0.6875 v -0.01 z m 0.015625,-0.018 v 0.033 h 0.0136719 v -0.033 z m -0.001953,0.01 v 0.01 H 0.703125 v -0.01 z m 0.001953,-0.016 v 0.031 h 0.0136719 v -0.031 z m -0.0136719,0 v 0.031 H 0.671875 v -0.031 z m -0.015625,0.012 v 0.012 h 0.03125 v -0.012 z m 0.001953,-0.01 v 0.033 h 0.0136719 v -0.033 z m -0.0175781,0.01 v 0.01 h 0.0332031 v -0.01 z m 0,-0.01 v 0.01 h 0.0332031 v -0.01 z m 0.0175781,-0.016 v 0.031 h 0.0136719 v -0.031 z m -0.001953,0.01 v 0.01 h 0.03125 v -0.01 z m 0.001953,-0.016 v 0.033 h 0.0136719 v -0.033 z m -0.0175781,0.01 v 0.01 h 0.0332031 v -0.01 z m 0,-0.01 v 0.01 h 0.0332031 v -0.01 z m 0.0175781,-0.018 v 0.033 h 0.0136719 v -0.033 z m -0.001953,0.014 v 0.01 h 0.03125 v -0.01 z m 0.015625,-0.01 v 0.031 H 0.671875 v -0.031 z m -0.001953,0.01 v 0.01 H 0.6875 v -0.01 z m 0.015625,-0.018 v 0.033 h 0.0136719 v -0.033 z m -0.001953,0.014 v 0.01 H 0.703125 v -0.01 z m 0,0.01 v 0.01 H 0.703125 v -0.01 z m 0.001953,-0.01 v 0.033 h 0.0136719 v -0.033 z m -0.015625,0.014 v 0.01 H 0.6875 v -0.01 z m 0.015625,-0.01 v 0.031 h 0.0136719 v -0.031 z m 0.0136719,0 v 0.031 h 0.015625 v -0.031 z m 0.015625,0 v 0.031 h 0.0136719 v -0.031 z m -0.001953,0.01 v 0.01 h 0.03125 v -0.01 z m 0.001953,-0.016 v 0.033 h 0.0136719 v -0.033 z m -0.0175781,0.01 v 0.01 h 0.0332031 v -0.01 z m 0,-0.01 v 0.01 h 0.0332031 v -0.01 z m 0.0175781,-0.018 v 0.033 h 0.0136719 v -0.033 z m -0.001953,0.014 v 0.01 h 0.03125 v -0.01 z m 0.015625,-0.01 v 0.031 h 0.0136719 v -0.031 z m -0.001953,0.01 v 0.01 h 0.03125 v -0.01 z m 0.015625,-0.018 v 0.033 h 0.0136719 v -0.033 z m -0.001953,0.014 v 0.01 h 0.0332031 v -0.01 z m 0,0.01 v 0.01 h 0.0332031 v -0.01 z m 0.001953,-0.01 v 0.033 h 0.0136719 v -0.033 z m -0.015625,0.014 v 0.01 h 0.03125 v -0.01 z m 0.015625,-0.01 v 0.031 h 0.0136719 v -0.031 z m -0.001953,0.012 v 0.01 h 0.0332031 v -0.01 z m 0,0.01 v 0.012 h 0.0332031 v -0.012 z m 0.001953,-0.01 v 0.033 h 0.0136719 v -0.033 z m -0.015625,0.01 v 0.01 h 0.03125 v -0.01 z m 0.001953,-0.016 v 0.031 h 0.0136719 v -0.031 z m -0.0136719,0 v 0.031 h 0.0136719 v -0.031 z m -0.0175781,0.012 v 0.012 h 0.0332031 v -0.012 z m 0.0175781,-0.01 v 0.033 h 0.0136719 v -0.033 z m -0.001953,0.014 v 0.01 h 0.03125 v -0.01 z m 0.001953,-0.01 v 0.031 h 0.0136719 v -0.031 z m -0.0175781,0.012 v 0.01 h 0.0332031 v -0.01 z m 0.0175781,-0.01 v 0.031 h 0.0136719 v -0.031 z m 0.0136719,0 v 0.031 h 0.0136719 v -0.031 z m -0.001953,0.01 v 0.01 h 0.03125 v -0.01 z m 0.015625,-0.016 v 0.031 h 0.0136719 v -0.031 z m -0.001953,0.012 v 0.01 h 0.0332031 v -0.01 z m 0,0.01 v 0.01 h 0.0332031 v -0.01 z m 0.001953,-0.01 v 0.033 h 0.0136719 v -0.033 z m -0.015625,0.014 v 0.01 h 0.03125 v -0.01 z m 0.015625,-0.01 v 0.031 h 0.0136719 v -0.031 z m -0.001953,0.012 v 0.01 h 0.0332031 v -0.01 z m 0,0.01 v 0.01 h 0.0332031 v -0.01 z m 0.001953,-0.01 v 0.031 h 0.0136719 v -0.031 z m -0.015625,0.01 v 0.012 h 0.03125 v -0.012 z m 0.001953,-0.016 v 0.033 h 0.0136719 v -0.033 z m -0.015625,0.014 v 0.01 h 0.03125 v -0.01 z m 0.001953,-0.01 v 0.031 h 0.0136719 v -0.031 z m -0.0175781,0.01 v 0.012 h 0.0332031 v -0.012 z m 0,-0.01 v 0.01 h 0.0332031 v -0.01 z m 0.0175781,-0.016 v 0.031 h 0.0136719 v -0.031 z m -0.001953,0.01 v 0.01 h 0.03125 v -0.01 z m 0.001953,-0.018 v 0.033 h 0.0136719 v -0.033 z m -0.015625,0 v 0.033 h 0.015625 v -0.033 z m -0.015625,0.014 v 0.01 H 0.703125 v -0.01 z m 0.001953,-0.01 v 0.031 h 0.0136719 v -0.031 z m -0.015625,0.01 v 0.01 H 0.6875 v -0.01 z m 0.001953,-0.018 v 0.033 H 0.671875 v -0.033 z m -0.0136719,0 v 0.033 h 0.0136719 v -0.033 z m -0.0175781,0.014 v 0.01 h 0.0332031 v -0.01 z m 0.0175781,-0.01 v 0.031 h 0.0136719 v -0.031 z m -0.001953,0.012 v 0.01 h 0.03125 v -0.01 z m 0.001953,-0.01 v 0.033 h 0.0136719 v -0.033 z m -0.0175781,0.014 v 0.01 h 0.0332031 v -0.01 z m 0.0175781,-0.01 v 0.031 h 0.0136719 v -0.031 z m 0.0136719,0 v 0.031 H 0.671875 v -0.031 z m -0.001953,0.01 v 0.012 H 0.6875 v -0.012 z m 0.015625,-0.016 v 0.033 h 0.0136719 v -0.033 z m -0.001953,0.014 v 0.01 H 0.703125 v -0.01 z m 0,0.01 v 0.01 H 0.703125 v -0.01 z m 0,0.01 v 0.012 H 0.703125 v -0.012 z m 0.001953,-0.01 v 0.033 h 0.0136719 v -0.033 z m -0.015625,0.01 v 0.01 H 0.6875 v -0.01 z m 0.001953,-0.016 v 0.031 H 0.671875 v -0.031 z m -0.0136719,0 v 0.031 h 0.0136719 v -0.031 z m -0.0175781,0.012 v 0.012 h 0.0332031 v -0.012 z m 0.0175781,-0.01 v 0.033 h 0.0136719 v -0.033 z m -0.001953,0.014 v 0.01 h 0.03125 v -0.01 z m 0.001953,-0.01 v 0.031 h 0.0136719 v -0.031 z m -0.0175781,0.012 v 0.01 h 0.0332031 v -0.01 z m 0.0175781,-0.01 v 0.033 h 0.0136719 v -0.033 z m 0.0136719,0 v 0.033 H 0.671875 v -0.033 z m -0.001953,0.01 v 0.01 H 0.6875 v -0.01 z m 0.015625,-0.016 v 0.031 h 0.0136719 v -0.031 z m -0.001953,0.012 v 0.01 H 0.703125 v -0.01 z m 0.015625,-0.01 v 0.033 h 0.015625 v -0.033 z m 0.015625,0 v 0.033 h 0.0136719 v -0.033 z m -0.001953,0.01 v 0.01 h 0.03125 v -0.01 z m 0.001953,-0.016 v 0.031 h 0.0136719 v -0.031 z m -0.0175781,0.01 v 0.01 h 0.0332031 v -0.01 z m 0,-0.01 v 0.01 h 0.0332031 v -0.01 z m 0.0175781,-0.016 v 0.031 h 0.0136719 v -0.031 z m -0.001953,0.012 v 0.012 h 0.03125 v -0.012 z m 0.015625,-0.01 v 0.033 h 0.0136719 v -0.033 z m -0.001953,0.01 v 0.01 h 0.03125 v -0.01 z m 0.015625,-0.016 v 0.031 h 0.0136719 v -0.031 z m -0.001953,0.012 v 0.012 h 0.0332031 v -0.012 z m 0,0.01 v 0.01 h 0.0332031 v -0.01 z m 0.001953,-0.01 v 0.031 h 0.0136719 v -0.031 z m -0.015625,0.012 v 0.01 h 0.03125 v -0.01 z m 0.015625,-0.01 v 0.033 h 0.0136719 v -0.033 z m -0.001953,0.014 v 0.01 h 0.0332031 v -0.01 z m 0,0.01 v 0.01 h 0.0332031 v -0.01 z m 0.001953,-0.01 v 0.031 h 0.0136719 v -0.031 z m -0.015625,0.01 v 0.01 h 0.03125 v -0.01 z m 0.001953,-0.016 v 0.031 h 0.0136719 v -0.031 z m -0.0136719,0 v 0.031 h 0.0136719 v -0.031 z m -0.0175781,0.012 v 0.01 h 0.0332031 v -0.01 z m 0.0175781,-0.01 v 0.031 h 0.0136719 v -0.031 z m -0.001953,0.012 v 0.012 h 0.03125 v -0.012 z m 0.001953,-0.01 v 0.033 h 0.0136719 v -0.033 z m -0.0175781,0.014 v 0.01 h 0.0332031 v -0.01 z m 0.0175781,-0.01 v 0.031 h 0.0136719 v -0.031 z m 0.0136719,0 v 0.031 h 0.0136719 v -0.031 z m -0.001953,0.01 v 0.01 h 0.03125 v -0.01 z m 0.015625,-0.018 v 0.033 h 0.0136719 v -0.033 z m -0.001953,0.014 v 0.01 h 0.0332031 v -0.01 z m 0,0.01 v 0.01 h 0.0332031 v -0.01 z m 0.001953,-0.01 v 0.031 h 0.0136719 v -0.031 z m -0.015625,0.014 v 0.01 h 0.03125 v -0.01 z m 0.015625,-0.01 v 0.033 h 0.0136719 v -0.033 z m -0.001953,0.014 v 0.01 h 0.0332031 v -0.01 z m 0,0.01 v 0.01 h 0.0332031 v -0.01 z m 0.001953,-0.01 v 0.033 h 0.0136719 v -0.033 z m -0.015625,0.01 v 0.01 h 0.03125 v -0.01 z m 0.001953,-0.016 v 0.031 h 0.0136719 v -0.031 z m -0.015625,0.012 v 0.01 h 0.03125 v -0.01 z m 0.001953,-0.01 v 0.033 h 0.0136719 v -0.033 z m -0.0175781,0.01 v 0.01 h 0.0332031 v -0.01 z m 0,-0.01 v 0.01 h 0.0332031 v -0.01 z m 0.0175781,-0.018 v 0.033 h 0.0136719 v -0.033 z m -0.001953,0.01 v 0.01 h 0.03125 v -0.01 z m 0.001953,-0.016 v 0.031 h 0.0136719 v -0.031 z m -0.015625,0 v 0.031 h 0.015625 v -0.031 z m -0.0136719,0 v 0.031 h 0.0136719 v -0.031 z m -0.015625,0.014 v 0.01 H 0.6875 v -0.01 z m 0.015625,-0.01 v 0.033 h 0.0136719 v -0.033 z m -0.001953,0.014 v 0.01 H 0.703125 v -0.01 z m 0,0.01 v 0.01 H 0.703125 v -0.01 z m 0.001953,-0.01 v 0.033 h 0.0136719 v -0.033 z m -0.015625,0.01 v 0.01 H 0.6875 v -0.01 z m 0.001953,-0.016 v 0.031 H 0.671875 v -0.031 z m -0.015625,0.012 v 0.01 h 0.03125 v -0.01 z m 0.001953,-0.01 v 0.033 h 0.0136719 v -0.033 z m -0.0175781,0.01 v 0.01 h 0.0332031 v -0.01 z m 0,-0.01 v 0.01 h 0.0332031 v -0.01 z m 0.0175781,-0.018 v 0.033 h 0.0136719 v -0.033 z m -0.001953,0.01 v 0.01 h 0.03125 v -0.01 z m 0.001953,-0.016 v 0.031 h 0.0136719 v -0.031 z m -0.0175781,0.01 v 0.01 h 0.0332031 v -0.01 z m 0,-0.01 v 0.01 h 0.0332031 v -0.01 z m 0.0175781,-0.018 v 0.033 h 0.0136719 v -0.033 z m -0.001953,0.014 v 0.01 h 0.03125 v -0.01 z m 0.015625,-0.01 v 0.031 H 0.671875 v -0.031 z m 0.0136719,0 v 0.031 h 0.0136719 v -0.031 z m -0.001953,0.01 v 0.01 H 0.703125 v -0.01 z m 0.001953,-0.018 v 0.033 h 0.0136719 v -0.033 z m -0.015625,0.01 v 0.01 H 0.6875 v -0.01 z m 0.015625,-0.016 v 0.031 h 0.0136719 v -0.031 z m -0.001953,0.01 v 0.01 H 0.703125 v -0.01 z m 0.001953,-0.016 v 0.031 h 0.0136719 v -0.031 z m -0.0136719,0 v 0.031 H 0.671875 v -0.031 z m -0.015625,0.012 v 0.01 h 0.03125 v -0.01 z m 0.001953,-0.01 v 0.031 h 0.0136719 v -0.031 z m -0.0175781,0.01 v 0.01 h 0.0332031 v -0.01 z m 0.001953,-0.016 v 0.031 h 0.015625 v -0.031 z m -0.0136719,0 v 0.031 h 0.0136719 v -0.031 z m -0.015625,0.012 v 0.01 h 0.03125 v -0.01 z m 0.015625,-0.01 v 0.031 h 0.0136719 v -0.031 z m -0.001953,0.012 v 0.012 h 0.0332031 v -0.012 z m 0,0.01 v 0.01 h 0.0332031 v -0.01 z m 0.001953,-0.01 v 0.031 h 0.0136719 v -0.031 z m -0.015625,0.01 v 0.01 h 0.03125 v -0.01 z m 0.001953,-0.018 v 0.033 h 0.0136719 v -0.033 z m -0.015625,0.014 v 0.01 h 0.03125 v -0.01 z m 0.001953,-0.01 v 0.031 h 0.0136719 v -0.031 z m -0.0175781,0.01 v 0.01 h 0.0332031 v -0.01 z m 0,-0.01 v 0.01 h 0.0332031 v -0.01 z m 0.0175781,-0.016 v 0.031 h 0.0136719 v -0.031 z m -0.001953,0.01 v 0.01 h 0.03125 v -0.01 z m 0.001953,-0.016 v 0.031 h 0.0136719 v -0.031 z m -0.015625,0 v 0.031 h 0.015625 v -0.031 z m -0.015625,0.012 v 0.01 h 0.0332031 v -0.01 z m 0.001953,-0.01 v 0.031 h 0.0136719 v -0.031 z m -0.015625,0.01 v 0.01 h 0.03125 v -0.01 z m 0.001953,-0.016 v 0.031 h 0.0136719 v -0.031 z m -0.0136719,0 v 0.031 h 0.0136719 v -0.031 z m -0.0175781,0.012 v 0.01 H 0.546875 v -0.01 z m 0.0175781,-0.01 v 0.031 h 0.0136719 v -0.031 z m -0.001953,0.012 v 0.012 h 0.03125 v -0.012 z m 0.001953,-0.01 v 0.033 h 0.0136719 v -0.033 z m -0.0175781,0.014 v 0.01 H 0.546875 v -0.01 z m 0.0175781,-0.01 v 0.031 h 0.0136719 v -0.031 z m 0.0136719,0 v 0.031 h 0.0136719 v -0.031 z m -0.001953,0.01 v 0.01 h 0.03125 v -0.01 z m 0.015625,-0.018 v 0.033 h 0.0136719 v -0.033 z m -0.001953,0.014 v 0.01 h 0.0332031 v -0.01 z m 0,0.01 v 0.01 h 0.0332031 v -0.01 z m 0,0.01 v 0.01 h 0.0332031 v -0.01 z m 0.001953,-0.01 v 0.033 h 0.0136719 v -0.033 z m -0.015625,0.01 v 0.01 h 0.03125 v -0.01 z m 0.001953,-0.016 v 0.031 h 0.0136719 v -0.031 z m -0.0136719,0 v 0.031 h 0.0136719 v -0.031 z m -0.0175781,0.014 v 0.01 H 0.546875 v -0.01 z m 0.0175781,-0.01 v 0.033 h 0.0136719 v -0.033 z m -0.001953,0.014 v 0.01 h 0.03125 v -0.01 z m 0.001953,-0.01 v 0.031 h 0.0136719 v -0.031 z m -0.0175781,0.012 v 0.01 H 0.546875 v -0.01 z m 0.0175781,-0.01 v 0.033 h 0.0136719 v -0.033 z m 0.0136719,0 v 0.033 h 0.0136719 v -0.033 z m -0.001953,0.01 v 0.01 h 0.03125 v -0.01 z m 0.015625,-0.016 v 0.031 h 0.0136719 v -0.031 z m -0.001953,0.012 v 0.01 h 0.0332031 v -0.01 z m 0.015625,-0.01 v 0.033 h 0.015625 v -0.033 z m 0.015625,0 v 0.033 h 0.0136719 v -0.033 z m -0.001953,0.01 v 0.01 h 0.03125 v -0.01 z m 0.001953,-0.016 v 0.031 h 0.0136719 v -0.031 z m -0.0175781,0.01 v 0.01 h 0.0332031 v -0.01 z m 0,-0.01 v 0.01 h 0.0332031 v -0.01 z m 0.0175781,-0.016 v 0.031 h 0.0136719 v -0.031 z m -0.001953,0.014 v 0.01 h 0.03125 v -0.01 z m 0.015625,-0.01 v 0.033 h 0.0136719 v -0.033 z m -0.001953,0.01 v 0.01 h 0.03125 v -0.01 z m 0.015625,-0.016 v 0.031 h 0.0136719 v -0.031 z m -0.001953,0.014 v 0.01 h 0.0332031 v -0.01 z m 0,0.01 v 0.01 h 0.0332031 v -0.01 z m 0.001953,-0.01 v 0.031 h 0.0136719 v -0.031 z m -0.015625,0.012 v 0.01 h 0.03125 v -0.01 z m 0.015625,-0.01 v 0.033 h 0.0136719 v -0.033 z m -0.001953,0.014 v 0.01 h 0.0332031 v -0.01 z m 0.001953,-0.01 v 0.031 h 0.0136719 v -0.031 z m -0.015625,0.012 v 0.01 h 0.03125 v -0.01 z m 0.015625,-0.01 v 0.031 h 0.0136719 v -0.031 z m -0.001953,0.012 v 0.012 h 0.0332031 v -0.012 z m 0,0.01 v 0.01 h 0.0332031 v -0.01 z m 0.001953,-0.01 v 0.031 h 0.0136719 v -0.031 z m -0.015625,0.01 v 0.01 h 0.03125 v -0.01 z m 0.001953,-0.018 v 0.033 h 0.0136719 v -0.033 z m -0.015625,0.014 v 0.01 h 0.03125 v -0.01 z m 0.001953,-0.01 v 0.031 h 0.0136719 v -0.031 z m -0.0175781,0.01 v 0.01 h 0.0332031 v -0.01 z m 0,-0.01 v 0.01 h 0.0332031 v -0.01 z m 0.0175781,-0.016 v 0.031 h 0.0136719 v -0.031 z m -0.001953,0.01 v 0.01 h 0.03125 v -0.01 z m 0.001953,-0.016 v 0.031 h 0.0136719 v -0.031 z m -0.015625,0 v 0.031 h 0.015625 v -0.031 z m -0.015625,0.012 v 0.01 h 0.0332031 v -0.01 z m 0.001953,-0.01 v 0.031 h 0.0136719 v -0.031 z m -0.015625,0.01 v 0.01 h 0.03125 v -0.01 z m 0.001953,-0.016 v 0.031 h 0.0136719 v -0.031 z m -0.0136719,0 v 0.031 h 0.0136719 v -0.031 z m -0.0175781,0.012 v 0.01 H 0.546875 v -0.01 z m 0.0175781,-0.01 v 0.031 h 0.0136719 v -0.031 z m -0.001953,0.012 v 0.012 h 0.03125 v -0.012 z m 0.001953,-0.01 v 0.033 h 0.0136719 v -0.033 z m -0.0175781,0.014 v 0.01 H 0.546875 v -0.01 z m 0.0175781,-0.01 v 0.031 h 0.0136719 v -0.031 z m 0.0136719,0 v 0.031 h 0.0136719 v -0.031 z m -0.001953,0.01 v 0.01 h 0.03125 v -0.01 z m 0.015625,-0.018 v 0.033 h 0.0136719 v -0.033 z m -0.001953,0.014 v 0.01 h 0.0332031 v -0.01 z m 0,0.01 v 0.01 h 0.0332031 v -0.01 z m 0,0.01 v 0.01 h 0.0332031 v -0.01 z m 0.001953,-0.01 v 0.031 h 0.0136719 v -0.031 z m -0.015625,0.01 v 0.01 h 0.03125 v -0.01 z m 0.001953,-0.016 v 0.033 h 0.0136719 v -0.033 z m -0.0136719,0 v 0.033 h 0.0136719 v -0.033 z m -0.0175781,0.014 v 0.01 H 0.546875 v -0.01 z m 0.0175781,-0.01 v 0.031 h 0.0136719 v -0.031 z m -0.001953,0.012 v 0.01 h 0.03125 v -0.01 z m 0.001953,-0.01 v 0.031 h 0.0136719 v -0.031 z m -0.0175781,0.012 v 0.012 H 0.546875 v -0.012 z m 0.0175781,-0.01 v 0.033 h 0.0136719 v -0.033 z m 0.0136719,0 v 0.033 h 0.0136719 v -0.033 z m -0.001953,0.01 v 0.01 h 0.03125 v -0.01 z m 0.015625,-0.016 v 0.031 h 0.0136719 v -0.031 z m -0.001953,0.012 v 0.012 h 0.0332031 v -0.012 z m 0.015625,-0.01 v 0.033 h 0.015625 v -0.033 z m 0.015625,0 v 0.033 h 0.0136719 v -0.033 z m -0.001953,0.01 v 0.01 h 0.03125 v -0.01 z m 0.001953,-0.016 v 0.031 h 0.0136719 v -0.031 z m -0.0175781,0.01 v 0.01 h 0.0332031 v -0.01 z m 0,-0.01 v 0.01 h 0.0332031 v -0.01 z m 0.0175781,-0.016 v 0.033 h 0.0136719 v -0.033 z m -0.001953,0.014 v 0.01 h 0.03125 v -0.01 z m 0.015625,-0.01 v 0.031 h 0.0136719 v -0.031 z m -0.001953,0.01 v 0.01 h 0.03125 v -0.01 z m 0.015625,-0.016 v 0.033 h 0.0136719 v -0.033 z m -0.001953,0.014 v 0.01 h 0.0332031 v -0.01 z m 0,0.01 v 0.01 h 0.0332031 v -0.01 z m 0.001953,-0.01 v 0.031 h 0.0136719 v -0.031 z m -0.015625,0.012 v 0.012 h 0.03125 v -0.012 z m 0.015625,-0.01 v 0.033 h 0.0136719 v -0.033 z m 0.0136719,0 v 0.033 h 0.015625 v -0.033 z m -0.001953,0.01 v 0.01 h 0.0332031 v -0.01 z m 0.0175781,-0.016 v 0.031 h 0.0136719 v -0.031 z m -0.001953,0.012 v 0.012 h 0.03125 v -0.012 z m 0.015625,-0.01 v 0.033 H 0.671875 v -0.033 z m 0.0136719,0 v 0.033 h 0.0136719 v -0.033 z m -0.001953,0.01 v 0.01 H 0.703125 v -0.01 z m 0.001953,-0.016 v 0.031 h 0.0136719 v -0.031 z m -0.015625,0.01 v 0.01 H 0.6875 v -0.01 z m 0.015625,-0.016 v 0.031 h 0.0136719 v -0.031 z m -0.001953,0.01 v 0.01 H 0.703125 v -0.01 z m 0.001953,-0.016 v 0.033 h 0.0136719 v -0.033 z m -0.0136719,0 v 0.033 H 0.671875 v -0.033 z m -0.015625,0.014 v 0.01 h 0.03125 v -0.01 z m 0.001953,-0.01 v 0.031 h 0.0136719 v -0.031 z m -0.0175781,0.01 v 0.01 h 0.0332031 v -0.01 z m 0,-0.01 v 0.01 h 0.0332031 v -0.01 z m 0.0175781,-0.016 v 0.031 h 0.0136719 v -0.031 z m -0.001953,0.01 v 0.01 h 0.03125 v -0.01 z m 0.001953,-0.018 v 0.033 h 0.0136719 v -0.033 z m -0.0175781,0.01 v 0.01 h 0.0332031 v -0.01 z m 0,-0.01 v 0.01 h 0.0332031 v -0.01 z m 0.0175781,-0.016 v 0.031 h 0.0136719 v -0.031 z m -0.001953,0.012 v 0.01 h 0.03125 v -0.01 z m 0.015625,-0.01 v 0.031 H 0.671875 v -0.031 z m -0.001953,0.01 v 0.01 H 0.6875 v -0.01 z m 0.015625,-0.016 v 0.031 h 0.0136719 v -0.031 z m -0.001953,0.012 v 0.01 H 0.703125 v -0.01 z m 0,0.01 v 0.012 H 0.703125 v -0.012 z m 0.001953,-0.01 v 0.033 h 0.0136719 v -0.033 z m -0.015625,0.014 v 0.01 H 0.6875 v -0.01 z m 0.015625,-0.01 v 0.031 h 0.0136719 v -0.031 z m 0.0136719,0 v 0.031 h 0.015625 v -0.031 z m 0.015625,0 v 0.031 h 0.0136719 v -0.031 z m -0.001953,0.01 v 0.01 h 0.03125 v -0.01 z m 0.001953,-0.018 v 0.033 h 0.0136719 v -0.033 z m -0.0175781,0.01 v 0.01 h 0.0332031 v -0.01 z m 0,-0.01 v 0.01 h 0.0332031 v -0.01 z m 0.0175781,-0.016 v 0.031 h 0.0136719 v -0.031 z m -0.001953,0.012 v 0.01 h 0.03125 v -0.01 z m 0.015625,-0.01 v 0.031 h 0.0136719 v -0.031 z m -0.001953,0.01 v 0.01 h 0.03125 v -0.01 z m 0.015625,-0.016 v 0.031 h 0.0136719 v -0.031 z m -0.001953,0.012 v 0.01 h 0.0332031 v -0.01 z m 0,0.01 v 0.012 h 0.0332031 v -0.012 z m 0.001953,-0.01 v 0.033 h 0.0136719 v -0.033 z m -0.015625,0.014 v 0.01 h 0.03125 v -0.01 z m 0.015625,-0.01 v 0.031 h 0.0136719 v -0.031 z m -0.001953,0.012 v 0.01 h 0.0332031 v -0.01 z m 0,0.01 v 0.01 h 0.0332031 v -0.01 z m 0.001953,-0.01 v 0.031 h 0.0136719 v -0.031 z m -0.015625,0.01 v 0.01 h 0.03125 v -0.01 z m 0.001953,-0.016 v 0.033 h 0.0136719 v -0.033 z m -0.0136719,0 v 0.033 h 0.0136719 v -0.033 z m -0.0175781,0.014 v 0.01 h 0.0332031 v -0.01 z m 0.0175781,-0.01 v 0.031 h 0.0136719 v -0.031 z m -0.001953,0.012 v 0.01 h 0.03125 v -0.01 z m 0.001953,-0.01 v 0.031 h 0.0136719 v -0.031 z m -0.0175781,0.012 v 0.012 h 0.0332031 v -0.012 z m 0.0175781,-0.01 v 0.033 h 0.0136719 v -0.033 z m 0.0136719,0 v 0.033 h 0.0136719 v -0.033 z m -0.001953,0.01 v 0.01 h 0.03125 v -0.01 z m 0.015625,-0.016 v 0.031 h 0.0136719 v -0.031 z m -0.001953,0.012 v 0.012 h 0.0332031 v -0.012 z"
         style="color:#000000;font-style:normal;font-variant:normal;font-weight:normal;font-stretch:normal;font-size:medium;line-height:normal;font-family:sans-serif;font-variant-ligatures:normal;font-variant-position:normal;font-variant-caps:normal;font-variant-numeric:normal;font-variant-alternates:normal;font-variant-east-asian:normal;font-feature-settings:normal;font-variation-settings:normal;text-indent:0;text-align:start;text-decoration:none;text-decoration-line:none;text-decoration-style:solid;text-decoration-color:#000000;letter-spacing:normal;word-spacing:normal;text-transform:none;writing-mode:lr-tb;direction:ltr;text-orientation:mixed;dominant-baseline:auto;baseline-shift:baseline;text-anchor:start;white-space:normal;shape-padding:0;shape-margin:0;inline-size:0;clip-rule:nonzero;display:inline;overflow:visible;visibility:visible;isolation:auto;mix-blend-mode:normal;color-interpolation:sRGB;color-interpolation-filters:linearRGB;solid-color:#000000;solid-opacity:1;vector-effect:none;fill:none;fill-opacity:1;fill-rule:nonzero;stroke:#000000;stroke-width:0.00061606;stroke-linecap:butt;stroke-linejoin:miter;stroke-miterlimit:4;stroke-dasharray:none;stroke-dashoffset:0;stroke-opacity:1;color-rendering:auto;image-rendering:auto;shape-rendering:auto;text-rendering:auto;enable-background:accumulate;stop-color:#000000;stop-opacity:1;opacity:1"
         id="path18108" />
    </g>
  </g>
</svg>
