<svg xmlns="http://www.w3.org/2000/svg" xmlns:inkscape="http://www.inkscape.org/namespaces/inkscape" xmlns:xlink="http://www.w3.org/1999/xlink" width="600px" height="300px">

<g inkscape:groupmode="layer" id="Mon Oct 18 08:33:06 2021">

<g id="Sv_0.002">  <!-- start Sv_0.002 -->

<path id="trazo.Sv_0.002" d="M 586.0386,593.9096 L 586.0386,606.4342 612.9451,606.4174 612.9451,593.8951 639.8422,593.8806 639.8422,606.4007 666.7295,606.384 666.7295,593.8661 666.7295,581.3483 639.8422,581.3606 639.8422,568.8405 666.7295,568.8304 693.6074,568.8204 720.4756,568.8104 720.4756,581.3238 693.6074,581.336 693.6074,593.8517 693.6074,606.3673 720.4756,606.3506 720.4756,593.8372 747.3343,593.8227 747.3343,606.3339 774.1835,606.3172 774.1835,593.8083 774.1835,581.2993 747.3343,581.3116 747.3343,568.8004 774.1835,568.7903 774.1835,556.2814 774.1835,543.7725 747.3343,543.778 747.3343,556.2892 720.4756,556.297 693.6074,556.3048 693.6074,543.7892 720.4756,543.7836 720.4756,531.2702 693.6074,531.2736 693.6074,518.7579 720.4756,518.7568 747.3343,518.7557 747.3343,531.2669 774.1835,531.2635 774.1835,518.7546 801.0231,518.7535 827.8531,518.7523 827.8531,531.2569 801.0231,531.2602 801.0231,543.7669 801.0231,556.2736 827.8531,556.2658 827.8531,543.7614 854.6736,543.7558 854.6736,556.2581 881.4846,556.2503 881.4846,543.7502 881.4846,531.2502 854.6736,531.2535 854.6736,518.7513 881.4846,518.7501 908.2861,518.749 908.2861,531.2468 935.078,531.2435 935.078,518.7479 961.8604,518.7468 988.6334,518.7457 988.6334,531.2368 961.8604,531.2402 961.8604,543.7336 988.6334,543.728 988.6334,556.2192 961.8604,556.2269 935.078,556.2347 935.078,543.7391 908.2861,543.7447 908.2861,556.2425 908.2861,568.7403 908.2861,581.2382 935.078,581.226 935.078,568.7303 961.8604,568.7203 988.6334,568.7103 988.6334,581.2015 961.8604,581.2137 961.8604,593.7071 988.6334,593.6927 988.6334,606.1839 961.8604,606.2005 935.078,606.2172 935.078,593.7216 908.2861,593.736 908.2861,606.2338 881.4846,606.2505 854.6736,606.2672 854.6736,593.7649 881.4846,593.7504 881.4846,581.2504 881.4846,568.7503 854.6736,568.7603 854.6736,581.2626 827.8531,581.2748 827.8531,568.7703 801.0231,568.7803 801.0231,581.2871 801.0231,593.7938 827.8531,593.7793 827.8531,606.2838 801.0231,606.3005 801.0231,618.8072 827.8531,618.7883 827.8531,631.2928 801.0231,631.3139 801.0231,643.8206 801.0231,656.3274 827.8531,656.3018 827.8531,643.7973 854.6736,643.774 854.6736,656.2762 881.4846,656.2507 881.4846,643.7506 881.4846,631.2506 854.6736,631.2717 854.6736,618.7694 881.4846,618.7505 908.2861,618.7316 908.2861,631.2295 935.0781,631.2084 935.0781,618.7128 961.8605,618.6939 988.6334,618.675 988.6334,631.1662 961.8605,631.1873 961.8605,643.6807 988.6334,643.6574 988.6334,656.1486 961.8605,656.1741 935.0781,656.1996 935.0781,643.704 908.2861,643.7273 908.2861,656.2252 908.2861,668.723 908.2861,681.2208 935.0781,681.1908 935.0781,668.6952 961.8605,668.6674 988.6334,668.6397 988.6334,681.1309 961.8605,681.1609 961.8605,693.6542 988.6334,693.6221 988.6334,706.1133 961.8605,706.1476 935.0781,706.1821 935.0781,693.6864 908.2861,693.7186 908.2861,706.2165 881.4846,706.2509 854.6736,706.2853 854.6736,693.7831 881.4846,693.7509 881.4846,681.2508 881.4846,668.7507 854.6736,668.7785 854.6736,681.2808 827.8531,681.3108 827.8531,668.8063 801.0231,668.8341 801.0231,681.3408 801.0231,693.8475 827.8531,693.8153 827.8531,706.3198 801.0231,706.3542 774.1835,706.3888 774.1835,693.8798 747.3343,693.9121 747.3343,706.4232 720.4756,706.4577 693.6074,706.4922 693.6074,693.9767 720.4756,693.9444 720.4756,681.431 693.6074,681.461 693.6074,668.9454 720.4756,668.9175 747.3343,668.8897 747.3343,681.4009 774.1835,681.3709 774.1835,668.8619 774.1835,656.353 747.3343,656.3786 747.3343,643.8674 774.1835,643.844 774.1835,631.3351 774.1835,618.8261 747.3343,618.8451 747.3343,631.3562 720.4756,631.3774 720.4756,618.864 693.6074,618.8829 693.6074,631.3986 693.6074,643.9142 720.4756,643.8908 720.4756,656.4042 693.6074,656.4298 666.7295,656.4554 639.8422,656.481 639.8422,643.9609 666.7295,643.9376 666.7295,631.4197 666.7295,618.9019 639.8422,618.9208 639.8422,631.4409 612.9451,631.4621 612.9451,618.9398 586.0386,618.9587 586.0386,631.4832 586.0386,644.0078 612.9451,643.9843 612.9451,656.5067 586.0386,656.5323 586.0386,669.0569 586.0386,681.5814 612.9451,681.5513 612.9451,669.029 639.8422,669.0011 666.7295,668.9733 666.7295,681.4911 639.8422,681.5212 639.8422,694.0413 666.7295,694.009 666.7295,706.5268 639.8422,706.5613 612.9451,706.5959 612.9451,694.0736 586.0386,694.1059 586.0386,706.6305 1415.7103,705.5646 1415.7103,693.1088 1389.0889,693.1408 1389.0889,705.5988 1362.4581,705.633 1335.8177,705.6672 1335.8177,693.2048 1362.4581,693.1728 1362.4581,680.7126 1335.8177,680.7424 1335.8177,668.28 1362.458,668.2524 1389.0889,668.2248 1389.0889,680.6828 1415.7103,680.653 1415.7103,668.1972 1415.7103,655.7415 1389.0889,655.7668 1389.0889,643.3088 1415.7103,643.2857 1415.7103,630.8299 1415.7102,618.3741 1389.0889,618.3929 1389.0889,630.8509 1362.458,630.8718 1362.458,618.4116 1335.8177,618.4304 1335.8177,630.8928 1335.8177,643.3552 1362.458,643.332 1362.458,655.7922 1335.8177,655.8176 1309.1681,655.843 1282.5089,655.8684 1282.5089,643.4016 1309.1681,643.3784 1309.1681,630.9138 1309.1681,618.4492 1282.5089,618.468 1282.5089,630.9348 1255.8403,630.9558 1255.8403,618.4868 1229.1624,618.5056 1229.1624,630.9768 1229.1624,643.448 1255.8403,643.4248 1255.8403,655.8938 1229.1624,655.9193 1229.1624,668.3905 1229.1624,680.8618 1255.8403,680.8319 1255.8403,668.3629 1282.5089,668.3352 1309.1681,668.3076 1309.1681,680.7722 1282.5089,680.802 1282.5089,693.2689 1309.1681,693.2368 1309.1681,705.7014 1282.5089,705.7357 1255.8403,705.77 1255.8403,693.3009 1229.1624,693.333 1229.1624,705.8042 1202.4749,705.8385 1175.7778,705.8728 1175.7778,693.3972 1202.4749,693.3651 1202.4749,680.8916 1202.4749,668.4182 1175.7778,668.4458 1175.7778,680.9215 1149.0713,680.9514 1149.0713,668.4735 1122.3555,668.5012 1122.3555,680.9813 1122.3555,693.4614 1149.0713,693.4293 1149.0713,705.9071 1122.3555,705.9414 1095.63,705.9758 1095.63,693.4935 1068.895,693.5256 1068.895,706.0101 1042.1506,706.0445 1015.3968,706.0788 1015.3968,693.5899 1042.1506,693.5577 1042.1506,681.071 1015.3968,681.101 1015.3968,668.612 1042.1506,668.5843 1068.895,668.5566 1068.895,681.0411 1095.63,681.0112 1095.63,668.5289 1095.63,656.0465 1095.63,643.5642 1068.895,643.5875 1068.895,656.072 1042.1506,656.0975 1015.3968,656.123 1015.3968,643.6341 1042.1506,643.6108 1042.1506,631.1241 1015.3968,631.1451 1015.3968,618.6562 1042.1506,618.6373 1068.895,618.6185 1068.895,631.103 1095.63,631.0819 1095.63,618.5996 1122.3555,618.5808 1149.0713,618.562 1149.0713,631.0399 1122.3555,631.0609 1122.3555,643.541 1122.3555,656.0211 1149.0713,655.9956 1149.0713,643.5177 1175.7778,643.4945 1175.7778,655.9702 1202.4747,655.9447 1202.4747,643.4713 1202.4747,630.9978 1175.7778,631.0188 1175.7778,618.5432 1202.4747,618.5244 1202.4747,606.0509 1175.7778,606.0675 1175.7778,593.5919 1202.4747,593.5775 1202.4747,581.104 1202.4747,568.6306 1175.7778,568.6405 1175.7778,581.1162 1149.0713,581.1284 1149.0713,568.6505 1122.3553,568.6605 1122.3553,581.1405 1122.3553,593.6206 1149.0713,593.6062 1149.0713,606.0841 1122.3553,606.1007 1095.6299,606.1173 1095.6299,593.635 1068.895,593.6494 1068.895,606.134 1042.1506,606.1506 1015.3967,606.1672 1015.3967,593.6783 1042.1506,593.6638 1042.1506,581.1771 1015.3967,581.1893 1015.3967,568.7003 1042.1506,568.6904 1068.895,568.6804 1068.895,581.1649 1095.6299,581.1527 1095.6299,568.6704 1095.6299,556.1881 1095.6299,543.7058 1068.895,543.7114 1068.895,556.1959 1042.1506,556.2036 1015.3967,556.2114 1015.3967,543.7224 1042.1506,543.7169 1042.1506,531.2302 1015.3967,531.2335 1015.3967,518.7445 1042.1506,518.7434 1068.895,518.7423 1068.895,531.2268 1095.6299,531.2235 1095.6299,518.7412 1122.3553,518.7401 1149.0713,518.739 1149.0713,531.2169 1122.3553,531.2202 1122.3553,543.7003 1122.3553,556.1804 1149.0713,556.1726 1149.0713,543.6947 1175.7777,543.6892 1175.7778,556.1649 1202.4747,556.1571 1202.4747,543.6837 1202.4747,531.2102 1175.7777,531.2135 1175.7777,518.7379 1202.4747,518.7368 1229.1622,518.7357 1229.1622,531.2069 1255.8403,531.2036 1255.8403,518.7346 1282.5089,518.7334 1309.1681,518.7323 1309.1681,531.1969 1282.5089,531.2003 1282.5089,543.6671 1309.1681,543.6615 1309.1681,556.1261 1282.5089,556.1339 1255.8403,556.1416 1255.8403,543.6726 1229.1622,543.6781 1229.1624,556.1494 1229.1624,568.6206 1255.8403,568.6107 1255.8403,581.0797 1229.1624,581.0918 1229.1624,593.5631 1229.1624,606.0343 1255.8403,606.0177 1255.8403,593.5487 1282.5089,593.5343 1282.5089,606.0012 1309.1681,605.9846 1309.1681,593.52 1309.1681,581.0554 1282.5089,581.0675 1282.5089,568.6007 1309.1681,568.5908 1335.8177,568.5808 1362.458,568.5709 1362.458,581.0311 1335.8177,581.0432 1335.8177,593.5056 1335.8177,605.968 1362.458,605.9514 1362.458,593.4912 1389.0889,593.4769 1389.0889,605.9349 1415.7102,605.9183 1415.7102,593.4626 1415.7102,581.0068 1389.0889,581.0189 1389.0889,568.5609 1415.7102,568.551 1415.7102,556.0952 1415.7102,543.6394 1389.0889,543.645 1389.0889,556.1029 1362.458,556.1107 1335.8177,556.1184 1335.8177,543.656 1362.458,543.6505 1362.458,531.1903 1335.8177,531.1936 1335.8177,518.7312 1362.458,518.7301 1389.0889,518.729 1389.0889,531.187 1415.7102,531.1837 1415.7102,518.7279 1415.7102,506.2721 1389.0889,506.271 1389.0889,493.813 1415.7102,493.8163 1415.7102,481.3605 1415.7102,468.9048 1389.0889,468.897 1389.0889,481.355 1362.458,481.3495 1362.458,468.8893 1335.8177,468.8816 1335.8177,481.344 1335.8177,493.8064 1362.458,493.8098 1362.458,506.2699 1335.8177,506.2688 1309.1681,506.2677 1309.1681,493.8031 1282.5089,493.7998 1282.5089,506.2666 1255.8403,506.2655 1229.1622,506.2644 1229.1622,493.7932 1255.8403,493.7965 1255.8403,481.3275 1229.1622,481.322 1229.1622,468.8507 1255.8403,468.8585 1282.5089,468.8661 1282.5089,481.3329 1309.1681,481.3385 1309.1681,468.8739 1309.1681,456.4093 1309.1681,443.9446 1282.5089,443.9325 1282.5089,456.3994 1255.8403,456.3894 1229.1622,456.3795 1229.1622,443.9082 1255.8403,443.9204 1255.8403,431.4514 1229.1622,431.437 1229.1622,418.9658 1255.8403,418.9824 1282.5089,418.9989 1282.5089,431.4657 1309.1681,431.48 1309.1681,419.0155 1335.8177,419.032 1362.458,419.0486 1362.458,431.5088 1335.8177,431.4944 1335.8177,443.9568 1335.8177,456.4193 1362.458,456.4291 1362.458,443.9689 1389.0889,443.9811 1389.0889,456.4391 1415.7102,456.449 1415.7102,443.9932 1415.7102,431.5374 1389.0889,431.5231 1389.0889,419.0651 1415.7102,419.0817 1415.7102,406.6259 1415.7102,394.1701 1389.0889,394.1491 1389.0889,406.6071 1362.458,406.5884 1335.8177,406.5696 1335.8177,394.1072 1362.458,394.1282 1362.458,381.668 1335.8177,381.6448 1335.8177,369.1824 1362.458,369.2078 1389.0889,369.2332 1389.0889,381.6912 1415.7102,381.7144 1415.7102,369.2585 1415.7102,356.8028 1389.0889,356.7752 1389.0889,344.3172 1415.7102,344.347 1415.7102,331.8912 1415.7102,319.4354 1389.0889,319.4012 1389.0889,331.8592 1362.458,331.8272 1362.458,319.3671 1335.8177,319.3328 1335.8177,331.7952 1335.8177,344.2576 1362.458,344.2874 1362.458,356.7476 1335.8177,356.72 1309.1681,356.6924 1282.5089,356.6649 1282.5089,344.198 1309.1681,344.2278 1309.1681,331.7632 1309.168,319.2986 1282.5089,319.2644 1282.5089,331.7312 1255.8403,331.6991 1255.8403,319.2301 1229.1622,319.1959 1229.1622,331.6671 1229.1622,344.1383 1255.8403,344.1682 1255.8403,356.6372 1229.1622,356.6096 1229.1622,369.0808 1229.1622,381.5521 1255.8403,381.5753 1255.8403,369.1062 1282.5089,369.1317 1309.1681,369.157 1309.1681,381.6216 1282.5089,381.5984 1282.5089,394.0652 1309.1681,394.0862 1309.1681,406.5508 1282.5089,406.5321 1255.8403,406.5133 1255.8403,394.0443 1229.1622,394.0233 1229.1622,406.4945 1202.4747,406.4757 1202.4747,394.0023 1175.7777,393.9812 1175.7777,406.4569 1149.0713,406.4381 1122.3553,406.4193 1122.3553,393.9391 1149.0713,393.9602 1149.0713,381.4824 1122.3553,381.4591 1122.3553,368.979 1149.0713,369.0045 1175.7777,369.0299 1175.7777,381.5056 1202.4747,381.5288 1202.4747,369.0554 1202.4747,356.5819 1175.7777,356.5543 1175.7777,344.0786 1202.4747,344.1085 1202.4747,331.635 1202.4747,319.1616 1175.7777,319.1273 1175.7777,331.6029 1149.0713,331.5708 1149.0713,319.093 1122.3553,319.0587 1122.3553,331.5387 1122.3553,344.0188 1149.0713,344.0487 1149.0713,356.5266 1122.3553,356.4989 1095.6299,356.4713 1068.895,356.4436 1068.895,343.959 1095.6299,343.989 1095.6299,331.5067 1095.6299,319.0244 1068.895,318.99 1068.895,331.4745 1042.1506,331.4424 1042.1506,318.9556 1015.3967,318.9213 1015.3967,331.4102 1015.3967,343.8992 1042.1506,343.9291 1042.1506,356.4159 1015.3967,356.3882 1015.3967,368.8771 1015.3967,381.3661 1042.1506,381.3893 1042.1506,368.9026 1068.895,368.9281 1095.6299,368.9536 1095.6299,381.4359 1068.895,381.4126 1068.895,393.8971 1095.6299,393.9182 1095.6299,406.4005 1068.895,406.3817 1042.1506,406.3628 1042.1506,393.876 1015.3967,393.855 1015.3967,406.344 1015.3967,418.8329 1042.1506,418.8495 1042.1506,431.3362 1015.3967,431.3218 1015.3967,443.8108 1015.3967,456.2998 1042.1506,456.3098 1042.1506,443.823 1068.895,443.8352 1068.895,456.3197 1095.6299,456.3297 1095.6299,443.8474 1095.6299,431.3651 1068.895,431.3506 1068.895,418.8662 1095.6299,418.8828 1122.3553,418.8994 1122.3553,431.3795 1149.0713,431.3939 1149.0713,418.916 1175.7777,418.9326 1202.4747,418.9492 1202.4747,431.4226 1175.7777,431.4082 1175.7777,443.8839 1202.4747,443.8961 1202.4747,456.3695 1175.7777,456.3596 1149.0713,456.3496 1149.0713,443.8717 1122.3553,443.8596 1122.3553,456.3397 1122.3553,468.8198 1122.3553,481.2998 1149.0713,481.3054 1149.0713,468.8275 1175.7777,468.8352 1202.4747,468.843 1202.4747,481.3164 1175.7777,481.3109 1175.7777,493.7866 1202.4747,493.7899 1202.4747,506.2633 1175.7777,506.2622 1149.0713,506.2611 1149.0713,493.7833 1122.3553,493.7799 1122.3553,506.26 1095.6299,506.2589 1068.895,506.2578 1068.895,493.7733 1095.6299,493.7766 1095.6299,481.2943 1095.6299,468.812 1068.895,468.8043 1068.895,481.2888 1042.1506,481.2832 1042.1506,468.7965 1015.3967,468.7888 1015.3967,481.2777 1015.3967,493.7667 1042.1506,493.77 1042.1506,506.2567 1015.3967,506.2556 988.6334,506.2545 961.8604,506.2534 961.8604,493.7599 988.6334,493.7633 988.6334,481.2722 988.6334,468.7809 961.8604,468.7732 961.8604,481.2666 935.078,481.261 935.078,468.7654 908.2861,468.7577 908.2861,481.2555 908.2861,493.7534 935.078,493.7567 935.078,506.2523 908.2861,506.2512 881.4846,506.2501 881.4846,493.75 854.6736,493.7467 854.6736,506.249 827.8531,506.2479 801.0231,506.2468 801.023,493.74 827.8531,493.7433 827.8531,481.2389 801.023,481.2333 801.023,468.7266 827.8531,468.7344 854.6736,468.7421 854.6736,481.2444 881.4846,481.2499 881.4846,468.7499 881.4846,456.2499 881.4846,443.7498 854.6736,443.7376 854.6736,456.2399 827.8531,456.2299 801.023,456.2198 801.023,443.7131 827.8531,443.7253 827.8531,431.2209 801.023,431.2064 801.023,418.6997 827.8531,418.7164 854.6736,418.733 854.6736,431.2353 881.4846,431.2498 881.4846,418.7498 908.2861,418.7664 935.078,418.783 935.078,431.2786 908.2861,431.2642 908.2861,443.762 908.2861,456.2598 935.078,456.2698 935.078,443.7742 961.8604,443.7864 961.8604,456.2798 988.6334,456.2898 988.6334,443.7986 988.6334,431.3074 961.8604,431.293 961.8604,418.7997 988.6334,418.8163 988.6334,406.3251 988.6333,393.8339 961.8604,393.8129 961.8604,406.3063 935.078,406.2874 908.2861,406.2685 908.2861,393.7707 935.078,393.7917 935.078,381.2961 908.2861,381.2728 908.2861,368.775 935.078,368.8005 961.8604,368.826 961.8604,381.3195 988.6333,381.3428 988.6333,368.8516 988.6333,356.3604 961.8604,356.3327 961.8604,343.8393 988.6333,343.8693 988.6333,331.3781 988.6333,318.8869 961.8604,318.8525 961.8604,331.3459 935.078,331.3137 935.078,318.8181 908.2861,318.7837 908.2861,331.2815 908.2861,343.7794 935.078,343.8093 935.078,356.3049 908.2861,356.2772 881.4846,356.2495 854.6736,356.2217 854.6736,343.7194 881.4846,343.7494 881.4846,331.2493 881.4846,318.7493 854.6736,318.7148 854.6736,331.2171 827.8531,331.1849 827.8531,318.6804 801.023,318.6459 801.023,331.1526 801.023,343.6594 827.8531,343.6894 827.8531,356.1939 801.023,356.1661 801.023,368.6728 801.023,381.1796 827.8531,381.2029 827.8531,368.6984 854.6736,368.7239 881.4846,368.7495 881.4846,381.2496 854.6736,381.2263 854.6736,393.7285 881.4846,393.7496 881.4846,406.2496 854.6736,406.2308 827.8531,406.2119 827.8531,393.7074 801.023,393.6863 801.023,406.193 774.1834,406.1741 774.1834,393.6651 747.3342,393.644 747.3342,406.1552 720.4755,406.1362 693.6072,406.1174 693.6072,393.6017 720.4755,393.6229 720.4755,381.1094 693.6072,381.0861 693.6072,368.5705 720.4755,368.5961 747.3342,368.6216 747.3342,381.1328 774.1834,381.1562 774.1834,368.6472 774.1834,356.1383 747.3342,356.1105 747.3342,343.5993 774.1834,343.6293 774.1834,331.1204 774.1834,318.6115 747.3342,318.577 747.3342,331.0881 720.4755,331.0558 720.4755,318.5425 693.6072,318.508 693.6072,331.0236 693.6072,343.5392 720.4755,343.5693 720.4755,356.0826 693.6072,356.0549 666.7294,356.027 639.842,355.9992 639.842,343.4791 666.7294,343.5092 666.7294,330.9913 666.7294,318.4734 639.842,318.4389 639.842,330.959 612.9451,330.9266 612.9451,318.4044 586.0385,318.3698 586.0385,330.8943 586.0385,343.4189 612.9451,343.449 612.9451,355.9713 586.0385,355.9434 586.0385,368.468 586.0385,380.9925 612.9451,381.0159 612.9451,368.4936 639.842,368.5192 666.7294,368.5449 666.7294,381.0627 639.842,381.0393 639.842,393.5594 666.7294,393.5806 666.7294,406.0984 639.842,406.0795 612.9451,406.0605 612.9451,393.5382 586.0385,393.517 586.0385,406.0416 586.0385,418.5661 612.9451,418.5828 612.9451,431.1052 586.0385,431.0906 586.0385,443.6152 586.0385,456.1397 612.9451,456.1498 612.9451,443.6274 639.842,443.6397 639.842,456.1598 666.7294,456.1698 666.7294,443.6519 666.7294,431.1341 639.842,431.1196 639.842,418.5995 666.7294,418.6163 693.6072,418.633 693.6072,431.1486 720.4755,431.163 720.4755,418.6497 747.3342,418.6663 774.1834,418.683 774.1834,431.192 747.3342,431.1775 747.3342,443.6887 774.1834,443.7009 774.1834,456.2098 747.3342,456.1998 720.4755,456.1898 720.4755,443.6765 693.6072,443.6642 693.6072,456.1798 693.6072,468.6954 693.6072,481.2111 720.4755,481.2166 720.4755,468.7032 747.3342,468.711 774.1834,468.7188 774.1834,481.2277 747.3342,481.2222 747.3342,493.7333 774.1834,493.7367 774.1835,506.2456 747.3343,506.2445 720.4756,506.2434 720.4755,493.73 693.6072,493.7267 693.6074,506.2423 666.7295,506.2412 639.8422,506.2401 639.842,493.72 666.7294,493.7233 666.7294,481.2055 666.7294,468.6876 639.842,468.6799 639.842,481.2 612.9451,481.1944 612.9451,468.6721 586.0385,468.6642 586.0385,481.1888 586.0385,493.7133 612.9451,493.7167 612.9451,506.239 586.0386,506.2379 586.0386,518.7624 586.0386,531.287 612.9451,531.2836 612.9451,518.7613 639.8422,518.7602 666.7295,518.7591 666.7295,531.2769 639.8422,531.2802 639.8422,543.8003 666.7295,543.7947 666.7295,556.3126 639.8422,556.3204 612.9451,556.3282 612.9451,543.8059 586.0386,543.8115 586.0386,556.336 586.0386,568.8605 612.9451,568.8505 612.9451,581.3728 586.0386,581.3851 586.0386,593.9096  z" stroke="rgb(176,166,227)" fill="none" />

</g>  <!-- end Sv_0.002 -->

</g>

</svg>

