<svg xmlns="http://www.w3.org/2000/svg" xmlns:inkscape="http://www.inkscape.org/namespaces/inkscape" xmlns:xlink="http://www.w3.org/1999/xlink" width="1920px" height="1080px">

<g inkscape:groupmode="layer" id="Sat Oct  2 11:05:11 2021">

<g id="Icosphere">  <!-- start Icosphere -->

<g id="caras_bordes.Icosphere" stroke-width="1.0px" stroke-linejoin="miter" stroke-linecap="round">
  <polygon stroke="rgb(1,0,1)" fill="rgb(1,0,1)" points="778.8041,1063.9644 967.9042,1071.1521 854.666,1066.111 " opacity="0.9" />
  <polygon stroke="rgb(5,1,4)" fill="rgb(5,1,4)" points="1149.6327,493.1737 1007.9806,418.0918 956.955,395.8097 " opacity="0.9" />
  <polygon stroke="rgb(17,2,14)" fill="rgb(17,2,14)" points="1129.5867,979.6045 1226.2057,846.9991 1089.8137,1009.1201 " opacity="0.9" />
  <polygon stroke="rgb(25,3,21)" fill="rgb(25,3,21)" points="652.9161,483.9011 559.0073,608.3018 718.6875,439.2686 " opacity="0.9" />
  <polygon stroke="rgb(25,3,21)" fill="rgb(25,3,21)" points="956.955,395.8097 822.4742,400.3285 718.6875,439.2686 " opacity="0.9" />
  <polygon stroke="rgb(37,5,32)" fill="rgb(37,5,32)" points="778.8041,1063.9644 854.666,1066.111 640.126,981.836 " opacity="0.9" />
  <polygon stroke="rgb(23,3,20)" fill="rgb(23,3,20)" points="548.9241,809.5574 568.5952,798.7173 559.0073,608.3018 " opacity="0.9" />
  <polygon stroke="rgb(26,3,22)" fill="rgb(26,3,22)" points="548.9241,809.5574 640.126,981.836 568.5952,798.7173 " opacity="0.9" />
  <polygon stroke="rgb(41,5,35)" fill="rgb(41,5,35)" points="854.666,1066.111 967.9042,1071.1521 1089.8137,1009.1201 " opacity="0.9" />
  <polygon stroke="rgb(81,10,69)" fill="rgb(81,10,69)" points="1093.1838,549.8985 1149.6327,493.1737 956.955,395.8097 " opacity="0.9" />
  <polygon stroke="rgb(81,10,69)" fill="rgb(81,10,69)" points="1225.4923,659.3472 1149.6327,493.1737 1093.1838,549.8985 " opacity="0.9" />
  <polygon stroke="rgb(87,11,74)" fill="rgb(87,11,74)" points="1226.2057,846.9991 1225.4923,659.3472 1148.3354,804.6424 " opacity="0.9" />
  <polygon stroke="rgb(92,12,78)" fill="rgb(92,12,78)" points="1089.8137,1009.1201 1226.2057,846.9991 1148.3354,804.6424 " opacity="0.9" />
  <polygon stroke="rgb(105,13,89)" fill="rgb(105,13,89)" points="718.6875,439.2686 559.0073,608.3018 672.2874,633.751 " opacity="0.9" />
  <polygon stroke="rgb(112,14,95)" fill="rgb(112,14,95)" points="559.0073,608.3018 568.5952,798.7173 672.2874,633.751 " opacity="0.9" />
  <polygon stroke="rgb(116,15,98)" fill="rgb(116,15,98)" points="640.126,981.836 854.666,1066.111 729.7565,898.5546 " opacity="0.9" />
  <polygon stroke="rgb(107,14,91)" fill="rgb(107,14,91)" points="956.955,395.8097 718.6875,439.2686 867.735,496.0245 " opacity="0.9" />
  <polygon stroke="rgb(118,15,100)" fill="rgb(118,15,100)" points="640.126,981.836 729.7565,898.5546 568.5952,798.7173 " opacity="0.9" />
  <polygon stroke="rgb(123,15,104)" fill="rgb(123,15,104)" points="854.666,1066.111 1089.8137,1009.1201 964.7562,943.6335 " opacity="0.9" />
  <polygon stroke="rgb(150,19,127)" fill="rgb(150,19,127)" points="1148.3354,804.6424 1225.4923,659.3472 1093.1838,549.8985 " opacity="0.9" />
  <polygon stroke="rgb(143,18,121)" fill="rgb(143,18,121)" points="1093.1838,549.8985 956.955,395.8097 867.735,496.0245 " opacity="0.9" />
  <polygon stroke="rgb(155,20,132)" fill="rgb(155,20,132)" points="1089.8137,1009.1201 1148.3354,804.6424 964.7562,943.6335 " opacity="0.9" />
  <polygon stroke="rgb(157,20,133)" fill="rgb(157,20,133)" points="718.6875,439.2686 672.2874,633.751 867.735,496.0245 " opacity="0.9" />
  <polygon stroke="rgb(170,21,144)" fill="rgb(170,21,144)" points="854.666,1066.111 964.7562,943.6335 729.7565,898.5546 " opacity="0.9" />
  <polygon stroke="rgb(179,23,152)" fill="rgb(179,23,152)" points="568.5952,798.7173 729.7565,898.5546 672.2874,633.751 " opacity="0.9" />
  <polygon stroke="rgb(217,27,184)" fill="rgb(217,27,184)" points="921.1793,716.1495 1148.3354,804.6424 1093.1838,549.8985 " opacity="0.9" />
  <polygon stroke="rgb(221,28,188)" fill="rgb(221,28,188)" points="921.1793,716.1495 1093.1838,549.8985 867.735,496.0245 " opacity="0.9" />
  <polygon stroke="rgb(228,29,193)" fill="rgb(228,29,193)" points="964.7562,943.6335 1148.3354,804.6424 921.1793,716.1495 " opacity="0.9" />
  <polygon stroke="rgb(231,29,196)" fill="rgb(231,29,196)" points="672.2874,633.751 921.1793,716.1495 867.735,496.0245 " opacity="0.9" />
  <polygon stroke="rgb(236,30,200)" fill="rgb(236,30,200)" points="672.2874,633.751 729.7565,898.5546 921.1793,716.1495 " opacity="0.9" />
  <polygon stroke="rgb(238,30,202)" fill="rgb(238,30,202)" points="729.7565,898.5546 964.7562,943.6335 921.1793,716.1495 " opacity="0.9" />
</g>

</g>  <!-- end Icosphere -->

</g>

</svg>

