<?xml version="1.0" encoding="UTF-8" standalone="no"?>
<svg
   xmlns:dc="http://purl.org/dc/elements/1.1/"
   xmlns:cc="http://creativecommons.org/ns#"
   xmlns:rdf="http://www.w3.org/1999/02/22-rdf-syntax-ns#"
   xmlns:svg="http://www.w3.org/2000/svg"
   xmlns="http://www.w3.org/2000/svg"
   xmlns:sodipodi="http://sodipodi.sourceforge.net/DTD/sodipodi-0.dtd"
   xmlns:inkscape="http://www.inkscape.org/namespaces/inkscape"
   sodipodi:docname="spiro_clay.svg"
   inkscape:version="1.0 (4035a4f, 2020-05-01)"
   id="svg59"
   version="1.1"
   viewBox="0 0 210 297"
   height="200mm"
   width="300mm">
  <defs
     id="defs53" />
  <sodipodi:namedview
     inkscape:window-maximized="0"
     inkscape:window-y="28"
     inkscape:window-x="0"
     inkscape:window-height="872"
     inkscape:window-width="1440"
     showgrid="false"
     inkscape:document-rotation="0"
     inkscape:current-layer="layer1"
     inkscape:document-units="mm"
     inkscape:cy="560"
     inkscape:cx="317.14286"
     inkscape:zoom="0.35"
     inkscape:pageshadow="2"
     inkscape:pageopacity="0.0"
     borderopacity="1.0"
     bordercolor="#666666"
     pagecolor="#ffffff"
     id="base" />
  <metadata
     id="metadata56">
    <rdf:RDF>
      <cc:Work
         rdf:about="">
        <dc:format>image/svg+xml</dc:format>
        <dc:type
           rdf:resource="http://purl.org/dc/dcmitype/StillImage" />
        <dc:title></dc:title>
      </cc:Work>
    </rdf:RDF>
  </metadata>
  <g
     id="layer1"
     inkscape:groupmode="layer"
     inkscape:label="Layer 1">
    <polyline
       transform="matrix(10.097461,0,0,6.3976978,-904.74611,-874.90882)"
       points="100.000,180.000 99.903,179.944 99.809,179.777 99.724,179.499 99.650,179.113 99.591,178.622 99.551,178.028 99.533,177.337 99.541,176.553 99.577,175.682 99.643,174.730 99.744,173.704 99.880,172.611 100.053,171.460 100.266,170.257 100.518,169.012 100.811,167.733 101.145,166.430 101.520,165.111 101.936,163.786 102.391,162.464 102.885,161.155 103.417,159.866 103.983,158.607 104.582,157.387 105.211,156.214 105.868,155.095 106.548,154.037 107.249,153.048 107.967,152.134 108.697,151.301 109.435,150.553 110.177,149.895 110.918,149.330 111.654,148.861 112.380,148.491 113.091,148.221 113.782,148.050 114.449,147.980 115.086,148.008 115.690,148.133 116.256,148.353 116.780,148.664 117.257,149.062 117.685,149.542 118.058,150.100 118.375,150.729 118.632,151.422 118.827,152.174 118.957,152.975 119.021,153.820 119.017,154.699 118.945,155.604 118.803,156.527 118.592,157.459 118.311,158.391 117.962,159.315 117.546,160.223 117.064,161.106 116.518,161.955 115.911,162.763 115.245,163.522 114.523,164.226 113.749,164.867 112.926,165.440 112.060,165.939 111.153,166.359 110.211,166.696 109.237,166.946 108.239,167.107 107.219,167.176 106.184,167.152 105.138,167.034 104.087,166.823 103.036,166.520 101.991,166.126 100.955,165.645 99.936,165.078 98.936,164.430 97.962,163.707 97.016,162.912 96.105,162.052 95.230,161.134 94.397,160.165 93.608,159.151 92.867,158.101 92.175,157.023 91.536,155.926 90.950,154.818 90.420,153.707 89.946,152.604 89.530,151.516 89.170,150.453 88.867,149.423 88.621,148.435 88.430,147.497 88.293,146.617 88.208,145.802 88.174,145.060 88.187,144.397 88.244,143.820 88.344,143.332 88.482,142.940 88.655,142.648 88.860,142.458 89.092,142.373 89.348,142.395 89.623,142.525 89.913,142.763 90.215,143.110 90.523,143.562 90.834,144.119 91.144,144.777 91.449,145.532 91.745,146.381 92.029,147.318 92.296,148.337 92.545,149.432 92.771,150.596 92.973,151.821 93.147,153.101 93.293,154.425 93.408,155.786 93.491,157.175 93.541,158.583 93.558,160.000 93.541,161.417 93.491,162.825 93.408,164.214 93.293,165.575 93.147,166.899 92.973,168.179 92.771,169.404 92.545,170.568 92.296,171.663 92.029,172.682 91.745,173.619 91.449,174.468 91.144,175.223 90.834,175.881 90.523,176.438 90.215,176.890 89.913,177.237 89.623,177.475 89.348,177.605 89.092,177.627 88.860,177.542 88.655,177.352 88.482,177.060 88.344,176.668 88.244,176.180 88.187,175.603 88.174,174.940 88.208,174.198 88.293,173.383 88.430,172.503 88.621,171.565 88.867,170.577 89.170,169.547 89.530,168.484 89.946,167.396 90.420,166.293 90.950,165.182 91.536,164.074 92.175,162.977 92.867,161.899 93.608,160.849 94.397,159.835 95.230,158.866 96.105,157.948 97.016,157.088 97.962,156.293 98.936,155.570 99.936,154.922 100.955,154.355 101.991,153.874 103.036,153.480 104.087,153.177 105.138,152.966 106.184,152.848 107.219,152.824 108.239,152.893 109.237,153.054 110.211,153.304 111.153,153.641 112.060,154.061 112.926,154.560 113.749,155.133 114.523,155.774 115.245,156.478 115.911,157.237 116.518,158.045 117.064,158.894 117.546,159.777 117.962,160.685 118.311,161.609 118.592,162.541 118.803,163.473 118.945,164.396 119.017,165.301 119.021,166.180 118.957,167.025 118.827,167.826 118.632,168.578 118.375,169.271 118.058,169.900 117.685,170.458 117.257,170.938 116.780,171.336 116.256,171.647 115.690,171.867 115.086,171.992 114.449,172.020 113.782,171.950 113.091,171.779 112.380,171.509 111.654,171.139 110.918,170.670 110.177,170.105 109.435,169.447 108.697,168.699 107.967,167.866 107.249,166.952 106.548,165.963 105.868,164.905 105.211,163.786 104.582,162.613 103.983,161.393 103.417,160.134 102.885,158.845 102.391,157.536 101.936,156.214 101.520,154.889 101.145,153.570 100.811,152.267 100.518,150.988 100.266,149.743 100.053,148.540 99.880,147.389 99.744,146.296 99.643,145.270 99.577,144.318 99.541,143.447 99.533,142.663 99.551,141.972 99.591,141.378 99.650,140.887 99.724,140.501 99.809,140.223 99.903,140.056 100.000,140.000 100.097,140.056 100.191,140.223 100.276,140.501 100.350,140.887 100.409,141.378 100.449,141.972 100.467,142.663 100.459,143.447 100.423,144.318 100.357,145.270 100.256,146.296 100.120,147.389 99.947,148.540 99.734,149.743 99.482,150.988 99.189,152.267 98.855,153.570 98.480,154.889 98.064,156.214 97.609,157.536 97.115,158.845 96.583,160.134 96.017,161.393 95.418,162.613 94.789,163.786 94.132,164.905 93.452,165.963 92.751,166.952 92.033,167.866 91.303,168.699 90.565,169.447 89.823,170.105 89.082,170.670 88.346,171.139 87.620,171.509 86.909,171.779 86.218,171.950 85.551,172.020 84.914,171.992 84.310,171.867 83.744,171.647 83.220,171.336 82.743,170.938 82.315,170.458 81.942,169.900 81.625,169.271 81.368,168.578 81.173,167.826 81.043,167.025 80.979,166.180 80.983,165.301 81.055,164.396 81.197,163.473 81.408,162.541 81.689,161.609 82.038,160.685 82.454,159.777 82.936,158.894 83.482,158.045 84.089,157.237 84.755,156.478 85.477,155.774 86.251,155.133 87.074,154.560 87.940,154.061 88.847,153.641 89.789,153.304 90.763,153.054 91.761,152.893 92.781,152.824 93.816,152.848 94.862,152.966 95.913,153.177 96.964,153.480 98.009,153.874 99.045,154.355 100.064,154.922 101.064,155.570 102.038,156.293 102.984,157.088 103.895,157.948 104.770,158.866 105.603,159.835 106.392,160.849 107.133,161.899 107.825,162.977 108.464,164.074 109.050,165.182 109.580,166.293 110.054,167.396 110.470,168.484 110.830,169.547 111.133,170.577 111.379,171.565 111.570,172.503 111.707,173.383 111.792,174.198 111.826,174.940 111.813,175.603 111.756,176.180 111.656,176.668 111.518,177.060 111.345,177.352 111.140,177.542 110.908,177.627 110.652,177.605 110.377,177.475 110.087,177.237 109.785,176.890 109.477,176.438 109.166,175.881 108.856,175.223 108.551,174.468 108.255,173.619 107.971,172.682 107.704,171.663 107.455,170.568 107.229,169.404 107.027,168.179 106.853,166.899 106.707,165.575 106.592,164.214 106.509,162.825 106.459,161.417 106.442,160.000 106.459,158.583 106.509,157.175 106.592,155.786 106.707,154.425 106.853,153.101 107.027,151.821 107.229,150.596 107.455,149.432 107.704,148.337 107.971,147.318 108.255,146.381 108.551,145.532 108.856,144.777 109.166,144.119 109.477,143.562 109.785,143.110 110.087,142.763 110.377,142.525 110.652,142.395 110.908,142.373 111.140,142.458 111.345,142.648 111.518,142.940 111.656,143.332 111.756,143.820 111.813,144.397 111.826,145.060 111.792,145.802 111.707,146.617 111.570,147.497 111.379,148.435 111.133,149.423 110.830,150.453 110.470,151.516 110.054,152.604 109.580,153.707 109.050,154.818 108.464,155.926 107.825,157.023 107.133,158.101 106.392,159.151 105.603,160.165 104.770,161.134 103.895,162.052 102.984,162.912 102.038,163.707 101.064,164.430 100.064,165.078 99.045,165.645 98.009,166.126 96.964,166.520 95.913,166.823 94.862,167.034 93.816,167.152 92.781,167.176 91.761,167.107 90.763,166.946 89.789,166.696 88.847,166.359 87.940,165.939 87.074,165.440 86.251,164.867 85.477,164.226 84.755,163.522 84.089,162.763 83.482,161.955 82.936,161.106 82.454,160.223 82.038,159.315 81.689,158.391 81.408,157.459 81.197,156.527 81.055,155.604 80.983,154.699 80.979,153.820 81.043,152.975 81.173,152.174 81.368,151.422 81.625,150.729 81.942,150.100 82.315,149.542 82.743,149.062 83.220,148.664 83.744,148.353 84.310,148.133 84.914,148.008 85.551,147.980 86.218,148.050 86.909,148.221 87.620,148.491 88.346,148.861 89.082,149.330 89.823,149.895 90.565,150.553 91.303,151.301 92.033,152.134 92.751,153.048 93.452,154.037 94.132,155.095 94.789,156.214 95.418,157.387 96.017,158.607 96.583,159.866 97.115,161.155 97.609,162.464 98.064,163.786 98.480,165.111 98.855,166.430 99.189,167.733 99.482,169.012 99.734,170.257 99.947,171.460 100.120,172.611 100.256,173.704 100.357,174.730 100.423,175.682 100.459,176.553 100.467,177.337 100.449,178.028 100.409,178.622 100.350,179.113 100.276,179.499 100.191,179.777 100.097,179.944 100.000,180.000 99.903,179.944"
       style="opacity:1;fill:none;stroke:#000000;stroke-width:0.1953"
       stroke-linecap="round"
       id="spiro" />
    <ellipse
       ry="147.4675"
       rx="221.7175"
       cy="148.5"
       cx="105"
       id="outline"
       style="fill:none;stroke:#1ab2de;stroke-width:2.06501;stroke-miterlimit:4;stroke-dasharray:none;stroke-opacity:1" />
  </g>
</svg>
