<svg xmlns="http://www.w3.org/2000/svg" xmlns:inkscape="http://www.inkscape.org/namespaces/inkscape" xmlns:xlink="http://www.w3.org/1999/xlink" width="1000px" height="1000px">

<g inkscape:groupmode="layer" id="Mon Oct 11 17:15:03 2021">

<g id="Teapot">  <!-- start Teapot -->

<g id="caras_bordes.Teapot" stroke-width="1.0px" stroke-linejoin="miter" stroke-linecap="round" stroke="rgb(26,178,222)">
  <polygon fill="rgb(222,41,204)" points="829.415,461.6225 823.6993,445.7096 818.808,448.1215 824.2184,463.5835 " opacity="0.9" />
  <polygon fill="rgb(222,41,204)" points="839.0532,478.9257 829.415,461.6225 824.2184,463.5835 833.3684,480.5885 " opacity="0.9" />
  <polygon fill="rgb(222,41,204)" points="823.6993,445.7096 821.6479,432.5542 816.8699,435.7417 818.808,448.1215 " opacity="0.9" />
  <polygon fill="rgb(222,41,204)" points="852.9194,496.3006 839.0532,478.9257 833.3684,480.5885 846.5684,497.6495 " opacity="0.9" />
  <polygon fill="rgb(222,41,204)" points="804.5058,474.4788 796.7962,455.3995 795.8466,455.0214 804.3657,475.3498 " opacity="0.9" />
  <polygon fill="rgb(222,41,204)" points="821.6479,432.5542 824.5467,423.928 819.7101,427.922 816.8699,435.7417 " opacity="0.9" />
  <polygon fill="rgb(222,41,204)" points="817.2204,494.2594 804.5058,474.4788 804.3657,475.3498 818.3481,496.0513 " opacity="0.9" />
  <polygon fill="rgb(222,41,204)" points="796.7962,455.3995 793.8814,437.5369 792.5964,435.1827 795.8466,455.0214 " opacity="0.9" />
  <polygon fill="rgb(222,41,204)" points="871.3915,512.4595 852.9194,496.3006 846.5684,497.6495 864.1992,513.3136 " opacity="0.9" />
  <polygon fill="rgb(222,41,204)" points="824.2184,463.5835 818.808,448.1215 810.0696,451.5037 815.8868,467.6232 " opacity="0.9" />
  <polygon fill="rgb(222,41,204)" points="833.3684,480.5885 824.2184,463.5835 815.8868,467.6232 825.6607,485.16 " opacity="0.9" />
  <polygon fill="rgb(222,41,204)" points="835.2234,514.2565 817.2204,494.2594 818.3481,496.0513 838.0731,517.0268 " opacity="0.9" />
  <polygon fill="rgb(222,41,204)" points="818.808,448.1215 816.8699,435.7417 807.9539,438.1838 810.0696,451.5037 " opacity="0.9" />
  <polygon fill="rgb(222,41,204)" points="808.8167,471.5855 802.1202,454.0845 796.7962,455.3995 804.5058,474.4788 " opacity="0.9" />
  <polygon fill="rgb(222,41,204)" points="846.5684,497.6495 833.3684,480.5885 825.6607,485.16 839.6947,502.7816 " opacity="0.9" />
  <polygon fill="rgb(222,41,204)" points="819.9546,490.1789 808.8167,471.5855 804.5058,474.4788 817.2204,494.2594 " opacity="0.9" />
  <polygon fill="rgb(222,41,204)" points="793.8814,437.5369 797.0173,424.2876 795.8453,419.9327 792.5964,435.1827 " opacity="0.9" />
  <polygon fill="rgb(222,41,204)" points="815.8868,467.6232 810.0696,451.5037 802.1202,454.0845 808.8167,471.5855 " opacity="0.9" />
  <polygon fill="rgb(222,41,204)" points="795.8453,419.9327 806.9672,412.2897 812.2084,407.8906 800.8669,415.989 " opacity="0.9" />
  <polygon fill="rgb(222,41,204)" points="802.1202,454.0845 799.6326,438.6656 793.8814,437.5369 796.7962,455.3995 " opacity="0.9" />
  <polygon fill="rgb(222,41,204)" points="825.6607,485.16 815.8868,467.6232 808.8167,471.5855 819.9546,490.1789 " opacity="0.9" />
  <polygon fill="rgb(222,41,204)" points="816.8699,435.7417 819.7101,427.922 810.8422,429.4599 807.9539,438.1838 " opacity="0.9" />
  <polygon fill="rgb(222,41,204)" points="810.0696,451.5037 807.9539,438.1838 799.6326,438.6656 802.1202,454.0845 " opacity="0.9" />
  <polygon fill="rgb(222,41,204)" points="835.8257,508.9173 819.9546,490.1789 817.2204,494.2594 835.2234,514.2565 " opacity="0.9" />
  <polygon fill="rgb(222,41,204)" points="839.6947,502.7816 825.6607,485.16 819.9546,490.1789 835.8257,508.9173 " opacity="0.9" />
  <polygon fill="rgb(222,41,204)" points="812.2084,407.8906 831.7676,406.1587 839.7627,405.4294 820.7634,406.9752 " opacity="0.9" />
  <polygon fill="rgb(222,41,204)" points="864.1992,513.3136 846.5684,497.6495 839.6947,502.7816 858.3666,519.1878 " opacity="0.9" />
  <polygon fill="rgb(222,41,204)" points="799.6326,438.6656 802.6359,427.8626 797.0173,424.2876 793.8814,437.5369 " opacity="0.9" />
  <polygon fill="rgb(222,41,204)" points="807.9539,438.1838 810.8422,429.4599 802.6359,427.8626 799.6326,438.6656 " opacity="0.9" />
  <polygon fill="rgb(222,41,204)" points="858.8914,534.0051 835.2234,514.2565 838.0731,517.0268 863.9203,538.1927 " opacity="0.9" />
  <polygon fill="rgb(222,41,204)" points="819.7101,427.922 828.6361,424.5083 820.0516,425.5479 810.8422,429.4599 " opacity="0.9" />
  <polygon fill="rgb(222,41,204)" points="797.0173,424.2876 807.5609,417.8015 806.9672,412.2897 795.8453,419.9327 " opacity="0.9" />
  <polygon fill="rgb(222,41,204)" points="858.3666,519.1878 839.6947,502.7816 835.8257,508.9173 856.8054,526.8796 " opacity="0.9" />
  <polygon fill="rgb(222,41,204)" points="856.8054,526.8796 835.8257,508.9173 835.2234,514.2565 858.8914,534.0051 " opacity="0.9" />
  <polygon fill="rgb(222,41,204)" points="802.6359,427.8626 812.4648,422.7749 807.5609,417.8015 797.0173,424.2876 " opacity="0.9" />
  <polygon fill="rgb(222,41,204)" points="806.9672,412.2897 826.1061,410.7702 831.7676,406.1587 812.2084,407.8906 " opacity="0.9" />
  <polygon fill="rgb(222,41,204)" points="810.8422,429.4599 820.0516,425.5479 812.4648,422.7749 802.6359,427.8626 " opacity="0.9" />
  <polygon fill="rgb(222,41,204)" points="992.0511,386.4234 991.7795,390.9208 1026.4507,391.8846 1026.3157,387.3729 " opacity="0.9" />
  <polygon fill="rgb(222,41,204)" points="991.7172,383.1483 991.9998,383.7604 1026.511,384.7151 1026.9072,384.1213 " opacity="0.9" />
  <polygon fill="rgb(222,41,204)" points="991.9998,383.7604 992.0511,386.4234 1026.3157,387.3729 1026.511,384.7151 " opacity="0.9" />
  <polygon fill="rgb(222,41,204)" points="959.2615,388.2215 958.5966,392.7698 991.7795,390.9208 992.0511,386.4234 " opacity="0.9" />
  <polygon fill="rgb(222,41,204)" points="958.0343,384.9736 958.9724,385.5544 991.9998,383.7604 991.7172,383.1483 " opacity="0.9" />
  <polygon fill="rgb(222,41,204)" points="807.5609,417.8015 825.557,416.7624 826.1061,410.7702 806.9672,412.2897 " opacity="0.9" />
  <polygon fill="rgb(222,41,204)" points="958.9724,385.5544 959.2615,388.2215 992.0511,386.4234 991.9998,383.7604 " opacity="0.9" />
  <polygon fill="rgb(222,41,204)" points="831.7676,406.1587 859.8565,409.2575 866.9548,408.4583 839.7627,405.4294 " opacity="0.9" />
  <polygon fill="rgb(222,41,204)" points="1026.3157,387.3729 1026.4507,391.8846 1061.0238,395.8221 1060.4788,391.2266 " opacity="0.9" />
  <polygon fill="rgb(222,41,204)" points="1026.9072,384.1213 1026.511,384.7151 1060.9237,388.5747 1062.0061,388.0525 " opacity="0.9" />
  <polygon fill="rgb(222,41,204)" points="1026.511,384.7151 1026.3157,387.3729 1060.4788,391.2266 1060.9237,388.5747 " opacity="0.9" />
  <polygon fill="rgb(222,41,204)" points="820.0516,425.5479 835.4153,425.5185 829.048,422.2937 812.4648,422.7749 " opacity="0.9" />
  <polygon fill="rgb(222,41,204)" points="812.4648,422.7749 829.048,422.2937 825.557,416.7624 807.5609,417.8015 " opacity="0.9" />
  <polygon fill="rgb(222,41,204)" points="826.1061,410.7702 853.5248,413.9025 859.8565,409.2575 831.7676,406.1587 " opacity="0.9" />
  <polygon fill="rgb(222,41,204)" points="929.6667,392.7272 928.6347,397.3911 958.5966,392.7698 959.2615,388.2215 " opacity="0.9" />
  <polygon fill="rgb(222,41,204)" points="927.6074,389.5591 929.1565,390.0574 958.9724,385.5544 958.0343,384.9736 " opacity="0.9" />
  <polygon fill="rgb(222,41,204)" points="929.1565,390.0574 929.6667,392.7272 959.2615,388.2215 958.9724,385.5544 " opacity="0.9" />
  <polygon fill="rgb(222,41,204)" points="1060.4788,391.2266 1061.0238,395.8221 1091.2025,402.4203 1090.2867,397.6761 " opacity="0.9" />
  <polygon fill="rgb(222,41,204)" points="825.557,416.7624 851.1511,419.8676 853.5248,413.9025 826.1061,410.7702 " opacity="0.9" />
  <polygon fill="rgb(222,41,204)" points="835.4153,425.5185 856.8304,428.4572 852.3939,425.3251 829.048,422.2937 " opacity="0.9" />
  <polygon fill="rgb(222,41,204)" points="1062.0061,388.0525 1060.9237,388.5747 1090.9583,395.0313 1092.6626,394.631 " opacity="0.9" />
  <polygon fill="rgb(222,41,204)" points="1060.9237,388.5747 1060.4788,391.2266 1090.2867,397.6761 1090.9583,395.0313 " opacity="0.9" />
  <polygon fill="rgb(222,41,204)" points="829.048,422.2937 852.3939,425.3251 851.1511,419.8676 825.557,416.7624 " opacity="0.9" />
  <polygon fill="rgb(222,41,204)" points="993.7624,389.2231 996.1546,390.0488 1020.8173,390.7339 1023.9601,390.0615 " opacity="0.9" />
  <polygon fill="rgb(222,41,204)" points="859.8565,409.2575 896.9626,415.6536 902.7603,414.608 866.9548,408.4583 " opacity="0.9" />
  <polygon fill="rgb(222,41,204)" points="964.8951,390.8226 972.6128,391.3577 996.1546,390.0488 993.7624,389.2231 " opacity="0.9" />
  <polygon fill="rgb(222,41,204)" points="1023.9601,390.0615 1020.8173,390.7339 1045.3156,393.521 1054.0209,393.4739 " opacity="0.9" />
  <polygon fill="rgb(222,41,204)" points="853.5248,413.9025 889.6491,420.2174 896.9626,415.6536 859.8565,409.2575 " opacity="0.9" />
  <polygon fill="rgb(222,41,204)" points="938.9387,394.8148 951.5536,394.613 972.6128,391.3577 964.8951,390.8226 " opacity="0.9" />
  <polygon fill="rgb(222,41,204)" points="856.8304,428.4572 884.2657,433.4532 882.6085,430.7793 852.3939,425.3251 " opacity="0.9" />
  <polygon fill="rgb(222,41,204)" points="905.2455,400.0045 903.8912,404.8524 928.6347,397.3911 929.6667,392.7272 " opacity="0.9" />
  <polygon fill="rgb(222,41,204)" points="902.4575,396.976 904.5422,397.3355 929.1565,390.0574 927.6074,389.5591 " opacity="0.9" />
  <polygon fill="rgb(222,41,204)" points="904.5422,397.3355 905.2455,400.0045 929.6667,392.7272 929.1565,390.0574 " opacity="0.9" />
  <polygon fill="rgb(222,41,204)" points="1054.0209,393.4739 1045.3156,393.521 1066.4642,398.1572 1080.1312,399.1718 " opacity="0.9" />
  <polygon fill="rgb(222,41,204)" points="851.1511,419.8676 884.6204,425.8181 889.6491,420.2174 853.5248,413.9025 " opacity="0.9" />
  <polygon fill="rgb(222,41,204)" points="852.3939,425.3251 882.6085,430.7793 884.6204,425.8181 851.1511,419.8676 " opacity="0.9" />
  <polygon fill="rgb(222,41,204)" points="1090.2867,397.6761 1091.2025,402.4203 1113.1917,410.8872 1111.9884,405.9445 " opacity="0.9" />
  <polygon fill="rgb(222,41,204)" points="1092.6626,394.631 1090.9583,395.0313 1112.8365,403.3086 1115.0258,403.0703 " opacity="0.9" />
  <polygon fill="rgb(222,41,204)" points="1090.9583,395.0313 1090.2867,397.6761 1111.9884,405.9445 1112.8365,403.3086 " opacity="0.9" />
  <polygon fill="rgb(222,41,204)" points="996.1546,390.0488 999.2488,392.8546 1016.6691,393.3395 1020.8173,390.7339 " opacity="0.9" />
  <polygon fill="rgb(222,41,204)" points="972.6128,391.3577 982.6517,393.7872 999.2488,392.8546 996.1546,390.0488 " opacity="0.9" />
  <polygon fill="rgb(222,41,204)" points="1020.8173,390.7339 1016.6691,393.3395 1033.9249,395.3154 1045.3156,393.521 " opacity="0.9" />
  <polygon fill="rgb(222,41,204)" points="917.6793,401.2347 934.4803,399.8199 951.5536,394.613 938.9387,394.8148 " opacity="0.9" />
  <polygon fill="rgb(222,41,204)" points="951.5536,394.613 967.9043,396.0934 982.6517,393.7872 972.6128,391.3577 " opacity="0.9" />
  <polygon fill="rgb(222,41,204)" points="1045.3156,393.521 1033.9249,395.3154 1048.7023,398.5876 1066.4642,398.1572 " opacity="0.9" />
  <polygon fill="rgb(222,41,204)" points="1080.1312,399.1718 1066.4642,398.1572 1081.5547,404.0424 1098.9792,406.447 " opacity="0.9" />
  <polygon fill="rgb(222,41,204)" points="889.7457,409.3434 888.162,414.4285 903.8912,404.8524 905.2455,400.0045 " opacity="0.9" />
  <polygon fill="rgb(222,41,204)" points="886.4415,406.5084 888.9064,406.6808 904.5422,397.3355 902.4575,396.976 " opacity="0.9" />
  <polygon fill="rgb(222,41,204)" points="888.9064,406.6808 889.7457,409.3434 905.2455,400.0045 904.5422,397.3355 " opacity="0.9" />
  <polygon fill="rgb(222,41,204)" points="999.2488,392.8546 1002.3115,394.841 1012.6025,395.1278 1016.6691,393.3395 " opacity="0.9" />
  <polygon fill="rgb(222,41,204)" points="934.4803,399.8199 956.1067,399.7557 967.9043,396.0934 951.5536,394.613 " opacity="0.9" />
  <polygon fill="rgb(222,41,204)" points="982.6517,393.7872 992.525,395.395 1002.3115,394.841 999.2488,392.8546 " opacity="0.9" />
  <polygon fill="rgb(222,41,204)" points="1016.6691,393.3395 1012.6025,395.1278 1022.7684,396.2975 1033.9249,395.3154 " opacity="0.9" />
  <polygon fill="rgb(222,41,204)" points="1111.9884,405.9445 1113.1917,410.8872 1125.8657,420.738 1124.4753,415.556 " opacity="0.9" />
  <polygon fill="rgb(222,41,204)" points="1066.4642,398.1572 1048.7023,398.5876 1059.0872,402.7108 1081.5547,404.0424 " opacity="0.9" />
  <polygon fill="rgb(222,41,204)" points="1115.0258,403.0703 1112.8365,403.3086 1125.4396,412.9319 1127.947,412.8906 " opacity="0.9" />
  <polygon fill="rgb(222,41,204)" points="1112.8365,403.3086 1111.9884,405.9445 1124.4753,415.556 1125.4396,412.9319 " opacity="0.9" />
  <polygon fill="rgb(222,41,204)" points="1115.5437,629.2827 1113.8571,632.4007 1124.8256,616.6567 1126.6232,613.3975 " opacity="0.9" />
  <polygon fill="rgb(222,41,204)" points="1105.7893,411.7111 1098.9792,406.447 1109.6288,414.8596 1117.4039,420.8835 " opacity="0.9" />
  <polygon fill="rgb(222,41,204)" points="967.9043,396.0934 983.8865,396.7584 992.525,395.395 982.6517,393.7872 " opacity="0.9" />
  <polygon fill="rgb(222,41,204)" points="1033.9249,395.3154 1022.7684,396.2975 1031.4058,398.2255 1048.7023,398.5876 " opacity="0.9" />
  <polygon fill="rgb(222,41,204)" points="904.3876,409.4283 924.0253,406.4183 934.4803,399.8199 917.6793,401.2347 " opacity="0.9" />
  <polygon fill="rgb(222,41,204)" points="1162.9679,494.9783 1155.1902,470.9977 1158.4652,486.0947 1166.6963,511.7591 " opacity="0.9" />
  <polygon fill="rgb(222,41,204)" points="1098.9792,406.447 1081.5547,404.0424 1089.8694,410.7984 1109.6288,414.8596 " opacity="0.9" />
  <polygon fill="rgb(222,41,204)" points="956.1067,399.7557 977.0663,398.9083 983.8865,396.7584 967.9043,396.0934 " opacity="0.9" />
  <polygon fill="rgb(222,41,204)" points="850.8942,477.6378 862.3914,451.6522 867.9725,438.6606 857.2482,462.8716 " opacity="0.9" />
  <polygon fill="rgb(222,41,204)" points="1048.7023,398.5876 1031.4058,398.2255 1037.3851,400.6374 1059.0872,402.7108 " opacity="0.9" />
  <polygon fill="rgb(222,41,204)" points="924.0253,406.4183 949.0787,404.3536 956.1067,399.7557 934.4803,399.8199 " opacity="0.9" />
  <polygon fill="rgb(222,41,204)" points="1081.5547,404.0424 1059.0872,402.7108 1064.6189,407.4005 1089.8694,410.7984 " opacity="0.9" />
  <polygon fill="rgb(222,41,204)" points="1155.1902,470.9977 1145.3259,446.1245 1148.0703,459.3957 1158.4652,486.0947 " opacity="0.9" />
  <polygon fill="rgb(222,41,204)" points="862.3914,451.6522 875.0764,425.0505 879.8588,413.84 867.9725,438.6606 " opacity="0.9" />
  <polygon fill="rgb(222,41,204)" points="847.3163,587.2647 842.5129,568.1285 833.6283,548.8367 838.5535,567.9532 " opacity="0.9" />
  <polygon fill="rgb(222,41,204)" points="949.0787,404.3536 973.1144,401.5835 977.0663,398.9083 956.1067,399.7557 " opacity="0.9" />
  <polygon fill="rgb(222,41,204)" points="977.0663,398.9083 991.5286,395.0781 995.0065,393.9796 983.8865,396.7584 " opacity="0.9" />
  <polygon fill="rgb(222,41,204)" points="1059.0872,402.7108 1037.3851,400.6374 1040.4629,403.3561 1064.6189,407.4005 " opacity="0.9" />
  <polygon fill="rgb(222,41,204)" points="1145.3259,446.1245 1134.3143,420.5927 1136.5222,432.0327 1148.0703,459.3957 " opacity="0.9" />
  <polygon fill="rgb(222,41,204)" points="1031.4058,398.2255 1019.5312,394.7347 1022.572,395.9652 1037.3851,400.6374 " opacity="0.9" />
  <polygon fill="rgb(222,41,204)" points="875.0764,425.0505 878.5864,419.668 883.1568,408.8806 879.8588,413.84 " opacity="0.9" />
  <polygon fill="rgb(222,41,204)" points="884.9431,621.5873 886.5372,624.7998 906.2706,639.1327 904.9309,636.0583 " opacity="0.9" />
  <polygon fill="rgb(222,41,204)" points="885.5925,419.5508 883.9144,424.8986 888.162,414.4285 889.7457,409.3434 " opacity="0.9" />
  <polygon fill="rgb(222,41,204)" points="878.5864,419.668 882.0795,416.9439 886.4415,406.5084 883.1568,408.8806 " opacity="0.9" />
  <polygon fill="rgb(222,41,204)" points="884.6991,416.9007 885.5925,419.5508 889.7457,409.3434 888.9064,406.6808 " opacity="0.9" />
  <polygon fill="rgb(222,41,204)" points="892.7386,424.7468 901.0892,418.329 904.3876,409.4283 896.4822,415.0183 " opacity="0.9" />
  <polygon fill="rgb(222,41,204)" points="882.0795,416.9439 884.6991,416.9007 888.9064,406.6808 886.4415,406.5084 " opacity="0.9" />
  <polygon fill="rgb(222,41,204)" points="1166.9971,577.4256 1172.731,558.5211 1159.1855,578.3517 1153.6912,597.277 " opacity="0.9" />
  <polygon fill="rgb(222,41,204)" points="904.9309,636.0583 901.3072,632.225 880.6555,617.3012 884.9431,621.5873 " opacity="0.9" />
  <polygon fill="rgb(222,41,204)" points="1134.3143,420.5927 1131.1786,415.444 1133.2449,426.4482 1136.5222,432.0327 " opacity="0.9" />
  <polygon fill="rgb(222,41,204)" points="901.0892,418.329 921.7186,413.5291 924.0253,406.4183 904.3876,409.4283 " opacity="0.9" />
  <polygon fill="rgb(222,41,204)" points="842.5129,568.1285 844.3981,544.8839 835.5253,526.5307 833.6283,548.8367 " opacity="0.9" />
  <polygon fill="rgb(222,41,204)" points="973.1144,401.5835 989.5527,396.437 991.5286,395.0781 977.0663,398.9083 " opacity="0.9" />
  <polygon fill="rgb(222,41,204)" points="1131.1786,415.444 1127.947,412.8906 1129.8732,423.531 1133.2449,426.4482 " opacity="0.9" />
  <polygon fill="rgb(222,41,204)" points="1117.4039,420.8835 1109.6288,414.8596 1110.8542,423.908 1118.9106,430.7844 " opacity="0.9" />
  <polygon fill="rgb(222,41,204)" points="1037.3851,400.6374 1022.572,395.9652 1024.0994,397.3434 1040.4629,403.3561 " opacity="0.9" />
  <polygon fill="rgb(222,41,204)" points="1125.4396,412.9319 1124.4753,415.556 1126.2579,425.9575 1127.2609,423.3483 " opacity="0.9" />
  <polygon fill="rgb(222,41,204)" points="1004.0134,355.4871 1007.5434,359.1969 1012.2574,355.7136 " opacity="0.9" />
  <polygon fill="rgb(222,41,204)" points="1127.947,412.8906 1125.4396,412.9319 1127.2609,423.3483 1129.8732,423.531 " opacity="0.9" />
  <polygon fill="rgb(222,41,204)" points="1091.798,643.0311 1090.4196,646.0189 1113.8571,632.4007 1115.5437,629.2827 " opacity="0.9" />
  <polygon fill="rgb(222,41,204)" points="996.1889,355.8694 1007.5434,359.1969 1004.0134,355.4871 " opacity="0.9" />
  <polygon fill="rgb(222,41,204)" points="1012.2574,355.7136 1007.5434,359.1969 1020.4191,356.5775 " opacity="0.9" />
  <polygon fill="rgb(222,41,204)" points="921.7186,413.5291 947.7875,409.2576 949.0787,404.3536 924.0253,406.4183 " opacity="0.9" />
  <polygon fill="rgb(222,41,204)" points="1109.6288,414.8596 1089.8694,410.7984 1090.5039,418.0048 1110.8542,423.908 " opacity="0.9" />
  <polygon fill="rgb(222,41,204)" points="989.2951,356.8386 1007.5434,359.1969 996.1889,355.8694 " opacity="0.9" />
  <polygon fill="rgb(222,41,204)" points="1020.4191,356.5775 1007.5434,359.1969 1027.3488,357.9803 " opacity="0.9" />
  <polygon fill="rgb(222,41,204)" points="947.7875,409.2576 972.5367,404.4087 973.1144,401.5835 949.0787,404.3536 " opacity="0.9" />
  <polygon fill="rgb(222,41,204)" points="1089.8694,410.7984 1064.6189,407.4005 1064.7477,412.3503 1090.5039,418.0048 " opacity="0.9" />
  <polygon fill="rgb(222,41,204)" points="1115.5437,629.2827 1119.9003,625.2643 1095.3445,639.4462 1091.798,643.0311 " opacity="0.9" />
  <polygon fill="rgb(222,41,204)" points="1064.6189,407.4005 1040.4629,403.3561 1040.3651,406.1968 1064.7477,412.3503 " opacity="0.9" />
  <polygon fill="rgb(222,41,204)" points="1172.731,558.5211 1171.7739,536.0221 1158.3125,554.8651 1159.1855,578.3517 " opacity="0.9" />
  <polygon fill="rgb(222,41,204)" points="972.5367,404.4087 989.3173,397.8627 989.5527,396.437 973.1144,401.5835 " opacity="0.9" />
  <polygon fill="rgb(222,41,204)" points="844.3981,544.8839 850.3782,519.628 841.606,502.6985 835.5253,526.5307 " opacity="0.9" />
  <polygon fill="rgb(222,41,204)" points="983.8599,358.3776 1007.5434,359.1969 989.2951,356.8386 " opacity="0.9" />
  <polygon fill="rgb(222,41,204)" points="1040.4629,403.3561 1024.0994,397.3434 1023.9897,398.7732 1040.3651,406.1968 " opacity="0.9" />
  <polygon fill="rgb(222,41,204)" points="1027.3488,357.9803 1007.5434,359.1969 1032.1187,359.7191 " opacity="0.9" />
  <polygon fill="rgb(222,41,204)" points="989.3173,397.8627 991.2746,388.981 991.4829,387.7296 989.5527,396.437 " opacity="0.9" />
  <polygon fill="rgb(222,41,204)" points="1024.0994,397.3434 1022.5245,388.5377 1022.4177,389.7922 1023.9897,398.7732 " opacity="0.9" />
  <polygon fill="rgb(222,41,204)" points="980.7238,360.2923 1007.5434,359.1969 983.8599,358.3776 " opacity="0.9" />
  <polygon fill="rgb(222,41,204)" points="1032.1187,359.7191 1007.5434,359.1969 1034.5432,361.6669 " opacity="0.9" />
  <polygon fill="rgb(222,41,204)" points="892.5968,626.8984 882.0107,618.539 857.9728,601.161 870.395,610.8302 " opacity="0.9" />
  <polygon fill="rgb(222,41,204)" points="990.7395,399.2566 992.5563,390.2036 991.2746,388.981 989.3173,397.8627 " opacity="0.9" />
  <polygon fill="rgb(222,41,204)" points="975.2133,407.1883 990.7395,399.2566 989.3173,397.8627 972.5367,404.4087 " opacity="0.9" />
  <polygon fill="rgb(222,41,204)" points="1171.7739,536.0221 1166.6963,511.7591 1153.5211,529.1056 1158.3125,554.8651 " opacity="0.9" />
  <polygon fill="rgb(222,41,204)" points="850.3782,519.628 859.4727,492.8381 850.8942,477.6378 841.606,502.6985 " opacity="0.9" />
  <polygon fill="rgb(222,41,204)" points="1023.9897,398.7732 1022.4177,389.7922 1020.726,391.0054 1022.1155,400.1559 " opacity="0.9" />
  <polygon fill="rgb(222,41,204)" points="1040.3651,406.1968 1023.9897,398.7732 1022.1155,400.1559 1036.8009,408.9645 " opacity="0.9" />
  <polygon fill="rgb(222,41,204)" points="975.8215,369.4934 980.2935,362.3091 980.7238,360.2923 976.3485,367.111 " opacity="0.9" />
  <polygon fill="rgb(222,41,204)" points="1038.6705,368.7092 1034.5432,361.6669 1034.4186,363.6931 1038.5538,371.1042 " opacity="0.9" />
  <polygon fill="rgb(222,41,204)" points="992.5563,390.2036 985.0809,380.7933 983.1543,378.9664 991.2746,388.981 " opacity="0.9" />
  <polygon fill="rgb(222,41,204)" points="980.2935,362.3091 1007.5434,359.1969 980.7238,360.2923 " opacity="0.9" />
  <polygon fill="rgb(222,41,204)" points="952.1328,414.1296 975.2133,407.1883 972.5367,404.4087 947.7875,409.2576 " opacity="0.9" />
  <polygon fill="rgb(222,41,204)" points="1034.5432,361.6669 1007.5434,359.1969 1034.4186,363.6931 " opacity="0.9" />
  <polygon fill="rgb(222,41,204)" points="1022.4177,389.7922 1030.8851,380.1995 1028.324,382.0156 1020.726,391.0054 " opacity="0.9" />
  <polygon fill="rgb(222,41,204)" points="993.7329,400.517 995.2495,391.3092 992.5563,390.2036 990.7395,399.2566 " opacity="0.9" />
  <polygon fill="rgb(222,41,204)" points="1022.1155,400.1559 1020.726,391.0054 1017.6291,391.9988 1018.6699,401.2891 " opacity="0.9" />
  <polygon fill="rgb(222,41,204)" points="1064.7477,412.3503 1040.3651,406.1968 1036.8009,408.9645 1058.8671,417.2247 " opacity="0.9" />
  <polygon fill="rgb(222,41,204)" points="981.0118,409.7161 993.7329,400.517 990.7395,399.2566 975.2133,407.1883 " opacity="0.9" />
  <polygon fill="rgb(222,41,204)" points="859.4727,492.8381 870.6788,464.9818 862.3914,451.6522 850.8942,477.6378 " opacity="0.9" />
  <polygon fill="rgb(222,41,204)" points="1130.1742,619.4435 1142.7008,610.5465 1113.9772,627.0916 1103.7157,634.7272 " opacity="0.9" />
  <polygon fill="rgb(222,41,204)" points="985.0809,380.7933 978.3102,371.8376 975.8215,369.4934 983.1543,378.9664 " opacity="0.9" />
  <polygon fill="rgb(222,41,204)" points="1166.6963,511.7591 1158.4652,486.0947 1145.7537,501.6265 1153.5211,529.1056 " opacity="0.9" />
  <polygon fill="rgb(222,41,204)" points="998.2038,401.5401 999.2698,392.2082 995.2495,391.3092 993.7329,400.517 " opacity="0.9" />
  <polygon fill="rgb(222,41,204)" points="1036.8009,408.9645 1022.1155,400.1559 1018.6699,401.2891 1030.1035,411.2488 " opacity="0.9" />
  <polygon fill="rgb(222,41,204)" points="927.5744,420.6671 952.1328,414.1296 947.7875,409.2576 921.7186,413.5291 " opacity="0.9" />
  <polygon fill="rgb(222,41,204)" points="995.2495,391.3092 989.1915,382.452 985.0809,380.7933 992.5563,390.2036 " opacity="0.9" />
  <polygon fill="rgb(222,41,204)" points="982.4631,364.2911 1007.5434,359.1969 980.2935,362.3091 " opacity="0.9" />
  <polygon fill="rgb(222,41,204)" points="1018.6699,401.2891 1017.6291,391.9988 1013.5992,392.6368 1014.1769,402.019 " opacity="0.9" />
  <polygon fill="rgb(222,41,204)" points="904.9309,636.0583 906.2706,639.1327 938.1862,650.9843 937.3008,648.0327 " opacity="0.9" />
  <polygon fill="rgb(222,41,204)" points="1030.8851,380.1995 1038.5538,371.1042 1035.2302,373.4359 1028.324,382.0156 " opacity="0.9" />
  <polygon fill="rgb(222,41,204)" points="1034.4186,363.6931 1007.5434,359.1969 1031.5299,365.6611 " opacity="0.9" />
  <polygon fill="rgb(222,41,204)" points="1020.726,391.0054 1028.324,382.0156 1023.5931,383.5071 1017.6291,391.9988 " opacity="0.9" />
  <polygon fill="rgb(222,41,204)" points="978.3102,371.8376 982.4631,364.2911 980.2935,362.3091 975.8215,369.4934 " opacity="0.9" />
  <polygon fill="rgb(222,41,204)" points="1003.5583,402.1667 1004.0787,392.7606 999.2698,392.2082 998.2038,401.5401 " opacity="0.9" />
  <polygon fill="rgb(222,41,204)" points="1014.1769,402.019 1013.5992,392.6368 1008.9694,392.8975 1009.0119,402.3194 " opacity="0.9" />
  <polygon fill="rgb(222,41,204)" points="882.0107,618.539 872.9077,605.5779 847.3163,587.2647 857.9728,601.161 " opacity="0.9" />
  <polygon fill="rgb(222,41,204)" points="1009.0119,402.3194 1008.9694,392.8975 1004.0787,392.7606 1003.5583,402.1667 " opacity="0.9" />
  <polygon fill="rgb(222,41,204)" points="1038.5538,371.1042 1034.4186,363.6931 1031.5299,365.6611 1035.2302,373.4359 " opacity="0.9" />
  <polygon fill="rgb(222,41,204)" points="1090.5039,418.0048 1064.7477,412.3503 1058.8671,417.2247 1082.4269,425.1809 " opacity="0.9" />
  <polygon fill="rgb(222,41,204)" points="907.9554,427.3365 927.5744,420.6671 921.7186,413.5291 901.0892,418.329 " opacity="0.9" />
  <polygon fill="rgb(222,41,204)" points="989.7718,411.7769 998.2038,401.5401 993.7329,400.517 981.0118,409.7161 " opacity="0.9" />
  <polygon fill="rgb(222,41,204)" points="999.2698,392.2082 995.3662,383.8071 989.1915,382.452 995.2495,391.3092 " opacity="0.9" />
  <polygon fill="rgb(222,41,204)" points="937.3008,648.0327 934.8718,644.5951 901.3072,632.225 904.9309,636.0583 " opacity="0.9" />
  <polygon fill="rgb(222,41,204)" points="987.1181,366.0954 1007.5434,359.1969 982.4631,364.2911 " opacity="0.9" />
  <polygon fill="rgb(222,41,204)" points="899.9611,434.6216 907.9554,427.3365 901.0892,418.329 892.7386,424.7468 " opacity="0.9" />
  <polygon fill="rgb(222,41,204)" points="1017.6291,391.9988 1023.5931,383.5071 1017.4133,384.4656 1013.5992,392.6368 " opacity="0.9" />
  <polygon fill="rgb(222,41,204)" points="1030.1035,411.2488 1018.6699,401.2891 1014.1769,402.019 1021.2844,412.7297 " opacity="0.9" />
  <polygon fill="rgb(222,41,204)" points="870.6788,464.9818 882.9818,436.5115 875.0764,425.0505 862.3914,451.6522 " opacity="0.9" />
  <polygon fill="rgb(222,41,204)" points="1058.7413,652.3998 1057.8309,655.2953 1090.4196,646.0189 1091.798,643.0311 " opacity="0.9" />
  <polygon fill="rgb(222,41,204)" points="1031.5299,365.6611 1007.5434,359.1969 1026.1735,367.2772 " opacity="0.9" />
  <polygon fill="rgb(222,41,204)" points="1158.4652,486.0947 1148.0703,459.3957 1135.9756,472.9697 1145.7537,501.6265 " opacity="0.9" />
  <polygon fill="rgb(222,41,204)" points="989.1915,382.452 983.6909,373.9738 978.3102,371.8376 985.0809,380.7933 " opacity="0.9" />
  <polygon fill="rgb(222,41,204)" points="1004.0787,392.7606 1002.7689,384.6442 995.3662,383.8071 999.2698,392.2082 " opacity="0.9" />
  <polygon fill="rgb(222,41,204)" points="1183.1764,528.6437 1148.0233,528.3415 1137.1533,529.6737 1171.6134,530.5301 " opacity="0.9" />
  <polygon fill="rgb(222,41,204)" points="961.9816,418.5998 981.0118,409.7161 975.2133,407.1883 952.1328,414.1296 " opacity="0.9" />
  <polygon fill="rgb(222,41,204)" points="1013.5992,392.6368 1017.4133,384.4656 1010.2963,384.855 1008.9694,392.8975 " opacity="0.9" />
  <polygon fill="rgb(222,41,204)" points="1110.8542,423.908 1090.5039,418.0048 1082.4269,425.1809 1101.2222,432.9993 " opacity="0.9" />
  <polygon fill="rgb(222,41,204)" points="1000.3255,413.0407 1003.5583,402.1667 998.2038,401.5401 989.7718,411.7769 " opacity="0.9" />
  <polygon fill="rgb(222,41,204)" points="1028.324,382.0156 1035.2302,373.4359 1029.0319,375.3553 1023.5931,383.5071 " opacity="0.9" />
  <polygon fill="rgb(222,41,204)" points="1008.9694,392.8975 1010.2963,384.855 1002.7689,384.6442 1004.0787,392.7606 " opacity="0.9" />
  <polygon fill="rgb(222,41,204)" points="1021.2844,412.7297 1014.1769,402.019 1009.0119,402.3194 1011.0967,413.3447 " opacity="0.9" />
  <polygon fill="rgb(222,41,204)" points="882.9818,436.5115 886.3729,430.6844 878.5864,419.668 875.0764,425.0505 " opacity="0.9" />
  <polygon fill="rgb(222,41,204)" points="994.1265,367.5743 1007.5434,359.1969 987.1181,366.0954 " opacity="0.9" />
  <polygon fill="rgb(222,41,204)" points="889.7394,427.5876 892.2582,427.3135 884.6991,416.9007 882.0795,416.9439 " opacity="0.9" />
  <polygon fill="rgb(222,41,204)" points="886.3729,430.6844 889.7394,427.5876 882.0795,416.9439 878.5864,419.668 " opacity="0.9" />
  <polygon fill="rgb(222,41,204)" points="1026.1735,367.2772 1007.5434,359.1969 1019.165,368.3133 " opacity="0.9" />
  <polygon fill="rgb(222,41,204)" points="1011.0967,413.3447 1009.0119,402.3194 1003.5583,402.1667 1000.3255,413.0407 " opacity="0.9" />
  <polygon fill="rgb(222,41,204)" points="983.6909,373.9738 987.1181,366.0954 982.4631,364.2911 978.3102,371.8376 " opacity="0.9" />
  <polygon fill="rgb(222,41,204)" points="1091.798,643.0311 1095.3445,639.4462 1061.0532,649.1225 1058.7413,652.3998 " opacity="0.9" />
  <polygon fill="rgb(222,41,204)" points="1118.9106,430.7844 1110.8542,423.908 1101.2222,432.9993 1108.6993,440.7704 " opacity="0.9" />
  <polygon fill="rgb(222,41,204)" points="1058.8671,417.2247 1036.8009,408.9645 1030.1035,411.2488 1047.4335,421.2892 " opacity="0.9" />
  <polygon fill="rgb(222,41,204)" points="1142.7008,610.5465 1153.6912,597.277 1123.0463,614.7162 1113.9772,627.0916 " opacity="0.9" />
  <polygon fill="rgb(222,41,204)" points="1035.2302,373.4359 1031.5299,365.6611 1026.1735,367.2772 1029.0319,375.3553 " opacity="0.9" />
  <polygon fill="rgb(222,41,204)" points="1002.5358,368.4926 1007.5434,359.1969 994.1265,367.5743 " opacity="0.9" />
  <polygon fill="rgb(222,41,204)" points="1148.0703,459.3957 1136.5222,432.0327 1125.1621,443.6576 1135.9756,472.9697 " opacity="0.9" />
  <polygon fill="rgb(222,41,204)" points="1019.165,368.3133 1007.5434,359.1969 1011.0856,368.7298 " opacity="0.9" />
  <polygon fill="rgb(222,41,204)" points="1011.0856,368.7298 1007.5434,359.1969 1002.5358,368.4926 " opacity="0.9" />
  <polygon fill="rgb(222,41,204)" points="934.8718,644.5951 928.9916,640.2688 892.5968,626.8984 901.3072,632.225 " opacity="0.9" />
  <polygon fill="rgb(222,41,204)" points="995.3662,383.8071 991.816,375.7252 983.6909,373.9738 989.1915,382.452 " opacity="0.9" />
  <polygon fill="rgb(222,41,204)" points="872.9077,605.5779 868.8375,586.4735 842.5129,568.1285 847.3163,587.2647 " opacity="0.9" />
  <polygon fill="rgb(222,41,204)" points="1023.5931,383.5071 1029.0319,375.3553 1020.9007,376.5894 1017.4133,384.4656 " opacity="0.9" />
  <polygon fill="rgb(222,41,204)" points="1136.5222,432.0327 1133.2449,426.4482 1122.0992,437.6109 1125.1621,443.6576 " opacity="0.9" />
  <polygon fill="rgb(222,41,204)" points="1129.8732,423.531 1127.2609,423.3483 1116.5049,433.886 1118.9475,434.3073 " opacity="0.9" />
  <polygon fill="rgb(222,41,204)" points="1133.2449,426.4482 1129.8732,423.531 1118.9475,434.3073 1122.0992,437.6109 " opacity="0.9" />
  <polygon fill="rgb(222,41,204)" points="991.816,375.7252 994.1265,367.5743 987.1181,366.0954 983.6909,373.9738 " opacity="0.9" />
  <polygon fill="rgb(222,41,204)" points="1002.7689,384.6442 1001.5807,376.8115 991.816,375.7252 995.3662,383.8071 " opacity="0.9" />
  <polygon fill="rgb(222,41,204)" points="1029.0319,375.3553 1026.1735,367.2772 1019.165,368.3133 1020.9007,376.5894 " opacity="0.9" />
  <polygon fill="rgb(222,41,204)" points="1017.4133,384.4656 1020.9007,376.5894 1011.5153,377.0887 1010.2963,384.855 " opacity="0.9" />
  <polygon fill="rgb(222,41,204)" points="977.1211,422.2695 989.7718,411.7769 981.0118,409.7161 961.9816,418.5998 " opacity="0.9" />
  <polygon fill="rgb(222,41,204)" points="1095.3445,639.4462 1103.7157,634.7272 1066.4926,645.1888 1061.0532,649.1225 " opacity="0.9" />
  <polygon fill="rgb(222,41,204)" points="1010.2963,384.855 1011.5153,377.0887 1001.5807,376.8115 1002.7689,384.6442 " opacity="0.9" />
  <polygon fill="rgb(222,41,204)" points="941.5518,427.2787 961.9816,418.5998 952.1328,414.1296 927.5744,420.6671 " opacity="0.9" />
  <polygon fill="rgb(222,41,204)" points="937.3008,648.0327 938.1862,650.9843 978.0035,658.1623 977.712,655.2899 " opacity="0.9" />
  <polygon fill="rgb(222,41,204)" points="1047.4335,421.2892 1030.1035,411.2488 1021.2844,412.7297 1032.1516,423.9477 " opacity="0.9" />
  <polygon fill="rgb(222,41,204)" points="1001.5807,376.8115 1002.5358,368.4926 994.1265,367.5743 991.816,375.7252 " opacity="0.9" />
  <polygon fill="rgb(222,41,204)" points="1020.9007,376.5894 1019.165,368.3133 1011.0856,368.7298 1011.5153,377.0887 " opacity="0.9" />
  <polygon fill="rgb(222,41,204)" points="1011.5153,377.0887 1011.0856,368.7298 1002.5358,368.4926 1001.5807,376.8115 " opacity="0.9" />
  <polygon fill="rgb(222,41,204)" points="1153.6912,597.277 1159.1855,578.3517 1127.6488,595.7979 1123.0463,614.7162 " opacity="0.9" />
  <polygon fill="rgb(222,41,204)" points="1019.4968,656.6623 1019.165,659.5164 1057.8309,655.2953 1058.7413,652.3998 " opacity="0.9" />
  <polygon fill="rgb(222,41,204)" points="868.8375,586.4735 870.5455,562.3412 844.3981,544.8839 842.5129,568.1285 " opacity="0.9" />
  <polygon fill="rgb(222,41,204)" points="1082.4269,425.1809 1058.8671,417.2247 1047.4335,421.2892 1066.1104,431.2298 " opacity="0.9" />
  <polygon fill="rgb(222,41,204)" points="977.712,655.2899 976.8494,652.1025 934.8718,644.5951 937.3008,648.0327 " opacity="0.9" />
  <polygon fill="rgb(222,41,204)" points="995.5247,424.5273 1000.3255,413.0407 989.7718,411.7769 977.1211,422.2695 " opacity="0.9" />
  <polygon fill="rgb(222,41,204)" points="928.9916,640.2688 921.8328,633.069 882.0107,618.539 892.5968,626.8984 " opacity="0.9" />
  <polygon fill="rgb(222,41,204)" points="1032.1516,423.9477 1021.2844,412.7297 1011.0967,413.3447 1014.367,425.0631 " opacity="0.9" />
  <polygon fill="rgb(222,41,204)" points="1058.7413,652.3998 1061.0532,649.1225 1020.2806,653.5263 1019.4968,656.6623 " opacity="0.9" />
  <polygon fill="rgb(222,41,204)" points="977.712,655.2899 978.0035,658.1623 1019.165,659.5164 1019.4968,656.6623 " opacity="0.9" />
  <polygon fill="rgb(222,41,204)" points="1014.367,425.0631 1011.0967,413.3447 1000.3255,413.0407 995.5247,424.5273 " opacity="0.9" />
  <polygon fill="rgb(222,41,204)" points="925.087,435.7424 941.5518,427.2787 927.5744,420.6671 907.9554,427.3365 " opacity="0.9" />
  <polygon fill="rgb(222,41,204)" points="870.5455,562.3412 875.7835,535.7119 850.3782,519.628 844.3981,544.8839 " opacity="0.9" />
  <polygon fill="rgb(222,41,204)" points="1171.6134,530.5301 1137.1533,529.6737 1125.0984,545.578 1162.5693,544.9987 " opacity="0.9" />
  <polygon fill="rgb(222,41,204)" points="1103.7157,634.7272 1113.9772,627.0916 1073.1959,638.4597 1066.4926,645.1888 " opacity="0.9" />
  <polygon fill="rgb(222,41,204)" points="1159.1855,578.3517 1158.3125,554.8651 1127.033,571.4164 1127.6488,595.7979 " opacity="0.9" />
  <polygon fill="rgb(222,41,204)" points="1019.4968,656.6623 1020.2806,653.5263 976.8494,652.1025 977.712,655.2899 " opacity="0.9" />
  <polygon fill="rgb(222,41,204)" points="1164.8643,582.0193 1117.1719,587.8033 1122.2103,599.8682 1173.5649,592.2465 " opacity="0.9" />
  <polygon fill="rgb(222,41,204)" points="1201.7021,565.2086 1173.5649,592.2465 1185.1884,589.319 1212.2273,562.502 " opacity="0.9" />
  <polygon fill="rgb(222,41,204)" points="1227.567,526.8448 1212.2273,562.502 1218.0911,550.8486 1231.0018,518.7932 " opacity="0.9" />
  <polygon fill="rgb(222,41,204)" points="976.8494,652.1025 974.7051,648.4073 928.9916,640.2688 934.8718,644.5951 " opacity="0.9" />
  <polygon fill="rgb(222,41,204)" points="1101.2222,432.9993 1082.4269,425.1809 1066.1104,431.2298 1081.1306,440.7296 " opacity="0.9" />
  <polygon fill="rgb(222,41,204)" points="918.3254,443.8621 925.087,435.7424 907.9554,427.3365 899.9611,434.6216 " opacity="0.9" />
  <polygon fill="rgb(222,41,204)" points="963.4489,432.7477 977.1211,422.2695 961.9816,418.5998 941.5518,427.2787 " opacity="0.9" />
  <polygon fill="rgb(222,41,204)" points="875.7835,535.7119 883.6863,507.2463 859.4727,492.8381 850.3782,519.628 " opacity="0.9" />
  <polygon fill="rgb(222,41,204)" points="1061.0532,649.1225 1066.4926,645.1888 1022.0717,649.9569 1020.2806,653.5263 " opacity="0.9" />
  <polygon fill="rgb(222,41,204)" points="1066.1104,431.2298 1047.4335,421.2892 1032.1516,423.9477 1043.9445,435.2236 " opacity="0.9" />
  <polygon fill="rgb(222,41,204)" points="1158.3125,554.8651 1153.5211,529.1056 1123.2061,544.2895 1127.033,571.4164 " opacity="0.9" />
  <polygon fill="rgb(222,41,204)" points="921.8328,633.069 915.6952,620.9584 872.9077,605.5779 882.0107,618.539 " opacity="0.9" />
  <polygon fill="rgb(222,41,204)" points="883.6863,507.2463 893.3691,477.5797 870.6788,464.9818 859.4727,492.8381 " opacity="0.9" />
  <polygon fill="rgb(222,41,204)" points="1108.6993,440.7704 1101.2222,432.9993 1081.1306,440.7296 1087.1169,449.2942 " opacity="0.9" />
  <polygon fill="rgb(222,41,204)" points="1020.2806,653.5263 1022.0717,649.9569 974.7051,648.4073 976.8494,652.1025 " opacity="0.9" />
  <polygon fill="rgb(222,41,204)" points="909.7104,437.5939 911.844,437.0929 892.2582,427.3135 889.7394,427.5876 " opacity="0.9" />
  <polygon fill="rgb(222,41,204)" points="893.3691,477.5797 903.946,447.3091 882.9818,436.5115 870.6788,464.9818 " opacity="0.9" />
  <polygon fill="rgb(222,41,204)" points="906.8455,441.0531 909.7104,437.5939 889.7394,427.5876 886.3729,430.6844 " opacity="0.9" />
  <polygon fill="rgb(222,41,204)" points="1190.8331,518.4886 1171.6134,530.5301 1162.5693,544.9987 1184.515,529.8883 " opacity="0.9" />
  <polygon fill="rgb(222,41,204)" points="903.946,447.3091 906.8455,441.0531 886.3729,430.6844 882.9818,436.5115 " opacity="0.9" />
  <polygon fill="rgb(222,41,204)" points="1153.5211,529.1056 1145.7537,501.6265 1116.9569,515.1545 1123.2061,544.2895 " opacity="0.9" />
  <polygon fill="rgb(222,41,204)" points="1160.7078,564.2299 1118.2279,567.367 1117.1719,587.8033 1164.8643,582.0193 " opacity="0.9" />
  <polygon fill="rgb(222,41,204)" points="1162.5693,544.9987 1125.0984,545.578 1118.2279,567.367 1160.7078,564.2299 " opacity="0.9" />
  <polygon fill="rgb(222,41,204)" points="1113.9772,627.0916 1123.0463,614.7162 1079.1841,626.734 1073.1959,638.4597 " opacity="0.9" />
  <polygon fill="rgb(222,41,204)" points="990.3271,436.1254 995.5247,424.5273 977.1211,422.2695 963.4489,432.7477 " opacity="0.9" />
  <polygon fill="rgb(222,41,204)" points="1145.7537,501.6265 1135.9756,472.9697 1109.0936,484.7206 1116.9569,515.1545 " opacity="0.9" />
  <polygon fill="rgb(222,41,204)" points="1043.9445,435.2236 1032.1516,423.9477 1014.367,425.0631 1017.94,436.9167 " opacity="0.9" />
  <polygon fill="rgb(222,41,204)" points="974.7051,648.4073 972.1149,641.9472 921.8328,633.069 928.9916,640.2688 " opacity="0.9" />
  <polygon fill="rgb(222,41,204)" points="1118.9475,434.3073 1116.5049,433.886 1093.4529,442.9057 1095.4281,443.5411 " opacity="0.9" />
  <polygon fill="rgb(222,41,204)" points="1135.9756,472.9697 1125.1621,443.6576 1100.4253,453.6527 1109.0936,484.7206 " opacity="0.9" />
  <polygon fill="rgb(222,41,204)" points="1122.0992,437.6109 1118.9475,434.3073 1095.4281,443.5411 1097.9673,447.1914 " opacity="0.9" />
  <polygon fill="rgb(222,41,204)" points="1017.94,436.9167 1014.367,425.0631 995.5247,424.5273 990.3271,436.1254 " opacity="0.9" />
  <polygon fill="rgb(222,41,204)" points="1218.6051,529.2207 1201.7021,565.2086 1212.2273,562.502 1227.567,526.8448 " opacity="0.9" />
  <polygon fill="rgb(222,41,204)" points="1125.1621,443.6576 1122.0992,437.6109 1097.9673,447.1914 1100.4253,453.6527 " opacity="0.9" />
  <polygon fill="rgb(222,41,204)" points="952.3456,442.7375 963.4489,432.7477 941.5518,427.2787 925.087,435.7424 " opacity="0.9" />
  <polygon fill="rgb(222,41,204)" points="1192.0503,557.7995 1164.8643,582.0193 1173.5649,592.2465 1201.7021,565.2086 " opacity="0.9" />
  <polygon fill="rgb(222,41,204)" points="1066.4926,645.1888 1073.1959,638.4597 1024.3101,643.6483 1022.0717,649.9569 " opacity="0.9" />
  <polygon fill="rgb(222,41,204)" points="915.6952,620.9584 913.0387,601.9236 868.8375,586.4735 872.9077,605.5779 " opacity="0.9" />
  <polygon fill="rgb(222,41,204)" points="1201.6963,499.1279 1190.8331,518.4886 1184.515,529.8883 1197.9197,507.0245 " opacity="0.9" />
  <polygon fill="rgb(222,41,204)" points="1081.1306,440.7296 1066.1104,431.2298 1043.9445,435.2236 1053.4731,445.8732 " opacity="0.9" />
  <polygon fill="rgb(222,41,204)" points="1184.515,529.8883 1162.5693,544.9987 1160.7078,564.2299 1185.5804,544.511 " opacity="0.9" />
  <polygon fill="rgb(222,41,204)" points="1022.0717,649.9569 1024.3101,643.6483 972.1149,641.9472 974.7051,648.4073 " opacity="0.9" />
  <polygon fill="rgb(222,41,204)" points="1123.0463,614.7162 1127.6488,595.7979 1082.3287,607.8269 1079.1841,626.734 " opacity="0.9" />
  <polygon fill="rgb(222,41,204)" points="1185.5804,544.511 1160.7078,564.2299 1164.8643,582.0193 1192.0503,557.7995 " opacity="0.9" />
  <polygon fill="rgb(222,41,204)" points="947.7332,451.5673 952.3456,442.7375 925.087,435.7424 918.3254,443.8621 " opacity="0.9" />
  <polygon fill="rgb(222,41,204)" points="1211.563,478.2412 1201.6963,499.1279 1197.9197,507.0245 1210.3451,483.3268 " opacity="0.9" />
  <polygon fill="rgb(222,41,204)" points="913.0387,601.9236 914.3829,577.0547 870.5455,562.3412 868.8375,586.4735 " opacity="0.9" />
  <polygon fill="rgb(222,41,204)" points="1208.903,524.893 1192.0503,557.7995 1201.7021,565.2086 1218.6051,529.2207 " opacity="0.9" />
  <polygon fill="rgb(222,41,204)" points="1087.1169,449.2942 1081.1306,440.7296 1053.4731,445.8732 1057.2474,454.9866 " opacity="0.9" />
  <polygon fill="rgb(222,41,204)" points="972.1149,641.9472 969.9691,630.3929 915.6952,620.9584 921.8328,633.069 " opacity="0.9" />
  <polygon fill="rgb(222,41,204)" points="1197.9197,507.0245 1184.515,529.8883 1185.5804,544.511 1201.135,516.5511 " opacity="0.9" />
  <polygon fill="rgb(222,41,204)" points="1237.5924,495.0172 1218.6051,529.2207 1227.567,526.8448 1245.7445,492.8515 " opacity="0.9" />
  <polygon fill="rgb(222,41,204)" points="986.0703,447.0699 990.3271,436.1254 963.4489,432.7477 952.3456,442.7375 " opacity="0.9" />
  <polygon fill="rgb(222,41,204)" points="1053.4731,445.8732 1043.9445,435.2236 1017.94,436.9167 1020.8133,448.0729 " opacity="0.9" />
  <polygon fill="rgb(222,41,204)" points="1073.1959,638.4597 1079.1841,626.734 1026.396,632.2197 1024.3101,643.6483 " opacity="0.9" />
  <polygon fill="rgb(222,41,204)" points="914.3829,577.0547 918.1635,549.2622 875.7835,535.7119 870.5455,562.3412 " opacity="0.9" />
  <polygon fill="rgb(222,41,204)" points="1201.135,516.5511 1185.5804,544.511 1192.0503,557.7995 1208.903,524.893 " opacity="0.9" />
  <polygon fill="rgb(222,41,204)" points="1263.1962,458.1983 1262.9486,457.6081 1247.3015,456.8734 1248.9852,457.5624 " opacity="0.9" />
  <polygon fill="rgb(222,41,204)" points="1253.1727,462.8289 1259.983,459.9921 1247.7817,459.3992 1243.1292,462.1625 " opacity="0.9" />
  <polygon fill="rgb(222,41,204)" points="1127.6488,595.7979 1127.033,571.4164 1082.1173,582.8031 1082.3287,607.8269 " opacity="0.9" />
  <polygon fill="rgb(222,41,204)" points="1259.983,459.9921 1263.1962,458.1983 1248.9852,457.5624 1247.7817,459.3992 " opacity="0.9" />
  <polygon fill="rgb(222,41,204)" points="1247.3015,456.8734 1243.3169,457.5398 1233.6095,459.4053 1238.1079,458.5494 " opacity="0.9" />
  <polygon fill="rgb(222,41,204)" points="941.9594,445.9724 943.4058,445.2745 911.844,437.0929 909.7104,437.5939 " opacity="0.9" />
  <polygon fill="rgb(222,41,204)" points="1228.147,461.7185 1211.563,478.2412 1210.3451,483.3268 1229.7421,465.6676 " opacity="0.9" />
  <polygon fill="rgb(222,41,204)" points="1263.8478,464.6891 1273.1859,461.8358 1259.983,459.9921 1253.1727,462.8289 " opacity="0.9" />
  <polygon fill="rgb(222,41,204)" points="1278.6146,460.2656 1279.8375,459.9991 1262.9486,457.6081 1263.1962,458.1983 " opacity="0.9" />
  <polygon fill="rgb(222,41,204)" points="1020.8133,448.0729 1017.94,436.9167 990.3271,436.1254 986.0703,447.0699 " opacity="0.9" />
  <polygon fill="rgb(222,41,204)" points="1243.1292,462.1625 1247.7817,459.3992 1240.7036,460.6415 1237.0696,463.2833 " opacity="0.9" />
  <polygon fill="rgb(222,41,204)" points="1210.3451,483.3268 1197.9197,507.0245 1201.135,516.5511 1216.4601,488.7974 " opacity="0.9" />
  <polygon fill="rgb(222,41,204)" points="1248.9852,457.5624 1247.3015,456.8734 1238.1079,458.5494 1240.7644,459.0108 " opacity="0.9" />
  <polygon fill="rgb(222,41,204)" points="1273.1859,461.8358 1278.6146,460.2656 1263.1962,458.1983 1259.983,459.9921 " opacity="0.9" />
  <polygon fill="rgb(222,41,204)" points="918.1635,549.2622 923.7716,519.3697 883.6863,507.2463 875.7835,535.7119 " opacity="0.9" />
  <polygon fill="rgb(222,41,204)" points="939.9954,449.7424 941.9594,445.9724 909.7104,437.5939 906.8455,441.0531 " opacity="0.9" />
  <polygon fill="rgb(222,41,204)" points="1247.7817,459.3992 1248.9852,457.5624 1240.7644,459.0108 1240.7036,460.6415 " opacity="0.9" />
  <polygon fill="rgb(222,41,204)" points="937.9859,456.3635 939.9954,449.7424 906.8455,441.0531 903.946,447.3091 " opacity="0.9" />
  <polygon fill="rgb(222,41,204)" points="923.7716,519.3697 930.5848,488.162 893.3691,477.5797 883.6863,507.2463 " opacity="0.9" />
  <polygon fill="rgb(222,41,204)" points="930.5848,488.162 937.9859,456.3635 903.946,447.3091 893.3691,477.5797 " opacity="0.9" />
  <polygon fill="rgb(222,41,204)" points="1226.6765,493.189 1208.903,524.893 1218.6051,529.2207 1237.5924,495.0172 " opacity="0.9" />
  <polygon fill="rgb(222,41,204)" points="1024.3101,643.6483 1026.396,632.2197 969.9691,630.3929 972.1149,641.9472 " opacity="0.9" />
  <polygon fill="rgb(222,41,204)" points="1271.7391,467.1587 1283.171,464.3548 1273.1859,461.8358 1263.8478,464.6891 " opacity="0.9" />
  <polygon fill="rgb(222,41,204)" points="1127.033,571.4164 1123.2061,544.2895 1079.837,554.6941 1082.1173,582.8031 " opacity="0.9" />
  <polygon fill="rgb(222,41,204)" points="1095.4281,443.5411 1093.4529,442.9057 1061.3719,448.9403 1062.639,449.7247 " opacity="0.9" />
  <polygon fill="rgb(222,41,204)" points="1216.4601,488.7974 1201.135,516.5511 1208.903,524.893 1226.6765,493.189 " opacity="0.9" />
  <polygon fill="rgb(222,41,204)" points="984.2351,456.341 986.0703,447.0699 952.3456,442.7375 947.7332,451.5673 " opacity="0.9" />
  <polygon fill="rgb(222,41,204)" points="1233.6095,459.4053 1228.147,461.7185 1229.7421,465.6676 1235.8196,463.1877 " opacity="0.9" />
  <polygon fill="rgb(222,41,204)" points="1290.325,463.1234 1292.599,463.3094 1279.8375,459.9991 1278.6146,460.2656 " opacity="0.9" />
  <polygon fill="rgb(222,41,204)" points="1283.171,464.3548 1290.325,463.1234 1278.6146,460.2656 1273.1859,461.8358 " opacity="0.9" />
  <polygon fill="rgb(222,41,204)" points="1097.9673,447.1914 1095.4281,443.5411 1062.639,449.7247 1064.2471,453.6172 " opacity="0.9" />
  <polygon fill="rgb(222,41,204)" points="1238.1079,458.5494 1233.6095,459.4053 1235.8196,463.1877 1240.6182,461.9352 " opacity="0.9" />
  <polygon fill="rgb(222,41,204)" points="1057.2474,454.9866 1053.4731,445.8732 1020.8133,448.0729 1021.8826,457.4346 " opacity="0.9" />
  <polygon fill="rgb(222,41,204)" points="1100.4253,453.6527 1097.9673,447.1914 1064.2471,453.6172 1065.7822,460.3693 " opacity="0.9" />
  <polygon fill="rgb(222,41,204)" points="969.9691,630.3929 969.2239,611.4313 913.0387,601.9236 915.6952,620.9584 " opacity="0.9" />
  <polygon fill="rgb(222,41,204)" points="1123.2061,544.2895 1116.9569,515.1545 1076.0027,524.3741 1079.837,554.6941 " opacity="0.9" />
  <polygon fill="rgb(222,41,204)" points="1240.7644,459.0108 1238.1079,458.5494 1240.6182,461.9352 1243.2401,461.9333 " opacity="0.9" />
  <polygon fill="rgb(222,41,204)" points="1109.0936,484.7206 1100.4253,453.6527 1065.7822,460.3693 1071.1426,492.6763 " opacity="0.9" />
  <polygon fill="rgb(222,41,204)" points="1229.7421,465.6676 1210.3451,483.3268 1216.4601,488.7974 1241.1947,469.5549 " opacity="0.9" />
  <polygon fill="rgb(222,41,204)" points="1116.9569,515.1545 1109.0936,484.7206 1071.1426,492.6763 1076.0027,524.3741 " opacity="0.9" />
  <polygon fill="rgb(222,41,204)" points="1273.0338,473.3142 1237.5924,495.0172 1245.7445,492.8515 1282.5126,471.2528 " opacity="0.9" />
  <polygon fill="rgb(222,41,204)" points="1273.3116,469.6392 1285.5444,466.9557 1283.171,464.3548 1271.7391,467.1587 " opacity="0.9" />
  <polygon fill="rgb(222,41,204)" points="1079.1841,626.734 1082.3287,607.8269 1027.6779,613.3026 1026.396,632.2197 " opacity="0.9" />
  <polygon fill="rgb(222,41,204)" points="1021.8826,457.4346 1020.8133,448.0729 986.0703,447.0699 984.2351,456.341 " opacity="0.9" />
  <polygon fill="rgb(222,41,204)" points="1285.5444,466.9557 1293.1741,466.1077 1290.325,463.1234 1283.171,464.3548 " opacity="0.9" />
  <polygon fill="rgb(222,41,204)" points="1293.1741,466.1077 1295.5729,466.7739 1292.599,463.3094 1290.325,463.1234 " opacity="0.9" />
  <polygon fill="rgb(222,41,204)" points="1241.1947,469.5549 1216.4601,488.7974 1226.6765,493.189 1257.4181,472.4307 " opacity="0.9" />
  <polygon fill="rgb(222,41,204)" points="1235.8196,463.1877 1229.7421,465.6676 1241.1947,469.5549 1248.3937,466.9237 " opacity="0.9" />
  <polygon fill="rgb(222,41,204)" points="1257.4181,472.4307 1226.6765,493.189 1237.5924,495.0172 1273.0338,473.3142 " opacity="0.9" />
  <polygon fill="rgb(222,41,204)" points="1243.2401,461.9333 1240.6182,461.9352 1253.1196,465.2734 1254.7328,464.8105 " opacity="0.9" />
  <polygon fill="rgb(222,41,204)" points="1240.6182,461.9352 1235.8196,463.1877 1248.3937,466.9237 1253.1196,465.2734 " opacity="0.9" />
  <polygon fill="rgb(222,41,204)" points="969.2239,611.4313 970.0636,586.1304 914.3829,577.0547 913.0387,601.9236 " opacity="0.9" />
  <polygon fill="rgb(222,41,204)" points="1026.396,632.2197 1027.6779,613.3026 969.2239,611.4313 969.9691,630.3929 " opacity="0.9" />
  <polygon fill="rgb(222,41,204)" points="982.1572,451.1816 982.7062,450.3589 943.4058,445.2745 941.9594,445.9724 " opacity="0.9" />
  <polygon fill="rgb(222,41,204)" points="1282.4484,470.5707 1273.0338,473.3142 1282.5126,471.2528 1292.1782,468.6094 " opacity="0.9" />
  <polygon fill="rgb(222,41,204)" points="1278.4399,468.2418 1284.9161,467.6144 1293.1741,466.1077 1285.5444,466.9557 " opacity="0.9" />
  <polygon fill="rgb(222,41,204)" points="981.3735,455.1456 982.1572,451.1816 941.9594,445.9724 939.9954,449.7424 " opacity="0.9" />
  <polygon fill="rgb(222,41,204)" points="1062.639,449.7247 1061.3719,448.9403 1023.2843,451.533 1023.677,452.3837 " opacity="0.9" />
  <polygon fill="rgb(222,41,204)" points="1082.3287,607.8269 1082.1173,582.8031 1027.9735,587.9563 1027.6779,613.3026 " opacity="0.9" />
  <polygon fill="rgb(222,41,204)" points="1284.9161,467.6144 1286.3438,468.5276 1295.5729,466.7739 1293.1741,466.1077 " opacity="0.9" />
  <polygon fill="rgb(222,41,204)" points="1286.3438,468.5276 1282.4484,470.5707 1292.1782,468.6094 1295.5729,466.7739 " opacity="0.9" />
  <polygon fill="rgb(222,41,204)" points="1248.3937,466.9237 1241.1947,469.5549 1257.4181,472.4307 1265.8656,469.7007 " opacity="0.9" />
  <polygon fill="rgb(222,41,204)" points="980.5342,461.9916 981.3735,455.1456 939.9954,449.7424 937.9859,456.3635 " opacity="0.9" />
  <polygon fill="rgb(222,41,204)" points="1254.7328,464.8105 1253.1196,465.2734 1270.2485,467.7521 1270.3397,466.9451 " opacity="0.9" />
  <polygon fill="rgb(222,41,204)" points="1064.2471,453.6172 1062.639,449.7247 1023.677,452.3837 1024.1335,456.3868 " opacity="0.9" />
  <polygon fill="rgb(222,41,204)" points="1253.1196,465.2734 1248.3937,466.9237 1265.8656,469.7007 1270.2485,467.7521 " opacity="0.9" />
  <polygon fill="rgb(222,41,204)" points="970.0636,586.1304 971.8588,557.6362 918.1635,549.2622 914.3829,577.0547 " opacity="0.9" />
  <polygon fill="rgb(222,41,204)" points="1265.8656,469.7007 1257.4181,472.4307 1273.0338,473.3142 1282.4484,470.5707 " opacity="0.9" />
  <polygon fill="rgb(222,41,204)" points="977.3394,494.7253 980.5342,461.9916 937.9859,456.3635 930.5848,488.162 " opacity="0.9" />
  <polygon fill="rgb(222,41,204)" points="1270.3397,466.9451 1270.2485,467.7521 1286.3438,468.5276 1284.9161,467.6144 " opacity="0.9" />
  <polygon fill="rgb(222,41,204)" points="1065.7822,460.3693 1064.2471,453.6172 1024.1335,456.3868 1024.5255,463.2744 " opacity="0.9" />
  <polygon fill="rgb(222,41,204)" points="1270.2485,467.7521 1265.8656,469.7007 1282.4484,470.5707 1286.3438,468.5276 " opacity="0.9" />
  <polygon fill="rgb(222,41,204)" points="1023.677,452.3837 1023.2843,451.533 982.7062,450.3589 982.1572,451.1816 " opacity="0.9" />
  <polygon fill="rgb(222,41,204)" points="971.8588,557.6362 974.3665,526.8748 923.7716,519.3697 918.1635,549.2622 " opacity="0.9" />
  <polygon fill="rgb(222,41,204)" points="974.3665,526.8748 977.3394,494.7253 930.5848,488.162 923.7716,519.3697 " opacity="0.9" />
  <polygon fill="rgb(222,41,204)" points="1082.1173,582.8031 1079.837,554.6941 1027.6511,559.365 1027.9735,587.9563 " opacity="0.9" />
  <polygon fill="rgb(222,41,204)" points="1071.1426,492.6763 1065.7822,460.3693 1024.5255,463.2744 1025.7692,496.1678 " opacity="0.9" />
  <polygon fill="rgb(222,41,204)" points="1027.6779,613.3026 1027.9735,587.9563 970.0636,586.1304 969.2239,611.4313 " opacity="0.9" />
  <polygon fill="rgb(222,41,204)" points="1024.1335,456.3868 1023.677,452.3837 982.1572,451.1816 981.3735,455.1456 " opacity="0.9" />
  <polygon fill="rgb(222,41,204)" points="1076.0027,524.3741 1071.1426,492.6763 1025.7692,496.1678 1026.8636,528.4707 " opacity="0.9" />
  <polygon fill="rgb(222,41,204)" points="1079.837,554.6941 1076.0027,524.3741 1026.8636,528.4707 1027.6511,559.365 " opacity="0.9" />
  <polygon fill="rgb(222,41,204)" points="1024.5255,463.2744 1024.1335,456.3868 981.3735,455.1456 980.5342,461.9916 " opacity="0.9" />
  <polygon fill="rgb(222,41,204)" points="1025.7692,496.1678 1024.5255,463.2744 980.5342,461.9916 977.3394,494.7253 " opacity="0.9" />
  <polygon fill="rgb(222,41,204)" points="1027.9735,587.9563 1027.6511,559.365 971.8588,557.6362 970.0636,586.1304 " opacity="0.9" />
  <polygon fill="rgb(222,41,204)" points="1026.8636,528.4707 1025.7692,496.1678 977.3394,494.7253 974.3665,526.8748 " opacity="0.9" />
  <polygon fill="rgb(222,41,204)" points="1027.6511,559.365 1026.8636,528.4707 974.3665,526.8748 971.8588,557.6362 " opacity="0.9" />
</g>

</g>  <!-- end Teapot -->

<g id="relaciones" stroke="rgb(176,166,227)" fill="none">
</g>
</g>

</svg>

