<svg xmlns="http://www.w3.org/2000/svg" xmlns:inkscape="http://www.inkscape.org/namespaces/inkscape" xmlns:xlink="http://www.w3.org/1999/xlink" width="210.0mm" height="297.0mm">
<defs>
</defs>
<g id="torus" >
<g>
<line x1="-24.40195534783008" y1="1149.4650292454241" x2="-24.31554119087219" y2="1150.190530598952" /><line x1="-24.31554119087219" y1="1150.190530598952" x2="-24.155564952491353" y2="1150.852249162888" /><line x1="-24.155564952491353" y1="1150.852249162888" x2="-23.924430342520306" y2="1151.446697643117" /><line x1="-23.924430342520306" y1="1151.446697643117" x2="-23.624773106511352" y2="1151.9705847368596" /><line x1="-23.624773106511352" y1="1151.9705847368596" x2="-23.25945201464045" y2="1152.420833154864" /><line x1="-23.25945201464045" y1="1152.420833154864" x2="-22.8315308395154" y2="1152.7945886325024" /><line x1="-22.8315308395154" y1="1152.7945886325024" x2="-22.344271597853922" y2="1153.089228940866" /><line x1="-22.344271597853922" y1="1153.089228940866" x2="-21.80111878106582" y2="1153.302375150636" /><line x1="-21.80111878106582" y1="1153.302375150636" x2="-21.20568583860912" y2="1153.431907401501" /><line x1="-21.20568583860912" y1="1153.431907401501" x2="-20.561737155798266" y2="1153.4759649021557" /><line x1="-20.561737155798266" y1="1153.4759649021557" x2="-19.87318805380411" y2="1153.4329571941737" /><line x1="-19.87318805380411" y1="1153.4329571941737" x2="-19.14406649249632" y2="1153.3015709103265" /><line x1="-19.14406649249632" y1="1153.3015709103265" x2="-18.378516449604355" y2="1153.0807810384547" /><line x1="-18.378516449604355" y1="1153.0807810384547" x2="-17.580775392977678" y2="1152.7698419103724" /><line x1="-17.580775392977678" y1="1152.7698419103724" x2="-16.755156258393967" y2="1152.3683074768321" /><line x1="-16.755156258393967" y1="1152.3683074768321" x2="-15.906032806528257" y2="1151.8760222964293" /><line x1="-15.906032806528257" y1="1151.8760222964293" x2="-15.037822727148127" y2="1151.2931282939248" /><line x1="-15.037822727148127" y1="1151.2931282939248" x2="-14.154970743308864" y2="1150.620067013018" /><line x1="-14.154970743308864" y1="1150.620067013018" x2="-13.261930589161668" y2="1149.857572858025" /><line x1="-13.261930589161668" y1="1149.857572858025" x2="-12.363151493309783" y2="1149.0066843577488" /><line x1="-12.363151493309783" y1="1149.0066843577488" x2="-11.463055651068734" y2="1148.0687261432877" /><line x1="-11.463055651068734" y1="1148.0687261432877" x2="-10.56602921337043" y2="1147.0453157063564" /><line x1="-10.56602921337043" y1="1147.0453157063564" x2="-9.676396379862426" y2="1145.9383588937392" /><line x1="-9.676396379862426" y1="1145.9383588937392" x2="-8.798412640586006" y2="1144.750038643419" /><line x1="-8.798412640586006" y1="1144.750038643419" x2="-7.936242248236405" y2="1143.482814984578" /><line x1="-7.936242248236405" y1="1143.482814984578" x2="-7.09394413832547" y2="1142.1394160265017" /><line x1="-7.09394413832547" y1="1142.1394160265017" x2="-6.275458975731289" y2="1140.7228255683215" /><line x1="-6.275458975731289" y1="1140.7228255683215" x2="-5.484591695699876" y2="1139.236279719854" /><line x1="-5.484591695699876" y1="1139.236279719854" x2="-4.724998550394809" y2="1137.6832533849588" /><line x1="-4.724998550394809" y1="1137.6832533849588" x2="-4.000173873850116" y2="1136.067452376826" /><line x1="-4.000173873850116" y1="1136.067452376826" x2="-3.313436283729672" y2="1134.3927965221746" /><line x1="-3.313436283729672" y1="1134.3927965221746" x2="-2.6679160094735828" y2="1132.6634140293163" /><line x1="-2.6679160094735828" y1="1132.6634140293163" x2="-2.0665451772104095" y2="1130.8836217763833" /><line x1="-2.0665451772104095" y1="1130.8836217763833" x2="-1.5120451379035547" y2="1129.0579168634258" /><line x1="-1.5120451379035547" y1="1129.0579168634258" x2="-1.0069171746586068" y2="1127.19095774543" /><line x1="-1.0069171746586068" y1="1127.19095774543" x2="-0.553433280429878" y2="1125.2875532500454" /><line x1="-0.553433280429878" y1="1125.2875532500454" x2="-0.15362786851616073" y2="1123.3526434290052" /><line x1="-0.15362786851616073" y1="1123.3526434290052" x2="0.1907097601522548" y2="1121.3912856894867" /><line x1="0.1907097601522548" y1="1121.3912856894867" x2="0.47804187613896576" y2="1119.4086374055132" /><line x1="0.47804187613896576" y1="1119.4086374055132" x2="0.7070878126380242" y2="1117.4099400077364" /><line x1="0.7070878126380242" y1="1117.4099400077364" x2="0.8768285590208731" y2="1115.4004994124632" /><line x1="0.8768285590208731" y1="1115.4004994124632" x2="0.9865104919932447" y2="1113.3856729978063" /><line x1="0.9865104919932447" y1="1113.3856729978063" x2="1.0356477163681201" y2="1111.3708477095363" /><line x1="1.0356477163681201" y1="1111.3708477095363" x2="1.024023965843772" y2="1109.361422883681" /><line x1="1.024023965843772" y1="1109.361422883681" x2="0.9516927438021383" y2="1107.3627978562681" /><line x1="0.9516927438021383" y1="1107.3627978562681" x2="0.8189773937080085" y2="1105.3803454932313" /><line x1="0.8189773937080085" y1="1105.3803454932313" x2="0.6264694095285415" y2="1103.4194037425075" /><line x1="0.6264694095285415" y1="1103.4194037425075" x2="0.3750256901649825" y2="1101.4852486007492" /><line x1="0.3750256901649825" y1="1101.4852486007492" x2="0.0657657410849886" y2="1099.5830851022288" /><line x1="0.0657657410849886" y1="1099.5830851022288" x2="-0.2999333768190209" y2="1097.7180247910983" /><line x1="-0.2999333768190209" y1="1097.7180247910983" x2="-0.7204421159713111" y2="1095.8950755839073" /><line x1="-0.7204421159713111" y1="1095.8950755839073" x2="-1.193885024436794" y2="1094.1191124835407" /><line x1="-1.193885024436794" y1="1094.1191124835407" x2="-1.7181474866431607" y2="1092.3948775792185" /><line x1="-1.7181474866431607" y1="1092.3948775792185" x2="-2.2908849984737363" y2="1090.7269507604344" /><line x1="-2.2908849984737363" y1="1090.7269507604344" x2="-2.909530805579245" y2="1089.1197474641822" /><line x1="-2.909530805579245" y1="1089.1197474641822" x2="-3.5713070968485026" y2="1087.5774916416674" /><line x1="-3.5713070968485026" y1="1087.5774916416674" x2="-4.273234578697818" y2="1086.10421125276" /><line x1="-4.273234578697818" y1="1086.10421125276" x2="-5.012145006126237" y2="1084.7037202438014" /><line x1="-5.012145006126237" y1="1084.7037202438014" x2="-5.784692164988672" y2="1083.3796072837363" /><line x1="-5.784692164988672" y1="1083.3796072837363" x2="-6.587365670236515" y2="1082.1352245002413" /><line x1="-6.587365670236515" y1="1082.1352245002413" x2="-7.416504200964742" y2="1080.9736852269518" /><line x1="-7.416504200964742" y1="1080.9736852269518" x2="-8.268309580249268" y2="1079.8978324646257" /><line x1="-8.268309580249268" y1="1079.8978324646257" x2="-9.1388602917908" y2="1078.910256903336" /><line x1="-9.1388602917908" y1="1078.910256903336" x2="-10.024127812526178" y2="1078.0132608780864" /><line x1="-10.024127812526178" y1="1078.0132608780864" x2="-10.919992945239686" y2="1077.2088808965514" /><line x1="-10.919992945239686" y1="1077.2088808965514" x2="-11.822259335206924" y2="1076.498856100241" /><line x1="-11.822259335206924" y1="1076.498856100241" x2="-12.726669239612638" y2="1075.8846327700478" /><line x1="-12.726669239612638" y1="1075.8846327700478" x2="-13.628924365709995" y2="1075.3673733373435" /><line x1="-13.628924365709995" y1="1075.3673733373435" x2="-14.524698261077463" y2="1074.9479203395954" /><line x1="-14.524698261077463" y1="1074.9479203395954" x2="-15.409652083036637" y2="1074.6268324647497" /><line x1="-15.409652083036637" y1="1074.6268324647497" x2="-16.279456000005016" y2="1074.4043620234916" /><line x1="-16.279456000005016" y1="1074.4043620234916" x2="-17.12980270813987" y2="1074.2804459381498" /><line x1="-17.12980270813987" y1="1074.2804459381498" x2="-17.956425453530034" y2="1074.254737281532" /><line x1="-17.956425453530034" y1="1074.254737281532" x2="-18.75511267522677" y2="1074.326578243637" /><line x1="-18.75511267522677" y1="1074.326578243637" x2="-19.521726027435562" y2="1074.495013648299" /><line x1="-19.521726027435562" y1="1074.495013648299" x2="-20.25221502254698" y2="1074.758804469831" /><line x1="-20.25221502254698" y1="1074.758804469831" x2="-20.942640685263417" y2="1075.1164188219286" /><line x1="-20.942640685263417" y1="1075.1164188219286" x2="-21.589175552599094" y2="1075.5660409687678" /><line x1="-21.589175552599094" y1="1075.5660409687678" x2="-22.188131833554767" y2="1076.1055848416459" /><line x1="-22.188131833554767" y1="1076.1055848416459" x2="-22.735974925761578" y2="1076.7326985445316" /><line x1="-22.735974925761578" y1="1076.7326985445316" x2="-23.229330173802992" y2="1077.4447688596124" /><line x1="-23.229330173802992" y1="1077.4447688596124" x2="-23.66500314418058" y2="1078.2389437750346" /><line x1="-23.66500314418058" y1="1078.2389437750346" x2="-24.0399908891839" y2="1079.1121234738066" /><line x1="-24.0399908891839" y1="1079.1121234738066" x2="-24.351488705212425" y2="1080.0609873670871" /><line x1="-24.351488705212425" y1="1080.0609873670871" x2="-24.596912660515308" y2="1081.0819985997334" /><line x1="-24.596912660515308" y1="1081.0819985997334" x2="-24.773904100739333" y2="1082.171431083589" /><line x1="-24.773904100739333" y1="1082.171431083589" x2="-24.880334154476877" y2="1083.3253604863864" /><line x1="-24.880334154476877" y1="1083.3253604863864" x2="-24.91432175545771" y2="1084.5396867594893" /><line x1="-24.91432175545771" y1="1084.5396867594893" x2="-24.87424265364489" y2="1085.810165676726" /><line x1="-24.87424265364489" y1="1085.810165676726" x2="-24.758727162460826" y2="1087.132399823295" /><line x1="-24.758727162460826" y1="1087.132399823295" x2="-24.566673675431083" y2="1088.5018678818253" /><line x1="-24.566673675431083" y1="1088.5018678818253" x2="-24.297255424506353" y2="1089.9139381490222" /><line x1="-24.297255424506353" y1="1089.9139381490222" x2="-23.949918227288457" y2="1091.363882052309" /><line x1="-23.949918227288457" y1="1091.363882052309" x2="-23.524389498126265" y2="1092.8468944247943" /><line x1="-23.524389498126265" y1="1092.8468944247943" x2="-23.020682753663632" y2="1094.358113780237" /><line x1="-23.020682753663632" y1="1094.358113780237" x2="-22.43909085451748" y2="1095.8926290713691" /><line x1="-22.43909085451748" y1="1095.8926290713691" x2="-21.78019726914768" y2="1097.4455044704082" /><line x1="-21.78019726914768" y1="1097.4455044704082" x2="-21.044860304439208" y2="1099.0117996440242" /><line x1="-21.044860304439208" y1="1099.0117996440242" x2="-20.234228875119996" y2="1100.5865765116612" /><line x1="-20.234228875119996" y1="1100.5865765116612" x2="-19.349731239891028" y2="1102.1649285315987" /><line x1="-19.349731239891028" y1="1102.1649285315987" x2="-18.393068243104434" y2="1103.7419874592736" /><line x1="-18.393068243104434" y1="1103.7419874592736" x2="-17.36621556753745" y2="1105.3129458750207" /><line x1="-17.36621556753745" y1="1105.3129458750207" x2="-16.271413596909532" y2="1106.8730729534896" /><line x1="-16.271413596909532" y1="1106.8730729534896" x2="-15.111161783947418" y2="1108.417730233063" /><line x1="-15.111161783947418" y1="1108.417730233063" x2="-13.888214144837164" y2="1109.9423885116616" /><line x1="-13.888214144837164" y1="1109.9423885116616" x2="-12.605566868967282" y2="1111.4426413633878" /><line x1="-12.605566868967282" y1="1111.4426413633878" x2="-11.266448181445847" y2="1112.9142220343301" /><line x1="-11.266448181445847" y1="1112.9142220343301" x2="-9.874313837552547" y2="1114.3530163960147" /><line x1="-9.874313837552547" y1="1114.3530163960147" x2="-8.432832479707825" y2="1115.7550787148216" /><line x1="-8.432832479707825" y1="1115.7550787148216" x2="-6.945870994442045" y2="1117.1166434790496" /><line x1="-6.945870994442045" y1="1117.1166434790496" x2="-5.417488880460548" y2="1118.4341375075755" /><line x1="-5.417488880460548" y1="1118.4341375075755" x2="-3.8519179736778613" y2="1119.7041934664983" /><line x1="-3.8519179736778613" y1="1119.7041934664983" x2="-2.2535534361217975" y2="1120.9236588802346" /><line x1="-2.2535534361217975" y1="1120.9236588802346" x2="-0.6269373529229365" y2="1122.0896083105788" /><line x1="-0.6269373529229365" y1="1122.0896083105788" x2="1.0232565443088992" y2="1123.1993513822097" /><line x1="1.0232565443088992" y1="1123.1993513822097" x2="2.6922378021122393" y2="1124.2504418641854" /><line x1="2.6922378021122393" y1="1124.2504418641854" x2="4.375115718583666" y2="1125.2406851322582" /><line x1="4.375115718583666" y1="1125.2406851322582" x2="6.06691518319484" y2="1126.1681442936028" /><line x1="6.06691518319484" y1="1126.1681442936028" x2="7.762594487786739" y2="1127.0311473675333" /><line x1="7.762594487786739" y1="1127.0311473675333" x2="9.457061799979376" y2="1127.8282903126692" /><line x1="9.457061799979376" y1="1127.8282903126692" x2="11.145189243009137" y2="1128.5584413916843" /><line x1="11.145189243009137" y1="1128.5584413916843" x2="12.821838802629518" y2="1129.2207445504673" /><line x1="12.821838802629518" y1="1129.2207445504673" x2="14.481868522239553" y2="1129.8146196997193" /><line x1="14.481868522239553" y1="1129.8146196997193" x2="16.12016009936503" y2="1130.3397644045342" /><line x1="16.12016009936503" y1="1130.3397644045342" x2="17.73163014952837" y2="1130.796153884398" /><line x1="17.73163014952837" y1="1130.796153884398" x2="19.311249354827424" y2="1131.1840393236093" /><line x1="19.311249354827424" y1="1131.1840393236093" x2="20.854059359740305" y2="1131.5039433657305" /><line x1="20.854059359740305" y1="1131.5039433657305" x2="22.355195298865127" y2="1131.7566612399753" /><line x1="22.355195298865127" y1="1131.7566612399753" x2="23.80988804969401" y2="1131.943252313306" /><line x1="23.80988804969401" y1="1131.943252313306" x2="25.213499150609707" y2="1132.0650355848857" /><line x1="25.213499150609707" y1="1132.0650355848857" x2="26.561523053659556" y2="1132.1235863069173" /><line x1="26.561523053659556" y1="1132.1235863069173" x2="27.8496073995213" y2="1132.1207252839674" /><line x1="27.8496073995213" y1="1132.1207252839674" x2="29.073573292468854" y2="1132.058510425063" /><line x1="29.073573292468854" y1="1132.058510425063" x2="30.229415300372313" y2="1131.9392322381452" /><line x1="30.229415300372313" y1="1131.9392322381452" x2="31.313335246307584" y2="1131.7653997502293" /><line x1="31.313335246307584" y1="1131.7653997502293" x2="32.321735450234485" y2="1131.5397309331183" /><line x1="32.321735450234485" y1="1131.5397309331183" x2="33.251248015058394" y2="1131.2651420027246" /><line x1="33.251248015058394" y1="1131.2651420027246" x2="34.09873707940428" y2="1130.944735028813" /><line x1="34.09873707940428" y1="1130.944735028813" x2="34.861307828712555" y2="1130.5817849815523" /><line x1="34.861307828712555" y1="1130.5817849815523" x2="35.536329022978876" y2="1130.1797262148689" /><line x1="35.536329022978876" y1="1130.1797262148689" x2="36.12142623843219" y2="1129.7421395129984" /><line x1="36.12142623843219" y1="1129.7421395129984" x2="36.61450214250054" y2="1129.2727357578733" /><line x1="36.61450214250054" y1="1129.2727357578733" x2="37.01374325213298" y2="1128.7753429756729" /><line x1="37.01374325213298" y1="1128.7753429756729" x2="37.31761317547767" y2="1128.2538888778247" /><line x1="37.31761317547767" y1="1128.2538888778247" x2="37.52487964516954" y2="1127.7123867811679" /><line x1="37.52487964516954" y1="1127.7123867811679" x2="37.6346010016865" y2="1127.1549195569373" /><line x1="37.6346010016865" y1="1127.1549195569373" x2="37.64613745721926" y2="1126.5856213269767" /><line x1="37.64613745721926" y1="1126.5856213269767" x2="37.55915109567139" y2="1126.0086631023032" /><line x1="37.55915109567139" y1="1126.0086631023032" x2="37.37361263098118" y2="1125.4282361688995" /><line x1="37.37361263098118" y1="1125.4282361688995" x2="37.0897923960258" y2="1124.8485333615308" /><line x1="37.0897923960258" y1="1124.8485333615308" x2="36.70827160649113" y2="1124.273734561512" /><line x1="36.70827160649113" y1="1124.273734561512" x2="36.229928844227956" y2="1123.7079892377087" /><line x1="36.229928844227956" y1="1123.7079892377087" x2="35.65594231002588" y2="1123.1553997619314" /><line x1="35.65594231002588" y1="1123.1553997619314" x2="34.98779207638736" y2="1122.6200052435208" /><line x1="34.98779207638736" y1="1122.6200052435208" x2="34.227242065335844" y2="1122.105765733531" /><line x1="34.227242065335844" y1="1122.105765733531" x2="33.37634905951173" y2="1121.6165461209152" /><line x1="33.37634905951173" y1="1121.6165461209152" x2="32.437442427206534" y2="1121.1561009439022" /><line x1="32.437442427206534" y1="1121.1561009439022" x2="31.413128627910872" y2="1120.7280592453694" /><line x1="31.413128627910872" y1="1120.7280592453694" x2="30.30627093734865" y2="1120.335910149811" /><line x1="30.30627093734865" y1="1120.335910149811" x2="29.119989447477074" y2="1119.9829886075026" /><line x1="29.119989447477074" y1="1119.9829886075026" x2="27.85764754984281" y2="1119.6724625818483" /><line x1="27.85764754984281" y1="1119.6724625818483" x2="26.522833913390134" y2="1119.4073189695437" /><line x1="26.522833913390134" y1="1119.4073189695437" x2="25.119364737234946" y2="1119.1903537446901" /><line x1="25.119364737234946" y1="1119.1903537446901" x2="23.65125671737704" y2="1119.024157315764" /><line x1="23.65125671737704" y1="1119.024157315764" x2="22.122724793926118" y2="1118.9111072041003" /><line x1="22.122724793926118" y1="1118.9111072041003" x2="20.538157370588063" y2="1118.8533556536365" /><line x1="20.538157370588063" y1="1118.8533556536365" x2="18.90211180911698" y2="1118.852822027801" /><line x1="18.90211180911698" y1="1118.852822027801" x2="17.219290775188455" y2="1118.9111837984153" /><line x1="17.219290775188455" y1="1118.9111837984153" x2="15.49453548007761" y2="1119.0298697873743" /><line x1="15.49453548007761" y1="1119.0298697873743" x2="13.73279752098441" y2="1119.2100539715163" /><line x1="13.73279752098441" y1="1119.2100539715163" x2="11.939134375485706" y2="1119.4526492874952" /><line x1="11.939134375485706" y1="1119.4526492874952" x2="10.118684621021496" y2="1119.7583039710225" /><line x1="10.118684621021496" y1="1119.7583039710225" x2="8.276653855057578" y2="1120.1273976145137" /><line x1="8.276653855057578" y1="1120.1273976145137" x2="6.418297236087226" y2="1120.5600391959094" /><line x1="6.418297236087226" y1="1120.5600391959094" x2="4.548899208665406" y2="1121.0560649667013" /><line x1="4.548899208665406" y1="1121.0560649667013" x2="2.6737605499584136" y2="1121.6150386631293" /><line x1="2.6737605499584136" y1="1121.6150386631293" x2="0.798176827592723" y2="1122.236251910976" /><line x1="0.798176827592723" y1="1122.236251910976" x2="-1.0725776513595924" y2="1122.9187256511518" /><line x1="-1.0725776513595924" y1="1122.9187256511518" x2="-2.9332674401775507" y2="1123.661212850062" /><line x1="-2.9332674401775507" y1="1123.661212850062" x2="-4.778713129892831" y2="1124.4622020547665" /><line x1="-4.778713129892831" y1="1124.4622020547665" x2="-6.603809793876707" y2="1125.319922514521" /><line x1="-6.603809793876707" y1="1125.319922514521" x2="-8.403541912467634" y2="1126.232348351928" /><line x1="-8.403541912467634" y1="1126.232348351928" x2="-10.173001254364692" y2="1127.1972072220372" /><line x1="-10.173001254364692" y1="1127.1972072220372" x2="-11.907401801255178" y2="1128.2119855922847" /><line x1="-11.907401801255178" y1="1128.2119855922847" x2="-13.602096080425929" y2="1129.2739387391766" /><line x1="-13.602096080425929" y1="1129.2739387391766" x2="-15.252592060568153" y2="1130.3800997593867" /><line x1="-15.252592060568153" y1="1130.3800997593867" x2="-16.854564415647303" y2="1131.52728773606" /><line x1="-16.854564415647303" y1="1131.52728773606" x2="-18.403870294320914" y2="1132.7121223818453" /><line x1="-18.403870294320914" y1="1132.7121223818453" x2="-19.89656283658247" y2="1133.9310307972162" /><line x1="-19.89656283658247" y1="1133.9310307972162" x2="-21.32890131124427" y2="1135.180264929469" /><line x1="-21.32890131124427" y1="1135.180264929469" x2="-22.69736913812928" y2="1136.4559117102076" /><line x1="-22.69736913812928" y1="1136.4559117102076" x2="-23.998675014458083" y2="1137.7539071351782" /><line x1="-23.998675014458083" y1="1137.7539071351782" x2="-25.22977544258866" y2="1139.0700486545281" /><line x1="-25.22977544258866" y1="1139.0700486545281" x2="-26.38787247724242" y2="1140.4000165741577" /><line x1="-26.38787247724242" y1="1140.4000165741577" x2="-27.470429494922016" y2="1141.7393819404294" /><line x1="-27.470429494922016" y1="1141.7393819404294" x2="-28.475173446685336" y2="1143.083623435973" /><line x1="-28.475173446685336" y1="1143.083623435973" x2="-29.400108374789355" y2="1144.4281532865857" /><line x1="-29.400108374789355" y1="1144.4281532865857" x2="-30.243515412690137" y2="1145.7683127556843" /><line x1="-30.243515412690137" y1="1145.7683127556843" x2="-31.003957290590783" y2="1147.0994160733978" /><line x1="-31.003957290590783" y1="1147.0994160733978" x2="-31.680285093763374" y2="1148.4167414254723" /><line x1="-31.680285093763374" y1="1148.4167414254723" x2="-32.27164051532292" y2="1149.7155669976532" /><line x1="-32.27164051532292" y1="1149.7155669976532" x2="-32.77745135067944" y2="1150.991177734008" /><line x1="-32.77745135067944" y1="1150.991177734008" x2="-33.19744276140783" y2="1152.238885611892" /><line x1="-33.19744276140783" y1="1152.238885611892" x2="-33.5316305169259" y2="1153.4540476641403" /><line x1="-33.5316305169259" y1="1153.4540476641403" x2="-33.780311983398555" y2="1154.6320794957105" /><line x1="-33.780311983398555" y1="1154.6320794957105" x2="-33.944079640381545" y2="1155.7684778114242" /><line x1="-33.944079640381545" y1="1155.7684778114242" x2="-34.023803058629746" y2="1156.858829427062" /><line x1="-34.023803058629746" y1="1156.858829427062" x2="-34.02064016396699" y2="1157.8988383026506" /><line x1="-34.02064016396699" y1="1157.8988383026506" x2="-33.93600795122437" y2="1158.8843255424642" /><line x1="-33.93600795122437" y1="1158.8843255424642" x2="-33.7716005064321" y2="1159.8112609338593" /><line x1="-33.7716005064321" y1="1159.8112609338593" x2="-33.529364226305724" y2="1160.6757697055964" /><line x1="-33.529364226305724" y1="1160.6757697055964" x2="-33.21150457656805" y2="1161.4741482972584" /><line x1="-33.21150457656805" y1="1161.4741482972584" x2="-32.820459058661484" y2="1162.202880128668" /><line x1="-32.820459058661484" y1="1162.202880128668" x2="-32.35889946252193" y2="1162.8586446109848" /><line x1="-32.35889946252193" y1="1162.8586446109848" x2="-31.829722855482956" y2="1163.438332916121" /><line x1="-31.829722855482956" y1="1163.438332916121" x2="-31.236026801762005" y2="1163.939056987839" /><line x1="-31.236026801762005" y1="1163.939056987839" x2="-30.581113868008373" y2="1164.3581765750384" /><line x1="-30.581113868008373" y1="1164.3581765750384" x2="-29.868462337241503" y2="1164.693281209565" /><line x1="-29.868462337241503" y1="1164.693281209565" x2="-29.101723956077024" y2="1164.942221745045" /><line x1="-29.101723956077024" y1="1164.942221745045" x2="-28.284705912534925" y2="1165.1031103568862" /><line x1="-28.284705912534925" y1="1165.1031103568862" x2="-27.42135506662173" y2="1165.1743340589217" /><line x1="-27.42135506662173" y1="1165.1743340589217" x2="-26.515744433686635" y2="1165.1545501978617" /><line x1="-26.515744433686635" y1="1165.1545501978617" x2="-25.57205741500368" y2="1165.042708981033" /><line x1="-25.57205741500368" y1="1165.042708981033" x2="-24.59456752280595" y2="1164.8380444652837" /><line x1="-24.59456752280595" y1="1164.8380444652837" x2="-23.587631621963666" y2="1164.540079062531" /><line x1="-23.587631621963666" y1="1164.540079062531" x2="-22.55566064392247" y2="1164.1486415619524" /><line x1="-22.55566064392247" y1="1164.1486415619524" x2="-21.50311508115549" y2="1163.6638491077952" /><line x1="-21.50311508115549" y1="1163.6638491077952" x2="-20.434482459423563" y2="1163.0861207160183" /><line x1="-20.434482459423563" y1="1163.0861207160183" x2="-19.35425481003549" y2="1162.4161727687467" /><line x1="-19.35425481003549" y1="1162.4161727687467" x2="-18.266924164300057" y2="1161.6550145087217" /><line x1="-18.266924164300057" y1="1161.6550145087217" x2="-17.17695664662534" y2="1160.8039570503972" /><line x1="-17.17695664662534" y1="1160.8039570503972" x2="-16.08877783148782" y2="1159.8645998632967" /><line x1="-16.08877783148782" y1="1159.8645998632967" x2="-15.006759226788567" y2="1158.8388240136906" /><line x1="-15.006759226788567" y1="1158.8388240136906" x2="-13.935195746113441" y2="1157.7288011756916" /><line x1="-13.935195746113441" y1="1157.7288011756916" x2="-12.878295571250224" y2="1156.5369688507424" /><line x1="-12.878295571250224" y1="1156.5369688507424" x2="-11.840162129996788" y2="1155.2660371259362" /><line x1="-11.840162129996788" y1="1155.2660371259362" x2="-10.824779453130269" y2="1153.9189796629223" /><line x1="-10.824779453130269" y1="1153.9189796629223" x2="-9.835996404989217" y2="1152.4990111701645" /><line x1="-9.835996404989217" y1="1152.4990111701645" x2="-8.877513730023246" y2="1151.0095964140385" /><line x1="-8.877513730023246" y1="1151.0095964140385" x2="-7.952870536149161" y2="1149.4544231855434" /><line x1="-7.952870536149161" y1="1149.4544231855434" x2="-7.0654290885266295" y2="1147.8373977947545" /><line x1="-7.0654290885266295" y1="1147.8373977947545" x2="-6.218365798462271" y2="1146.1626383125003" /><line x1="-6.218365798462271" y1="1146.1626383125003" x2="-5.414657143572306" y2="1144.4344497898496" /><line x1="-5.414657143572306" y1="1144.4344497898496" x2="-4.657070375089904" y2="1142.6573129942412" /><line x1="-4.657070375089904" y1="1142.6573129942412" x2="-3.9481514092050607" y2="1140.8358810303232" /><line x1="-3.9481514092050607" y1="1140.8358810303232" x2="-3.2902183503394156" y2="1138.9749478011174" /><line x1="-3.2902183503394156" y1="1138.9749478011174" x2="-2.685351635260105" y2="1137.079448008019" /><line x1="-2.685351635260105" y1="1137.079448008019" x2="-2.1353857259757265" y2="1135.1544267383476" /><line x1="-2.1353857259757265" y1="1135.1544267383476" x2="-1.641904885785131" y2="1133.2050360861874" /><line x1="-1.641904885785131" y1="1133.2050360861874" x2="-1.2062358577620014" y2="1131.2365069927114" /><line x1="-1.2062358577620014" y1="1131.2365069927114" x2="-0.8294437112028322" y2="1129.2541419246663" /><line x1="-0.8294437112028322" y1="1129.2541419246663" x2="-0.5123286032643399" y2="1127.2632900938588" /><line x1="-0.5123286032643399" y1="1127.2632900938588" x2="-0.2554227165988382" y2="1125.2693330957218" /><line x1="-0.2554227165988382" y1="1125.2693330957218" x2="-0.05898893936948608" y2="1123.2776675207144" /><line x1="-0.05898893936948608" y1="1123.2776675207144" x2="0.0769798211417824" y2="1121.2936861577405" /><line x1="0.0769798211417824" y1="1121.2936861577405" x2="0.1527602161391381" y2="1119.3227608167454" /><line x1="0.1527602161391381" y1="1119.3227608167454" x2="0.1688969769299347" y2="1117.3702241657272" /><line x1="0.1688969769299347" y1="1117.3702241657272" x2="0.12620050375256203" y2="1115.4413529053304" /><line x1="0.12620050375256203" y1="1115.4413529053304" x2="0.025743433816091715" y2="1113.5413498170533" /><line x1="0.025743433816091715" y1="1113.5413498170533" x2="-0.13114383784798056" y2="1111.6753270082415" /><line x1="-0.13114383784798056" y1="1111.6753270082415" x2="-0.3428785351236239" y2="1109.8482901426705" /><line x1="-0.3428785351236239" y1="1109.8482901426705" x2="-0.6076317839376904" y2="1108.0651181655796" /><line x1="-0.6076317839376904" y1="1108.0651181655796" x2="-0.9233359513751349" y2="1106.330552039802" /><line x1="-0.9233359513751349" y1="1106.330552039802" x2="-1.287692926383358" y2="1104.6491772867662" /><line x1="-1.287692926383358" y1="1104.6491772867662" x2="-1.6981828404714658" y2="1103.025409343466" /><line x1="-1.6981828404714658" y1="1103.025409343466" x2="-2.152074134793976" y2="1101.463475540268" /><line x1="-2.152074134793976" y1="1101.463475540268" x2="-2.646434401625579" y2="1099.9674105953638" /><line x1="-2.646434401625579" y1="1099.9674105953638" x2="-3.1781414370334624" y2="1098.5410307078696" /><line x1="-3.1781414370334624" y1="1098.5410307078696" x2="-3.743895771932548" y2="1097.187933557825" /><line x1="-3.743895771932548" y1="1097.187933557825" x2="-4.340233484737488" y2="1095.9114802840031" /><line x1="-4.340233484737488" y1="1095.9114802840031" x2="-4.963538591619533" y2="1094.714781967265" /><line x1="-4.963538591619533" y1="1094.714781967265" x2="-5.610059942311352" y2="1093.6006973777867" /><line x1="-5.610059942311352" y1="1093.6006973777867" x2="-6.2759213575899295" y2="1092.571821711189" /><line x1="-6.2759213575899295" y1="1092.571821711189" x2="-6.957140496258615" y2="1091.6304708191194" /><line x1="-6.957140496258615" y1="1091.6304708191194" x2="-7.649643779774719" y2="1090.7786857148008" /><line x1="-7.649643779774719" y1="1090.7786857148008" x2="-8.34927934569987" y2="1090.0182190563862" /><line x1="-8.34927934569987" y1="1090.0182190563862" x2="-9.051836759472316" y2="1089.350530641413" /><line x1="-9.051836759472316" y1="1089.350530641413" x2="-9.753061657437765" y2="1088.7767874068002" /><line x1="-9.753061657437765" y1="1088.7767874068002" x2="-10.448670953073727" y2="1088.2978566705292" /><line x1="-10.448670953073727" y1="1088.2978566705292" x2="-11.134373675148796" y2="1087.914301626094" /><line x1="-11.134373675148796" y1="1087.914301626094" x2="-11.805883921173011" y2="1087.6263858480497" /><line x1="-11.805883921173011" y1="1087.6263858480497" x2="-12.458938316396175" y2="1087.4340710392387" /><line x1="-12.458938316396175" y1="1087.4340710392387" x2="-13.089312909612678" y2="1087.3370147780165" /><line x1="-13.089312909612678" y1="1087.3370147780165" x2="-13.692841195353305" y2="1087.334581782122" /><line x1="-13.692841195353305" y1="1087.334581782122" x2="-14.26542875691608" y2="1087.4258348975811" /><line x1="-14.26542875691608" y1="1087.4258348975811" x2="-14.8030701621711" y2="1087.6095486153506" /><line x1="-14.8030701621711" y1="1087.6095486153506" x2="-15.301864732978354" y2="1087.8842068185443" /><line x1="-15.301864732978354" y1="1087.8842068185443" x2="-15.758032314605568" y2="1088.248018551851" /><line x1="-15.758032314605568" y1="1088.248018551851" x2="-16.167926792372057" y2="1088.6989135159865" /><line x1="-16.167926792372057" y1="1088.6989135159865" x2="-16.52805524022753" y2="1089.2345578371117" /><line x1="-16.52805524022753" y1="1089.2345578371117" x2="-16.83508467907401" y2="1089.852365330701" /><line x1="-16.83508467907401" y1="1089.852365330701" x2="-17.08586235173163" y2="1090.549495248771" /><line x1="-17.08586235173163" y1="1090.549495248771" x2="-17.277426986808514" y2="1091.3228748076178" /><line x1="-17.277426986808514" y1="1091.3228748076178" x2="-17.407016683409676" y2="1092.169208198914" /><line x1="-17.407016683409676" y1="1092.169208198914" x2="-17.472085806941877" y2="1093.0849833480302" /><line x1="-17.472085806941877" y1="1093.0849833480302" x2="-17.470316252983473" y2="1094.0664876834537" /><line x1="-17.470316252983473" y1="1094.0664876834537" x2="-17.3996208264454" y2="1095.1098284117534" /><line x1="-17.3996208264454" y1="1095.1098284117534" x2="-17.25815788460201" y2="1096.2109302648062" /><line x1="-17.25815788460201" y1="1096.2109302648062" x2="-17.04434034818698" y2="1097.3655715441803" /><line x1="-17.04434034818698" y1="1097.3655715441803" x2="-16.756839080554283" y2="1098.5693818683617" /><line x1="-16.756839080554283" y1="1098.5693818683617" x2="-16.394590772387087" y2="1099.8178669532674" /><line x1="-16.394590772387087" y1="1099.8178669532674" x2="-15.956805826406692" y2="1101.1064198761162" /><line x1="-15.956805826406692" y1="1101.1064198761162" x2="-15.442968357372521" y2="1102.4303436031673" /><line x1="-15.442968357372521" y1="1102.4303436031673" x2="-14.852845203178022" y2="1103.784860000817" /><line x1="-14.852845203178022" y1="1103.784860000817" x2="-14.186482545689712" y2="1105.165132363338" /><line x1="-14.186482545689712" y1="1105.165132363338" x2="-13.444213795456086" y2="1106.5662845614586" /><line x1="-13.444213795456086" y1="1106.5662845614586" x2="-12.626652833385693" y2="1107.9834078006843" /><line x1="-12.626652833385693" y1="1107.9834078006843" x2="-11.734699642682074" y2="1109.4115921601338" /><line x1="-11.734699642682074" y1="1109.4115921601338" x2="-10.769535803295813" y2="1110.8459322244735" /><line x1="-10.769535803295813" y1="1110.8459322244735" x2="-9.732623365537547" y2="1112.2815496116577" /><line x1="-9.732623365537547" y1="1112.2815496116577" x2="-8.625698091756034" y2="1113.7136098687336" /><line x1="-8.625698091756034" y1="1113.7136098687336" x2="-7.4507688931446605" y2="1115.1373376780643" /><line x1="-7.4507688931446605" y1="1115.1373376780643" x2="-6.210108818645542" y2="1116.548036569103" /><line x1="-6.210108818645542" y1="1116.548036569103" x2="-4.9062516757885515" y2="1117.9411001822616" /><line x1="-4.9062516757885515" y1="1117.9411001822616" x2="-3.541982174805173" y2="1119.3120331070702" /><line x1="-3.541982174805173" y1="1119.3120331070702" x2="-2.1203273399277225" y2="1120.6564641172245" /><line x1="-2.1203273399277225" y1="1120.6564641172245" x2="-0.644548976676359" y2="1121.9701606376186" /><line x1="-0.644548976676359" y1="1121.9701606376186" x2="0.8818678736075408" y2="1123.2490446193615" /><line x1="0.8818678736075408" y1="1123.2490446193615" x2="2.4552254232402113" y2="1124.4892056340257" /><line x1="2.4552254232402113" y1="1124.4892056340257" x2="4.071625669250741" y2="1125.6869140382953" /><line x1="4.071625669250741" y1="1125.6869140382953" x2="5.726981164456647" y2="1126.8386340330158" /><line x1="5.726981164456647" y1="1126.8386340330158" x2="7.417031350075202" y2="1127.9410348918625" /><line x1="7.417031350075202" y1="1127.9410348918625" x2="9.137353186000638" y2="1128.99100159162" /><line x1="9.137353186000638" y1="1128.99100159162" x2="10.88337748341547" y2="1129.985646920841" /><line x1="10.88337748341547" y1="1129.985646920841" x2="12.650403829418098" y2="1130.9223193645553" /><line x1="12.650403829418098" y1="1130.9223193645553" x2="14.43361410366665" y2="1131.7986101441884" /><line x1="14.43361410366665" y1="1131.7986101441884" x2="16.22809500611876" y2="1132.6123650446257" /><line x1="16.22809500611876" y1="1132.6123650446257" x2="18.02884425216" y2="1133.3616861037924" /><line x1="18.02884425216" y1="1133.3616861037924" x2="19.830795353117608" y2="1134.044940060555" /><line x1="19.830795353117608" y1="1134.044940060555" x2="21.628833385678337" y2="1134.6607651130455" /><line x1="21.628833385678337" y1="1134.6607651130455" x2="23.417810761306285" y2="1135.208069792272" /><line x1="23.417810761306285" y1="1135.208069792272" x2="25.192559616499757" y2="1135.686037467668" /><line x1="25.192559616499757" y1="1135.686037467668" x2="26.94792335162694" y2="1136.0941297262534" /><line x1="26.94792335162694" y1="1136.0941297262534" x2="28.678756630925914" y2="1136.432087499021" /><line x1="28.678756630925914" y1="1136.432087499021" x2="30.379959174114273" y2="1136.6999265553884" /><line x1="30.379959174114273" y1="1136.6999265553884" x2="32.04648026193709" y2="1136.8979397559724" /><line x1="32.04648026193709" y1="1136.8979397559724" x2="33.67334351668067" y2="1137.0266925470414" /><line x1="33.67334351668067" y1="1137.0266925470414" x2="35.255660418816376" y2="1137.0870240869015" /><line x1="35.255660418816376" y1="1137.0870240869015" x2="36.78864832919247" y2="1137.0800348556397" /><line x1="36.78864832919247" y1="1137.0800348556397" x2="38.26765076399989" y2="1137.0070889078993" /><line x1="38.26765076399989" y1="1137.0070889078993" x2="39.68814190032019" y2="1136.869804861782" /><line x1="39.68814190032019" y1="1136.869804861782" x2="41.045762620509194" y2="1136.6700457613663" /><line x1="41.045762620509194" y1="1136.6700457613663" x2="42.336304742779106" y2="1136.409915697546" /><line x1="42.336304742779106" y1="1136.409915697546" x2="43.55575832945208" y2="1136.0917474177736" /><line x1="43.55575832945208" y1="1136.0917474177736" x2="44.700302675864265" y2="1135.7180955677381" /><line x1="44.700302675864265" y1="1135.7180955677381" x2="45.766337849201484" y2="1135.2917243011088" /><line x1="45.766337849201484" y1="1135.2917243011088" x2="46.75047567740335" y2="1134.8155915101165" /><line x1="46.75047567740335" y1="1134.8155915101165" x2="47.649562276903005" y2="1134.2928465727798" /><line x1="47.649562276903005" y1="1134.2928465727798" x2="48.460705085914846" y2="1133.7268100779402" /><line x1="48.460705085914846" y1="1133.7268100779402" x2="49.18125033669476" y2="1133.120960308617" /><line x1="49.18125033669476" y1="1133.120960308617" x2="49.80881909992375" y2="1132.478925357299" /><line x1="49.80881909992375" y1="1132.478925357299" x2="50.34130728470792" y2="1131.8044594718178" /><line x1="50.34130728470792" y1="1131.8044594718178" x2="50.776885638578506" y2="1131.1014385498" /><line x1="50.776885638578506" y1="1131.1014385498" x2="51.11401326413569" y2="1130.3738359213455" /><line x1="51.11401326413569" y1="1130.3738359213455" x2="51.351446630144544" y2="1129.625710521967" /><line x1="51.351446630144544" y1="1129.625710521967" x2="51.48824407708296" y2="1128.8611916863626" /><line x1="51.48824407708296" y1="1128.8611916863626" x2="51.52375230049781" y2="1128.0844599998393" /><line x1="51.52375230049781" y1="1128.0844599998393" x2="51.4576378898406" y2="1127.2997337816673" /><line x1="51.4576378898406" y1="1127.2997337816673" x2="51.289855789631794" y2="1126.5112488101158" /><line x1="51.289855789631794" y1="1126.5112488101158" x2="51.02068083829651" y2="1125.723246213792" /><line x1="51.02068083829651" y1="1125.723246213792" x2="50.65068524042472" y2="1124.9399519150788" /><line x1="50.65068524042472" y1="1124.9399519150788" x2="50.180747577867216" y2="1124.1655617055071" /><line x1="50.180747577867216" y1="1124.1655617055071" x2="49.61204830418758" y2="1123.4042249131444" /><line x1="49.61204830418758" y1="1123.4042249131444" x2="48.94605622801838" y2="1122.6600275507897" /><line x1="48.94605622801838" y1="1122.6600275507897" x2="48.18454653525295" y2="1121.93697618576" /><line x1="48.18454653525295" y1="1121.93697618576" x2="47.3295647446618" y2="1121.2389824696684" /><line x1="47.3295647446618" y1="1121.2389824696684" x2="46.38344923563237" y2="1120.5698477738022" /><line x1="46.38344923563237" y1="1120.5698477738022" x2="45.34880421488127" y2="1119.9332476397021" /><line x1="45.34880421488127" y1="1119.9332476397021" x2="44.22849971645436" y2="1119.3327180777208" /><line x1="44.22849971645436" y1="1119.3327180777208" x2="43.025649073986905" y2="1118.7716405015965" /><line x1="43.025649073986905" y1="1118.7716405015965" x2="41.74363144844341" y2="1118.2532296197937" /><line x1="41.74363144844341" y1="1118.2532296197937" x2="40.38603325599417" y2="1117.780519074068" /><line x1="40.38603325599417" y1="1117.780519074068" x2="38.95667520130305" y2="1117.3563498940007" /><line x1="38.95667520130305" y1="1117.3563498940007" x2="37.45958524423971" y2="1116.9833609227078" /><line x1="37.45958524423971" y1="1116.9833609227078" x2="35.898978324913855" y2="1116.6639750186011" /><line x1="35.898978324913855" y1="1116.6639750186011" x2="34.279254110901256" y2="1116.400390325888" /><line x1="34.279254110901256" y1="1116.400390325888" x2="32.60497446950397" y2="1116.194572389863" /><line x1="32.60497446950397" y1="1116.194572389863" x2="30.88085670942843" y2="1116.0482451458113" /><line x1="30.88085670942843" y1="1116.0482451458113" x2="29.111744294723724" y2="1115.962882471107" /><line x1="29.111744294723724" y1="1115.962882471107" x2="27.302602339233683" y2="1115.9397048060514" /><line x1="27.302602339233683" y1="1115.9397048060514" x2="25.45849733163106" y2="1115.9796695795849" /><line x1="25.45849733163106" y1="1115.9796695795849" x2="23.58458136599972" y2="1116.0834712092856" /><line x1="23.58458136599972" y1="1116.0834712092856" x2="21.68607186686883" y2="1116.251534343048" /><line x1="21.68607186686883" y1="1116.251534343048" x2="19.76823356702106" y2="1116.4840121695024" /><line x1="19.76823356702106" y1="1116.4840121695024" x2="17.83636611723572" y2="1116.7807869812086" /><line x1="17.83636611723572" y1="1116.7807869812086" x2="15.89578493770995" y2="1117.1414667954948" /><line x1="15.89578493770995" y1="1117.1414667954948" x2="13.951799816705952" y2="1117.5653870440378" /><line x1="13.951799816705952" y1="1117.5653870440378" x2="12.00970026752014" y2="1118.0516128256377" /><line x1="12.00970026752014" y1="1118.0516128256377" x2="10.07473750629133" y2="1118.5989414405876" /><line x1="10.07473750629133" y1="1118.5989414405876" x2="8.15210699300242" y2="1119.2059052066422" /><line x1="8.15210699300242" y1="1119.2059052066422" x2="6.246932662062567" y2="1119.8707762461615" /><line x1="6.246932662062567" y1="1119.8707762461615" x2="4.364246365744641" y2="1120.5915725404413" /><line x1="4.364246365744641" y1="1120.5915725404413" x2="2.5089760471218554" y2="1121.3660639840436" /><line x1="2.5089760471218554" y1="1121.3660639840436" x2="0.6859263098922193" y2="1122.1917801287068" /><line x1="0.6859263098922193" y1="1122.1917801287068" x2="-1.1002363654506817" y2="1123.06601842005" /><line x1="-1.1002363654506817" y1="1123.06601842005" x2="-2.8449981238501576" y2="1123.9858534198675" /><line x1="-2.8449981238501576" y1="1123.9858534198675" x2="-4.544012660314008" y2="1124.9481469436112" /><line x1="-4.544012660314008" y1="1124.9481469436112" x2="-6.193116144542115" y2="1125.9495587610668" /><line x1="-6.193116144542115" y1="1125.9495587610668" x2="-7.788338062401205" y2="1126.9865584938166" /><line x1="-7.788338062401205" y1="1126.9865584938166" x2="-9.325917126141052" y2="1128.0554380758958" /><line x1="-9.325917126141052" y1="1128.0554380758958" x2="-10.802311411877382" y2="1129.1523244256452" /><line x1="-10.802311411877382" y1="1129.1523244256452" x2="-12.214207089091014" y2="1130.2731932439533" /><line x1="-12.214207089091014" y1="1130.2731932439533" x2="-13.558533063658725" y2="1131.4138842204788" /><line x1="-13.558533063658725" y1="1131.4138842204788" x2="-14.832466609788177" y2="1132.5701142686999" /><line x1="-14.832466609788177" y1="1132.5701142686999" x2="-16.033447449855277" y2="1133.737492732136" /><line x1="-16.033447449855277" y1="1133.737492732136" x2="-17.159175501630198" y2="1134.9115405329292" /><line x1="-17.159175501630198" y1="1134.9115405329292" x2="-18.207625521308216" y2="1136.0877025620991" /><line x1="-18.207625521308216" y1="1136.0877025620991" x2="-19.177053861831663" y2="1137.2613640121554" /><line x1="-19.177053861831663" y1="1137.2613640121554" x2="-20.065991714567968" y2="1138.4278695256758" /><line x1="-20.065991714567968" y1="1138.4278695256758" x2="-20.873266510662457" y2="1139.5825400911115" /><line x1="-20.873266510662457" y1="1139.5825400911115" x2="-21.59798389884653" y2="1140.720687685818" /><line x1="-21.59798389884653" y1="1140.720687685818" x2="-22.23954914679043" y2="1141.837634424633" /><line x1="-22.23954914679043" y1="1141.837634424633" x2="-22.797651371685433" y2="1142.928724950135" /><line x1="-22.797651371685433" y1="1142.928724950135" x2="-23.272274804113696" y2="1143.989353465929" /><line x1="-23.272274804113696" y1="1143.989353465929" x2="-23.663689776952385" y2="1145.0149716213568" /><line x1="-23.663689776952385" y1="1145.0149716213568" x2="-23.9724572309216" y2="1146.0011076600758" /><line x1="-23.9724572309216" y1="1146.0011076600758" x2="-24.19941294516656" y2="1146.9433821894756" /><line x1="-24.19941294516656" y1="1146.9433821894756" x2="-24.345674295579528" y2="1147.8375329611931" /><line x1="-24.345674295579528" y1="1147.8375329611931" x2="-24.412638002025815" y2="1148.679414871112" /><line x1="-24.412638002025815" y1="1148.679414871112" x2="-24.40195534783008" y2="1149.4650292454241" /></g>
</g>
<g id="circle" >
<g >
<ellipse
    cx="0.0"
    cy="1122.51968532"
    rx="63.79619134410288"
    ry="63.79619134410288"
/>
</g>
</g>
</svg>