<svg xmlns="http://www.w3.org/2000/svg" xmlns:inkscape="http://www.inkscape.org/namespaces/inkscape" xmlns:xlink="http://www.w3.org/1999/xlink" width="1000px" height="1000px">

<g inkscape:groupmode="layer" id="Sun Oct 10 11:29:23 2021">

<g id="Sv_0.001">  <!-- start Sv_0.001 -->

<path id="trazo.Sv_0.001" d="M 363.3443,646.5184 Q 353.2203,655.6837 344.6895,663.1206 338.1215,668.3956 333.9314,671.0242 332.5639,670.4886 334.4625,666.2733 340.0207,657.9203 349.5158,645.1048 363.0298,627.7264 380.3705,605.9978 401.0161,580.509 424.1065,552.2372 448.5,522.4817 472.8935,492.7261 495.984,464.4543 516.6296,438.9655 533.9702,417.2369 547.4842,399.8585 556.9794,387.0431 562.5375,378.69 564.4361,374.4748 563.0686,373.9391 558.8785,376.5677 552.3105,381.8427 543.7797,389.2796 533.6557,398.4449 522.2565,408.9634 509.8494,420.5165 496.6556,432.8372 482.857,445.7026 468.6029,458.9247 454.018,472.3431 439.2086,485.8165 424.2697,499.215 409.2907,512.4137 394.3619,525.2858 379.5802,537.696 365.0551,549.4948 350.9149,560.5122 337.3133,570.5526 324.435,579.3896 312.5017,586.7632 301.776,592.379 292.5628,595.9118 285.2061,597.0154 280.0784,595.3406 277.561,590.564 278.0121,582.4276 281.7233,570.7895 288.8659,555.678 299.4359,537.3412 313.208,516.2779 329.7127,493.2353 348.251,469.1642 367.9483,445.1334 387.8429,422.2174 406.9897,401.3807 424.5568,383.3848 439.8952,368.7346 452.5721,357.67 462.3678,350.1942 469.2475,346.1249 473.3182,345.1534 474.7838,346.8999 473.9036,350.9583 470.9607,356.9283 466.2385,364.4352 460.006,373.1411 452.5103,382.7478 443.9731,392.9962 434.5909,403.6622 424.5376,414.5516 413.9677,425.4942 403.0203,436.3383 391.8236,446.9454 380.4989,457.1848 369.1646,466.9304 357.9405,476.0563 346.9506,484.4349 336.3262,491.9345 326.2086,498.4196 316.7498,503.7508 308.1128,507.7885 300.4695,510.3963 293.9972,511.4489 288.8718,510.8403 285.2585,508.4957 283.2996,504.3839 283.1006,498.5303 284.7152,491.0279 288.1312,482.0453 293.2602,471.8279 299.9334,460.6917 307.9045,449.0085 316.8622,437.1835 326.4491,425.6284 336.2875,414.7317 346.0052,404.8337 355.2605,396.2059 363.7614,389.0399 371.2784,383.4444 377.6491,379.4505 382.7775,377.0216 386.6271,376.0673 389.212,376.4576 390.5865,378.0366 390.8348,380.6337 390.0622,384.0735 388.3868,388.1823 385.9344,392.7925 382.8335,397.7462 379.2127,402.8961 375.1982,408.1063 370.9131,413.2531 366.4762,418.224 362.0015,422.9183 357.5978,427.2469 353.3679,431.1328 349.4074,434.5117 345.8037,437.3333 342.634,439.5621 339.9633,441.1796 337.8422,442.1849 336.3045,442.5963 335.3653,442.4515 335.019,441.8077 335.2387,440.7403 335.9766,439.3402 337.1651,437.7106 338.7196,435.9626 340.5426,434.2096 342.5281,432.5623 344.5675,431.1229 346.5544,429.9805 348.3904,429.2072 349.9892,428.8553 351.2799,428.9561 352.2097,429.5195 352.7452,430.5349 352.8723,431.9728 352.5959,433.7871 351.9389,435.9175 350.9403,438.2919 349.6541,440.8291 348.147,443.4412 346.4967,446.0354 344.7905,448.5166 343.1232,450.7888 341.5953,452.7578 340.3109,454.333 339.3751,455.4303 338.8916,455.9749 338.9583,455.9045 339.6642,455.1736 341.0834,453.7565 343.2712,451.6524 346.2581,448.8879 350.045,445.5201 354.5994,441.6377 359.8531,437.3601 365.7016,432.8346 372.0072,428.2305 378.6038,423.7318 385.3051,419.5273 391.9138,415.8012 398.2328,412.722 404.0756,410.4352 409.2753,409.0553 413.6921,408.6632 417.2181,409.304 419.7791,410.989 421.3344,413.6983 421.874,417.3859 421.4157,421.9845 420.0005,427.4108 417.688,433.5702 414.5523,440.3607 410.6787,447.6761 406.1609,455.4078 401.0988,463.4467 395.5974,471.683 389.7666,480.0061 383.7209,488.3045 377.5804,496.4642 371.472,504.3676 365.5296,511.8925 359.8964,518.9109 354.7249,525.2885 350.1775,530.8851 346.4254,535.5552 343.6468,539.1515 342.0224,541.5286 341.729,542.5504 342.9306,542.0984 345.7659,540.084 350.3342,536.4607 356.6796,531.2381 364.7754,524.4947 374.5117,516.3863 385.6889,507.1496 398.0183,497.0969 411.1342,486.6018 424.6148,476.0769 438.0112,465.9449 450.8797,456.6082 462.8143,448.4212 473.4719,441.6685 482.5904,436.5525 489.9957,433.1905 495.5999,431.6197 499.3926,431.8087 501.4271,433.672 501.8052,437.0852 500.6624,441.8993 498.155,447.9528 494.4492,455.0805 489.7137,463.1206 484.1141,471.9183 477.8102,481.3278 470.9543,491.213 463.6919,501.4464 456.1622,511.9077 448.5,522.4817 440.8378,533.0556 433.3081,543.5169 426.0457,553.7503 419.1898,563.6355 412.8859,573.045 407.2863,581.8427 402.5508,589.8828 398.845,597.0105 396.3376,603.064 395.1948,607.8781 395.5729,611.2913 397.6074,613.1546 401.4001,613.3436 407.0044,611.7728 414.4096,608.4108 423.5281,603.2948 434.1857,596.5421 446.1203,588.3552 458.9889,579.0185 472.3852,568.8864 485.8658,558.3615 498.9817,547.8664 511.3111,537.8137 522.4883,528.5771 532.2247,520.4687 540.3204,513.7252 546.6658,508.5026 551.2341,504.8793 554.0694,502.8649 555.271,502.413 554.9776,503.4347 553.3532,505.8118 550.5746,509.4081 546.8225,514.0782 542.2751,519.6748 537.1036,526.0524 531.4704,533.0708 525.528,540.5957 519.4196,548.4991 513.2791,556.6588 507.2334,564.9572 501.4026,573.2804 495.9012,581.5166 490.8391,589.5555 486.3213,597.2872 482.4477,604.6026 479.312,611.3931 476.9995,617.5525 475.5843,622.9788 475.126,627.5774 475.6657,631.265 477.2209,633.9743 479.7819,635.6593 483.3079,636.3001 487.7247,635.908 492.9244,634.5282 498.7672,632.2413 505.0862,629.1622 511.695,625.436 518.3962,621.2316 524.9929,616.7328 531.2984,612.1288 537.1469,607.6032 542.4006,603.3256 546.955,599.4432 550.7419,596.0754 553.7288,593.3109 555.9166,591.2068 557.3359,589.7898 558.0416,589.0588 558.1085,588.9884 557.6249,589.533 556.6891,590.6303 555.4047,592.2055 553.8768,594.1745 552.2095,596.4467 550.5033,598.9279 548.853,601.5221 547.3459,604.1342 546.0597,606.6714 545.0612,609.0458 544.4041,611.1762 544.1277,612.9905 544.2548,614.4284 544.7903,615.4438 545.7202,616.0072 547.0108,616.108 548.6096,615.7561 550.4456,614.9828 552.4326,613.8404 554.4719,612.401 556.4574,610.7537 558.2804,609.0007 559.8349,607.2527 561.0234,605.6231 561.7613,604.223 561.981,603.1556 561.6347,602.5118 560.6955,602.3671 559.1578,602.7784 557.0367,603.7837 554.366,605.4012 551.1963,607.6301 547.5926,610.4516 543.6321,613.8305 539.4022,617.7164 534.9985,622.045 530.5239,626.7393 526.0869,631.7102 521.8018,636.857 517.7874,642.0673 514.1665,647.2171 511.0656,652.1707 508.6132,656.7811 506.9378,660.8898 506.1652,664.3296 506.4135,666.9268 507.788,668.5057 510.3729,668.896 514.2225,667.9417 519.3509,665.5128 525.7217,661.5189 533.2386,655.9235 541.7395,648.7574 550.9948,640.1296 560.7125,630.2316 570.5509,619.3349 580.1379,607.7798 589.0955,595.9549 597.0667,584.2716 603.7398,573.1354 608.8689,562.918 612.2849,553.9354 613.8994,546.433 613.7004,540.5794 611.7415,536.4676 608.1282,534.123 603.0028,533.5144 596.5305,534.567 588.8873,537.1748 580.2501,541.2125 570.7914,546.5438 560.6738,553.0288 550.0494,560.5284 539.0594,568.907 527.8353,578.0329 516.5011,587.7785 505.1764,598.0179 493.9797,608.625 483.0323,619.4691 472.4624,630.4117 462.4091,641.3011 453.0269,651.9671 444.4897,662.2155 436.994,671.8223 430.7615,680.5281 426.0393,688.035 423.0964,694.005 422.2162,698.0634 423.6818,699.8099 427.7525,698.8384 434.6322,694.7691 444.4279,687.2933 457.1048,676.2287 472.4433,661.5785 490.0103,643.5826 509.1571,622.7459 529.0517,599.8299 548.749,575.7991 567.2873,551.728 583.7921,528.6854 597.5641,507.6221 608.1342,489.2853 615.2768,474.1738 618.9879,462.5357 619.439,454.3994 616.9216,449.6227 611.7939,447.9479 604.4372,449.0515 595.2241,452.5843 584.4983,458.2001 572.565,465.5737 559.6867,474.4107 546.0851,484.4511 531.9449,495.4686 517.4198,507.2674 502.638,519.6776 487.7093,532.5496 472.7303,545.7483 457.7913,559.1468 442.982,572.6201 428.3971,586.0386 414.143,599.2607 400.3444,612.126 387.1506,624.4468 374.7435,635.9999 363.3443,646.5184  z" stroke="rgb(26,51,77)" fill="none" />

<g id="bordes.Sv_0.001" stroke="rgb(0,0,0)" stroke-linecap="round" fill="none">
</g>

</g>  <!-- end Sv_0.001 -->

</g>

</svg>

