<svg xmlns="http://www.w3.org/2000/svg" xmlns:inkscape="http://www.inkscape.org/namespaces/inkscape" xmlns:xlink="http://www.w3.org/1999/xlink" width="1000.0px" height="1000.0px">
<defs>
</defs>
<g id="torus" >
<g>
<line x1="-0.25567615032196045" y1="1000.0" x2="-0.2527165412902832" y2="1000.0075635164976" /><line x1="-0.2527165412902832" y1="1000.0075635164976" x2="-0.24914515018463135" y2="1000.0149266347289" /><line x1="-0.24914515018463135" y1="1000.0149266347289" x2="-0.24499022960662842" y2="1000.0220495313406" /><line x1="-0.24499022960662842" y1="1000.0220495313406" x2="-0.2402820587158203" y2="1000.0288949757814" /><line x1="-0.2402820587158203" y1="1000.0288949757814" x2="-0.23505210876464844" y2="1000.035428404808" /><line x1="-0.23505210876464844" y1="1000.035428404808" x2="-0.22933411598205566" y2="1000.0416179895401" /><line x1="-0.22933411598205566" y1="1000.0416179895401" x2="-0.22316241264343262" y2="1000.0474346280098" /><line x1="-0.22316241264343262" y1="1000.0474346280098" x2="-0.21657180786132812" y2="1000.0528517365456" /><line x1="-0.21657180786132812" y1="1000.0528517365456" x2="-0.20959877967834473" y2="1000.0578455924988" /><line x1="-0.20959877967834473" y1="1000.0578455924988" x2="-0.20228028297424316" y2="1000.0623952150345" /><line x1="-0.20228028297424316" y1="1000.0623952150345" x2="-0.19465303421020508" y2="1000.0664820075035" /><line x1="-0.19465303421020508" y1="1000.0664820075035" x2="-0.18675446510314941" y2="1000.0700901150703" /><line x1="-0.18675446510314941" y1="1000.0700901150703" x2="-0.17862188816070557" y2="1000.0732061266899" /><line x1="-0.17862188816070557" y1="1000.0732061266899" x2="-0.17029273509979248" y2="1000.0758191943169" /><line x1="-0.17029273509979248" y1="1000.0758191943169" x2="-0.1618044376373291" y2="1000.0779209136963" /><line x1="-0.1618044376373291" y1="1000.0779209136963" x2="-0.15319347381591797" y2="1000.0795048475266" /><line x1="-0.15319347381591797" y1="1000.0795048475266" x2="-0.14449667930603027" y2="1000.080567419529" /><line x1="-0.14449667930603027" y1="1000.080567419529" x2="-0.1357496976852417" y2="1000.0811067223549" /><line x1="-0.1357496976852417" y1="1000.0811067223549" x2="-0.12698841094970703" y2="1000.0811233520508" /><line x1="-0.12698841094970703" y1="1000.0811233520508" x2="-0.1182471513748169" y2="1000.0806195735931" /><line x1="-0.1182471513748169" y1="1000.0806195735931" x2="-0.10956025123596191" y2="1000.0796001553535" /><line x1="-0.10956025123596191" y1="1000.0796001553535" x2="-0.10096019506454468" y2="1000.0780711770058" /><line x1="-0.10096019506454468" y1="1000.0780711770058" x2="-0.0924796462059021" y2="1000.0760409235954" /><line x1="-0.0924796462059021" y1="1000.0760409235954" x2="-0.08414965867996216" y2="1000.0735192894936" /><line x1="-0.08414965867996216" y1="1000.0735192894936" x2="-0.07600045204162598" y2="1000.0705181360245" /><line x1="-0.07600045204162598" y1="1000.0705181360245" x2="-0.06806093454360962" y2="1000.0670502781868" /><line x1="-0.06806093454360962" y1="1000.0670502781868" x2="-0.06035935878753662" y2="1000.063130915165" /><line x1="-0.06035935878753662" y1="1000.063130915165" x2="-0.052922189235687256" y2="1000.0587760806084" /><line x1="-0.052922189235687256" y1="1000.0587760806084" x2="-0.04577511548995972" y2="1000.0540034770966" /><line x1="-0.04577511548995972" y1="1000.0540034770966" x2="-0.03894224762916565" y2="1000.0488320291042" /><line x1="-0.03894224762916565" y1="1000.0488320291042" x2="-0.032446473836898804" y2="1000.0432820320129" /><line x1="-0.032446473836898804" y1="1000.0432820320129" x2="-0.026309311389923096" y2="1000.0373749136925" /><line x1="-0.026309311389923096" y1="1000.0373749136925" x2="-0.020550906658172607" y2="1000.0311332941055" /><line x1="-0.020550906658172607" y1="1000.0311332941055" x2="-0.015189886093139648" y2="1000.0245807915926" /><line x1="-0.015189886093139648" y1="1000.0245807915926" x2="-0.01024339348077774" y2="1000.0177420675755" /><line x1="-0.01024339348077774" y1="1000.0177420675755" x2="-0.00572710856795311" y2="1000.0106427520514" /><line x1="-0.00572710856795311" y1="1000.0106427520514" x2="-0.0016550850123167038" y2="1000.0033092498779" /><line x1="-0.0016550850123167038" y1="1000.0033092498779" x2="0.001960175111889839" y2="999.9957688786089" /><line x1="0.001960175111889839" y1="999.9957688786089" x2="0.005107823759317398" y2="999.9880496487021" /><line x1="0.005107823759317398" y1="999.9880496487021" x2="0.007778681814670563" y2="999.980180233717" /><line x1="0.007778681814670563" y1="999.980180233717" x2="0.00996524840593338" y2="999.9721899628639" /><line x1="0.00996524840593338" y1="999.9721899628639" x2="0.01166178286075592" y2="999.964108735323" /><line x1="0.01166178286075592" y1="999.964108735323" x2="0.01286429911851883" y2="999.955966770649" /><line x1="0.01286429911851883" y1="999.955966770649" x2="0.013570621609687805" y2="999.9477948248386" /><line x1="0.013570621609687805" y1="999.9477948248386" x2="0.01378042995929718" y2="999.9396239519119" /><line x1="0.01378042995929718" y1="999.9396239519119" x2="0.013495251536369324" y2="999.9314854741096" /><line x1="0.013495251536369324" y1="999.9314854741096" x2="0.012718506157398224" y2="999.9234107136726" /><line x1="0.012718506157398224" y1="999.9234107136726" x2="0.01145559549331665" y2="999.9154314398766" /><line x1="0.01145559549331665" y1="999.9154314398766" x2="0.009713850915431976" y2="999.9075788855553" /><line x1="0.009713850915431976" y1="999.9075788855553" x2="0.007502593100070953" y2="999.8998848795891" /><line x1="0.007502593100070953" y1="999.8998848795891" x2="0.004833202809095383" y2="999.892380297184" /><line x1="0.004833202809095383" y1="999.892380297184" x2="0.0017190836369991302" y2="999.8850963115692" /><line x1="0.0017190836369991302" y1="999.8850963115692" x2="-0.0018242988735437393" y2="999.8780637979507" /><line x1="-0.0018242988735437393" y1="999.8780637979507" x2="-0.005779363214969635" y2="999.871312379837" /><line x1="-0.005779363214969635" y1="999.871312379837" x2="-0.010126441717147827" y2="999.8648719787598" /><line x1="-0.010126441717147827" y1="999.8648719787598" x2="-0.014843761920928955" y2="999.8587709665298" /><line x1="-0.014843761920928955" y1="999.8587709665298" x2="-0.01990741491317749" y2="999.8530375957489" /><line x1="-0.01990741491317749" y1="999.8530375957489" x2="-0.025291338562965393" y2="999.8476988077164" /><line x1="-0.025291338562965393" y1="999.8476988077164" x2="-0.030967414379119873" y2="999.8427803516388" /><line x1="-0.030967414379119873" y1="999.8427803516388" x2="-0.03690540790557861" y2="999.8383067846298" /><line x1="-0.03690540790557861" y1="999.8383067846298" x2="-0.043073058128356934" y2="999.8343013525009" /><line x1="-0.043073058128356934" y1="999.8343013525009" x2="-0.04943585395812988" y2="999.8307859897614" /><line x1="-0.04943585395812988" y1="999.8307859897614" x2="-0.05595776438713074" y2="999.8277796506882" /><line x1="-0.05595776438713074" y1="999.8277796506882" x2="-0.06260031461715698" y2="999.8253012895584" /><line x1="-0.06260031461715698" y1="999.8253012895584" x2="-0.06932348012924194" y2="999.8233666419983" /><line x1="-0.06932348012924194" y1="999.8233666419983" x2="-0.07608538866043091" y2="999.8219894170761" /><line x1="-0.07608538866043091" y1="999.8219894170761" x2="-0.08284264802932739" y2="999.8211807012558" /><line x1="-0.08284264802932739" y1="999.8211807012558" x2="-0.0895501971244812" y2="999.8209495544434" /><line x1="-0.0895501971244812" y1="999.8209495544434" x2="-0.09616166353225708" y2="999.8213015794754" /><line x1="-0.09616166353225708" y1="999.8213015794754" x2="-0.1026296615600586" y2="999.8222402334213" /><line x1="-0.1026296615600586" y1="999.8222402334213" x2="-0.10890567302703857" y2="999.823765039444" /><line x1="-0.10890567302703857" y1="999.823765039444" x2="-0.11494022607803345" y2="999.8258730173111" /><line x1="-0.11494022607803345" y1="999.8258730173111" x2="-0.12068367004394531" y2="999.8285571336746" /><line x1="-0.12068367004394531" y1="999.8285571336746" x2="-0.12608611583709717" y2="999.8318071365356" /><line x1="-0.12608611583709717" y1="999.8318071365356" x2="-0.131097674369812" y2="999.8356087207794" /><line x1="-0.131097674369812" y1="999.8356087207794" x2="-0.13566851615905762" y2="999.8399442434311" /><line x1="-0.13566851615905762" y1="999.8399442434311" x2="-0.13975036144256592" y2="999.8447914123535" /><line x1="-0.13975036144256592" y1="999.8447914123535" x2="-0.1432955265045166" y2="999.8501245975494" /><line x1="-0.1432955265045166" y1="999.8501245975494" x2="-0.14625799655914307" y2="999.8559138178825" /><line x1="-0.14625799655914307" y1="999.8559138178825" x2="-0.14859390258789062" y2="999.8621250987053" /><line x1="-0.14859390258789062" y1="999.8621250987053" x2="-0.15026164054870605" y2="999.8687204122543" /><line x1="-0.15026164054870605" y1="999.8687204122543" x2="-0.151222825050354" y2="999.8756578564644" /><line x1="-0.151222825050354" y1="999.8756578564644" x2="-0.1514425277709961" y2="999.8828915953636" /><line x1="-0.1514425277709961" y1="999.8828915953636" x2="-0.15088945627212524" y2="999.8903724551201" /><line x1="-0.15088945627212524" y1="999.8903724551201" x2="-0.14953690767288208" y2="999.8980474472046" /><line x1="-0.14953690767288208" y1="999.8980474472046" x2="-0.14736312627792358" y2="999.9058609008789" /><line x1="-0.14736312627792358" y1="999.9058609008789" x2="-0.14435160160064697" y2="999.913753926754" /><line x1="-0.14435160160064697" y1="999.913753926754" x2="-0.140491783618927" y2="999.9216656088829" /><line x1="-0.140491783618927" y1="999.9216656088829" x2="-0.13577890396118164" y2="999.9295329451561" /><line x1="-0.13577890396118164" y1="999.9295329451561" x2="-0.13021522760391235" y2="999.9372916817665" /><line x1="-0.13021522760391235" y1="999.9372916817665" x2="-0.12380951642990112" y2="999.9448764324188" /><line x1="-0.12380951642990112" y1="999.9448764324188" x2="-0.11657774448394775" y2="999.9522219598293" /><line x1="-0.11657774448394775" y1="999.9522219598293" x2="-0.1085430383682251" y2="999.9592631161213" /><line x1="-0.1085430383682251" y1="999.9592631161213" x2="-0.09973567724227905" y2="999.9659361541271" /><line x1="-0.09973567724227905" y1="999.9659361541271" x2="-0.09019339084625244" y2="999.9721790254116" /><line x1="-0.09019339084625244" y1="999.9721790254116" x2="-0.0799608826637268" y2="999.9779321998358" /><line x1="-0.0799608826637268" y1="999.9779321998358" x2="-0.06908980011940002" y2="999.9831394851208" /><line x1="-0.06908980011940002" y1="999.9831394851208" x2="-0.057638317346572876" y2="999.9877486005425" /><line x1="-0.057638317346572876" y1="999.9877486005425" x2="-0.045670658349990845" y2="999.9917119964957" /><line x1="-0.045670658349990845" y1="999.9917119964957" x2="-0.03325676918029785" y2="999.9949873499572" /><line x1="-0.03325676918029785" y1="999.9949873499572" x2="-0.020471394062042236" y2="999.997538224794" /><line x1="-0.020471394062042236" y1="999.997538224794" x2="-0.007393602281808853" y2="999.999334563734" /><line x1="-0.007393602281808853" y1="999.999334563734" x2="0.005894184112548828" y2="1000.0003531286493" /><line x1="0.005894184112548828" y1="1000.0003531286493" x2="0.019306935369968414" y2="1000.0005778346676" /><line x1="0.019306935369968414" y1="1000.0005778346676" x2="0.03275801241397858" y2="1000.0" /><line x1="0.03275801241397858" y1="1000.0" x2="0.04616004228591919" y2="999.9986184826121" /><line x1="0.04616004228591919" y1="999.9986184826121" x2="0.059425801038742065" y2="999.9964397158474" /><line x1="0.059425801038742065" y1="999.9964397158474" x2="0.07246950268745422" y2="999.993477627635" /><line x1="0.07246950268745422" y1="999.993477627635" x2="0.08520719408988953" y2="999.9897534586489" /><line x1="0.08520719408988953" y1="999.9897534586489" x2="0.09755814075469971" y2="999.9852954745293" /><line x1="0.09755814075469971" y1="999.9852954745293" x2="0.10944551229476929" y2="999.9801385626197" /><line x1="0.10944551229476929" y1="999.9801385626197" x2="0.12079685926437378" y2="999.974323824048" /><line x1="0.12079685926437378" y1="999.974323824048" x2="0.13154524564743042" y2="999.9678979814053" /><line x1="0.13154524564743042" y1="999.9678979814053" x2="0.14162957668304443" y2="999.9609127193689" /><line x1="0.14162957668304443" y1="999.9609127193689" x2="0.1509954333305359" y2="999.9534240961075" /><line x1="0.1509954333305359" y1="999.9534240961075" x2="0.15959471464157104" y2="999.9454918503761" /><line x1="0.15959471464157104" y1="999.9454918503761" x2="0.16738677024841309" y2="999.9371787011623" /><line x1="0.16738677024841309" y1="999.9371787011623" x2="0.17433834075927734" y2="999.928549438715" /><line x1="0.17433834075927734" y1="999.928549438715" x2="0.18042325973510742" y2="999.9196703732014" /><line x1="0.18042325973510742" y1="999.9196703732014" x2="0.18562281131744385" y2="999.9106088280678" /><line x1="0.18562281131744385" y1="999.9106088280678" x2="0.1899256706237793" y2="999.9014316797256" /><line x1="0.1899256706237793" y1="999.9014316797256" x2="0.19332754611968994" y2="999.8922058343887" /><line x1="0.19332754611968994" y1="999.8922058343887" x2="0.19583070278167725" y2="999.8829966187477" /><line x1="0.19583070278167725" y1="999.8829966187477" x2="0.19744431972503662" y2="999.8738677501678" /><line x1="0.19744431972503662" y1="999.8738677501678" x2="0.19818329811096191" y2="999.8648809790611" /><line x1="0.19818329811096191" y1="999.8648809790611" x2="0.19806861877441406" y2="999.8560947775841" /><line x1="0.19806861877441406" y1="999.8560947775841" x2="0.19712579250335693" y2="999.8475652933121" /><line x1="0.19712579250335693" y1="999.8475652933121" x2="0.19538581371307373" y2="999.8393449783325" /><line x1="0.19538581371307373" y1="999.8393449783325" x2="0.19288372993469238" y2="999.8314825296402" /><line x1="0.19288372993469238" y1="999.8314825296402" x2="0.1896580457687378" y2="999.8240230083466" /><line x1="0.1896580457687378" y1="999.8240230083466" x2="0.1857508420944214" y2="999.8170074224472" /><line x1="0.1857508420944214" y1="999.8170074224472" x2="0.18120670318603516" y2="999.8104726076126" /><line x1="0.18120670318603516" y1="999.8104726076126" x2="0.17607247829437256" y2="999.804451584816" /><line x1="0.17607247829437256" y1="999.804451584816" x2="0.17039740085601807" y2="999.7989728450775" /><line x1="0.17039740085601807" y1="999.7989728450775" x2="0.16423118114471436" y2="999.794060587883" /><line x1="0.16423118114471436" y1="999.794060587883" x2="0.15762507915496826" y2="999.7897357940674" /><line x1="0.15762507915496826" y1="999.7897357940674" x2="0.15063083171844482" y2="999.7860144376755" /><line x1="0.15063083171844482" y1="999.7860144376755" x2="0.14330053329467773" y2="999.7829090356827" /><line x1="0.14330053329467773" y1="999.7829090356827" x2="0.13568580150604248" y2="999.7804284095764" /><line x1="0.13568580150604248" y1="999.7804284095764" x2="0.12783807516098022" y2="999.778578042984" /><line x1="0.12783807516098022" y1="999.778578042984" x2="0.11980801820755005" y2="999.7773592472076" /><line x1="0.11980801820755005" y1="999.7773592472076" x2="0.11164569854736328" y2="999.7767707109451" /><line x1="0.11164569854736328" y1="999.7767707109451" x2="0.10339963436126709" y2="999.7768074274063" /><line x1="0.10339963436126709" y1="999.7768074274063" x2="0.09511727094650269" y2="999.7774621248245" /><line x1="0.09511727094650269" y1="999.7774621248245" x2="0.08684414625167847" y2="999.7787247896194" /><line x1="0.08684414625167847" y1="999.7787247896194" x2="0.07862484455108643" y2="999.7805818319321" /><line x1="0.07862484455108643" y1="999.7805818319321" x2="0.07050162553787231" y2="999.7830183506012" /><line x1="0.07050162553787231" y1="999.7830183506012" x2="0.06251496076583862" y2="999.7860174179077" /><line x1="0.06251496076583862" y1="999.7860174179077" x2="0.05470365285873413" y2="999.7895592451096" /><line x1="0.05470365285873413" y1="999.7895592451096" x2="0.047104328870773315" y2="999.7936223745346" /><line x1="0.047104328870773315" y1="999.7936223745346" x2="0.03975144028663635" y2="999.7981845140457" /><line x1="0.03975144028663635" y1="999.7981845140457" x2="0.032677412033081055" y2="999.8032208681107" /><line x1="0.032677412033081055" y1="999.8032208681107" x2="0.025912553071975708" y2="999.8087058067322" /><line x1="0.025912553071975708" y1="999.8087058067322" x2="0.01948501169681549" y2="999.8146126270294" /><line x1="0.01948501169681549" y1="999.8146126270294" x2="0.013420738279819489" y2="999.8209127187729" /><line x1="0.013420738279819489" y1="999.8209127187729" x2="0.007743477821350098" y2="999.8275781869888" /><line x1="0.007743477821350098" y1="999.8275781869888" x2="0.002474883571267128" y2="999.8345785140991" /><line x1="0.002474883571267128" y1="999.8345785140991" x2="-0.002365589141845703" y2="999.8418837785721" /><line x1="-0.002365589141845703" y1="999.8418837785721" x2="-0.006760619580745697" y2="999.8494631052017" /><line x1="-0.006760619580745697" y1="999.8494631052017" x2="-0.010695002973079681" y2="999.8572850227356" /><line x1="-0.010695002973079681" y1="999.8572850227356" x2="-0.014155641198158264" y2="999.865317940712" /><line x1="-0.014155641198158264" y1="999.865317940712" x2="-0.01713147759437561" y2="999.8735303878784" /><line x1="-0.01713147759437561" y1="999.8735303878784" x2="-0.019613519310951233" y2="999.8818898200989" /><line x1="-0.019613519310951233" y1="999.8818898200989" x2="-0.021594777703285217" y2="999.8903646469116" /><line x1="-0.021594777703285217" y1="999.8903646469116" x2="-0.02307024598121643" y2="999.8989226818085" /><line x1="-0.02307024598121643" y1="999.8989226818085" x2="-0.02403677999973297" y2="999.9075323939323" /><line x1="-0.02403677999973297" y1="999.9075323939323" x2="-0.024493321776390076" y2="999.916161775589" /><line x1="-0.024493321776390076" y1="999.916161775589" x2="-0.024440452456474304" y2="999.9247799515724" /><line x1="-0.024440452456474304" y1="999.9247799515724" x2="-0.023880809545516968" y2="999.9333558678627" /><line x1="-0.023880809545516968" y1="999.9333558678627" x2="-0.022818654775619507" y2="999.9418590068817" /><line x1="-0.022818654775619507" y1="999.9418590068817" x2="-0.0212600976228714" y2="999.9502595365047" /><line x1="-0.0212600976228714" y1="999.9502595365047" x2="-0.019212961196899414" y2="999.958527982235" /><line x1="-0.019212961196899414" y1="999.958527982235" x2="-0.016686752438545227" y2="999.9666357636452" /><line x1="-0.016686752438545227" y1="999.9666357636452" x2="-0.013692662119865417" y2="999.9745547771454" /><line x1="-0.013692662119865417" y1="999.9745547771454" x2="-0.01024339348077774" y2="999.9822579324245" /><line x1="-0.01024339348077774" y1="999.9822579324245" x2="-0.006353337317705154" y2="999.9897188097239" /><line x1="-0.006353337317705154" y1="999.9897188097239" x2="-0.0020383521914482117" y2="999.9969120286405" /><line x1="-0.0020383521914482117" y1="999.9969120286405" x2="0.0026841703802347183" y2="1000.0038131251931" /><line x1="0.0026841703802347183" y1="1000.0038131251931" x2="0.00779540091753006" y2="1000.0103986784816" /><line x1="0.00779540091753006" y1="1000.0103986784816" x2="0.013275086879730225" y2="1000.0166464298964" /><line x1="0.013275086879730225" y1="1000.0166464298964" x2="0.01910156011581421" y2="1000.0225351750851" /><line x1="0.01910156011581421" y1="1000.0225351750851" x2="0.02525186538696289" y2="1000.0280450284481" /><line x1="0.02525186538696289" y1="1000.0280450284481" x2="0.031701743602752686" y2="1000.0331574082375" /><line x1="0.031701743602752686" y1="1000.0331574082375" x2="0.03842565417289734" y2="1000.0378550887108" /><line x1="0.03842565417289734" y1="1000.0378550887108" x2="0.04539695382118225" y2="1000.0421222448349" /><line x1="0.04539695382118225" y1="1000.0421222448349" x2="0.05258771777153015" y2="1000.0459445118904" /><line x1="0.05258771777153015" y1="1000.0459445118904" x2="0.05996900796890259" y2="1000.049309194088" /><line x1="0.05996900796890259" y1="1000.049309194088" x2="0.06751072406768799" y2="1000.0522051155567" /><line x1="0.06751072406768799" y1="1000.0522051155567" x2="0.07518208026885986" y2="1000.0546230077744" /><line x1="0.07518208026885986" y1="1000.0546230077744" x2="0.08295094966888428" y2="1000.0565550327301" /><line x1="0.08295094966888428" y1="1000.0565550327301" x2="0.09078478813171387" y2="1000.0579954981804" /><line x1="0.09078478813171387" y1="1000.0579954981804" x2="0.09864991903305054" y2="1000.058940589428" /><line x1="0.09864991903305054" y1="1000.058940589428" x2="0.10651201009750366" y2="1000.0593882203102" /><line x1="0.10651201009750366" y1="1000.0593882203102" x2="0.11433637142181396" y2="1000.0593386888504" /><line x1="0.11433637142181396" y1="1000.0593386888504" x2="0.12208759784698486" y2="1000.058794260025" /><line x1="0.12208759784698486" y1="1000.058794260025" x2="0.1297297477722168" y2="1000.0577594041824" /><line x1="0.1297297477722168" y1="1000.0577594041824" x2="0.13722693920135498" y2="1000.0562408566475" /><line x1="0.13722693920135498" y1="1000.0562408566475" x2="0.14454245567321777" y2="1000.0542476773262" /><line x1="0.14454245567321777" y1="1000.0542476773262" x2="0.1516399383544922" y2="1000.0517912507057" /><line x1="0.1516399383544922" y1="1000.0517912507057" x2="0.15848314762115479" y2="1000.0488855540752" /><line x1="0.15848314762115479" y1="1000.0488855540752" x2="0.16503572463989258" y2="1000.0455469787121" /><line x1="0.16503572463989258" y1="1000.0455469787121" x2="0.17126166820526123" y2="1000.0417943000793" /><line x1="0.17126166820526123" y1="1000.0417943000793" x2="0.1771259307861328" y2="1000.0376493036747" /><line x1="0.1771259307861328" y1="1000.0376493036747" x2="0.1825937032699585" y2="1000.0331358611584" /><line x1="0.1825937032699585" y1="1000.0331358611584" x2="0.18763065338134766" y2="1000.0282807648182" /><line x1="0.18763065338134766" y1="1000.0282807648182" x2="0.19220447540283203" y2="1000.0231134295464" /><line x1="0.19220447540283203" y1="1000.0231134295464" x2="0.1962834596633911" y2="1000.0176658332348" /><line x1="0.1962834596633911" y1="1000.0176658332348" x2="0.199837327003479" y2="1000.0119725316763" /><line x1="0.199837327003479" y1="1000.0119725316763" x2="0.20283818244934082" y2="1000.0060707144439" /><line x1="0.20283818244934082" y1="1000.0060707144439" x2="0.2052593231201172" y2="1000.0" /><line x1="0.2052593231201172" y1="1000.0" x2="0.2070767879486084" y2="999.9938024282455" /><line x1="0.2070767879486084" y1="999.9938024282455" x2="0.20826852321624756" y2="999.9875223487616" /><line x1="0.20826852321624756" y1="999.9875223487616" x2="0.2088155746459961" y2="999.981206253171" /><line x1="0.2088155746459961" y1="999.981206253171" x2="0.20870232582092285" y2="999.9749026149511" /><line x1="0.20870232582092285" y1="999.9749026149511" x2="0.2079157829284668" y2="999.9686617255211" /><line x1="0.2079157829284668" y1="999.9686617255211" x2="0.20644652843475342" y2="999.9625354707241" /><line x1="0.20644652843475342" y1="999.9625354707241" x2="0.20428979396820068" y2="999.9565768837929" /><line x1="0.20428979396820068" y1="999.9565768837929" x2="0.20144367218017578" y2="999.9508401155472" /><line x1="0.20144367218017578" y1="999.9508401155472" x2="0.19791126251220703" y2="999.9453799724579" /><line x1="0.19791126251220703" y1="999.9453799724579" x2="0.19370007514953613" y2="999.9402514100075" /><line x1="0.19370007514953613" y1="999.9402514100075" x2="0.18882226943969727" y2="999.9355094134808" /><line x1="0.18882226943969727" y1="999.9355094134808" x2="0.1832948923110962" y2="999.9312082827091" /><line x1="0.1832948923110962" y1="999.9312082827091" x2="0.17714011669158936" y2="999.9274011850357" /><line x1="0.17714011669158936" y1="999.9274011850357" x2="0.17038488388061523" y2="999.9241397380829" /><line x1="0.17038488388061523" y1="999.9241397380829" x2="0.1630619764328003" y2="999.9214735031128" /><line x1="0.1630619764328003" y1="999.9214735031128" x2="0.15520846843719482" y2="999.9194493889809" /><line x1="0.15520846843719482" y1="999.9194493889809" x2="0.14686715602874756" y2="999.9181108474731" /><line x1="0.14686715602874756" y1="999.9181108474731" x2="0.1380854845046997" y2="999.9174978137016" /><line x1="0.1380854845046997" y1="999.9174978137016" x2="0.1289156675338745" y2="999.9176455140114" /><line x1="0.1289156675338745" y1="999.9176455140114" x2="0.1194145679473877" y2="999.9185844659805" /><line x1="0.1194145679473877" y1="999.9185844659805" x2="0.10964316129684448" y2="999.9203395545483" /><line x1="0.10964316129684448" y1="999.9203395545483" x2="0.09966588020324707" y2="999.9229297339916" /><line x1="0.09966588020324707" y1="999.9229297339916" x2="0.0895506739616394" y2="999.9263674020767" /><line x1="0.0895506739616394" y1="999.9263674020767" x2="0.079367995262146" y2="999.9306582808495" /><line x1="0.079367995262146" y1="999.9306582808495" x2="0.06919035315513611" y2="999.9358007609844" /><line x1="0.06919035315513611" y1="999.9358007609844" x2="0.059091717004776" y2="999.9417857527733" /><line x1="0.059091717004776" y1="999.9417857527733" x2="0.04914653301239014" y2="999.9485967755318" /><line x1="0.04914653301239014" y1="999.9485967755318" x2="0.03942917287349701" y2="999.9562094509602" /><line x1="0.03942917287349701" y1="999.9562094509602" x2="0.03001295030117035" y2="999.9645920395851" /><line x1="0.03001295030117035" y1="999.9645920395851" x2="0.020969457924365997" y2="999.9737051278353" /><line x1="0.020969457924365997" y1="999.9737051278353" x2="0.012367650866508484" y2="999.9835021421313" /><line x1="0.012367650866508484" y1="999.9835021421313" x2="0.004273086786270142" y2="999.993929669261" /><line x1="0.004273086786270142" y1="999.993929669261" x2="-0.0032529085874557495" y2="1000.0049279462546" /><line x1="-0.0032529085874557495" y1="1000.0049279462546" x2="-0.010153885930776596" y2="1000.016431376338" /><line x1="-0.010153885930776596" y1="1000.016431376338" x2="-0.01637900620698929" y2="1000.0283692628145" /><line x1="-0.01637900620698929" y1="1000.0283692628145" x2="-0.021883592009544373" y2="1000.0406665205956" /><line x1="-0.021883592009544373" y1="1000.0406665205956" x2="-0.02662961184978485" y2="1000.0532444119453" /><line x1="-0.02662961184978485" y1="1000.0532444119453" x2="-0.030586212873458862" y2="1000.0660216212273" /><line x1="-0.030586212873458862" y1="1000.0660216212273" x2="-0.03372982144355774" y2="1000.0789148807526" /><line x1="-0.03372982144355774" y1="1000.0789148807526" x2="-0.03604458272457123" y2="1000.0918400883675" /><line x1="-0.03604458272457123" y1="1000.0918400883675" x2="-0.03752224147319794" y2="1000.1047132611275" /><line x1="-0.03752224147319794" y1="1000.1047132611275" x2="-0.038162216544151306" y2="1000.1174512505531" /><line x1="-0.038162216544151306" y1="1000.1174512505531" x2="-0.03797146677970886" y2="1000.1299725174904" /><line x1="-0.03797146677970886" y1="1000.1299725174904" x2="-0.03696422278881073" y2="1000.1421985030174" /><line x1="-0.03696422278881073" y1="1000.1421985030174" x2="-0.03516177833080292" y2="1000.1540538668633" /><line x1="-0.03516177833080292" y1="1000.1540538668633" x2="-0.03259192407131195" y2="1000.1654671430588" /><line x1="-0.03259192407131195" y1="1000.1654671430588" x2="-0.02928854525089264" y2="1000.1763719320297" /><line x1="-0.02928854525089264" y1="1000.1763719320297" x2="-0.025291144847869873" y2="1000.1867067813873" /><line x1="-0.025291144847869873" y1="1000.1867067813873" x2="-0.020644143223762512" y2="1000.1964159011841" /><line x1="-0.020644143223762512" y1="1000.1964159011841" x2="-0.015396326780319214" y2="1000.2054495811462" /><line x1="-0.015396326780319214" y1="1000.2054495811462" x2="-0.009600181132555008" y2="1000.213764667511" /><line x1="-0.009600181132555008" y1="1000.213764667511" x2="-0.0033112410455942154" y2="1000.2213236093521" /><line x1="-0.0033112410455942154" y1="1000.2213236093521" x2="0.0034125633537769318" y2="1000.2280960083008" /><line x1="0.0034125633537769318" y1="1000.2280960083008" x2="0.010511554777622223" y2="1000.2340579032898" /><line x1="0.010511554777622223" y1="1000.2340579032898" x2="0.017924904823303223" y2="1000.2391912937164" /><line x1="0.017924904823303223" y1="1000.2391912937164" x2="0.02559131383895874" y2="1000.2434850931168" /><line x1="0.02559131383895874" y1="1000.2434850931168" x2="0.03344939649105072" y2="1000.2469333410263" /><line x1="0.03344939649105072" y1="1000.2469333410263" x2="0.04143837094306946" y2="1000.2495366334915" /><line x1="0.04143837094306946" y1="1000.2495366334915" x2="0.049498528242111206" y2="1000.2513009309769" /><line x1="0.049498528242111206" y1="1000.2513009309769" x2="0.05757150053977966" y2="1000.2522373199463" /><line x1="0.05757150053977966" y1="1000.2522373199463" x2="0.06560084223747253" y2="1000.2523611783981" /><line x1="0.06560084223747253" y1="1000.2523611783981" x2="0.0735321044921875" y2="1000.2516932487488" /><line x1="0.0735321044921875" y1="1000.2516932487488" x2="0.08131355047225952" y2="1000.2502574920654" /><line x1="0.08131355047225952" y1="1000.2502574920654" x2="0.08889603614807129" y2="1000.2480820417404" /><line x1="0.08889603614807129" y1="1000.2480820417404" x2="0.09623318910598755" y2="1000.2451980113983" /><line x1="0.09623318910598755" y1="1000.2451980113983" x2="0.10328161716461182" y2="1000.2416393756866" /><line x1="0.10328161716461182" y1="1000.2416393756866" x2="0.1100015640258789" y2="1000.2374428510666" /><line x1="0.1100015640258789" y1="1000.2374428510666" x2="0.11635607481002808" y2="1000.2326475381851" /><line x1="0.11635607481002808" y1="1000.2326475381851" x2="0.12231165170669556" y2="1000.2272931337357" /><line x1="0.12231165170669556" y1="1000.2272931337357" x2="0.12783807516098022" y2="1000.221421957016" /><line x1="0.12783807516098022" y1="1000.221421957016" x2="0.13290846347808838" y2="1000.2150771617889" /><line x1="0.13290846347808838" y1="1000.2150771617889" x2="0.13749945163726807" y2="1000.2083026170731" /><line x1="0.13749945163726807" y1="1000.2083026170731" x2="0.14159059524536133" y2="1000.2011430263519" /><line x1="0.14159059524536133" y1="1000.2011430263519" x2="0.1451648473739624" y2="1000.1936429738998" /><line x1="0.1451648473739624" y1="1000.1936429738998" x2="0.14820802211761475" y2="1000.1858469247818" /><line x1="0.14820802211761475" y1="1000.1858469247818" x2="0.1507093906402588" y2="1000.1778001785278" /><line x1="0.1507093906402588" y1="1000.1778001785278" x2="0.15266072750091553" y2="1000.1695469617844" /><line x1="0.15266072750091553" y1="1000.1695469617844" x2="0.15405678749084473" y2="1000.1611307859421" /><line x1="0.15405678749084473" y1="1000.1611307859421" x2="0.15489518642425537" y2="1000.1525950431824" /><line x1="0.15489518642425537" y1="1000.1525950431824" x2="0.15517592430114746" y2="1000.1439822912216" /><line x1="0.15517592430114746" y1="1000.1439822912216" x2="0.1549016237258911" y2="1000.1353335380554" /><line x1="0.1549016237258911" y1="1000.1353335380554" x2="0.15407705307006836" y2="1000.1266890764236" /><line x1="0.15407705307006836" y1="1000.1266890764236" x2="0.15270936489105225" y2="1000.1180880069733" /><line x1="0.15270936489105225" y1="1000.1180880069733" x2="0.15080773830413818" y2="1000.1095682382584" /><line x1="0.15080773830413818" y1="1000.1095682382584" x2="0.1483837366104126" y2="1000.1011663675308" /><line x1="0.1483837366104126" y1="1000.1011663675308" x2="0.14544999599456787" y2="1000.09291690588" /><line x1="0.14544999599456787" y1="1000.09291690588" x2="0.14202165603637695" y2="1000.0848540663719" /><line x1="0.14202165603637695" y1="1000.0848540663719" x2="0.1381152868270874" y2="1000.0770093798637" /><line x1="0.1381152868270874" y1="1000.0770093798637" x2="0.1337491273880005" y2="1000.0694136023521" /><line x1="0.1337491273880005" y1="1000.0694136023521" x2="0.12894213199615479" y2="1000.062095284462" /><line x1="0.12894213199615479" y1="1000.062095284462" x2="0.12371587753295898" y2="1000.0550818443298" /><line x1="0.12371587753295898" y1="1000.0550818443298" x2="0.11809170246124268" y2="1000.0483985245228" /><line x1="0.11809170246124268" y1="1000.0483985245228" x2="0.11209321022033691" y2="1000.042069286108" /><line x1="0.11209321022033691" y1="1000.042069286108" x2="0.10574448108673096" y2="1000.0361160635948" /><line x1="0.10574448108673096" y1="1000.0361160635948" x2="0.0990707278251648" y2="1000.030559271574" /><line x1="0.0990707278251648" y1="1000.030559271574" x2="0.09209775924682617" y2="1000.0254173576832" /><line x1="0.09209775924682617" y1="1000.0254173576832" x2="0.08485263586044312" y2="1000.0207072645426" /><line x1="0.08485263586044312" y1="1000.0207072645426" x2="0.07736265659332275" y2="1000.0164439380169" /><line x1="0.07736265659332275" y1="1000.0164439380169" x2="0.0696558952331543" y2="1000.0126406922936" /><line x1="0.0696558952331543" y1="1000.0126406922936" x2="0.061760902404785156" y2="1000.0093089565635" /><line x1="0.061760902404785156" y1="1000.0093089565635" x2="0.053706586360931396" y2="1000.0064584501088" /><line x1="0.053706586360931396" y1="1000.0064584501088" x2="0.04552227258682251" y2="1000.0040970779955" /><line x1="0.04552227258682251" y1="1000.0040970779955" x2="0.03723767399787903" y2="1000.0022309608757" /><line x1="0.03723767399787903" y1="1000.0022309608757" x2="0.028882533311843872" y2="1000.0008644210175" /><line x1="0.028882533311843872" y1="1000.0008644210175" x2="0.02048678696155548" y2="1000.0" /><line x1="0.02048678696155548" y1="1000.0" x2="0.012080445885658264" y2="999.999638446141" /><line x1="0.012080445885658264" y1="999.999638446141" x2="0.0036934390664100647" y2="999.9997787210159" /><line x1="0.0036934390664100647" y1="999.9997787210159" x2="-0.004644349217414856" y2="1000.0004179985262" /><line x1="-0.004644349217414856" y1="1000.0004179985262" x2="-0.01290322095155716" y2="1000.0015516700223" /><line x1="-0.01290322095155716" y1="1000.0015516700223" x2="-0.02105376124382019" y2="1000.0031733456999" /><line x1="-0.02105376124382019" y1="1000.0031733456999" x2="-0.029066801071166992" y2="1000.0052748471498" /><line x1="-0.029066801071166992" y1="1000.0052748471498" x2="-0.036913663148880005" y2="1000.0078462436795" /><line x1="-0.036913663148880005" y1="1000.0078462436795" x2="-0.044566065073013306" y2="1000.0108758062124" /><line x1="-0.044566065073013306" y1="1000.0108758062124" x2="-0.05199629068374634" y2="1000.0143500715494" /><line x1="-0.05199629068374634" y1="1000.0143500715494" x2="-0.059177398681640625" y2="1000.0182538032532" /><line x1="-0.059177398681640625" y1="1000.0182538032532" x2="-0.06608295440673828" y2="1000.0225700438023" /><line x1="-0.06608295440673828" y1="1000.0225700438023" x2="-0.07268750667572021" y2="1000.0272800922394" /><line x1="-0.07268750667572021" y1="1000.0272800922394" x2="-0.07896631956100464" y2="1000.032363474369" /><line x1="-0.07896631956100464" y1="1000.032363474369" x2="-0.08489596843719482" y2="1000.0377981364727" /><line x1="-0.08489596843719482" y1="1000.0377981364727" x2="-0.09045356512069702" y2="1000.0435601472855" /><line x1="-0.09045356512069702" y1="1000.0435601472855" x2="-0.09561794996261597" y2="1000.049624145031" /><line x1="-0.09561794996261597" y1="1000.049624145031" x2="-0.10036903619766235" y2="1000.0559630990028" /><line x1="-0.10036903619766235" y1="1000.0559630990028" x2="-0.10468769073486328" y2="1000.062547981739" /><line x1="-0.10468769073486328" y1="1000.062547981739" x2="-0.10855704545974731" y2="1000.0693488717079" /><line x1="-0.10855704545974731" y1="1000.0693488717079" x2="-0.11196112632751465" y2="1000.0763338208199" /><line x1="-0.11196112632751465" y1="1000.0763338208199" x2="-0.11488604545593262" y2="1000.0834695696831" /><line x1="-0.11488604545593262" y1="1000.0834695696831" x2="-0.11731946468353271" y2="1000.090721487999" /><line x1="-0.11731946468353271" y1="1000.090721487999" x2="-0.11925101280212402" y2="1000.0980535149574" /><line x1="-0.11925101280212402" y1="1000.0980535149574" x2="-0.12067246437072754" y2="1000.1054283976555" /><line x1="-0.12067246437072754" y1="1000.1054283976555" x2="-0.12157762050628662" y2="1000.1128076314926" /><line x1="-0.12157762050628662" y1="1000.1128076314926" x2="-0.12196266651153564" y2="1000.1201516389847" /><line x1="-0.12196266651153564" y1="1000.1201516389847" x2="-0.12182581424713135" y2="1000.1274198293686" /><line x1="-0.12182581424713135" y1="1000.1274198293686" x2="-0.12116825580596924" y2="1000.1345709562302" /><line x1="-0.12116825580596924" y1="1000.1345709562302" x2="-0.11999332904815674" y2="1000.1415628194809" /><line x1="-0.11999332904815674" y1="1000.1415628194809" x2="-0.11830717325210571" y2="1000.1483525037766" /><line x1="-0.11830717325210571" y1="1000.1483525037766" x2="-0.11611908674240112" y2="1000.1548972129822" /><line x1="-0.11611908674240112" y1="1000.1548972129822" x2="-0.11344075202941895" y2="1000.1611535549164" /><line x1="-0.11344075202941895" y1="1000.1611535549164" x2="-0.11028718948364258" y2="1000.1670778989792" /><line x1="-0.11028718948364258" y1="1000.1670778989792" x2="-0.10667651891708374" y2="1000.1726276874542" /><line x1="-0.10667651891708374" y1="1000.1726276874542" x2="-0.1026296615600586" y2="1000.1777597665787" /><line x1="-0.1026296615600586" y1="1000.1777597665787" x2="-0.0981711745262146" y2="1000.1824325323105" /><line x1="-0.0981711745262146" y1="1000.1824325323105" x2="-0.09332829713821411" y2="1000.1866046190262" /><line x1="-0.09332829713821411" y1="1000.1866046190262" x2="-0.08813196420669556" y2="1000.1902365684509" /><line x1="-0.08813196420669556" y1="1000.1902365684509" x2="-0.08261620998382568" y2="1000.1932902336121" /><line x1="-0.08261620998382568" y1="1000.1932902336121" x2="-0.07681816816329956" y2="1000.1957294940948" /><line x1="-0.07681816816329956" y1="1000.1957294940948" x2="-0.0707780122756958" y2="1000.1975202560425" /><line x1="-0.0707780122756958" y1="1000.1975202560425" x2="-0.06453931331634521" y2="1000.198631644249" /><line x1="-0.06453931331634521" y1="1000.198631644249" x2="-0.05814811587333679" y2="1000.1990352869034" /><line x1="-0.05814811587333679" y1="1000.1990352869034" x2="-0.05165329575538635" y2="1000.1987062692642" /><line x1="-0.05165329575538635" y1="1000.1987062692642" x2="-0.04510626196861267" y2="1000.1976234912872" /><line x1="-0.04510626196861267" y1="1000.1976234912872" x2="-0.038560688495635986" y2="1000.1957702636719" /><line x1="-0.038560688495635986" y1="1000.1957702636719" x2="-0.03207206726074219" y2="1000.1931338310242" /><line x1="-0.03207206726074219" y1="1000.1931338310242" x2="-0.02569758892059326" y2="1000.1897072792053" /><line x1="-0.02569758892059326" y1="1000.1897072792053" x2="-0.019495561718940735" y2="1000.1854878664017" /><line x1="-0.019495561718940735" y1="1000.1854878664017" x2="-0.013525031507015228" y2="1000.1804790496826" /><line x1="-0.013525031507015228" y1="1000.1804790496826" x2="-0.007845323532819748" y2="1000.1746897697449" /><line x1="-0.007845323532819748" y1="1000.1746897697449" x2="-0.002515483647584915" y2="1000.1681351661682" /><line x1="-0.002515483647584915" y1="1000.1681351661682" x2="0.0024062898010015488" y2="1000.1608365774155" /><line x1="0.0024062898010015488" y1="1000.1608365774155" x2="0.006863221526145935" y2="1000.1528214812279" /><line x1="0.006863221526145935" y1="1000.1528214812279" x2="0.010800592601299286" y2="1000.144123852253" /><line x1="0.010800592601299286" y1="1000.144123852253" x2="0.014166362583637238" y2="1000.1347839832306" /><line x1="0.014166362583637238" y1="1000.1347839832306" x2="0.01691184937953949" y2="1000.124848306179" /><line x1="0.01691184937953949" y1="1000.124848306179" x2="0.018992342054843903" y2="1000.1143694519997" /><line x1="0.018992342054843903" y1="1000.1143694519997" x2="0.020367704331874847" y2="1000.1034055352211" /><line x1="0.020367704331874847" y1="1000.1034055352211" x2="0.021003007888793945" y2="1000.092020213604" /><line x1="0.021003007888793945" y1="1000.092020213604" x2="0.02086915820837021" y2="1000.0802820324898" /><line x1="0.02086915820837021" y1="1000.0802820324898" x2="0.019943252205848694" y2="1000.0682637691498" /><line x1="0.019943252205848694" y1="1000.0682637691498" x2="0.018209129571914673" y2="1000.0560419559479" /><line x1="0.018209129571914673" y1="1000.0560419559479" x2="0.015657708048820496" y2="1000.0436959564686" /><line x1="0.015657708048820496" y1="1000.0436959564686" x2="0.01228729635477066" y2="1000.0313075184822" /><line x1="0.01228729635477066" y1="1000.0313075184822" x2="0.008103735744953156" y2="1000.0189596265554" /><line x1="0.008103735744953156" y1="1000.0189596265554" x2="0.0031205173581838608" y2="1000.0067357644439" /><line x1="0.0031205173581838608" y1="1000.0067357644439" x2="-0.0026412727311253548" y2="999.9947189241648" /><line x1="-0.0026412727311253548" y1="999.9947189241648" x2="-0.009153049439191818" y2="999.9829907789826" /><line x1="-0.009153049439191818" y1="999.9829907789826" x2="-0.01637900620698929" y2="999.9716307371855" /><line x1="-0.01637900620698929" y1="999.9716307371855" x2="-0.024276435375213623" y2="999.960714995861" /><line x1="-0.024276435375213623" y1="999.960714995861" x2="-0.03279620409011841" y2="999.9503158628941" /><line x1="-0.03279620409011841" y1="999.9503158628941" x2="-0.04188327491283417" y2="999.9405007660389" /><line x1="-0.04188327491283417" y1="999.9405007660389" x2="-0.0514773428440094" y2="999.9313316643238" /><line x1="-0.0514773428440094" y1="999.9313316643238" x2="-0.06151357293128967" y2="999.922864407301" /><line x1="-0.06151357293128967" y1="999.922864407301" x2="-0.07192325592041016" y2="999.9151481389999" /><line x1="-0.07192325592041016" y1="999.9151481389999" x2="-0.08263465762138367" y2="999.9082249403" /><line x1="-0.08263465762138367" y1="999.9082249403" x2="-0.09357380867004395" y2="999.902129471302" /><line x1="-0.09357380867004395" y1="999.902129471302" x2="-0.10466539859771729" y2="999.8968887925148" /><line x1="-0.10466539859771729" y1="999.8968887925148" x2="-0.11583364009857178" y2="999.8925220966339" /><line x1="-0.11583364009857178" y1="999.8925220966339" x2="-0.1270027756690979" y2="999.8890410065651" /><line x1="-0.1270027756690979" y1="999.8890410065651" x2="-0.13809829950332642" y2="999.8864493966103" /><line x1="-0.13809829950332642" y1="999.8864493966103" x2="-0.14904719591140747" y2="999.8847438693047" /><line x1="-0.14904719591140747" y1="999.8847438693047" x2="-0.1597791314125061" y2="999.8839136958122" /><line x1="-0.1597791314125061" y1="999.8839136958122" x2="-0.17022645473480225" y2="999.8839415311813" /><line x1="-0.17022645473480225" y1="999.8839415311813" x2="-0.18032550811767578" y2="999.8848036527634" /><line x1="-0.18032550811767578" y1="999.8848036527634" x2="-0.1900162696838379" y2="999.8864705562592" /><line x1="-0.1900162696838379" y1="999.8864705562592" x2="-0.1992431879043579" y2="999.8889073133469" /><line x1="-0.1992431879043579" y1="999.8889073133469" x2="-0.2079559564590454" y2="999.8920742869377" /><line x1="-0.2079559564590454" y1="999.8920742869377" x2="-0.21610820293426514" y2="999.8959277868271" /><line x1="-0.21610820293426514" y1="999.8959277868271" x2="-0.22365987300872803" y2="999.9004201889038" /><line x1="-0.22365987300872803" y1="999.9004201889038" x2="-0.23057520389556885" y2="999.9055013656616" /><line x1="-0.23057520389556885" y1="999.9055013656616" x2="-0.23682427406311035" y2="999.9111183285713" /><line x1="-0.23682427406311035" y1="999.9111183285713" x2="-0.24238228797912598" y2="999.9172164797783" /><line x1="-0.24238228797912598" y1="999.9172164797783" x2="-0.24722957611083984" y2="999.9237397313118" /><line x1="-0.24722957611083984" y1="999.9237397313118" x2="-0.25135159492492676" y2="999.93063133955" /><line x1="-0.25135159492492676" y1="999.93063133955" x2="-0.25473880767822266" y2="999.9378340542316" /><line x1="-0.25473880767822266" y1="999.9378340542316" x2="-0.2573862075805664" y2="999.9452908933163" /><line x1="-0.2573862075805664" y1="999.9452908933163" x2="-0.2592933177947998" y2="999.952945202589" /><line x1="-0.2592933177947998" y1="999.952945202589" x2="-0.26046431064605713" y2="999.960741341114" /><line x1="-0.26046431064605713" y1="999.960741341114" x2="-0.2609065771102905" y2="999.9686248153448" /><line x1="-0.2609065771102905" y1="999.9686248153448" x2="-0.26063239574432373" y2="999.9765426665545" /><line x1="-0.26063239574432373" y1="999.9765426665545" x2="-0.2596566677093506" y2="999.9844436123967" /><line x1="-0.2596566677093506" y1="999.9844436123967" x2="-0.25799739360809326" y2="999.9922784343362" /><line x1="-0.25799739360809326" y1="999.9922784343362" x2="-0.25567615032196045" y2="1000.0" /><line x1="-0.12783807516098022" y1="1000.221421957016" x2="-0.11980801820755005" y2="1000.2226407527924" /><line x1="-0.11980801820755005" y1="1000.2226407527924" x2="-0.11164569854736328" y2="1000.2232292890549" /><line x1="-0.11164569854736328" y1="1000.2232292890549" x2="-0.10339963436126709" y2="1000.2231925725937" /><line x1="-0.10339963436126709" y1="1000.2231925725937" x2="-0.09511727094650269" y2="1000.2225378751755" /><line x1="-0.09511727094650269" y1="1000.2225378751755" x2="-0.08684414625167847" y2="1000.2212752103806" /><line x1="-0.08684414625167847" y1="1000.2212752103806" x2="-0.07862484455108643" y2="1000.2194181680679" /><line x1="-0.07862484455108643" y1="1000.2194181680679" x2="-0.07050162553787231" y2="1000.2169816493988" /><line x1="-0.07050162553787231" y1="1000.2169816493988" x2="-0.06251496076583862" y2="1000.2139825820923" /><line x1="-0.06251496076583862" y1="1000.2139825820923" x2="-0.05470365285873413" y2="1000.2104407548904" /><line x1="-0.05470365285873413" y1="1000.2104407548904" x2="-0.047104328870773315" y2="1000.2063776254654" /><line x1="-0.047104328870773315" y1="1000.2063776254654" x2="-0.03975144028663635" y2="1000.2018154859543" /><line x1="-0.03975144028663635" y1="1000.2018154859543" x2="-0.032677412033081055" y2="1000.1967791318893" /><line x1="-0.032677412033081055" y1="1000.1967791318893" x2="-0.025912553071975708" y2="1000.1912941932678" /><line x1="-0.025912553071975708" y1="1000.1912941932678" x2="-0.01948501169681549" y2="1000.1853873729706" /><line x1="-0.01948501169681549" y1="1000.1853873729706" x2="-0.013420738279819489" y2="1000.1790872812271" /><line x1="-0.013420738279819489" y1="1000.1790872812271" x2="-0.007743477821350098" y2="1000.1724218130112" /><line x1="-0.007743477821350098" y1="1000.1724218130112" x2="-0.002474883571267128" y2="1000.1654214859009" /><line x1="-0.002474883571267128" y1="1000.1654214859009" x2="0.002365589141845703" y2="1000.1581162214279" /><line x1="0.002365589141845703" y1="1000.1581162214279" x2="0.006760619580745697" y2="1000.1505368947983" /><line x1="0.006760619580745697" y1="1000.1505368947983" x2="0.010695002973079681" y2="1000.1427149772644" /><line x1="0.010695002973079681" y1="1000.1427149772644" x2="0.014155641198158264" y2="1000.134682059288" /><line x1="0.014155641198158264" y1="1000.134682059288" x2="0.01713147759437561" y2="1000.1264696121216" /><line x1="0.01713147759437561" y1="1000.1264696121216" x2="0.019613519310951233" y2="1000.1181101799011" /><line x1="0.019613519310951233" y1="1000.1181101799011" x2="0.021594777703285217" y2="1000.1096353530884" /><line x1="0.021594777703285217" y1="1000.1096353530884" x2="0.02307024598121643" y2="1000.1010773181915" /><line x1="0.02307024598121643" y1="1000.1010773181915" x2="0.02403677999973297" y2="1000.0924676060677" /><line x1="0.02403677999973297" y1="1000.0924676060677" x2="0.024493321776390076" y2="1000.083838224411" /><line x1="0.024493321776390076" y1="1000.083838224411" x2="0.024440452456474304" y2="1000.0752200484276" /><line x1="0.024440452456474304" y1="1000.0752200484276" x2="0.023880809545516968" y2="1000.0666441321373" /><line x1="0.023880809545516968" y1="1000.0666441321373" x2="0.022818654775619507" y2="1000.0581409931183" /><line x1="0.022818654775619507" y1="1000.0581409931183" x2="0.0212600976228714" y2="1000.0497404634953" /><line x1="0.0212600976228714" y1="1000.0497404634953" x2="0.019212961196899414" y2="1000.041472017765" /><line x1="0.019212961196899414" y1="1000.041472017765" x2="0.016686752438545227" y2="1000.0333642363548" /><line x1="0.016686752438545227" y1="1000.0333642363548" x2="0.013692662119865417" y2="1000.0254452228546" /><line x1="0.013692662119865417" y1="1000.0254452228546" x2="0.01024339348077774" y2="1000.0177420675755" /><line x1="0.01024339348077774" y1="1000.0177420675755" x2="0.006353337317705154" y2="1000.0102811902761" /><line x1="0.006353337317705154" y1="1000.0102811902761" x2="0.0020383521914482117" y2="1000.0030879713595" /><line x1="0.0020383521914482117" y1="1000.0030879713595" x2="-0.0026841703802347183" y2="999.9961868748069" /><line x1="-0.0026841703802347183" y1="999.9961868748069" x2="-0.00779540091753006" y2="999.9896013215184" /><line x1="-0.00779540091753006" y1="999.9896013215184" x2="-0.013275086879730225" y2="999.9833535701036" /><line x1="-0.013275086879730225" y1="999.9833535701036" x2="-0.01910156011581421" y2="999.9774648249149" /><line x1="-0.01910156011581421" y1="999.9774648249149" x2="-0.02525186538696289" y2="999.9719549715519" /><line x1="-0.02525186538696289" y1="999.9719549715519" x2="-0.031701743602752686" y2="999.9668425917625" /><line x1="-0.031701743602752686" y1="999.9668425917625" x2="-0.03842565417289734" y2="999.9621449112892" /><line x1="-0.03842565417289734" y1="999.9621449112892" x2="-0.04539695382118225" y2="999.9578777551651" /><line x1="-0.04539695382118225" y1="999.9578777551651" x2="-0.05258771777153015" y2="999.9540554881096" /><line x1="-0.05258771777153015" y1="999.9540554881096" x2="-0.05996900796890259" y2="999.950690805912" /><line x1="-0.05996900796890259" y1="999.950690805912" x2="-0.06751072406768799" y2="999.9477948844433" /><line x1="-0.06751072406768799" y1="999.9477948844433" x2="-0.07518208026885986" y2="999.9453769922256" /><line x1="-0.07518208026885986" y1="999.9453769922256" x2="-0.08295094966888428" y2="999.9434449672699" /><line x1="-0.08295094966888428" y1="999.9434449672699" x2="-0.09078478813171387" y2="999.9420045018196" /><line x1="-0.09078478813171387" y1="999.9420045018196" x2="-0.09864991903305054" y2="999.941059410572" /><line x1="-0.09864991903305054" y1="999.941059410572" x2="-0.10651201009750366" y2="999.9406117796898" /><line x1="-0.10651201009750366" y1="999.9406117796898" x2="-0.11433637142181396" y2="999.9406613111496" /><line x1="-0.11433637142181396" y1="999.9406613111496" x2="-0.12208759784698486" y2="999.941205739975" /><line x1="-0.12208759784698486" y1="999.941205739975" x2="-0.1297297477722168" y2="999.9422405958176" /><line x1="-0.1297297477722168" y1="999.9422405958176" x2="-0.13722693920135498" y2="999.9437591433525" /><line x1="-0.13722693920135498" y1="999.9437591433525" x2="-0.14454245567321777" y2="999.9457523226738" /><line x1="-0.14454245567321777" y1="999.9457523226738" x2="-0.1516399383544922" y2="999.9482087492943" /><line x1="-0.1516399383544922" y1="999.9482087492943" x2="-0.15848314762115479" y2="999.9511144459248" /><line x1="-0.15848314762115479" y1="999.9511144459248" x2="-0.16503572463989258" y2="999.9544530212879" /><line x1="-0.16503572463989258" y1="999.9544530212879" x2="-0.17126166820526123" y2="999.9582056999207" /><line x1="-0.17126166820526123" y1="999.9582056999207" x2="-0.1771259307861328" y2="999.9623506963253" /><line x1="-0.1771259307861328" y1="999.9623506963253" x2="-0.1825937032699585" y2="999.9668641388416" /><line x1="-0.1825937032699585" y1="999.9668641388416" x2="-0.18763065338134766" y2="999.9717192351818" /><line x1="-0.18763065338134766" y1="999.9717192351818" x2="-0.19220447540283203" y2="999.9768865704536" /><line x1="-0.19220447540283203" y1="999.9768865704536" x2="-0.1962834596633911" y2="999.9823341667652" /><line x1="-0.1962834596633911" y1="999.9823341667652" x2="-0.199837327003479" y2="999.9880274683237" /><line x1="-0.199837327003479" y1="999.9880274683237" x2="-0.20283818244934082" y2="999.9939292855561" /><line x1="-0.20283818244934082" y1="999.9939292855561" x2="-0.2052593231201172" y2="1000.0" /><line x1="-0.2052593231201172" y1="1000.0" x2="-0.2070767879486084" y2="1000.0061975717545" /><line x1="-0.2070767879486084" y1="1000.0061975717545" x2="-0.20826852321624756" y2="1000.0124776512384" /><line x1="-0.20826852321624756" y1="1000.0124776512384" x2="-0.2088155746459961" y2="1000.018793746829" /><line x1="-0.2088155746459961" y1="1000.018793746829" x2="-0.20870232582092285" y2="1000.0250973850489" /><line x1="-0.20870232582092285" y1="1000.0250973850489" x2="-0.2079157829284668" y2="1000.0313382744789" /><line x1="-0.2079157829284668" y1="1000.0313382744789" x2="-0.20644652843475342" y2="1000.0374645292759" /><line x1="-0.20644652843475342" y1="1000.0374645292759" x2="-0.20428979396820068" y2="1000.0434231162071" /><line x1="-0.20428979396820068" y1="1000.0434231162071" x2="-0.20144367218017578" y2="1000.0491598844528" /><line x1="-0.20144367218017578" y1="1000.0491598844528" x2="-0.19791126251220703" y2="1000.0546200275421" /><line x1="-0.19791126251220703" y1="1000.0546200275421" x2="-0.19370007514953613" y2="1000.0597485899925" /><line x1="-0.19370007514953613" y1="1000.0597485899925" x2="-0.18882226943969727" y2="1000.0644905865192" /><line x1="-0.18882226943969727" y1="1000.0644905865192" x2="-0.1832948923110962" y2="1000.0687917172909" /><line x1="-0.1832948923110962" y1="1000.0687917172909" x2="-0.17714011669158936" y2="1000.0725988149643" /><line x1="-0.17714011669158936" y1="1000.0725988149643" x2="-0.17038488388061523" y2="1000.0758602619171" /><line x1="-0.17038488388061523" y1="1000.0758602619171" x2="-0.1630619764328003" y2="1000.0785264968872" /><line x1="-0.1630619764328003" y1="1000.0785264968872" x2="-0.15520846843719482" y2="1000.0805506110191" /><line x1="-0.15520846843719482" y1="1000.0805506110191" x2="-0.14686715602874756" y2="1000.0818891525269" /><line x1="-0.14686715602874756" y1="1000.0818891525269" x2="-0.1380854845046997" y2="1000.0825021862984" /><line x1="-0.1380854845046997" y1="1000.0825021862984" x2="-0.1289156675338745" y2="1000.0823544859886" /><line x1="-0.1289156675338745" y1="1000.0823544859886" x2="-0.1194145679473877" y2="1000.0814155340195" /><line x1="-0.1194145679473877" y1="1000.0814155340195" x2="-0.10964316129684448" y2="1000.0796604454517" /><line x1="-0.10964316129684448" y1="1000.0796604454517" x2="-0.09966588020324707" y2="1000.0770702660084" /><line x1="-0.09966588020324707" y1="1000.0770702660084" x2="-0.0895506739616394" y2="1000.0736325979233" /><line x1="-0.0895506739616394" y1="1000.0736325979233" x2="-0.079367995262146" y2="1000.0693417191505" /><line x1="-0.079367995262146" y1="1000.0693417191505" x2="-0.06919035315513611" y2="1000.0641992390156" /><line x1="-0.06919035315513611" y1="1000.0641992390156" x2="-0.059091717004776" y2="1000.0582142472267" /><line x1="-0.059091717004776" y1="1000.0582142472267" x2="-0.04914653301239014" y2="1000.0514032244682" /><line x1="-0.04914653301239014" y1="1000.0514032244682" x2="-0.03942917287349701" y2="1000.0437905490398" /><line x1="-0.03942917287349701" y1="1000.0437905490398" x2="-0.03001295030117035" y2="1000.0354079604149" /><line x1="-0.03001295030117035" y1="1000.0354079604149" x2="-0.020969457924365997" y2="1000.0262948721647" /><line x1="-0.020969457924365997" y1="1000.0262948721647" x2="-0.012367650866508484" y2="1000.0164978578687" /><line x1="-0.012367650866508484" y1="1000.0164978578687" x2="-0.004273086786270142" y2="1000.006070330739" /><line x1="-0.004273086786270142" y1="1000.006070330739" x2="0.0032529085874557495" y2="999.9950720537454" /><line x1="0.0032529085874557495" y1="999.9950720537454" x2="0.010153885930776596" y2="999.983568623662" /><line x1="0.010153885930776596" y1="999.983568623662" x2="0.01637900620698929" y2="999.9716307371855" /><line x1="0.01637900620698929" y1="999.9716307371855" x2="0.021883592009544373" y2="999.9593334794044" /><line x1="0.021883592009544373" y1="999.9593334794044" x2="0.02662961184978485" y2="999.9467555880547" /><line x1="0.02662961184978485" y1="999.9467555880547" x2="0.030586212873458862" y2="999.9339783787727" /><line x1="0.030586212873458862" y1="999.9339783787727" x2="0.03372982144355774" y2="999.9210851192474" /><line x1="0.03372982144355774" y1="999.9210851192474" x2="0.03604458272457123" y2="999.9081599116325" /><line x1="0.03604458272457123" y1="999.9081599116325" x2="0.03752224147319794" y2="999.8952867388725" /><line x1="0.03752224147319794" y1="999.8952867388725" x2="0.038162216544151306" y2="999.8825487494469" /><line x1="0.038162216544151306" y1="999.8825487494469" x2="0.03797146677970886" y2="999.8700274825096" /><line x1="0.03797146677970886" y1="999.8700274825096" x2="0.03696422278881073" y2="999.8578014969826" /><line x1="0.03696422278881073" y1="999.8578014969826" x2="0.03516177833080292" y2="999.8459461331367" /><line x1="0.03516177833080292" y1="999.8459461331367" x2="0.03259192407131195" y2="999.8345328569412" /><line x1="0.03259192407131195" y1="999.8345328569412" x2="0.02928854525089264" y2="999.8236280679703" /><line x1="0.02928854525089264" y1="999.8236280679703" x2="0.025291144847869873" y2="999.8132932186127" /><line x1="0.025291144847869873" y1="999.8132932186127" x2="0.020644143223762512" y2="999.8035840988159" /><line x1="0.020644143223762512" y1="999.8035840988159" x2="0.015396326780319214" y2="999.7945504188538" /><line x1="0.015396326780319214" y1="999.7945504188538" x2="0.009600181132555008" y2="999.786235332489" /><line x1="0.009600181132555008" y1="999.786235332489" x2="0.0033112410455942154" y2="999.7786763906479" /><line x1="0.0033112410455942154" y1="999.7786763906479" x2="-0.0034125633537769318" y2="999.7719039916992" /><line x1="-0.0034125633537769318" y1="999.7719039916992" x2="-0.010511554777622223" y2="999.7659420967102" /><line x1="-0.010511554777622223" y1="999.7659420967102" x2="-0.017924904823303223" y2="999.7608087062836" /><line x1="-0.017924904823303223" y1="999.7608087062836" x2="-0.02559131383895874" y2="999.7565149068832" /><line x1="-0.02559131383895874" y1="999.7565149068832" x2="-0.03344939649105072" y2="999.7530666589737" /><line x1="-0.03344939649105072" y1="999.7530666589737" x2="-0.04143837094306946" y2="999.7504633665085" /><line x1="-0.04143837094306946" y1="999.7504633665085" x2="-0.049498528242111206" y2="999.7486990690231" /><line x1="-0.049498528242111206" y1="999.7486990690231" x2="-0.05757150053977966" y2="999.7477626800537" /><line x1="-0.05757150053977966" y1="999.7477626800537" x2="-0.06560084223747253" y2="999.7476388216019" /><line x1="-0.06560084223747253" y1="999.7476388216019" x2="-0.0735321044921875" y2="999.7483067512512" /><line x1="-0.0735321044921875" y1="999.7483067512512" x2="-0.08131355047225952" y2="999.7497425079346" /><line x1="-0.08131355047225952" y1="999.7497425079346" x2="-0.08889603614807129" y2="999.7519179582596" /><line x1="-0.08889603614807129" y1="999.7519179582596" x2="-0.09623318910598755" y2="999.7548019886017" /><line x1="-0.09623318910598755" y1="999.7548019886017" x2="-0.10328161716461182" y2="999.7583606243134" /><line x1="-0.10328161716461182" y1="999.7583606243134" x2="-0.1100015640258789" y2="999.7625571489334" /><line x1="-0.1100015640258789" y1="999.7625571489334" x2="-0.11635607481002808" y2="999.7673524618149" /><line x1="-0.11635607481002808" y1="999.7673524618149" x2="-0.12231165170669556" y2="999.7727068662643" /><line x1="-0.12231165170669556" y1="999.7727068662643" x2="-0.12783807516098022" y2="999.778578042984" /><line x1="-0.12783807516098022" y1="999.778578042984" x2="-0.13290846347808838" y2="999.7849228382111" /><line x1="-0.13290846347808838" y1="999.7849228382111" x2="-0.13749945163726807" y2="999.7916973829269" /><line x1="-0.13749945163726807" y1="999.7916973829269" x2="-0.14159059524536133" y2="999.7988569736481" /><line x1="-0.14159059524536133" y1="999.7988569736481" x2="-0.1451648473739624" y2="999.8063570261002" /><line x1="-0.1451648473739624" y1="999.8063570261002" x2="-0.14820802211761475" y2="999.8141530752182" /><line x1="-0.14820802211761475" y1="999.8141530752182" x2="-0.1507093906402588" y2="999.8221998214722" /><line x1="-0.1507093906402588" y1="999.8221998214722" x2="-0.15266072750091553" y2="999.8304530382156" /><line x1="-0.15266072750091553" y1="999.8304530382156" x2="-0.15405678749084473" y2="999.8388692140579" /><line x1="-0.15405678749084473" y1="999.8388692140579" x2="-0.15489518642425537" y2="999.8474049568176" /><line x1="-0.15489518642425537" y1="999.8474049568176" x2="-0.15517592430114746" y2="999.8560177087784" /><line x1="-0.15517592430114746" y1="999.8560177087784" x2="-0.1549016237258911" y2="999.8646664619446" /><line x1="-0.1549016237258911" y1="999.8646664619446" x2="-0.15407705307006836" y2="999.8733109235764" /><line x1="-0.15407705307006836" y1="999.8733109235764" x2="-0.15270936489105225" y2="999.8819119930267" /><line x1="-0.15270936489105225" y1="999.8819119930267" x2="-0.15080773830413818" y2="999.8904317617416" /><line x1="-0.15080773830413818" y1="999.8904317617416" x2="-0.1483837366104126" y2="999.8988336324692" /><line x1="-0.1483837366104126" y1="999.8988336324692" x2="-0.14544999599456787" y2="999.90708309412" /><line x1="-0.14544999599456787" y1="999.90708309412" x2="-0.14202165603637695" y2="999.9151459336281" /><line x1="-0.14202165603637695" y1="999.9151459336281" x2="-0.1381152868270874" y2="999.9229906201363" /><line x1="-0.1381152868270874" y1="999.9229906201363" x2="-0.1337491273880005" y2="999.9305863976479" /><line x1="-0.1337491273880005" y1="999.9305863976479" x2="-0.12894213199615479" y2="999.937904715538" /><line x1="-0.12894213199615479" y1="999.937904715538" x2="-0.12371587753295898" y2="999.9449181556702" /><line x1="-0.12371587753295898" y1="999.9449181556702" x2="-0.11809170246124268" y2="999.9516014754772" /><line x1="-0.11809170246124268" y1="999.9516014754772" x2="-0.11209321022033691" y2="999.957930713892" /><line x1="-0.11209321022033691" y1="999.957930713892" x2="-0.10574448108673096" y2="999.9638839364052" /><line x1="-0.10574448108673096" y1="999.9638839364052" x2="-0.0990707278251648" y2="999.969440728426" /><line x1="-0.0990707278251648" y1="999.969440728426" x2="-0.09209775924682617" y2="999.9745826423168" /><line x1="-0.09209775924682617" y1="999.9745826423168" x2="-0.08485263586044312" y2="999.9792927354574" /><line x1="-0.08485263586044312" y1="999.9792927354574" x2="-0.07736265659332275" y2="999.9835560619831" /><line x1="-0.07736265659332275" y1="999.9835560619831" x2="-0.0696558952331543" y2="999.9873593077064" /><line x1="-0.0696558952331543" y1="999.9873593077064" x2="-0.061760902404785156" y2="999.9906910434365" /><line x1="-0.061760902404785156" y1="999.9906910434365" x2="-0.053706586360931396" y2="999.9935415498912" /><line x1="-0.053706586360931396" y1="999.9935415498912" x2="-0.04552227258682251" y2="999.9959029220045" /><line x1="-0.04552227258682251" y1="999.9959029220045" x2="-0.03723767399787903" y2="999.9977690391243" /><line x1="-0.03723767399787903" y1="999.9977690391243" x2="-0.028882533311843872" y2="999.9991355789825" /><line x1="-0.028882533311843872" y1="999.9991355789825" x2="-0.02048678696155548" y2="1000.0" /><line x1="-0.02048678696155548" y1="1000.0" x2="-0.012080445885658264" y2="1000.000361553859" /><line x1="-0.012080445885658264" y1="1000.000361553859" x2="-0.0036934390664100647" y2="1000.0002212789841" /><line x1="-0.0036934390664100647" y1="1000.0002212789841" x2="0.004644349217414856" y2="999.9995820014738" /><line x1="0.004644349217414856" y1="999.9995820014738" x2="0.01290322095155716" y2="999.9984483299777" /><line x1="0.01290322095155716" y1="999.9984483299777" x2="0.02105376124382019" y2="999.9968266543001" /><line x1="0.02105376124382019" y1="999.9968266543001" x2="0.029066801071166992" y2="999.9947251528502" /><line x1="0.029066801071166992" y1="999.9947251528502" x2="0.036913663148880005" y2="999.9921537563205" /><line x1="0.036913663148880005" y1="999.9921537563205" x2="0.044566065073013306" y2="999.9891241937876" /><line x1="0.044566065073013306" y1="999.9891241937876" x2="0.05199629068374634" y2="999.9856499284506" /><line x1="0.05199629068374634" y1="999.9856499284506" x2="0.059177398681640625" y2="999.9817461967468" /><line x1="0.059177398681640625" y1="999.9817461967468" x2="0.06608295440673828" y2="999.9774299561977" /><line x1="0.06608295440673828" y1="999.9774299561977" x2="0.07268750667572021" y2="999.9727199077606" /><line x1="0.07268750667572021" y1="999.9727199077606" x2="0.07896631956100464" y2="999.967636525631" /><line x1="0.07896631956100464" y1="999.967636525631" x2="0.08489596843719482" y2="999.9622018635273" /><line x1="0.08489596843719482" y1="999.9622018635273" x2="0.09045356512069702" y2="999.9564398527145" /><line x1="0.09045356512069702" y1="999.9564398527145" x2="0.09561794996261597" y2="999.950375854969" /><line x1="0.09561794996261597" y1="999.950375854969" x2="0.10036903619766235" y2="999.9440369009972" /><line x1="0.10036903619766235" y1="999.9440369009972" x2="0.10468769073486328" y2="999.937452018261" /><line x1="0.10468769073486328" y1="999.937452018261" x2="0.10855704545974731" y2="999.9306511282921" /><line x1="0.10855704545974731" y1="999.9306511282921" x2="0.11196112632751465" y2="999.9236661791801" /><line x1="0.11196112632751465" y1="999.9236661791801" x2="0.11488604545593262" y2="999.9165304303169" /><line x1="0.11488604545593262" y1="999.9165304303169" x2="0.11731946468353271" y2="999.909278512001" /><line x1="0.11731946468353271" y1="999.909278512001" x2="0.11925101280212402" y2="999.9019464850426" /><line x1="0.11925101280212402" y1="999.9019464850426" x2="0.12067246437072754" y2="999.8945716023445" /><line x1="0.12067246437072754" y1="999.8945716023445" x2="0.12157762050628662" y2="999.8871923685074" /><line x1="0.12157762050628662" y1="999.8871923685074" x2="0.12196266651153564" y2="999.8798483610153" /><line x1="0.12196266651153564" y1="999.8798483610153" x2="0.12182581424713135" y2="999.8725801706314" /><line x1="0.12182581424713135" y1="999.8725801706314" x2="0.12116825580596924" y2="999.8654290437698" /><line x1="0.12116825580596924" y1="999.8654290437698" x2="0.11999332904815674" y2="999.8584371805191" /><line x1="0.11999332904815674" y1="999.8584371805191" x2="0.11830717325210571" y2="999.8516474962234" /><line x1="0.11830717325210571" y1="999.8516474962234" x2="0.11611908674240112" y2="999.8451027870178" /><line x1="0.11611908674240112" y1="999.8451027870178" x2="0.11344075202941895" y2="999.8388464450836" /><line x1="0.11344075202941895" y1="999.8388464450836" x2="0.11028718948364258" y2="999.8329221010208" /><line x1="0.11028718948364258" y1="999.8329221010208" x2="0.10667651891708374" y2="999.8273723125458" /><line x1="0.10667651891708374" y1="999.8273723125458" x2="0.1026296615600586" y2="999.8222402334213" /><line x1="0.1026296615600586" y1="999.8222402334213" x2="0.0981711745262146" y2="999.8175674676895" /><line x1="0.0981711745262146" y1="999.8175674676895" x2="0.09332829713821411" y2="999.8133953809738" /><line x1="0.09332829713821411" y1="999.8133953809738" x2="0.08813196420669556" y2="999.8097634315491" /><line x1="0.08813196420669556" y1="999.8097634315491" x2="0.08261620998382568" y2="999.8067097663879" /><line x1="0.08261620998382568" y1="999.8067097663879" x2="0.07681816816329956" y2="999.8042705059052" /><line x1="0.07681816816329956" y1="999.8042705059052" x2="0.0707780122756958" y2="999.8024797439575" /><line x1="0.0707780122756958" y1="999.8024797439575" x2="0.06453931331634521" y2="999.801368355751" /><line x1="0.06453931331634521" y1="999.801368355751" x2="0.05814811587333679" y2="999.8009647130966" /><line x1="0.05814811587333679" y1="999.8009647130966" x2="0.05165329575538635" y2="999.8012937307358" /><line x1="0.05165329575538635" y1="999.8012937307358" x2="0.04510626196861267" y2="999.8023765087128" /><line x1="0.04510626196861267" y1="999.8023765087128" x2="0.038560688495635986" y2="999.8042297363281" /><line x1="0.038560688495635986" y1="999.8042297363281" x2="0.03207206726074219" y2="999.8068661689758" /><line x1="0.03207206726074219" y1="999.8068661689758" x2="0.02569758892059326" y2="999.8102927207947" /><line x1="0.02569758892059326" y1="999.8102927207947" x2="0.019495561718940735" y2="999.8145121335983" /><line x1="0.019495561718940735" y1="999.8145121335983" x2="0.013525031507015228" y2="999.8195209503174" /><line x1="0.013525031507015228" y1="999.8195209503174" x2="0.007845323532819748" y2="999.8253102302551" /><line x1="0.007845323532819748" y1="999.8253102302551" x2="0.002515483647584915" y2="999.8318648338318" /><line x1="0.002515483647584915" y1="999.8318648338318" x2="-0.0024062898010015488" y2="999.8391634225845" /><line x1="-0.0024062898010015488" y1="999.8391634225845" x2="-0.006863221526145935" y2="999.8471785187721" /><line x1="-0.006863221526145935" y1="999.8471785187721" x2="-0.010800592601299286" y2="999.855876147747" /><line x1="-0.010800592601299286" y1="999.855876147747" x2="-0.014166362583637238" y2="999.8652160167694" /><line x1="-0.014166362583637238" y1="999.8652160167694" x2="-0.01691184937953949" y2="999.875151693821" /><line x1="-0.01691184937953949" y1="999.875151693821" x2="-0.018992342054843903" y2="999.8856305480003" /><line x1="-0.018992342054843903" y1="999.8856305480003" x2="-0.020367704331874847" y2="999.8965944647789" /><line x1="-0.020367704331874847" y1="999.8965944647789" x2="-0.021003007888793945" y2="999.907979786396" /><line x1="-0.021003007888793945" y1="999.907979786396" x2="-0.02086915820837021" y2="999.9197179675102" /><line x1="-0.02086915820837021" y1="999.9197179675102" x2="-0.019943252205848694" y2="999.9317362308502" /><line x1="-0.019943252205848694" y1="999.9317362308502" x2="-0.018209129571914673" y2="999.9439580440521" /><line x1="-0.018209129571914673" y1="999.9439580440521" x2="-0.015657708048820496" y2="999.9563040435314" /><line x1="-0.015657708048820496" y1="999.9563040435314" x2="-0.01228729635477066" y2="999.9686924815178" /><line x1="-0.01228729635477066" y1="999.9686924815178" x2="-0.008103735744953156" y2="999.9810403734446" /><line x1="-0.008103735744953156" y1="999.9810403734446" x2="-0.0031205173581838608" y2="999.9932642355561" /><line x1="-0.0031205173581838608" y1="999.9932642355561" x2="0.0026412727311253548" y2="1000.0052810758352" /><line x1="0.0026412727311253548" y1="1000.0052810758352" x2="0.009153049439191818" y2="1000.0170092210174" /><line x1="0.009153049439191818" y1="1000.0170092210174" x2="0.01637900620698929" y2="1000.0283692628145" /><line x1="0.01637900620698929" y1="1000.0283692628145" x2="0.024276435375213623" y2="1000.039285004139" /><line x1="0.024276435375213623" y1="1000.039285004139" x2="0.03279620409011841" y2="1000.0496841371059" /><line x1="0.03279620409011841" y1="1000.0496841371059" x2="0.04188327491283417" y2="1000.0594992339611" /><line x1="0.04188327491283417" y1="1000.0594992339611" x2="0.0514773428440094" y2="1000.0686683356762" /><line x1="0.0514773428440094" y1="1000.0686683356762" x2="0.06151357293128967" y2="1000.077135592699" /><line x1="0.06151357293128967" y1="1000.077135592699" x2="0.07192325592041016" y2="1000.0848518610001" /><line x1="0.07192325592041016" y1="1000.0848518610001" x2="0.08263465762138367" y2="1000.0917750597" /><line x1="0.08263465762138367" y1="1000.0917750597" x2="0.09357380867004395" y2="1000.097870528698" /><line x1="0.09357380867004395" y1="1000.097870528698" x2="0.10466539859771729" y2="1000.1031112074852" /><line x1="0.10466539859771729" y1="1000.1031112074852" x2="0.11583364009857178" y2="1000.1074779033661" /><line x1="0.11583364009857178" y1="1000.1074779033661" x2="0.1270027756690979" y2="1000.1109589934349" /><line x1="0.1270027756690979" y1="1000.1109589934349" x2="0.13809829950332642" y2="1000.1135506033897" /><line x1="0.13809829950332642" y1="1000.1135506033897" x2="0.14904719591140747" y2="1000.1152561306953" /><line x1="0.14904719591140747" y1="1000.1152561306953" x2="0.1597791314125061" y2="1000.1160863041878" /><line x1="0.1597791314125061" y1="1000.1160863041878" x2="0.17022645473480225" y2="1000.1160584688187" /><line x1="0.17022645473480225" y1="1000.1160584688187" x2="0.18032550811767578" y2="1000.1151963472366" /><line x1="0.18032550811767578" y1="1000.1151963472366" x2="0.1900162696838379" y2="1000.1135294437408" /><line x1="0.1900162696838379" y1="1000.1135294437408" x2="0.1992431879043579" y2="1000.1110926866531" /><line x1="0.1992431879043579" y1="1000.1110926866531" x2="0.2079559564590454" y2="1000.1079257130623" /><line x1="0.2079559564590454" y1="1000.1079257130623" x2="0.21610820293426514" y2="1000.1040722131729" /><line x1="0.21610820293426514" y1="1000.1040722131729" x2="0.22365987300872803" y2="1000.0995798110962" /><line x1="0.22365987300872803" y1="1000.0995798110962" x2="0.23057520389556885" y2="1000.0944986343384" /><line x1="0.23057520389556885" y1="1000.0944986343384" x2="0.23682427406311035" y2="1000.0888816714287" /><line x1="0.23682427406311035" y1="1000.0888816714287" x2="0.24238228797912598" y2="1000.0827835202217" /><line x1="0.24238228797912598" y1="1000.0827835202217" x2="0.24722957611083984" y2="1000.0762602686882" /><line x1="0.24722957611083984" y1="1000.0762602686882" x2="0.25135159492492676" y2="1000.06936866045" /><line x1="0.25135159492492676" y1="1000.06936866045" x2="0.25473880767822266" y2="1000.0621659457684" /><line x1="0.25473880767822266" y1="1000.0621659457684" x2="0.2573862075805664" y2="1000.0547091066837" /><line x1="0.2573862075805664" y1="1000.0547091066837" x2="0.2592933177947998" y2="1000.047054797411" /><line x1="0.2592933177947998" y1="1000.047054797411" x2="0.26046431064605713" y2="1000.039258658886" /><line x1="0.26046431064605713" y1="1000.039258658886" x2="0.2609065771102905" y2="1000.0313751846552" /><line x1="0.2609065771102905" y1="1000.0313751846552" x2="0.26063239574432373" y2="1000.0234573334455" /><line x1="0.26063239574432373" y1="1000.0234573334455" x2="0.2596566677093506" y2="1000.0155563876033" /><line x1="0.2596566677093506" y1="1000.0155563876033" x2="0.25799739360809326" y2="1000.0077215656638" /><line x1="0.25799739360809326" y1="1000.0077215656638" x2="0.25567615032196045" y2="1000.0" /><line x1="0.25567615032196045" y1="1000.0" x2="0.2527165412902832" y2="999.9924364835024" /><line x1="0.2527165412902832" y1="999.9924364835024" x2="0.24914515018463135" y2="999.9850733652711" /><line x1="0.24914515018463135" y1="999.9850733652711" x2="0.24499022960662842" y2="999.9779504686594" /><line x1="0.24499022960662842" y1="999.9779504686594" x2="0.2402820587158203" y2="999.9711050242186" /><line x1="0.2402820587158203" y1="999.9711050242186" x2="0.23505210876464844" y2="999.964571595192" /><line x1="0.23505210876464844" y1="999.964571595192" x2="0.22933411598205566" y2="999.9583820104599" /><line x1="0.22933411598205566" y1="999.9583820104599" x2="0.22316241264343262" y2="999.9525653719902" /><line x1="0.22316241264343262" y1="999.9525653719902" x2="0.21657180786132812" y2="999.9471482634544" /><line x1="0.21657180786132812" y1="999.9471482634544" x2="0.20959877967834473" y2="999.9421544075012" /><line x1="0.20959877967834473" y1="999.9421544075012" x2="0.20228028297424316" y2="999.9376047849655" /><line x1="0.20228028297424316" y1="999.9376047849655" x2="0.19465303421020508" y2="999.9335179924965" /><line x1="0.19465303421020508" y1="999.9335179924965" x2="0.18675446510314941" y2="999.9299098849297" /><line x1="0.18675446510314941" y1="999.9299098849297" x2="0.17862188816070557" y2="999.9267938733101" /><line x1="0.17862188816070557" y1="999.9267938733101" x2="0.17029273509979248" y2="999.9241808056831" /><line x1="0.17029273509979248" y1="999.9241808056831" x2="0.1618044376373291" y2="999.9220790863037" /><line x1="0.1618044376373291" y1="999.9220790863037" x2="0.15319347381591797" y2="999.9204951524734" /><line x1="0.15319347381591797" y1="999.9204951524734" x2="0.14449667930603027" y2="999.919432580471" /><line x1="0.14449667930603027" y1="999.919432580471" x2="0.1357496976852417" y2="999.9188932776451" /><line x1="0.1357496976852417" y1="999.9188932776451" x2="0.12698841094970703" y2="999.9188766479492" /><line x1="0.12698841094970703" y1="999.9188766479492" x2="0.1182471513748169" y2="999.9193804264069" /><line x1="0.1182471513748169" y1="999.9193804264069" x2="0.10956025123596191" y2="999.9203998446465" /><line x1="0.10956025123596191" y1="999.9203998446465" x2="0.10096019506454468" y2="999.9219288229942" /><line x1="0.10096019506454468" y1="999.9219288229942" x2="0.0924796462059021" y2="999.9239590764046" /><line x1="0.0924796462059021" y1="999.9239590764046" x2="0.08414965867996216" y2="999.9264807105064" /><line x1="0.08414965867996216" y1="999.9264807105064" x2="0.07600045204162598" y2="999.9294818639755" /><line x1="0.07600045204162598" y1="999.9294818639755" x2="0.06806093454360962" y2="999.9329497218132" /><line x1="0.06806093454360962" y1="999.9329497218132" x2="0.06035935878753662" y2="999.936869084835" /><line x1="0.06035935878753662" y1="999.936869084835" x2="0.052922189235687256" y2="999.9412239193916" /><line x1="0.052922189235687256" y1="999.9412239193916" x2="0.04577511548995972" y2="999.9459965229034" /><line x1="0.04577511548995972" y1="999.9459965229034" x2="0.03894224762916565" y2="999.9511679708958" /><line x1="0.03894224762916565" y1="999.9511679708958" x2="0.032446473836898804" y2="999.9567179679871" /><line x1="0.032446473836898804" y1="999.9567179679871" x2="0.026309311389923096" y2="999.9626250863075" /><line x1="0.026309311389923096" y1="999.9626250863075" x2="0.020550906658172607" y2="999.9688667058945" /><line x1="0.020550906658172607" y1="999.9688667058945" x2="0.015189886093139648" y2="999.9754192084074" /><line x1="0.015189886093139648" y1="999.9754192084074" x2="0.01024339348077774" y2="999.9822579324245" /><line x1="0.01024339348077774" y1="999.9822579324245" x2="0.00572710856795311" y2="999.9893572479486" /><line x1="0.00572710856795311" y1="999.9893572479486" x2="0.0016550850123167038" y2="999.9966907501221" /><line x1="0.0016550850123167038" y1="999.9966907501221" x2="-0.001960175111889839" y2="1000.0042311213911" /><line x1="-0.001960175111889839" y1="1000.0042311213911" x2="-0.005107823759317398" y2="1000.0119503512979" /><line x1="-0.005107823759317398" y1="1000.0119503512979" x2="-0.007778681814670563" y2="1000.019819766283" /><line x1="-0.007778681814670563" y1="1000.019819766283" x2="-0.00996524840593338" y2="1000.0278100371361" /><line x1="-0.00996524840593338" y1="1000.0278100371361" x2="-0.01166178286075592" y2="1000.035891264677" /><line x1="-0.01166178286075592" y1="1000.035891264677" x2="-0.01286429911851883" y2="1000.044033229351" /><line x1="-0.01286429911851883" y1="1000.044033229351" x2="-0.013570621609687805" y2="1000.0522051751614" /><line x1="-0.013570621609687805" y1="1000.0522051751614" x2="-0.01378042995929718" y2="1000.0603760480881" /><line x1="-0.01378042995929718" y1="1000.0603760480881" x2="-0.013495251536369324" y2="1000.0685145258904" /><line x1="-0.013495251536369324" y1="1000.0685145258904" x2="-0.012718506157398224" y2="1000.0765892863274" /><line x1="-0.012718506157398224" y1="1000.0765892863274" x2="-0.01145559549331665" y2="1000.0845685601234" /><line x1="-0.01145559549331665" y1="1000.0845685601234" x2="-0.009713850915431976" y2="1000.0924211144447" /><line x1="-0.009713850915431976" y1="1000.0924211144447" x2="-0.007502593100070953" y2="1000.1001151204109" /><line x1="-0.007502593100070953" y1="1000.1001151204109" x2="-0.004833202809095383" y2="1000.107619702816" /><line x1="-0.004833202809095383" y1="1000.107619702816" x2="-0.0017190836369991302" y2="1000.1149036884308" /><line x1="-0.0017190836369991302" y1="1000.1149036884308" x2="0.0018242988735437393" y2="1000.1219362020493" /><line x1="0.0018242988735437393" y1="1000.1219362020493" x2="0.005779363214969635" y2="1000.128687620163" /><line x1="0.005779363214969635" y1="1000.128687620163" x2="0.010126441717147827" y2="1000.1351280212402" /><line x1="0.010126441717147827" y1="1000.1351280212402" x2="0.014843761920928955" y2="1000.1412290334702" /><line x1="0.014843761920928955" y1="1000.1412290334702" x2="0.01990741491317749" y2="1000.1469624042511" /><line x1="0.01990741491317749" y1="1000.1469624042511" x2="0.025291338562965393" y2="1000.1523011922836" /><line x1="0.025291338562965393" y1="1000.1523011922836" x2="0.030967414379119873" y2="1000.1572196483612" /><line x1="0.030967414379119873" y1="1000.1572196483612" x2="0.03690540790557861" y2="1000.1616932153702" /><line x1="0.03690540790557861" y1="1000.1616932153702" x2="0.043073058128356934" y2="1000.1656986474991" /><line x1="0.043073058128356934" y1="1000.1656986474991" x2="0.04943585395812988" y2="1000.1692140102386" /><line x1="0.04943585395812988" y1="1000.1692140102386" x2="0.05595776438713074" y2="1000.1722203493118" /><line x1="0.05595776438713074" y1="1000.1722203493118" x2="0.06260031461715698" y2="1000.1746987104416" /><line x1="0.06260031461715698" y1="1000.1746987104416" x2="0.06932348012924194" y2="1000.1766333580017" /><line x1="0.06932348012924194" y1="1000.1766333580017" x2="0.07608538866043091" y2="1000.1780105829239" /><line x1="0.07608538866043091" y1="1000.1780105829239" x2="0.08284264802932739" y2="1000.1788192987442" /><line x1="0.08284264802932739" y1="1000.1788192987442" x2="0.0895501971244812" y2="1000.1790504455566" /><line x1="0.0895501971244812" y1="1000.1790504455566" x2="0.09616166353225708" y2="1000.1786984205246" /><line x1="0.09616166353225708" y1="1000.1786984205246" x2="0.1026296615600586" y2="1000.1777597665787" /><line x1="0.1026296615600586" y1="1000.1777597665787" x2="0.10890567302703857" y2="1000.176234960556" /><line x1="0.10890567302703857" y1="1000.176234960556" x2="0.11494022607803345" y2="1000.1741269826889" /><line x1="0.11494022607803345" y1="1000.1741269826889" x2="0.12068367004394531" y2="1000.1714428663254" /><line x1="0.12068367004394531" y1="1000.1714428663254" x2="0.12608611583709717" y2="1000.1681928634644" /><line x1="0.12608611583709717" y1="1000.1681928634644" x2="0.131097674369812" y2="1000.1643912792206" /><line x1="0.131097674369812" y1="1000.1643912792206" x2="0.13566851615905762" y2="1000.1600557565689" /><line x1="0.13566851615905762" y1="1000.1600557565689" x2="0.13975036144256592" y2="1000.1552085876465" /><line x1="0.13975036144256592" y1="1000.1552085876465" x2="0.1432955265045166" y2="1000.1498754024506" /><line x1="0.1432955265045166" y1="1000.1498754024506" x2="0.14625799655914307" y2="1000.1440861821175" /><line x1="0.14625799655914307" y1="1000.1440861821175" x2="0.14859390258789062" y2="1000.1378749012947" /><line x1="0.14859390258789062" y1="1000.1378749012947" x2="0.15026164054870605" y2="1000.1312795877457" /><line x1="0.15026164054870605" y1="1000.1312795877457" x2="0.151222825050354" y2="1000.1243421435356" /><line x1="0.151222825050354" y1="1000.1243421435356" x2="0.1514425277709961" y2="1000.1171084046364" /><line x1="0.1514425277709961" y1="1000.1171084046364" x2="0.15088945627212524" y2="1000.1096275448799" /><line x1="0.15088945627212524" y1="1000.1096275448799" x2="0.14953690767288208" y2="1000.1019525527954" /><line x1="0.14953690767288208" y1="1000.1019525527954" x2="0.14736312627792358" y2="1000.0941390991211" /><line x1="0.14736312627792358" y1="1000.0941390991211" x2="0.14435160160064697" y2="1000.086246073246" /><line x1="0.14435160160064697" y1="1000.086246073246" x2="0.140491783618927" y2="1000.0783343911171" /><line x1="0.140491783618927" y1="1000.0783343911171" x2="0.13577890396118164" y2="1000.0704670548439" /><line x1="0.13577890396118164" y1="1000.0704670548439" x2="0.13021522760391235" y2="1000.0627083182335" /><line x1="0.13021522760391235" y1="1000.0627083182335" x2="0.12380951642990112" y2="1000.0551235675812" /><line x1="0.12380951642990112" y1="1000.0551235675812" x2="0.11657774448394775" y2="1000.0477780401707" /><line x1="0.11657774448394775" y1="1000.0477780401707" x2="0.1085430383682251" y2="1000.0407368838787" /><line x1="0.1085430383682251" y1="1000.0407368838787" x2="0.09973567724227905" y2="1000.0340638458729" /><line x1="0.09973567724227905" y1="1000.0340638458729" x2="0.09019339084625244" y2="1000.0278209745884" /><line x1="0.09019339084625244" y1="1000.0278209745884" x2="0.0799608826637268" y2="1000.0220678001642" /><line x1="0.0799608826637268" y1="1000.0220678001642" x2="0.06908980011940002" y2="1000.0168605148792" /><line x1="0.06908980011940002" y1="1000.0168605148792" x2="0.057638317346572876" y2="1000.0122513994575" /><line x1="0.057638317346572876" y1="1000.0122513994575" x2="0.045670658349990845" y2="1000.0082880035043" /><line x1="0.045670658349990845" y1="1000.0082880035043" x2="0.03325676918029785" y2="1000.0050126500428" /><line x1="0.03325676918029785" y1="1000.0050126500428" x2="0.020471394062042236" y2="1000.002461775206" /><line x1="0.020471394062042236" y1="1000.002461775206" x2="0.007393602281808853" y2="1000.000665436266" /><line x1="0.007393602281808853" y1="1000.000665436266" x2="-0.005894184112548828" y2="999.9996468713507" /><line x1="-0.005894184112548828" y1="999.9996468713507" x2="-0.019306935369968414" y2="999.9994221653324" /><line x1="-0.019306935369968414" y1="999.9994221653324" x2="-0.03275801241397858" y2="1000.0" /><line x1="-0.03275801241397858" y1="1000.0" x2="-0.04616004228591919" y2="1000.0013815173879" /><line x1="-0.04616004228591919" y1="1000.0013815173879" x2="-0.059425801038742065" y2="1000.0035602841526" /><line x1="-0.059425801038742065" y1="1000.0035602841526" x2="-0.07246950268745422" y2="1000.006522372365" /><line x1="-0.07246950268745422" y1="1000.006522372365" x2="-0.08520719408988953" y2="1000.0102465413511" /><line x1="-0.08520719408988953" y1="1000.0102465413511" x2="-0.09755814075469971" y2="1000.0147045254707" /><line x1="-0.09755814075469971" y1="1000.0147045254707" x2="-0.10944551229476929" y2="1000.0198614373803" /><line x1="-0.10944551229476929" y1="1000.0198614373803" x2="-0.12079685926437378" y2="1000.025676175952" /><line x1="-0.12079685926437378" y1="1000.025676175952" x2="-0.13154524564743042" y2="1000.0321020185947" /><line x1="-0.13154524564743042" y1="1000.0321020185947" x2="-0.14162957668304443" y2="1000.0390872806311" /><line x1="-0.14162957668304443" y1="1000.0390872806311" x2="-0.1509954333305359" y2="1000.0465759038925" /><line x1="-0.1509954333305359" y1="1000.0465759038925" x2="-0.15959471464157104" y2="1000.0545081496239" /><line x1="-0.15959471464157104" y1="1000.0545081496239" x2="-0.16738677024841309" y2="1000.0628212988377" /><line x1="-0.16738677024841309" y1="1000.0628212988377" x2="-0.17433834075927734" y2="1000.071450561285" /><line x1="-0.17433834075927734" y1="1000.071450561285" x2="-0.18042325973510742" y2="1000.0803296267986" /><line x1="-0.18042325973510742" y1="1000.0803296267986" x2="-0.18562281131744385" y2="1000.0893911719322" /><line x1="-0.18562281131744385" y1="1000.0893911719322" x2="-0.1899256706237793" y2="1000.0985683202744" /><line x1="-0.1899256706237793" y1="1000.0985683202744" x2="-0.19332754611968994" y2="1000.1077941656113" /><line x1="-0.19332754611968994" y1="1000.1077941656113" x2="-0.19583070278167725" y2="1000.1170033812523" /><line x1="-0.19583070278167725" y1="1000.1170033812523" x2="-0.19744431972503662" y2="1000.1261322498322" /><line x1="-0.19744431972503662" y1="1000.1261322498322" x2="-0.19818329811096191" y2="1000.1351190209389" /><line x1="-0.19818329811096191" y1="1000.1351190209389" x2="-0.19806861877441406" y2="1000.1439052224159" /><line x1="-0.19806861877441406" y1="1000.1439052224159" x2="-0.19712579250335693" y2="1000.1524347066879" /><line x1="-0.19712579250335693" y1="1000.1524347066879" x2="-0.19538581371307373" y2="1000.1606550216675" /><line x1="-0.19538581371307373" y1="1000.1606550216675" x2="-0.19288372993469238" y2="1000.1685174703598" /><line x1="-0.19288372993469238" y1="1000.1685174703598" x2="-0.1896580457687378" y2="1000.1759769916534" /><line x1="-0.1896580457687378" y1="1000.1759769916534" x2="-0.1857508420944214" y2="1000.1829925775528" /><line x1="-0.1857508420944214" y1="1000.1829925775528" x2="-0.18120670318603516" y2="1000.1895273923874" /><line x1="-0.18120670318603516" y1="1000.1895273923874" x2="-0.17607247829437256" y2="1000.195548415184" /><line x1="-0.17607247829437256" y1="1000.195548415184" x2="-0.17039740085601807" y2="1000.2010271549225" /><line x1="-0.17039740085601807" y1="1000.2010271549225" x2="-0.16423118114471436" y2="1000.205939412117" /><line x1="-0.16423118114471436" y1="1000.205939412117" x2="-0.15762507915496826" y2="1000.2102642059326" /><line x1="-0.15762507915496826" y1="1000.2102642059326" x2="-0.15063083171844482" y2="1000.2139855623245" /><line x1="-0.15063083171844482" y1="1000.2139855623245" x2="-0.14330053329467773" y2="1000.2170909643173" /><line x1="-0.14330053329467773" y1="1000.2170909643173" x2="-0.13568580150604248" y2="1000.2195715904236" /><line x1="-0.13568580150604248" y1="1000.2195715904236" x2="-0.12783807516098022" y2="1000.221421957016" /></g>
</g>
<g id="circle" >
<g>
<line x1="0.2880845069885254" y1="1000.0" x2="0.28453779220581055" y2="999.9549336433411" /><line x1="0.28453779220581055" y1="999.9549336433411" x2="0.2739846706390381" y2="999.9109769463539" /><line x1="0.2739846706390381" y1="999.9109769463539" x2="0.25668537616729736" y2="999.8692123889923" /><line x1="0.25668537616729736" y1="999.8692123889923" x2="0.23306536674499512" y2="999.830668091774" /><line x1="0.23306536674499512" y1="999.830668091774" x2="0.20370662212371826" y2="999.7962933778763" /><line x1="0.20370662212371826" y1="999.7962933778763" x2="0.16933190822601318" y2="999.766934633255" /><line x1="0.16933190822601318" y1="999.766934633255" x2="0.13078761100769043" y2="999.7433146238327" /><line x1="0.13078761100769043" y1="999.7433146238327" x2="0.08902305364608765" y2="999.726015329361" /><line x1="0.08902305364608765" y1="999.726015329361" x2="0.04506635665893555" y2="999.7154622077942" /><line x1="0.04506635665893555" y1="999.7154622077942" x2="1.7640096401281245e-17" y2="999.7119154930115" /><line x1="1.7640096401281245e-17" y1="999.7119154930115" x2="-0.04506635665893555" y2="999.7154622077942" /><line x1="-0.04506635665893555" y1="999.7154622077942" x2="-0.08902305364608765" y2="999.726015329361" /><line x1="-0.08902305364608765" y1="999.726015329361" x2="-0.13078761100769043" y2="999.7433146238327" /><line x1="-0.13078761100769043" y1="999.7433146238327" x2="-0.16933190822601318" y2="999.766934633255" /><line x1="-0.16933190822601318" y1="999.766934633255" x2="-0.20370662212371826" y2="999.7962933778763" /><line x1="-0.20370662212371826" y1="999.7962933778763" x2="-0.23306536674499512" y2="999.830668091774" /><line x1="-0.23306536674499512" y1="999.830668091774" x2="-0.25668537616729736" y2="999.8692123889923" /><line x1="-0.25668537616729736" y1="999.8692123889923" x2="-0.2739846706390381" y2="999.9109769463539" /><line x1="-0.2739846706390381" y1="999.9109769463539" x2="-0.28453779220581055" y2="999.9549336433411" /><line x1="-0.28453779220581055" y1="999.9549336433411" x2="-0.2880845069885254" y2="1000.0" /><line x1="-0.2880845069885254" y1="1000.0" x2="-0.28453779220581055" y2="1000.0450663566589" /><line x1="-0.28453779220581055" y1="1000.0450663566589" x2="-0.2739846706390381" y2="1000.0890230536461" /><line x1="-0.2739846706390381" y1="1000.0890230536461" x2="-0.25668537616729736" y2="1000.1307876110077" /><line x1="-0.25668537616729736" y1="1000.1307876110077" x2="-0.23306536674499512" y2="1000.169331908226" /><line x1="-0.23306536674499512" y1="1000.169331908226" x2="-0.20370662212371826" y2="1000.2037066221237" /><line x1="-0.20370662212371826" y1="1000.2037066221237" x2="-0.16933190822601318" y2="1000.233065366745" /><line x1="-0.16933190822601318" y1="1000.233065366745" x2="-0.13078761100769043" y2="1000.2566853761673" /><line x1="-0.13078761100769043" y1="1000.2566853761673" x2="-0.08902305364608765" y2="1000.273984670639" /><line x1="-0.08902305364608765" y1="1000.273984670639" x2="-0.04506635665893555" y2="1000.2845377922058" /><line x1="-0.04506635665893555" y1="1000.2845377922058" x2="-5.2920262734064134e-17" y2="1000.2880845069885" /><line x1="-5.2920262734064134e-17" y1="1000.2880845069885" x2="0.04506635665893555" y2="1000.2845377922058" /><line x1="0.04506635665893555" y1="1000.2845377922058" x2="0.08902305364608765" y2="1000.273984670639" /><line x1="0.08902305364608765" y1="1000.273984670639" x2="0.13078761100769043" y2="1000.2566853761673" /><line x1="0.13078761100769043" y1="1000.2566853761673" x2="0.16933190822601318" y2="1000.233065366745" /><line x1="0.16933190822601318" y1="1000.233065366745" x2="0.20370662212371826" y2="1000.2037066221237" /><line x1="0.20370662212371826" y1="1000.2037066221237" x2="0.23306536674499512" y2="1000.169331908226" /><line x1="0.23306536674499512" y1="1000.169331908226" x2="0.25668537616729736" y2="1000.1307876110077" /><line x1="0.25668537616729736" y1="1000.1307876110077" x2="0.2739846706390381" y2="1000.0890230536461" /><line x1="0.2739846706390381" y1="1000.0890230536461" x2="0.28453779220581055" y2="1000.0450663566589" /><line x1="0.28453779220581055" y1="1000.0450663566589" x2="0.2880845069885254" y2="1000.0" /></g>
</g>
</svg>