<svg xmlns="http://www.w3.org/2000/svg" xmlns:inkscape="http://www.inkscape.org/namespaces/inkscape" xmlns:xlink="http://www.w3.org/1999/xlink" width="210.0mm" height="297.0mm">
<defs>
</defs>
<g id="torus" >
<g>
<line x1="-43.070312570841544" y1="1088.8210183710514" x2="-41.415136452763505" y2="1092.068615082549" /><line x1="-41.415136452763505" y1="1092.068615082549" x2="-39.2105808506268" y2="1095.4585735927064" /><line x1="-39.2105808506268" y1="1095.4585735927064" x2="-36.47366321904859" y2="1098.9263947298077" /><line x1="-36.47366321904859" y1="1098.9263947298077" x2="-33.23055403331186" y2="1102.4081335045348" /><line x1="-33.23055403331186" y1="1102.4081335045348" x2="-29.516229862173056" y2="1105.8415716788224" /><line x1="-29.516229862173056" y1="1105.8415716788224" x2="-25.373984515909193" y2="1109.1673621750383" /><line x1="-25.373984515909193" y1="1109.1673621750383" x2="-20.85478925850863" y2="1112.3300957644606" /><line x1="-20.85478925850863" y1="1112.3300957644606" x2="-16.016514474262223" y2="1115.279295666989" /><line x1="-16.016514474262223" y1="1115.279295666989" x2="-10.923025179011821" y2="1117.9703121840093" /><line x1="-10.923025179011821" y1="1117.9703121840093" x2="-5.643159387152016" y2="1120.3650945550778" /><line x1="-5.643159387152016" y1="1120.3650945550778" x2="-0.24962708594900906" y2="1122.4328397040263" /><line x1="-0.24962708594900906" y1="1122.4328397040263" x2="5.182175374763417" y2="1124.1504944491614" /><line x1="5.182175374763417" y1="1124.1504944491614" x2="10.575399626724957" y2="1125.5031104911636" /><line x1="10.575399626724957" y1="1125.5031104911636" x2="15.853005886286507" y2="1126.4840414956102" /><line x1="15.853005886286507" y1="1126.4840414956102" x2="20.9390452579972" y2="1127.0949811261362" /><line x1="20.9390452579972" y1="1127.0949811261362" x2="25.759913984115528" y2="1127.3458407434473" /><line x1="25.759913984115528" y1="1127.3458407434473" x2="30.245576700878473" y2="1127.2544716101283" /><line x1="30.245576700878473" y1="1127.2544716101283" x2="34.33074126013019" y2="1126.8462317948477" /><line x1="34.33074126013019" y1="1126.8462317948477" x2="37.95594794553952" y2="1126.1534159389423" /><line x1="37.95594794553952" y1="1126.1534159389423" x2="41.06854717650575" y2="1125.214545914214" /><line x1="41.06854717650575" y1="1125.214545914214" x2="43.62360737607107" y2="1124.0735488420244" /><line x1="43.62360737607107" y1="1124.0735488420244" x2="45.58462910027103" y2="1122.7788277360296" /><line x1="45.58462910027103" y1="1122.7788277360296" x2="46.92417356207399" y2="1121.3822492498741" /><line x1="46.92417356207399" y1="1121.3822492498741" x2="47.624313186176344" y2="1119.93806350727" /><line x1="47.624313186176344" y1="1119.93806350727" x2="47.6769019418797" y2="1118.5017787357951" /><line x1="47.6769019418797" y1="1118.5017787357951" x2="47.08371952062535" y2="1117.1290100817928" /><line x1="47.08371952062535" y1="1117.1290100817928" x2="45.856417269418856" y2="1115.874324236517" /><line x1="45.856417269418856" y1="1115.874324236517" x2="44.01629741898036" y2="1114.7901057980298" /><line x1="44.01629741898036" y1="1114.7901057980298" x2="41.593943628812454" y2="1113.9254601702737" /><line x1="41.593943628812454" y1="1113.9254601702737" x2="38.62868482699384" y2="1113.325177005446" /><line x1="38.62868482699384" y1="1113.325177005446" x2="35.167910366890524" y2="1113.0287744646394" /><line x1="35.167910366890524" y1="1113.0287744646394" x2="31.26624100633249" y2="1113.069643163731" /><line x1="31.26624100633249" y1="1113.069643163731" x2="26.984612028605387" y2="1113.4742988156154" /><line x1="26.984612028605387" y1="1113.4742988156154" x2="22.389207680359696" y2="1114.2617734180385" /><line x1="22.389207680359696" y1="1114.2617734180385" x2="17.55034942765342" y2="1115.4431331599653" /><line x1="17.55034942765342" y1="1115.4431331599653" x2="12.54128283716583" y2="1117.0211590908696" /><line x1="12.54128283716583" y1="1117.0211590908696" x2="7.436957135895806" y2="1118.990176473105" /><line x1="7.436957135895806" y1="1118.990176473105" x2="2.3127481699139802" y2="1121.3360467563978" /><line x1="2.3127481699139802" y1="1121.3360467563978" x2="-2.75679301158109" y2="1124.0363193584933" /><line x1="-2.75679301158109" y1="1124.0363193584933" x2="-7.699184532288103" y2="1127.06054212557" /><line x1="-7.699184532288103" y1="1127.06054212557" x2="-12.445208785397456" y2="1130.3707259668713" /><line x1="-12.445208785397456" y1="1130.3707259668713" x2="-16.930043607724105" y2="1133.9219543708655" /><line x1="-16.930043607724105" y1="1133.9219543708655" x2="-21.09430418767161" y2="1137.6631282286412" /><line x1="-21.09430418767161" y1="1137.6631282286412" x2="-24.884990638285945" y2="1141.5378330110896" /><line x1="-24.884990638285945" y1="1141.5378330110896" x2="-28.25631420211129" y2="1145.4853080249084" /><line x1="-28.25631420211129" y1="1145.4853080249084" x2="-31.170376462543913" y2="1149.4415102851112" /><line x1="-31.170376462543913" y1="1149.4415102851112" x2="-33.59773141093926" y2="1153.340253292274" /><line x1="-33.59773141093926" y1="1153.340253292274" x2="-35.517761659866" y2="1157.1143773486144" /><line x1="-35.517761659866" y1="1157.1143773486144" x2="-36.91891273159954" y2="1160.6969638031655" /><line x1="-36.91891273159954" y1="1160.6969638031655" x2="-37.798767399663305" y2="1164.0225538024974" /><line x1="-37.798767399663305" y1="1164.0225538024974" x2="-38.16394206122575" y2="1167.0283490192462" /><line x1="-38.16394206122575" y1="1167.0283490192462" x2="-38.02982992086711" y2="1169.6553763362592" /><line x1="-38.02982992086711" y1="1169.6553763362592" x2="-37.42017746907184" y2="1171.8495872002966" /><line x1="-37.42017746907184" y1="1171.8495872002966" x2="-36.366534805378386" y2="1173.562884886964" /><line x1="-36.366534805378386" y1="1173.562884886964" x2="-34.9075505201246" y2="1174.7540661602338" /><line x1="-34.9075505201246" y1="1174.7540661602338" x2="-33.08814267362444" y2="1175.389614248887" /><line x1="-33.08814267362444" y1="1175.389614248887" x2="-30.958575158837697" y2="1175.4443927008954" /><line x1="-30.958575158837697" y1="1175.4443927008954" x2="-28.573428183662795" y2="1174.9021950602732" /><line x1="-28.573428183662795" y1="1174.9021950602732" x2="-25.990514686654183" y2="1173.7561188275572" /><line x1="-25.990514686654183" y1="1173.7561188275572" x2="-23.269724663972497" y2="1172.0087952427516" /><line x1="-23.269724663972497" y1="1172.0087952427516" x2="-20.471862738012742" y2="1169.6724613740957" /><line x1="-20.471862738012742" y1="1169.6724613740957" x2="-17.657458692744825" y2="1166.7688384682692" /><line x1="-17.657458692744825" y1="1166.7688384682692" x2="-14.885605042341755" y2="1163.3288796397073" /><line x1="-14.885605042341755" y1="1163.3288796397073" x2="-12.212820506708585" y2="1159.392321568578" /><line x1="-12.212820506708585" y1="1159.392321568578" x2="-9.691978817456674" y2="1155.0071100434193" /><line x1="-9.691978817456674" y1="1155.0071100434193" x2="-7.3713096126451845" y2="1150.2286610512751" /><line x1="-7.3713096126451845" y1="1150.2286610512751" x2="-5.293488316094648" y2="1145.1189979652618" /><line x1="-5.293488316094648" y1="1145.1189979652618" x2="-3.4948479480919983" y2="1139.745770461501" /><line x1="-3.4948479480919983" y1="1139.745770461501" x2="-2.004709206729358" y2="1134.1811776931604" /><line x1="-2.004709206729358" y1="1134.1811776931604" x2="-0.8448495172374978" y2="1128.5008002271454" /><line x1="-0.8448495172374978" y1="1128.5008002271454" x2="-0.029120962399437695" y2="1122.7823787062093" /><line x1="-0.029120962399437695" y1="1122.7823787062093" x2="0.43677880080321724" y2="1117.1045483355708" /><line x1="0.43677880080321724" y1="1117.1045483355708" x2="0.5553767907787666" y2="1111.5455593424963" /><line x1="0.5553767907787666" y1="1111.5455593424963" x2="0.33733576075284066" y2="1106.181995112707" /><line x1="0.33733576075284066" y1="1106.181995112707" x2="-0.19879244918236208" y2="1101.0875258607769" /><line x1="-0.19879244918236208" y1="1101.0875258607769" x2="-1.0269662294552273" y2="1096.331705983225" /><line x1="-1.0269662294552273" y1="1096.331705983225" x2="-2.1141986683251273" y2="1091.9788397868185" /><line x1="-2.1141986683251273" y1="1091.9788397868185" x2="-3.4212377136253056" y2="1088.0869384542218" /><line x1="-3.4212377136253056" y1="1088.0869384542218" x2="-4.90336756190536" y2="1084.7067930275052" /><line x1="-4.90336756190536" y1="1084.7067930275052" x2="-6.511317089537196" y2="1081.8811476400954" /><line x1="-6.511317089537196" y1="1081.8811476400954" x2="-8.192260999549948" y2="1079.6440439595488" /><line x1="-8.192260999549948" y1="1079.6440439595488" x2="-9.890888622083365" y2="1078.0202940384404" /><line x1="-9.890888622083365" y1="1078.0202940384404" x2="-11.550529738182483" y2="1077.0250995955628" /><line x1="-11.550529738182483" y1="1077.0250995955628" x2="-13.114301804945073" y2="1076.6638762995547" /><line x1="-13.114301804945073" y1="1076.6638762995547" x2="-14.526278582021854" y2="1076.9322087134228" /><line x1="-14.526278582021854" y1="1076.9322087134228" x2="-15.73263341440948" y2="1077.8159899665275" /><line x1="-15.73263341440948" y1="1077.8159899665275" x2="-16.682761113890752" y2="1079.2917146151992" /><line x1="-16.682761113890752" y1="1079.2917146151992" x2="-17.33033113086855" y2="1081.3269607363711" /><line x1="-17.33033113086855" y1="1081.3269607363711" x2="-17.63427314298048" y2="1083.8809801543593" /><line x1="-17.63427314298048" y1="1083.8809801543593" x2="-17.55967478552842" y2="1086.9054711423375" /><line x1="-17.55967478552842" y1="1086.9054711423375" x2="-17.078549847404478" y2="1090.3454344764477" /><line x1="-17.078549847404478" y1="1090.3454344764477" x2="-16.170503965800975" y2="1094.1401871840892" /><line x1="-16.170503965800975" y1="1094.1401871840892" x2="-14.823240373968135" y2="1098.2244213476888" /><line x1="-14.823240373968135" y1="1098.2244213476888" x2="-13.032936114468132" y2="1102.5293800527147" /><line x1="-13.032936114468132" y1="1102.5293800527147" x2="-10.804448167993925" y2="1106.9840412204023" /><line x1="-10.804448167993925" y1="1106.9840412204023" x2="-8.151365267170714" y2="1111.5163757820198" /><line x1="-8.151365267170714" y1="1111.5163757820198" x2="-5.095895257857119" y2="1116.0545782566521" /><line x1="-5.095895257857119" y1="1116.0545782566521" x2="-1.6685971598403766" y2="1120.5283069032755" /><line x1="-1.6685971598403766" y1="1120.5283069032755" x2="2.092052914549228" y2="1124.8698768461745" /><line x1="2.092052914549228" y1="1124.8698768461745" x2="6.1402379073828035" y2="1129.0153996969773" /><line x1="6.1402379073828035" y1="1129.0153996969773" x2="10.42351760524106" y2="1132.9058463007786" /><line x1="10.42351760524106" y1="1132.9058463007786" x2="14.883680046978984" y2="1136.4880137393702" /><line x1="14.883680046978984" y1="1136.4880137393702" x2="19.45768867438452" y2="1139.7153771613994" /><line x1="19.45768867438452" y1="1139.7153771613994" x2="24.07875437099454" y2="1142.5488216523154" /><line x1="24.07875437099454" y1="1142.5488216523154" x2="28.67744776924567" y2="1144.9572217604739" /><line x1="28.67744776924567" y1="1144.9572217604739" x2="33.18290110539064" y2="1146.9178852936116" /><line x1="33.18290110539064" y1="1146.9178852936116" x2="37.52403260215444" y2="1148.4168292836573" /><line x1="37.52403260215444" y1="1148.4168292836573" x2="41.630776483325384" y2="1149.4488993837535" /><line x1="41.630776483325384" y1="1149.4488993837535" x2="45.43532425221605" y2="1150.0177203072278" /><line x1="45.43532425221605" y1="1150.0177203072278" x2="48.87332316741871" y2="1150.1355020890321" /><line x1="48.87332316741871" y1="1150.1355020890321" x2="51.88501614643735" y2="1149.8226683780356" /><line x1="51.88501614643735" y1="1149.8226683780356" x2="54.416336613840144" y2="1149.107349562881" /><line x1="54.416336613840144" y1="1149.107349562881" x2="56.41986818297338" y2="1148.024724961982" /><line x1="56.41986818297338" y1="1148.024724961982" x2="57.8557547766479" y2="1146.6162546275993" /><line x1="57.8557547766479" y1="1146.6162546275993" x2="58.69241700926356" y2="1144.9287872473446" /><line x1="58.69241700926356" y1="1144.9287872473446" x2="58.90717395242672" y2="1143.0135734291794" /><line x1="58.90717395242672" y1="1143.0135734291794" x2="58.486707206389326" y2="1140.9252091504195" /><line x1="58.486707206389326" y1="1140.9252091504195" x2="57.427358266213844" y2="1138.7205138762963" /><line x1="57.427358266213844" y1="1138.7205138762963" x2="55.73526368821177" y2="1136.457385024388" /><line x1="55.73526368821177" y1="1136.457385024388" x2="53.426314540012115" y2="1134.1936265221536" /><line x1="53.426314540012115" y1="1134.1936265221536" x2="50.52597167309532" y2="1131.9857965130423" /><line x1="50.52597167309532" y1="1131.9857965130423" x2="47.068887256765215" y2="1129.8880725216045" /><line x1="47.068887256765215" y1="1129.8880725216045" x2="43.098377629038616" y2="1127.9511774434975" /><line x1="43.098377629038616" y1="1127.9511774434975" x2="38.665769992192125" y2="1126.221371147535" /><line x1="38.665769992192125" y1="1126.221371147535" x2="33.82956663361694" y2="1124.7395341598717" /><line x1="33.82956663361694" y1="1124.7395341598717" x2="28.65452579403655" y2="1123.540353356611" /><line x1="28.65452579403655" y1="1123.540353356611" x2="23.210611874833702" y2="1122.6516344981449" /><line x1="23.210611874833702" y1="1122.6516344981449" x2="17.571869051062272" y2="1122.0937454595871" /><line x1="17.571869051062272" y1="1122.0937454595871" x2="11.81520477350006" y2="1121.8792059795119" /><line x1="11.81520477350006" y1="1121.8792059795119" x2="6.019152995735764" y2="1122.0124293653373" /><line x1="6.019152995735764" y1="1122.0124293653373" x2="0.26258713623664226" y2="1122.4896213824936" /><line x1="0.26258713623664226" y1="1122.4896213824936" x2="-5.3765604828586575" y2="1123.2988388089473" /><line x1="-5.3765604828586575" y1="1123.2988388089473" x2="-10.82256497631154" y2="1124.4202058423" /><line x1="-10.82256497631154" y1="1124.4202058423" x2="-16.003135249616825" y2="1125.8262855610985" /><line x1="-16.003135249616825" y1="1125.8262855610985" x2="-20.850574318398927" y2="1127.482597640454" /><line x1="-20.850574318398927" y1="1127.482597640454" x2="-25.30287119979851" y2="1129.3482769012346" /><line x1="-25.30287119979851" y1="1129.3482769012346" x2="-29.304669605282303" y2="1131.376854248243" /><line x1="-29.304669605282303" y1="1131.376854248243" x2="-32.80814764888086" y2="1133.5171522886726" /><line x1="-32.80814764888086" y1="1133.5171522886726" x2="-35.77374211402194" y2="1135.7142748630743" /><line x1="-35.77374211402194" y1="1135.7142748630743" x2="-38.17074093308629" y2="1137.9106754234167" /><line x1="-38.17074093308629" y1="1137.9106754234167" x2="-39.97770896168918" y2="1140.0472760985576" /><line x1="-39.97770896168918" y1="1140.0472760985576" x2="-41.18276732265343" y2="1142.0646351943576" /><line x1="-41.18276732265343" y1="1142.0646351943576" x2="-41.78370829748225" y2="1143.9041175097607" /><line x1="-41.78370829748225" y1="1143.9041175097607" x2="-41.787898457078214" y2="1145.5090612737147" /><line x1="-41.787898457078214" y1="1145.5090612737147" x2="-41.21210294537315" y2="1146.8259270598978" /><line x1="-41.21210294537315" y1="1146.8259270598978" x2="-40.08203943008079" y2="1147.805376865455" /><line x1="-40.08203943008079" y1="1147.805376865455" x2="-38.43189150351791" y2="1148.4033036287035" /><line x1="-38.43189150351791" y1="1148.4033036287035" x2="-36.303576531062006" y2="1148.5817526136902" /><line x1="-36.303576531062006" y1="1148.5817526136902" x2="-33.745954927485606" y2="1148.3097504310147" /><line x1="-33.745954927485606" y1="1148.3097504310147" x2="-30.81389750853009" y2="1147.5640101560834" /><line x1="-30.81389750853009" y1="1147.5640101560834" x2="-27.56724020378065" y2="1146.329485511509" /><line x1="-27.56724020378065" y1="1146.329485511509" x2="-24.069689208513807" y2="1144.5997921358419" /><line x1="-24.069689208513807" y1="1144.5997921358419" x2="-20.387649541229724" y2="1142.3774801692239" /><line x1="-20.387649541229724" y1="1142.3774801692239" x2="-16.589006292931007" y2="1139.6741209851841" /><line x1="-16.589006292931007" y1="1139.6741209851841" x2="-12.7419171402714" y2="1136.5102497449036" /><line x1="-12.7419171402714" y1="1136.5102497449036" x2="-8.913584583738684" y2="1132.915145751753" /><line x1="-8.913584583738684" y1="1132.915145751753" x2="-5.169070425349634" y2="1128.926437652652" /><line x1="-5.169070425349634" y1="1128.926437652652" x2="-1.570152626655413" y2="1124.5895706570254" /><line x1="-1.570152626655413" y1="1124.5895706570254" x2="1.8257418021313456" y2="1119.9571177511586" /><line x1="1.8257418021313456" y1="1119.9571177511586" x2="4.966521827557682" y2="1115.0879636308252" /><line x1="4.966521827557682" y1="1115.0879636308252" x2="7.8063073140233685" y2="1110.0463686736998" /><line x1="7.8063073140233685" y1="1110.0463686736998" x2="10.306182999071108" y2="1104.9009259050074" /><line x1="10.306182999071108" y1="1104.9009259050074" x2="12.434816739044665" y2="1099.7234396792758" /><line x1="12.434816739044665" y1="1099.7234396792758" x2="14.168936815575098" y2="1094.587734526096" /><line x1="14.168936815575098" y1="1094.587734526096" x2="15.493649013517926" y2="1089.5684189404033" /><line x1="15.493649013517926" y1="1089.5684189404033" x2="16.402597131098947" y2="1084.73963847208" /><line x1="16.402597131098947" y1="1084.73963847208" x2="16.8979663590752" y2="1080.1738017822736" /><line x1="16.8979663590752" y1="1080.1738017822736" x2="16.990322207395646" y2="1075.940366398222" /><line x1="16.990322207395646" y1="1075.940366398222" x2="16.698290611296557" y2="1072.1046312264032" /><line x1="16.698290611296557" y1="1072.1046312264032" x2="16.048093859862362" y2="1068.72662368219" /><line x1="16.048093859862362" y1="1068.72662368219" x2="15.072938967891096" y2="1065.8600498971782" /><line x1="15.072938967891096" y1="1065.8600498971782" x2="13.81228214519112" y2="1063.551371081856" /><line x1="13.81228214519112" y1="1063.551371081856" x2="12.310971616083132" y2="1061.8389745047791" /><line x1="12.310971616083132" y1="1061.8389745047791" x2="10.618300327943121" y2="1060.7525021659287" /><line x1="10.618300327943121" y1="1060.7525021659287" x2="8.786967985592776" y2="1060.3123146365024" /><line x1="8.786967985592776" y1="1060.3123146365024" x2="6.87198507676" y2="1060.529121603984" /><line x1="6.87198507676" y1="1060.529121603984" x2="4.9295419795427975" y2="1061.4037475836487" /><line x1="4.9295419795427975" y1="1061.4037475836487" x2="3.01585047339195" y2="1062.9271274130158" /><line x1="3.01585047339195" y1="1062.9271274130158" x2="1.1859893332465186" y2="1065.0803918572597" /><line x1="1.1859893332465186" y1="1065.0803918572597" x2="-0.5072221982526898" y2="1067.8351829975659" /><line x1="-0.5072221982526898" y1="1067.8351829975659" x2="-2.014310670214833" y2="1071.154095774832" /><line x1="-2.014310670214833" y1="1071.154095774832" x2="-3.29016653653796" y2="1074.9912907441876" /><line x1="-3.29016653653796" y1="1074.9912907441876" x2="-4.294978634714064" y2="1079.2932510070511" /><line x1="-4.294978634714064" y1="1079.2932510070511" x2="-4.995066163418215" y2="1083.9996427707886" /><line x1="-4.995066163418215" y1="1083.9996427707886" x2="-5.363594079044419" y2="1089.0443336025508" /><line x1="-5.363594079044419" y1="1089.0443336025508" x2="-5.381153888996386" y2="1094.3564692552343" /><line x1="-5.381153888996386" y1="1094.3564692552343" x2="-5.03620632177388" y2="1099.8616496154973" /><line x1="-5.03620632177388" y1="1099.8616496154973" x2="-4.325369400444942" y2="1105.4831609711239" /><line x1="-4.325369400444942" y1="1105.4831609711239" x2="-3.2535516379072393" y2="1111.1432330589032" /><line x1="-3.2535516379072393" y1="1111.1432330589032" x2="-1.8339255667938439" y2="1116.7643203298287" /><line x1="-1.8339255667938439" y1="1116.7643203298287" x2="-0.08774130482689495" y2="1122.2703716512306" /><line x1="-0.08774130482689495" y1="1122.2703716512306" x2="1.956015778827819" y2="1127.5880663228972" /><line x1="1.956015778827819" y1="1127.5880663228972" x2="4.261117752269402" y2="1132.6480005497704" /><line x1="4.261117752269402" y1="1132.6480005497704" x2="6.784729508721953" y2="1137.3858004882857" /><line x1="6.784729508721953" y1="1137.3858004882857" x2="9.47817141852454" y2="1141.7431418201961" /><line x1="9.47817141852454" y1="1141.7431418201961" x2="12.287802962123607" y2="1145.6686545405196" /><line x1="12.287802962123607" y1="1145.6686545405196" x2="15.156003249946188" y2="1149.1187193131393" /><line x1="15.156003249946188" y1="1149.1187193131393" x2="18.022236866087436" y2="1152.058098247518" /><line x1="18.022236866087436" y1="1152.058098247518" x2="20.82418081849229" y2="1154.4604338881322" /><line x1="20.82418081849229" y1="1154.4604338881322" x2="23.498894855036184" y2="1156.3085871305702" /><line x1="23.498894855036184" y1="1156.3085871305702" x2="25.984015433732484" y2="1157.5948129379017" /><line x1="25.984015433732484" y1="1157.5948129379017" x2="28.218945187391995" y2="1158.3207558351287" /><line x1="28.218945187391995" y1="1158.3207558351287" x2="30.146028871638606" y2="1158.4973034788795" /><line x1="30.146028871638606" y1="1158.4973034788795" x2="31.711666235253592" y2="1158.1442577524056" /><line x1="31.711666235253592" y1="1158.1442577524056" x2="32.86738884613631" y2="1157.2898661885963" /><line x1="32.86738884613631" y1="1157.2898661885963" x2="33.57081977301807" y2="1155.9701889404905" /><line x1="33.57081977301807" y1="1155.9701889404905" x2="33.78656117840888" y2="1154.228362124187" /><line x1="33.78656117840888" y1="1154.228362124187" x2="33.48694223955753" y2="1152.1136989620277" /><line x1="33.48694223955753" y1="1152.1136989620277" x2="32.652636408521104" y2="1149.6807301008832" /><line x1="32.652636408521104" y1="1149.6807301008832" x2="31.273148011343906" y2="1146.9881267861933" /><line x1="31.273148011343906" y1="1146.9881267861933" x2="29.347125383640144" y2="1144.0975767277516" /><line x1="29.347125383640144" y1="1144.0975767277516" x2="26.88252307032022" y2="1141.0726115308514" /><line x1="26.88252307032022" y1="1141.0726115308514" x2="23.896597320042797" y2="1137.9773980830475" /><line x1="23.896597320042797" y1="1137.9773980830475" x2="20.415739379940533" y2="1134.8755490894964" /><line x1="20.415739379940533" y1="1134.8755490894964" x2="16.47513532674966" y2="1131.8289426193926" /><line x1="16.47513532674966" y1="1131.8289426193926" x2="12.118282846792065" y2="1128.8965805127568" /><line x1="12.118282846792065" y1="1128.8965805127568" x2="7.396348069005059" y2="1126.1335194391834" /><line x1="7.396348069005059" y1="1126.1335194391834" x2="2.367380754807356" y2="1123.5898781285089" /><line x1="2.367380754807356" y1="1123.5898781285089" x2="-2.904584558717474" y2="1121.3099435827373" /><line x1="-2.904584558717474" y1="1121.3099435827373" x2="-8.35054765744854" y2="1119.3313982337675" /><line x1="-8.35054765744854" y1="1119.3313982337675" x2="-13.897652141410981" y2="1117.6846725524713" /><line x1="-13.897652141410981" y1="1117.6846725524713" x2="-19.470362780775332" y2="1116.3924431024932" /><line x1="-19.470362780775332" y1="1116.3924431024932" x2="-24.991704541544507" y2="1115.469277165154" /><line x1="-24.991704541544507" y1="1115.469277165154" x2="-30.38452329419031" y2="1114.9214368889147" /><line x1="-30.38452329419031" y1="1114.9214368889147" x2="-35.57276989481992" y2="1114.7468412738144" /><line x1="-35.57276989481992" y1="1114.7468412738144" x2="-40.48274484279785" y2="1114.9351872580726" /><line x1="-40.48274484279785" y1="1114.9351872580726" x2="-45.04433280088491" y2="1115.4682313148355" /><line x1="-45.04433280088491" y1="1115.4682313148355" x2="-49.19218079602789" y2="1116.3202197320056" /><line x1="-49.19218079602789" y1="1116.3202197320056" x2="-52.86676152867636" y2="1117.458460816832" /><line x1="-52.86676152867636" y1="1117.458460816832" x2="-56.01539613216791" y2="1118.8440333933258" /><line x1="-56.01539613216791" y1="1118.8440333933258" x2="-58.5931057212912" y2="1120.4326114583337" /><line x1="-58.5931057212912" y1="1120.4326114583337" x2="-60.56337733543796" y2="1122.1753907404343" /><line x1="-60.56337733543796" y1="1122.1753907404343" x2="-61.89876768202858" y2="1124.020103609815" /><line x1="-61.89876768202858" y1="1124.020103609815" x2="-62.581344680211494" y2="1125.9120987905983" /><line x1="-62.581344680211494" y1="1125.9120987905983" x2="-62.60298482702808" y2="1127.7954673958343" /><line x1="-62.60298482702808" y1="1127.7954673958343" x2="-61.96549484720735" y2="1129.6141937782065" /><line x1="-61.96549484720735" y1="1129.6141937782065" x2="-60.680557626590534" y2="1131.313312505467" /><line x1="-60.680557626590534" y1="1131.313312505467" x2="-58.7695384735691" y2="1132.8400405201562" /><line x1="-58.7695384735691" y1="1132.8400405201562" x2="-56.263079619769044" y2="1134.144876493306" /><line x1="-56.263079619769044" y1="1134.144876493306" x2="-53.2005820820363" y2="1135.1826371004663" /><line x1="-53.2005820820363" y1="1135.1826371004663" x2="-49.62952081914796" y2="1135.9134121978727" /><line x1="-49.62952081914796" y1="1135.9134121978727" x2="-45.6046247220849" y2="1136.3034225661372" /><line x1="-45.6046247220849" y1="1136.3034225661372" x2="-41.18693495450964" y2="1136.3257667048213" /><line x1="-41.18693495450964" y1="1136.3257667048213" x2="-36.44275741286737" y2="1135.9610302077972" /><line x1="-36.44275741286737" y1="1135.9610302077972" x2="-31.442543097719764" y2="1135.1977689832652" /><line x1="-31.442543097719764" y1="1135.1977689832652" x2="-26.259687385215493" y2="1134.0328280212714" /><line x1="-26.259687385215493" y1="1134.0328280212714" x2="-20.969291001403352" y2="1132.471510351756" /><line x1="-20.969291001403352" y1="1132.471510351756" x2="-15.646898468805455" y2="1130.5275916875844" /><line x1="-15.646898468805455" y1="1130.5275916875844" x2="-10.367237679377496" y2="1128.2231621671747" /><line x1="-10.367237679377496" y1="1128.2231621671747" x2="-5.202979179241293" y2="1125.588319695641" /><line x1="-5.202979179241293" y1="1125.588319695641" x2="-0.22353859051901231" y2="1122.6607042805722" /><line x1="-0.22353859051901231" y1="1122.6607042805722" x2="4.506051447635686" y2="1119.484890143854" /><line x1="4.506051447635686" y1="1119.484890143854" x2="8.926189417329722" y2="1116.111640458279" /><line x1="8.926189417329722" y1="1116.111640458279" x2="12.983646546253107" y2="1112.5970415959464" /><line x1="12.983646546253107" y1="1112.5970415959464" x2="16.63239134055408" y2="1109.001530977093" /><line x1="16.63239134055408" y1="1109.001530977093" x2="19.83428264723296" y2="1105.3888328191872" /><line x1="19.83428264723296" y1="1105.3888328191872" x2="22.55961426225092" y2="1101.8248317499406" /><line x1="22.55961426225092" y1="1101.8248317499406" x2="24.787497338912484" y2="1098.3763889745837" /><line x1="24.787497338912484" y1="1098.3763889745837" x2="26.506111572163867" y2="1095.1101257779183" /><line x1="26.506111572163867" y1="1095.1101257779183" x2="27.71274912768552" y2="1092.0912194166274" /><line x1="27.71274912768552" y1="1092.0912194166274" x2="28.413733542028996" y2="1089.38219337965" /><line x1="28.413733542028996" y1="1089.38219337965" x2="28.6241561480617" y2="1087.0417594623573" /><line x1="28.6241561480617" y1="1087.0417594623573" x2="28.36746156455526" y2="1085.1237071489818" /><line x1="28.36746156455526" y1="1085.1237071489818" x2="27.67487999714348" y2="1083.6758831060067" /><line x1="27.67487999714348" y1="1083.6758831060067" x2="26.584737889485595" y2="1082.7392562809657" /><line x1="26.584737889485595" y1="1082.7392562809657" x2="25.141619891347073" y2="1082.3471204204545" /><line x1="25.141619891347073" y1="1082.3471204204545" x2="23.3954564851392" y2="1082.5243776880077" /><line x1="23.3954564851392" y1="1082.5243776880077" x2="21.400485457116005" y2="1083.287045306597" /><line x1="21.400485457116005" y1="1083.287045306597" x2="19.21416380754368" y2="1084.64181852048" /><line x1="19.21416380754368" y1="1084.64181852048" x2="16.896035731777488" y2="1086.5858791094122" /><line x1="16.896035731777488" y1="1086.5858791094122" x2="14.506539776441286" y2="1089.106821047106" /><line x1="14.506539776441286" y1="1089.106821047106" x2="12.105841902507805" y2="1092.1827496232856" /><line x1="12.105841902507805" y1="1092.1827496232856" x2="9.752661790056967" y2="1095.7825607876598" /><line x1="9.752661790056967" y1="1095.7825607876598" x2="7.503147577674722" y2="1099.8663736825258" /><line x1="7.503147577674722" y1="1099.8663736825258" x2="5.40979227817043" y2="1104.3861118584546" /><line x1="5.40979227817043" y1="1104.3861118584546" x2="3.5204411500435437" y2="1109.286239931382" /><line x1="3.5204411500435437" y1="1109.286239931382" x2="1.8773856599500043" y2="1114.5046252686539" /><line x1="1.8773856599500043" y1="1114.5046252686539" x2="0.5165690630792464" y2="1119.9735193536899" /><line x1="0.5165690630792464" y1="1119.9735193536899" x2="-0.5330801011464535" y2="1125.620638554299" /><line x1="-0.5330801011464535" y1="1125.620638554299" x2="-1.250178466944216" y2="1131.3703279620336" /><line x1="-1.250178466944216" y1="1131.3703279620336" x2="-1.6212703209522261" y2="1137.1447852116544" /><line x1="-1.6212703209522261" y1="1137.1447852116544" x2="-1.6410561531895502" y2="1142.865325132119" /><line x1="-1.6410561531895502" y1="1142.865325132119" x2="-1.3124623170514358" y2="1148.4536576326225" /><line x1="-1.3124623170514358" y1="1148.4536576326225" x2="-0.6465515519429392" y2="1153.833176007712" /><line x1="-0.6465515519429392" y1="1153.833176007712" x2="0.33772302667920845" y2="1158.9301920206224" /><line x1="0.33772302667920845" y1="1158.9301920206224" x2="1.6139188154756068" y2="1163.6751535276082" /><line x1="1.6139188154756068" y1="1163.6751535276082" x2="3.148648120135402" y2="1168.0037596010638" /><line x1="3.148648120135402" y1="1168.0037596010638" x2="4.9022575075285255" y2="1171.858026091612" /><line x1="4.9022575075285255" y1="1171.858026091612" x2="6.8296323628115765" y2="1175.1871980015662" /><line x1="6.8296323628115765" y1="1175.1871980015662" x2="8.881102398967533" y2="1177.9485672418834" /><line x1="8.881102398967533" y1="1177.9485672418834" x2="11.003445830805694" y2="1180.1081574754528" /><line x1="11.003445830805694" y1="1180.1081574754528" x2="13.140956626632963" y2="1181.641224232918" /><line x1="13.140956626632963" y1="1181.641224232918" x2="15.23657145843551" y2="1182.5326468953501" /><line x1="15.23657145843551" y1="1182.5326468953501" x2="17.2330180534132" y2="1182.7771044106173" /><line x1="17.2330180534132" y1="1182.7771044106173" x2="19.07398269409282" y2="1182.3791113377677" /><line x1="19.07398269409282" y1="1182.3791113377677" x2="20.705254627508065" y2="1181.352896197236" /><line x1="20.705254627508065" y1="1181.352896197236" x2="22.07584682025275" y2="1179.7220905880338" /><line x1="22.07584682025275" y1="1179.7220905880338" x2="23.139054762249682" y2="1177.519251599667" /><line x1="23.139054762249682" y1="1177.519251599667" x2="23.85343642343037" y2="1174.7852805964499" /><line x1="23.85343642343037" y1="1174.7852805964499" x2="24.183708857777592" y2="1171.568643757709" /><line x1="24.183708857777592" y1="1171.568643757709" x2="24.101525410347246" y2="1167.9245070125767" /><line x1="24.101525410347246" y1="1167.9245070125767" x2="23.58613352726941" y2="1163.913735808345" /><line x1="23.58613352726941" y1="1163.913735808345" x2="22.624888388214966" y2="1159.6018340539242" /><line x1="22.624888388214966" y1="1159.6018340539242" x2="21.213617855779766" y2="1155.057765919051" /><line x1="21.213617855779766" y1="1155.057765919051" x2="19.35684099456031" y2="1150.352757358535" /><line x1="19.35684099456031" y1="1150.352757358535" x2="17.0678142530203" y2="1145.559070603215" /><line x1="17.0678142530203" y1="1145.559070603215" x2="14.368418824791776" y2="1140.748741480145" /><line x1="14.368418824791776" y1="1140.748741480145" x2="11.288893694958972" y2="1135.992356156325" /><line x1="11.288893694958972" y1="1135.992356156325" x2="7.8674064866157885" y2="1131.3578520997528" /><line x1="7.8674064866157885" y1="1131.3578520997528" x2="4.149469147615697" y2="1126.9093795837748" /><line x1="4.149469147615697" y1="1126.9093795837748" x2="0.18722533480376263" y2="1122.706239644955" /><line x1="0.18722533480376263" y1="1122.706239644955" x2="-3.9613974385891106" y2="1118.8019152494676" /><line x1="-3.9613974385891106" y1="1118.8019152494676" x2="-8.233645583882044" y2="1115.2432186181452" /><line x1="-8.233645583882044" y1="1115.2432186181452" x2="-12.562995072749661" y2="1112.0695624540986" /><line x1="-12.562995072749661" y1="1112.0695624540986" x2="-16.88028208336104" y2="1109.3123743622814" /><line x1="-16.88028208336104" y1="1109.3123743622814" x2="-21.11489003626728" y2="1106.9946619233137" /><line x1="-21.11489003626728" y1="1106.9946619233137" x2="-25.19597707462184" y2="1105.1307268727846" /><line x1="-25.19597707462184" y1="1105.1307268727846" x2="-29.05371058431959" y2="1103.726051336165" /><line x1="-29.05371058431959" y1="1103.726051336165" x2="-32.62050959884471" y2="1102.777338378741" /><line x1="-32.62050959884471" y1="1102.777338378741" x2="-35.832228631995314" y2="1102.2727237663657" /><line x1="-35.832228631995314" y1="1102.2727237663657" x2="-38.62931560370721" y2="1102.1921285245887" /><line x1="-38.62931560370721" y1="1102.1921285245887" x2="-40.95789542433657" y2="1102.5077759502817" /><line x1="-40.95789542433657" y1="1102.5077759502817" x2="-42.77073418192177" y2="1103.1848426633185" /><line x1="-42.77073418192177" y1="1103.1848426633185" x2="-44.02814701009583" y2="1104.182231308049" /><line x1="-44.02814701009583" y1="1104.182231308049" x2="-44.69870771188902" y2="1105.453461525407" /><line x1="-44.69870771188902" y1="1105.453461525407" x2="-44.75989305308604" y2="1106.9476555415238" /><line x1="-44.75989305308604" y1="1106.9476555415238" x2="-44.19851980037741" y2="1108.6105947187243" /><line x1="-44.19851980037741" y1="1108.6105947187243" x2="-43.011051098620314" y2="1110.3858403105794" /><line x1="-43.011051098620314" y1="1110.3858403105794" x2="-41.203745153920984" y2="1112.2158778710868" /><line x1="-41.203745153920984" y1="1112.2158778710868" x2="-38.79259215596337" y2="1114.043292076299" /><line x1="-38.79259215596337" y1="1114.043292076299" x2="-35.80314306718697" y2="1115.8119167654377" /><line x1="-35.80314306718697" y1="1115.8119167654377" x2="-32.270128903984805" y2="1117.4679658334317" /><line x1="-32.270128903984805" y1="1117.4679658334317" x2="-28.236940345914885" y2="1118.961112591246" /><line x1="-28.236940345914885" y1="1118.961112591246" x2="-23.7549541562813" y2="1120.2454935174892" /><line x1="-23.7549541562813" y1="1120.2454935174892" x2="-18.882718804341778" y2="1121.28062767179" /><line x1="-18.882718804341778" y1="1121.28062767179" x2="-13.685027448816417" y2="1122.0322275878314" /><line x1="-13.685027448816417" y1="1122.0322275878314" x2="-8.231863076473276" y2="1122.4728882965915" /><line x1="-8.231863076473276" y1="1122.4728882965915" x2="-2.597275775897929" y2="1122.5826429519238" /><line x1="-2.597275775897929" y1="1122.5826429519238" x2="3.141827283728581" y2="1122.3493729498205" /><line x1="3.141827283728581" y1="1122.3493729498205" x2="8.906929889412616" y2="1121.769065888632" /><line x1="8.906929889412616" y1="1121.769065888632" x2="14.619185233579515" y2="1120.8459160727068" /><line x1="14.619185233579515" y1="1120.8459160727068" x2="20.200700840030336" y2="1119.592266081065" /><line x1="20.200700840030336" y1="1119.592266081065" x2="25.57580377812631" y2="1118.0283895419093" /><line x1="25.57580377812631" y1="1118.0283895419093" x2="30.67226786141245" y2="1116.1821196185153" /><line x1="30.67226786141245" y1="1116.1821196185153" x2="35.4224693206674" y2="1114.0883295336337" /><line x1="35.4224693206674" y1="1114.0883295336337" x2="39.76448390482993" y2="1111.7882777162536" /><line x1="39.76448390482993" y1="1111.7882777162536" x2="43.643053321034714" y2="1109.3288218650825" /><line x1="43.643053321034714" y1="1109.3288218650825" x2="47.010472827559084" y2="1106.7615234708908" /><line x1="47.010472827559084" y1="1106.7615234708908" x2="49.827291846529626" y2="1104.1416622278964" /><line x1="49.827291846529626" y1="1104.1416622278964" x2="52.062931223991676" y2="1101.5271637133528" /><line x1="52.062931223991676" y1="1101.5271637133528" x2="53.69611125696487" y2="1098.977478632495" /><line x1="53.69611125696487" y1="1098.977478632495" x2="54.71510400412845" y2="1096.5524192607816" /><line x1="54.71510400412845" y1="1096.5524192607816" x2="55.11785493561601" y2="1094.3109857486525" /><line x1="55.11785493561601" y1="1094.3109857486525" x2="54.91192886644005" y2="1092.3101980582223" /><line x1="54.91192886644005" y1="1092.3101980582223" x2="54.114266656902544" y2="1090.6039538068749" /><line x1="54.114266656902544" y1="1090.6039538068749" x2="52.7507887243751" y2="1089.2419334191102" /><line x1="52.7507887243751" y1="1089.2419334191102" x2="50.85588141083235" y2="1088.2685931365768" /><line x1="50.85588141083235" y1="1088.2685931365768" x2="48.471689611823415" y2="1087.7222211057765" /><line x1="48.471689611823415" y1="1087.7222211057765" x2="45.64730127229242" y2="1087.6341151155625" /><line x1="45.64730127229242" y1="1087.6341151155625" x2="42.43781924370031" y2="1088.0278932483022" /><line x1="42.43781924370031" y1="1088.0278932483022" x2="38.9033340190916" y2="1088.9189126641927" /><line x1="38.9033340190916" y1="1088.9189126641927" x2="35.107808609976125" y2="1090.3138618491694" /><line x1="35.107808609976125" y1="1090.3138618491694" x2="31.11791160940926" y2="1092.210494787578" /><line x1="31.11791160940926" y1="1092.210494787578" x2="27.001807452366684" y2="1094.597531840119" /><line x1="27.001807452366684" y1="1094.597531840119" x2="22.827937665023157" y2="1097.4547183159714" /><line x1="22.827937665023157" y1="1097.4547183159714" x2="18.66379422932242" y2="1100.7530520029638" /><line x1="18.66379422932242" y1="1100.7530520029638" x2="14.574742508574555" y2="1104.4551661391508" /><line x1="14.574742508574555" y1="1104.4551661391508" x2="10.622867827180123" y2="1108.5158757105025" /><line x1="10.622867827180123" y1="1108.5158757105025" x2="6.865912724506813" y2="1112.8828544094838" /><line x1="6.865912724506813" y1="1112.8828544094838" x2="3.3562916478715623" y2="1117.4974535183949" /><line x1="3.3562916478715623" y1="1117.4974535183949" x2="0.14021546825399994" y2="1122.2956418617132" /><line x1="0.14021546825399994" y1="1122.2956418617132" x2="-2.743064043775865" y2="1127.2090438597024" /><line x1="-2.743064043775865" y1="1127.2090438597024" x2="-5.261872322917395" y2="1132.1660623602409" /><line x1="-5.261872322917395" y1="1132.1660623602409" x2="-7.392587062851583" y2="1137.0930716586408" /><line x1="-7.392587062851583" y1="1137.0930716586408" x2="-9.119959518129425" y2="1141.9156457346592" /><line x1="-9.119959518129425" y1="1141.9156457346592" x2="-10.437274169527495" y2="1146.5598226394923" /><line x1="-10.437274169527495" y1="1146.5598226394923" x2="-11.346349568838178" y2="1150.9533536589456" /><line x1="-11.346349568838178" y1="1150.9533536589456" x2="-11.857380081497848" y2="1155.0269367071849" /><line x1="-11.857380081497848" y1="1155.0269367071849" x2="-11.988617682262694" y2="1158.7154170552674" /><line x1="-11.988617682262694" y1="1158.7154170552674" x2="-11.76590619418913" y2="1161.9588956959362" /><line x1="-11.76590619418913" y1="1161.9588956959362" x2="-11.222070786886203" y2="1164.7037881473907" /><line x1="-11.222070786886203" y1="1164.7037881473907" x2="-10.396179066651355" y2="1166.9037480906156" /><line x1="-10.396179066651355" y1="1166.9037480906156" x2="-9.332692907068347" y2="1168.5204783680138" /><line x1="-9.332692907068347" y1="1168.5204783680138" x2="-8.080511583260805" y2="1169.5244225850154" /><line x1="-8.080511583260805" y1="1169.5244225850154" x2="-6.691940001411062" y2="1169.8952967647379" /><line x1="-6.691940001411062" y1="1169.8952967647379" x2="-5.2215938506076744" y2="1169.6224588029172" /><line x1="-5.2215938506076744" y1="1169.6224588029172" x2="-3.725264767954838" y2="1168.7051202286614" /><line x1="-3.725264767954838" y1="1168.7051202286614" x2="-2.2587649471192806" y2="1167.1523957654786" /><line x1="-2.2587649471192806" y1="1167.1523957654786" x2="-0.8767735068568266" y2="1164.9831771759345" /><line x1="-0.8767735068568266" y1="1164.9831771759345" x2="0.36829158555625" y2="1162.225840401035" /><line x1="0.36829158555625" y1="1162.225840401035" x2="1.4273580137952668" y2="1158.9177882471085" /><line x1="1.4273580137952668" y1="1158.9177882471085" x2="2.2557172255260585" y2="1155.1048488951562" /><line x1="2.2557172255260585" y1="1155.1048488951562" x2="2.813958559214097" y2="1150.8405234743411" /><line x1="2.813958559214097" y1="1150.8405234743411" x2="3.0688013625119983" y2="1146.1851074801402" /><line x1="3.0688013625119983" y1="1146.1851074801402" x2="2.9938084880173355" y2="1141.2046916690836" /><line x1="2.9938084880173355" y1="1141.2046916690836" x2="2.5699687761438934" y2="1135.9700694633773" /><line x1="2.5699687761438934" y1="1135.9700694633773" x2="1.7861381764259083" y2="1130.5555717035638" /><line x1="1.7861381764259083" y1="1130.5555717035638" x2="0.6393273281959824" y2="1125.0378324099795" /><line x1="0.6393273281959824" y1="1125.0378324099795" x2="-0.8651646809600717" y2="1119.4945280741183" /><line x1="-0.8651646809600717" y1="1119.4945280741183" x2="-2.7137782636803744" y2="1114.003099772594" /><line x1="-2.7137782636803744" y1="1114.003099772594" x2="-4.884879045881652" y2="1108.6394820394225" /><line x1="-4.884879045881652" y1="1108.6394820394225" x2="-7.349101766786562" y2="1103.4768697538696" /><line x1="-7.349101766786562" y1="1103.4768697538696" x2="-10.069841102053784" y2="1098.5845272678043" /><line x1="-10.069841102053784" y1="1098.5845272678043" x2="-13.003891099591362" y2="1094.0266766617442" /><line x1="-13.003891099591362" y1="1094.0266766617442" x2="-16.102204364386726" y2="1089.8614845597574" /><line x1="-16.102204364386726" y1="1089.8614845597574" x2="-19.310778525066375" y2="1086.1401452504563" /><line x1="-19.310778525066375" y1="1086.1401452504563" x2="-22.571635064188598" y2="1082.9060967216524" /><line x1="-22.571635064188598" y1="1082.9060967216524" x2="-25.823886006721256" y2="1080.1943876308692" /><line x1="-25.823886006721256" y1="1080.1943876308692" x2="-29.004863686190912" y2="1078.0311614201023" /><line x1="-29.004863686190912" y1="1078.0311614201023" x2="-32.051287681602574" y2="1076.4333544441054" /><line x1="-32.051287681602574" y1="1076.4333544441054" x2="-34.90046329319508" y2="1075.4084819568634" /><line x1="-34.90046329319508" y1="1075.4084819568634" x2="-37.49146875432665" y2="1074.9546651448807" /><line x1="-37.49146875432665" y1="1074.9546651448807" x2="-39.766326673942565" y2="1075.0607753047134" /><line x1="-39.766326673942565" y1="1075.0607753047134" x2="-41.67112817078933" y2="1075.706753736877" /><line x1="-41.67112817078933" y1="1075.706753736877" x2="-43.157093929957576" y2="1076.8640983450227" /><line x1="-43.157093929957576" y1="1076.8640983450227" x2="-44.181565423431586" y2="1078.4964673793643" /><line x1="-44.181565423431586" y1="1078.4964673793643" x2="-44.70884519478249" y2="1080.5604498853784" /><line x1="-44.70884519478249" y1="1080.5604498853784" x2="-44.71098533006" y2="1083.0064487912018" /><line x1="-44.71098533006" y1="1083.0064487912018" x2="-44.168395706765985" y2="1085.7796270727029" /><line x1="-44.168395706765985" y1="1085.7796270727029" x2="-43.070312570841544" y2="1088.8210183710514" /></g>
</g>
<g id="circle" >
<g >
<ellipse
    cx="0.0"
    cy="1122.51968532"
    rx="74.25200696984253"
    ry="74.25200696984253"
/>
</g>
</g>
</svg>