<svg xmlns="http://www.w3.org/2000/svg" xmlns:inkscape="http://www.inkscape.org/namespaces/inkscape" xmlns:xlink="http://www.w3.org/1999/xlink" width="1000.0px" height="1000.0px">
<defs>
</defs>
<g id="torus" >
<g>
<line x1="-0.08651900291442871" y1="999.9323065280914" x2="-0.08328104019165039" y2="999.9406650662422" /><line x1="-0.08328104019165039" y1="999.9406650662422" x2="-0.07885909080505371" y2="999.9489893913269" /><line x1="-0.07885909080505371" y1="999.9489893913269" x2="-0.073311448097229" y2="999.9571161270142" /><line x1="-0.073311448097229" y1="999.9571161270142" x2="-0.06671357154846191" y2="999.9648939371109" /><line x1="-0.06671357154846191" y1="999.9648939371109" x2="-0.059155821800231934" y2="999.9721850156784" /><line x1="-0.059155821800231934" y1="999.9721850156784" x2="-0.05074155330657959" y2="999.9788664281368" /><line x1="-0.05074155330657959" y1="999.9788664281368" x2="-0.041586101055145264" y2="999.9848310053349" /><line x1="-0.041586101055145264" y1="999.9848310053349" x2="-0.03181427717208862" y2="999.9899881631136" /><line x1="-0.03181427717208862" y1="999.9899881631136" x2="-0.02155938744544983" y2="999.9942646473646" /><line x1="-0.02155938744544983" y1="999.9942646473646" x2="-0.010961294174194336" y2="999.9976048953831" /><line x1="-0.010961294174194336" y1="999.9976048953831" x2="-0.00016521941870450974" y2="999.9999715973972" /><line x1="-0.00016521941870450974" y1="999.9999715973972" x2="0.01068010926246643" y2="1000.0013459641486" /><line x1="0.01068010926246643" y1="1000.0013459641486" x2="0.021423757076263428" y2="1000.0017280150205" /><line x1="0.021423757076263428" y1="1000.0017280150205" x2="0.03191429376602173" y2="1000.0011367807165" /><line x1="0.03191429376602173" y1="1000.0011367807165" x2="0.04200160503387451" y2="999.9996104175225" /><line x1="0.04200160503387451" y1="999.9996104175225" x2="0.051538288593292236" y2="999.9972062110901" /><line x1="0.051538288593292236" y1="999.9972062110901" x2="0.060381948947906494" y2="999.9940004497766" /><line x1="0.060381948947906494" y1="999.9940004497766" x2="0.06839704513549805" y2="999.9900881201029" /><line x1="0.06839704513549805" y1="999.9900881201029" x2="0.07545721530914307" y2="999.9855823516846" /><line x1="0.07545721530914307" y1="999.9855823516846" x2="0.08144772052764893" y2="999.9806135743856" /><line x1="0.08144772052764893" y1="999.9806135743856" x2="0.08626770973205566" y2="999.9753283262253" /><line x1="0.08626770973205566" y1="999.9753283262253" x2="0.08983254432678223" y2="999.9698876440525" /><line x1="0.08983254432678223" y1="999.9698876440525" x2="0.09207761287689209" y2="999.9644649326801" /><line x1="0.09207761287689209" y1="999.9644649326801" x2="0.09296023845672607" y2="999.9592430591583" /><line x1="0.09296023845672607" y1="999.9592430591583" x2="0.09246218204498291" y2="999.9544113278389" /><line x1="0.09246218204498291" y1="999.9544113278389" x2="0.0905919075012207" y2="999.9501613974571" /><line x1="0.0905919075012207" y1="999.9501613974571" x2="0.0873875617980957" y2="999.9466823339462" /><line x1="0.0873875617980957" y1="999.9466823339462" x2="0.08291739225387573" y2="999.9441557526588" /><line x1="0.08291739225387573" y1="999.9441557526588" x2="0.07728040218353271" y2="999.9427499175072" /><line x1="0.07728040218353271" y1="999.9427499175072" x2="0.07060670852661133" y2="999.9426136016846" /><line x1="0.07060670852661133" y1="999.9426136016846" x2="0.06305587291717529" y2="999.9438699483871" /><line x1="0.06305587291717529" y1="999.9438699483871" x2="0.05481410026550293" y2="999.9466104507446" /><line x1="0.05481410026550293" y1="999.9466104507446" x2="0.046090394258499146" y2="999.9508892893791" /><line x1="0.046090394258499146" y1="999.9508892893791" x2="0.037111371755599976" y2="999.956718891859" /><line x1="0.037111371755599976" y1="999.956718891859" x2="0.02811446785926819" y2="999.96406686306" /><line x1="0.02811446785926819" y1="999.96406686306" x2="0.019340649247169495" y2="999.9728539288044" /><line x1="0.019340649247169495" y1="999.9728539288044" x2="0.011026069521903992" y2="999.9829544126987" /><line x1="0.011026069521903992" y1="999.9829544126987" x2="0.003393549472093582" y2="999.9941986165941" /><line x1="0.003393549472093582" y1="999.9941986165941" x2="-0.0033558085560798645" y2="1000.0063771829009" /><line x1="-0.0033558085560798645" y1="1000.0063771829009" x2="-0.00905020534992218" y2="1000.0192476212978" /><line x1="-0.00905020534992218" y1="1000.0192476212978" x2="-0.013553664088249207" y2="1000.0325422883034" /><line x1="-0.013553664088249207" y1="1000.0325422883034" x2="-0.01677088439464569" y2="1000.0459777414799" /><line x1="-0.01677088439464569" y1="1000.0459777414799" x2="-0.018650412559509277" y2="1000.0592648983002" /><line x1="-0.018650412559509277" y1="1000.0592648983002" x2="-0.019185543060302734" y2="1000.0721190571785" /><line x1="-0.019185543060302734" y1="1000.0721190571785" x2="-0.018413275480270386" y2="1000.0842691659927" /><line x1="-0.018413275480270386" y1="1000.0842691659927" x2="-0.016411587595939636" y2="1000.095467031002" /><line x1="-0.016411587595939636" y1="1000.095467031002" x2="-0.013294994831085205" y2="1000.1054946184158" /><line x1="-0.013294994831085205" y1="1000.1054946184158" x2="-0.009208723902702332" y2="1000.1141687631607" /><line x1="-0.009208723902702332" y1="1000.1141687631607" x2="-0.004322320222854614" y2="1000.1213459968567" /><line x1="-0.004322320222854614" y1="1000.1213459968567" x2="0.0011772718280553818" y2="1000.1269237995148" /><line x1="0.0011772718280553818" y1="1000.1269237995148" x2="0.007092617452144623" y2="1000.1308407783508" /><line x1="0.007092617452144623" y1="1000.1308407783508" x2="0.013222411274909973" y2="1000.1330758333206" /><line x1="0.013222411274909973" y1="1000.1330758333206" x2="0.019367486238479614" y2="1000.1336455345154" /><line x1="0.019367486238479614" y1="1000.1336455345154" x2="0.02533605694770813" y2="1000.1326007843018" /><line x1="0.02533605694770813" y1="1000.1326007843018" x2="0.03094831109046936" y2="1000.1300224065781" /><line x1="0.03094831109046936" y1="1000.1300224065781" x2="0.036039799451828" y2="1000.1260176897049" /><line x1="0.036039799451828" y1="1000.1260176897049" x2="0.04046425223350525" y2="1000.1207147836685" /><line x1="0.04046425223350525" y1="1000.1207147836685" x2="0.044095396995544434" y2="1000.1142588853836" /><line x1="0.044095396995544434" y1="1000.1142588853836" x2="0.04682821035385132" y2="1000.1068078279495" /><line x1="0.04682821035385132" y1="1000.1068078279495" x2="0.04857993125915527" y2="1000.0985288619995" /><line x1="0.04857993125915527" y1="1000.0985288619995" x2="0.04928922653198242" y2="1000.0895932912827" /><line x1="0.04928922653198242" y1="1000.0895932912827" x2="0.04891687631607056" y2="1000.0801746845245" /><line x1="0.04891687631607056" y1="1000.0801746845245" x2="0.047444701194763184" y2="1000.0704457163811" /><line x1="0.047444701194763184" y1="1000.0704457163811" x2="0.04487490653991699" y2="1000.0605753660202" /><line x1="0.04487490653991699" y1="1000.0605753660202" x2="0.0412290096282959" y2="1000.0507271885872" /><line x1="0.0412290096282959" y1="1000.0507271885872" x2="0.03654703497886658" y2="1000.041056573391" /><line x1="0.03654703497886658" y1="1000.041056573391" x2="0.030886203050613403" y2="1000.0317103266716" /><line x1="0.030886203050613403" y1="1000.0317103266716" x2="0.024319708347320557" y2="1000.022824048996" /><line x1="0.024319708347320557" y1="1000.022824048996" x2="0.016935840249061584" y2="1000.0145216435194" /><line x1="0.016935840249061584" y1="1000.0145216435194" x2="0.008836597204208374" y2="1000.0069138482213" /><line x1="0.008836597204208374" y1="1000.0069138482213" x2="0.00013653398491442204" y2="1000.000097275828" /><line x1="0.00013653398491442204" y1="1000.000097275828" x2="-0.009038440883159637" y2="999.9941534027457" /><line x1="-0.009038440883159637" y1="999.9941534027457" x2="-0.018552377820014954" y2="999.9891476929188" /><line x1="-0.018552377820014954" y1="999.9891476929188" x2="-0.02826058864593506" y2="999.985128685832" /><line x1="-0.02826058864593506" y1="999.985128685832" x2="-0.038011133670806885" y2="999.9821271896362" /><line x1="-0.038011133670806885" y1="999.9821271896362" x2="-0.047646522521972656" y2="999.9801554977894" /><line x1="-0.047646522521972656" y1="999.9801554977894" x2="-0.057005345821380615" y2="999.9792066812515" /><line x1="-0.057005345821380615" y1="999.9792066812515" x2="-0.06592422723770142" y2="999.9792539179325" /><line x1="-0.06592422723770142" y1="999.9792539179325" x2="-0.07424026727676392" y2="999.9802501648664" /><line x1="-0.07424026727676392" y1="999.9802501648664" x2="-0.08179330825805664" y2="999.9821277111769" /><line x1="-0.08179330825805664" y1="999.9821277111769" x2="-0.08842909336090088" y2="999.984798297286" /><line x1="-0.08842909336090088" y1="999.984798297286" x2="-0.09400153160095215" y2="999.9881534129381" /><line x1="-0.09400153160095215" y1="999.9881534129381" x2="-0.09837722778320312" y2="999.9920650050044" /><line x1="-0.09837722778320312" y1="999.9920650050044" x2="-0.10143804550170898" y2="999.9963867999613" /><line x1="-0.10143804550170898" y1="999.9963867999613" x2="-0.10308563709259033" y2="1000.0009561637416" /><line x1="-0.10308563709259033" y1="1000.0009561637416" x2="-0.10324454307556152" y2="1000.0055966898799" /><line x1="-0.10324454307556152" y1="1000.0055966898799" x2="-0.1018671989440918" y2="1000.010121524334" /><line x1="-0.1018671989440918" y1="1000.010121524334" x2="-0.09893584251403809" y2="1000.014337465167" /><line x1="-0.09893584251403809" y1="1000.014337465167" x2="-0.09446704387664795" y2="1000.0180498659611" /><line x1="-0.09446704387664795" y1="1000.0180498659611" x2="-0.08851355314254761" y2="1000.0210682451725" /><line x1="-0.08851355314254761" y1="1000.0210682451725" x2="-0.08116531372070312" y2="1000.0232124626637" /><line x1="-0.08116531372070312" y1="1000.0232124626637" x2="-0.07255065441131592" y2="1000.0243193507195" /><line x1="-0.07255065441131592" y1="1000.0243193507195" x2="-0.06283438205718994" y2="1000.0242493748665" /><line x1="-0.06283438205718994" y1="1000.0242493748665" x2="-0.05221515893936157" y2="1000.0228929072618" /><line x1="-0.05221515893936157" y1="1000.0228929072618" x2="-0.04092109203338623" y2="1000.0201762318611" /><line x1="-0.04092109203338623" y1="1000.0201762318611" x2="-0.029203563928604126" y2="1000.0160661786795" /><line x1="-0.029203563928604126" y1="1000.0160661786795" x2="-0.01732996106147766" y2="1000.0105735063553" /><line x1="-0.01732996106147766" y1="1000.0105735063553" x2="-0.005574606359004974" y2="1000.0037544593215" /><line x1="-0.005574606359004974" y1="1000.0037544593215" x2="0.005790434777736664" y2="999.995710387826" /><line x1="0.005790434777736664" y1="999.995710387826" x2="0.016505166888237" y2="999.9865852445364" /><line x1="0.016505166888237" y1="999.9865852445364" x2="0.026331007480621338" y2="999.9765611290932" /><line x1="0.026331007480621338" y1="999.9765611290932" x2="0.035059064626693726" y2="999.9658520817757" /><line x1="0.035059064626693726" y1="999.9658520817757" x2="0.042517513036727905" y2="999.9546962678432" /><line x1="0.042517513036727905" y1="999.9546962678432" x2="0.04857683181762695" y2="999.9433472752571" /><line x1="0.04857683181762695" y1="999.9433472752571" x2="0.05315279960632324" y2="999.9320653676987" /><line x1="0.05315279960632324" y1="999.9320653676987" x2="0.056207895278930664" y2="999.9211078882217" /><line x1="0.056207895278930664" y1="999.9211078882217" x2="0.05775076150894165" y2="999.9107211828232" /><line x1="0.05775076150894165" y1="999.9107211828232" x2="0.05783271789550781" y2="999.9011330604553" /><line x1="0.05783271789550781" y1="999.9011330604553" x2="0.056544363498687744" y2="999.892546415329" /><line x1="0.056544363498687744" y1="999.892546415329" x2="0.05400949716567993" y2="999.8851348161697" /><line x1="0.05400949716567993" y1="999.8851348161697" x2="0.050379395484924316" y2="999.8790391683578" /><line x1="0.050379395484924316" y1="999.8790391683578" x2="0.04582643508911133" y2="999.8743658065796" /><line x1="0.04582643508911133" y1="999.8743658065796" x2="0.04053714871406555" y2="999.8711862564087" /><line x1="0.04053714871406555" y1="999.8711862564087" x2="0.034706324338912964" y2="999.8695378303528" /><line x1="0.034706324338912964" y1="999.8695378303528" x2="0.028531163930892944" y2="999.8694258928299" /><line x1="0.028531163930892944" y1="999.8694258928299" x2="0.02220630645751953" y2="999.8708248138428" /><line x1="0.02220630645751953" y1="999.8708248138428" x2="0.015919148921966553" y2="999.873682975769" /><line x1="0.015919148921966553" y1="999.873682975769" x2="0.009846508502960205" y2="999.8779240846634" /><line x1="0.009846508502960205" y1="999.8779240846634" x2="0.004151437431573868" y2="999.883451461792" /><line x1="0.004151437431573868" y1="999.883451461792" x2="-0.0010189013555645943" y2="999.8901505470276" /><line x1="-0.0010189013555645943" y1="999.8901505470276" x2="-0.005534999072551727" y2="999.8978934288025" /><line x1="-0.005534999072551727" y1="999.8978934288025" x2="-0.009286098182201385" y2="999.9065408706665" /><line x1="-0.009286098182201385" y1="999.9065408706665" x2="-0.012180954217910767" y2="999.9159451723099" /><line x1="-0.012180954217910767" y1="999.9159451723099" x2="-0.01414819061756134" y2="999.9259529709816" /><line x1="-0.01414819061756134" y1="999.9259529709816" x2="-0.01513640582561493" y2="999.9364078044891" /><line x1="-0.01513640582561493" y1="999.9364078044891" x2="-0.015113979578018188" y2="999.9471521377563" /><line x1="-0.015113979578018188" y1="999.9471521377563" x2="-0.01406891644001007" y2="999.9580289125443" /><line x1="-0.01406891644001007" y1="999.9580289125443" x2="-0.012008324265480042" y2="999.9688842892647" /><line x1="-0.012008324265480042" y1="999.9688842892647" x2="-0.00895797461271286" y2="999.979568272829" /><line x1="-0.00895797461271286" y1="999.979568272829" x2="-0.004961691796779633" y2="999.9899367839098" /><line x1="-0.004961691796779633" y1="999.9899367839098" x2="-8.080655243247747e-05" y2="999.9998531175079" /><line x1="-8.080655243247747e-05" y1="999.9998531175079" x2="0.005606621503829956" y2="1000.0091892257333" /><line x1="0.005606621503829956" y1="1000.0091892257333" x2="0.012006476521492004" y2="1000.0178271830082" /><line x1="0.012006476521492004" y1="1000.0178271830082" x2="0.019009485840797424" y2="1000.0256603658199" /><line x1="0.019009485840797424" y1="1000.0256603658199" x2="0.026492148637771606" y2="1000.0325952470303" /><line x1="0.026492148637771606" y1="1000.0325952470303" x2="0.03431788086891174" y2="1000.0385523438454" /><line x1="0.03431788086891174" y1="1000.0385523438454" x2="0.04233813285827637" y2="1000.0434678196907" /><line x1="0.04233813285827637" y1="1000.0434678196907" x2="0.050394296646118164" y2="1000.0472950339317" /><line x1="0.050394296646118164" y1="1000.0472950339317" x2="0.058319032192230225" y2="1000.0500056147575" /><line x1="0.058319032192230225" y1="1000.0500056147575" x2="0.06593871116638184" y2="1000.0515911579132" /><line x1="0.06593871116638184" y1="1000.0515911579132" x2="0.07307612895965576" y2="1000.0520642399788" /><line x1="0.07307612895965576" y1="1000.0520642399788" x2="0.07955241203308105" y2="1000.0514591932297" /><line x1="0.07955241203308105" y1="1000.0514591932297" x2="0.08519184589385986" y2="1000.0498334765434" /><line x1="0.08519184589385986" y1="1000.0498334765434" x2="0.08982479572296143" y2="1000.0472676753998" /><line x1="0.08982479572296143" y1="1000.0472676753998" x2="0.09329187870025635" y2="1000.0438657402992" /><line x1="0.09329187870025635" y1="1000.0438657402992" x2="0.09544849395751953" y2="1000.0397537052631" /><line x1="0.09544849395751953" y1="1000.0397537052631" x2="0.09617066383361816" y2="1000.0350793004036" /><line x1="0.09617066383361816" y1="1000.0350793004036" x2="0.09535884857177734" y2="1000.0300090610981" /><line x1="0.09535884857177734" y1="1000.0300090610981" x2="0.09294342994689941" y2="1000.0247253775597" /><line x1="0.09294342994689941" y1="1000.0247253775597" x2="0.08888906240463257" y2="1000.0194227546453" /><line x1="0.08888906240463257" y1="1000.0194227546453" x2="0.0831989049911499" y2="1000.0143025964499" /><line x1="0.0831989049911499" y1="1000.0143025964499" x2="0.07591766119003296" y2="1000.0095675513148" /><line x1="0.07591766119003296" y1="1000.0095675513148" x2="0.06713318824768066" y2="1000.0054148882627" /><line x1="0.06713318824768066" y1="1000.0054148882627" x2="0.05697709321975708" y2="1000.0020295120776" /><line x1="0.05697709321975708" y1="1000.0020295120776" x2="0.04562276601791382" y2="999.9995768293738" /><line x1="0.04562276601791382" y1="999.9995768293738" x2="0.03328236937522888" y2="999.9981958270073" /><line x1="0.03328236937522888" y1="999.9981958270073" x2="0.0202014297246933" y2="999.9979927875102" /><line x1="0.0202014297246933" y1="999.9979927875102" x2="0.006651550531387329" y2="999.9990360792726" /><line x1="0.006651550531387329" y1="999.9990360792726" x2="-0.007078193128108978" y2="1000.0013524331152" /><line x1="-0.007078193128108978" y1="1000.0013524331152" x2="-0.020691096782684326" y2="1000.0049249529839" /><line x1="-0.020691096782684326" y1="1000.0049249529839" x2="-0.03389313817024231" y2="1000.0096931010485" /><line x1="-0.03389313817024231" y1="1000.0096931010485" x2="-0.046403348445892334" y2="1000.0155546367168" /><line x1="-0.046403348445892334" y1="1000.0155546367168" x2="-0.057963550090789795" y2="1000.0223695784807" /><line x1="-0.057963550090789795" y1="1000.0223695784807" x2="-0.06834691762924194" y2="1000.0299656391144" /><line x1="-0.06834691762924194" y1="1000.0299656391144" x2="-0.07736474275588989" y2="1000.0381448566914" /><line x1="-0.07736474275588989" y1="1000.0381448566914" x2="-0.08487159013748169" y2="1000.0466916263103" /><line x1="-0.08487159013748169" y1="1000.0466916263103" x2="-0.09076827764511108" y2="1000.0553803443909" /><line x1="-0.09076827764511108" y1="1000.0553803443909" x2="-0.09500229358673096" y2="1000.0639833211899" /><line x1="-0.09500229358673096" y1="1000.0639833211899" x2="-0.09756708145141602" y2="1000.0722786784172" /><line x1="-0.09756708145141602" y1="1000.0722786784172" x2="-0.09849894046783447" y2="1000.0800561308861" /><line x1="-0.09849894046783447" y1="1000.0800561308861" x2="-0.09787309169769287" y2="1000.0871230363846" /><line x1="-0.09787309169769287" y1="1000.0871230363846" x2="-0.09579885005950928" y2="1000.0933091640472" /><line x1="-0.09579885005950928" y1="1000.0933091640472" x2="-0.09241294860839844" y2="1000.0984687805176" /><line x1="-0.09241294860839844" y1="1000.0984687805176" x2="-0.0878746509552002" y2="1000.1024837493896" /><line x1="-0.0878746509552002" y1="1000.1024837493896" x2="-0.0823596715927124" y2="1000.1052640676498" /><line x1="-0.0823596715927124" y1="1000.1052640676498" x2="-0.0760541558265686" y2="1000.1067477464676" /><line x1="-0.0760541558265686" y1="1000.1067477464676" x2="-0.06914961338043213" y2="1000.1069006919861" /><line x1="-0.06914961338043213" y1="1000.1069006919861" x2="-0.06183815002441406" y2="1000.1057144403458" /><line x1="-0.06183815002441406" y1="1000.1057144403458" x2="-0.05430889129638672" y2="1000.1032054424286" /><line x1="-0.05430889129638672" y1="1000.1032054424286" x2="-0.046743929386138916" y2="1000.0994130373001" /><line x1="-0.046743929386138916" y1="1000.0994130373001" x2="-0.03931552171707153" y2="1000.094396352768" /><line x1="-0.03931552171707153" y1="1000.094396352768" x2="-0.03218391537666321" y2="1000.088232755661" /><line x1="-0.03218391537666321" y1="1000.088232755661" x2="-0.02549538016319275" y2="1000.0810159444809" /><line x1="-0.02549538016319275" y1="1000.0810159444809" x2="-0.01938071846961975" y2="1000.072852730751" /><line x1="-0.01938071846961975" y1="1000.072852730751" x2="-0.013954207301139832" y2="1000.0638620853424" /><line x1="-0.013954207301139832" y1="1000.0638620853424" x2="-0.009312622249126434" y2="1000.054172039032" /><line x1="-0.009312622249126434" y1="1000.054172039032" x2="-0.00553489476442337" y2="1000.0439189076424" /><line x1="-0.00553489476442337" y1="1000.0439189076424" x2="-0.0026814639568328857" y2="1000.0332444608212" /><line x1="-0.0026814639568328857" y1="1000.0332444608212" x2="-0.0007941452786326408" y2="1000.0222950577736" /><line x1="-0.0007941452786326408" y1="1000.0222950577736" x2="0.00010406505316495895" y2="1000.0112194418907" /><line x1="0.00010406505316495895" y1="1000.0112194418907" x2="9.074276022147387e-06" y2="1000.0001673970837" /><line x1="9.074276022147387e-06" y1="1000.0001673970837" x2="-0.0010643275454640388" y2="999.9892881661654" /><line x1="-0.0010643275454640388" y1="999.9892881661654" x2="-0.0030825436115264893" y2="999.9787288606167" /><line x1="-0.0030825436115264893" y1="999.9787288606167" x2="-0.0059933289885520935" y2="999.968632876873" /><line x1="-0.0059933289885520935" y1="999.968632876873" x2="-0.00972604751586914" y2="999.9591381549835" /><line x1="-0.00972604751586914" y1="999.9591381549835" x2="-0.014192089438438416" y2="999.9503755569458" /><line x1="-0.014192089438438416" y1="999.9503755569458" x2="-0.01928536593914032" y2="999.9424670338631" /><line x1="-0.01928536593914032" y1="999.9424670338631" x2="-0.024883151054382324" y2="999.9355234503746" /><line x1="-0.024883151054382324" y1="999.9355234503746" x2="-0.030846983194351196" y2="999.9296428561211" /><line x1="-0.030846983194351196" y1="999.9296428561211" x2="-0.03702417016029358" y2="999.924908220768" /><line x1="-0.03702417016029358" y1="999.924908220768" x2="-0.04324948787689209" y2="999.9213852882385" /><line x1="-0.04324948787689209" y1="999.9213852882385" x2="-0.049346983432769775" y2="999.9191203713417" /><line x1="-0.049346983432769775" y1="999.9191203713417" x2="-0.05513334274291992" y2="999.9181382060051" /><line x1="-0.05513334274291992" y1="999.9181382060051" x2="-0.0604206919670105" y2="999.918439745903" /><line x1="-0.0604206919670105" y1="999.918439745903" x2="-0.06502044200897217" y2="999.9200004935265" /><line x1="-0.06502044200897217" y1="999.9200004935265" x2="-0.06874758005142212" y2="999.9227696061134" /><line x1="-0.06874758005142212" y1="999.9227696061134" x2="-0.07142645120620728" y2="999.9266677498817" /><line x1="-0.07142645120620728" y1="999.9266677498817" x2="-0.07289499044418335" y2="999.9315880537033" /><line x1="-0.07289499044418335" y1="999.9315880537033" x2="-0.07301127910614014" y2="999.9373965263367" /><line x1="-0.07301127910614014" y1="999.9373965263367" x2="-0.07165902853012085" y2="999.9439331889153" /><line x1="-0.07165902853012085" y1="999.9439331889153" x2="-0.06875401735305786" y2="999.9510151147842" /><line x1="-0.06875401735305786" y1="999.9510151147842" x2="-0.06424826383590698" y2="999.9584404826164" /><line x1="-0.06424826383590698" y1="999.9584404826164" x2="-0.0581355094909668" y2="999.9659933447838" /><line x1="-0.0581355094909668" y1="999.9659933447838" x2="-0.050454020500183105" y2="999.9734500348568" /><line x1="-0.050454020500183105" y1="999.9734500348568" x2="-0.041288286447525024" y2="999.9805862903595" /><line x1="-0.041288286447525024" y1="999.9805862903595" x2="-0.030769169330596924" y2="999.9871848225594" /><line x1="-0.030769169330596924" y1="999.9871848225594" x2="-0.019071757793426514" y2="999.9930433705449" /><line x1="-0.019071757793426514" y1="999.9930433705449" x2="-0.006411068141460419" y2="999.9979824647307" /><line x1="-0.006411068141460419" y1="999.9979824647307" x2="0.0069640278816223145" y2="1000.0018526129425" /><line x1="0.0069640278816223145" y1="1000.0018526129425" x2="0.020778894424438477" y2="1000.0045402981341" /><line x1="0.020778894424438477" y1="1000.0045402981341" x2="0.03474235534667969" y2="1000.0059725046158" /><line x1="0.03474235534667969" y1="1000.0059725046158" x2="0.0485568642616272" y2="1000.0061194002628" /><line x1="0.0485568642616272" y1="1000.0061194002628" x2="0.06192910671234131" y2="1000.0049951300025" /><line x1="0.06192910671234131" y1="1000.0049951300025" x2="0.07458007335662842" y2="1000.0026565250009" /><line x1="0.07458007335662842" y1="1000.0026565250009" x2="0.08625370264053345" y2="999.9991999603808" /><line x1="0.08625370264053345" y1="999.9991999603808" x2="0.09672534465789795" y2="999.994756706059" /><line x1="0.09672534465789795" y1="999.994756706059" x2="0.10580801963806152" y2="999.9894869104028" /><line x1="0.10580801963806152" y1="999.9894869104028" x2="0.11335539817810059" y2="999.9835729002953" /><line x1="0.11335539817810059" y1="999.9835729002953" x2="0.11926543712615967" y2="999.9772119224072" /><line x1="0.11926543712615967" y1="999.9772119224072" x2="0.12347960472106934" y2="999.9706090688705" /><line x1="0.12347960472106934" y1="999.9706090688705" x2="0.12598192691802979" y2="999.9639704227448" /><line x1="0.12598192691802979" y1="999.9639704227448" x2="0.12679708003997803" y2="999.9574969112873" /><line x1="0.12679708003997803" y1="999.9574969112873" x2="0.1259850263595581" y2="999.9513791799545" /><line x1="0.1259850263595581" y1="999.9513791799545" x2="0.12363839149475098" y2="999.945792734623" /><line x1="0.12363839149475098" y1="999.945792734623" x2="0.11987578868865967" y2="999.9408949017525" /><line x1="0.11987578868865967" y1="999.9408949017525" x2="0.1148386001586914" y2="999.9368222355843" /><line x1="0.1148386001586914" y1="999.9368222355843" x2="0.10868406295776367" y2="999.9336887001991" /><line x1="0.10868406295776367" y1="999.9336887001991" x2="0.10158205032348633" y2="999.931585252285" /><line x1="0.10158205032348633" y1="999.931585252285" x2="0.09370970726013184" y2="999.9305788874626" /><line x1="0.09370970726013184" y1="999.9305788874626" x2="0.08524858951568604" y2="999.9307132959366" /><line x1="0.08524858951568604" y1="999.9307132959366" x2="0.07637906074523926" y2="999.9320101737976" /><line x1="0.07637906074523926" y1="999.9320101737976" x2="0.06727945804595947" y2="999.9344689846039" /><line x1="0.06727945804595947" y1="999.9344689846039" x2="0.05812203884124756" y2="999.938069164753" /><line x1="0.05812203884124756" y1="999.938069164753" x2="0.04907101392745972" y2="999.9427709579468" /><line x1="0.04907101392745972" y1="999.9427709579468" x2="0.04028099775314331" y2="999.9485167860985" /><line x1="0.04028099775314331" y1="999.9485167860985" x2="0.03189471364021301" y2="999.9552332758904" /><line x1="0.03189471364021301" y1="999.9552332758904" x2="0.024042457342147827" y2="999.9628319740295" /><line x1="0.024042457342147827" y1="999.9628319740295" x2="0.016840174794197083" y2="999.9712111949921" /><line x1="0.016840174794197083" y1="999.9712111949921" x2="0.010388970375061035" y2="999.980257421732" /><line x1="0.010388970375061035" y1="999.980257421732" x2="0.004774175584316254" y2="999.989846482873" /><line x1="0.004774175584316254" y1="999.989846482873" x2="6.445520557463169e-05" y2="999.9998452432919" /><line x1="6.445520557463169e-05" y1="999.9998452432919" x2="-0.003688763827085495" y2="1000.0101128220558" /><line x1="-0.003688763827085495" y1="1000.0101128220558" x2="-0.006451927125453949" y2="1000.0205020904541" /><line x1="-0.006451927125453949" y1="1000.0205020904541" x2="-0.00820988416671753" y2="1000.0308611989021" /><line x1="-0.00820988416671753" y1="1000.0308611989021" x2="-0.008966416120529175" y2="1000.0410351753235" /><line x1="-0.008966416120529175" y1="1000.0410351753235" x2="-0.008744597434997559" y2="1000.0508677959442" /><line x1="-0.008744597434997559" y1="1000.0508677959442" x2="-0.007587112486362457" y2="1000.0602030754089" /><line x1="-0.007587112486362457" y1="1000.0602030754089" x2="-0.0055564045906066895" y2="1000.0688877701759" /><line x1="-0.0055564045906066895" y1="1000.0688877701759" x2="-0.002734661102294922" y2="1000.076773583889" /><line x1="-0.002734661102294922" y1="1000.076773583889" x2="0.0007765339687466621" y2="1000.0837194919586" /><line x1="0.0007765339687466621" y1="1000.0837194919586" x2="0.004856754094362259" y2="1000.0895947217941" /><line x1="0.004856754094362259" y1="1000.0895947217941" x2="0.009367749094963074" y2="1000.0942808389664" /><line x1="0.009367749094963074" y1="1000.0942808389664" x2="0.014154940843582153" y2="1000.0976763963699" /><line x1="0.014154940843582153" y1="1000.0976763963699" x2="0.01904948055744171" y2="1000.0996987819672" /><line x1="0.01904948055744171" y1="1000.0996987819672" x2="0.023870915174484253" y2="1000.1002883911133" /><line x1="0.023870915174484253" y1="1000.1002883911133" x2="0.028430461883544922" y2="1000.0994106531143" /><line x1="0.028430461883544922" y1="1000.0994106531143" x2="0.03253531455993652" y2="1000.097060918808" /><line x1="0.03253531455993652" y1="1000.097060918808" x2="0.0359933078289032" y2="1000.0932649374008" /><line x1="0.0359933078289032" y1="1000.0932649374008" x2="0.038618236780166626" y2="1000.0880821943283" /><line x1="0.038618236780166626" y1="1000.0880821943283" x2="0.040236085653305054" y2="1000.0816061496735" /><line x1="0.040236085653305054" y1="1000.0816061496735" x2="0.04069146513938904" y2="1000.0739650726318" /><line x1="0.04069146513938904" y1="1000.0739650726318" x2="0.03985366225242615" y2="1000.0653200745583" /><line x1="0.03985366225242615" y1="1000.0653200745583" x2="0.03762334585189819" y2="1000.0558630228043" /><line x1="0.03762334585189819" y1="1000.0558630228043" x2="0.03393790125846863" y2="1000.0458118915558" /><line x1="0.03393790125846863" y1="1000.0458118915558" x2="0.028776168823242188" y2="1000.0354054570198" /><line x1="0.028776168823242188" y1="1000.0354054570198" x2="0.02216176688671112" y2="1000.0248962938786" /><line x1="0.02216176688671112" y1="1000.0248962938786" x2="0.01416468620300293" y2="1000.0145426243544" /><line x1="0.01416468620300293" y1="1000.0145426243544" x2="0.004900794476270676" y2="1000.0045993961394" /><line x1="0.004900794476270676" y1="1000.0045993961394" x2="-0.005470555275678635" y2="999.9953092746437" /><line x1="-0.005470555275678635" y1="999.9953092746437" x2="-0.016751185059547424" y2="999.9868937134743" /><line x1="-0.016751185059547424" y1="999.9868937134743" x2="-0.028710395097732544" y2="999.9795448184013" /><line x1="-0.028710395097732544" y1="999.9795448184013" x2="-0.04109311103820801" y2="999.9734185636044" /><line x1="-0.04109311103820801" y1="999.9734185636044" x2="-0.05362892150878906" y2="999.9686295092106" /><line x1="-0.05362892150878906" y1="999.9686295092106" x2="-0.06604164838790894" y2="999.9652474820614" /><line x1="-0.06604164838790894" y1="999.9652474820614" x2="-0.07805901765823364" y2="999.9632967412472" /><line x1="-0.07805901765823364" y1="999.9632967412472" x2="-0.08942151069641113" y2="999.9627564847469" /><line x1="-0.08942151069641113" y1="999.9627564847469" x2="-0.09989118576049805" y2="999.9635635912418" /><line x1="-0.09989118576049805" y1="999.9635635912418" x2="-0.10925722122192383" y2="999.9656172096729" /><line x1="-0.10925722122192383" y1="999.9656172096729" x2="-0.11734187602996826" y2="999.9687840044498" /><line x1="-0.11734187602996826" y1="999.9687840044498" x2="-0.12400341033935547" y2="999.9729045629501" /><line x1="-0.12400341033935547" y1="999.9729045629501" x2="-0.12913846969604492" y2="999.9777999967337" /><line x1="-0.12913846969604492" y1="999.9777999967337" x2="-0.13268160820007324" y2="999.9832787513733" /><line x1="-0.13268160820007324" y1="999.9832787513733" x2="-0.13460445404052734" y2="999.9891429543495" /><line x1="-0.13460445404052734" y1="999.9891429543495" x2="-0.13491404056549072" y2="999.9951943941414" /><line x1="-0.13491404056549072" y1="999.9951943941414" x2="-0.13364923000335693" y2="1000.0012396536767" /><line x1="-0.13364923000335693" y1="1000.0012396536767" x2="-0.13087785243988037" y2="1000.0070946291089" /><line x1="-0.13087785243988037" y1="1000.0070946291089" x2="-0.12669241428375244" y2="1000.0125881582499" /><line x1="-0.12669241428375244" y1="1000.0125881582499" x2="-0.12120628356933594" y2="1000.017564818263" /><line x1="-0.12120628356933594" y1="1000.017564818263" x2="-0.11455023288726807" y2="1000.0218871533871" /><line x1="-0.11455023288726807" y1="1000.0218871533871" x2="-0.10686862468719482" y2="1000.0254371762276" /><line x1="-0.10686862468719482" y1="1000.0254371762276" x2="-0.09831488132476807" y2="1000.0281170606613" /><line x1="-0.09831488132476807" y1="1000.0281170606613" x2="-0.0890495777130127" y2="1000.0298498868942" /><line x1="-0.0890495777130127" y1="1000.0298498868942" x2="-0.07923698425292969" y2="1000.0305795073509" /><line x1="-0.07923698425292969" y1="1000.0305795073509" x2="-0.06904226541519165" y2="1000.0302704572678" /><line x1="-0.06904226541519165" y1="1000.0302704572678" x2="-0.058629631996154785" y2="1000.028907507658" /><line x1="-0.058629631996154785" y1="1000.028907507658" x2="-0.04815971851348877" y2="1000.0264948010445" /><line x1="-0.04815971851348877" y1="1000.0264948010445" x2="-0.03778809309005737" y2="1000.0230556130409" /><line x1="-0.03778809309005737" y1="1000.0230556130409" x2="-0.027663469314575195" y2="1000.0186311602592" /><line x1="-0.027663469314575195" y1="1000.0186311602592" x2="-0.017926126718521118" y2="1000.0132798552513" /><line x1="-0.017926126718521118" y1="1000.0132798552513" x2="-0.008706822991371155" y2="1000.0070765689015" /><line x1="-0.008706822991371155" y1="1000.0070765689015" x2="-0.0001252185320481658" y2="1000.0001114649931" /><line x1="-0.0001252185320481658" y1="1000.0001114649931" x2="0.007711254060268402" y2="999.9924891516566" /><line x1="0.007711254060268402" y1="999.9924891516566" x2="0.0147085040807724" y2="999.9843276292086" /><line x1="0.0147085040807724" y1="999.9843276292086" x2="0.020787030458450317" y2="999.9757571518421" /><line x1="0.020787030458450317" y1="999.9757571518421" x2="0.025882959365844727" y2="999.9669189453125" /><line x1="0.025882959365844727" y1="999.9669189453125" x2="0.029949307441711426" y2="999.9579638242722" /><line x1="0.029949307441711426" y1="999.9579638242722" x2="0.032956868410110474" y2="999.9490508437157" /><line x1="0.032956868410110474" y1="999.9490508437157" x2="0.034895479679107666" y2="999.9403451085091" /><line x1="0.034895479679107666" y1="999.9403451085091" x2="0.035774677991867065" y2="999.9320158958435" /><line x1="0.035774677991867065" y1="999.9320158958435" x2="0.035624921321868896" y2="999.9242343902588" /><line x1="0.035624921321868896" y1="999.9242343902588" x2="0.03449788689613342" y2="999.9171706438065" /><line x1="0.03449788689613342" y1="999.9171706438065" x2="0.032466888427734375" y2="999.9109913110733" /><line x1="0.032466888427734375" y1="999.9109913110733" x2="0.02962702512741089" y2="999.9058550596237" /><line x1="0.02962702512741089" y1="999.9058550596237" x2="0.026094704866409302" y2="999.9019092321396" /><line x1="0.026094704866409302" y1="999.9019092321396" x2="0.02200654149055481" y2="999.8992861509323" /><line x1="0.02200654149055481" y1="999.8992861509323" x2="0.01751771569252014" y2="999.8980985879898" /><line x1="0.01751771569252014" y1="999.8980985879898" x2="0.012799814343452454" y2="999.898434638977" /><line x1="0.012799814343452454" y1="999.898434638977" x2="0.008037306368350983" y2="999.9003542661667" /><line x1="0.008037306368350983" y1="999.9003542661667" x2="0.0034236013889312744" y2="999.9038848876953" /><line x1="0.0034236013889312744" y1="999.9038848876953" x2="-0.0008439011871814728" y2="999.9090175628662" /><line x1="-0.0008439011871814728" y1="999.9090175628662" x2="-0.004569500684738159" y2="999.915704369545" /><line x1="-0.004569500684738159" y1="999.915704369545" x2="-0.007565587759017944" y2="999.9238567948341" /><line x1="-0.007565587759017944" y1="999.9238567948341" x2="-0.00965941697359085" y2="999.9333450198174" /><line x1="-0.00965941697359085" y1="999.9333450198174" x2="-0.010699965059757233" y2="999.9439998269081" /><line x1="-0.010699965059757233" y1="999.9439998269081" x2="-0.01056458055973053" y2="999.9556152820587" /><line x1="-0.01056458055973053" y1="999.9556152820587" x2="-0.009164951741695404" y2="999.9679535627365" /><line x1="-0.009164951741695404" y1="999.9679535627365" x2="-0.006452128291130066" y2="999.9807517230511" /><line x1="-0.006452128291130066" y1="999.9807517230511" x2="-0.0024198628962039948" y2="999.9937297105789" /><line x1="-0.0024198628962039948" y1="999.9937297105789" x2="0.0028935689479112625" y2="1000.0065997838974" /><line x1="0.0028935689479112625" y1="1000.0065997838974" x2="0.009405672550201416" y2="1000.0190764218569" /><line x1="0.009405672550201416" y1="1000.0190764218569" x2="0.016992002725601196" y2="1000.0308864414692" /><line x1="0.016992002725601196" y1="1000.0308864414692" x2="0.025490373373031616" y2="1000.0417786836624" /><line x1="0.025490373373031616" y1="1000.0417786836624" x2="0.034706830978393555" y2="1000.0515325665474" /><line x1="0.034706830978393555" y1="1000.0515325665474" x2="0.044422924518585205" y2="1000.0599653720856" /><line x1="0.044422924518585205" y1="1000.0599653720856" x2="0.05440378189086914" y2="1000.0669369697571" /><line x1="0.05440378189086914" y1="1000.0669369697571" x2="0.0644066333770752" y2="1000.0723537802696" /><line x1="0.0644066333770752" y1="1000.0723537802696" x2="0.07418972253799438" y2="1000.0761692523956" /><line x1="0.07418972253799438" y1="1000.0761692523956" x2="0.08351916074752808" y2="1000.078382730484" /><line x1="0.08351916074752808" y1="1000.078382730484" x2="0.09217727184295654" y2="1000.0790373086929" /><line x1="0.09217727184295654" y1="1000.0790373086929" x2="0.09996700286865234" y2="1000.0782153010368" /><line x1="0.09996700286865234" y1="1000.0782153010368" x2="0.10671758651733398" y2="1000.0760326385498" /><line x1="0.10671758651733398" y1="1000.0760326385498" x2="0.11228692531585693" y2="1000.0726337432861" /><line x1="0.11228692531585693" y1="1000.0726337432861" x2="0.11656379699707031" y2="1000.0681845545769" /><line x1="0.11656379699707031" y1="1000.0681845545769" x2="0.11946821212768555" y2="1000.0628666877747" /><line x1="0.11946821212768555" y1="1000.0628666877747" x2="0.12095165252685547" y2="1000.0568713545799" /><line x1="0.12095165252685547" y1="1000.0568713545799" x2="0.12099504470825195" y2="1000.0503937005997" /><line x1="0.12099504470825195" y1="1000.0503937005997" x2="0.11960756778717041" y2="1000.0436282157898" /><line x1="0.11960756778717041" y1="1000.0436282157898" x2="0.11682415008544922" y2="1000.0367640852928" /><line x1="0.11682415008544922" y1="1000.0367640852928" x2="0.11270272731781006" y2="1000.0299818515778" /><line x1="0.11270272731781006" y1="1000.0299818515778" x2="0.107322096824646" y2="1000.0234504640102" /><line x1="0.107322096824646" y1="1000.0234504640102" x2="0.10077822208404541" y2="1000.0173246264458" /><line x1="0.10077822208404541" y1="1000.0173246264458" x2="0.09318232536315918" y2="1000.011743336916" /><line x1="0.09318232536315918" y1="1000.011743336916" x2="0.08465790748596191" y2="1000.0068284124136" /><line x1="0.08465790748596191" y1="1000.0068284124136" x2="0.07533878087997437" y2="1000.0026835538447" /><line x1="0.07533878087997437" y1="1000.0026835538447" x2="0.06536597013473511" y2="999.9993937024847" /><line x1="0.06536597013473511" y1="999.9993937024847" x2="0.054886043071746826" y2="999.9970247335732" /><line x1="0.054886043071746826" y1="999.9970247335732" x2="0.04404938220977783" y2="999.9956232570112" /><line x1="0.04404938220977783" y1="999.9956232570112" x2="0.033007651567459106" y2="999.9952166378498" /><line x1="0.033007651567459106" y1="999.9952166378498" x2="0.021912813186645508" y2="999.9958131164312" /><line x1="0.021912813186645508" y1="999.9958131164312" x2="0.010914996266365051" y2="999.9974019825459" /><line x1="0.010914996266365051" y1="999.9974019825459" x2="0.00016118097119033337" y2="999.9999539038399" /><line x1="0.00016118097119033337" y1="999.9999539038399" x2="-0.010206431150436401" y2="1000.0034212507308" /><line x1="-0.010206431150436401" y1="1000.0034212507308" x2="-0.02005186676979065" y2="1000.0077385306358" /><line x1="-0.02005186676979065" y1="1000.0077385306358" x2="-0.029247045516967773" y2="1000.0128228962421" /><line x1="-0.029247045516967773" y1="1000.0128228962421" x2="-0.03767308592796326" y2="1000.0185748189688" /><line x1="-0.03767308592796326" y1="1000.0185748189688" x2="-0.04522216320037842" y2="1000.0248787105083" /><line x1="-0.04522216320037842" y1="1000.0248787105083" x2="-0.051799118518829346" y2="1000.0316041111946" /><line x1="-0.051799118518829346" y1="1000.0316041111946" x2="-0.05732303857803345" y2="1000.0386066436768" /><line x1="-0.05732303857803345" y1="1000.0386066436768" x2="-0.0617290735244751" y2="1000.0457295179367" /><line x1="-0.0617290735244751" y1="1000.0457295179367" x2="-0.06497037410736084" y2="1000.0528054237366" /><line x1="-0.06497037410736084" y1="1000.0528054237366" x2="-0.06701982021331787" y2="1000.0596585273743" /><line x1="-0.06701982021331787" y1="1000.0596585273743" x2="-0.06787103414535522" y2="1000.0661071538925" /><line x1="-0.06787103414535522" y1="1000.0661071538925" x2="-0.06754100322723389" y2="1000.071966946125" /><line x1="-0.06754100322723389" y1="1000.071966946125" x2="-0.066070556640625" y2="1000.0770546793938" /><line x1="-0.066070556640625" y1="1000.0770546793938" x2="-0.0635252594947815" y2="1000.0811918377876" /><line x1="-0.0635252594947815" y1="1000.0811918377876" x2="-0.05999630689620972" y2="1000.084209382534" /><line x1="-0.05999630689620972" y1="1000.084209382534" x2="-0.05559980869293213" y2="1000.0859535932541" /><line x1="-0.05559980869293213" y1="1000.0859535932541" x2="-0.050476014614105225" y2="1000.0862904191017" /><line x1="-0.050476014614105225" y1="1000.0862904191017" x2="-0.044787317514419556" y2="1000.0851113200188" /><line x1="-0.044787317514419556" y1="1000.0851113200188" x2="-0.03871545195579529" y2="1000.0823384523392" /><line x1="-0.03871545195579529" y1="1000.0823384523392" x2="-0.03245753049850464" y2="1000.0779302716255" /><line x1="-0.03245753049850464" y1="1000.0779302716255" x2="-0.02622094750404358" y2="1000.0718852877617" /><line x1="-0.02622094750404358" y1="1000.0718852877617" x2="-0.020217671990394592" y2="1000.0642451047897" /><line x1="-0.020217671990394592" y1="1000.0642451047897" x2="-0.014657214283943176" y2="1000.0550969839096" /><line x1="-0.014657214283943176" y1="1000.0550969839096" x2="-0.009739458560943604" y2="1000.0445730388165" /><line x1="-0.009739458560943604" y1="1000.0445730388165" x2="-0.005647081881761551" y2="1000.0328493416309" /><line x1="-0.005647081881761551" y1="1000.0328493416309" x2="-0.0025383494794368744" y2="1000.0201415717602" /><line x1="-0.0025383494794368744" y1="1000.0201415717602" x2="-0.0005403552204370499" y2="1000.0066992715001" /><line x1="-0.0005403552204370499" y1="1000.0066992715001" x2="0.0002565220929682255" y2="999.9927983283997" /><line x1="0.0002565220929682255" y1="999.9927983283997" x2="-0.0001972720492631197" y2="999.9787317663431" /><line x1="-0.0001972720492631197" y1="999.9787317663431" x2="-0.0019081402570009232" y2="999.9647997021675" /><line x1="-0.0019081402570009232" y1="999.9647997021675" x2="-0.004838947206735611" y2="999.9512988626957" /><line x1="-0.004838947206735611" y1="999.9512988626957" x2="-0.008910633623600006" y2="999.9385120868683" /><line x1="-0.008910633623600006" y1="999.9385120868683" x2="-0.014005690813064575" y2="999.9266986846924" /><line x1="-0.014005690813064575" y1="999.9266986846924" x2="-0.01997321844100952" y2="999.9160869121552" /><line x1="-0.01997321844100952" y1="999.9160869121552" x2="-0.02663525938987732" y2="999.9068664312363" /><line x1="-0.02663525938987732" y1="999.9068664312363" x2="-0.03379398584365845" y2="999.8991842269897" /><line x1="-0.03379398584365845" y1="999.8991842269897" x2="-0.04123920202255249" y2="999.8931419849396" /><line x1="-0.04123920202255249" y1="999.8931419849396" x2="-0.04875582456588745" y2="999.8887956142426" /><line x1="-0.04875582456588745" y1="999.8887956142426" x2="-0.056130826473236084" y2="999.8861564397812" /><line x1="-0.056130826473236084" y1="999.8861564397812" x2="-0.06315988302230835" y2="999.8851940631866" /><line x1="-0.06315988302230835" y1="999.8851940631866" x2="-0.06965243816375732" y2="999.8858398199081" /><line x1="-0.06965243816375732" y1="999.8858398199081" x2="-0.07543611526489258" y2="999.8879927396774" /><line x1="-0.07543611526489258" y1="999.8879927396774" x2="-0.0803602933883667" y2="999.8915237188339" /><line x1="-0.0803602933883667" y1="999.8915237188339" x2="-0.08429807424545288" y2="999.896281838417" /><line x1="-0.08429807424545288" y1="999.896281838417" x2="-0.08714771270751953" y2="999.9020990133286" /><line x1="-0.08714771270751953" y1="999.9020990133286" x2="-0.08883321285247803" y2="999.9087965488434" /><line x1="-0.08883321285247803" y1="999.9087965488434" x2="-0.08930361270904541" y2="999.9161885976791" /><line x1="-0.08930361270904541" y1="999.9161885976791" x2="-0.08853304386138916" y2="999.9240874648094" /><line x1="-0.08853304386138916" y1="999.9240874648094" x2="-0.08651900291442871" y2="999.9323065280914" /></g>
</g>
<g id="circle" >
<g>
<line x1="0.15794765949249268" y1="1000.0" x2="0.15600311756134033" y2="999.9752915203571" /><line x1="0.15600311756134033" y1="999.9752915203571" x2="0.1502171754837036" y2="999.9511914849281" /><line x1="0.1502171754837036" y1="999.9511914849281" x2="0.14073240756988525" y2="999.9282932281494" /><line x1="0.14073240756988525" y1="999.9282932281494" x2="0.12778234481811523" y2="999.9071606397629" /><line x1="0.12778234481811523" y1="999.9071606397629" x2="0.1116858720779419" y2="999.8883141279221" /><line x1="0.1116858720779419" y1="999.8883141279221" x2="0.09283936023712158" y2="999.8722176551819" /><line x1="0.09283936023712158" y1="999.8722176551819" x2="0.07170677185058594" y2="999.8592675924301" /><line x1="0.07170677185058594" y1="999.8592675924301" x2="0.048808515071868896" y2="999.8497828245163" /><line x1="0.048808515071868896" y1="999.8497828245163" x2="0.024708479642868042" y2="999.8439968824387" /><line x1="0.024708479642868042" y1="999.8439968824387" x2="9.671501601088406e-18" y2="999.8420523405075" /><line x1="9.671501601088406e-18" y1="999.8420523405075" x2="-0.024708479642868042" y2="999.8439968824387" /><line x1="-0.024708479642868042" y1="999.8439968824387" x2="-0.048808515071868896" y2="999.8497828245163" /><line x1="-0.048808515071868896" y1="999.8497828245163" x2="-0.07170677185058594" y2="999.8592675924301" /><line x1="-0.07170677185058594" y1="999.8592675924301" x2="-0.09283936023712158" y2="999.8722176551819" /><line x1="-0.09283936023712158" y1="999.8722176551819" x2="-0.1116858720779419" y2="999.8883141279221" /><line x1="-0.1116858720779419" y1="999.8883141279221" x2="-0.12778234481811523" y2="999.9071606397629" /><line x1="-0.12778234481811523" y1="999.9071606397629" x2="-0.14073240756988525" y2="999.9282932281494" /><line x1="-0.14073240756988525" y1="999.9282932281494" x2="-0.1502171754837036" y2="999.9511914849281" /><line x1="-0.1502171754837036" y1="999.9511914849281" x2="-0.15600311756134033" y2="999.9752915203571" /><line x1="-0.15600311756134033" y1="999.9752915203571" x2="-0.15794765949249268" y2="1000.0" /><line x1="-0.15794765949249268" y1="1000.0" x2="-0.15600311756134033" y2="1000.0247084796429" /><line x1="-0.15600311756134033" y1="1000.0247084796429" x2="-0.1502171754837036" y2="1000.0488085150719" /><line x1="-0.1502171754837036" y1="1000.0488085150719" x2="-0.14073240756988525" y2="1000.0717067718506" /><line x1="-0.14073240756988525" y1="1000.0717067718506" x2="-0.12778234481811523" y2="1000.0928393602371" /><line x1="-0.12778234481811523" y1="1000.0928393602371" x2="-0.1116858720779419" y2="1000.1116858720779" /><line x1="-0.1116858720779419" y1="1000.1116858720779" x2="-0.09283936023712158" y2="1000.1277823448181" /><line x1="-0.09283936023712158" y1="1000.1277823448181" x2="-0.07170677185058594" y2="1000.1407324075699" /><line x1="-0.07170677185058594" y1="1000.1407324075699" x2="-0.048808515071868896" y2="1000.1502171754837" /><line x1="-0.048808515071868896" y1="1000.1502171754837" x2="-0.024708479642868042" y2="1000.1560031175613" /><line x1="-0.024708479642868042" y1="1000.1560031175613" x2="-2.901450480326522e-17" y2="1000.1579476594925" /><line x1="-2.901450480326522e-17" y1="1000.1579476594925" x2="0.024708479642868042" y2="1000.1560031175613" /><line x1="0.024708479642868042" y1="1000.1560031175613" x2="0.048808515071868896" y2="1000.1502171754837" /><line x1="0.048808515071868896" y1="1000.1502171754837" x2="0.07170677185058594" y2="1000.1407324075699" /><line x1="0.07170677185058594" y1="1000.1407324075699" x2="0.09283936023712158" y2="1000.1277823448181" /><line x1="0.09283936023712158" y1="1000.1277823448181" x2="0.1116858720779419" y2="1000.1116858720779" /><line x1="0.1116858720779419" y1="1000.1116858720779" x2="0.12778234481811523" y2="1000.0928393602371" /><line x1="0.12778234481811523" y1="1000.0928393602371" x2="0.14073240756988525" y2="1000.0717067718506" /><line x1="0.14073240756988525" y1="1000.0717067718506" x2="0.1502171754837036" y2="1000.0488085150719" /><line x1="0.1502171754837036" y1="1000.0488085150719" x2="0.15600311756134033" y2="1000.0247084796429" /><line x1="0.15600311756134033" y1="1000.0247084796429" x2="0.15794765949249268" y2="1000.0" /></g>
</g>
</svg>