<svg xmlns="http://www.w3.org/2000/svg" xmlns:inkscape="http://www.inkscape.org/namespaces/inkscape" xmlns:xlink="http://www.w3.org/1999/xlink" width="1000px" height="1000px">

<g inkscape:groupmode="layer" id="Sun Oct 10 13:53:11 2021">

<g id="tswirl_6_4">  <!-- start tswirl_6_4 -->

<path id="trazo.tswirl_6_4" d="M 417.5309,417.8272 Q 420.7965,419.455 426.7808,423.5186 431.9975,428.6129 436.4284,434.6667 440.0834,441.5962 442.9962,449.3093 445.2202,457.7098 446.8239,466.7004 447.8878,476.1841 448.5007,486.0662 448.7578,496.2545 448.758,506.6594 448.6033,517.1933 380.7405,599.1693 386.8125,605.3552 393.998,610.6949 402.2839,615.1339 411.616,618.6382 421.8953,621.1985 432.977,622.8346 444.6722,623.5978 456.7542,623.5713 468.9666,622.8683 481.0365,621.6282 492.6877,620.0097 503.6561,618.1829 513.7025,616.3202 522.6239,614.5875 530.2617,613.1365 536.5046,612.0988 541.2899,611.5813 544.599,611.6647 546.4535,612.403 546.9074,613.8253 546.04,615.9377 543.9492,618.7264 540.7446,622.1612 536.5424,626.1976 531.4612,630.7795 525.6189,635.8416 519.131,641.3101 512.1089,647.1036 504.6604,653.1332 496.8896,659.3022 488.8976,665.5052 480.7841,671.6265 472.6482,677.5391 464.5905,683.1025 456.7141,688.1613 449.1261,692.5437 441.939,696.0602 435.2704,698.5038 429.2438,699.6516 423.9865,699.2673 419.6275,697.1079 416.2929,692.9324 414.0999,686.5152 413.1479,677.6624 413.5093,666.2329 415.2173,652.1607 418.2553,635.4772 422.5474,616.3309 427.9521,594.9982 434.263,571.8846 441.2153,547.51 448.5,522.4817 455.7848,497.4533 462.737,473.0788 469.0479,449.9651 474.4526,428.6325 478.7447,409.4861 481.7827,392.8026 483.4908,378.7304 483.8521,367.3009 482.9002,358.4481 480.7071,352.0309 477.3725,347.8554 473.0135,345.696 467.7562,345.3117 461.7296,346.4595 455.0611,348.9031 447.8739,352.4196 440.2859,356.802 432.4095,361.8608 424.3518,367.4243 416.2159,373.3368 408.1024,379.4582 400.1104,385.6611 392.3396,391.8301 384.8911,397.8597 377.869,403.6532 371.3811,409.1217 365.5388,414.1838 360.4576,418.7658 356.2554,422.8021 353.0508,426.2368 350.96,429.0256 350.0926,431.138 350.5465,432.5602 352.401,433.2986 355.7102,433.382 360.4953,432.8645 366.7383,431.8268 374.3761,430.3758 383.2976,428.6431 393.3439,426.7804 404.3123,424.9536 415.9636,423.3351 428.0334,422.095 440.2458,421.3921 452.3278,421.3655 464.0231,422.1287 475.1047,423.7648 485.384,426.3252 494.7161,429.8294 503.002,434.2684 510.1875,439.6081 516.2595,445.794 521.2405,452.7562 525.183,460.414 528.1625,468.6797 530.2721,477.4618 531.6172,486.6677 532.3112,496.2045 532.4718,505.9803 532.2187,515.904 531.6714,525.8854 530.9481,535.8337 530.1649,545.6576 529.4347,555.2631 528.8667,564.5533 528.566,573.4274 528.632,581.7795 529.1576,589.4992 530.227,596.4713 531.9132,602.5776 534.2749,607.699 537.3528,611.7185 541.1656,614.5265 545.705,616.0257 550.9322,616.1388 556.7739,614.816 563.1207,612.0421 569.8267,607.8442 576.7125,602.2962 583.5704,595.5216 590.1736,587.692 596.2869,579.0222 601.6796,569.7603 606.1382,560.1762 609.478,550.5461 611.5527,541.1384 612.2598,532.1997 611.5427,523.9437 609.3895,516.544 605.8275,510.1296 600.9178,504.7852 594.7465,500.5532 587.4177,497.439 579.0454,495.4166 569.7481,494.4347 559.6434,494.4229 548.8442,495.2974 537.4567,496.9655 525.579,499.3289 513.3005,502.2872 500.7023,505.7389 487.8582,509.5833 474.8354,513.7208 461.6964,518.0527 448.5,522.4817 435.3036,526.9106 422.1646,531.2425 409.1418,535.38 396.2976,539.2244 383.6995,542.6761 371.421,545.6344 359.5433,547.9978 348.1558,549.6659 337.3566,550.5404 327.2518,550.5287 317.9546,549.5467 309.5823,547.5243 302.2534,544.4101 296.0822,540.1782 291.1725,534.8337 287.6105,528.4193 285.4572,521.0196 284.7402,512.7636 285.4473,503.825 287.522,494.4172 290.8618,484.7871 295.3204,475.203 300.7131,465.9411 306.8265,457.2713 313.4296,449.4417 320.2876,442.6671 327.1732,437.1191 333.8793,432.9212 340.2261,430.1473 346.0678,428.8245 351.295,428.9377 355.8344,430.4369 359.6472,433.2448 362.7251,437.2643 365.0868,442.3857 366.773,448.492 367.8424,455.4641 368.368,463.1837 368.4341,471.5359 368.1333,480.4099 367.5653,489.7002 366.8351,499.3058 366.0518,509.1296 365.3286,519.0779 364.7813,529.0593 364.5282,538.983 364.6888,548.7588 365.3828,558.2956 366.7279,567.5015 368.8376,576.2837 371.817,584.5493 375.7594,592.2071 448.3967,527.77 448.242,538.3039 448.2422,548.7088 448.4993,558.8971 449.1122,568.7792 450.1761,578.2629 451.7798,587.2534 454.0038,595.654 456.9166,603.3671 460.5716,610.2966 465.0025,616.3503 470.2192,621.4446 476.2035,625.5083 482.9052,628.488 490.2397,630.354 498.0869,631.1045 506.2927,630.7704 514.6725,629.4173 523.0187,627.146 531.1088,624.09 538.7167,620.4105 545.6241,616.2892 551.6314,611.9192 556.5674,607.4953 560.2964,603.2045 562.7221,599.2175 563.7885,595.6823 563.478,592.7197 561.8078,590.4215 558.8234,588.8499 554.5931,588.0399 549.2012,588.0012 542.7421,588.722 535.3155,590.1727 527.022,592.3088 517.9606,595.0745 508.2258,598.4049 497.9071,602.2278 487.0881,606.4655 475.847,611.0351 464.2571,615.8492 452.3877,620.8154 440.3056,625.8359 428.0765,630.807 415.767,635.6176 403.4461,640.1487 391.1872,644.2722 379.0704,647.85 367.1837,650.7341 355.6251,652.7665 344.5037,653.7813 333.9402,653.6063 324.0667,652.0684 315.0253,648.9996 306.9645,644.2455 300.0345,637.6768 294.3797,629.2019 290.1298,618.7813 287.3884,606.442 286.2216,592.2892 286.6466,576.5143 288.6227,559.3969 292.0463,541.2974 296.751,522.6417 302.5146,503.8977 309.0711,485.546 316.1279,468.0491 323.3853,451.822 330.5551,437.2096 337.3779,424.4717 343.6344,413.7769 349.1537,405.2057 353.8149,398.759 357.5454,394.3722 360.3166,391.9297 362.1373,391.2802 363.0466,392.2505 363.1075,394.6563 362.4006,398.3114 361.0192,403.0339 359.0657,408.6501 356.6487,414.997 353.8811,421.9233 350.8794,429.289 347.7631,436.9651 344.6547,444.8321 341.6801,452.7787 338.9685,460.7008 336.653,468.4995 334.8699,476.0812 333.7584,483.3561 333.4585,490.2386 334.1089,496.6476 335.8434,502.5081 338.7856,507.7521 343.0436,512.3224 348.7016,516.1747 355.8128,519.2822 364.3908,521.6386 374.4019,523.2621 385.7596,524.1979 398.3214,524.5196 411.8899,524.3283 426.2181,523.7503 441.0192,522.9318 455.9809,522.0315 470.7819,521.213 485.1101,520.635 498.6786,520.4438 511.2405,520.7654 522.5981,521.7012 532.6093,523.3247 541.1872,525.6811 548.2984,528.7886 553.9564,532.6409 558.2144,537.2112 561.1567,542.4552 562.8911,548.3156 563.5416,554.7247 563.2416,561.6072 562.1301,568.8821 560.347,576.4637 558.0315,584.2625 555.3199,592.1846 552.3453,600.1312 549.2369,607.9982 546.1205,615.6743 543.1189,623.04 540.3513,629.9663 537.9343,636.3132 535.9808,641.9294 534.5994,646.6519 533.8925,650.307 533.9534,652.7128 534.8628,653.6831 536.6835,653.0336 539.4547,650.5911 543.1851,646.2043 547.8463,639.7576 553.3656,631.1864 559.6221,620.4916 566.4449,607.7537 573.6147,593.1413 580.8721,576.9142 587.929,559.4173 594.4855,541.0656 600.249,522.3216 604.9537,503.6659 608.3773,485.5664 610.3534,468.4489 610.7784,452.6741 609.6116,438.5213 606.8702,426.182 602.6203,415.7614 596.9655,407.2865 590.0355,400.7178 581.9747,395.9637 572.9333,392.8949 563.0598,391.357 552.4963,391.182 541.3749,392.1967 529.8163,394.2293 517.9296,397.1133 505.8128,400.6911 493.5539,404.8146 481.233,409.3457 468.9235,414.1563 456.6944,419.1274 444.6123,424.1479 432.7429,429.1141 421.153,433.9282 409.9119,438.4978 399.0929,442.7355 388.7742,446.5584 379.0394,449.8888 369.9779,452.6545 361.6845,454.7906 354.2579,456.2413 347.7988,456.9622 342.4068,456.9234 338.1765,456.1134 335.1922,454.5418 333.522,452.2436 333.2116,449.281 334.2779,445.7458 336.7036,441.7588 340.4326,437.468 345.3686,433.0441 351.3759,428.6741 358.2833,424.5528 365.8912,420.8733 373.9813,417.8173 382.3275,415.546 390.7074,414.193 398.9131,413.8589 406.7603,414.6093 414.0948,416.4753  z" stroke="rgb(255,81,210)" fill="none" />

</g>  <!-- end tswirl_6_4 -->

</g>

</svg>

8.3522 -0.0446,12.7307 -0.1901,4.4955 -0.4471,9.0951 -0.7581,13.7858 -0.3516,4.7695 -0.7302,9.6056 -1.1222,14.4961 -0.3913,4.9333 -0.7675,9.8976 -1.1145,14.8816 -0.303,4.9923 -0.5473,9.9814 -0.7181,14.9561 -0.0823,4.949 -0.0612,9.8611 0.0783,14.7248 0.2729,4.804 0.694,9.5368 1.278,14.1869 0.7611,4.5558 1.7136,9.0057 2.8708,13.338 1.3748,4.2031 2.9794,8.2656 4.825,12.1761 z M 448.3967,527.77 c -0.0903,5.2777 -0.1547,10.5339 -0.1804,15.7579 0.0259,5.1809 0.1161,10.3077 0.283,15.3692 0.2559,4.985 0.6129,9.8821 1.0827,14.6797 0.5941,4.6861 1.3232,9.2491 2.1978,13.6766 1.0299,4.2802 2.224,8.4006 3.5905,12.3492 1.5463,3.7645 3.2784,7.3331 5.2013,10.694 2.1172,3.1418 4.4309,6.0537 6.9415,8.7256 2.7061,2.4224 5.6047,4.5869 8.6904,6.4861 3.2656,1.6278 6.7017,2.9797 10.2966,4.0528 3.7396,0.7929 7.608,1.3064 11.5868,1.5434 4.069,-0.0348 8.2058,-0.3341 12.3864,-0.8888 4.1992,-0.7984 8.3902,-1.8269 12.5454,-3.0697 4.0912,-1.4394 8.0901,-3.056 11.9683,-4.8288 3.7297,-1.9067 7.2841,-3.924 10.6371,-6.028 3.1277,-2.1662 6.0073,-4.37 8.6186,-6.5872 2.3247,-2.2067 4.3471,-4.3799 6.0537,-6.4975 1.3802,-2.0413 2.4257,-3.987 3.1307,-5.8193 0.3614,-1.7029 0.3779,-3.2622 0.0509,-4.6655 -0.6674,-1.2367 -1.6702,-2.2982 -3.0019,-3.1776 -1.6527,-0.6922 -3.617,-1.1935 -5.883,-1.5022 -2.5565,-0.1155 -5.3919,-0.0387 -8.4942,0.2282 -3.3568,0.4539 -6.9555,1.0905 -10.7834,1.9046 -4.0446,0.9856 -8.2935,2.1361 -12.7342,3.4442 -4.6207,1.4576 -9.4096,3.0566 -14.3555,4.788 -5.0917,1.8546 -10.3187,3.8229 -15.6707,5.895 -5.467,2.1656 -11.0394,4.4143 -16.7081,6.7352 -5.7557,2.3821 -11.5899,4.8141 -17.4939,7.2841 -5.9654,2.4962 -11.984,5.006 -18.0475,7.5167 -6.1003,2.4985 -12.2291,4.9711 -18.378,7.4037 -6.1606,2.378 -12.3241,4.6863 -18.4815,6.9091 -6.142,2.1211 -12.2589,4.1235 -18.3403,5.9896 -6.0354,1.7117 -12.0134,3.2501 -17.9221,4.5958 -5.8269,1.1329 -11.5586,2.0324 -17.1813,2.6777 -5.4987,0.3695 -10.8582,0.4416 -16.0622,0.1945 -5.0317,-0.5878 -9.8735,-1.5379 -14.5074,-2.8708 -4.4075,-1.7359 -8.5699,-3.8935 -12.4683,-6.49 -3.6156,-3.0507 -6.93,-6.5687 -9.9254,-10.5641 -2.6594,-4.4795 -4.9672,-9.4466 -6.9093,-14.9001 -1.5644,-5.9344 -2.7414,-12.3393 -3.5239,-19.1989 -0.3843,-7.2932 -0.3696,-14.9933 0.0407,-23.0681 0.7992,-8.4116 1.9761,-17.1174 3.5159,-26.0697 1.8838,-9.1472 4.0887,-18.4341 6.5885,-27.8029 2.7652,-9.3911 5.7636,-18.744 8.9606,-27.9986 3.3595,-9.0971 6.8442,-17.9798 10.4163,-26.594 3.6221,-8.2957 7.2574,-16.2271 10.8703,-23.7535 3.5569,-7.086 7.0264,-13.7019 10.3797,-19.8239 3.2109,-5.6098 6.2565,-10.6948 9.1171,-15.2476 2.6587,-4.0184 5.1022,-7.5047 7.3199,-10.4651 1.9843,-2.4447 3.7305,-4.3868 5.2362,-5.8423 1.2655,-0.987 2.2928,-1.5255 3.0862,-1.6365 0.5651,0.294 0.9093,0.9703 1.0411,2.0054 -0.0709,1.3707 -0.334,3.0536 -0.7778,5.0258 -0.6126,2.2389 -1.3814,4.7225 -2.2933,7.4294 -1.0416,2.9093 -2.1991,6.0012 -3.4586,9.2562 -1.3472,3.3997 -2.7676,6.9263 -4.2465,10.5625 -1.5228,3.7295 -3.0742,7.5364 -4.6391,11.4056 -1.5629,3.9168 -3.1084,7.867 -4.6204,11.837 -1.4626,3.9766 -2.8595,7.947 -4.1742,11.8987 -1.2157,3.9207 -2.3155,7.7987 -3.2823,11.6224 -0.8163,3.758 -1.4647,7.4393 -1.9278,11.0329 -0.2602,3.4955 -0.2999,6.8825 -0.1021,10.151 0.4526,3.1405 1.1763,6.1438 2.1871,9.001 1.3129,2.7029 2.9422,5.244 4.9009,7.6165 2.2993,2.1978 4.9492,4.2158 7.9573,6.0501 3.3721,1.6478 7.1112,3.1075 11.2178,4.3791 4.4714,1.0848 9.3019,1.986 14.4825,2.7083 5.5181,0.5499 11.3577,0.9358 17.4991,1.1677 6.4204,0.0898 13.0932,0.0509 19.9889,-0.1015 7.0863,-0.2494 14.3282,-0.578 21.6887,-0.9669 7.4406,-0.4296 14.9214,-0.8797 22.4023,-1.3299 7.4405,-0.4296 14.801,-0.8185 22.0429,-1.1471 7.0863,-0.2494 13.982,-0.4018 20.6548,-0.4406 6.4204,0.0897 12.5619,0.3216 18.4015,0.7075 5.518,0.5499 10.6986,1.2722 15.5292,2.1734 4.4713,1.0848 8.5779,2.3564 12.317,3.8161 3.3721,1.6478 6.3803,3.4821 9.0301,5.5001 2.2993,2.1978 4.258,4.5703 5.8873,7.1114 1.313,2.7029 2.3237,5.5601 3.0474,8.5633 0.4526,3.1405 0.6505,6.4091 0.6107,9.7962 -0.2602,3.4954 -0.7232,7.0891 -1.3717,10.7703 -0.8163,3.758 -1.7831,7.5816 -2.8828,11.4597 -1.2158,3.9207 -2.5304,7.8724 -3.9274,11.8428 -1.4626,3.9766 -2.9746,7.9466 -4.52,11.8968 -1.563,3.9168 -3.1279,7.786 -4.6794,11.5929 -1.5227,3.7295 -3.0016,7.3657 -4.422,10.8923 -1.3472,3.3997 -2.6067,6.6547 -3.7642,9.7466 -1.0416,2.9094 -1.9535,5.6162 -2.7223,8.0998 -0.6126,2.2389 -1.0564,4.2111 -1.3195,5.894 -0.0709,1.3707 0.0609,2.4058 0.4051,3.0821 0.5652,0.294 1.3585,0.183 2.3859,-0.3555 1.2654,-0.987 2.7712,-2.4425 4.5173,-4.3846 1.9843,-2.4447 4.202,-5.4051 6.6455,-8.8914 2.6588,-4.0184 5.5193,-8.5712 8.565,-13.6562 3.2108,-5.6098 6.5641,-11.7318 10.0336,-18.3477 3.5569,-7.086 7.1698,-14.6124 10.8051,-22.5438 3.6221,-8.2957 7.1943,-16.9099 10.679,-25.7926 3.3595,-9.0971 6.5565,-18.3517 9.5548,-27.7046 2.7652,-9.3911 5.265,-18.7599 7.4699,-28.0468 1.8838,-9.1472 3.4236,-18.0995 4.6006,-26.8053 0.7991,-8.4117 1.2094,-16.4864 1.2241,-24.1865 -0.3842,-7.2932 -1.1668,-14.1528 -2.3438,-20.5577 -1.5644,-5.9344 -3.5065,-11.3879 -5.8143,-16.355 -2.6594,-4.4795 -5.6548,-8.4749 -8.9692,-11.9928 -3.6156,-3.0508 -7.514,-5.6473 -11.6764,-7.8049 -4.4075,-1.7359 -9.0414,-3.0688 -13.8832,-4.0188 -5.0317,-0.5879 -10.2357,-0.835 -15.5952,-0.7629 -5.4987,0.3695 -11.1214,1.0147 -16.8531,1.9143 -5.8269,1.133 -11.7356,2.4786 -17.7136,4.017 -6.0354,1.7117 -12.1168,3.5778 -18.2337,5.5802 -6.142,2.1211 -12.2994,4.3439 -18.4629,6.6522 -6.1606,2.378 -12.3095,4.8106 -18.4383,7.2832 -6.1003,2.4985 -12.1638,5.0092 -18.1824,7.519 -5.9654,2.4962 -11.8694,4.9662 -17.7036,7.3982 -5.7557,2.3821 -11.4244,4.703 -16.9968,6.9517 -5.467,2.1657 -10.819,4.2377 -16.046,6.206 -5.0917,1.8546 -10.0376,3.586 -14.8265,5.185 -4.6207,1.4577 -9.0615,2.7657 -13.3103,3.9162 -4.0446,0.9856 -7.8725,1.7997 -11.4712,2.4363 -3.3568,0.4539 -6.4591,0.7209 -9.2946,0.7976 -2.5565,-0.1155 -4.8224,-0.4242 -6.7868,-0.9255 -1.6526,-0.6922 -2.9843,-1.5716 -3.9871,-2.6331 -0.6674,-1.2367 -0.9944,-2.64 -0.9778,-4.1993 0.3613,-1.7029 1.0663,-3.5352 2.1118,-5.4809 1.3802,-2.0413 3.0868,-4.1589 5.1092,-6.3321 2.3247,-2.2067 4.936,-4.4239 7.8157,-6.6278 3.1276,-2.1661 6.4807,-4.2701 10.035,-6.2874 3.7297,-1.9067 7.6079,-3.6795 11.6067,-5.2961 4.0913,-1.4394 8.2465,-2.6822 12.4375,-3.7107 4.1992,-0.7984 8.3799,-1.353 12.5166,-1.6524 4.069,-0.0347 8.0478,0.2022 11.9162,0.7157 3.7396,0.793 7.3345,1.866 10.7706,3.2179 3.2656,1.6278 6.3513,3.527 9.2499,5.6914 2.7062,2.4225 5.2167,5.0943 7.5304,8.0063 2.1172,3.1418 4.0401,6.5027 5.7722,10.0713 1.5463,3.7645 2.9128,7.7131 4.1069,11.8335 1.0299,4.2801 1.9045,8.7078 2.6336,13.2707 0.5941,4.6862 1.0639,9.4837 1.4209,14.3807 0.2559,4.9851 0.4228,10.0466 0.513,15.1734 0.0259,5.1809 2e-4,10.4049 -0.0642,15.6611 z"
         id="trazo.tswirl_6_4" />
    </g>
    <!-- end tswirl_6_4 -->
  </g>
</svg>
