<svg xmlns="http://www.w3.org/2000/svg" xmlns:inkscape="http://www.inkscape.org/namespaces/inkscape" xmlns:xlink="http://www.w3.org/1999/xlink" width="210.0mm" height="297.0mm">
<defs>
</defs>
<g id="torus" >
<g>
<line x1="-43.070312570841544" y1="1088.8210183710514" x2="-41.86603366967311" y2="1092.6915679119006" /><line x1="-41.86603366967311" y1="1092.6915679119006" x2="-40.00257508083987" y2="1096.6436881456584" /><line x1="-40.00257508083987" y1="1096.6436881456584" x2="-37.495444900394865" y2="1100.5865359617296" /><line x1="-37.495444900394865" y1="1100.5865359617296" x2="-34.373830067975376" y2="1104.431454566663" /><line x1="-34.373830067975376" y1="1104.431454566663" x2="-30.680053448274634" y2="1108.0939581780244" /><line x1="-30.680053448274634" y1="1108.0939581780244" x2="-26.468729040800714" y2="1111.495622101763" /><line x1="-26.468729040800714" y1="1111.495622101763" x2="-21.805646856758234" y2="1114.5658342639776" /><line x1="-21.805646856758234" y1="1114.5658342639776" x2="-16.766407738018724" y2="1117.243366520766" /><line x1="-16.766407738018724" y1="1117.243366520766" x2="-11.43484641533718" y2="1119.4777184379004" /><line x1="-11.43484641533718" y1="1119.4777184379004" x2="-5.901255196071731" y2="1121.2302288939884" /><line x1="-5.901255196071731" y1="1121.2302288939884" x2="-0.2604816373590186" y2="1122.4749063244797" /><line x1="-0.2604816373590186" y1="1122.4749063244797" x2="5.390088390586495" y2="1123.1989734793751" /><line x1="5.390088390586495" y1="1123.1989734793751" x2="10.952600722160016" y2="1123.4031096492276" /><line x1="10.952600722160016" y1="1123.4031096492276" x2="16.330815867504285" y2="1123.1013854930954" /><line x1="16.330815867504285" y1="1123.1013854930954" x2="21.43215945922315" y2="1122.3208928708177" /><line x1="21.43215945922315" y1="1122.3208928708177" x2="26.169686812087296" y2="1121.1010773619255" /><line x1="26.169686812087296" y1="1121.1010773619255" x2="30.46392907130785" y2="1119.4927892142055" /><line x1="30.46392907130785" y1="1119.4927892142055" x2="34.244581666631625" y2="1117.5570731816783" /><line x1="34.244581666631625" y1="1117.5570731816783" x2="37.45197086819972" y2="1115.3637262564607" /><line x1="37.45197086819972" y1="1115.3637262564607" x2="40.0383130872003" y2="1112.9896539181534" /><line x1="40.0383130872003" y1="1112.9896539181534" x2="41.96868356867837" y2="1110.5170610155394" /><line x1="41.96868356867837" y1="1110.5170610155394" x2="43.22173953198223" y2="1108.0315270528185" /><line x1="43.22173953198223" y1="1108.0315270528185" x2="43.79009187846951" y2="1105.619986577737" /><line x1="43.79009187846951" y1="1105.619986577737" x2="43.68042684130196" y2="1103.3686960530745" /><line x1="43.68042684130196" y1="1103.3686960530745" x2="42.91327169695186" y2="1101.361192843421" /><line x1="42.91327169695186" y1="1101.361192843421" x2="41.52249014383135" y2="1099.676325164335" /><line x1="41.52249014383135" y1="1099.676325164335" x2="39.55445778701706" y2="1098.3863710160729" /><line x1="39.55445778701706" y1="1098.3863710160729" x2="37.066985312289475" y2="1097.555322696206" /><line x1="37.066985312289475" y1="1097.555322696206" x2="34.127982591164944" y2="1097.237325627256" /><line x1="34.127982591164944" y1="1097.237325627256" x2="30.81389750853009" y2="1097.4753604839166" /><line x1="30.81389750853009" y1="1097.4753604839166" x2="27.207974568358107" y2="1098.3001618615467" /><line x1="27.207974568358107" y1="1098.3001618615467" x2="23.39838058576047" y2="1099.7294050247651" /><line x1="23.39838058576047" y1="1099.7294050247651" x2="19.476201970921966" y2="1101.7671967805304" /><line x1="19.476201970921966" y1="1101.7671967805304" x2="15.533407095039117" y2="1104.4038625910011" /><line x1="15.533407095039117" y1="1104.4038625910011" x2="11.660771485487972" y2="1107.616036684495" /><line x1="11.660771485487972" y1="1107.616036684495" x2="7.9458593403413404" y2="1111.367066428417" /><line x1="7.9458593403413404" y1="1111.367066428417" x2="4.471065586186596" y2="1115.6077146315472" /><line x1="4.471065586186596" y1="1115.6077146315472" x2="1.311788878430888" y2="1120.2771389375266" /><line x1="1.311788878430888" y1="1120.2771389375266" x2="-1.4652365778283327" y2="1125.3041364824787" /><line x1="-1.4652365778283327" y1="1125.3041364824787" x2="-3.803409273242381" y2="1130.6086222779322" /><line x1="-3.803409273242381" y1="1130.6086222779322" x2="-5.657496040737354" y2="1136.10330865382" /><line x1="-5.657496040737354" y1="1136.10330865382" x2="-6.994606943452387" y2="1141.6955452116242" /><line x1="-6.994606943452387" y1="1141.6955452116242" x2="-7.794890818704843" y2="1147.2892866224445" /><line x1="-7.794890818704843" y1="1147.2892866224445" x2="-8.051932329403638" y2="1152.7871432145105" /><line x1="-8.051932329403638" y1="1152.7871432145105" x2="-7.772844046185528" y2="1158.09245521482" /><line x1="-7.772844046185528" y1="1158.09245521482" x2="-6.978051870693862" y2="1163.1113562901012" /><line x1="-6.978051870693862" y1="1163.1113562901012" x2="-5.700775771177035" y2="1167.7548055489399" /><line x1="-5.700775771177035" y1="1167.7548055489399" x2="-3.986224415791958" y2="1171.9404731135976" /><line x1="-3.986224415791958" y1="1171.9404731135976" x2="-1.890513700297044" y2="1175.594504042034" /><line x1="-1.890513700297044" y1="1175.594504042034" x2="0.5206617550011433" y2="1178.6531313140754" /><line x1="0.5206617550011433" y1="1178.6531313140754" x2="3.1735736561997143" y2="1181.063995956964" /><line x1="3.1735736561997143" y1="1181.063995956964" x2="5.988188617431163" y2="1182.7872779378943" /><line x1="5.988188617431163" y1="1182.7872779378943" x2="8.880041342424684" y2="1183.796547712576" /><line x1="8.880041342424684" y1="1183.796547712576" x2="11.762209392093979" y2="1184.0792798577008" /><line x1="11.762209392093979" y1="1184.0792798577008" x2="14.547346524248455" y2="1183.6371324149154" /><line x1="14.547346524248455" y1="1183.6371324149154" x2="17.14972398841252" y2="1182.4858522743139" /><line x1="17.14972398841252" y1="1182.4858522743139" x2="19.48724281617994" y2="1180.6549192361508" /><line x1="19.48724281617994" y1="1180.6549192361508" x2="21.483360506157087" y2="1178.1868521564554" /><line x1="21.483360506157087" y1="1178.1868521564554" x2="23.068903380626892" y2="1175.1362672875096" /><line x1="23.068903380626892" y1="1175.1362672875096" x2="24.183708857777592" y2="1171.568643757709" /><line x1="24.183708857777592" y1="1171.568643757709" x2="24.778058215951678" y2="1167.5588817962189" /><line x1="24.778058215951678" y1="1167.5588817962189" x2="24.813899849915025" y2="1163.1896221635866" /><line x1="24.813899849915025" y1="1163.1896221635866" x2="24.26579093037901" y2="1158.5494349214657" /><line x1="24.26579093037901" y1="1158.5494349214657" x2="23.121561972323512" y2="1153.7308640248032" /><line x1="23.121561972323512" y1="1153.7308640248032" x2="21.382684037155077" y2="1148.8283930669404" /><line x1="21.382684037155077" y1="1148.8283930669404" x2="19.06433856870017" y2="1143.9363749803276" /><line x1="19.06433856870017" y1="1143.9363749803276" x2="16.195161703358853" y2="1139.1469730011108" /><line x1="16.195161703358853" y1="1139.1469730011108" x2="12.816702477963494" y2="1134.548156826678" /><line x1="12.816702477963494" y1="1134.548156826678" x2="8.98258029231162" y2="1130.2217967688769" /><line x1="8.98258029231162" y1="1130.2217967688769" x2="4.757373165208589" y2="1126.241904055942" /><line x1="4.757373165208589" y1="1126.241904055942" x2="0.2152569709869174" y2="1122.673048557973" /><line x1="0.2152569709869174" y1="1122.673048557973" x2="-4.561569372701758" y2="1119.5689963338732" /><line x1="-4.561569372701758" y1="1119.5689963338732" x2="-9.484648143706476" y2="1116.9715924314555" /><line x1="-9.484648143706476" y1="1116.9715924314555" x2="-14.461166655784105" y2="1114.9099162027996" /><line x1="-14.461166655784105" y1="1114.9099162027996" x2="-19.39596041465921" y2="1113.3997258018705" /><line x1="-19.39596041465921" y1="1113.3997258018705" x2="-24.19358276611583" y2="1112.443205293038" /><line x1="-24.19358276611583" y1="1112.443205293038" x2="-28.76037237931423" y2="1112.0290204072335" /><line x1="-28.76037237931423" y1="1112.0290204072335" x2="-33.006497639174434" y2="1112.1326772962063" /><line x1="-33.006497639174434" y1="1112.1326772962063" x2="-36.847914306961655" y2="1112.7171797793299" /><line x1="-36.847914306961655" y1="1112.7171797793299" x2="-40.208199278303" y2="1113.733974382286" /><line x1="-40.208199278303" y1="1113.733974382286" x2="-43.02022439425191" y2="1115.124145433659" /><line x1="-43.02022439425191" y1="1115.124145433659" x2="-45.22761849159879" y2="1116.8198551506996" /><line x1="-45.22761849159879" y1="1116.8198551506996" x2="-46.786015439653866" y2="1118.745978308442" /><line x1="-46.786015439653866" y1="1118.745978308442" x2="-47.664007063639204" y2="1120.8219036140947" /><line x1="-47.664007063639204" y1="1120.8219036140947" x2="-47.84384601016931" y2="1122.9634575056168" /><line x1="-47.84384601016931" y1="1122.9634575056168" x2="-47.321833224375055" y2="1125.0849100357466" /><line x1="-47.321833224375055" y1="1125.0849100357466" x2="-46.10838553312296" y2="1127.1010148996352" /><line x1="-46.10838553312296" y1="1127.1010148996352" x2="-44.227832895357366" y2="1128.9290373538208" /><line x1="-44.227832895357366" y1="1128.9290373538208" x2="-41.71785520860629" y2="1130.4907278574292" /><line x1="-41.71785520860629" y1="1130.4907278574292" x2="-38.62868482699384" y2="1131.714193634554" /><line x1="-38.62868482699384" y1="1131.714193634554" x2="-35.021995943669914" y2="1132.5356254255091" /><line x1="-35.021995943669914" y1="1132.5356254255091" x2="-30.96954391532843" y2="1132.9008428897773" /><line x1="-30.96954391532843" y1="1132.9008428897773" x2="-26.551619859259628" y2="1132.7666237426547" /><line x1="-26.551619859259628" y1="1132.7666237426547" x2="-21.855277720230674" y2="1132.1017839603744" /><line x1="-21.855277720230674" y1="1132.1017839603744" x2="-16.972443066732538" y2="1130.88798934193" /><line x1="-16.972443066732538" y1="1130.88798934193" x2="-11.997911501302026" y2="1129.1202685783492" /><line x1="-11.997911501302026" y1="1129.1202685783492" x2="-7.027282303592008" y2="1126.8072328981564" /><line x1="-7.027282303592008" y1="1126.8072328981564" x2="-2.1548853151196834" y2="1123.970985956414" /><line x1="-2.1548853151196834" y1="1123.970985956414" x2="2.528260637149447" y2="1120.6467239673411" /><line x1="2.528260637149447" y1="1120.6467239673411" x2="6.936411596515452" y2="1116.8820424131225" /><line x1="6.936411596515452" y1="1116.8820424131225" x2="10.990940682463108" y2="1112.7359600295836" /><line x1="10.990940682463108" y1="1112.7359600295836" x2="14.622016970467756" y2="1108.2776797805027" /><line x1="14.622016970467756" y1="1108.2776797805027" x2="17.77008162214329" y2="1103.5851223017542" /><line x1="17.77008162214329" y1="1103.5851223017542" x2="20.3870998643795" y2="1098.7432487110805" /><line x1="20.3870998643795" y1="1098.7432487110805" x2="22.437536440473817" y2="1093.8422375507544" /><line x1="22.437536440473817" y1="1093.8422375507544" x2="23.899075371416757" y2="1088.975513610348" /><line x1="23.899075371416757" y1="1088.975513610348" x2="24.76300518024187" y2="1084.2377249357025" /><line x1="24.76300518024187" y1="1084.2377249357025" x2="25.034340541820452" y2="1079.7226522546787" /><line x1="25.034340541820452" y1="1079.7226522546787" x2="24.731594752689954" y2="1075.521188238899" /><line x1="24.731594752689954" y1="1075.521188238899" x2="23.886290879101107" y2="1071.7192897322045" /><line x1="23.886290879101107" y1="1071.7192897322045" x2="22.54213273619463" y2="1068.3961237176711" /><line x1="22.54213273619463" y1="1068.3961237176711" x2="20.753957348102258" y2="1065.622283120621" /><line x1="20.753957348102258" y1="1065.622283120621" x2="18.58639229465682" y2="1063.4582369001266" /><line x1="18.58639229465682" y1="1063.4582369001266" x2="16.11232269870139" y2="1061.952973879077" /><line x1="16.11232269870139" y1="1061.952973879077" x2="13.411159969288443" y2="1061.142912401574" /><line x1="13.411159969288443" y1="1061.142912401574" x2="10.56697875760145" y2="1061.0510487843674" /><line x1="10.56697875760145" y1="1061.0510487843674" x2="7.666534515855717" y2="1061.686452695486" /><line x1="7.666534515855717" y1="1061.686452695486" x2="4.797239943074136" y2="1063.0440193490995" /><line x1="4.797239943074136" y1="1063.0440193490995" x2="2.0451143975752473" y2="1065.1045596164777" /><line x1="2.0451143975752473" y1="1065.1045596164777" x2="-0.5072221982526898" y2="1067.8351829975659" /><line x1="-0.5072221982526898" y1="1067.8351829975659" x2="-2.7824839276038587" y2="1071.189977958727" /><line x1="-2.7824839276038587" y1="1071.189977958727" x2="-4.710527856757879" y2="1075.1109896366459" /><line x1="-4.710527856757879" y1="1075.1109896366459" x2="-6.230000249663006" y2="1079.5294723806608" /><line x1="-6.230000249663006" y1="1079.5294723806608" x2="-7.2897845384094175" y2="1084.3673180114647" /><line x1="-7.2897845384094175" y1="1084.3673180114647" x2="-7.850212752434974" y2="1089.5387589182308" /><line x1="-7.850212752434974" y1="1089.5387589182308" x2="-7.884022384271675" y2="1094.9522085749518" /><line x1="-7.884022384271675" y1="1094.9522085749518" x2="-7.377027152997099" y2="1100.5121989260588" /><line x1="-7.377027152997099" y1="1100.5121989260588" x2="-6.328492091101473" y2="1106.1214484329323" /><line x1="-6.328492091101473" y1="1106.1214484329323" x2="-4.751204506867915" y2="1111.6829267412506" /><line x1="-4.751204506867915" y1="1111.6829267412506" x2="-2.671234627137458" y2="1117.101935117758" /><line x1="-2.671234627137458" y1="1117.101935117758" x2="-0.12739802031904784" y2="1122.2881133198816" /><line x1="-0.12739802031904784" y1="1122.2881133198816" x2="2.829576196401724" y2="1127.1573550872026" /><line x1="2.829576196401724" y1="1127.1573550872026" x2="6.138145643552291" y2="1131.6335792441982" /><line x1="6.138145643552291" y1="1131.6335792441982" x2="9.72730569256643" y2="1135.6503152307255" /><line x1="9.72730569256643" y1="1135.6503152307255" x2="13.518154342907058" y2="1139.152076660554" /><line x1="13.518154342907058" y1="1139.152076660554" x2="17.425644871419916" y2="1142.0954824284154" /><line x1="17.425644871419916" y1="1142.0954824284154" x2="21.360471685748504" y2="1144.4501065689851" /><line x1="21.360471685748504" y1="1144.4501065689851" x2="25.231073040399025" y2="1146.1990386344098" /><line x1="25.231073040399025" y1="1146.1990386344098" x2="28.9456765555109" y2="1147.3391472688627" /><line x1="28.9456765555109" y1="1147.3391472688627" x2="32.41435825227112" y2="1147.8810205100322" /><line x1="32.41435825227112" y1="1147.8810205100322" x2="35.5510756814279" y2="1147.8486121036087" /><line x1="35.5510756814279" y1="1147.8486121036087" x2="38.275612067232224" y2="1147.278583693283" /><line x1="38.275612067232224" y1="1147.278583693283" x2="40.515392043262764" y2="1146.219367666772" /><line x1="40.515392043262764" y1="1146.219367666772" x2="42.20714419962044" y2="1144.729970932838" /><line x1="42.20714419962044" y1="1144.729970932838" x2="43.298360880465026" y2="1142.8785286403945" /><line x1="43.298360880465026" y1="1142.8785286403945" x2="43.748505670866535" y2="1140.740670917375" /><line x1="43.748505670866535" y1="1140.740670917375" x2="43.52998659516291" y2="1138.3977296626465" /><line x1="43.52998659516291" y1="1138.3977296626465" x2="42.62881392696118" y2="1135.9347955284559" /><line x1="42.62881392696118" y1="1135.9347955284559" x2="41.04499667735724" y2="1133.4387230890736" /><line x1="41.04499667735724" y1="1133.4387230890736" x2="38.79259215596337" y2="1130.996078563701" /><line x1="38.79259215596337" y1="1130.996078563701" x2="35.899480693510576" y2="1128.691109503924" /><line x1="35.899480693510576" y1="1128.691109503924" x2="32.40681145945043" y2="1126.6037677029528" /><line x1="32.40681145945043" y1="1126.6037677029528" x2="28.368162177261897" y2="1124.8078291149398" /><line x1="28.368162177261897" y1="1124.8078291149398" x2="23.848442023524854" y2="1123.369161682989" /><line x1="23.848442023524854" y1="1123.369161682989" x2="18.92251293024659" y2="1122.3441708899138" /><line x1="18.92251293024659" y1="1122.3441708899138" x2="13.673630665270185" y2="1121.778464320863" /><line x1="13.673630665270185" y1="1121.778464320863" x2="8.191660072091764" y2="1121.7057619543086" /><line x1="8.191660072091764" y1="1121.7057619543086" x2="2.57118048694641" y2="1122.147078299495" /><line x1="2.57118048694641" y1="1122.147078299495" x2="-3.0905316202876385" y2="1123.11019408574" /><line x1="-3.0905316202876385" y1="1123.11019408574" x2="-8.695572382179737" y2="1124.5894299994502" /><line x1="-8.695572382179737" y1="1124.5894299994502" x2="-14.147494912868426" y2="1126.5657273615886" /><line x1="-14.147494912868426" y1="1126.5657273615886" x2="-19.353355953218934" y2="1129.007034020816" /><line x1="-19.353355953218934" y1="1129.007034020816" x2="-24.225689300826428" y2="1131.8689884927894" /><line x1="-24.225689300826428" y1="1131.8689884927894" x2="-28.68435026870913" y2="1135.0958827746379" /><line x1="-28.68435026870913" y1="1135.0958827746379" x2="-32.65820076024263" y2="1138.6218896843868" /><line x1="-32.65820076024263" y1="1138.6218896843868" x2="-36.086591594436264" y2="1142.372519560928" /><line x1="-36.086591594436264" y1="1142.372519560928" x2="-38.92061730103798" y2="1146.2662771792811" /><line x1="-38.92061730103798" y1="1146.2662771792811" x2="-41.124096077214" y2="1150.216484807933" /><line x1="-41.124096077214" y1="1150.216484807933" x2="-42.67428391689934" y2="1154.1332319847147" /><line x1="-42.67428391689934" y1="1154.1332319847147" x2="-43.56226884624366" y2="1157.9253872439617" /><line x1="-43.56226884624366" y1="1157.9253872439617" x2="-43.79309257340598" y2="1161.5026639102507" /><line x1="-43.79309257340598" y1="1161.5026639102507" x2="-43.38552971670499" y2="1164.777670122718" /><line x1="-43.38552971670499" y1="1164.777670122718" x2="-42.371565161056566" y2="1167.6678800122895" /><line x1="-42.371565161056566" y1="1167.6678800122895" x2="-40.79561009263" y2="1170.0975282845927" /><line x1="-40.79561009263" y1="1170.0975282845927" x2="-38.71342066733937" y2="1171.9993651308866" /><line x1="-38.71342066733937" y1="1171.9993651308866" x2="-36.190759863101576" y2="1173.3161745977204" /><line x1="-36.190759863101576" y1="1173.3161745977204" x2="-33.30185883521054" y2="1174.0021487790598" /><line x1="-33.30185883521054" y1="1174.0021487790598" x2="-30.12768678592336" y2="1174.0239646422465" /><line x1="-30.12768678592336" y1="1174.0239646422465" x2="-26.75407215096409" y2="1173.3615815099874" /><line x1="-26.75407215096409" y1="1173.3615815099874" x2="-23.269724663972497" y2="1172.0087952427516" /><line x1="-23.269724663972497" y1="1172.0087952427516" x2="-19.764194343281506" y2="1169.973431977333" /><line x1="-19.764194343281506" y1="1169.973431977333" x2="-16.32582259398576" y2="1167.2772625214384" /><line x1="-16.32582259398576" y1="1167.2772625214384" x2="-13.039718090523861" y2="1163.955623887661" /><line x1="-13.039718090523861" y1="1163.955623887661" x2="-9.985823896606707" y2="1160.05670065858" /><line x1="-9.985823896606707" y1="1160.05670065858" x2="-7.237089902329176" y2="1155.6405517884045" /><line x1="-7.237089902329176" y1="1155.6405517884045" x2="-4.857821540845495" y2="1150.7778715772856" /><line x1="-4.857821540845495" y1="1150.7778715772856" x2="-2.902218301252091" y2="1145.5485163571361" /><line x1="-2.902218301252091" y1="1145.5485163571361" x2="-1.413153851479411" y2="1140.039816037535" /><line x1="-1.413153851479411" y1="1140.039816037535" x2="-0.42120583189958966" y2="1134.3447369685505" /><line x1="-0.42120583189958966" y1="1134.3447369685505" x2="0.056025714400172975" y2="1128.5599147058647" /><line x1="0.056025714400172975" y1="1128.5599147058647" x2="0.014306324735692467" y2="1122.7836004136964" /><line x1="0.014306324735692467" y1="1122.7836004136964" x2="-0.5371504413265541" y2="1117.1135819592157" /><line x1="-0.5371504413265541" y1="1117.1135819592157" x2="-1.5759077601730584" y2="1111.64510942451" /><line x1="-1.5759077601730584" y1="1111.64510942451" x2="-3.066832719653436" y2="1106.4688768674962" /><line x1="-3.066832719653436" y1="1106.4688768674962" x2="-4.962912320454114" y2="1101.669111001601" /><line x1="-4.962912320454114" y1="1101.669111001601" x2="-7.206343479906785" y2="1097.3217978930463" /><line x1="-7.206343479906785" y1="1097.3217978930463" x2="-9.729867096577513" y2="1093.4930981343555" /><line x1="-9.729867096577513" y1="1093.4930981343555" x2="-12.458325561874615" y2="1090.237972652229" /><line x1="-12.458325561874615" y1="1090.237972652229" x2="-15.310391482478748" y2="1087.5990642052648" /><line x1="-15.310391482478748" y1="1087.5990642052648" x2="-18.20045606812856" y2="1085.605848088169" /><line x1="-18.20045606812856" y1="1085.605848088169" x2="-21.04060481439793" y2="1084.2740756965845" /><line x1="-21.04060481439793" y1="1084.2740756965845" x2="-23.742651757596587" y2="1083.6055244691781" /><line x1="-23.742651757596587" y1="1083.6055244691781" x2="-26.220200762958452" y2="1083.588038437574" /><line x1="-26.220200762958452" y1="1083.588038437574" x2="-28.390642608771657" y2="1084.195913450702" /><line x1="-28.390642608771657" y1="1084.195913450702" x2="-30.17710588864202" y2="1085.3905459737036" /><line x1="-30.17710588864202" y1="1085.3905459737036" x2="-31.510252472352217" y2="1087.1213792530027" /><line x1="-31.510252472352217" y1="1087.1213792530027" x2="-32.329935547508306" y2="1089.3271085503811" /><line x1="-32.329935547508306" y1="1089.3271085503811" x2="-32.5866346365627" y2="1091.9371386877426" /><line x1="-32.5866346365627" y1="1091.9371386877426" x2="-32.24266984198737" y2="1094.873217308246" /><line x1="-32.24266984198737" y1="1094.873217308246" x2="-31.273148011343906" y2="1098.0512438538067" /><line x1="-31.273148011343906" y1="1098.0512438538067" x2="-29.66663406392848" y2="1101.3832227201353" /><line x1="-29.66663406392848" y1="1101.3832227201353" x2="-27.42551143460805" y2="1104.779265972803" /><line x1="-27.42551143460805" y1="1104.779265972803" x2="-24.56604289871771" y2="1108.149654635428" /><line x1="-24.56604289871771" y1="1108.149654635428" x2="-21.118129525245234" y2="1111.4068830820615" /><line x1="-21.118129525245234" y1="1111.4068830820615" x2="-17.124748609723984" y2="1114.4676471102196" /><line x1="-17.124748609723984" y1="1114.4676471102196" x2="-12.64111902147467" y2="1117.2547362710245" /><line x1="-12.64111902147467" y1="1117.2547362710245" x2="-7.73357875897166" y2="1119.698776953069" /><line x1="-7.73357875897166" y1="1119.698776953069" x2="-2.478221739990547" y2="1121.7397992571155" /><line x1="-2.478221739990547" y1="1121.7397992571155" x2="3.0406847721102204" y2="1123.3285866893045" /><line x1="3.0406847721102204" y1="1123.3285866893045" x2="8.732468877557498" y2="1124.4277774156344" /><line x1="8.732468877557498" y1="1124.4277774156344" x2="14.501964392495369" y2="1125.012695676355" /><line x1="14.501964392495369" y1="1125.012695676355" x2="20.2515279264842" y2="1125.071892662921" /><line x1="20.2515279264842" y1="1125.071892662921" x2="25.88310242346296" y2="1124.607387001614" /><line x1="25.88310242346296" y1="1124.607387001614" x2="31.30031421272442" y2="1123.6345958327374" /><line x1="31.30031421272442" y1="1123.6345958327374" x2="36.41050670062229" y2="1122.1819622933208" /><line x1="36.41050670062229" y1="1122.1819622933208" x2="41.12671830612244" y2="1120.2902857040572" /><line x1="41.12671830612244" y1="1120.2902857040572" x2="45.36952522991552" y2="1118.0117691387054" /><line x1="45.36952522991552" y1="1118.0117691387054" x2="49.06871977102932" y2="1115.408807642888" /><line x1="49.06871977102932" y1="1115.408807642888" x2="52.16480166320114" y2="1112.552541425205" /><line x1="52.16480166320114" y1="1112.552541425205" x2="54.61020583669481" y2="1109.5212110154348" /><line x1="54.61020583669481" y1="1109.5212110154348" x2="56.37029363885035" y2="1106.3983447670714" /><line x1="56.37029363885035" y1="1106.3983447670714" x2="57.42406471066045" y2="1103.2708310459948" /><line x1="57.42406471066045" y1="1103.2708310459948" x2="57.7645264417026" y2="1100.226900871375" /><line x1="57.7645264417026" y1="1100.226900871375" x2="57.398829136577646" y2="1097.354080144127" /><line x1="57.398829136577646" y1="1097.354080144127" x2="56.348013704224485" y2="1094.7371587711718" /><line x1="56.348013704224485" y1="1094.7371587711718" x2="54.646520553193184" y2="1092.456213856272" /><line x1="54.646520553193184" y1="1092.456213856272" x2="52.341342548629896" y2="1090.584721875439" /><line x1="52.341342548629896" y1="1090.584721875439" x2="49.49097972515187" y2="1089.1878465687125" /><line x1="49.49097972515187" y1="1089.1878465687125" x2="46.164060589173886" y2="1088.3208755150195" /><line x1="46.164060589173886" y1="1088.3208755150195" x2="42.43781924370031" y2="1088.0278932483022" /><line x1="42.43781924370031" y1="1088.0278932483022" x2="38.39633371907558" y2="1088.340702178785" /><line x1="38.39633371907558" y1="1088.340702178785" x2="34.128642653940005" y2="1089.278009341567" /><line x1="34.128642653940005" y1="1089.278009341567" x2="29.726760601356624" y2="1090.8449150169306" /><line x1="29.726760601356624" y1="1090.8449150169306" x2="25.28361674062285" y2="1093.0326897057178" /><line x1="25.28361674062285" y1="1093.0326897057178" x2="20.89099809463012" y2="1095.8188709986102" /><line x1="20.89099809463012" y1="1095.8188709986102" x2="16.637514148576248" y2="1099.1676668226723" /><line x1="16.637514148576248" y1="1099.1676668226723" x2="12.606643694927966" y2="1103.0306515485088" /><line x1="12.606643694927966" y1="1103.0306515485088" x2="8.874907270532637" y2="1107.3477369358493" /><line x1="8.874907270532637" y1="1107.3477369358493" x2="5.5101910927798565" y2="1112.0484359397485" /><line x1="5.5101910927798565" y1="1112.0484359397485" x2="2.5702799405493733" y2="1117.0533180025752" /><line x1="2.5702799405493733" y1="1117.0533180025752" x2="0.1016189117150654" y2="1122.2756987576927" /><line x1="0.1016189117150654" y1="1122.2756987576927" x2="-1.8616643951594665" y2="1127.6234771138377" /><line x1="-1.8616643951594665" y1="1127.6234771138377" x2="-3.2984578711578276" y2="1133.0011003428197" /><line x1="-3.2984578711578276" y1="1133.0011003428197" x2="-4.2010641483987445" y2="1138.3116128718534" /><line x1="-4.2010641483987445" y1="1138.3116128718534" x2="-4.575295806136259" y2="1143.4587305779971" /><line x1="-4.575295806136259" y1="1143.4587305779971" x2="-4.44026256281805" y2="1148.348912653819" /><line x1="-4.44026256281805" y1="1148.348912653819" x2="-3.8278563764334703" y2="1152.8933682658162" /><line x1="-3.8278563764334703" y1="1152.8933682658162" x2="-2.7819472042039988" y2="1157.0099680331336" /><line x1="-2.7819472042039988" y1="1157.0099680331336" x2="-1.3573033606550842" y2="1160.6250102023619" /><line x1="-1.3573033606550842" y1="1160.6250102023619" x2="0.3817311775042969" y2="1163.6747840726762" /><line x1="0.3817311775042969" y1="1163.6747840726762" x2="2.3627817167346863" y2="1166.1069644629288" /><line x1="2.3627817167346863" y1="1166.1069644629288" x2="4.507168260334449" y2="1167.8816862848346" /><line x1="4.507168260334449" y1="1167.8816862848346" x2="6.73177524044094" y2="1168.9724073554044" /><line x1="6.73177524044094" y1="1168.9724073554044" x2="8.951024560838233" y2="1169.3664490626995" /><line x1="8.951024560838233" y1="1169.3664490626995" x2="11.07890362152972" y2="1169.065239665421" /><line x1="11.07890362152972" y1="1169.065239665421" x2="13.031007739944398" y2="1168.084242204142" /><line x1="13.031007739944398" y1="1168.084242204142" x2="14.726546809356272" y2="1166.4525985630207" /><line x1="14.726546809356272" y1="1166.4525985630207" x2="16.09027479979509" y2="1164.2124175932222" /><line x1="16.09027479979509" y1="1164.2124175932222" x2="17.054288598066435" y2="1161.4178649922337" /><line x1="17.054288598066435" y1="1161.4178649922337" x2="17.55967478552842" y2="1158.1338994976625" /><line x1="17.55967478552842" y1="1158.1338994976625" x2="17.557946907888578" y2="1154.4348491340832" /><line x1="17.557946907888578" y1="1154.4348491340832" x2="17.01225183566819" y2="1150.402732896426" /><line x1="17.01225183566819" y1="1150.402732896426" x2="15.89831705565934" y2="1146.1254427613771" /><line x1="15.89831705565934" y1="1146.1254427613771" x2="14.205112986473928" y2="1141.6947882795682" /><line x1="14.205112986473928" y1="1141.6947882795682" x2="11.935216801540875" y2="1137.20447133177" /><line x1="11.935216801540875" y1="1137.20447133177" x2="9.104878885938405" y2="1132.7480169559972" /><line x1="9.104878885938405" y1="1132.7480169559972" x2="5.7437671465477464" y2="1128.4167098065443" /><line x1="5.7437671465477464" y1="1128.4167098065443" x2="1.8944205735654873" y2="1124.29759847784" /><line x1="1.8944205735654873" y1="1124.29759847784" x2="-2.3885931561651885" y2="1120.471586700898" /><line x1="-2.3885931561651885" y1="1120.471586700898" x2="-7.03979252067604" y2="1117.0116777283968" /><line x1="-7.03979252067604" y1="1117.0116777283968" x2="-11.984141420371733" y2="1113.981394295332" /><line x1="-11.984141420371733" y1="1113.981394295332" x2="-17.13863358212707" y2="1111.4334173803418" /><line x1="-17.13863358212707" y1="1111.4334173803418" x2="-22.414049018996643" y2="1109.4084731945634" /><line x1="-22.414049018996643" y1="1109.4084731945634" x2="-27.716867198514244" y2="1107.9344888137882" /><line x1="-27.716867198514244" y1="1107.9344888137882" x2="-32.95126637959685" y2="1107.0260363064822" /><line x1="-32.95126637959685" y1="1107.0260363064822" x2="-38.02119278544187" y2="1106.6840911237766" /><line x1="-38.02119278544187" y1="1106.6840911237766" x2="-42.83244216668128" y2="1106.8960782813358" /><line x1="-42.83244216668128" y1="1106.8960782813358" x2="-47.294682792412374" y2="1107.6362440670625" /><line x1="-47.294682792412374" y1="1107.6362440670625" x2="-51.323444649618814" y2="1108.866311598325" /><line x1="-51.323444649618814" y1="1108.866311598325" x2="-54.841921662351744" y2="1110.53642586064" /><line x1="-54.841921662351744" y1="1110.53642586064" x2="-57.78267028330793" y2="1112.5863566889766" /><line x1="-57.78267028330793" y1="1112.5863566889766" x2="-60.089055774722524" y2="1114.9469360375526" /><line x1="-60.089055774722524" y1="1114.9469360375526" x2="-61.7165182673438" y2="1117.5417008152572" /><line x1="-61.7165182673438" y1="1117.5417008152572" x2="-62.63350540885934" y2="1120.2886932744527" /><line x1="-62.63350540885934" y1="1120.2886932744527" x2="-62.82219325156846" y2="1123.1023880831137" /><line x1="-62.82219325156846" y1="1123.1023880831137" x2="-62.2788647184102" y2="1125.8957016936147" /><line x1="-62.2788647184102" y1="1125.8957016936147" x2="-61.013981691730635" y2="1128.5820346935384" /><line x1="-61.013981691730635" y1="1128.5820346935384" x2="-59.051973252529045" y2="1131.077302892611" /><line x1="-59.051973252529045" y1="1131.077302892611" x2="-56.4306860036077" y2="1133.3019132518784" /><line x1="-56.4306860036077" y1="1133.3019132518784" x2="-53.2005820820363" y2="1135.1826371004663" /><line x1="-53.2005820820363" y1="1135.1826371004663" x2="-49.42360376106791" y2="1136.6543416739773" /><line x1="-49.42360376106791" y1="1136.6543416739773" x2="-45.17186684123268" y2="1137.661537770214" /><line x1="-45.17186684123268" y1="1137.661537770214" x2="-40.52605216971874" y2="1138.1597094490166" /><line x1="-40.52605216971874" y1="1138.1597094490166" x2="-35.57368001550636" y2="1138.1163998693219" /><line x1="-35.57368001550636" y1="1138.1163998693219" x2="-30.407188453166125" y2="1137.512023414179" /><line x1="-30.407188453166125" y1="1137.512023414179" x2="-25.121941910663864" y2="1136.3403793232187" /><line x1="-25.121941910663864" y1="1136.3403793232187" x2="-19.814169881172322" y2="1134.6088814755967" /><line x1="-19.814169881172322" y1="1134.6088814755967" x2="-14.578876348821113" y2="1132.3384603943273" /><line x1="-14.578876348821113" y1="1132.3384603943273" x2="-9.507815671279012" y2="1129.5631729531908" /><line x1="-9.507815671279012" y1="1129.5631729531908" x2="-4.687509857058021" y2="1126.32950936714" /><line x1="-4.687509857058021" y1="1126.32950936714" x2="-0.1974172714681886" y2="1122.6954188147556" /><line x1="-0.1974172714681886" y1="1122.6954188147556" x2="3.891753775901234" y2="1118.729074055717" /><line x1="3.891753775901234" y1="1118.729074055717" x2="7.51952355490213" y2="1114.5074035021603" /><line x1="7.51952355490213" y1="1114.5074035021603" x2="10.636889092408776" y2="1110.1144238491377" /><line x1="10.636889092408776" y1="1110.1144238491377" x2="13.207310957718658" y2="1105.639403236639" /><line x1="13.207310957718658" y1="1105.639403236639" x2="15.207419436794863" y2="1101.1749132160926" /><line x1="15.207419436794863" y1="1101.1749132160926" x2="16.62742622671026" y2="1096.8147863291604" /><line x1="16.62742622671026" y1="1096.8147863291604" x2="17.471220741734967" y2="1092.6520565091298" /><line x1="17.471220741734967" y1="1092.6520565091298" x2="17.7561684900655" y2="1088.7768887816292" /><line x1="17.7561684900655" y1="1088.7768887816292" x2="17.51260082051911" y2="1085.274595697142" /><line x1="17.51260082051911" y1="1085.274595697142" x2="16.783018566933166" y2="1082.2237314842232" /><line x1="16.783018566933166" y1="1082.2237314842232" x2="15.621015222204457" y2="1079.69434840244" /><line x1="15.621015222204457" y1="1079.69434840244" x2="14.08996019190005" y2="1077.7464243061384" /><line x1="14.08996019190005" y1="1077.7464243061384" x2="12.2614545176965" y2="1076.4285064745081" /><line x1="12.2614545176965" y1="1076.4285064745081" x2="10.21361201083592" y2="1075.7766347856227" /><line x1="10.21361201083592" y1="1075.7766347856227" x2="8.029188886532145" y2="1075.8134946734233" /><line x1="8.029188886532145" y1="1075.8134946734233" x2="5.793615402708899" y2="1076.5478899786096" /><line x1="5.793615402708899" y1="1076.5478899786096" x2="3.59296244988943" y2="1077.9745221767894" /><line x1="3.59296244988943" y1="1077.9745221767894" x2="1.5119040579332872" y2="1080.0740579616977" /><line x1="1.5119040579332872" y1="1080.0740579616977" x2="-0.36829158555625" y2="1082.813530238965" /><line x1="-0.36829158555625" y1="1082.813530238965" x2="-1.9716922697355774" y2="1086.1470071999881" /><line x1="-1.9716922697355774" y1="1086.1470071999881" x2="-3.2295080628546593" y2="1090.0165880480274" /><line x1="-3.2295080628546593" y1="1090.0165880480274" x2="-4.081734710872757" y2="1094.3536127378325" /><line x1="-4.081734710872757" y1="1094.3536127378325" x2="-4.478599143960177" y2="1099.080148806466" /><line x1="-4.478599143960177" y1="1099.080148806466" x2="-4.381769286522745" y2="1104.1106539204993" /><line x1="-4.381769286522745" y1="1104.1106539204993" x2="-3.76530613580355" y2="1109.3538186451237" /><line x1="-3.76530613580355" y1="1109.3538186451237" x2="-2.6163322725604172" y2="1114.7145224151566" /><line x1="-2.6163322725604172" y1="1114.7145224151566" x2="-0.9354064551386632" y2="1120.0958827145687" /><line x1="-0.9354064551386632" y1="1120.0958827145687" x2="1.2634114020795284" y2="1125.4013301629134" /><line x1="1.2634114020795284" y1="1125.4013301629134" x2="3.9527986003214743" y2="1130.5366799409983" /><line x1="3.9527986003214743" y1="1130.5366799409983" x2="7.092712997347408" y2="1135.4121440812394" /><line x1="7.092712997347408" y1="1135.4121440812394" x2="10.631224492245304" y2="1139.9442421015895" /><line x1="10.631224492245304" y1="1139.9442421015895" x2="14.505619518271958" y2="1144.057569714706" /><line x1="14.505619518271958" y1="1144.057569714706" x2="18.643754678416013" y2="1147.6863921023476" /><line x1="18.643754678416013" y1="1147.6863921023476" x2="22.96562270490825" y2="1150.7759995221113" /><line x1="22.96562270490825" y1="1150.7759995221113" x2="27.385103427794693" y2="1153.283839326359" /><line x1="27.385103427794693" y1="1153.283839326359" x2="31.811867368946597" y2="1155.1803686371645" /><line x1="31.811867368946597" y1="1155.1803686371645" x2="36.15335480399866" y2="1156.4495972648444" /><line x1="36.15335480399866" y1="1156.4495972648444" x2="40.3168505671812" y2="1157.0893580408333" /><line x1="40.3168505671812" y1="1157.0893580408333" x2="44.211522811768766" y2="1157.1112482455612" /><line x1="44.211522811768766" y1="1157.1112482455612" x2="47.7504775399465" y2="1156.5402669118437" /><line x1="47.7504775399465" y1="1156.5402669118437" x2="50.85267796623802" y2="1155.4141615204276" /><line x1="50.85267796623802" y1="1155.4141615204276" x2="53.444791792165944" y2="1153.7824863404705" /><line x1="53.444791792165944" y1="1153.7824863404705" x2="55.462844742350576" y2="1151.7053994482364" /><line x1="55.462844742350576" y1="1151.7053994482364" x2="56.853666845402664" y2="1149.2522164462025" /><line x1="56.853666845402664" y1="1149.2522164462025" x2="57.576117942966555" y2="1146.4997862130233" /><line x1="57.576117942966555" y1="1146.4997862130233" x2="57.60205187698202" y2="1143.530672914931" /><line x1="57.60205187698202" y1="1143.530672914931" x2="56.91700133297309" y2="1140.4312287575997" /><line x1="56.91700133297309" y1="1140.4312287575997" x2="55.520524767240424" y2="1137.2895912700785" /><line x1="55.520524767240424" y1="1137.2895912700785" x2="53.426314540012115" y2="1134.1936265221536" /><line x1="53.426314540012115" y1="1134.1936265221536" x2="50.66192658256659" y2="1131.2288988117998" /><line x1="50.66192658256659" y1="1131.2288988117998" x2="47.268248742574166" y2="1128.4766870976964" /><line x1="47.268248742574166" y1="1128.4766870976964" x2="43.29866725772581" y2="1126.012106467326" /><line x1="43.29866725772581" y1="1126.012106467326" x2="38.81794036874499" y2="1123.9023719522318" /><line x1="38.81794036874499" y1="1123.9023719522318" x2="33.90086017164573" y2="1122.205240312417" /><line x1="33.90086017164573" y1="1122.205240312417" x2="28.63066215930533" y2="1120.9676725925954" /><line x1="28.63066215930533" y1="1120.9676725925954" x2="23.097254541118954" y2="1120.224741949208" /><line x1="23.097254541118954" y1="1120.224741949208" x2="17.39532140731158" y2="1119.998812655106" /><line x1="17.39532140731158" y1="1119.998812655106" x2="11.622300864294253" y2="1120.299009008087" /><line x1="11.622300864294253" y1="1120.299009008087" x2="5.876321493701756" y2="1121.1209868151348" /><line x1="5.876321493701756" y1="1121.1209868151348" x2="0.2541147349084273" y2="1122.4470110515213" /><line x1="0.2541147349084273" y1="1122.4470110515213" x2="-5.15103359050818" y2="1124.2463394219762" /><line x1="-5.15103359050818" y1="1124.2463394219762" x2="-10.251255863980328" y2="1126.4759027864272" /><line x1="-10.251255863980328" y1="1126.4759027864272" x2="-14.965946847046457" y2="1129.0812668656904" /><line x1="-14.965946847046457" y1="1129.0812668656904" x2="-19.223456500196026" y2="1131.9978567385247" /><line x1="-19.223456500196026" y1="1131.9978567385247" x2="-22.962561185074424" y2="1135.152408252865" /><line x1="-22.962561185074424" y1="1135.152408252865" x2="-26.133730286651154" y2="1138.4646280386473" /><line x1="-26.133730286651154" y1="1138.4646280386473" x2="-28.70010391712558" y2="1141.8490109332135" /><line x1="-28.70010391712558" y1="1141.8490109332135" x2="-30.638205918890403" y2="1145.2167818724781" /><line x1="-30.638205918890403" y1="1145.2167818724781" x2="-31.938347111073444" y2="1148.4779200083474" /><line x1="-31.938347111073444" y1="1148.4779200083474" x2="-32.60473567546248" y2="1151.5432064802628" /><line x1="-32.60473567546248" y1="1151.5432064802628" x2="-32.65526539575147" y2="1154.3262744395201" /><line x1="-32.65526539575147" y1="1154.3262744395201" x2="-32.121006530621905" y2="1156.745595995916" /><line x1="-32.121006530621905" y1="1156.745595995916" x2="-31.045401573433253" y2="1158.7263565256965" /><line x1="-31.045401573433253" y1="1158.7263565256965" x2="-29.48319518458421" y2="1160.202198318615" /><line x1="-29.48319518458421" y1="1160.202198318615" x2="-27.499107307640646" y2="1161.1167772447498" /><line x1="-27.499107307640646" y1="1161.1167772447498" x2="-25.166281008065912" y2="1161.425087385602" /><line x1="-25.166281008065912" y1="1161.425087385602" x2="-22.564568112224862" y2="1161.0945603877954" /><line x1="-22.564568112224862" y1="1161.0945603877954" x2="-19.778645888339636" y2="1160.1058832200313" /><line x1="-19.778645888339636" y1="1160.1058832200313" x2="-16.896035731777488" y2="1158.4534915305878" /><line x1="-16.896035731777488" y1="1158.4534915305878" x2="-14.005080174020039" y2="1156.1458197052327" /><line x1="-14.005080174020039" y1="1156.1458197052327" x2="-11.19287934170097" y2="1153.2051949868453" /><line x1="-11.19287934170097" y1="1153.2051949868453" x2="-8.543285424573593" y2="1149.667438734423" /><line x1="-8.543285424573593" y1="1149.667438734423" x2="-6.134955715601813" y2="1145.581170315923" /><line x1="-6.134955715601813" y1="1145.581170315923" x2="-4.039541662279906" y2="1141.006828277969" /><line x1="-4.039541662279906" y1="1141.006828277969" x2="-2.320031951372936" y2="1136.0154268146166" /><line x1="-2.320031951372936" y1="1136.0154268146166" x2="-1.029299188105273" y2="1130.6870779476253" /><line x1="-1.029299188105273" y1="1130.6870779476253" x2="-0.20887648149328136" y2="1125.1093137730386" /><line x1="-0.20887648149328136" y1="1125.1093137730386" x2="0.11200449014257359" y2="1119.375239186524" /><line x1="0.11200449014257359" y1="1119.375239186524" x2="-0.08290487189657175" y2="1113.5815674644657" /><line x1="-0.08290487189657175" y1="1113.5815674644657" x2="-0.796485346332436" y2="1107.8265685500655" /><line x1="-0.796485346332436" y1="1107.8265685500655" x2="-2.0181703760281473" y2="1102.2079880533822" /><line x1="-2.0181703760281473" y1="1102.2079880533822" x2="-3.724173580560055" y2="1096.8209679409513" /><line x1="-3.724173580560055" y1="1096.8209679409513" x2="-5.878017832505929" y2="1091.7560449461077" /><line x1="-5.878017832505929" y1="1091.7560449461077" x2="-8.431355786366343" y2="1087.0972159993325" /><line x1="-8.431355786366343" y1="1087.0972159993325" x2="-11.32505972837491" y2="1082.9201900756482" /><line x1="-11.32505972837491" y1="1082.9201900756482" x2="-14.490561977014195" y2="1079.2907774612252" /><line x1="-14.490561977014195" y1="1079.2907774612252" x2="-17.85141126823661" y2="1076.2635403417698" /><line x1="-17.85141126823661" y1="1076.2635403417698" x2="-21.32500851781318" y2="1073.8806596572151" /><line x1="-21.32500851781318" y1="1073.8806596572151" x2="-24.824490140377733" y2="1072.1711015753485" /><line x1="-24.824490140377733" y1="1072.1711015753485" x2="-28.26071612246103" y2="1071.1500452872226" /><line x1="-28.26071612246103" y1="1071.1500452872226" x2="-31.544300898230407" y2="1070.8186352020175" /><line x1="-31.544300898230407" y1="1070.8186352020175" x2="-34.58767463767812" y2="1071.1640485302596" /><line x1="-34.58767463767812" y1="1071.1640485302596" x2="-37.30709046823425" y2="1072.159837705467" /><line x1="-37.30709046823425" y1="1072.159837705467" x2="-39.62457312425622" y2="1073.7666242385335" /><line x1="-39.62457312425622" y1="1073.7666242385335" x2="-41.46971215511398" y2="1075.9330223550592" /><line x1="-41.46971215511398" y1="1075.9330223550592" x2="-42.7813312307064" y2="1078.5968464822015" /><line x1="-42.7813312307064" y1="1078.5968464822015" x2="-43.50891865293631" y2="1081.686580057308" /><line x1="-43.50891865293631" y1="1081.686580057308" x2="-43.61384385365767" y2="1085.1230065362752" /><line x1="-43.61384385365767" y1="1085.1230065362752" x2="-43.070312570841544" y2="1088.8210183710514" /></g>
</g>
<g id="circle" >
<g >
<ellipse
    cx="0.0"
    cy="1122.51968532"
    rx="74.25200696984253"
    ry="74.25200696984253"
/>
</g>
</g>
</svg>